<svg width="100" height="100" viewBox="0 0 100 100" fill="none" xmlns="http://www.w3.org/2000/svg">
<path d="M58.3969 6.98234L43.7366 6.96635C41.2865 6.96382 39.2948 5.51669 39.2893 3.73265C39.284 1.9498 41.2669 0.507406 43.7171 0.508756L58.3773 0.524743C60.8275 0.527269 62.8192 1.97557 62.8245 3.75844C62.8282 5.54046 60.847 6.985 58.3969 6.98234Z" fill="#63503D"/>
<path d="M37.9179 48.1129L1.29679 48.0741L1.25055 32.7834L37.8717 32.822L37.9179 48.1129Z" fill="#C5B9AB"/>
<path d="M29.4836 19.1994L5.06034 19.174L5.05515 17.4522L29.4784 17.4778L29.4836 19.1994Z" fill="#63503D"/>
<path d="M29.5045 21.8428L5.08135 21.8173L5.07875 20.9565L29.5019 20.982L29.5045 21.8428Z" fill="#63503D"/>
<path d="M29.5147 23.3498L5.09142 23.3232L5.08882 22.4622L29.5119 22.489L29.5147 23.3498Z" fill="#63503D"/>
<path d="M29.5248 24.8557L5.10154 24.8302L5.09894 23.9693L29.5222 23.9949L29.5248 24.8557Z" fill="#63503D"/>
<path d="M37.9573 45.0877C39.7817 45.0899 41.2697 46.172 41.2738 47.4993C41.2778 48.8269 39.7962 49.9045 37.9718 49.9033C36.1474 49.9011 34.6594 48.8204 34.6553 47.4917C34.6513 46.163 36.1329 45.0854 37.9573 45.0877ZM37.9526 43.5169C34.9331 43.514 32.4899 45.2913 32.4965 47.4883C32.5033 49.6854 34.9572 51.4688 37.9766 51.473C40.9961 51.477 43.4375 49.6979 43.4309 47.5007C43.4243 45.3037 40.9721 43.5198 37.9526 43.5169Z" fill="#917559"/>
<path d="M22.766 26.355L5.11208 26.3359L5.10948 25.4751L22.7632 25.4942L22.766 26.355Z" fill="#63503D"/>
</svg>
