<svg width="172" height="167" viewBox="0 0 172 167" fill="none" xmlns="http://www.w3.org/2000/svg">
<path d="M70.49 161.182L103.947 166.329L171.587 125.256L140.59 107.579L133.741 106.132L70.49 161.182Z" fill="#C2A49D"/>
<path d="M156.191 7.69901C156.191 7.69901 151.666 15.704 149.928 18.716C149.09 20.166 145.365 18.712 144.315 22.887L132.964 16.337C134.189 11.574 138.239 11.904 139.227 10.178C140.715 7.61501 144.477 0.936005 144.477 0.936005L156.191 7.69901Z" fill="#E0C5A4"/>
<path d="M132.965 125.112L90.962 100.862V29.369L132.965 53.619V125.112Z" fill="#CDAD8A"/>
<path d="M90.962 100.862L28.487 136.931V65.439L90.962 29.369V100.862Z" fill="#A48465"/>
<path d="M132.965 53.619L90.962 29.369L119.35 4.008L161.354 28.258L132.965 53.619Z" fill="#D8BA97"/>
<path d="M75.901 76.236C75.749 76.236 75.595 76.21 75.444 76.154C72.062 74.914 70.88 72.322 70.831 72.212C70.534 71.542 70.836 70.758 71.506 70.461C72.173 70.166 72.951 70.463 73.252 71.125C73.296 71.217 74.091 72.832 76.357 73.662C77.045 73.914 77.399 74.677 77.146 75.365C76.95 75.902 76.442 76.236 75.901 76.236Z" fill="white"/>
<path d="M86.732 74.955C86.343 74.955 85.957 74.785 85.695 74.458C85.63 74.38 84.462 73.011 82.061 72.763C81.332 72.688 80.802 72.036 80.877 71.307C80.952 70.578 81.602 70.046 82.333 70.123C85.916 70.492 87.701 72.714 87.774 72.808C88.227 73.384 88.127 74.218 87.551 74.671C87.308 74.862 87.02 74.955 86.732 74.955Z" fill="#EAE4E5"/>
<path d="M91.252 71.692C90.863 71.692 90.477 71.522 90.215 71.195C90.15 71.117 88.982 69.747 86.581 69.5C85.852 69.425 85.322 68.773 85.397 68.044C85.472 67.315 86.122 66.783 86.853 66.86C90.436 67.229 92.22 69.451 92.294 69.545C92.747 70.121 92.647 70.955 92.071 71.408C91.828 71.6 91.539 71.692 91.252 71.692Z" fill="#EAE4E5"/>
<path d="M76.241 78.081C75.852 78.081 75.466 77.91 75.204 77.584C75.139 77.506 73.971 76.136 71.57 75.889C70.841 75.814 70.311 75.162 70.386 74.433C70.461 73.704 71.111 73.172 71.842 73.249C75.425 73.618 77.21 75.84 77.284 75.934C77.737 76.51 77.637 77.345 77.061 77.797C76.817 77.989 76.528 78.081 76.241 78.081Z" fill="#EAE4E5"/>
<path d="M80.512 64.198C80.123 64.198 79.737 64.027 79.475 63.701C79.41 63.623 78.242 62.254 75.841 62.006C75.112 61.931 74.582 61.279 74.657 60.55C74.732 59.821 75.381 59.289 76.113 59.366C79.696 59.735 81.48 61.957 81.554 62.051C82.007 62.627 81.907 63.462 81.331 63.914C81.088 64.105 80.799 64.198 80.512 64.198Z" fill="#EAE4E5"/>
<path d="M77.59 79.936C77.246 79.936 76.903 79.803 76.643 79.539C76.132 79.019 76.137 78.185 76.651 77.671C76.722 77.597 77.954 76.286 77.936 73.873C77.931 73.14 78.52 72.541 79.253 72.536C79.256 72.536 79.26 72.536 79.263 72.536C79.991 72.536 80.584 73.123 80.59 73.853C80.617 77.455 78.605 79.472 78.519 79.557C78.262 79.81 77.926 79.936 77.59 79.936Z" fill="white"/>
<path d="M69.901 72.592C69.557 72.592 69.214 72.459 68.954 72.195C68.443 71.675 68.448 70.841 68.962 70.327C69.033 70.253 70.265 68.942 70.247 66.529C70.242 65.796 70.831 65.197 71.564 65.192C71.567 65.192 71.571 65.192 71.574 65.192C72.302 65.192 72.895 65.779 72.901 66.509C72.928 70.111 70.916 72.129 70.83 72.212C70.573 72.466 70.237 72.592 69.901 72.592Z" fill="white"/>
<path d="M82.389 72.31C82.045 72.31 81.702 72.177 81.442 71.913C80.931 71.393 80.936 70.559 81.45 70.045C81.521 69.971 82.753 68.66 82.735 66.247C82.73 65.514 83.319 64.915 84.052 64.91C84.055 64.91 84.059 64.91 84.062 64.91C84.79 64.91 85.383 65.497 85.389 66.227C85.416 69.829 83.404 71.846 83.318 71.931C83.061 72.184 82.725 72.31 82.389 72.31Z" fill="white"/>
<path d="M82.173 70.98C82.137 70.98 82.101 70.979 82.064 70.976C78.474 70.685 76.641 68.503 76.565 68.41C76.1 67.844 76.181 67.007 76.748 66.542C77.311 66.079 78.141 66.157 78.608 66.715C78.673 66.79 79.871 68.135 82.279 68.33C83.01 68.389 83.554 69.029 83.495 69.76C83.438 70.454 82.857 70.98 82.173 70.98Z" fill="white"/>
<path d="M76.918 69.223C76.882 69.223 76.846 69.222 76.809 69.219C73.219 68.928 71.386 66.746 71.31 66.653C70.845 66.087 70.926 65.25 71.492 64.785C72.055 64.322 72.885 64.4 73.352 64.958C73.417 65.033 74.615 66.378 77.023 66.573C77.753 66.632 78.298 67.272 78.239 68.003C78.183 68.697 77.602 69.223 76.918 69.223Z" fill="white"/>
<path d="M89.133 72.526C88.949 72.526 88.762 72.488 88.584 72.406L84.003 70.32C83.336 70.016 83.041 69.229 83.345 68.562C83.649 67.895 84.436 67.6 85.103 67.904L89.684 69.99C90.351 70.294 90.646 71.081 90.342 71.748C90.119 72.237 89.637 72.526 89.133 72.526Z" fill="#D3C5C8"/>
<path d="M84.335 75.661C84.151 75.661 83.964 75.623 83.786 75.541L79.205 73.455C78.538 73.151 78.243 72.364 78.547 71.697C78.851 71.03 79.638 70.735 80.305 71.039L84.886 73.125C85.553 73.429 85.848 74.216 85.544 74.883C85.321 75.373 84.839 75.661 84.335 75.661Z" fill="#D3C5C8"/>
<path d="M76.916 73.616C76.732 73.616 76.545 73.577 76.367 73.496L71.786 71.41C71.119 71.106 70.824 70.319 71.128 69.652C71.432 68.985 72.219 68.69 72.886 68.994L77.467 71.08C78.134 71.384 78.429 72.171 78.125 72.838C77.902 73.327 77.42 73.616 76.916 73.616Z" fill="#D3C5C8"/>
<path d="M78.552 72.755C78.039 72.755 77.551 72.456 77.334 71.955C76.622 70.311 74.273 70.638 74.173 70.654C73.452 70.76 72.774 70.265 72.663 69.543C72.552 68.821 73.041 68.146 73.762 68.031C77.283 67.47 79.194 69.57 79.769 70.899C80.06 71.572 79.751 72.353 79.079 72.645C78.908 72.72 78.729 72.755 78.552 72.755Z" fill="#EAE4E5"/>
<path d="M81.751 68.44C81.238 68.44 80.75 68.141 80.533 67.64C79.821 65.996 77.472 66.323 77.372 66.339C76.651 66.445 75.973 65.95 75.862 65.228C75.751 64.506 76.24 63.831 76.961 63.716C80.482 63.155 82.393 65.255 82.968 66.584C83.259 67.257 82.95 68.038 82.278 68.33C82.106 68.404 81.927 68.44 81.751 68.44Z" fill="#EAE4E5"/>
<path d="M85.57 65.708C85.418 65.708 85.264 65.682 85.113 65.627C81.731 64.387 80.549 61.794 80.5 61.685C80.203 61.015 80.505 60.231 81.175 59.934C81.842 59.639 82.621 59.936 82.921 60.598C82.965 60.69 83.76 62.305 86.026 63.135C86.714 63.387 87.068 64.15 86.815 64.838C86.62 65.375 86.111 65.708 85.57 65.708Z" fill="white"/>
<path d="M96.402 64.428C96.013 64.428 95.627 64.257 95.365 63.931C95.3 63.853 94.132 62.484 91.731 62.236C91.002 62.161 90.472 61.509 90.547 60.78C90.622 60.051 91.271 59.519 92.003 59.596C95.586 59.965 97.371 62.187 97.444 62.281C97.897 62.857 97.797 63.691 97.221 64.144C96.978 64.335 96.689 64.428 96.402 64.428Z" fill="#EAE4E5"/>
<path d="M100.921 61.165C100.532 61.165 100.146 60.994 99.884 60.668C99.819 60.59 98.651 59.22 96.25 58.973C95.521 58.898 94.991 58.246 95.066 57.517C95.141 56.788 95.79 56.256 96.522 56.333C100.105 56.702 101.889 58.924 101.963 59.018C102.416 59.594 102.316 60.428 101.74 60.881C101.498 61.073 101.209 61.165 100.921 61.165Z" fill="#EAE4E5"/>
<path d="M85.91 67.554C85.521 67.554 85.135 67.384 84.873 67.057C84.808 66.979 83.64 65.609 81.239 65.362C80.51 65.287 79.98 64.635 80.055 63.906C80.13 63.177 80.779 62.645 81.511 62.722C85.094 63.091 86.879 65.313 86.953 65.407C87.406 65.983 87.306 66.818 86.73 67.271C86.486 67.462 86.197 67.554 85.91 67.554Z" fill="#EAE4E5"/>
<path d="M87.26 69.409C86.916 69.409 86.573 69.276 86.313 69.012C85.802 68.492 85.807 67.658 86.321 67.144C86.392 67.07 87.624 65.759 87.606 63.345C87.601 62.612 88.19 62.013 88.923 62.008C88.926 62.008 88.93 62.008 88.933 62.008C89.661 62.008 90.254 62.596 90.26 63.325C90.287 66.927 88.275 68.945 88.189 69.029C87.932 69.282 87.596 69.409 87.26 69.409Z" fill="white"/>
<path d="M79.571 62.065C79.227 62.065 78.884 61.932 78.624 61.668C78.113 61.148 78.118 60.314 78.632 59.8C78.703 59.726 79.935 58.415 79.917 56.002C79.912 55.269 80.501 54.67 81.234 54.665C81.237 54.665 81.241 54.665 81.244 54.665C81.972 54.665 82.565 55.252 82.571 55.982C82.598 59.584 80.586 61.602 80.5 61.686C80.242 61.939 79.906 62.065 79.571 62.065Z" fill="white"/>
<path d="M92.058 61.783C91.714 61.783 91.371 61.65 91.111 61.386C90.6 60.866 90.605 60.032 91.119 59.518C91.19 59.444 92.422 58.133 92.404 55.719C92.399 54.986 92.988 54.387 93.721 54.382C93.724 54.382 93.728 54.382 93.731 54.382C94.459 54.382 95.052 54.97 95.058 55.699C95.085 59.301 93.073 61.319 92.987 61.403C92.73 61.657 92.394 61.783 92.058 61.783Z" fill="white"/>
<path d="M74.134 82.127C73.79 82.127 73.447 81.994 73.187 81.73C72.676 81.21 72.681 80.376 73.195 79.862C73.266 79.788 74.498 78.476 74.48 76.063C74.475 75.33 75.064 74.731 75.797 74.726C75.8 74.726 75.804 74.726 75.807 74.726C76.535 74.726 77.128 75.314 77.134 76.043C77.161 79.645 75.149 81.663 75.063 81.746C74.806 82 74.47 82.127 74.134 82.127Z" fill="white"/>
<path d="M91.842 60.453C91.806 60.453 91.77 60.452 91.733 60.449C88.143 60.158 86.31 57.976 86.234 57.883C85.769 57.317 85.85 56.481 86.417 56.015C86.98 55.552 87.81 55.63 88.277 56.188C88.342 56.263 89.54 57.608 91.948 57.803C92.678 57.862 93.223 58.502 93.164 59.233C93.107 59.927 92.527 60.453 91.842 60.453Z" fill="white"/>
<path d="M86.587 58.696C86.551 58.696 86.515 58.695 86.478 58.692C82.888 58.401 81.055 56.219 80.979 56.126C80.513 55.56 80.595 54.723 81.161 54.258C81.724 53.795 82.554 53.873 83.021 54.431C83.086 54.506 84.284 55.851 86.692 56.046C87.422 56.105 87.967 56.745 87.908 57.476C87.853 58.17 87.272 58.696 86.587 58.696Z" fill="white"/>
<path d="M98.803 61.999C98.619 61.999 98.432 61.961 98.254 61.879L93.673 59.793C93.006 59.489 92.711 58.702 93.015 58.035C93.319 57.368 94.106 57.073 94.773 57.377L99.354 59.463C100.021 59.767 100.316 60.554 100.012 61.221C99.789 61.71 99.307 61.999 98.803 61.999Z" fill="#D3C5C8"/>
<path d="M94.004 65.134C93.82 65.134 93.633 65.096 93.455 65.014L88.874 62.928C88.207 62.624 87.912 61.837 88.216 61.17C88.52 60.503 89.307 60.208 89.974 60.512L94.555 62.598C95.222 62.902 95.517 63.689 95.213 64.356C94.99 64.846 94.508 65.134 94.004 65.134Z" fill="#D3C5C8"/>
<path d="M84.746 63.983C84.598 63.875 84.469 63.733 84.373 63.562L81.904 59.176C81.545 58.537 81.771 57.728 82.41 57.368C83.049 57.009 83.858 57.235 84.218 57.874L86.687 62.26C87.046 62.899 86.82 63.708 86.181 64.068C85.713 64.331 85.153 64.28 84.746 63.983Z" fill="#D3C5C8"/>
<path d="M85.634 63.129C85.295 62.743 85.198 62.179 85.431 61.686C86.196 60.066 84.4 58.517 84.323 58.452C83.768 57.981 83.692 57.144 84.161 56.585C84.63 56.025 85.46 55.947 86.022 56.413C88.767 58.688 88.45 61.51 87.831 62.82C87.518 63.483 86.727 63.766 86.064 63.453C85.895 63.372 85.75 63.261 85.634 63.129Z" fill="#EAE4E5"/>
<path d="M91.421 57.913C90.908 57.913 90.42 57.614 90.203 57.113C89.491 55.469 87.142 55.796 87.042 55.811C86.321 55.917 85.643 55.422 85.532 54.7C85.421 53.978 85.91 53.303 86.631 53.188C90.152 52.627 92.063 54.727 92.638 56.056C92.929 56.729 92.62 57.51 91.948 57.802C91.776 57.877 91.597 57.913 91.421 57.913Z" fill="#EAE4E5"/>
<path d="M81.751 60.195C81.238 60.195 80.75 59.896 80.533 59.395C79.821 57.751 77.472 58.078 77.372 58.094C76.651 58.2 75.973 57.705 75.862 56.983C75.751 56.261 76.24 55.586 76.961 55.471C80.482 54.91 82.393 57.01 82.968 58.339C83.259 59.012 82.95 59.793 82.278 60.085C82.106 60.159 81.927 60.195 81.751 60.195Z" fill="#EAE4E5"/>
<path d="M77.861 67.599C77.348 67.599 76.86 67.3 76.642 66.799C75.93 65.155 73.581 65.482 73.481 65.498C72.76 65.604 72.082 65.109 71.971 64.387C71.86 63.665 72.349 62.99 73.07 62.875C76.591 62.314 78.502 64.414 79.077 65.743C79.368 66.416 79.059 67.197 78.387 67.489C78.216 67.564 78.037 67.599 77.861 67.599Z" fill="#EAE4E5"/>
<path d="M82.204 80.066C82.052 80.066 81.898 80.04 81.747 79.985C78.365 78.745 77.183 76.153 77.134 76.043C76.837 75.373 77.139 74.589 77.809 74.292C78.477 73.997 79.255 74.294 79.555 74.956C79.599 75.048 80.394 76.663 82.66 77.493C83.348 77.745 83.702 78.508 83.449 79.196C83.254 79.733 82.746 80.066 82.204 80.066Z" fill="white"/>
<path d="M93.036 78.786C92.647 78.786 92.261 78.615 91.999 78.289C91.934 78.211 90.766 76.841 88.365 76.594C87.636 76.519 87.106 75.867 87.181 75.138C87.256 74.409 87.905 73.877 88.637 73.954C92.22 74.323 94.004 76.545 94.078 76.639C94.531 77.215 94.431 78.049 93.855 78.502C93.612 78.693 93.323 78.786 93.036 78.786Z" fill="#EAE4E5"/>
<path d="M97.556 75.523C97.167 75.523 96.781 75.352 96.519 75.026C96.454 74.948 95.286 73.578 92.885 73.331C92.156 73.256 91.626 72.604 91.701 71.875C91.776 71.146 92.425 70.614 93.157 70.691C96.74 71.06 98.525 73.282 98.599 73.376C99.052 73.952 98.952 74.786 98.376 75.239C98.132 75.431 97.843 75.523 97.556 75.523Z" fill="#EAE4E5"/>
<path d="M82.544 81.912C82.155 81.912 81.769 81.742 81.507 81.415C81.442 81.337 80.274 79.968 77.873 79.72C77.144 79.645 76.614 78.993 76.689 78.264C76.764 77.535 77.414 77.003 78.145 77.08C81.728 77.449 83.512 79.671 83.586 79.765C84.039 80.341 83.939 81.176 83.363 81.629C83.121 81.819 82.831 81.912 82.544 81.912Z" fill="#EAE4E5"/>
<path d="M83.894 83.767C83.55 83.767 83.207 83.634 82.947 83.37C82.436 82.85 82.441 82.016 82.955 81.502C83.026 81.428 84.258 80.117 84.24 77.703C84.235 76.97 84.824 76.372 85.557 76.366C85.56 76.366 85.564 76.366 85.567 76.366C86.295 76.366 86.888 76.954 86.894 77.683C86.921 81.285 84.909 83.303 84.823 83.387C84.566 83.64 84.23 83.767 83.894 83.767Z" fill="white"/>
<path d="M76.205 76.423C75.861 76.423 75.518 76.29 75.258 76.026C74.747 75.506 74.752 74.672 75.266 74.158C75.337 74.084 76.569 72.773 76.551 70.36C76.546 69.627 77.135 69.028 77.868 69.023C77.871 69.023 77.875 69.023 77.878 69.023C78.606 69.023 79.199 69.61 79.205 70.34C79.232 73.942 77.22 75.959 77.134 76.044C76.877 76.297 76.541 76.423 76.205 76.423Z" fill="white"/>
<path d="M88.693 76.141C88.349 76.141 88.006 76.008 87.746 75.744C87.235 75.224 87.24 74.39 87.754 73.876C87.825 73.802 89.057 72.491 89.039 70.077C89.034 69.344 89.623 68.746 90.356 68.74C90.359 68.74 90.363 68.74 90.366 68.74C91.094 68.74 91.687 69.328 91.693 70.057C91.72 73.659 89.708 75.677 89.622 75.761C89.364 76.015 89.028 76.141 88.693 76.141Z" fill="white"/>
<path d="M88.477 74.811C88.441 74.811 88.405 74.81 88.368 74.807C84.778 74.516 82.945 72.334 82.869 72.241C82.404 71.675 82.485 70.839 83.052 70.373C83.615 69.91 84.445 69.988 84.912 70.546C84.977 70.621 86.175 71.966 88.583 72.161C89.314 72.22 89.858 72.86 89.799 73.591C89.742 74.285 89.161 74.811 88.477 74.811Z" fill="white"/>
<path d="M83.222 73.054C83.186 73.054 83.15 73.053 83.113 73.05C79.523 72.759 77.69 70.577 77.614 70.484C77.149 69.918 77.23 69.081 77.796 68.616C78.359 68.153 79.189 68.231 79.656 68.789C79.721 68.864 80.919 70.209 83.327 70.404C84.058 70.463 84.602 71.103 84.543 71.834C84.487 72.528 83.906 73.054 83.222 73.054Z" fill="white"/>
<path d="M92.969 77.277C92.844 77.142 92.745 76.979 92.683 76.793L91.093 72.018C90.862 71.322 91.238 70.571 91.933 70.339C92.629 70.108 93.38 70.484 93.612 71.179L95.202 75.955C95.433 76.65 95.057 77.402 94.362 77.633C93.852 77.803 93.312 77.646 92.969 77.277Z" fill="#D3C5C8"/>
<path d="M90.639 79.492C90.455 79.492 90.268 79.453 90.09 79.372L85.509 77.286C84.842 76.982 84.547 76.195 84.851 75.528C85.155 74.861 85.942 74.566 86.609 74.87L91.19 76.956C91.857 77.26 92.152 78.047 91.848 78.714C91.625 79.203 91.143 79.492 90.639 79.492Z" fill="#D3C5C8"/>
<path d="M83.219 77.447C83.035 77.447 82.848 77.409 82.67 77.327L78.089 75.241C77.422 74.937 77.127 74.15 77.431 73.483C77.735 72.816 78.522 72.521 79.189 72.825L83.77 74.911C84.437 75.215 84.732 76.002 84.428 76.669C84.205 77.158 83.723 77.447 83.219 77.447Z" fill="#D3C5C8"/>
<path d="M84.856 76.586C84.343 76.586 83.855 76.287 83.638 75.786C82.926 74.142 80.577 74.469 80.477 74.484C79.756 74.59 79.078 74.095 78.967 73.373C78.856 72.651 79.345 71.976 80.066 71.861C83.587 71.3 85.498 73.4 86.073 74.729C86.364 75.402 86.055 76.183 85.383 76.475C85.211 76.551 85.032 76.586 84.856 76.586Z" fill="#EAE4E5"/>
<path d="M88.055 72.27C87.542 72.27 87.053 71.971 86.836 71.47C86.124 69.826 83.775 70.153 83.675 70.168C82.954 70.274 82.276 69.779 82.165 69.057C82.054 68.335 82.543 67.66 83.264 67.545C86.785 66.984 88.696 69.084 89.271 70.413C89.562 71.086 89.253 71.867 88.581 72.159C88.41 72.235 88.231 72.27 88.055 72.27Z" fill="#EAE4E5"/>
<path d="M91.874 69.539C91.722 69.539 91.568 69.513 91.417 69.458C88.035 68.218 86.853 65.626 86.804 65.516C86.507 64.846 86.809 64.062 87.479 63.765C88.147 63.47 88.925 63.767 89.225 64.429C89.269 64.521 90.064 66.136 92.33 66.966C93.018 67.218 93.372 67.981 93.119 68.669C92.923 69.206 92.415 69.539 91.874 69.539Z" fill="white"/>
<path d="M102.706 68.259C102.317 68.259 101.931 68.089 101.669 67.762C101.604 67.684 100.436 66.314 98.035 66.067C97.306 65.992 96.776 65.34 96.851 64.611C96.926 63.882 97.576 63.35 98.307 63.427C101.89 63.796 103.674 66.018 103.749 66.112C104.202 66.688 104.102 67.523 103.526 67.975C103.282 68.166 102.993 68.259 102.706 68.259Z" fill="#EAE4E5"/>
<path d="M107.225 64.996C106.836 64.996 106.45 64.826 106.188 64.499C106.123 64.421 104.955 63.051 102.554 62.804C101.825 62.729 101.295 62.077 101.37 61.348C101.445 60.619 102.095 60.087 102.826 60.164C106.409 60.533 108.194 62.755 108.268 62.849C108.721 63.425 108.621 64.26 108.045 64.712C107.801 64.903 107.512 64.996 107.225 64.996Z" fill="#EAE4E5"/>
<path d="M92.214 71.385C91.825 71.385 91.439 71.215 91.177 70.888C91.112 70.81 89.944 69.44 87.543 69.193C86.814 69.118 86.284 68.466 86.359 67.737C86.434 67.008 87.084 66.476 87.815 66.553C91.398 66.922 93.183 69.144 93.256 69.238C93.709 69.814 93.609 70.648 93.033 71.101C92.79 71.293 92.501 71.385 92.214 71.385Z" fill="#EAE4E5"/>
<path d="M93.564 73.24C93.22 73.24 92.877 73.107 92.617 72.843C92.106 72.323 92.111 71.489 92.625 70.975C92.696 70.901 93.928 69.59 93.91 67.176C93.905 66.443 94.494 65.845 95.227 65.839C95.23 65.839 95.234 65.839 95.237 65.839C95.965 65.839 96.558 66.427 96.564 67.156C96.591 70.758 94.579 72.775 94.493 72.859C94.235 73.113 93.899 73.24 93.564 73.24Z" fill="white"/>
<path d="M85.875 65.896C85.531 65.896 85.188 65.763 84.928 65.499C84.417 64.979 84.422 64.145 84.936 63.631C85.007 63.557 86.239 62.246 86.221 59.832C86.216 59.099 86.805 58.5 87.538 58.495C87.541 58.495 87.545 58.495 87.548 58.495C88.276 58.495 88.869 59.083 88.875 59.812C88.902 63.414 86.89 65.432 86.804 65.516C86.546 65.769 86.21 65.896 85.875 65.896Z" fill="white"/>
<path d="M98.362 65.614C98.018 65.614 97.675 65.481 97.415 65.217C96.904 64.697 96.909 63.863 97.423 63.349C97.494 63.275 98.726 61.964 98.708 59.55C98.703 58.817 99.292 58.219 100.025 58.213C100.028 58.213 100.032 58.213 100.035 58.213C100.763 58.213 101.356 58.801 101.362 59.53C101.389 63.132 99.377 65.149 99.291 65.233C99.034 65.487 98.698 65.614 98.362 65.614Z" fill="white"/>
<path d="M98.146 64.284C98.11 64.284 98.074 64.283 98.037 64.28C94.447 63.989 92.614 61.807 92.538 61.714C92.073 61.148 92.154 60.312 92.721 59.846C93.284 59.383 94.114 59.461 94.581 60.019C94.646 60.094 95.844 61.439 98.252 61.634C98.983 61.693 99.527 62.333 99.468 63.064C99.411 63.758 98.83 64.284 98.146 64.284Z" fill="white"/>
<path d="M92.891 62.526C92.855 62.526 92.819 62.525 92.782 62.522C89.192 62.231 87.36 60.049 87.283 59.956C86.818 59.39 86.899 58.554 87.466 58.088C88.029 57.625 88.859 57.703 89.326 58.261C89.391 58.336 90.589 59.681 92.997 59.876C93.728 59.935 94.272 60.575 94.213 61.306C94.156 62.001 93.576 62.526 92.891 62.526Z" fill="white"/>
<path d="M105.106 65.829C104.922 65.829 104.735 65.791 104.557 65.709L99.976 63.623C99.309 63.319 99.014 62.532 99.318 61.865C99.622 61.198 100.409 60.903 101.076 61.207L105.657 63.293C106.324 63.597 106.619 64.384 106.315 65.051C106.092 65.541 105.611 65.829 105.106 65.829Z" fill="#D3C5C8"/>
<path d="M100.308 68.965C100.124 68.965 99.937 68.926 99.759 68.845L95.178 66.759C94.511 66.455 94.216 65.668 94.52 65.001C94.824 64.334 95.611 64.039 96.278 64.343L100.859 66.429C101.526 66.733 101.821 67.52 101.517 68.187C101.294 68.677 100.812 68.965 100.308 68.965Z" fill="#D3C5C8"/>
<path d="M92.889 66.92C92.705 66.92 92.518 66.882 92.34 66.8L87.759 64.714C87.092 64.41 86.797 63.623 87.101 62.956C87.405 62.289 88.192 61.994 88.859 62.298L93.44 64.384C94.107 64.688 94.402 65.475 94.098 66.142C93.875 66.631 93.393 66.92 92.889 66.92Z" fill="#D3C5C8"/>
<path d="M94.526 66.059C94.013 66.059 93.525 65.76 93.308 65.259C92.596 63.615 90.247 63.942 90.147 63.957C89.426 64.063 88.748 63.568 88.637 62.846C88.526 62.124 89.015 61.449 89.736 61.334C93.257 60.773 95.168 62.873 95.743 64.202C96.034 64.875 95.725 65.656 95.053 65.948C94.881 66.023 94.702 66.059 94.526 66.059Z" fill="#EAE4E5"/>
<path d="M98.751 59.115C98.423 59.51 97.881 59.694 97.357 59.54C95.638 59.036 94.387 61.052 94.335 61.138C93.956 61.76 93.141 61.965 92.516 61.589C91.89 61.213 91.684 60.405 92.057 59.777C93.877 56.711 96.714 56.585 98.104 56.992C98.807 57.198 99.211 57.935 99.005 58.639C98.951 58.819 98.864 58.979 98.751 59.115Z" fill="#EAE4E5"/>
<path d="M87.003 85.243C86.851 85.243 86.697 85.217 86.546 85.162C83.164 83.922 81.982 81.329 81.933 81.22C81.636 80.55 81.938 79.766 82.608 79.469C83.275 79.174 84.054 79.471 84.354 80.133C84.398 80.225 85.193 81.84 87.459 82.67C88.147 82.922 88.501 83.685 88.248 84.373C88.052 84.909 87.544 85.243 87.003 85.243Z" fill="white"/>
<path d="M97.834 83.962C97.445 83.962 97.059 83.791 96.797 83.465C96.732 83.387 95.564 82.017 93.163 81.77C92.434 81.695 91.904 81.043 91.979 80.314C92.054 79.585 92.704 79.053 93.435 79.13C97.018 79.499 98.802 81.721 98.877 81.815C99.33 82.391 99.23 83.225 98.654 83.678C98.411 83.869 98.122 83.962 97.834 83.962Z" fill="#EAE4E5"/>
<path d="M102.354 80.7C101.965 80.7 101.579 80.529 101.317 80.203C101.252 80.125 100.084 78.756 97.683 78.508C96.954 78.433 96.424 77.781 96.499 77.052C96.574 76.323 97.223 75.791 97.955 75.868C101.538 76.237 103.323 78.459 103.397 78.553C103.85 79.129 103.75 79.964 103.174 80.416C102.93 80.607 102.641 80.7 102.354 80.7Z" fill="#EAE4E5"/>
<path d="M87.343 87.089C86.954 87.089 86.568 86.919 86.306 86.592C86.241 86.514 85.073 85.145 82.672 84.897C81.943 84.822 81.413 84.17 81.488 83.441C81.563 82.712 82.213 82.18 82.944 82.257C86.527 82.626 88.311 84.848 88.386 84.942C88.839 85.518 88.739 86.353 88.163 86.806C87.919 86.996 87.63 87.089 87.343 87.089Z" fill="#EAE4E5"/>
<path d="M88.693 88.943C88.349 88.943 88.006 88.81 87.746 88.546C87.235 88.026 87.24 87.192 87.754 86.678C87.825 86.604 89.057 85.293 89.039 82.879C89.034 82.146 89.623 81.547 90.356 81.542C90.359 81.542 90.363 81.542 90.366 81.542C91.094 81.542 91.687 82.13 91.693 82.859C91.72 86.461 89.708 88.479 89.622 88.563C89.364 88.817 89.028 88.943 88.693 88.943Z" fill="white"/>
<path d="M99.397 60.958C99.053 60.958 98.71 60.825 98.45 60.561C97.939 60.041 97.944 59.207 98.458 58.693C98.529 58.619 99.761 57.308 99.743 54.894C99.738 54.161 100.327 53.563 101.06 53.557C101.063 53.557 101.067 53.557 101.07 53.557C101.798 53.557 102.391 54.145 102.397 54.874C102.424 58.476 100.412 60.494 100.326 60.578C100.069 60.832 99.733 60.958 99.397 60.958Z" fill="white"/>
<path d="M81.003 81.6C80.659 81.6 80.316 81.467 80.056 81.203C79.545 80.683 79.55 79.849 80.064 79.335C80.135 79.261 81.367 77.95 81.349 75.536C81.344 74.803 81.933 74.205 82.666 74.199C82.669 74.199 82.673 74.199 82.676 74.199C83.404 74.199 83.997 74.786 84.003 75.516C84.03 79.118 82.018 81.136 81.932 81.22C81.675 81.473 81.339 81.6 81.003 81.6Z" fill="white"/>
<path d="M93.491 81.318C93.147 81.318 92.804 81.185 92.544 80.921C92.033 80.401 92.038 79.567 92.552 79.053C92.623 78.979 93.855 77.668 93.837 75.254C93.832 74.521 94.421 73.922 95.154 73.917C95.157 73.917 95.161 73.917 95.164 73.917C95.892 73.917 96.485 74.505 96.491 75.234C96.518 78.836 94.506 80.854 94.42 80.938C94.163 81.191 93.827 81.318 93.491 81.318Z" fill="white"/>
<path d="M93.275 79.987C93.239 79.987 93.203 79.986 93.166 79.983C89.576 79.692 87.743 77.51 87.667 77.417C87.202 76.851 87.283 76.015 87.85 75.549C88.413 75.086 89.243 75.164 89.71 75.722C89.775 75.797 90.973 77.142 93.381 77.337C94.112 77.396 94.656 78.037 94.597 78.767C94.54 79.461 93.959 79.987 93.275 79.987Z" fill="white"/>
<path d="M88.379 77.82C88.343 77.826 88.308 77.831 88.271 77.834C84.682 78.138 82.515 76.288 82.425 76.208C81.873 75.726 81.815 74.888 82.297 74.336C82.776 73.787 83.608 73.727 84.16 74.2C84.236 74.263 85.64 75.393 88.047 75.189C88.777 75.127 89.42 75.669 89.482 76.399C89.54 77.093 89.054 77.708 88.379 77.82Z" fill="white"/>
<path d="M100.235 81.533C100.051 81.533 99.864 81.494 99.686 81.413L95.105 79.327C94.438 79.023 94.143 78.236 94.447 77.569C94.751 76.902 95.538 76.607 96.205 76.911L100.786 78.997C101.453 79.301 101.748 80.088 101.444 80.755C101.221 81.244 100.739 81.533 100.235 81.533Z" fill="#D3C5C8"/>
<path d="M95.437 84.669C95.253 84.669 95.066 84.63 94.888 84.549L90.307 82.463C89.64 82.159 89.345 81.372 89.649 80.705C89.953 80.038 90.74 79.743 91.407 80.047L95.988 82.133C96.655 82.437 96.95 83.224 96.646 83.891C96.423 84.38 95.941 84.669 95.437 84.669Z" fill="#D3C5C8"/>
<path d="M88.033 74.942C87.849 74.942 87.662 74.904 87.484 74.822L82.903 72.736C82.236 72.432 81.941 71.645 82.245 70.978C82.549 70.311 83.336 70.016 84.003 70.32L88.584 72.406C89.251 72.71 89.546 73.497 89.242 74.164C89.019 74.653 88.537 74.942 88.033 74.942Z" fill="#D3C5C8"/>
<path d="M88.018 82.623C87.834 82.623 87.647 82.585 87.469 82.503L82.888 80.417C82.221 80.113 81.926 79.326 82.23 78.659C82.534 77.992 83.321 77.697 83.988 78.001L88.569 80.087C89.236 80.391 89.531 81.178 89.227 81.845C89.004 82.334 88.522 82.623 88.018 82.623Z" fill="#D3C5C8"/>
<path d="M105.97 61.914C105.786 61.914 105.599 61.875 105.421 61.794L100.84 59.708C100.173 59.404 99.878 58.617 100.182 57.95C100.486 57.283 101.273 56.988 101.94 57.292L106.521 59.378C107.188 59.682 107.483 60.469 107.179 61.136C106.956 61.625 106.474 61.914 105.97 61.914Z" fill="#D3C5C8"/>
<path d="M89.655 81.763C89.142 81.763 88.654 81.464 88.437 80.963C87.725 79.319 85.376 79.646 85.276 79.662C84.555 79.768 83.877 79.273 83.766 78.551C83.655 77.829 84.144 77.154 84.865 77.039C88.386 76.478 90.297 78.578 90.872 79.907C91.163 80.58 90.854 81.361 90.182 81.653C90.01 81.727 89.831 81.763 89.655 81.763Z" fill="#EAE4E5"/>
<path d="M98.854 73.092C98.341 73.092 97.853 72.793 97.636 72.292C96.924 70.648 94.575 70.975 94.475 70.99C93.754 71.096 93.076 70.601 92.965 69.879C92.854 69.157 93.343 68.482 94.064 68.367C97.585 67.806 99.496 69.906 100.071 71.235C100.362 71.908 100.053 72.689 99.381 72.981C99.209 73.056 99.03 73.092 98.854 73.092Z" fill="#EAE4E5"/>
<path d="M96.672 74.716C96.52 74.716 96.366 74.69 96.215 74.635C92.833 73.395 91.651 70.802 91.602 70.693C91.305 70.023 91.607 69.239 92.277 68.942C92.944 68.647 93.723 68.944 94.023 69.606C94.067 69.698 94.862 71.313 97.128 72.143C97.816 72.395 98.17 73.158 97.917 73.846C97.722 74.382 97.213 74.716 96.672 74.716Z" fill="white"/>
<path d="M107.504 73.435C107.115 73.435 106.729 73.265 106.467 72.938C106.402 72.86 105.234 71.49 102.833 71.243C102.104 71.168 101.574 70.516 101.649 69.787C101.724 69.058 102.374 68.526 103.105 68.603C106.688 68.972 108.472 71.194 108.546 71.288C108.999 71.864 108.899 72.699 108.323 73.152C108.08 73.342 107.791 73.435 107.504 73.435Z" fill="#EAE4E5"/>
<path d="M112.024 70.173C111.635 70.173 111.249 70.003 110.987 69.676C110.922 69.598 109.754 68.229 107.353 67.981C106.624 67.906 106.094 67.254 106.169 66.525C106.244 65.796 106.894 65.264 107.625 65.341C111.208 65.71 112.992 67.932 113.066 68.026C113.519 68.602 113.419 69.437 112.843 69.89C112.6 70.08 112.311 70.173 112.024 70.173Z" fill="#EAE4E5"/>
<path d="M97.012 76.562C96.623 76.562 96.237 76.392 95.975 76.065C95.91 75.987 94.742 74.618 92.341 74.37C91.612 74.295 91.082 73.643 91.157 72.914C91.232 72.185 91.882 71.653 92.613 71.73C96.196 72.099 97.98 74.321 98.054 74.415C98.507 74.991 98.407 75.825 97.831 76.278C97.588 76.469 97.299 76.562 97.012 76.562Z" fill="#EAE4E5"/>
<path d="M98.362 78.416C98.018 78.416 97.675 78.283 97.415 78.019C96.904 77.499 96.909 76.665 97.423 76.151C97.494 76.077 98.726 74.766 98.708 72.353C98.703 71.62 99.292 71.022 100.025 71.016C100.028 71.016 100.032 71.016 100.035 71.016C100.763 71.016 101.356 71.604 101.362 72.333C101.389 75.935 99.377 77.953 99.291 78.036C99.034 78.29 98.698 78.416 98.362 78.416Z" fill="white"/>
<path d="M90.673 71.073C90.329 71.073 89.986 70.94 89.726 70.676C89.215 70.156 89.22 69.322 89.734 68.808C89.805 68.734 91.037 67.423 91.019 65.009C91.014 64.276 91.603 63.678 92.336 63.672C92.339 63.672 92.343 63.672 92.346 63.672C93.074 63.672 93.667 64.26 93.673 64.989C93.7 68.591 91.688 70.609 91.602 70.693C91.344 70.946 91.009 71.073 90.673 71.073Z" fill="white"/>
<path d="M103.161 70.791C102.817 70.791 102.474 70.658 102.214 70.394C101.703 69.874 101.708 69.04 102.222 68.526C102.293 68.452 103.525 67.141 103.507 64.727C103.502 63.994 104.091 63.396 104.824 63.39C104.827 63.39 104.831 63.39 104.834 63.39C105.562 63.39 106.155 63.978 106.161 64.707C106.188 68.309 104.176 70.327 104.09 70.41C103.832 70.664 103.496 70.791 103.161 70.791Z" fill="white"/>
<path d="M102.944 69.46C102.908 69.46 102.872 69.459 102.835 69.456C99.245 69.165 97.412 66.983 97.336 66.89C96.87 66.324 96.952 65.487 97.519 65.022C98.082 64.559 98.912 64.637 99.379 65.195C99.444 65.27 100.642 66.615 103.05 66.81C103.781 66.869 104.325 67.51 104.266 68.24C104.21 68.934 103.629 69.46 102.944 69.46Z" fill="white"/>
<path d="M97.69 67.703C97.654 67.703 97.618 67.702 97.581 67.699C93.991 67.408 92.158 65.226 92.082 65.133C91.617 64.567 91.698 63.731 92.264 63.265C92.827 62.802 93.657 62.88 94.124 63.438C94.189 63.513 95.387 64.858 97.795 65.053C98.526 65.112 99.07 65.752 99.011 66.483C98.955 67.177 98.374 67.703 97.69 67.703Z" fill="white"/>
<path d="M109.905 71.006C109.721 71.006 109.534 70.968 109.356 70.886L104.775 68.8C104.108 68.496 103.813 67.709 104.117 67.042C104.421 66.375 105.208 66.08 105.875 66.384L110.456 68.47C111.123 68.774 111.418 69.561 111.114 70.228C110.891 70.717 110.409 71.006 109.905 71.006Z" fill="#D3C5C8"/>
<path d="M105.106 74.142C104.922 74.142 104.735 74.103 104.557 74.022L99.976 71.936C99.309 71.632 99.014 70.845 99.318 70.178C99.622 69.511 100.409 69.216 101.076 69.52L105.657 71.606C106.324 71.91 106.619 72.697 106.315 73.364C106.092 73.853 105.611 74.142 105.106 74.142Z" fill="#D3C5C8"/>
<path d="M103.113 75.661C102.929 75.661 102.742 75.623 102.564 75.541L97.983 73.455C97.316 73.151 97.021 72.364 97.325 71.697C97.629 71.03 98.416 70.735 99.083 71.039L103.664 73.125C104.331 73.429 104.626 74.216 104.322 74.883C104.099 75.373 103.617 75.661 103.113 75.661Z" fill="#D3C5C8"/>
<path d="M92.55 61.914C92.366 61.914 92.179 61.875 92.001 61.794L87.42 59.708C86.753 59.404 86.458 58.617 86.762 57.95C87.066 57.283 87.853 56.988 88.52 57.292L93.101 59.378C93.768 59.682 94.063 60.469 93.759 61.136C93.536 61.625 93.055 61.914 92.55 61.914Z" fill="#D3C5C8"/>
<path d="M99.324 71.235C98.811 71.235 98.323 70.936 98.106 70.435C97.394 68.791 95.045 69.118 94.945 69.134C94.224 69.24 93.546 68.745 93.435 68.023C93.324 67.301 93.813 66.626 94.534 66.511C98.055 65.95 99.966 68.05 100.541 69.379C100.832 70.052 100.523 70.833 99.851 71.125C99.679 71.2 99.5 71.235 99.324 71.235Z" fill="#EAE4E5"/>
<path d="M102.523 66.92C102.01 66.92 101.522 66.621 101.304 66.12C100.592 64.476 98.243 64.803 98.143 64.819C97.422 64.925 96.744 64.43 96.633 63.708C96.522 62.986 97.011 62.311 97.732 62.196C101.253 61.635 103.164 63.735 103.739 65.064C104.03 65.737 103.721 66.518 103.049 66.809C102.878 66.884 102.699 66.92 102.523 66.92Z" fill="#EAE4E5"/>
<path d="M55.317 86.545C55.165 86.545 55.011 86.519 54.86 86.464C51.478 85.224 50.296 82.632 50.247 82.522C49.95 81.852 50.252 81.068 50.922 80.771C51.59 80.476 52.368 80.773 52.668 81.435C52.712 81.527 53.507 83.142 55.773 83.972C56.461 84.224 56.815 84.987 56.562 85.675C56.367 86.212 55.858 86.545 55.317 86.545Z" fill="white"/>
<path d="M66.149 85.264C65.76 85.264 65.374 85.093 65.112 84.767C65.047 84.689 63.879 83.319 61.478 83.072C60.749 82.997 60.219 82.345 60.294 81.616C60.369 80.887 61.018 80.355 61.75 80.432C65.333 80.801 67.117 83.023 67.191 83.117C67.644 83.693 67.544 84.528 66.968 84.98C66.725 85.172 66.436 85.264 66.149 85.264Z" fill="#EAE4E5"/>
<path d="M70.668 82.002C70.279 82.002 69.893 81.831 69.631 81.505C69.566 81.427 68.398 80.058 65.997 79.81C65.268 79.735 64.738 79.083 64.813 78.354C64.888 77.625 65.537 77.093 66.269 77.17C69.852 77.539 71.637 79.761 71.71 79.855C72.163 80.431 72.063 81.266 71.487 81.718C71.244 81.909 70.955 82.002 70.668 82.002Z" fill="#EAE4E5"/>
<path d="M55.657 88.391C55.268 88.391 54.882 88.221 54.62 87.894C54.555 87.816 53.387 86.447 50.986 86.199C50.257 86.124 49.727 85.472 49.802 84.743C49.877 84.014 50.526 83.482 51.258 83.559C54.841 83.928 56.625 86.15 56.699 86.244C57.152 86.82 57.052 87.654 56.476 88.107C56.233 88.298 55.944 88.391 55.657 88.391Z" fill="#EAE4E5"/>
<path d="M59.928 74.507C59.539 74.507 59.153 74.337 58.891 74.01C58.826 73.932 57.658 72.562 55.257 72.315C54.528 72.24 53.998 71.588 54.073 70.859C54.148 70.13 54.798 69.598 55.529 69.675C59.112 70.044 60.897 72.266 60.97 72.36C61.423 72.936 61.323 73.771 60.747 74.224C60.504 74.415 60.215 74.507 59.928 74.507Z" fill="#EAE4E5"/>
<path d="M57.007 90.246C56.663 90.246 56.32 90.113 56.06 89.849C55.549 89.329 55.554 88.495 56.068 87.981C56.139 87.907 57.371 86.596 57.353 84.182C57.348 83.449 57.937 82.851 58.67 82.845C58.673 82.845 58.677 82.845 58.68 82.845C59.408 82.845 60.001 83.433 60.007 84.162C60.034 87.764 58.022 89.782 57.936 89.866C57.678 90.119 57.342 90.246 57.007 90.246Z" fill="white"/>
<path d="M49.318 82.902C48.974 82.902 48.631 82.769 48.371 82.505C47.86 81.985 47.865 81.151 48.379 80.637C48.45 80.563 49.682 79.252 49.664 76.838C49.659 76.105 50.248 75.507 50.981 75.501C50.984 75.501 50.988 75.501 50.991 75.501C51.719 75.501 52.312 76.089 52.318 76.818C52.345 80.42 50.333 82.438 50.247 82.522C49.989 82.775 49.653 82.902 49.318 82.902Z" fill="white"/>
<path d="M61.805 82.62C61.461 82.62 61.118 82.487 60.858 82.223C60.347 81.703 60.352 80.869 60.866 80.355C60.937 80.281 62.169 78.97 62.151 76.556C62.146 75.823 62.735 75.225 63.468 75.219C63.471 75.219 63.475 75.219 63.478 75.219C64.206 75.219 64.799 75.807 64.805 76.536C64.832 80.138 62.82 82.156 62.734 82.24C62.477 82.493 62.141 82.62 61.805 82.62Z" fill="white"/>
<path d="M61.589 81.289C61.553 81.289 61.517 81.288 61.48 81.285C57.89 80.994 56.057 78.812 55.981 78.719C55.516 78.153 55.597 77.317 56.164 76.851C56.727 76.388 57.557 76.466 58.024 77.024C58.089 77.099 59.287 78.444 61.695 78.639C62.426 78.698 62.97 79.338 62.911 80.069C62.854 80.764 62.273 81.289 61.589 81.289Z" fill="white"/>
<path d="M56.334 79.532C56.298 79.532 56.262 79.531 56.225 79.528C52.635 79.237 50.802 77.055 50.726 76.962C50.261 76.396 50.342 75.559 50.909 75.094C51.472 74.631 52.302 74.709 52.769 75.267C52.834 75.342 54.032 76.687 56.44 76.882C57.171 76.941 57.715 77.581 57.656 78.312C57.6 79.006 57.019 79.532 56.334 79.532Z" fill="white"/>
<path d="M68.549 82.835C68.365 82.835 68.178 82.796 68 82.715L63.419 80.629C62.752 80.325 62.457 79.538 62.761 78.871C63.065 78.204 63.852 77.909 64.519 78.213L69.1 80.3C69.767 80.604 70.062 81.391 69.758 82.058C69.536 82.546 69.054 82.835 68.549 82.835Z" fill="#D3C5C8"/>
<path d="M63.751 85.971C63.567 85.971 63.38 85.932 63.202 85.851L58.621 83.765C57.954 83.461 57.659 82.674 57.963 82.007C58.267 81.34 59.054 81.045 59.721 81.349L64.302 83.435C64.969 83.739 65.264 84.526 64.96 85.193C64.737 85.682 64.255 85.971 63.751 85.971Z" fill="#D3C5C8"/>
<path d="M56.332 83.925C56.148 83.925 55.961 83.887 55.783 83.805L51.202 81.719C50.535 81.415 50.24 80.628 50.544 79.961C50.848 79.294 51.635 78.999 52.302 79.303L56.883 81.389C57.55 81.693 57.845 82.48 57.541 83.147C57.318 83.637 56.836 83.925 56.332 83.925Z" fill="#D3C5C8"/>
<path d="M57.969 83.065C57.456 83.065 56.968 82.766 56.75 82.265C56.038 80.621 53.689 80.948 53.589 80.963C52.868 81.069 52.19 80.574 52.079 79.852C51.968 79.13 52.457 78.455 53.178 78.34C56.699 77.779 58.61 79.879 59.185 81.208C59.476 81.881 59.167 82.662 58.495 82.954C58.324 83.029 58.145 83.065 57.969 83.065Z" fill="#EAE4E5"/>
<path d="M61.168 78.749C60.655 78.749 60.167 78.45 59.95 77.949C59.238 76.305 56.889 76.632 56.789 76.648C56.068 76.754 55.39 76.259 55.279 75.537C55.168 74.815 55.657 74.14 56.378 74.025C59.899 73.464 61.81 75.564 62.385 76.893C62.676 77.566 62.367 78.347 61.695 78.639C61.523 78.714 61.344 78.749 61.168 78.749Z" fill="#EAE4E5"/>
<path d="M64.987 76.018C64.835 76.018 64.681 75.992 64.53 75.937C61.148 74.697 59.966 72.105 59.917 71.995C59.62 71.325 59.922 70.541 60.592 70.244C61.259 69.949 62.038 70.246 62.338 70.908C62.382 71 63.177 72.615 65.443 73.445C66.131 73.697 66.485 74.46 66.232 75.148C66.036 75.685 65.528 76.018 64.987 76.018Z" fill="white"/>
<path d="M75.818 74.737C75.429 74.737 75.043 74.567 74.781 74.24C74.716 74.162 73.548 72.793 71.147 72.545C70.418 72.47 69.888 71.818 69.963 71.089C70.038 70.36 70.688 69.828 71.419 69.905C75.002 70.274 76.786 72.496 76.861 72.59C77.314 73.166 77.214 74.001 76.638 74.454C76.394 74.644 76.105 74.737 75.818 74.737Z" fill="#EAE4E5"/>
<path d="M80.338 71.475C79.949 71.475 79.563 71.305 79.301 70.978C79.236 70.9 78.068 69.531 75.667 69.283C74.938 69.208 74.408 68.556 74.483 67.827C74.558 67.098 75.208 66.566 75.939 66.643C79.522 67.012 81.307 69.234 81.38 69.328C81.833 69.904 81.733 70.739 81.157 71.192C80.914 71.382 80.625 71.475 80.338 71.475Z" fill="#EAE4E5"/>
<path d="M65.327 77.864C64.938 77.864 64.552 77.694 64.29 77.367C64.225 77.289 63.057 75.92 60.656 75.672C59.927 75.597 59.397 74.945 59.472 74.216C59.547 73.487 60.197 72.955 60.928 73.032C64.511 73.401 66.295 75.623 66.37 75.717C66.823 76.293 66.723 77.127 66.147 77.58C65.903 77.771 65.614 77.864 65.327 77.864Z" fill="#EAE4E5"/>
<path d="M66.676 79.718C66.332 79.718 65.989 79.585 65.729 79.321C65.218 78.801 65.223 77.967 65.737 77.453C65.808 77.379 67.04 76.068 67.022 73.654C67.017 72.921 67.606 72.323 68.339 72.317C68.342 72.317 68.346 72.317 68.349 72.317C69.077 72.317 69.67 72.904 69.676 73.634C69.703 77.236 67.691 79.254 67.605 79.338C67.348 79.592 67.012 79.718 66.676 79.718Z" fill="white"/>
<path d="M58.987 72.375C58.643 72.375 58.3 72.242 58.04 71.978C57.529 71.458 57.534 70.624 58.048 70.11C58.119 70.036 59.351 68.725 59.333 66.311C59.328 65.578 59.917 64.98 60.65 64.974C60.653 64.974 60.657 64.974 60.66 64.974C61.388 64.974 61.981 65.562 61.987 66.291C62.014 69.893 60.002 71.91 59.916 71.994C59.659 72.248 59.323 72.375 58.987 72.375Z" fill="white"/>
<path d="M71.475 72.093C71.131 72.093 70.788 71.96 70.528 71.696C70.017 71.176 70.022 70.342 70.536 69.828C70.607 69.754 71.839 68.443 71.821 66.029C71.816 65.296 72.405 64.698 73.138 64.692C73.141 64.692 73.145 64.692 73.148 64.692C73.876 64.692 74.469 65.28 74.475 66.009C74.502 69.611 72.49 71.629 72.404 71.713C72.146 71.966 71.81 72.093 71.475 72.093Z" fill="white"/>
<path d="M53.551 92.436C53.207 92.436 52.864 92.303 52.604 92.039C52.093 91.519 52.098 90.685 52.612 90.171C52.683 90.097 53.915 88.786 53.897 86.373C53.892 85.64 54.481 85.041 55.214 85.036C55.217 85.036 55.221 85.036 55.224 85.036C55.952 85.036 56.545 85.623 56.551 86.353C56.578 89.955 54.566 91.972 54.48 92.057C54.222 92.31 53.886 92.436 53.551 92.436Z" fill="white"/>
<path d="M71.259 70.762C71.223 70.762 71.187 70.761 71.15 70.758C67.56 70.467 65.727 68.285 65.651 68.192C65.185 67.626 65.267 66.789 65.834 66.324C66.397 65.861 67.227 65.939 67.694 66.497C67.759 66.572 68.957 67.917 71.365 68.112C72.096 68.171 72.64 68.811 72.581 69.542C72.524 70.237 71.943 70.762 71.259 70.762Z" fill="white"/>
<path d="M66.004 69.005C65.968 69.005 65.932 69.004 65.895 69.001C62.305 68.71 60.472 66.528 60.396 66.435C59.931 65.869 60.012 65.032 60.579 64.567C61.142 64.104 61.972 64.182 62.439 64.74C62.504 64.815 63.702 66.16 66.11 66.355C66.841 66.414 67.385 67.054 67.326 67.785C67.269 68.479 66.688 69.005 66.004 69.005Z" fill="white"/>
<path d="M78.219 72.308C78.035 72.308 77.848 72.27 77.67 72.188L73.089 70.102C72.422 69.798 72.127 69.011 72.431 68.344C72.735 67.677 73.522 67.382 74.189 67.686L78.77 69.772C79.437 70.076 79.732 70.863 79.428 71.53C79.205 72.019 78.723 72.308 78.219 72.308Z" fill="#D3C5C8"/>
<path d="M73.421 75.444C73.237 75.444 73.05 75.406 72.872 75.324L68.291 73.238C67.624 72.934 67.329 72.147 67.633 71.48C67.937 70.813 68.724 70.518 69.391 70.822L73.972 72.908C74.639 73.212 74.934 73.999 74.63 74.666C74.407 75.155 73.925 75.444 73.421 75.444Z" fill="#D3C5C8"/>
<path d="M64.162 74.292C64.014 74.184 63.885 74.042 63.789 73.871L61.32 69.485C60.961 68.846 61.187 68.037 61.826 67.677C62.465 67.318 63.274 67.544 63.634 68.183L66.103 72.569C66.462 73.208 66.236 74.017 65.597 74.377C65.129 74.641 64.57 74.59 64.162 74.292Z" fill="#D3C5C8"/>
<path d="M65.05 73.438C64.711 73.053 64.614 72.488 64.847 71.995C65.612 70.375 63.816 68.826 63.739 68.761C63.184 68.29 63.108 67.453 63.577 66.894C64.046 66.334 64.876 66.256 65.438 66.722C68.183 68.997 67.866 71.819 67.247 73.129C66.934 73.792 66.143 74.075 65.48 73.762C65.311 73.682 65.166 73.57 65.05 73.438Z" fill="#EAE4E5"/>
<path d="M70.837 68.222C70.324 68.222 69.836 67.923 69.619 67.422C68.907 65.778 66.558 66.105 66.458 66.121C65.737 66.227 65.059 65.732 64.948 65.01C64.837 64.288 65.326 63.613 66.047 63.498C69.568 62.937 71.479 65.037 72.054 66.366C72.345 67.039 72.036 67.82 71.364 68.112C71.192 68.187 71.013 68.222 70.837 68.222Z" fill="#EAE4E5"/>
<path d="M61.168 70.504C60.655 70.504 60.167 70.205 59.95 69.704C59.238 68.06 56.889 68.387 56.789 68.402C56.068 68.508 55.39 68.013 55.279 67.291C55.168 66.569 55.657 65.894 56.378 65.779C59.899 65.218 61.81 67.318 62.385 68.647C62.676 69.32 62.367 70.101 61.695 70.393C61.523 70.469 61.344 70.504 61.168 70.504Z" fill="#EAE4E5"/>
<path d="M57.277 77.909C56.764 77.909 56.276 77.61 56.059 77.109C55.347 75.465 52.998 75.792 52.898 75.807C52.177 75.913 51.499 75.418 51.388 74.696C51.277 73.974 51.766 73.299 52.487 73.184C56.008 72.623 57.919 74.723 58.494 76.052C58.785 76.725 58.476 77.506 57.804 77.797C57.632 77.874 57.453 77.909 57.277 77.909Z" fill="#EAE4E5"/>
<path d="M61.621 90.376C61.469 90.376 61.315 90.35 61.164 90.295C57.782 89.055 56.6 86.462 56.551 86.353C56.254 85.683 56.556 84.899 57.226 84.602C57.893 84.307 58.671 84.604 58.972 85.266C59.016 85.358 59.811 86.973 62.077 87.803C62.765 88.055 63.119 88.818 62.866 89.506C62.67 90.042 62.162 90.376 61.621 90.376Z" fill="white"/>
<path d="M72.452 89.095C72.063 89.095 71.677 88.925 71.415 88.598C71.35 88.52 70.182 87.151 67.781 86.903C67.052 86.828 66.522 86.176 66.597 85.447C66.672 84.718 67.322 84.186 68.053 84.263C71.636 84.632 73.421 86.854 73.495 86.948C73.948 87.524 73.848 88.359 73.272 88.812C73.029 89.002 72.74 89.095 72.452 89.095Z" fill="#EAE4E5"/>
<path d="M76.972 85.833C76.583 85.833 76.197 85.663 75.935 85.336C75.87 85.258 74.702 83.889 72.301 83.641C71.572 83.566 71.042 82.914 71.117 82.185C71.192 81.456 71.842 80.924 72.573 81.001C76.156 81.37 77.94 83.592 78.015 83.686C78.468 84.262 78.368 85.097 77.792 85.55C77.548 85.74 77.259 85.833 76.972 85.833Z" fill="#EAE4E5"/>
<path d="M61.961 92.222C61.572 92.222 61.186 92.052 60.924 91.725C60.859 91.647 59.691 90.277 57.29 90.03C56.561 89.955 56.031 89.303 56.106 88.574C56.181 87.845 56.831 87.313 57.562 87.39C61.145 87.759 62.929 89.981 63.004 90.075C63.457 90.651 63.357 91.485 62.781 91.938C62.537 92.129 62.248 92.222 61.961 92.222Z" fill="#EAE4E5"/>
<path d="M63.311 94.076C62.967 94.076 62.624 93.943 62.364 93.679C61.853 93.159 61.858 92.325 62.372 91.811C62.443 91.737 63.675 90.426 63.657 88.013C63.652 87.28 64.241 86.681 64.974 86.676C64.977 86.676 64.981 86.676 64.984 86.676C65.712 86.676 66.305 87.264 66.311 87.993C66.338 91.595 64.326 93.613 64.24 93.696C63.982 93.95 63.646 94.076 63.311 94.076Z" fill="white"/>
<path d="M55.621 86.733C55.277 86.733 54.934 86.6 54.674 86.336C54.163 85.816 54.168 84.982 54.682 84.468C54.753 84.394 55.985 83.083 55.967 80.669C55.962 79.936 56.551 79.338 57.284 79.332C57.287 79.332 57.291 79.332 57.294 79.332C58.022 79.332 58.615 79.92 58.621 80.649C58.648 84.251 56.636 86.269 56.55 86.353C56.293 86.606 55.957 86.733 55.621 86.733Z" fill="white"/>
<path d="M68.109 86.451C67.765 86.451 67.422 86.318 67.162 86.054C66.651 85.534 66.656 84.7 67.17 84.186C67.241 84.112 68.473 82.801 68.455 80.387C68.45 79.654 69.039 79.056 69.772 79.05C69.775 79.05 69.779 79.05 69.782 79.05C70.51 79.05 71.103 79.638 71.109 80.367C71.136 83.969 69.124 85.987 69.038 86.07C68.781 86.324 68.445 86.451 68.109 86.451Z" fill="white"/>
<path d="M67.893 85.12C67.857 85.12 67.821 85.119 67.784 85.116C64.194 84.825 62.361 82.643 62.285 82.55C61.82 81.984 61.901 81.147 62.468 80.682C63.031 80.219 63.861 80.297 64.328 80.855C64.393 80.93 65.591 82.275 67.999 82.47C68.73 82.529 69.274 83.169 69.215 83.9C69.158 84.594 68.577 85.12 67.893 85.12Z" fill="white"/>
<path d="M62.638 83.363C62.602 83.363 62.566 83.362 62.529 83.359C58.939 83.068 57.106 80.886 57.03 80.793C56.565 80.227 56.646 79.391 57.213 78.925C57.776 78.462 58.606 78.54 59.073 79.098C59.138 79.173 60.336 80.518 62.744 80.713C63.474 80.772 64.019 81.412 63.96 82.143C63.903 82.837 63.322 83.363 62.638 83.363Z" fill="white"/>
<path d="M72.386 87.586C72.261 87.451 72.162 87.288 72.1 87.102L70.51 82.326C70.279 81.631 70.655 80.879 71.35 80.648C72.046 80.417 72.797 80.793 73.029 81.488L74.619 86.264C74.85 86.96 74.474 87.711 73.779 87.943C73.268 88.112 72.729 87.956 72.386 87.586Z" fill="#D3C5C8"/>
<path d="M70.055 89.802C69.871 89.802 69.684 89.764 69.506 89.682L64.925 87.596C64.258 87.292 63.963 86.505 64.267 85.838C64.571 85.171 65.358 84.876 66.025 85.18L70.606 87.266C71.273 87.57 71.568 88.357 71.264 89.024C71.041 89.513 70.559 89.802 70.055 89.802Z" fill="#D3C5C8"/>
<path d="M62.636 87.756C62.452 87.756 62.265 87.718 62.087 87.636L57.506 85.55C56.839 85.246 56.544 84.459 56.848 83.792C57.152 83.125 57.939 82.83 58.606 83.134L63.187 85.22C63.854 85.524 64.149 86.311 63.845 86.978C63.622 87.467 63.14 87.756 62.636 87.756Z" fill="#D3C5C8"/>
<path d="M64.273 86.895C63.76 86.895 63.272 86.596 63.054 86.095C62.342 84.451 59.993 84.778 59.893 84.794C59.172 84.9 58.494 84.405 58.383 83.683C58.272 82.961 58.761 82.286 59.482 82.171C63.003 81.61 64.914 83.71 65.489 85.039C65.78 85.712 65.471 86.493 64.799 86.785C64.628 86.86 64.449 86.895 64.273 86.895Z" fill="#EAE4E5"/>
<path d="M67.471 82.58C66.958 82.58 66.47 82.281 66.253 81.78C65.541 80.136 63.192 80.463 63.092 80.478C62.371 80.584 61.693 80.089 61.582 79.367C61.471 78.645 61.96 77.97 62.681 77.855C66.202 77.294 68.113 79.394 68.688 80.723C68.979 81.396 68.67 82.177 67.998 82.469C67.827 82.544 67.648 82.58 67.471 82.58Z" fill="#EAE4E5"/>
<path d="M71.29 79.849C71.138 79.849 70.984 79.823 70.833 79.768C67.451 78.528 66.269 75.936 66.22 75.826C65.923 75.156 66.225 74.372 66.895 74.075C67.563 73.78 68.341 74.077 68.641 74.739C68.685 74.831 69.48 76.446 71.746 77.276C72.434 77.528 72.788 78.291 72.535 78.979C72.34 79.515 71.831 79.849 71.29 79.849Z" fill="white"/>
<path d="M82.122 78.568C81.733 78.568 81.347 78.398 81.085 78.071C81.02 77.993 79.852 76.623 77.451 76.376C76.722 76.301 76.192 75.649 76.267 74.92C76.342 74.191 76.992 73.659 77.723 73.736C81.306 74.105 83.091 76.327 83.165 76.421C83.618 76.997 83.518 77.831 82.942 78.284C82.698 78.475 82.409 78.568 82.122 78.568Z" fill="#EAE4E5"/>
<path d="M86.642 75.306C86.253 75.306 85.867 75.136 85.605 74.809C85.54 74.731 84.372 73.362 81.971 73.114C81.242 73.039 80.712 72.387 80.787 71.658C80.862 70.929 81.512 70.397 82.243 70.474C85.826 70.843 87.61 73.065 87.684 73.159C88.137 73.735 88.037 74.569 87.461 75.022C87.218 75.213 86.929 75.306 86.642 75.306Z" fill="#EAE4E5"/>
<path d="M71.63 81.695C71.241 81.695 70.855 81.524 70.593 81.198C70.528 81.12 69.36 79.75 66.959 79.503C66.23 79.428 65.7 78.776 65.775 78.047C65.85 77.318 66.5 76.786 67.231 76.863C70.814 77.232 72.598 79.454 72.672 79.548C73.125 80.124 73.025 80.959 72.449 81.411C72.206 81.602 71.917 81.695 71.63 81.695Z" fill="#EAE4E5"/>
<path d="M72.98 83.549C72.636 83.549 72.293 83.416 72.033 83.152C71.522 82.632 71.527 81.798 72.041 81.284C72.112 81.21 73.344 79.899 73.326 77.486C73.321 76.753 73.91 76.154 74.643 76.149C74.646 76.149 74.65 76.149 74.653 76.149C75.381 76.149 75.974 76.736 75.98 77.466C76.007 81.068 73.995 83.086 73.909 83.17C73.652 83.423 73.316 83.549 72.98 83.549Z" fill="white"/>
<path d="M65.291 76.205C64.947 76.205 64.604 76.072 64.344 75.808C63.833 75.288 63.838 74.454 64.352 73.94C64.423 73.866 65.655 72.555 65.637 70.141C65.632 69.408 66.221 68.81 66.954 68.804C66.957 68.804 66.961 68.804 66.964 68.804C67.692 68.804 68.285 69.392 68.291 70.121C68.318 73.723 66.306 75.741 66.22 75.825C65.963 76.079 65.627 76.205 65.291 76.205Z" fill="white"/>
<path d="M77.779 75.924C77.435 75.924 77.092 75.791 76.832 75.527C76.321 75.007 76.326 74.173 76.84 73.659C76.911 73.585 78.143 72.274 78.125 69.861C78.12 69.128 78.709 68.53 79.442 68.524C79.445 68.524 79.449 68.524 79.452 68.524C80.18 68.524 80.773 69.111 80.779 69.841C80.806 73.443 78.794 75.461 78.708 75.545C78.45 75.797 78.114 75.924 77.779 75.924Z" fill="white"/>
<path d="M77.562 74.593C77.526 74.593 77.49 74.592 77.453 74.589C73.863 74.298 72.031 72.116 71.954 72.023C71.489 71.457 71.57 70.62 72.137 70.155C72.7 69.692 73.53 69.77 73.997 70.328C74.062 70.403 75.26 71.748 77.668 71.943C78.398 72.002 78.943 72.642 78.884 73.373C78.828 74.067 78.247 74.593 77.562 74.593Z" fill="white"/>
<path d="M72.308 72.836C72.272 72.836 72.236 72.835 72.199 72.832C68.609 72.541 66.776 70.359 66.7 70.266C66.234 69.7 66.316 68.863 66.883 68.398C67.446 67.935 68.276 68.013 68.743 68.571C68.808 68.646 70.006 69.991 72.414 70.186C73.144 70.245 73.689 70.885 73.63 71.616C73.573 72.31 72.992 72.836 72.308 72.836Z" fill="white"/>
<path d="M84.523 76.139C84.339 76.139 84.152 76.101 83.974 76.019L79.393 73.933C78.726 73.629 78.431 72.842 78.735 72.175C79.039 71.508 79.826 71.213 80.493 71.517L85.074 73.603C85.741 73.907 86.036 74.694 85.732 75.361C85.509 75.85 85.027 76.139 84.523 76.139Z" fill="#D3C5C8"/>
<path d="M79.724 79.275C79.54 79.275 79.353 79.237 79.175 79.155L74.594 77.069C73.927 76.765 73.632 75.978 73.936 75.311C74.24 74.644 75.027 74.349 75.694 74.653L80.275 76.739C80.942 77.043 81.237 77.83 80.933 78.497C80.71 78.986 80.229 79.275 79.724 79.275Z" fill="#D3C5C8"/>
<path d="M72.305 77.229C72.121 77.229 71.934 77.191 71.756 77.109L67.175 75.023C66.508 74.719 66.213 73.932 66.517 73.265C66.821 72.598 67.608 72.303 68.275 72.607L72.856 74.693C73.523 74.997 73.818 75.784 73.514 76.451C73.291 76.94 72.809 77.229 72.305 77.229Z" fill="#D3C5C8"/>
<path d="M73.942 76.368C73.429 76.368 72.94 76.069 72.723 75.568C72.011 73.924 69.662 74.251 69.562 74.267C68.841 74.373 68.163 73.878 68.052 73.156C67.941 72.434 68.43 71.759 69.151 71.644C72.672 71.083 74.583 73.183 75.158 74.512C75.449 75.185 75.14 75.966 74.468 76.258C74.297 76.333 74.118 76.368 73.942 76.368Z" fill="#EAE4E5"/>
<path d="M78.167 69.424C77.839 69.819 77.297 70.003 76.773 69.85C75.054 69.346 73.803 71.362 73.751 71.448C73.372 72.07 72.557 72.275 71.932 71.899C71.306 71.523 71.1 70.715 71.473 70.087C73.293 67.021 76.129 66.895 77.52 67.302C78.223 67.508 78.627 68.245 78.421 68.949C78.367 69.129 78.28 69.289 78.167 69.424Z" fill="#EAE4E5"/>
<path d="M66.419 95.552C66.267 95.552 66.113 95.526 65.962 95.471C62.58 94.231 61.398 91.639 61.349 91.529C61.052 90.859 61.354 90.075 62.024 89.778C62.691 89.483 63.469 89.78 63.77 90.442C63.814 90.534 64.609 92.149 66.875 92.979C67.563 93.231 67.917 93.994 67.664 94.682C67.469 95.219 66.96 95.552 66.419 95.552Z" fill="white"/>
<path d="M77.251 94.272C76.862 94.272 76.476 94.102 76.214 93.775C76.149 93.697 74.981 92.328 72.58 92.08C71.851 92.005 71.321 91.353 71.396 90.624C71.471 89.895 72.121 89.363 72.852 89.44C76.435 89.809 78.22 92.031 78.294 92.125C78.747 92.701 78.647 93.536 78.071 93.989C77.827 94.179 77.538 94.272 77.251 94.272Z" fill="#EAE4E5"/>
<path d="M81.771 91.009C81.382 91.009 80.996 90.839 80.734 90.512C80.669 90.434 79.501 89.065 77.1 88.817C76.371 88.742 75.841 88.09 75.916 87.361C75.991 86.632 76.641 86.1 77.372 86.177C80.955 86.546 82.739 88.768 82.814 88.862C83.267 89.438 83.167 90.273 82.591 90.726C82.347 90.916 82.058 91.009 81.771 91.009Z" fill="#EAE4E5"/>
<path d="M66.759 97.398C66.37 97.398 65.984 97.227 65.722 96.901C65.657 96.823 64.489 95.453 62.088 95.206C61.359 95.131 60.829 94.479 60.904 93.75C60.979 93.021 61.629 92.489 62.36 92.566C65.943 92.935 67.728 95.157 67.802 95.251C68.255 95.827 68.155 96.661 67.579 97.114C67.335 97.306 67.046 97.398 66.759 97.398Z" fill="#EAE4E5"/>
<path d="M68.109 99.253C67.765 99.253 67.422 99.12 67.162 98.856C66.651 98.336 66.656 97.502 67.17 96.988C67.241 96.914 68.473 95.603 68.455 93.19C68.45 92.457 69.039 91.858 69.772 91.853C69.775 91.853 69.779 91.853 69.782 91.853C70.51 91.853 71.103 92.44 71.109 93.17C71.136 96.772 69.124 98.789 69.038 98.873C68.781 99.126 68.445 99.253 68.109 99.253Z" fill="white"/>
<path d="M78.813 71.268C78.469 71.268 78.126 71.135 77.866 70.871C77.355 70.351 77.36 69.517 77.874 69.003C77.945 68.929 79.177 67.618 79.159 65.205C79.154 64.472 79.743 63.873 80.476 63.868C80.479 63.868 80.483 63.868 80.486 63.868C81.214 63.868 81.807 64.455 81.813 65.185C81.84 68.787 79.828 70.805 79.742 70.889C79.485 71.141 79.149 71.268 78.813 71.268Z" fill="white"/>
<path d="M60.42 91.909C60.076 91.909 59.733 91.776 59.473 91.512C58.962 90.992 58.967 90.158 59.481 89.644C59.552 89.57 60.784 88.259 60.766 85.845C60.761 85.112 61.35 84.513 62.083 84.508C62.086 84.508 62.09 84.508 62.093 84.508C62.821 84.508 63.414 85.096 63.42 85.825C63.447 89.427 61.435 91.445 61.349 91.528C61.091 91.782 60.756 91.909 60.42 91.909Z" fill="white"/>
<path d="M72.907 91.627C72.563 91.627 72.22 91.494 71.96 91.23C71.449 90.71 71.454 89.876 71.968 89.362C72.039 89.288 73.271 87.977 73.253 85.564C73.248 84.831 73.837 84.232 74.57 84.227C74.573 84.227 74.577 84.227 74.58 84.227C75.308 84.227 75.901 84.815 75.907 85.544C75.934 89.146 73.922 91.163 73.836 91.247C73.579 91.5 73.243 91.627 72.907 91.627Z" fill="white"/>
<path d="M72.691 90.297C72.655 90.297 72.619 90.296 72.582 90.293C68.992 90.002 67.159 87.82 67.083 87.727C66.618 87.161 66.699 86.324 67.266 85.859C67.829 85.396 68.659 85.474 69.126 86.032C69.191 86.107 70.389 87.452 72.797 87.647C73.527 87.706 74.072 88.346 74.013 89.077C73.956 89.771 73.376 90.297 72.691 90.297Z" fill="white"/>
<path d="M67.795 88.13C67.759 88.136 67.724 88.141 67.687 88.144C64.098 88.448 61.931 86.598 61.841 86.519C61.289 86.037 61.231 85.199 61.713 84.647C62.192 84.098 63.024 84.038 63.576 84.511C63.652 84.574 65.055 85.704 67.463 85.5C68.193 85.438 68.836 85.98 68.898 86.71C68.957 87.403 68.47 88.017 67.795 88.13Z" fill="white"/>
<path d="M79.652 91.842C79.468 91.842 79.281 91.804 79.103 91.722L74.522 89.636C73.855 89.332 73.56 88.545 73.864 87.878C74.168 87.211 74.955 86.916 75.622 87.22L80.203 89.306C80.87 89.61 81.165 90.397 80.861 91.064C80.638 91.554 80.156 91.842 79.652 91.842Z" fill="#D3C5C8"/>
<path d="M74.853 94.978C74.669 94.978 74.482 94.94 74.304 94.858L69.723 92.772C69.056 92.468 68.761 91.681 69.065 91.014C69.369 90.347 70.156 90.052 70.823 90.356L75.404 92.442C76.071 92.746 76.366 93.533 76.062 94.2C75.839 94.69 75.357 94.978 74.853 94.978Z" fill="#D3C5C8"/>
<path d="M67.45 85.251C67.266 85.251 67.079 85.212 66.901 85.131L62.32 83.045C61.653 82.741 61.358 81.954 61.662 81.287C61.966 80.62 62.753 80.325 63.42 80.629L68 82.716C68.667 83.02 68.962 83.807 68.658 84.474C68.436 84.962 67.954 85.251 67.45 85.251Z" fill="#D3C5C8"/>
<path d="M67.434 92.933C67.25 92.933 67.063 92.895 66.885 92.813L62.304 90.727C61.637 90.423 61.342 89.636 61.646 88.969C61.95 88.302 62.737 88.007 63.404 88.311L67.985 90.397C68.652 90.701 68.947 91.488 68.643 92.155C68.42 92.644 67.938 92.933 67.434 92.933Z" fill="#D3C5C8"/>
<path d="M85.386 72.223C85.202 72.223 85.015 72.185 84.837 72.103L80.256 70.017C79.589 69.713 79.294 68.926 79.598 68.259C79.902 67.592 80.689 67.297 81.356 67.601L85.937 69.687C86.604 69.991 86.899 70.778 86.595 71.445C86.372 71.935 85.89 72.223 85.386 72.223Z" fill="#D3C5C8"/>
<path d="M69.071 92.072C68.558 92.072 68.07 91.773 67.853 91.272C67.141 89.628 64.792 89.955 64.692 89.971C63.971 90.077 63.293 89.582 63.182 88.86C63.071 88.138 63.56 87.463 64.281 87.348C67.802 86.787 69.713 88.887 70.288 90.216C70.579 90.889 70.27 91.67 69.598 91.962C69.426 92.036 69.247 92.072 69.071 92.072Z" fill="#EAE4E5"/>
<path d="M78.27 83.401C77.757 83.401 77.268 83.102 77.051 82.601C76.339 80.957 73.99 81.284 73.89 81.299C73.169 81.405 72.491 80.91 72.38 80.188C72.269 79.466 72.758 78.791 73.479 78.676C77 78.115 78.911 80.215 79.486 81.544C79.777 82.217 79.468 82.998 78.796 83.29C78.625 83.366 78.446 83.401 78.27 83.401Z" fill="#EAE4E5"/>
<path d="M76.089 85.025C75.937 85.025 75.783 84.999 75.632 84.943C72.25 83.703 71.068 81.111 71.019 81.001C70.722 80.331 71.024 79.547 71.694 79.25C72.361 78.955 73.14 79.252 73.44 79.914C73.484 80.006 74.279 81.621 76.545 82.451C77.233 82.703 77.587 83.466 77.334 84.154C77.138 84.692 76.63 85.025 76.089 85.025Z" fill="white"/>
<path d="M86.92 83.744C86.531 83.744 86.145 83.574 85.883 83.247C85.818 83.169 84.65 81.8 82.249 81.552C81.52 81.477 80.99 80.825 81.065 80.096C81.14 79.367 81.789 78.835 82.521 78.912C86.104 79.281 87.889 81.503 87.963 81.597C88.416 82.173 88.316 83.007 87.74 83.46C87.496 83.652 87.207 83.744 86.92 83.744Z" fill="#EAE4E5"/>
<path d="M91.44 80.482C91.051 80.482 90.665 80.312 90.403 79.985C90.338 79.907 89.17 78.537 86.769 78.29C86.04 78.215 85.51 77.563 85.585 76.834C85.66 76.105 86.309 75.573 87.041 75.65C90.624 76.019 92.408 78.241 92.482 78.335C92.935 78.911 92.835 79.746 92.259 80.199C92.016 80.389 91.727 80.482 91.44 80.482Z" fill="#EAE4E5"/>
<path d="M76.429 86.871C76.04 86.871 75.654 86.7 75.392 86.374C75.327 86.296 74.159 84.926 71.758 84.679C71.029 84.604 70.499 83.952 70.574 83.223C70.649 82.494 71.298 81.962 72.03 82.039C75.613 82.408 77.397 84.63 77.471 84.724C77.924 85.3 77.824 86.135 77.248 86.587C77.005 86.778 76.716 86.871 76.429 86.871Z" fill="#EAE4E5"/>
<path d="M77.779 88.726C77.435 88.726 77.092 88.593 76.832 88.329C76.321 87.809 76.326 86.975 76.84 86.461C76.911 86.387 78.143 85.076 78.125 82.663C78.12 81.93 78.709 81.331 79.442 81.326C79.445 81.326 79.449 81.326 79.452 81.326C80.18 81.326 80.773 81.914 80.779 82.643C80.806 86.245 78.794 88.262 78.708 88.347C78.45 88.599 78.114 88.726 77.779 88.726Z" fill="white"/>
<path d="M70.089 81.382C69.745 81.382 69.402 81.249 69.142 80.985C68.631 80.465 68.636 79.631 69.15 79.117C69.221 79.043 70.453 77.732 70.435 75.319C70.43 74.586 71.019 73.987 71.752 73.982C71.755 73.982 71.759 73.982 71.762 73.982C72.49 73.982 73.083 74.569 73.089 75.299C73.116 78.901 71.104 80.919 71.018 81.002C70.761 81.255 70.425 81.382 70.089 81.382Z" fill="white"/>
<path d="M82.577 81.1C82.233 81.1 81.89 80.967 81.63 80.703C81.119 80.183 81.124 79.349 81.638 78.835C81.709 78.761 82.941 77.45 82.923 75.037C82.918 74.304 83.507 73.705 84.24 73.7C84.243 73.7 84.247 73.7 84.25 73.7C84.978 73.7 85.571 74.287 85.577 75.017C85.604 78.619 83.592 80.636 83.506 80.721C83.248 80.974 82.913 81.1 82.577 81.1Z" fill="white"/>
<path d="M82.361 79.77C82.325 79.77 82.289 79.769 82.252 79.766C78.662 79.475 76.829 77.293 76.753 77.2C76.288 76.634 76.369 75.797 76.935 75.332C77.498 74.869 78.328 74.947 78.795 75.505C78.86 75.58 80.058 76.925 82.466 77.12C83.196 77.179 83.741 77.819 83.682 78.55C83.626 79.244 83.045 79.77 82.361 79.77Z" fill="white"/>
<path d="M77.106 78.013C77.07 78.013 77.034 78.012 76.997 78.009C73.407 77.718 71.574 75.536 71.498 75.443C71.033 74.877 71.114 74.04 71.681 73.575C72.244 73.112 73.074 73.19 73.541 73.748C73.606 73.823 74.804 75.168 77.212 75.363C77.942 75.422 78.487 76.062 78.428 76.793C78.371 77.487 77.79 78.013 77.106 78.013Z" fill="white"/>
<path d="M89.321 81.315C89.137 81.315 88.95 81.277 88.772 81.195L84.191 79.109C83.524 78.805 83.229 78.018 83.533 77.351C83.837 76.684 84.624 76.389 85.291 76.693L89.872 78.779C90.539 79.083 90.834 79.87 90.53 80.537C90.307 81.027 89.825 81.315 89.321 81.315Z" fill="#D3C5C8"/>
<path d="M84.523 84.451C84.339 84.451 84.152 84.413 83.974 84.331L79.393 82.245C78.726 81.941 78.431 81.154 78.735 80.487C79.039 79.82 79.826 79.525 80.493 79.829L85.074 81.915C85.741 82.219 86.036 83.006 85.732 83.673C85.509 84.162 85.027 84.451 84.523 84.451Z" fill="#D3C5C8"/>
<path d="M82.529 85.971C82.345 85.971 82.158 85.932 81.98 85.851L77.399 83.765C76.732 83.461 76.437 82.674 76.741 82.007C77.045 81.34 77.832 81.045 78.499 81.349L83.08 83.435C83.747 83.739 84.042 84.526 83.738 85.193C83.515 85.682 83.034 85.971 82.529 85.971Z" fill="#D3C5C8"/>
<path d="M71.967 72.223C71.783 72.223 71.596 72.185 71.418 72.103L66.837 70.017C66.17 69.713 65.875 68.926 66.179 68.259C66.483 67.592 67.27 67.297 67.937 67.601L72.518 69.687C73.185 69.991 73.48 70.778 73.176 71.445C72.953 71.935 72.471 72.223 71.967 72.223Z" fill="#D3C5C8"/>
<path d="M78.74 81.545C78.227 81.545 77.739 81.246 77.521 80.745C76.809 79.101 74.46 79.428 74.36 79.444C73.639 79.55 72.961 79.055 72.85 78.333C72.739 77.611 73.228 76.936 73.949 76.821C77.47 76.26 79.381 78.36 79.956 79.689C80.247 80.362 79.938 81.143 79.266 81.435C79.096 81.509 78.916 81.545 78.74 81.545Z" fill="#EAE4E5"/>
<path d="M81.939 77.229C81.426 77.229 80.938 76.93 80.72 76.429C80.008 74.785 77.659 75.112 77.559 75.128C76.838 75.234 76.16 74.739 76.049 74.017C75.938 73.295 76.427 72.62 77.148 72.505C80.669 71.944 82.58 74.044 83.155 75.373C83.446 76.046 83.137 76.827 82.465 77.119C82.294 77.194 82.115 77.229 81.939 77.229Z" fill="#EAE4E5"/>
<path d="M70.49 161.182L28.487 136.931V65.439L70.49 89.689V161.182Z" fill="#CDAD8A"/>
<path d="M42.102 115.05L0.098999 90.8L28.487 65.439L70.49 89.689L42.102 115.05Z" fill="#D8BA97"/>
<path d="M132.965 125.112L70.49 161.182V89.689L132.965 53.619V125.112Z" fill="#A48465"/>
<path d="M90.961 29.365L28.488 65.442L70.49 89.693L132.963 53.616L90.961 29.365ZM31.678 65.442L90.961 31.207L129.773 53.615L70.491 87.85L31.678 65.442Z" fill="#F0CFA8"/>
<path d="M66.398 56.368L55.565 62.623C53.754 63.668 52.286 63.048 52.286 61.237C52.286 59.426 53.754 57.111 55.565 56.066L66.398 49.811C68.209 48.766 69.676 49.386 69.676 51.197C69.677 53.008 68.209 55.323 66.398 56.368Z" fill="#63503D"/>
<path d="M106.24 81.144L95.407 87.399C93.596 88.444 92.128 87.824 92.128 86.013C92.128 84.202 93.596 81.887 95.407 80.842L106.24 74.587C108.051 73.542 109.519 74.162 109.519 75.973C109.519 77.783 108.051 80.099 106.24 81.144Z" fill="#63503D"/>
<path d="M64.273 131.141C64.099 131.036 63.958 131.092 63.954 131.263C63.954 131.279 63.888 132.875 61.112 131.272C59.533 130.36 58.816 129.421 58.123 128.512C57.58 127.801 57.021 127.068 56.118 126.454C56.11 125.918 55.978 125.34 55.75 124.763C56.671 125.302 57.174 125.959 57.753 126.719C58.491 127.686 59.328 128.783 61.111 129.813C64.492 131.765 64.577 129.575 64.578 129.553C64.582 129.384 64.446 129.165 64.275 129.061C64.111 128.961 63.96 129.01 63.954 129.177C63.951 129.243 63.858 130.774 61.112 129.189C59.533 128.277 58.816 127.338 58.123 126.429C57.505 125.619 56.867 124.782 55.723 124.122C55.597 124.049 55.475 123.987 55.354 123.928C54.736 122.82 53.8 121.8 52.754 121.196C50.898 120.124 49.388 120.762 49.388 122.619C49.388 124.476 50.898 126.857 52.754 127.929C54.414 128.888 55.794 128.475 56.068 127.049C56.794 127.548 57.244 128.136 57.753 128.804C58.491 129.772 59.328 130.869 61.111 131.898C64.492 133.85 64.577 131.66 64.578 131.638C64.582 131.466 64.445 131.244 64.273 131.141ZM52.755 127.303C51.243 126.43 50.013 124.49 50.013 122.979C50.013 121.468 51.243 120.948 52.755 121.82C53.475 122.236 54.129 122.894 54.619 123.633C52.889 123.097 51.866 123.91 51.816 123.952C51.716 124.035 51.749 124.249 51.889 124.43C51.944 124.501 52.007 124.556 52.07 124.592C52.168 124.648 52.264 124.658 52.325 124.608C52.337 124.598 53.376 123.77 55.068 124.431C55.328 124.99 55.483 125.56 55.494 126.084C53.238 124.904 51.875 125.987 51.816 126.035C51.716 126.118 51.749 126.331 51.889 126.513C52.03 126.694 52.225 126.774 52.325 126.692C52.337 126.682 53.536 125.737 55.437 126.679C55.173 127.767 54.071 128.063 52.755 127.303Z" fill="#63503D"/>
<path d="M102.719 117.592L84.672 128.012V126.263L102.719 115.844V117.592Z" fill="#63503D"/>
<path d="M102.719 120.277L84.672 130.697V129.823L102.719 119.403V120.277Z" fill="#63503D"/>
<path d="M102.719 121.807L84.672 132.227V131.352L102.719 120.933V121.807Z" fill="#63503D"/>
<path d="M102.719 123.337L84.672 133.757V132.882L102.719 122.462V123.337Z" fill="#63503D"/>
<path d="M97.717 127.754L84.672 135.286V134.412L97.717 126.88V127.754Z" fill="#63503D"/>
</svg>
