<svg width="171" height="128" viewBox="0 0 171 128" fill="none" xmlns="http://www.w3.org/2000/svg">
<path d="M51.934 122.689L81.61 127.255L170.709 76.571L137.221 57.473L128.889 55.712L51.934 122.689Z" fill="#C2A49D"/>
<path d="M51.934 78.291V122.689L0.723999 93.124V48.726L51.934 78.291Z" fill="#CDAD8A"/>
<path d="M134.787 74.852L51.932 122.689V78.29L134.787 30.453V74.852Z" fill="#A48465"/>
<path d="M134.786 30.452L57.337 75.17L51.934 78.291L0.729004 48.726L6.132 45.605L83.582 0.887024L134.786 30.452Z" fill="#F0CFA8"/>
<path d="M51.934 83.697V78.291L134.787 30.453V35.859L51.934 83.697Z" fill="#BB9673"/>
<path d="M51.934 78.291L46.528 75.17L129.379 27.333L134.784 30.454L51.934 78.291Z" fill="#F0DCC5"/>
<path d="M6.13 51.847L0.723999 48.726L83.575 0.889038L88.98 4.01004L6.13 51.847Z" fill="#F0DCC5"/>
<path d="M57.337 75.17L51.934 78.291L0.729004 48.726L6.132 45.605L57.337 75.17Z" fill="#F0DCC5"/>
<path d="M134.787 30.453L129.384 33.574L78.179 4.009L83.582 0.888L134.787 30.453Z" fill="#F0DCC5"/>
<path d="M51.934 78.291V83.695L0.723999 54.13V48.726L51.934 78.291Z" fill="#E0C5A4"/>
<path d="M134.236 32.099L52.64 79.172C52.537 79.232 52.453 79.196 52.453 79.093C52.453 78.99 52.537 78.857 52.64 78.798L134.236 31.725C134.339 31.665 134.423 31.701 134.423 31.804C134.423 31.907 134.339 32.04 134.236 32.099Z" fill="#A48465"/>
<path d="M31.412 77.337C31.429 77.193 31.409 76.998 31.409 76.998C31.409 76.998 31.175 77.028 31.115 77.141C31.111 77.149 31.108 77.157 31.105 77.164C29.567 76.39 29.481 77.814 29.481 77.814L29.495 77.822C29.529 77.72 29.626 77.688 29.74 77.754C29.854 77.82 29.951 77.963 29.985 78.105L30.014 78.121C30.048 78.019 30.145 77.987 30.259 78.053C30.373 78.119 30.47 78.262 30.504 78.404L30.533 78.42C30.567 78.318 30.664 78.286 30.778 78.352C30.892 78.418 30.989 78.562 31.024 78.703L31.052 78.719C31.072 78.66 31.113 78.626 31.165 78.619V80.625C31.165 80.731 31.093 80.776 31.004 80.724C30.915 80.673 30.843 80.544 30.843 80.439V80.117C30.843 80.03 30.784 79.925 30.711 79.883C30.638 79.841 30.579 79.877 30.579 79.964V80.286C30.579 80.566 30.77 80.904 31.005 81.04C31.24 81.176 31.431 81.058 31.431 80.778V78.772C31.483 78.84 31.524 78.921 31.544 79.002L31.572 79.019C31.606 78.917 31.703 78.885 31.818 78.951C31.932 79.017 32.029 79.16 32.063 79.302L32.091 79.318C32.126 79.216 32.222 79.184 32.336 79.25C32.45 79.316 32.547 79.46 32.582 79.601L32.61 79.617C32.644 79.515 32.741 79.483 32.855 79.549C32.969 79.615 33.066 79.758 33.1 79.9L33.114 79.908C33.113 79.912 32.989 78.319 31.412 77.337Z" fill="#7F6B59"/>
<path d="M30.448 76.703C30.522 76.789 30.614 76.8 30.674 76.688C30.734 76.576 30.7 76.234 30.7 76.234C30.7 76.234 30.466 76.264 30.406 76.377C30.346 76.489 30.374 76.618 30.448 76.703Z" fill="#7F6B59"/>
<path d="M31.035 76.727C31.109 76.813 31.2 76.824 31.261 76.711C31.321 76.599 31.287 76.257 31.287 76.257C31.287 76.257 31.053 76.287 30.993 76.4C30.933 76.513 30.961 76.641 31.035 76.727Z" fill="#7F6B59"/>
<path d="M32.464 77.299C32.404 77.411 32.432 77.54 32.506 77.625C32.58 77.711 32.672 77.722 32.732 77.61C32.792 77.498 32.758 77.156 32.758 77.156C32.758 77.156 32.524 77.187 32.464 77.299Z" fill="#7F6B59"/>
<path d="M32.556 78.107C32.496 78.219 32.524 78.348 32.598 78.433C32.672 78.519 32.763 78.53 32.824 78.417C32.884 78.305 32.85 77.964 32.85 77.964C32.85 77.964 32.616 77.995 32.556 78.107Z" fill="#7F6B59"/>
<path d="M31.691 76.715C31.765 76.801 31.857 76.812 31.917 76.7C31.977 76.588 31.943 76.246 31.943 76.246C31.943 76.246 31.709 76.276 31.649 76.389C31.588 76.501 31.617 76.629 31.691 76.715Z" fill="#7F6B59"/>
<path d="M31.817 77.192C31.757 77.304 31.785 77.433 31.859 77.518C31.933 77.604 32.024 77.615 32.085 77.503C32.145 77.391 32.111 77.05 32.111 77.05C32.111 77.05 31.877 77.079 31.817 77.192Z" fill="#7F6B59"/>
<path d="M32.338 76.773C32.412 76.859 32.503 76.87 32.564 76.757C32.624 76.645 32.59 76.304 32.59 76.304C32.59 76.304 32.356 76.334 32.296 76.447C32.235 76.559 32.264 76.687 32.338 76.773Z" fill="#7F6B59"/>
<path d="M34.187 83.614L28.407 80.277C28.354 80.246 28.311 80.171 28.311 80.108V73.215C28.311 73.152 28.354 73.126 28.407 73.156L34.187 76.493C34.24 76.524 34.283 76.599 34.283 76.662V83.555C34.283 83.618 34.24 83.645 34.187 83.614ZM28.502 80.104L34.091 83.331V76.666L28.502 73.439V80.104Z" fill="#7F6B59"/>
<path d="M34.187 84.861L28.407 81.524C28.354 81.493 28.311 81.52 28.311 81.583V88.476C28.311 88.539 28.354 88.615 28.407 88.645L34.187 91.982C34.24 92.012 34.283 91.986 34.283 91.923V85.03C34.283 84.968 34.24 84.892 34.187 84.861ZM34.091 91.699L28.502 88.472V81.807L34.091 85.034V91.699Z" fill="#7F6B59"/>
<path d="M31.13 86.408V88.415L30.381 88.294L31.13 88.726L31.415 88.891L32.188 89.337L31.415 88.579V86.576C31.8 86.77 32.148 86.773 32.404 86.615C32.682 86.445 32.853 86.087 32.853 85.581L30.883 84.444L30.707 84.655L31.034 85L30.475 85.485L30.57 84.902L30.38 84.636L30.491 84.218L29.738 83.783C29.74 84.738 30.35 85.872 31.13 86.408Z" fill="#7F6B59"/>
<path d="M38.909 80.276L37.91 80.387L38.909 81.651L39.907 81.54L38.909 80.276Z" fill="#7F6B59"/>
<path d="M37.886 81.611L38.885 82.875V81.684L37.886 80.42V81.611Z" fill="#7F6B59"/>
<path d="M39.938 81.605L38.939 81.716V82.907L39.938 82.796V81.605Z" fill="#7F6B59"/>
<path d="M37.767 81.924C37.719 81.833 37.639 81.78 37.585 81.803C37.545 81.817 37.533 81.839 37.528 81.891C37.522 81.952 37.542 82.028 37.579 82.097L38.054 82.975C38.083 83.027 38.087 83.088 38.059 83.109C38.043 83.121 38.021 83.12 37.999 83.107C37.978 83.095 37.957 83.072 37.941 83.044L37.473 82.179C37.445 82.127 37.43 82.072 37.43 82.023V81.556C37.433 81.491 37.43 81.422 37.43 81.341V80.638C37.43 80.484 37.325 80.298 37.196 80.224C37.067 80.149 36.962 80.214 36.962 80.368V81.665C36.962 81.897 37.024 82.16 37.139 82.414L37.654 83.551C37.721 83.698 37.756 83.85 37.756 83.984V84.814L38.498 85.242V83.812C38.498 83.493 38.399 83.129 38.22 82.789L37.767 81.924Z" fill="#7F6B59"/>
<path d="M40.62 82.2C40.491 82.125 40.386 82.19 40.386 82.344V83.729C40.386 83.778 40.37 83.816 40.343 83.835L39.875 84.159C39.86 84.17 39.839 84.168 39.817 84.155C39.795 84.142 39.773 84.119 39.757 84.088C39.73 84.035 39.734 83.979 39.762 83.96L40.237 83.63C40.275 83.604 40.294 83.551 40.288 83.484C40.283 83.427 40.271 83.39 40.231 83.331C40.176 83.245 40.097 83.206 40.049 83.242L39.594 83.582C39.415 83.716 39.316 83.966 39.316 84.285V85.715L40.058 86.143V85.313C40.058 85.179 40.094 85.069 40.16 84.999L40.675 84.456C40.79 84.335 40.852 84.144 40.852 83.912V82.615C40.855 82.461 40.75 82.275 40.62 82.2Z" fill="#7F6B59"/>
<path d="M41.799 88.106L36.019 84.769C35.966 84.738 35.923 84.663 35.923 84.6V77.707C35.923 77.644 35.966 77.618 36.019 77.648L41.799 80.985C41.852 81.016 41.895 81.091 41.895 81.154V88.047C41.895 88.111 41.852 88.137 41.799 88.106ZM36.114 84.596L41.703 87.823V81.158L36.114 77.931V84.596Z" fill="#7F6B59"/>
<path d="M47.791 89.409V87.227L48.228 87.479L47.415 85.382L46.603 86.541L47.04 86.793V88.976L45.974 88.361V86.178L46.411 86.431L45.599 84.333L44.786 85.492L45.223 85.745V87.927L44.636 87.588V88.614L48.405 90.79V89.764L47.791 89.409Z" fill="#7F6B59"/>
<path d="M49.411 92.513L43.631 89.176C43.578 89.146 43.535 89.07 43.535 89.007V82.114C43.535 82.051 43.578 82.025 43.631 82.055L49.411 85.392C49.464 85.423 49.507 85.498 49.507 85.561V92.455C49.507 92.517 49.464 92.544 49.411 92.513ZM43.726 89.003L49.315 92.23V85.565L43.726 82.338V89.003Z" fill="#7F6B59"/>
<path d="M124.037 60.007C123.864 60.103 123.724 60.32 123.721 60.493C123.721 60.509 123.656 62.166 120.904 63.755C119.339 64.659 118.628 64.548 117.941 64.44C117.403 64.356 116.849 64.27 115.954 64.694C115.946 64.172 115.815 63.75 115.589 63.44C116.502 62.92 117 62.996 117.575 63.086C118.307 63.2 119.136 63.33 120.904 62.309C124.256 60.374 124.34 58.106 124.34 58.083C124.343 57.911 124.209 57.849 124.039 57.942C123.876 58.031 123.727 58.251 123.72 58.425C123.717 58.493 123.625 60.118 120.903 61.69C119.338 62.594 118.627 62.483 117.94 62.375C117.328 62.279 116.695 62.18 115.561 62.835C115.436 62.907 115.315 62.985 115.195 63.065C114.583 62.674 113.655 62.735 112.618 63.333C110.778 64.395 109.281 66.756 109.281 68.596C109.281 70.436 110.778 71.068 112.618 70.006C114.264 69.056 115.632 67.067 115.903 65.34C116.623 65.003 117.068 65.072 117.573 65.15C118.305 65.264 119.134 65.394 120.902 64.373C124.254 62.438 124.338 60.17 124.338 60.147C124.343 59.975 124.208 59.912 124.037 60.007ZM112.619 69.387C111.12 70.252 109.901 69.737 109.901 68.239C109.901 66.741 111.12 64.818 112.619 63.952C113.333 63.54 113.981 63.444 114.467 63.616C112.752 65.065 111.738 67.041 111.688 67.141C111.589 67.338 111.621 67.512 111.761 67.531C111.815 67.538 111.878 67.521 111.94 67.485C112.037 67.429 112.132 67.329 112.193 67.209C112.205 67.186 113.235 65.175 114.912 63.894C115.17 64.15 115.323 64.539 115.334 65.045C113.097 66.458 111.746 69.092 111.688 69.207C111.589 69.403 111.621 69.577 111.761 69.597C111.9 69.616 112.094 69.472 112.193 69.276C112.205 69.252 113.393 66.944 115.278 65.701C115.016 67.078 113.924 68.633 112.619 69.387Z" fill="#63503D"/>
<path d="M89.991 76.511L72.708 86.489V84.815L89.991 74.837V76.511Z" fill="#63503D"/>
<path d="M89.991 79.082L72.708 89.061V88.224L89.991 78.245V79.082Z" fill="#63503D"/>
<path d="M89.991 80.547L72.708 90.526V89.688L89.991 79.71V80.547Z" fill="#63503D"/>
<path d="M89.991 82.012L72.708 91.991V91.153L89.991 81.175V82.012Z" fill="#63503D"/>
<path d="M85.201 86.243L72.708 93.456V92.618L85.201 85.406V86.243Z" fill="#63503D"/>
</svg>
