<svg width="126" height="106" viewBox="0 0 126 106" fill="none" xmlns="http://www.w3.org/2000/svg">
<path d="M48.163 101.421L72.104 105.104L125.808 74.67L101.371 60.734L96.173 59.636L48.163 101.421Z" fill="#C2A49D"/>
<path d="M48.163 55.233V101.421L24.325 87.657L18.128 84.077L0.487 73.894V27.706L18.128 37.89L24.325 41.469L48.163 55.233Z" fill="#CDAD8A"/>
<path d="M95.84 27.706V73.894L77.609 84.421L71.412 87.995L48.163 101.421V55.233L71.412 41.808L77.609 38.233L95.84 27.706Z" fill="#A48465"/>
<path d="M95.84 27.706L48.163 55.233L24.503 41.567H24.497L18.3 37.993L0.487 27.706L23.855 14.212L30.058 10.632L48.163 0.179016L65.976 10.466L72.173 14.04L95.84 27.706Z" fill="#F0CFA8"/>
<path d="M24.325 41.469V87.657L18.128 84.077V37.89L24.325 41.469Z" fill="#E0C5A4"/>
<path d="M77.609 38.228L71.412 41.808L47.871 28.216L41.668 24.636L23.691 14.278L29.894 10.698L47.871 21.056L54.068 24.636L77.609 38.228Z" fill="#F0DCC5"/>
<path d="M72.1 13.966L53.995 24.425L47.797 28.005H47.792L24.429 41.493H24.423L24.251 41.596L18.054 38.016L18.226 37.919L41.594 24.425L47.797 20.845L65.902 10.392L72.1 13.966Z" fill="#F0DCC5"/>
<path d="M95.177 29.321L49.031 55.963C48.912 56.032 48.816 55.991 48.816 55.872C48.816 55.753 48.912 55.602 49.031 55.533L95.177 28.89C95.296 28.822 95.392 28.862 95.392 28.981C95.392 29.1 95.296 29.253 95.177 29.321Z" fill="#8F6E4F"/>
<path d="M77.609 38.233V84.421L71.412 87.995V41.808L77.609 38.233Z" fill="#BB9673"/>
<path d="M74.208 39.945C74.053 40.034 73.802 40.035 73.647 39.946C62.33 33.468 37.18 18.864 26.893 12.886C26.738 12.796 26.739 12.651 26.894 12.562C27.05 12.473 27.303 12.473 27.457 12.563C37.744 18.541 62.893 33.144 74.208 39.621C74.364 39.71 74.365 39.856 74.21 39.946C74.209 39.944 74.208 39.944 74.208 39.945Z" fill="#E6D3BD"/>
<path d="M90.113 37.373C90.13 37.204 90.11 37.024 90.11 37.024C90.11 37.024 89.867 37.336 89.804 37.525C89.8 37.538 89.797 37.549 89.794 37.561C88.196 38.602 88.106 40.185 88.106 40.185L88.121 40.176C88.157 40.029 88.257 39.88 88.376 39.811C88.495 39.743 88.595 39.776 88.63 39.882L88.66 39.865C88.696 39.718 88.796 39.569 88.915 39.5C89.033 39.432 89.134 39.465 89.169 39.571L89.199 39.554C89.235 39.407 89.335 39.258 89.454 39.189C89.573 39.121 89.673 39.154 89.709 39.259L89.739 39.242C89.76 39.157 89.802 39.073 89.856 39.003V41.086C89.856 41.196 89.781 41.329 89.688 41.383C89.596 41.436 89.52 41.39 89.52 41.28V40.946C89.52 40.856 89.459 40.818 89.383 40.862C89.307 40.906 89.246 41.015 89.246 41.105V41.439C89.246 41.73 89.444 41.852 89.688 41.711C89.932 41.57 90.131 41.219 90.131 40.928V38.845C90.185 38.852 90.227 38.888 90.248 38.949L90.278 38.932C90.314 38.785 90.414 38.636 90.533 38.567C90.651 38.499 90.752 38.532 90.788 38.638L90.817 38.621C90.853 38.474 90.953 38.325 91.072 38.256C91.191 38.188 91.291 38.221 91.327 38.326L91.357 38.309C91.393 38.162 91.493 38.013 91.611 37.944C91.73 37.876 91.83 37.909 91.866 38.015L91.881 38.007C91.881 38.007 91.75 36.502 90.113 37.373Z" fill="#7F6B59"/>
<path d="M89.111 37.871C89.188 37.872 89.283 37.773 89.345 37.584C89.408 37.395 89.372 37.082 89.372 37.082C89.372 37.082 89.129 37.394 89.067 37.583C89.005 37.772 89.034 37.871 89.111 37.871Z" fill="#7F6B59"/>
<path d="M89.721 37.192C89.798 37.192 89.893 37.094 89.956 36.905C90.019 36.716 89.983 36.402 89.983 36.402C89.983 36.402 89.74 36.714 89.677 36.903C89.615 37.092 89.645 37.191 89.721 37.192Z" fill="#7F6B59"/>
<path d="M91.205 36.072C91.142 36.261 91.172 36.36 91.249 36.36C91.326 36.36 91.421 36.262 91.483 36.073C91.546 35.884 91.51 35.57 91.51 35.57C91.51 35.57 91.268 35.883 91.205 36.072Z" fill="#7F6B59"/>
<path d="M91.301 36.801C91.238 36.99 91.268 37.089 91.345 37.089C91.422 37.089 91.517 36.991 91.58 36.802C91.643 36.613 91.607 36.3 91.607 36.3C91.607 36.3 91.364 36.612 91.301 36.801Z" fill="#7F6B59"/>
<path d="M90.402 36.393C90.479 36.393 90.574 36.295 90.637 36.106C90.7 35.917 90.664 35.603 90.664 35.603C90.664 35.603 90.421 35.915 90.358 36.104C90.296 36.293 90.326 36.392 90.402 36.393Z" fill="#7F6B59"/>
<path d="M90.533 36.737C90.47 36.926 90.5 37.025 90.577 37.025C90.654 37.025 90.749 36.927 90.811 36.738C90.874 36.549 90.838 36.236 90.838 36.236C90.838 36.236 90.596 36.548 90.533 36.737Z" fill="#7F6B59"/>
<path d="M91.074 35.677C91.151 35.677 91.246 35.579 91.309 35.39C91.372 35.201 91.336 34.887 91.336 34.887C91.336 34.887 91.093 35.199 91.031 35.388C90.968 35.577 90.997 35.676 91.074 35.677Z" fill="#7F6B59"/>
<path d="M92.995 40.565L86.99 44.032C86.935 44.064 86.891 44.036 86.891 43.971V36.81C86.891 36.745 86.936 36.666 86.99 36.634L92.995 33.167C93.05 33.135 93.094 33.163 93.094 33.228V40.389C93.095 40.454 93.05 40.533 92.995 40.565ZM87.09 43.737L92.896 40.385V33.461L87.09 36.813V43.737Z" fill="#7F6B59"/>
<path d="M85.723 37.351L79.718 40.818C79.663 40.85 79.619 40.929 79.619 40.994V48.155C79.619 48.221 79.664 48.248 79.718 48.216L85.723 44.749C85.778 44.717 85.822 44.639 85.822 44.573V37.412C85.823 37.346 85.778 37.319 85.723 37.351ZM85.624 44.569L79.818 47.921V40.997L85.624 37.645V44.569Z" fill="#7F6B59"/>
<path d="M82.548 42.624V44.709L81.77 45.482L82.548 45.033L82.844 44.862L83.647 44.399L82.844 44.538V42.457C83.244 42.197 83.605 41.783 83.872 41.311C84.16 40.801 84.338 40.223 84.338 39.699L82.291 40.881L82.109 41.31L82.449 41.276L81.869 42.45L81.967 41.731L81.77 41.683L81.886 41.115L81.104 41.567C81.104 42.557 81.738 43.003 82.548 42.624Z" fill="#7F6B59"/>
<path d="M82.721 48.791L81.684 50.104L82.721 50.22L83.759 48.907L82.721 48.791Z" fill="#7F6B59"/>
<path d="M81.659 51.4041L82.696 51.5201V50.2831L81.659 50.1671V51.4041Z" fill="#7F6B59"/>
<path d="M83.79 48.937L82.753 50.25V51.487L83.79 50.174V48.937Z" fill="#7F6B59"/>
<path d="M81.535 51.873C81.486 51.836 81.403 51.877 81.346 51.966C81.305 52.028 81.292 52.066 81.287 52.125C81.281 52.195 81.301 52.25 81.34 52.277L81.833 52.62C81.863 52.64 81.867 52.698 81.838 52.753C81.821 52.785 81.799 52.809 81.776 52.822C81.754 52.835 81.732 52.837 81.716 52.826L81.23 52.489C81.201 52.469 81.185 52.429 81.185 52.379V51.893C81.188 51.822 81.185 51.754 81.185 51.669V50.939C81.185 50.779 81.076 50.712 80.942 50.789C80.808 50.867 80.699 51.059 80.699 51.219V52.566C80.699 52.808 80.764 53.006 80.883 53.131L81.418 53.695C81.487 53.768 81.524 53.882 81.524 54.022V54.884L82.295 54.439V52.954C82.295 52.623 82.192 52.363 82.006 52.224L81.535 51.873Z" fill="#7F6B59"/>
<path d="M84.499 48.737C84.365 48.815 84.256 49.007 84.256 49.167V50.606C84.256 50.656 84.24 50.714 84.211 50.768L83.725 51.666C83.709 51.696 83.687 51.719 83.665 51.731C83.642 51.744 83.619 51.746 83.603 51.734C83.574 51.712 83.579 51.649 83.608 51.595L84.101 50.683C84.14 50.611 84.16 50.533 84.154 50.469C84.149 50.416 84.137 50.392 84.095 50.378C84.038 50.354 83.955 50.409 83.906 50.504L83.434 51.402C83.248 51.755 83.145 52.134 83.145 52.465V53.95L83.916 53.505V52.643C83.916 52.503 83.953 52.346 84.022 52.193L84.557 51.011C84.677 50.747 84.741 50.475 84.741 50.233V48.886C84.743 48.726 84.634 48.659 84.499 48.737Z" fill="#7F6B59"/>
<path d="M85.723 53.459L79.718 56.926C79.663 56.958 79.619 56.93 79.619 56.865V49.704C79.619 49.639 79.663 49.56 79.718 49.528L85.723 46.061C85.778 46.029 85.822 46.057 85.822 46.122V53.283C85.823 53.348 85.778 53.427 85.723 53.459ZM79.818 56.631L85.624 53.279V46.355L79.818 49.707V56.631Z" fill="#7F6B59"/>
<path d="M91.312 48.181V45.914L91.766 45.652L90.922 44.447L90.078 46.627L90.532 46.364V48.631L89.426 49.27V47.003L89.88 46.741L89.035 45.537L88.191 47.716L88.645 47.454V49.721L88.035 50.073V51.139L91.951 48.878V47.812L91.312 48.181Z" fill="#7F6B59"/>
<path d="M92.995 49.4621L86.99 52.9291C86.935 52.9611 86.891 52.933 86.891 52.868V45.7071C86.891 45.6411 86.936 45.5631 86.99 45.5311L92.995 42.0641C93.05 42.0321 93.094 42.0601 93.094 42.1251V49.2861C93.095 49.3511 93.05 49.4301 92.995 49.4621ZM87.09 52.6341L92.896 49.2821V42.3581L87.09 45.7101V52.6341Z" fill="#7F6B59"/>
</svg>
