<svg width="135" height="160" viewBox="0 0 135 160" fill="none" xmlns="http://www.w3.org/2000/svg">
<path d="M34.498 154.365L67.597 159.457L134.513 118.823L103.848 101.335L97.072 99.904L34.498 154.365Z" fill="#C2A49D"/>
<path d="M34.499 58.182V154.365L21.861 147.065L15.051 143.137L0.165985 134.539V38.356L15.051 46.947V46.954L21.861 50.881L34.499 58.182Z" fill="#CDAD8A"/>
<path d="M100.696 116.145L34.498 154.365V58.18L100.696 19.96V116.145Z" fill="#A48465"/>
<path d="M100.698 19.959L34.499 58.182L21.861 50.881L15.045 46.947L0.165985 38.356L66.359 0.139008L81.244 8.73099L88.06 12.664L100.698 19.959Z" fill="#F0CFA8"/>
<path d="M86.534 11.641L20.335 49.858L13.519 45.924L79.718 7.707L86.534 11.641Z" fill="#F0DCC5"/>
<path d="M15.467 33.602C15.349 33.516 15.17 33.434 15.17 33.434C15.17 33.434 15.09 33.647 15.16 33.755C15.165 33.762 15.17 33.769 15.176 33.775C13.796 34.687 15 35.477 15 35.477L15.014 35.469C14.941 35.388 14.957 35.291 15.067 35.227C15.177 35.163 15.346 35.154 15.486 35.197L15.513 35.181C15.44 35.1 15.456 35.003 15.566 34.939C15.675 34.876 15.845 34.866 15.985 34.909L16.012 34.893C15.939 34.812 15.955 34.715 16.065 34.651C16.175 34.587 16.345 34.578 16.484 34.62L16.511 34.604C16.469 34.558 16.457 34.506 16.475 34.458L18.226 35.469C18.318 35.522 18.324 35.606 18.239 35.655C18.153 35.704 18.009 35.701 17.916 35.648L17.635 35.486C17.559 35.442 17.44 35.439 17.37 35.48C17.3 35.521 17.304 35.589 17.38 35.633L17.661 35.795C17.906 35.936 18.288 35.945 18.514 35.815C18.74 35.685 18.725 35.464 18.48 35.323L16.729 34.312C16.812 34.302 16.902 34.308 16.982 34.333L17.009 34.317C16.936 34.237 16.952 34.139 17.062 34.075C17.171 34.012 17.341 34.002 17.481 34.045L17.508 34.029C17.435 33.948 17.451 33.851 17.561 33.787C17.671 33.723 17.841 33.714 17.98 33.756L18.008 33.74C17.935 33.659 17.951 33.562 18.061 33.498C18.171 33.434 18.34 33.425 18.48 33.467L18.494 33.459C18.494 33.459 17.045 32.763 15.467 33.602Z" fill="#7F6B59"/>
<path d="M14.473 34.098C14.582 34.079 14.633 34.007 14.563 33.899C14.493 33.791 14.179 33.648 14.179 33.648C14.179 33.648 14.098 33.861 14.169 33.969C14.239 34.077 14.364 34.118 14.473 34.098Z" fill="#7F6B59"/>
<path d="M14.762 33.613C14.871 33.594 14.922 33.522 14.852 33.414C14.782 33.306 14.468 33.163 14.468 33.163C14.468 33.163 14.388 33.376 14.458 33.484C14.528 33.592 14.653 33.633 14.762 33.613Z" fill="#7F6B59"/>
<path d="M15.915 32.693C15.985 32.801 16.11 32.841 16.219 32.822C16.328 32.803 16.379 32.731 16.309 32.623C16.239 32.516 15.925 32.372 15.925 32.372C15.925 32.372 15.844 32.585 15.915 32.693Z" fill="#7F6B59"/>
<path d="M16.662 33.022C16.732 33.13 16.857 33.17 16.966 33.151C17.075 33.132 17.126 33.06 17.056 32.952C16.986 32.844 16.672 32.701 16.672 32.701C16.672 32.701 16.592 32.914 16.662 33.022Z" fill="#7F6B59"/>
<path d="M15.051 33.052C15.16 33.033 15.211 32.961 15.141 32.853C15.071 32.745 14.757 32.602 14.757 32.602C14.757 32.602 14.676 32.815 14.747 32.923C14.818 33.031 14.943 33.072 15.051 33.052Z" fill="#7F6B59"/>
<path d="M15.525 33.186C15.595 33.294 15.72 33.334 15.829 33.315C15.938 33.296 15.989 33.224 15.919 33.116C15.849 33.008 15.535 32.865 15.535 32.865C15.535 32.865 15.455 33.078 15.525 33.186Z" fill="#7F6B59"/>
<path d="M15.398 32.534C15.507 32.515 15.558 32.443 15.488 32.335C15.418 32.227 15.104 32.084 15.104 32.084C15.104 32.084 15.023 32.297 15.094 32.405C15.165 32.513 15.289 32.554 15.398 32.534Z" fill="#7F6B59"/>
<path d="M22.216 34.417L16.657 37.626C16.606 37.655 16.52 37.653 16.465 37.622L10.448 34.148C10.393 34.116 10.39 34.067 10.44 34.037L15.999 30.828C16.05 30.799 16.136 30.801 16.191 30.832L22.208 34.306C22.263 34.338 22.267 34.388 22.216 34.417ZM16.55 37.458L21.925 34.355L16.107 30.996L10.732 34.099L16.55 37.458Z" fill="#7F6B59"/>
<path d="M8.63198 35.048L3.07299 38.257C3.02199 38.286 3.02598 38.336 3.08098 38.368L9.09798 41.842C9.15298 41.874 9.239 41.876 9.29 41.846L14.849 38.637C14.9 38.608 14.896 38.558 14.841 38.526L8.824 35.052C8.769 35.02 8.68298 35.018 8.63198 35.048ZM14.557 38.574L9.182 41.677L3.364 38.318L8.739 35.215L14.557 38.574Z" fill="#7F6B59"/>
<path d="M8.58301 38.414L10.335 39.425L9.88699 39.998L10.607 39.582L10.881 39.424L11.624 38.995L10.609 39.267L8.86099 38.258C9.20699 38.03 9.36799 37.737 9.34799 37.441C9.32699 37.12 9.092 36.795 8.651 36.54L6.75601 37.634L6.85999 37.889L7.311 37.786L7.479 38.503L7.01401 38.129L6.69501 38.156L6.38101 37.851L5.65701 38.269C6.48901 38.748 7.75801 38.803 8.58301 38.414Z" fill="#7F6B59"/>
<path d="M21.464 28.74L21.103 29.641L22.664 29.433L23.024 28.532L21.464 28.74Z" fill="#7F6B59"/>
<path d="M22.161 30.277L23.721 30.07L22.682 29.469L21.121 29.677L22.161 30.277Z" fill="#7F6B59"/>
<path d="M23.094 28.538L22.734 29.439L23.774 30.039L24.134 29.138L23.094 28.538Z" fill="#7F6B59"/>
<path d="M22.379 30.536C22.278 30.531 22.195 30.571 22.19 30.629C22.184 30.669 22.198 30.691 22.241 30.721C22.292 30.757 22.367 30.778 22.444 30.781L23.428 30.822C23.487 30.824 23.542 30.851 23.548 30.885C23.552 30.905 23.54 30.922 23.519 30.934C23.499 30.946 23.469 30.952 23.438 30.951L22.469 30.911C22.411 30.909 22.355 30.894 22.313 30.869L21.905 30.633C21.85 30.598 21.788 30.566 21.717 30.525L21.104 30.171C20.969 30.093 20.759 30.089 20.635 30.16C20.511 30.232 20.519 30.353 20.654 30.431L21.786 31.084C21.989 31.201 22.246 31.281 22.521 31.311L23.75 31.448C23.909 31.466 24.057 31.512 24.175 31.58L24.9 31.998L25.614 31.586L24.366 30.866C24.088 30.705 23.724 30.605 23.346 30.585L22.379 30.536Z" fill="#7F6B59"/>
<path d="M23.926 28.261C23.802 28.333 23.81 28.454 23.945 28.532L25.154 29.23C25.196 29.254 25.222 29.287 25.226 29.32L25.295 29.879C25.297 29.897 25.286 29.914 25.265 29.926C25.244 29.938 25.213 29.945 25.179 29.943C25.12 29.94 25.073 29.908 25.069 29.874L25 29.306C24.995 29.261 24.957 29.218 24.896 29.189C24.844 29.164 24.806 29.156 24.736 29.16C24.636 29.163 24.565 29.211 24.575 29.269L24.663 29.825C24.698 30.044 24.871 30.254 25.149 30.414L26.397 31.135L27.111 30.723L26.386 30.305C26.269 30.237 26.189 30.151 26.158 30.06L25.92 29.351C25.867 29.193 25.729 29.044 25.526 28.927L24.394 28.274C24.261 28.194 24.051 28.189 23.926 28.261Z" fill="#7F6B59"/>
<path d="M29.621 30.24L24.062 33.449C24.011 33.478 23.925 33.476 23.87 33.445L17.853 29.971C17.798 29.939 17.794 29.89 17.845 29.86L23.404 26.651C23.455 26.622 23.541 26.624 23.596 26.655L29.613 30.129C29.668 30.161 29.672 30.211 29.621 30.24ZM23.955 33.281L29.33 30.178L23.513 26.819L18.138 29.922L23.955 33.281Z" fill="#7F6B59"/>
<path d="M33.501 25.827L31.596 24.727L32.016 24.484L29.813 24.115L30.453 25.387L30.874 25.144L32.778 26.244L31.754 26.835L29.849 25.735L30.27 25.493L28.067 25.123L28.707 26.395L29.127 26.152L31.032 27.252L30.467 27.578L31.363 28.095L34.987 26.003L34.092 25.486L33.501 25.827Z" fill="#7F6B59"/>
<path d="M36.951 26.02L31.392 29.229C31.341 29.258 31.255 29.256 31.2 29.225L25.183 25.751C25.128 25.719 25.125 25.67 25.175 25.64L30.734 22.431C30.785 22.402 30.871 22.404 30.926 22.435L36.943 25.909C36.999 25.941 37.002 25.991 36.951 26.02ZM31.285 29.061L36.66 25.958L30.843 22.599L25.468 25.702L31.285 29.061Z" fill="#7F6B59"/>
<path d="M82.549 9.95998C82.336 9.83698 81.991 9.837 81.777 9.959C66.22 18.865 31.646 38.941 17.503 47.159C17.291 47.283 17.291 47.482 17.504 47.605L17.505 47.606C17.719 47.729 18.066 47.728 18.278 47.605C32.42 39.387 66.992 19.313 82.547 10.408C82.761 10.285 82.763 10.086 82.55 9.96199L82.549 9.95998Z" fill="#E6D3BD"/>
<path d="M0.721985 39.521L33.967 58.715C34.052 58.764 34.122 58.735 34.122 58.65C34.122 58.564 34.053 58.455 33.967 58.406L0.721985 39.212C0.636985 39.163 0.566986 39.192 0.566986 39.277C0.566986 39.362 0.635985 39.471 0.721985 39.521Z" fill="#B29778"/>
<path d="M20.335 49.858V146.041L13.525 142.114V45.924L20.335 49.858Z" fill="#E0C5A4"/>
<path d="M73.191 47.817L64.641 52.753C63.212 53.578 62.053 53.089 62.053 51.659C62.053 50.23 63.212 48.403 64.641 47.577L73.191 42.641C74.62 41.816 75.779 42.306 75.779 43.735C75.778 45.164 74.62 46.992 73.191 47.817Z" fill="#63503D"/>
<path d="M61.111 87.125L39.753 99.456V87.2L61.111 74.869V87.125Z" fill="#C5B9AB"/>
<path d="M56.275 66.815L42.031 75.039V73.659L56.275 65.435V66.815Z" fill="#63503D"/>
<path d="M56.275 68.934L42.031 77.158V76.468L56.275 68.244V68.934Z" fill="#63503D"/>
<path d="M56.275 70.142L42.031 78.365V77.675L56.275 69.452V70.142Z" fill="#63503D"/>
<path d="M56.275 71.349L42.031 79.573V78.883L56.275 70.659V71.349Z" fill="#63503D"/>
<path d="M52.327 74.836L42.031 80.78V80.09L52.327 74.146V74.836Z" fill="#63503D"/>
<path d="M61.111 85.233C62.175 84.619 63.041 84.985 63.041 86.049C63.041 87.113 62.175 88.478 61.111 89.093C60.047 89.707 59.181 89.342 59.181 88.277C59.181 87.212 60.047 85.847 61.111 85.233ZM61.111 83.974C59.35 84.991 57.922 87.242 57.922 89.003C57.922 90.764 59.35 91.367 61.111 90.351C62.872 89.335 64.299 87.083 64.299 85.322C64.299 83.561 62.872 82.957 61.111 83.974Z" fill="#917559"/>
</svg>
