<svg width="185" height="163" viewBox="0 0 185 163" fill="none" xmlns="http://www.w3.org/2000/svg">
<path d="M74.839 22.626L38.909 43.37V1.88199L74.839 22.626Z" fill="#CDAD8A"/>
<path d="M2.98 22.626L38.91 1.88199V43.37L2.98 22.626Z" fill="#A48465"/>
<path d="M135.92 97.205L91.35 116.666V85.235L135.92 65.773V97.205Z" fill="#A48465"/>
<path d="M135.92 65.773L91.35 85.235L77.699 74.814V55.828L106.448 43.275L135.92 65.773Z" fill="#DEBD97"/>
<path d="M91.35 85.235V116.666L77.699 106.245V74.814L91.35 85.235Z" fill="#B89879"/>
<path d="M25.91 47.852C25.781 47.852 25.649 47.83 25.521 47.783C22.639 46.726 21.632 44.518 21.591 44.424C21.338 43.853 21.595 43.185 22.166 42.932C22.735 42.681 23.398 42.934 23.654 43.498C23.691 43.577 24.369 44.952 26.3 45.66C26.886 45.875 27.187 46.525 26.973 47.111C26.805 47.568 26.371 47.852 25.91 47.852Z" fill="white"/>
<path d="M35.139 46.76C34.807 46.76 34.479 46.615 34.256 46.336C34.201 46.269 33.205 45.103 31.16 44.892C30.539 44.828 30.087 44.272 30.151 43.651C30.215 43.03 30.768 42.577 31.392 42.642C34.445 42.956 35.965 44.849 36.028 44.93C36.414 45.421 36.329 46.132 35.838 46.518C35.63 46.681 35.384 46.76 35.139 46.76Z" fill="#EAE4E5"/>
<path d="M38.99 43.981C38.658 43.981 38.33 43.836 38.107 43.557C38.052 43.49 37.056 42.324 35.011 42.113C34.39 42.049 33.938 41.493 34.002 40.872C34.066 40.251 34.619 39.798 35.243 39.863C38.296 40.178 39.816 42.07 39.879 42.151C40.265 42.642 40.18 43.353 39.689 43.739C39.481 43.902 39.235 43.981 38.99 43.981Z" fill="#EAE4E5"/>
<path d="M26.2 49.424C25.868 49.424 25.54 49.279 25.317 49C25.262 48.933 24.266 47.767 22.221 47.556C21.6 47.492 21.148 46.936 21.212 46.315C21.276 45.694 21.829 45.241 22.453 45.306C25.506 45.621 27.026 47.513 27.089 47.594C27.475 48.085 27.39 48.796 26.899 49.182C26.691 49.345 26.445 49.424 26.2 49.424Z" fill="#EAE4E5"/>
<path d="M29.839 37.595C29.507 37.595 29.179 37.45 28.956 37.171C28.901 37.104 27.905 35.938 25.86 35.727C25.239 35.663 24.787 35.107 24.851 34.486C24.915 33.865 25.468 33.412 26.092 33.477C29.145 33.792 30.665 35.684 30.728 35.765C31.114 36.256 31.029 36.967 30.538 37.353C30.33 37.516 30.084 37.595 29.839 37.595Z" fill="#EAE4E5"/>
<path d="M27.35 51.004C27.057 51.004 26.765 50.891 26.543 50.665C26.108 50.222 26.112 49.512 26.55 49.073C26.611 49.01 27.66 47.893 27.645 45.837C27.64 45.212 28.143 44.702 28.767 44.698C28.77 44.698 28.773 44.698 28.776 44.698C29.397 44.698 29.902 45.199 29.907 45.82C29.93 48.889 28.216 50.608 28.143 50.68C27.922 50.897 27.636 51.004 27.35 51.004Z" fill="white"/>
<path d="M20.799 44.747C20.506 44.747 20.214 44.634 19.992 44.408C19.557 43.965 19.561 43.255 19.999 42.816C20.06 42.753 21.109 41.636 21.094 39.58C21.089 38.955 21.592 38.446 22.216 38.441C22.219 38.441 22.222 38.441 22.225 38.441C22.846 38.441 23.351 38.942 23.356 39.563C23.379 42.632 21.665 44.351 21.592 44.423C21.371 44.639 21.085 44.747 20.799 44.747Z" fill="white"/>
<path d="M31.438 44.507C31.145 44.507 30.853 44.394 30.631 44.169C30.196 43.726 30.2 43.015 30.638 42.577C30.699 42.514 31.748 41.396 31.733 39.34C31.728 38.715 32.231 38.206 32.855 38.201C32.858 38.201 32.861 38.201 32.864 38.201C33.485 38.201 33.99 38.702 33.995 39.323C34.018 42.392 32.304 44.111 32.231 44.183C32.011 44.399 31.725 44.507 31.438 44.507Z" fill="white"/>
<path d="M31.254 43.374C31.223 43.374 31.193 43.373 31.162 43.37C28.103 43.122 26.542 41.263 26.477 41.184C26.08 40.702 26.15 39.989 26.632 39.593C27.112 39.198 27.819 39.265 28.217 39.74C28.272 39.804 29.293 40.95 31.345 41.116C31.967 41.167 32.431 41.712 32.381 42.334C32.332 42.926 31.837 43.374 31.254 43.374Z" fill="white"/>
<path d="M26.777 41.876C26.746 41.876 26.715 41.875 26.684 41.872C23.625 41.624 22.064 39.765 21.999 39.686C21.602 39.204 21.672 38.491 22.155 38.095C22.635 37.7 23.342 37.767 23.74 38.242C23.795 38.306 24.816 39.452 26.868 39.618C27.49 39.668 27.954 40.214 27.904 40.836C27.855 41.428 27.36 41.876 26.777 41.876Z" fill="white"/>
<path d="M37.185 44.691C37.028 44.691 36.869 44.658 36.717 44.589L32.814 42.812C32.246 42.553 31.995 41.883 32.253 41.314C32.512 40.746 33.183 40.495 33.751 40.753L37.654 42.53C38.222 42.789 38.473 43.459 38.215 44.028C38.025 44.445 37.614 44.691 37.185 44.691Z" fill="#D3C5C8"/>
<path d="M33.096 47.362C32.939 47.362 32.78 47.329 32.628 47.26L28.725 45.483C28.157 45.224 27.906 44.554 28.164 43.985C28.423 43.417 29.094 43.166 29.662 43.424L33.565 45.201C34.133 45.46 34.384 46.13 34.126 46.699C33.937 47.116 33.526 47.362 33.096 47.362Z" fill="#D3C5C8"/>
<path d="M26.775 45.62C26.618 45.62 26.459 45.587 26.307 45.518L22.404 43.741C21.836 43.482 21.585 42.812 21.843 42.243C22.102 41.675 22.773 41.424 23.341 41.682L27.244 43.459C27.812 43.718 28.063 44.389 27.805 44.957C27.615 45.373 27.205 45.62 26.775 45.62Z" fill="#D3C5C8"/>
<path d="M28.17 44.886C27.733 44.886 27.317 44.631 27.132 44.204C26.525 42.804 24.524 43.082 24.439 43.095C23.825 43.185 23.247 42.763 23.153 42.149C23.058 41.534 23.475 40.959 24.089 40.861C27.089 40.383 28.717 42.172 29.208 43.305C29.456 43.878 29.193 44.544 28.62 44.792C28.472 44.856 28.32 44.886 28.17 44.886Z" fill="#EAE4E5"/>
<path d="M30.895 41.209C30.458 41.209 30.042 40.954 29.857 40.527C29.25 39.127 27.249 39.405 27.164 39.418C26.55 39.508 25.972 39.086 25.878 38.472C25.783 37.857 26.2 37.282 26.814 37.184C29.814 36.706 31.442 38.496 31.933 39.628C32.181 40.201 31.918 40.867 31.345 41.115C31.198 41.179 31.045 41.209 30.895 41.209Z" fill="#EAE4E5"/>
<path d="M34.149 38.882C34.02 38.882 33.888 38.86 33.76 38.813C30.879 37.757 29.871 35.548 29.83 35.454C29.577 34.883 29.834 34.215 30.405 33.962C30.974 33.711 31.637 33.964 31.893 34.527C31.93 34.606 32.608 35.981 34.539 36.689C35.125 36.904 35.426 37.554 35.212 38.14C35.043 38.598 34.61 38.882 34.149 38.882Z" fill="white"/>
<path d="M43.378 37.791C43.046 37.791 42.718 37.646 42.495 37.367C42.44 37.3 41.444 36.134 39.399 35.923C38.778 35.859 38.326 35.304 38.39 34.682C38.454 34.061 39.007 33.608 39.631 33.673C42.684 33.988 44.204 35.88 44.267 35.961C44.653 36.452 44.568 37.163 44.077 37.549C43.869 37.712 43.623 37.791 43.378 37.791Z" fill="#EAE4E5"/>
<path d="M47.229 35.011C46.897 35.011 46.569 34.866 46.346 34.587C46.291 34.52 45.295 33.354 43.25 33.143C42.629 33.079 42.177 32.524 42.241 31.902C42.305 31.281 42.858 30.828 43.482 30.893C46.535 31.208 48.055 33.1 48.118 33.181C48.504 33.672 48.419 34.383 47.928 34.769C47.72 34.932 47.474 35.011 47.229 35.011Z" fill="#EAE4E5"/>
<path d="M34.439 40.455C34.107 40.455 33.779 40.31 33.556 40.031C33.501 39.964 32.505 38.798 30.46 38.587C29.839 38.523 29.387 37.967 29.451 37.346C29.515 36.725 30.068 36.272 30.692 36.337C33.745 36.652 35.265 38.544 35.328 38.625C35.714 39.116 35.629 39.827 35.138 40.213C34.93 40.376 34.683 40.455 34.439 40.455Z" fill="#EAE4E5"/>
<path d="M35.589 42.035C35.296 42.035 35.004 41.922 34.782 41.696C34.347 41.253 34.351 40.543 34.789 40.104C34.85 40.041 35.899 38.923 35.884 36.867C35.879 36.243 36.382 35.733 37.006 35.728C37.009 35.728 37.012 35.728 37.015 35.728C37.636 35.728 38.141 36.229 38.146 36.85C38.169 39.919 36.455 41.638 36.382 41.71C36.161 41.927 35.875 42.035 35.589 42.035Z" fill="white"/>
<path d="M29.037 35.778C28.744 35.778 28.452 35.665 28.23 35.439C27.795 34.996 27.799 34.286 28.237 33.847C28.298 33.784 29.347 32.667 29.332 30.611C29.327 29.986 29.83 29.476 30.454 29.472C30.457 29.472 30.46 29.472 30.463 29.472C31.084 29.472 31.589 29.973 31.594 30.594C31.617 33.663 29.903 35.382 29.83 35.454C29.61 35.67 29.323 35.778 29.037 35.778Z" fill="white"/>
<path d="M39.677 35.538C39.384 35.538 39.092 35.425 38.87 35.199C38.435 34.756 38.439 34.046 38.877 33.607C38.938 33.544 39.987 32.427 39.972 30.371C39.967 29.746 40.47 29.236 41.094 29.232C41.097 29.232 41.1 29.232 41.103 29.232C41.724 29.232 42.229 29.733 42.234 30.354C42.257 33.423 40.543 35.142 40.47 35.214C40.249 35.43 39.963 35.538 39.677 35.538Z" fill="white"/>
<path d="M24.405 52.871C24.112 52.871 23.82 52.758 23.598 52.533C23.163 52.09 23.167 51.379 23.605 50.941C23.666 50.878 24.715 49.76 24.7 47.704C24.695 47.079 25.198 46.57 25.822 46.565C25.825 46.565 25.828 46.565 25.831 46.565C26.452 46.565 26.957 47.066 26.962 47.687C26.985 50.756 25.271 52.475 25.198 52.547C24.978 52.763 24.691 52.871 24.405 52.871Z" fill="white"/>
<path d="M39.493 34.404C39.462 34.404 39.431 34.403 39.4 34.4C36.341 34.152 34.78 32.293 34.715 32.214C34.318 31.732 34.388 31.019 34.871 30.622C35.351 30.227 36.058 30.294 36.456 30.769C36.511 30.833 37.532 31.979 39.584 32.145C40.206 32.195 40.67 32.741 40.62 33.363C40.571 33.956 40.076 34.404 39.493 34.404Z" fill="white"/>
<path d="M35.016 32.907C34.985 32.907 34.954 32.906 34.923 32.903C31.864 32.655 30.303 30.796 30.238 30.717C29.841 30.235 29.911 29.522 30.394 29.125C30.874 28.73 31.581 28.797 31.979 29.272C32.034 29.336 33.055 30.482 35.107 30.648C35.729 30.699 36.193 31.244 36.143 31.867C36.094 32.459 35.599 32.907 35.016 32.907Z" fill="white"/>
<path d="M45.424 35.721C45.267 35.721 45.108 35.688 44.956 35.619L41.053 33.842C40.485 33.583 40.234 32.912 40.492 32.344C40.751 31.776 41.422 31.525 41.99 31.783L45.893 33.56C46.461 33.819 46.712 34.49 46.454 35.058C46.264 35.475 45.853 35.721 45.424 35.721Z" fill="#D3C5C8"/>
<path d="M41.335 38.393C41.178 38.393 41.019 38.36 40.867 38.291L36.964 36.514C36.396 36.255 36.145 35.585 36.403 35.016C36.662 34.448 37.333 34.197 37.901 34.455L41.804 36.232C42.372 36.491 42.623 37.162 42.365 37.73C42.175 38.147 41.765 38.393 41.335 38.393Z" fill="#D3C5C8"/>
<path d="M33.447 37.412C33.321 37.32 33.211 37.199 33.129 37.054L31.026 33.317C30.72 32.773 30.913 32.083 31.457 31.777C32.002 31.471 32.691 31.664 32.997 32.208L35.1 35.945C35.406 36.489 35.213 37.179 34.669 37.485C34.27 37.709 33.794 37.665 33.447 37.412Z" fill="#D3C5C8"/>
<path d="M34.203 36.684C33.915 36.356 33.831 35.875 34.03 35.454C34.682 34.074 33.152 32.754 33.086 32.699C32.613 32.297 32.548 31.584 32.948 31.108C33.348 30.631 34.055 30.565 34.534 30.962C36.873 32.9 36.602 35.305 36.075 36.421C35.808 36.986 35.134 37.227 34.57 36.961C34.426 36.892 34.302 36.797 34.203 36.684Z" fill="#EAE4E5"/>
<path d="M39.134 32.24C38.697 32.24 38.281 31.985 38.096 31.558C37.489 30.158 35.488 30.436 35.403 30.449C34.789 30.539 34.211 30.117 34.117 29.503C34.022 28.888 34.439 28.313 35.053 28.215C38.053 27.737 39.681 29.526 40.171 30.659C40.419 31.232 40.156 31.898 39.583 32.146C39.437 32.21 39.284 32.24 39.134 32.24Z" fill="#EAE4E5"/>
<path d="M30.895 34.184C30.458 34.184 30.042 33.929 29.857 33.502C29.25 32.102 27.249 32.38 27.164 32.393C26.55 32.484 25.972 32.061 25.878 31.447C25.783 30.832 26.2 30.257 26.814 30.159C29.814 29.681 31.442 31.47 31.933 32.603C32.181 33.176 31.918 33.842 31.345 34.09C31.198 34.154 31.045 34.184 30.895 34.184Z" fill="#EAE4E5"/>
<path d="M27.58 40.493C27.143 40.493 26.727 40.238 26.542 39.812C25.935 38.412 23.934 38.69 23.849 38.703C23.235 38.794 22.657 38.371 22.563 37.757C22.468 37.142 22.885 36.567 23.5 36.469C26.5 35.991 28.128 37.78 28.619 38.913C28.867 39.486 28.604 40.152 28.031 40.4C27.883 40.463 27.73 40.493 27.58 40.493Z" fill="#EAE4E5"/>
<path d="M31.281 51.116C31.152 51.116 31.02 51.093 30.892 51.047C28.01 49.99 27.003 47.782 26.962 47.688C26.709 47.117 26.966 46.449 27.537 46.196C28.106 45.945 28.769 46.198 29.025 46.762C29.062 46.841 29.74 48.216 31.671 48.924C32.257 49.139 32.558 49.789 32.344 50.375C32.176 50.832 31.742 51.116 31.281 51.116Z" fill="white"/>
<path d="M40.51 50.024C40.178 50.024 39.85 49.879 39.627 49.6C39.572 49.533 38.576 48.367 36.531 48.156C35.91 48.092 35.458 47.536 35.522 46.915C35.586 46.294 36.139 45.841 36.763 45.906C39.816 46.221 41.336 48.113 41.399 48.194C41.785 48.685 41.7 49.396 41.209 49.782C41.001 49.945 40.755 50.024 40.51 50.024Z" fill="#EAE4E5"/>
<path d="M44.361 47.245C44.029 47.245 43.701 47.1 43.478 46.821C43.423 46.754 42.427 45.588 40.382 45.377C39.761 45.313 39.309 44.757 39.373 44.136C39.437 43.515 39.99 43.062 40.614 43.127C43.667 43.442 45.187 45.334 45.25 45.415C45.636 45.906 45.551 46.617 45.06 47.003C44.852 47.166 44.606 47.245 44.361 47.245Z" fill="#EAE4E5"/>
<path d="M31.571 52.688C31.239 52.688 30.911 52.543 30.688 52.264C30.633 52.197 29.637 51.031 27.592 50.82C26.971 50.756 26.519 50.2 26.583 49.579C26.647 48.958 27.2 48.505 27.824 48.57C30.877 48.885 32.397 50.777 32.46 50.858C32.846 51.349 32.761 52.06 32.27 52.446C32.062 52.609 31.816 52.688 31.571 52.688Z" fill="#EAE4E5"/>
<path d="M32.721 54.268C32.428 54.268 32.136 54.155 31.914 53.929C31.479 53.486 31.483 52.776 31.921 52.337C31.982 52.274 33.031 51.157 33.016 49.101C33.011 48.476 33.514 47.966 34.138 47.962C34.141 47.962 34.144 47.962 34.147 47.962C34.768 47.962 35.273 48.463 35.278 49.084C35.301 52.153 33.587 53.872 33.514 53.944C33.293 54.161 33.007 54.268 32.721 54.268Z" fill="white"/>
<path d="M26.17 48.011C25.877 48.011 25.585 47.898 25.363 47.672C24.928 47.229 24.932 46.519 25.37 46.08C25.431 46.017 26.48 44.9 26.465 42.844C26.46 42.219 26.963 41.709 27.587 41.705C27.59 41.705 27.593 41.705 27.596 41.705C28.217 41.705 28.722 42.206 28.727 42.827C28.75 45.896 27.036 47.615 26.963 47.687C26.742 47.904 26.456 48.011 26.17 48.011Z" fill="white"/>
<path d="M36.81 47.771C36.517 47.771 36.225 47.658 36.003 47.433C35.568 46.99 35.572 46.279 36.01 45.841C36.071 45.778 37.12 44.661 37.105 42.605C37.1 41.98 37.603 41.47 38.227 41.466C38.23 41.466 38.233 41.466 38.236 41.466C38.857 41.466 39.362 41.967 39.367 42.588C39.39 45.657 37.676 47.376 37.603 47.448C37.382 47.663 37.096 47.771 36.81 47.771Z" fill="white"/>
<path d="M36.625 46.638C36.594 46.638 36.564 46.637 36.532 46.634C33.473 46.386 31.912 44.527 31.847 44.448C31.45 43.966 31.52 43.253 32.003 42.857C32.483 42.462 33.19 42.529 33.588 43.004C33.643 43.068 34.664 44.214 36.716 44.38C37.338 44.431 37.802 44.976 37.752 45.598C37.703 46.19 37.209 46.638 36.625 46.638Z" fill="white"/>
<path d="M32.148 45.14C32.117 45.14 32.087 45.139 32.055 45.136C28.996 44.888 27.435 43.029 27.37 42.95C26.973 42.468 27.043 41.755 27.526 41.358C28.006 40.963 28.713 41.03 29.111 41.505C29.166 41.569 30.187 42.715 32.239 42.881C32.861 42.931 33.325 43.477 33.275 44.099C33.226 44.692 32.731 45.14 32.148 45.14Z" fill="white"/>
<path d="M40.453 48.739C40.346 48.624 40.262 48.485 40.209 48.327L38.854 44.258C38.657 43.665 38.977 43.025 39.57 42.828C40.163 42.631 40.803 42.951 41 43.544L42.355 47.613C42.552 48.206 42.232 48.846 41.639 49.043C41.205 49.187 40.746 49.053 40.453 48.739Z" fill="#D3C5C8"/>
<path d="M38.468 50.626C38.311 50.626 38.152 50.593 38 50.524L34.097 48.747C33.529 48.488 33.278 47.818 33.536 47.249C33.795 46.681 34.466 46.43 35.034 46.688L38.937 48.465C39.505 48.724 39.756 49.394 39.498 49.963C39.308 50.38 38.897 50.626 38.468 50.626Z" fill="#D3C5C8"/>
<path d="M32.146 48.884C31.989 48.884 31.83 48.851 31.678 48.782L27.775 47.005C27.207 46.746 26.956 46.076 27.214 45.507C27.473 44.939 28.144 44.688 28.712 44.946L32.615 46.723C33.183 46.982 33.434 47.652 33.176 48.221C32.986 48.637 32.576 48.884 32.146 48.884Z" fill="#D3C5C8"/>
<path d="M33.541 48.15C33.104 48.15 32.688 47.895 32.503 47.469C31.896 46.069 29.895 46.347 29.81 46.36C29.196 46.45 28.618 46.028 28.524 45.414C28.429 44.799 28.846 44.224 29.46 44.126C32.46 43.648 34.088 45.437 34.579 46.57C34.827 47.143 34.564 47.809 33.991 48.057C33.843 48.12 33.691 48.15 33.541 48.15Z" fill="#EAE4E5"/>
<path d="M36.266 44.473C35.829 44.473 35.413 44.218 35.228 43.791C34.621 42.391 32.62 42.669 32.535 42.682C31.921 42.772 31.343 42.35 31.249 41.736C31.154 41.121 31.571 40.546 32.185 40.448C35.185 39.97 36.813 41.76 37.304 42.892C37.552 43.465 37.289 44.131 36.716 44.379C36.569 44.443 36.416 44.473 36.266 44.473Z" fill="#EAE4E5"/>
<path d="M39.52 42.146C39.391 42.146 39.259 42.124 39.131 42.077C36.249 41.021 35.242 38.812 35.201 38.718C34.948 38.147 35.205 37.479 35.776 37.226C36.345 36.975 37.008 37.228 37.264 37.791C37.301 37.87 37.979 39.245 39.91 39.953C40.496 40.168 40.797 40.818 40.583 41.404C40.414 41.862 39.981 42.146 39.52 42.146Z" fill="white"/>
<path d="M48.749 41.055C48.417 41.055 48.089 40.91 47.866 40.631C47.811 40.564 46.815 39.398 44.77 39.187C44.149 39.123 43.697 38.567 43.761 37.946C43.825 37.325 44.378 36.872 45.002 36.937C48.055 37.252 49.575 39.144 49.638 39.225C50.024 39.716 49.939 40.427 49.448 40.813C49.24 40.976 48.994 41.055 48.749 41.055Z" fill="#EAE4E5"/>
<path d="M52.6 38.275C52.268 38.275 51.94 38.13 51.717 37.851C51.662 37.784 50.666 36.618 48.621 36.407C48 36.343 47.548 35.787 47.612 35.166C47.676 34.545 48.229 34.092 48.853 34.157C51.906 34.471 53.426 36.364 53.489 36.445C53.875 36.936 53.79 37.647 53.299 38.033C53.091 38.196 52.845 38.275 52.6 38.275Z" fill="#EAE4E5"/>
<path d="M39.81 43.719C39.478 43.719 39.15 43.574 38.927 43.295C38.872 43.228 37.876 42.062 35.831 41.851C35.21 41.787 34.758 41.232 34.822 40.61C34.886 39.989 35.439 39.536 36.063 39.601C39.116 39.915 40.636 41.808 40.699 41.889C41.085 42.38 41 43.091 40.509 43.477C40.301 43.64 40.054 43.719 39.81 43.719Z" fill="#EAE4E5"/>
<path d="M40.96 45.299C40.667 45.299 40.375 45.186 40.153 44.96C39.718 44.517 39.722 43.807 40.16 43.368C40.221 43.305 41.27 42.187 41.255 40.131C41.25 39.507 41.753 38.997 42.377 38.992C42.38 38.992 42.383 38.992 42.386 38.992C43.007 38.992 43.512 39.493 43.517 40.114C43.54 43.183 41.826 44.902 41.753 44.974C41.532 45.191 41.246 45.299 40.96 45.299Z" fill="white"/>
<path d="M34.408 39.042C34.115 39.042 33.823 38.929 33.601 38.703C33.166 38.26 33.17 37.55 33.608 37.111C33.669 37.048 34.718 35.93 34.703 33.874C34.698 33.25 35.201 32.74 35.825 32.735C35.828 32.735 35.831 32.735 35.834 32.735C36.455 32.735 36.96 33.236 36.965 33.857C36.988 36.926 35.274 38.645 35.201 38.717C34.981 38.934 34.694 39.042 34.408 39.042Z" fill="white"/>
<path d="M45.048 38.802C44.755 38.802 44.463 38.689 44.241 38.463C43.806 38.02 43.81 37.31 44.248 36.871C44.309 36.808 45.358 35.69 45.343 33.634C45.338 33.01 45.841 32.5 46.465 32.495C46.468 32.495 46.471 32.495 46.474 32.495C47.095 32.495 47.6 32.996 47.605 33.617C47.628 36.686 45.914 38.405 45.841 38.477C45.621 38.694 45.334 38.802 45.048 38.802Z" fill="white"/>
<path d="M44.864 37.668C44.833 37.668 44.803 37.667 44.771 37.664C41.712 37.416 40.151 35.557 40.086 35.478C39.689 34.996 39.759 34.283 40.242 33.887C40.722 33.492 41.429 33.559 41.827 34.034C41.882 34.098 42.903 35.244 44.955 35.41C45.577 35.46 46.041 36.006 45.991 36.628C45.942 37.22 45.447 37.668 44.864 37.668Z" fill="white"/>
<path d="M40.387 36.171C40.356 36.171 40.326 36.17 40.294 36.167C37.235 35.919 35.674 34.06 35.609 33.981C35.212 33.499 35.282 32.786 35.765 32.39C36.245 31.995 36.952 32.062 37.35 32.537C37.405 32.601 38.426 33.747 40.478 33.913C41.1 33.963 41.564 34.509 41.514 35.131C41.465 35.723 40.97 36.171 40.387 36.171Z" fill="white"/>
<path d="M50.795 38.985C50.638 38.985 50.479 38.952 50.327 38.883L46.424 37.106C45.856 36.847 45.605 36.176 45.863 35.608C46.122 35.04 46.793 34.789 47.361 35.047L51.264 36.824C51.832 37.083 52.083 37.754 51.825 38.322C51.635 38.739 51.224 38.985 50.795 38.985Z" fill="#D3C5C8"/>
<path d="M46.706 41.657C46.549 41.657 46.39 41.624 46.238 41.555L42.335 39.778C41.767 39.519 41.516 38.848 41.774 38.28C42.033 37.712 42.704 37.461 43.272 37.719L47.175 39.496C47.743 39.755 47.994 40.425 47.736 40.994C47.546 41.411 47.136 41.657 46.706 41.657Z" fill="#D3C5C8"/>
<path d="M40.385 39.914C40.228 39.914 40.069 39.881 39.917 39.812L36.014 38.035C35.446 37.776 35.195 37.106 35.453 36.537C35.712 35.969 36.383 35.718 36.951 35.976L40.854 37.753C41.422 38.012 41.673 38.682 41.415 39.251C41.225 39.668 40.814 39.914 40.385 39.914Z" fill="#D3C5C8"/>
<path d="M41.779 39.181C41.342 39.181 40.926 38.926 40.741 38.499C40.134 37.099 38.133 37.377 38.048 37.39C37.434 37.481 36.856 37.059 36.762 36.444C36.667 35.829 37.084 35.254 37.698 35.156C40.698 34.678 42.326 36.467 42.817 37.6C43.065 38.173 42.802 38.839 42.229 39.087C42.082 39.151 41.929 39.181 41.779 39.181Z" fill="#EAE4E5"/>
<path d="M45.38 33.264C45.1 33.6 44.638 33.757 44.192 33.626C42.727 33.197 41.662 34.914 41.617 34.988C41.294 35.518 40.6 35.693 40.067 35.372C39.534 35.052 39.358 34.363 39.675 33.828C41.225 31.216 43.642 31.108 44.827 31.455C45.426 31.631 45.77 32.259 45.594 32.858C45.55 33.012 45.476 33.149 45.38 33.264Z" fill="#EAE4E5"/>
<path d="M35.37 55.526C35.241 55.526 35.109 55.504 34.981 55.457C32.099 54.401 31.092 52.192 31.051 52.098C30.798 51.527 31.055 50.859 31.626 50.606C32.195 50.355 32.858 50.608 33.114 51.172C33.151 51.251 33.829 52.626 35.76 53.334C36.346 53.549 36.647 54.199 36.433 54.785C36.264 55.242 35.831 55.526 35.37 55.526Z" fill="white"/>
<path d="M44.599 54.435C44.267 54.435 43.939 54.29 43.716 54.011C43.661 53.944 42.665 52.778 40.62 52.567C39.999 52.503 39.547 51.948 39.611 51.326C39.675 50.705 40.228 50.252 40.852 50.317C43.905 50.632 45.425 52.524 45.488 52.605C45.874 53.096 45.789 53.807 45.298 54.193C45.09 54.356 44.843 54.435 44.599 54.435Z" fill="#EAE4E5"/>
<path d="M48.45 51.655C48.118 51.655 47.79 51.51 47.567 51.231C47.512 51.164 46.516 49.998 44.471 49.787C43.85 49.723 43.398 49.167 43.462 48.546C43.526 47.925 44.079 47.472 44.703 47.537C47.756 47.851 49.276 49.744 49.339 49.825C49.725 50.316 49.64 51.027 49.149 51.413C48.94 51.576 48.694 51.655 48.45 51.655Z" fill="#EAE4E5"/>
<path d="M35.66 57.099C35.328 57.099 35 56.954 34.777 56.675C34.722 56.608 33.726 55.442 31.681 55.231C31.06 55.167 30.608 54.611 30.672 53.99C30.736 53.369 31.289 52.916 31.913 52.981C34.966 53.295 36.486 55.188 36.549 55.269C36.935 55.76 36.85 56.471 36.359 56.857C36.15 57.02 35.904 57.099 35.66 57.099Z" fill="#EAE4E5"/>
<path d="M36.81 58.679C36.517 58.679 36.225 58.566 36.003 58.34C35.568 57.897 35.572 57.187 36.01 56.748C36.071 56.685 37.12 55.567 37.105 53.511C37.1 52.886 37.603 52.377 38.227 52.372C38.23 52.372 38.233 52.372 38.236 52.372C38.857 52.372 39.362 52.873 39.367 53.494C39.39 56.563 37.676 58.282 37.603 58.354C37.382 58.571 37.096 58.679 36.81 58.679Z" fill="white"/>
<path d="M45.93 34.835C45.637 34.835 45.345 34.722 45.123 34.496C44.688 34.053 44.692 33.343 45.13 32.904C45.191 32.841 46.24 31.723 46.225 29.667C46.22 29.042 46.723 28.533 47.347 28.528C47.35 28.528 47.353 28.528 47.356 28.528C47.977 28.528 48.482 29.029 48.487 29.65C48.51 32.719 46.796 34.438 46.723 34.51C46.502 34.727 46.216 34.835 45.93 34.835Z" fill="white"/>
<path d="M30.258 52.422C29.965 52.422 29.673 52.309 29.451 52.083C29.016 51.64 29.02 50.93 29.458 50.491C29.519 50.428 30.568 49.31 30.553 47.254C30.548 46.63 31.051 46.12 31.675 46.115C31.678 46.115 31.681 46.115 31.684 46.115C32.305 46.115 32.81 46.616 32.815 47.237C32.838 50.306 31.124 52.025 31.051 52.097C30.83 52.314 30.544 52.422 30.258 52.422Z" fill="white"/>
<path d="M40.898 52.182C40.605 52.182 40.313 52.069 40.091 51.843C39.656 51.4 39.66 50.69 40.098 50.251C40.159 50.188 41.208 49.07 41.193 47.014C41.188 46.39 41.691 45.88 42.315 45.875C42.318 45.875 42.321 45.875 42.324 45.875C42.945 45.875 43.45 46.376 43.455 46.997C43.478 50.066 41.764 51.785 41.691 51.857C41.47 52.074 41.184 52.182 40.898 52.182Z" fill="white"/>
<path d="M40.714 51.048C40.683 51.048 40.652 51.047 40.621 51.044C37.562 50.796 36.001 48.937 35.936 48.858C35.539 48.376 35.609 47.663 36.092 47.267C36.572 46.872 37.279 46.939 37.677 47.414C37.732 47.478 38.753 48.624 40.805 48.79C41.427 48.84 41.891 49.386 41.841 50.008C41.792 50.6 41.297 51.048 40.714 51.048Z" fill="white"/>
<path d="M36.542 49.202C36.512 49.207 36.481 49.211 36.45 49.214C33.392 49.473 31.546 47.896 31.469 47.829C30.998 47.419 30.95 46.704 31.36 46.234C31.768 45.766 32.477 45.715 32.947 46.118C33.012 46.172 34.207 47.135 36.259 46.96C36.881 46.907 37.428 47.369 37.481 47.991C37.532 48.582 37.117 49.106 36.542 49.202Z" fill="white"/>
<path d="M46.644 52.365C46.487 52.365 46.328 52.332 46.176 52.263L42.273 50.486C41.705 50.227 41.454 49.556 41.712 48.988C41.971 48.42 42.642 48.169 43.21 48.427L47.113 50.204C47.681 50.463 47.932 51.133 47.674 51.702C47.484 52.119 47.074 52.365 46.644 52.365Z" fill="#D3C5C8"/>
<path d="M42.556 55.037C42.399 55.037 42.24 55.004 42.088 54.935L38.185 53.158C37.617 52.899 37.366 52.228 37.624 51.66C37.883 51.092 38.554 50.841 39.122 51.099L43.025 52.876C43.593 53.135 43.844 53.805 43.586 54.374C43.396 54.791 42.985 55.037 42.556 55.037Z" fill="#D3C5C8"/>
<path d="M36.248 46.749C36.091 46.749 35.932 46.716 35.78 46.647L31.877 44.87C31.309 44.611 31.058 43.941 31.316 43.372C31.575 42.804 32.246 42.553 32.814 42.811L36.717 44.588C37.285 44.847 37.536 45.517 37.278 46.086C37.088 46.503 36.677 46.749 36.248 46.749Z" fill="#D3C5C8"/>
<path d="M36.234 53.294C36.077 53.294 35.918 53.261 35.766 53.192L31.863 51.415C31.295 51.156 31.044 50.486 31.302 49.917C31.561 49.349 32.232 49.098 32.8 49.356L36.703 51.133C37.271 51.392 37.522 52.062 37.264 52.631C37.075 53.048 36.664 53.294 36.234 53.294Z" fill="#D3C5C8"/>
<path d="M51.53 35.649C51.373 35.649 51.214 35.616 51.062 35.547L47.159 33.77C46.591 33.511 46.34 32.84 46.598 32.272C46.857 31.704 47.528 31.453 48.096 31.711L51.999 33.488C52.567 33.747 52.818 34.417 52.56 34.986C52.371 35.403 51.96 35.649 51.53 35.649Z" fill="#D3C5C8"/>
<path d="M37.629 52.561C37.192 52.561 36.776 52.306 36.591 51.879C35.984 50.479 33.983 50.757 33.898 50.77C33.284 50.861 32.706 50.439 32.612 49.824C32.517 49.209 32.934 48.634 33.548 48.536C36.548 48.058 38.176 49.848 38.667 50.98C38.915 51.553 38.652 52.219 38.079 52.467C37.932 52.53 37.779 52.561 37.629 52.561Z" fill="#EAE4E5"/>
<path d="M45.467 45.173C45.03 45.173 44.614 44.918 44.429 44.491C43.822 43.091 41.821 43.369 41.736 43.382C41.122 43.473 40.544 43.051 40.45 42.436C40.355 41.821 40.772 41.246 41.386 41.148C44.386 40.67 46.014 42.46 46.505 43.592C46.753 44.165 46.49 44.831 45.917 45.079C45.77 45.143 45.617 45.173 45.467 45.173Z" fill="#EAE4E5"/>
<path d="M43.609 46.557C43.48 46.557 43.348 46.535 43.22 46.488C40.338 45.432 39.331 43.223 39.29 43.129C39.037 42.558 39.294 41.89 39.865 41.637C40.434 41.386 41.097 41.639 41.353 42.203C41.39 42.282 42.068 43.657 43.999 44.365C44.585 44.58 44.886 45.23 44.672 45.816C44.503 46.273 44.07 46.557 43.609 46.557Z" fill="white"/>
<path d="M52.838 45.465C52.506 45.465 52.178 45.32 51.955 45.041C51.9 44.974 50.904 43.808 48.859 43.597C48.238 43.533 47.786 42.977 47.85 42.356C47.914 41.735 48.467 41.282 49.091 41.347C52.144 41.662 53.664 43.554 53.727 43.635C54.113 44.126 54.028 44.837 53.537 45.223C53.328 45.386 53.082 45.465 52.838 45.465Z" fill="#EAE4E5"/>
<path d="M56.689 42.686C56.357 42.686 56.029 42.541 55.806 42.262C55.751 42.195 54.755 41.029 52.71 40.818C52.089 40.754 51.637 40.198 51.701 39.577C51.765 38.956 52.318 38.503 52.942 38.568C55.995 38.883 57.515 40.775 57.578 40.856C57.964 41.347 57.879 42.058 57.388 42.444C57.179 42.607 56.933 42.686 56.689 42.686Z" fill="#EAE4E5"/>
<path d="M43.898 48.129C43.566 48.129 43.238 47.984 43.015 47.705C42.96 47.638 41.964 46.472 39.919 46.261C39.298 46.197 38.846 45.641 38.91 45.02C38.974 44.399 39.527 43.946 40.151 44.011C43.204 44.326 44.724 46.218 44.787 46.299C45.173 46.79 45.088 47.501 44.597 47.887C44.389 48.05 44.143 48.129 43.898 48.129Z" fill="#EAE4E5"/>
<path d="M45.048 49.71C44.755 49.71 44.463 49.597 44.241 49.372C43.806 48.929 43.81 48.219 44.248 47.78C44.309 47.717 45.358 46.599 45.343 44.543C45.338 43.919 45.841 43.409 46.465 43.404C46.468 43.404 46.471 43.404 46.474 43.404C47.095 43.404 47.6 43.905 47.605 44.526C47.628 47.595 45.914 49.314 45.841 49.386C45.621 49.602 45.334 49.71 45.048 49.71Z" fill="white"/>
<path d="M38.497 43.452C38.204 43.452 37.912 43.339 37.69 43.114C37.255 42.671 37.259 41.96 37.697 41.522C37.758 41.459 38.807 40.342 38.792 38.286C38.787 37.661 39.29 37.151 39.914 37.147C39.917 37.147 39.92 37.147 39.923 37.147C40.544 37.147 41.049 37.648 41.054 38.269C41.077 41.338 39.363 43.057 39.29 43.129C39.069 43.345 38.783 43.452 38.497 43.452Z" fill="white"/>
<path d="M49.137 43.212C48.844 43.212 48.552 43.099 48.33 42.873C47.895 42.43 47.899 41.72 48.337 41.281C48.398 41.218 49.447 40.1 49.432 38.044C49.427 37.419 49.93 36.91 50.554 36.905C50.557 36.905 50.56 36.905 50.563 36.905C51.184 36.905 51.689 37.406 51.694 38.027C51.717 41.096 50.003 42.815 49.93 42.887C49.709 43.104 49.423 43.212 49.137 43.212Z" fill="white"/>
<path d="M48.953 42.079C48.922 42.079 48.892 42.078 48.861 42.075C45.802 41.827 44.241 39.968 44.176 39.889C43.779 39.407 43.849 38.694 44.332 38.298C44.812 37.903 45.519 37.97 45.917 38.445C45.972 38.509 46.993 39.655 49.045 39.821C49.667 39.871 50.131 40.417 50.081 41.039C50.031 41.631 49.536 42.079 48.953 42.079Z" fill="white"/>
<path d="M44.475 40.582C44.444 40.582 44.413 40.581 44.382 40.578C41.323 40.33 39.762 38.471 39.697 38.392C39.3 37.91 39.37 37.197 39.853 36.801C40.333 36.406 41.04 36.473 41.438 36.948C41.493 37.012 42.514 38.158 44.566 38.324C45.188 38.375 45.652 38.92 45.602 39.542C45.553 40.134 45.058 40.582 44.475 40.582Z" fill="white"/>
<path d="M54.883 43.396C54.726 43.396 54.567 43.363 54.415 43.294L50.512 41.517C49.944 41.258 49.693 40.588 49.951 40.019C50.21 39.451 50.881 39.2 51.449 39.458L55.352 41.235C55.92 41.494 56.171 42.164 55.913 42.733C55.723 43.15 55.313 43.396 54.883 43.396Z" fill="#D3C5C8"/>
<path d="M50.795 46.068C50.638 46.068 50.479 46.035 50.327 45.966L46.424 44.189C45.856 43.93 45.605 43.26 45.863 42.691C46.122 42.123 46.793 41.872 47.361 42.13L51.264 43.907C51.832 44.166 52.083 44.837 51.825 45.405C51.635 45.822 51.224 46.068 50.795 46.068Z" fill="#D3C5C8"/>
<path d="M49.096 47.362C48.939 47.362 48.78 47.329 48.628 47.26L44.725 45.483C44.157 45.224 43.906 44.554 44.164 43.985C44.423 43.417 45.094 43.166 45.662 43.424L49.565 45.201C50.133 45.46 50.384 46.13 50.126 46.699C49.936 47.116 49.526 47.362 49.096 47.362Z" fill="#D3C5C8"/>
<path d="M40.096 35.649C39.939 35.649 39.78 35.616 39.628 35.547L35.725 33.77C35.157 33.511 34.906 32.84 35.164 32.272C35.423 31.704 36.094 31.453 36.662 31.711L40.565 33.488C41.133 33.747 41.384 34.417 41.126 34.986C40.937 35.403 40.526 35.649 40.096 35.649Z" fill="#D3C5C8"/>
<path d="M45.868 43.591C45.431 43.591 45.015 43.336 44.83 42.91C44.223 41.51 42.222 41.788 42.137 41.801C41.523 41.892 40.945 41.469 40.851 40.855C40.756 40.24 41.173 39.665 41.787 39.567C44.787 39.089 46.415 40.879 46.906 42.011C47.154 42.584 46.891 43.25 46.318 43.498C46.171 43.561 46.018 43.591 45.868 43.591Z" fill="#EAE4E5"/>
<path d="M48.594 39.914C48.157 39.914 47.741 39.659 47.556 39.232C46.949 37.832 44.948 38.11 44.863 38.123C44.249 38.214 43.671 37.792 43.577 37.177C43.482 36.562 43.899 35.987 44.513 35.889C47.513 35.411 49.141 37.2 49.632 38.333C49.88 38.906 49.617 39.572 49.044 39.82C48.896 39.884 48.744 39.914 48.594 39.914Z" fill="#EAE4E5"/>
<path d="M77.699 123.993L38.91 146.388V45.021L77.699 22.626V55.828V74.814V106.245V123.993Z" fill="#A48465"/>
<path d="M38.909 146.388L0.119995 123.993V22.626L38.909 45.021V146.388ZM9.11301 50.422V73.21L26.806 83.425V60.637L9.11301 50.422Z" fill="#CDAD8A"/>
<path d="M0.119995 22.626L38.909 0.230988L77.698 22.626L38.909 45.021L0.119995 22.626ZM38.909 43.37L74.839 22.626L38.909 1.88199L2.979 22.626L38.909 43.37Z" fill="#F0CFA8"/>
<path d="M9.11301 73.21V50.422L26.806 60.637V83.425L9.11301 73.21Z" fill="#E3D7CA"/>
<path d="M26.807 81.159C28.056 81.88 29.072 83.483 29.072 84.732C29.072 85.981 28.056 86.411 26.807 85.689C25.558 84.968 24.542 83.365 24.542 82.116C24.541 80.868 25.557 80.438 26.807 81.159ZM26.807 79.682C24.74 78.488 23.064 79.197 23.064 81.264C23.064 83.331 24.74 85.975 26.807 87.168C28.874 88.362 30.55 87.653 30.55 85.586C30.55 83.519 28.874 80.875 26.807 79.682Z" fill="#917559"/>
<path d="M47.684 49.693C47.707 49.462 47.68 49.217 47.68 49.217C47.68 49.217 47.349 49.642 47.263 49.9C47.257 49.918 47.253 49.933 47.249 49.95C45.07 51.37 44.948 53.529 44.948 53.529L44.968 53.517C45.017 53.316 45.153 53.113 45.315 53.02C45.477 52.927 45.613 52.972 45.662 53.116L45.702 53.093C45.751 52.892 45.888 52.689 46.05 52.595C46.211 52.502 46.348 52.547 46.397 52.691L46.437 52.668C46.486 52.467 46.623 52.264 46.784 52.171C46.946 52.077 47.083 52.123 47.132 52.267L47.172 52.244C47.2 52.129 47.258 52.013 47.332 51.918V54.759C47.332 54.909 47.229 55.091 47.103 55.164C46.977 55.237 46.875 55.174 46.875 55.023V54.567C46.875 54.444 46.791 54.392 46.687 54.452C46.583 54.512 46.5 54.66 46.5 54.784V55.24C46.5 55.637 46.771 55.803 47.103 55.611C47.436 55.419 47.707 54.94 47.707 54.543V51.702C47.781 51.712 47.839 51.761 47.867 51.844L47.907 51.821C47.956 51.62 48.093 51.417 48.255 51.323C48.416 51.23 48.553 51.275 48.602 51.42L48.642 51.397C48.691 51.196 48.828 50.993 48.99 50.899C49.152 50.806 49.289 50.851 49.338 50.995L49.378 50.972C49.427 50.771 49.563 50.568 49.725 50.475C49.887 50.381 50.023 50.427 50.072 50.571L50.092 50.559C50.094 50.558 49.917 48.505 47.684 49.693Z" fill="#63503D"/>
<path d="M46.318 50.372C46.423 50.373 46.552 50.238 46.638 49.981C46.723 49.723 46.675 49.296 46.675 49.296C46.675 49.296 46.344 49.722 46.258 49.979C46.173 50.236 46.214 50.371 46.318 50.372Z" fill="#63503D"/>
<path d="M47.15 49.445C47.255 49.446 47.384 49.311 47.47 49.054C47.555 48.796 47.507 48.369 47.507 48.369C47.507 48.369 47.176 48.795 47.09 49.052C47.005 49.309 47.046 49.444 47.15 49.445Z" fill="#63503D"/>
<path d="M49.174 47.918C49.088 48.176 49.129 48.311 49.234 48.311C49.339 48.312 49.468 48.178 49.554 47.92C49.639 47.662 49.591 47.235 49.591 47.235C49.591 47.235 49.259 47.661 49.174 47.918Z" fill="#63503D"/>
<path d="M49.305 48.912C49.22 49.17 49.26 49.305 49.365 49.305C49.47 49.306 49.599 49.171 49.685 48.914C49.77 48.656 49.722 48.229 49.722 48.229C49.722 48.229 49.39 48.655 49.305 48.912Z" fill="#63503D"/>
<path d="M48.079 48.355C48.184 48.356 48.313 48.221 48.399 47.964C48.484 47.706 48.436 47.279 48.436 47.279C48.436 47.279 48.105 47.705 48.019 47.962C47.934 48.219 47.974 48.355 48.079 48.355Z" fill="#63503D"/>
<path d="M48.258 48.825C48.173 49.083 48.213 49.218 48.318 49.218C48.423 49.219 48.552 49.084 48.638 48.827C48.724 48.569 48.675 48.142 48.675 48.142C48.675 48.142 48.343 48.567 48.258 48.825Z" fill="#63503D"/>
<path d="M48.995 47.379C49.1 47.38 49.229 47.246 49.315 46.988C49.4 46.73 49.352 46.303 49.352 46.303C49.352 46.303 49.021 46.728 48.935 46.986C48.85 47.244 48.891 47.379 48.995 47.379Z" fill="#63503D"/>
<path d="M51.615 54.045L43.426 58.773C43.351 58.816 43.291 58.779 43.291 58.69V48.925C43.291 48.836 43.352 48.728 43.426 48.685L51.615 43.957C51.69 43.914 51.751 43.951 51.751 44.04V53.805C51.751 53.895 51.69 54.002 51.615 54.045ZM43.562 58.371L51.479 53.8V44.358L43.562 48.929V58.371Z" fill="#63503D"/>
<path d="M51.615 55.812L43.426 60.54C43.351 60.583 43.291 60.691 43.291 60.78V70.545C43.291 70.634 43.352 70.672 43.426 70.628L51.615 65.9C51.69 65.857 51.751 65.749 51.751 65.66V55.895C51.751 55.806 51.69 55.769 51.615 55.812ZM51.48 65.656L43.563 70.227V60.785L51.48 56.214V65.656Z" fill="#63503D"/>
<path d="M47.285 63.003V65.847L46.224 66.901L47.285 66.289L47.689 66.056L48.783 65.424L47.689 65.614V62.777C48.235 62.422 48.727 61.858 49.09 61.215C49.484 60.519 49.726 59.732 49.726 59.016L46.935 60.627L46.686 61.213L47.149 61.167L46.357 62.769L46.491 61.788L46.221 61.723L46.379 60.949L45.312 61.565C45.315 62.912 46.18 63.52 47.285 63.003Z" fill="#63503D"/>
<path d="M58.304 41.593L56.889 43.384L58.304 43.541L59.719 41.75L58.304 41.593Z" fill="#63503D"/>
<path d="M56.855 45.157L58.27 45.314V43.627L56.855 43.47V45.157Z" fill="#63503D"/>
<path d="M59.762 41.792L58.348 43.582V45.27L59.762 43.479V41.792Z" fill="#63503D"/>
<path d="M56.687 45.796C56.62 45.745 56.506 45.801 56.429 45.923C56.373 46.007 56.356 46.059 56.349 46.14C56.341 46.236 56.368 46.311 56.422 46.347L57.095 46.814C57.135 46.842 57.141 46.92 57.102 46.996C57.08 47.039 57.049 47.072 57.017 47.09C56.987 47.107 56.957 47.11 56.935 47.095L56.272 46.635C56.233 46.607 56.211 46.554 56.211 46.485V45.823C56.215 45.726 56.211 45.633 56.211 45.518V44.522C56.211 44.304 56.063 44.212 55.879 44.318C55.696 44.424 55.547 44.686 55.547 44.905V46.742C55.547 47.071 55.635 47.341 55.798 47.513L56.528 48.281C56.622 48.38 56.673 48.536 56.673 48.726V49.902L57.724 49.295V47.27C57.724 46.819 57.584 46.464 57.33 46.275L56.687 45.796Z" fill="#63503D"/>
<path d="M60.729 41.519C60.546 41.625 60.397 41.888 60.397 42.106V44.068C60.397 44.137 60.375 44.216 60.336 44.289L59.673 45.514C59.651 45.554 59.621 45.586 59.591 45.603C59.56 45.621 59.529 45.624 59.506 45.606C59.467 45.576 59.473 45.49 59.514 45.416L60.186 44.172C60.239 44.074 60.267 43.967 60.259 43.881C60.252 43.808 60.235 43.776 60.179 43.757C60.102 43.725 59.988 43.8 59.921 43.928L59.277 45.153C59.024 45.635 58.883 46.151 58.883 46.603V48.628L59.934 48.021V46.845C59.934 46.655 59.985 46.44 60.079 46.232L60.809 44.62C60.972 44.26 61.06 43.889 61.06 43.559V41.722C61.061 41.505 60.912 41.413 60.729 41.519Z" fill="#63503D"/>
<path d="M62.398 47.958L54.209 52.686C54.134 52.729 54.074 52.692 54.074 52.603V42.838C54.074 42.749 54.135 42.641 54.209 42.598L62.398 37.87C62.473 37.827 62.534 37.864 62.534 37.953V47.718C62.534 47.808 62.473 47.915 62.398 47.958ZM54.345 52.284L62.262 47.713V38.271L54.345 42.842V52.284Z" fill="#63503D"/>
<path d="M70.886 40.003V36.911L71.505 36.554L70.354 34.911L69.203 37.883L69.822 37.526V40.617L68.313 41.488V38.397L68.932 38.039L67.781 36.397L66.63 39.369L67.249 39.011V42.103L66.417 42.583V44.036L71.757 40.954V39.5L70.886 40.003Z" fill="#63503D"/>
<path d="M73.181 41.75L64.992 46.478C64.917 46.521 64.856 46.484 64.856 46.395V36.63C64.856 36.541 64.917 36.433 64.992 36.39L73.181 31.662C73.256 31.619 73.317 31.656 73.317 31.745V41.51C73.317 41.599 73.256 41.706 73.181 41.75ZM65.128 46.076L73.045 41.505V32.063L65.128 36.634V46.076Z" fill="#63503D"/>
<path d="M23.624 64.346C23.488 64.265 23.379 64.308 23.376 64.441C23.376 64.454 23.325 65.694 21.168 64.448C19.941 63.74 19.384 63.01 18.845 62.303C18.423 61.75 17.989 61.181 17.287 60.703C17.281 60.286 17.178 59.837 17.001 59.389C17.716 59.808 18.107 60.318 18.558 60.909C19.132 61.661 19.782 62.513 21.168 63.313C23.796 64.83 23.862 63.128 23.862 63.111C23.865 62.979 23.76 62.809 23.626 62.728C23.498 62.65 23.381 62.688 23.376 62.818C23.374 62.869 23.302 64.059 21.167 62.827C19.94 62.119 19.383 61.388 18.844 60.682C18.364 60.053 17.868 59.402 16.979 58.889C16.881 58.832 16.786 58.784 16.692 58.738C16.212 57.877 15.485 57.085 14.672 56.615C13.23 55.782 12.056 56.278 12.056 57.72C12.056 59.162 13.23 61.013 14.672 61.846C15.962 62.591 17.035 62.27 17.247 61.162C17.811 61.549 18.16 62.007 18.556 62.525C19.13 63.277 19.78 64.129 21.166 64.93C23.794 66.447 23.86 64.745 23.86 64.728C23.865 64.599 23.758 64.427 23.624 64.346ZM14.674 61.364C13.499 60.686 12.544 59.178 12.544 58.004C12.544 56.829 13.5 56.425 14.674 57.104C15.233 57.427 15.742 57.939 16.122 58.513C14.778 58.097 13.983 58.728 13.944 58.761C13.866 58.826 13.892 58.992 14.001 59.133C14.044 59.188 14.093 59.231 14.142 59.259C14.218 59.303 14.293 59.31 14.34 59.271C14.349 59.264 15.157 58.62 16.472 59.133C16.674 59.567 16.794 60.011 16.803 60.417C15.05 59.5 13.99 60.342 13.945 60.379C13.867 60.443 13.893 60.609 14.002 60.75C14.111 60.891 14.263 60.953 14.341 60.889C14.351 60.881 15.282 60.147 16.759 60.879C16.553 61.724 15.697 61.955 14.674 61.364Z" fill="#63503D"/>
<path d="M38.909 146.388L148.245 162.099L184.457 140.8L145.582 119.078L130.139 114.616L165.399 95.74L141.488 80.654L135.92 79.78V97.205L91.35 116.666V85.235L102.302 80.453L80.439 76.906V108.379L77.607 108.112L77.699 123.993L38.909 146.388Z" fill="#C2A49D"/>
</svg>
