<svg width="268" height="222" viewBox="0 0 268 222" fill="none" xmlns="http://www.w3.org/2000/svg">
<path d="M105.987 195.559L118.166 198.409L223.05 139.839L204.661 128.941L250.884 104.305L259.89 109.505L267.351 105.271L258.347 100.073L262.821 97.49L253.038 91.842L248.564 94.424L240.225 89.611L232.869 93.904L241.286 98.742L197.85 122.131L149.638 116.467V111.264L59.316 163.412V168.614L69.811 169.805L154.943 120.768L178.474 127.913L105.987 195.559Z" fill="#C2A49D"/>
<path d="M168.99 13.117L165.734 15.001V12.133L168.99 10.249V13.117Z" fill="#4D4D4D"/>
<path d="M165.734 15.001L148.401 4.99295V2.12695L165.734 12.133V15.001Z" fill="#666666"/>
<path d="M148.401 2.12698L151.658 0.242981L168.99 10.249L165.734 12.133L148.401 2.12698Z" fill="#999999"/>
<path d="M196.308 138.21L131.803 100.967L142.513 85.001L185.597 109.876L196.308 138.21Z" fill="#E29214"/>
<path d="M149.638 111.264V116.467L178.474 133.115V127.913L149.638 111.264Z" fill="#E29214"/>
<path d="M41.481 153.115L59.316 163.412L149.638 111.264L131.803 100.967L41.481 153.115Z" fill="url(#paint0_linear_120_5019)"/>
<path d="M55.288 155.439C58.149 157.09 62.784 157.09 65.643 155.439L81.177 146.472C84.036 144.821 84.036 142.144 81.177 140.493C78.318 138.843 73.681 138.843 70.822 140.493L55.288 149.461C52.429 151.112 52.429 153.789 55.288 155.439Z" fill="#504239"/>
<path d="M59.316 163.412V168.614L149.638 116.467V111.264L59.316 163.412Z" fill="#B36A4B"/>
<path d="M41.481 153.115V158.317L59.316 168.614V163.412L41.481 153.115Z" fill="#E29214"/>
<path d="M56.587 150.727L63.18 154.532C63.532 154.734 64.105 154.734 64.456 154.532C64.807 154.331 64.807 153.998 64.456 153.795L57.864 149.99C57.513 149.788 56.939 149.788 56.587 149.99C56.237 150.194 56.237 150.524 56.587 150.727Z" fill="#42372F"/>
<path d="M59.796 148.868L66.388 152.675C66.738 152.877 67.313 152.877 67.663 152.675C68.014 152.473 68.014 152.141 67.663 151.938L61.071 148.131C60.721 147.93 60.146 147.93 59.796 148.131C59.444 148.334 59.444 148.667 59.796 148.868Z" fill="#42372F"/>
<path d="M63.003 147.011L69.595 150.817C69.947 151.019 70.52 151.019 70.872 150.817C71.222 150.615 71.222 150.283 70.872 150.08L64.28 146.275C63.928 146.071 63.355 146.071 63.003 146.275C62.653 146.477 62.653 146.807 63.003 147.011Z" fill="#42372F"/>
<path d="M66.211 145.152L72.804 148.957C73.154 149.159 73.729 149.159 74.079 148.957C74.43 148.756 74.43 148.423 74.079 148.22L67.486 144.414C67.136 144.212 66.562 144.212 66.211 144.414C65.86 144.618 65.86 144.95 66.211 145.152Z" fill="#42372F"/>
<path d="M69.419 143.294L76.011 147.1C76.361 147.304 76.936 147.304 77.286 147.1C77.638 146.898 77.638 146.567 77.286 146.363L70.694 142.558C70.344 142.356 69.769 142.356 69.419 142.558C69.068 142.76 69.068 143.091 69.419 143.294Z" fill="#42372F"/>
<path d="M72.626 141.435L79.218 145.242C79.569 145.444 80.143 145.444 80.495 145.242C80.845 145.04 80.845 144.708 80.495 144.505L73.902 140.698C73.551 140.496 72.978 140.496 72.627 140.698C72.276 140.901 72.276 141.233 72.626 141.435Z" fill="#42372F"/>
<path d="M88.152 180.06L105.987 190.357L196.308 138.21L178.474 127.913L88.152 180.06Z" fill="url(#paint1_linear_120_5019)"/>
<path d="M101.959 182.385H101.96C104.819 184.036 109.455 184.036 112.314 182.385L127.848 173.417C130.707 171.767 130.707 169.09 127.848 167.439C124.989 165.789 120.351 165.788 117.492 167.438L101.959 176.406C99.1 178.057 99.1 180.735 101.959 182.385Z" fill="#504239"/>
<path d="M105.987 190.357V195.559L202.699 139.697V134.493L105.987 190.357Z" fill="#B36A4B"/>
<path d="M88.152 180.06V185.262L105.987 195.559V190.357L88.152 180.06Z" fill="#E29214"/>
<path d="M103.259 177.673L109.851 181.479C110.201 181.681 110.776 181.681 111.126 181.479C111.478 181.277 111.478 180.945 111.126 180.742L104.533 176.937C104.183 176.733 103.608 176.733 103.259 176.937C102.908 177.139 102.908 177.469 103.259 177.673Z" fill="#42372F"/>
<path d="M106.466 175.814L113.058 179.62C113.41 179.822 113.983 179.822 114.334 179.62C114.685 179.419 114.685 179.086 114.334 178.883L107.742 175.077C107.392 174.875 106.817 174.875 106.466 175.077C106.115 175.28 106.115 175.612 106.466 175.814Z" fill="#42372F"/>
<path d="M109.674 173.957L116.266 177.761C116.617 177.963 117.191 177.963 117.543 177.761C117.893 177.559 117.893 177.227 117.543 177.024L110.951 173.22C110.6 173.016 110.026 173.016 109.674 173.22C109.324 173.421 109.324 173.753 109.674 173.957Z" fill="#42372F"/>
<path d="M112.881 172.097L119.474 175.904C119.824 176.106 120.399 176.106 120.749 175.904C121.1 175.702 121.1 175.37 120.749 175.167L114.156 171.36C113.806 171.158 113.231 171.158 112.881 171.36C112.53 171.563 112.53 171.895 112.881 172.097Z" fill="#42372F"/>
<path d="M116.089 170.24L122.682 174.044C123.034 174.248 123.606 174.248 123.958 174.044C124.308 173.843 124.308 173.511 123.958 173.307L117.366 169.503C117.015 169.301 116.441 169.301 116.089 169.503C115.738 169.706 115.738 170.037 116.089 170.24Z" fill="#42372F"/>
<path d="M119.297 168.38L125.889 172.187C126.241 172.389 126.814 172.389 127.166 172.187C127.516 171.985 127.516 171.653 127.166 171.45L120.574 167.644C120.223 167.442 119.649 167.442 119.297 167.644C118.947 167.846 118.947 168.179 119.297 168.38Z" fill="#42372F"/>
<path d="M202.699 134.493L191.989 106.159L185.597 109.876L196.308 138.21L202.699 134.493Z" fill="#B36A4B"/>
<path d="M148.905 81.285L142.513 85.001L185.597 109.876L191.989 106.159L148.905 81.285Z" fill="#FBB03B"/>
<path d="M165.366 97.926L179.798 99.121L173.599 95.507L165.366 97.926Z" fill="#C2A49D"/>
<path d="M173.599 8.31H173.572C173.461 8.924 173.001 9.52 172.187 9.991C170.304 11.079 167.249 11.079 165.366 9.991C164.552 9.521 164.091 8.925 163.981 8.31H163.954V95.507C163.896 96.433 164.225 97.268 165.366 97.926C167.249 99.013 170.304 99.013 172.187 97.926C173.328 97.267 173.657 96.452 173.599 95.507V8.31Z" fill="#4D4D4D"/>
<path d="M172.187 6.05298C174.07 7.14098 174.07 8.90398 172.187 9.99098C170.304 11.079 167.249 11.079 165.366 9.99098C163.483 8.90398 163.483 7.14098 165.366 6.05298C167.249 4.96598 170.304 4.96598 172.187 6.05298Z" fill="#666666"/>
<path d="M190.704 25.593L187.446 27.478V24.61L190.704 22.726V25.593Z" fill="#4D4D4D"/>
<path d="M187.446 27.478L170.115 17.47V14.603L187.446 24.61V27.478Z" fill="#666666"/>
<path d="M170.115 14.603L173.372 12.72L190.704 22.726L187.446 24.61L170.115 14.603Z" fill="#999999"/>
<path d="M149.638 111.264L159.626 122.19L149.638 116.467V111.264Z" fill="#C2A49D"/>
<path d="M0.735001 155.457L107.648 217.182L115.47 212.668L8.557 150.941L0.735001 155.457Z" fill="#C69C6D"/>
<path d="M107.648 219.724V217.182L115.47 212.668V215.209L107.648 219.724Z" fill="#A67C52"/>
<path d="M107.648 219.724L105.643 218.567V209.347L107.648 210.504V219.724Z" fill="#B08B61"/>
<path d="M105.643 209.347L107.648 210.504L206.263 153.568L204.258 152.411L105.643 209.347Z" fill="#C69C6D"/>
<path d="M107.648 210.504V219.724L115.47 215.209L116.468 210.423L131.7 201.63L132.697 205.262L182.817 176.326L183.813 171.54L199.048 162.746L200.045 166.379L206.263 162.79V153.568L107.648 210.504Z" fill="#A67C52"/>
<path d="M2.738 159.156L0.735001 157.999V148.778L2.738 149.937V159.156Z" fill="#B08B61"/>
<path d="M0.735001 148.778L2.738 149.937L101.355 93.001L99.35 91.844L0.735001 148.778Z" fill="#C69C6D"/>
<path d="M2.73801 149.937V159.156L10.562 154.64L11.558 149.856L26.792 141.06L27.789 144.694L77.909 115.756L78.905 110.973L94.139 102.177L95.136 105.811L101.355 102.22V93.001L2.73801 149.937Z" fill="#A67C52"/>
<path d="M2.73801 149.937V159.156L17.784 158.306L111.655 107.534L101.355 93.001L86.176 101.764L79.237 105.77L69.489 111.399L62.55 115.404L52.802 121.033L45.863 125.038L36.113 130.667L33.198 132.421L29.176 134.673L19.426 140.301L15.413 142.498L12.489 144.308L2.73801 149.937Z" fill="#A1A4A8"/>
<path d="M54.465 188.952L52.461 187.796V178.574L54.465 179.732V188.952Z" fill="#B08B61"/>
<path d="M52.461 178.574L54.465 179.732L153.08 122.796L151.076 121.638L52.461 178.574Z" fill="#C69C6D"/>
<path d="M54.465 179.732V188.952L62.287 184.436L63.284 179.65L78.517 170.857L79.514 174.489L129.635 145.553L130.631 140.768L145.864 131.973L146.862 135.607L153.08 132.017V122.796L54.465 179.732Z" fill="#A67C52"/>
<path d="M0.735001 146.236L107.648 207.962L117.965 202.006L11.052 140.28L0.735001 146.236Z" fill="#C69C6D"/>
<path d="M107.648 210.504V207.962L117.965 202.006V204.548L107.648 210.504Z" fill="#A67C52"/>
<path d="M0.735001 148.778V146.236L107.648 207.962V210.504L0.735001 148.778Z" fill="#B08B61"/>
<path d="M18.395 136.04L125.307 197.767L135.624 191.81L28.712 130.083L18.395 136.04Z" fill="#C69C6D"/>
<path d="M125.307 200.309V197.767L135.624 191.81V194.352L125.307 200.309Z" fill="#A67C52"/>
<path d="M18.395 138.583V136.04L125.307 197.767V200.309L18.395 138.583Z" fill="#B08B61"/>
<path d="M36.054 125.844L142.967 187.571L153.284 181.615L46.372 119.888L36.054 125.844Z" fill="#C69C6D"/>
<path d="M142.967 190.113V187.571L153.284 181.615V184.157L142.967 190.113Z" fill="#A67C52"/>
<path d="M36.054 128.386V125.844L142.967 187.571V190.113L36.054 128.386Z" fill="#B08B61"/>
<path d="M53.714 115.649L160.626 177.376L170.944 171.419L64.031 109.693L53.714 115.649Z" fill="#C69C6D"/>
<path d="M160.626 179.918V177.376L170.944 171.419V173.961L160.626 179.918Z" fill="#A67C52"/>
<path d="M53.714 118.191V115.649L160.626 177.376V179.918L53.714 118.191Z" fill="#B08B61"/>
<path d="M71.374 105.454L178.286 167.18L188.603 161.224L81.691 99.4969L71.374 105.454Z" fill="#C69C6D"/>
<path d="M178.286 169.722V167.18L188.603 161.224V163.766L178.286 169.722Z" fill="#A67C52"/>
<path d="M71.374 107.996V105.454L178.286 167.18V169.722L71.374 107.996Z" fill="#B08B61"/>
<path d="M89.033 95.258L195.946 156.984L206.263 151.026L99.35 89.302L89.033 95.258Z" fill="#C69C6D"/>
<path d="M195.946 159.526V156.984L206.263 151.026V153.568L195.946 159.526Z" fill="#A67C52"/>
<path d="M89.033 97.8V95.258L195.946 156.984V159.526L89.033 97.8Z" fill="#B08B61"/>
<path d="M0.735001 157.999V155.457L107.648 217.182V219.724L0.735001 157.999Z" fill="#B08B61"/>
<path d="M107.648 207.962V219.724L118.759 221.737L217.163 166.409L206.263 151.026L195.946 156.984V159.526L188.603 163.766V161.224L178.286 167.18V169.722L170.944 173.961V171.419L160.626 177.376V179.918L153.284 184.157V181.615L142.967 187.571V190.113L135.624 194.352V191.81L125.307 197.767V200.309L117.965 204.548V202.006L107.648 207.962Z" fill="#A1A4A8"/>
<path d="M58.692 151.682L89.271 156.387L151.093 118.847L122.762 102.69L116.502 101.368L58.692 151.682Z" fill="#C2A49D"/>
<path d="M58.693 62.822V151.683L47.017 144.938L40.726 141.31L26.974 133.367V44.506L40.726 52.443V52.449L47.017 56.077L58.693 62.822Z" fill="#CDAD8A"/>
<path d="M119.85 116.373L58.692 151.682V62.8199L119.85 27.5099V116.373Z" fill="#A48465"/>
<path d="M119.852 27.509L58.693 62.822L47.017 56.077L40.72 52.443L26.974 44.506L88.127 9.19897L101.879 17.136L108.176 20.77L119.852 27.509Z" fill="#F0CFA8"/>
<path d="M106.767 19.825L45.607 55.132L39.31 51.498L100.47 16.191L106.767 19.825Z" fill="#F0DCC5"/>
<path d="M41.11 40.114C41.001 40.034 40.835 39.958 40.835 39.958C40.835 39.958 40.761 40.155 40.826 40.254C40.83 40.261 40.836 40.267 40.841 40.273C39.566 41.115 40.679 41.846 40.679 41.846L40.692 41.839C40.624 41.765 40.639 41.674 40.741 41.616C40.843 41.557 40.999 41.549 41.128 41.588L41.153 41.573C41.085 41.499 41.101 41.408 41.202 41.349C41.303 41.291 41.46 41.282 41.589 41.321L41.614 41.306C41.546 41.232 41.562 41.141 41.663 41.083C41.765 41.024 41.921 41.016 42.05 41.055L42.075 41.04C42.036 40.997 42.025 40.949 42.042 40.905L43.659 41.839C43.744 41.888 43.75 41.966 43.671 42.011C43.592 42.057 43.458 42.054 43.372 42.004L43.113 41.854C43.043 41.813 42.933 41.811 42.868 41.848C42.803 41.885 42.807 41.949 42.878 41.989L43.137 42.139C43.363 42.269 43.716 42.278 43.925 42.157C44.134 42.037 44.12 41.832 43.894 41.702L42.277 40.768C42.353 40.759 42.436 40.765 42.51 40.787L42.535 40.772C42.467 40.698 42.483 40.607 42.584 40.548C42.685 40.49 42.842 40.481 42.971 40.52L42.996 40.506C42.929 40.431 42.944 40.341 43.045 40.283C43.146 40.225 43.303 40.216 43.432 40.255L43.457 40.24C43.389 40.166 43.404 40.075 43.506 40.017C43.608 39.958 43.764 39.95 43.893 39.989L43.906 39.982C43.906 39.982 42.568 39.338 41.11 40.114Z" fill="#7F6B59"/>
<path d="M40.191 40.5719C40.292 40.5539 40.339 40.4879 40.274 40.3879C40.209 40.2879 39.919 40.1559 39.919 40.1559C39.919 40.1559 39.845 40.353 39.91 40.452C39.975 40.553 40.091 40.5899 40.191 40.5719Z" fill="#7F6B59"/>
<path d="M40.459 40.1239C40.56 40.1059 40.607 40.0399 40.542 39.9399C40.477 39.8409 40.187 39.7079 40.187 39.7079C40.187 39.7079 40.113 39.9049 40.178 40.0039C40.243 40.1049 40.358 40.1419 40.459 40.1239Z" fill="#7F6B59"/>
<path d="M41.524 39.2739C41.589 39.3729 41.704 39.4109 41.805 39.3929C41.905 39.3749 41.953 39.3089 41.888 39.2089C41.823 39.1099 41.533 38.9769 41.533 38.9769C41.533 38.9769 41.459 39.1739 41.524 39.2739Z" fill="#7F6B59"/>
<path d="M42.214 39.5779C42.279 39.6769 42.395 39.7149 42.495 39.6969C42.596 39.6789 42.643 39.6129 42.578 39.5129C42.513 39.4139 42.223 39.2809 42.223 39.2809C42.223 39.2809 42.149 39.4789 42.214 39.5779Z" fill="#7F6B59"/>
<path d="M40.726 39.6059C40.827 39.5879 40.874 39.5219 40.809 39.4219C40.744 39.3229 40.454 39.1899 40.454 39.1899C40.454 39.1899 40.38 39.3869 40.445 39.4859C40.51 39.5859 40.626 39.6239 40.726 39.6059Z" fill="#7F6B59"/>
<path d="M41.164 39.7289C41.229 39.8279 41.344 39.8659 41.445 39.8479C41.546 39.8299 41.593 39.7639 41.528 39.6639C41.463 39.5639 41.173 39.4319 41.173 39.4319C41.173 39.4319 41.099 39.6299 41.164 39.7289Z" fill="#7F6B59"/>
<path d="M41.047 39.1269C41.148 39.1089 41.195 39.0429 41.13 38.9429C41.065 38.8429 40.775 38.7109 40.775 38.7109C40.775 38.7109 40.701 38.9079 40.766 39.0069C40.83 39.1079 40.946 39.1449 41.047 39.1269Z" fill="#7F6B59"/>
<path d="M47.345 40.867L42.21 43.832C42.163 43.859 42.084 43.857 42.033 43.828L36.474 40.619C36.423 40.59 36.42 40.544 36.467 40.517L41.603 37.552C41.65 37.525 41.729 37.527 41.78 37.556L47.339 40.765C47.389 40.794 47.392 40.84 47.345 40.867ZM42.11 43.676L47.075 40.809L41.7 37.706L36.735 40.573L42.11 43.676Z" fill="#7F6B59"/>
<path d="M34.796 41.449L29.66 44.414C29.613 44.441 29.616 44.487 29.667 44.516L35.226 47.725C35.277 47.754 35.356 47.756 35.403 47.729L40.539 44.764C40.586 44.737 40.583 44.691 40.532 44.662L34.973 41.453C34.922 41.424 34.842 41.422 34.796 41.449ZM40.269 44.708L35.304 47.575L29.929 44.472L34.894 41.605L40.269 44.708Z" fill="#7F6B59"/>
<path d="M34.75 44.559L36.369 45.493L35.955 46.022L36.62 45.638L36.874 45.492L37.561 45.096L36.623 45.347L35.008 44.414C35.328 44.203 35.477 43.933 35.458 43.659C35.438 43.363 35.222 43.062 34.814 42.827L33.064 43.838L33.16 44.073L33.576 43.978L33.731 44.641L33.301 44.295L33.006 44.32L32.716 44.038L32.047 44.424C32.815 44.868 33.988 44.919 34.75 44.559Z" fill="#7F6B59"/>
<path d="M46.65 35.621L46.317 36.454L47.759 36.262L48.091 35.429L46.65 35.621Z" fill="#7F6B59"/>
<path d="M47.294 37.042L48.736 36.85L47.775 36.296L46.334 36.488L47.294 37.042Z" fill="#7F6B59"/>
<path d="M48.157 35.4349L47.824 36.2679L48.784 36.8219L49.117 35.9899L48.157 35.4349Z" fill="#7F6B59"/>
<path d="M47.496 37.2809C47.403 37.2759 47.326 37.3139 47.322 37.3669C47.316 37.4039 47.329 37.4239 47.369 37.4519C47.416 37.4849 47.485 37.5049 47.557 37.5079L48.466 37.5459C48.52 37.5479 48.571 37.5729 48.577 37.6039C48.58 37.6219 48.57 37.6379 48.55 37.6499C48.531 37.6609 48.504 37.6669 48.475 37.6659L47.58 37.6289C47.527 37.6269 47.475 37.6129 47.436 37.5899L47.059 37.3719C47.008 37.3389 46.951 37.3099 46.885 37.2719L46.318 36.9449C46.194 36.8729 46 36.8689 45.885 36.9349C45.77 37.0009 45.778 37.1129 45.902 37.1849L46.948 37.7889C47.136 37.8969 47.373 37.9709 47.627 37.9989L48.762 38.1259C48.908 38.1419 49.046 38.1849 49.154 38.2469L49.823 38.6329L50.482 38.2519L49.329 37.5859C49.072 37.4379 48.736 37.3449 48.386 37.3269L47.496 37.2809Z" fill="#7F6B59"/>
<path d="M48.925 35.1789C48.81 35.2449 48.818 35.3569 48.942 35.4289L50.059 36.0739C50.098 36.0969 50.122 36.1259 50.126 36.1569L50.19 36.674C50.192 36.691 50.181 36.7069 50.163 36.7169C50.143 36.7279 50.115 36.7349 50.084 36.7329C50.03 36.7299 49.987 36.7009 49.983 36.6689L49.918 36.1439C49.913 36.1029 49.879 36.0629 49.822 36.0359C49.774 36.0129 49.739 36.0059 49.675 36.0089C49.583 36.0119 49.517 36.0559 49.526 36.1099L49.608 36.6229C49.64 36.8249 49.8 37.0189 50.057 37.1669L51.21 37.8329L51.869 37.452L51.199 37.0659C51.091 37.0029 51.017 36.9239 50.989 36.8389L50.769 36.1839C50.72 36.0379 50.592 35.8999 50.405 35.7919L49.359 35.188C49.234 35.117 49.04 35.1129 48.925 35.1789Z" fill="#7F6B59"/>
<path d="M54.187 37.008L49.051 39.9729C49.004 39.9999 48.925 39.998 48.874 39.969L43.315 36.76C43.264 36.731 43.261 36.6849 43.308 36.6579L48.444 33.693C48.491 33.666 48.57 33.6679 48.621 33.6969L54.18 36.9059C54.23 36.9349 54.233 36.981 54.187 37.008ZM48.952 39.817L53.917 36.9499L48.543 33.8469L43.578 36.7139L48.952 39.817Z" fill="#7F6B59"/>
<path d="M57.771 32.9299L56.011 31.9139L56.399 31.6899L54.364 31.3489L54.955 32.5239L55.344 32.2999L57.103 33.3159L56.157 33.8619L54.397 32.8459L54.785 32.6219L52.75 32.2809L53.342 33.4549L53.73 33.2309L55.49 34.2469L54.968 34.5489L55.795 35.0259L59.144 33.0929L58.317 32.6149L57.771 32.9299Z" fill="#7F6B59"/>
<path d="M60.959 33.109L55.823 36.074C55.776 36.101 55.697 36.099 55.646 36.07L50.087 32.861C50.036 32.832 50.033 32.786 50.08 32.759L55.215 29.794C55.262 29.767 55.341 29.769 55.392 29.798L60.951 33.007C61.003 33.036 61.006 33.082 60.959 33.109ZM55.724 35.919L60.689 33.052L55.315 29.949L50.35 32.816L55.724 35.919Z" fill="#7F6B59"/>
<path d="M103.085 18.272C102.888 18.158 102.569 18.158 102.372 18.271C87.999 26.499 56.057 45.047 42.991 52.639C42.795 52.753 42.795 52.937 42.992 53.051L42.993 53.052C43.191 53.166 43.511 53.165 43.707 53.051C56.772 45.459 88.712 26.913 103.083 18.686C103.281 18.573 103.283 18.388 103.086 18.274C103.086 18.272 103.085 18.272 103.085 18.272Z" fill="#E6D3BD"/>
<path d="M27.487 45.582L58.201 63.315C58.28 63.36 58.344 63.333 58.344 63.255C58.344 63.176 58.28 63.075 58.201 63.029L27.487 45.296C27.408 45.25 27.344 45.278 27.344 45.356C27.344 45.435 27.409 45.536 27.487 45.582Z" fill="#B29778"/>
<path d="M45.607 55.132V143.993L39.316 140.364V51.498L45.607 55.132Z" fill="#E0C5A4"/>
<path d="M94.439 53.246L86.54 57.807C85.22 58.569 84.149 58.117 84.149 56.797C84.149 55.477 85.219 53.789 86.54 53.026L94.439 48.465C95.759 47.703 96.83 48.155 96.83 49.475C96.829 50.796 95.759 52.484 94.439 53.246Z" fill="#63503D"/>
<path d="M83.279 89.562L63.547 100.954V89.631L83.279 78.239V89.562Z" fill="#C5B9AB"/>
<path d="M78.811 70.798L65.651 78.396V77.121L78.811 69.523V70.798Z" fill="#63503D"/>
<path d="M78.811 72.756L65.651 80.354V79.716L78.811 72.119V72.756Z" fill="#63503D"/>
<path d="M78.811 73.871L65.651 81.469V80.832L78.811 73.234V73.871Z" fill="#63503D"/>
<path d="M78.811 74.987L65.651 82.585V81.947L78.811 74.349V74.987Z" fill="#63503D"/>
<path d="M75.164 78.208L65.651 83.7V83.062L75.164 77.571V78.208Z" fill="#63503D"/>
<path d="M83.279 87.814C84.262 87.246 85.062 87.584 85.062 88.567C85.062 89.55 84.262 90.812 83.279 91.379C82.296 91.947 81.496 91.609 81.496 90.626C81.496 89.643 82.296 88.381 83.279 87.814ZM83.279 86.651C81.652 87.59 80.333 89.671 80.333 91.297C80.333 92.924 81.652 93.481 83.279 92.542C84.906 91.603 86.225 89.522 86.225 87.896C86.225 86.269 84.906 85.712 83.279 86.651Z" fill="#917559"/>
<path d="M94.096 190.833L121.514 195.051L203.829 148.226L172.891 130.582L165.192 128.955L94.096 190.833Z" fill="#C2A49D"/>
<path d="M94.096 149.815V190.833L46.785 163.519V122.501L94.096 149.815Z" fill="#CDAD8A"/>
<path d="M170.642 146.638L94.095 190.833V149.814L170.642 105.619V146.638Z" fill="#A48465"/>
<path d="M170.641 105.619L99.089 146.932L94.096 149.815L46.79 122.501L51.782 119.617L123.335 78.304L170.641 105.619Z" fill="#F0CFA8"/>
<path d="M94.096 154.809V149.815L170.642 105.619V110.613L94.096 154.809Z" fill="#BB9673"/>
<path d="M94.096 149.815L89.102 146.932L165.645 102.737L170.639 105.62L94.096 149.815Z" fill="#F0DCC5"/>
<path d="M51.779 125.384L46.785 122.501L123.328 78.306L128.322 81.189L51.779 125.384Z" fill="#F0DCC5"/>
<path d="M99.089 146.932L94.096 149.815L46.79 122.501L51.782 119.617L99.089 146.932Z" fill="#F0DCC5"/>
<path d="M170.642 105.619L165.65 108.503L118.343 81.188L123.335 78.305L170.642 105.619Z" fill="#F0DCC5"/>
<path d="M94.096 149.815V154.808L46.785 127.493V122.501L94.096 149.815Z" fill="#E0C5A4"/>
<path d="M170.133 107.14L94.749 150.629C94.653 150.684 94.576 150.651 94.576 150.556C94.576 150.461 94.653 150.338 94.749 150.283L170.133 106.794C170.228 106.739 170.306 106.772 170.306 106.867C170.306 106.962 170.228 107.085 170.133 107.14Z" fill="#A48465"/>
<path d="M75.137 148.934C75.152 148.801 75.134 148.621 75.134 148.621C75.134 148.621 74.918 148.649 74.862 148.753C74.858 148.76 74.856 148.767 74.853 148.775C73.432 148.06 73.352 149.376 73.352 149.376L73.365 149.384C73.397 149.29 73.486 149.26 73.592 149.321C73.698 149.382 73.786 149.514 73.818 149.645L73.844 149.66C73.876 149.566 73.965 149.536 74.071 149.597C74.176 149.658 74.266 149.79 74.297 149.921L74.323 149.936C74.355 149.842 74.444 149.812 74.549 149.873C74.655 149.934 74.744 150.067 74.776 150.198L74.802 150.213C74.82 150.159 74.858 150.127 74.906 150.12V151.973C74.906 152.071 74.839 152.112 74.757 152.065C74.675 152.018 74.608 151.899 74.608 151.801V151.504C74.608 151.424 74.553 151.327 74.486 151.288C74.419 151.249 74.364 151.283 74.364 151.363V151.66C74.364 151.919 74.541 152.231 74.758 152.356C74.975 152.481 75.152 152.373 75.152 152.114V150.261C75.2 150.323 75.238 150.399 75.256 150.474L75.282 150.489C75.314 150.395 75.403 150.365 75.509 150.426C75.614 150.487 75.704 150.619 75.735 150.75L75.761 150.765C75.793 150.671 75.882 150.641 75.988 150.702C76.094 150.763 76.183 150.896 76.215 151.027L76.241 151.042C76.273 150.948 76.362 150.918 76.467 150.979C76.573 151.04 76.662 151.172 76.693 151.303L76.706 151.311C76.709 151.313 76.593 149.841 75.137 148.934Z" fill="#7F6B59"/>
<path d="M74.246 148.348C74.314 148.427 74.399 148.437 74.455 148.334C74.511 148.23 74.479 147.915 74.479 147.915C74.479 147.915 74.263 147.943 74.207 148.047C74.152 148.151 74.178 148.269 74.246 148.348Z" fill="#7F6B59"/>
<path d="M74.789 148.37C74.857 148.449 74.942 148.459 74.998 148.356C75.054 148.252 75.022 147.937 75.022 147.937C75.022 147.937 74.806 147.965 74.75 148.069C74.694 148.173 74.721 148.291 74.789 148.37Z" fill="#7F6B59"/>
<path d="M76.109 148.898C76.053 149.002 76.08 149.12 76.148 149.199C76.216 149.278 76.301 149.288 76.357 149.185C76.413 149.081 76.381 148.766 76.381 148.766C76.381 148.766 76.164 148.795 76.109 148.898Z" fill="#7F6B59"/>
<path d="M76.194 149.645C76.138 149.749 76.165 149.867 76.233 149.946C76.301 150.025 76.386 150.035 76.442 149.932C76.498 149.828 76.466 149.513 76.466 149.513C76.466 149.513 76.249 149.541 76.194 149.645Z" fill="#7F6B59"/>
<path d="M75.395 148.359C75.463 148.438 75.548 148.448 75.604 148.345C75.66 148.241 75.628 147.926 75.628 147.926C75.628 147.926 75.412 147.954 75.356 148.058C75.3 148.161 75.326 148.28 75.395 148.359Z" fill="#7F6B59"/>
<path d="M75.511 148.799C75.455 148.903 75.482 149.021 75.55 149.101C75.618 149.18 75.703 149.19 75.759 149.087C75.815 148.983 75.783 148.668 75.783 148.668C75.783 148.668 75.567 148.696 75.511 148.799Z" fill="#7F6B59"/>
<path d="M75.992 148.413C76.06 148.492 76.145 148.503 76.201 148.399C76.257 148.295 76.225 147.98 76.225 147.98C76.225 147.98 76.009 148.008 75.953 148.112C75.897 148.215 75.924 148.333 75.992 148.413Z" fill="#7F6B59"/>
<path d="M77.701 154.733L72.361 151.65C72.312 151.622 72.273 151.552 72.273 151.494V145.125C72.273 145.067 72.313 145.042 72.361 145.071L77.701 148.154C77.75 148.182 77.789 148.252 77.789 148.311V154.679C77.789 154.737 77.75 154.761 77.701 154.733ZM72.449 151.49L77.613 154.471V148.313L72.449 145.332V151.49Z" fill="#7F6B59"/>
<path d="M77.701 155.885L72.361 152.802C72.312 152.774 72.273 152.798 72.273 152.856V159.225C72.273 159.283 72.313 159.353 72.361 159.382L77.701 162.465C77.75 162.493 77.789 162.469 77.789 162.41V156.041C77.789 155.983 77.75 155.913 77.701 155.885ZM77.612 162.203L72.448 159.222V153.064L77.612 156.045V162.203Z" fill="#7F6B59"/>
<path d="M74.877 157.314V159.168L74.185 159.057L74.877 159.457L75.141 159.609L75.855 160.021L75.141 159.321V157.471C75.497 157.651 75.818 157.653 76.055 157.507C76.312 157.35 76.47 157.019 76.47 156.552L74.65 155.501L74.488 155.696L74.79 156.014L74.274 156.462L74.362 155.923L74.186 155.678L74.289 155.292L73.593 154.89C73.592 155.771 74.156 156.819 74.877 157.314Z" fill="#7F6B59"/>
<path d="M82.063 151.649L81.14 151.751L82.063 152.919L82.986 152.817L82.063 151.649Z" fill="#7F6B59"/>
<path d="M81.118 152.882L82.041 154.05V152.95L81.118 151.782V152.882Z" fill="#7F6B59"/>
<path d="M83.014 152.876L82.091 152.979V154.079L83.014 153.977V152.876Z" fill="#7F6B59"/>
<path d="M81.008 153.172C80.964 153.088 80.89 153.039 80.84 153.06C80.803 153.073 80.792 153.094 80.788 153.141C80.783 153.197 80.801 153.267 80.835 153.331L81.274 154.142C81.3 154.19 81.304 154.246 81.279 154.266C81.264 154.277 81.244 154.276 81.224 154.264C81.204 154.253 81.185 154.232 81.171 154.206L80.739 153.407C80.713 153.359 80.699 153.308 80.699 153.263V152.831C80.702 152.771 80.699 152.707 80.699 152.632V151.983C80.699 151.84 80.602 151.669 80.483 151.6C80.364 151.531 80.267 151.591 80.267 151.733V152.931C80.267 153.146 80.324 153.388 80.431 153.623L80.907 154.674C80.968 154.81 81.001 154.95 81.001 155.074V155.841L81.687 156.237V154.916C81.687 154.622 81.596 154.285 81.43 153.971L81.008 153.172Z" fill="#7F6B59"/>
<path d="M83.644 153.427C83.525 153.358 83.428 153.418 83.428 153.56V154.84C83.428 154.885 83.414 154.92 83.388 154.938L82.956 155.238C82.942 155.248 82.922 155.246 82.903 155.235C82.883 155.223 82.862 155.202 82.848 155.173C82.823 155.124 82.827 155.072 82.853 155.055L83.292 154.75C83.327 154.726 83.345 154.677 83.339 154.615C83.335 154.562 83.323 154.528 83.287 154.474C83.237 154.395 83.163 154.358 83.119 154.391L82.699 154.705C82.534 154.829 82.442 155.06 82.442 155.354V156.675L83.127 157.071V156.304C83.127 156.18 83.16 156.078 83.222 156.013L83.698 155.512C83.804 155.4 83.862 155.224 83.862 155.009V153.811C83.861 153.667 83.764 153.496 83.644 153.427Z" fill="#7F6B59"/>
<path d="M84.733 158.883L79.393 155.8C79.344 155.772 79.305 155.702 79.305 155.643V149.275C79.305 149.217 79.345 149.192 79.393 149.221L84.733 152.304C84.782 152.332 84.821 152.402 84.821 152.461V158.829C84.821 158.887 84.782 158.911 84.733 158.883ZM79.481 155.64L84.645 158.621V152.463L79.481 149.482V155.64Z" fill="#7F6B59"/>
<path d="M90.269 160.087V158.071L90.673 158.304L89.922 156.366L89.171 157.437L89.575 157.67V159.686L88.591 159.118V157.102L88.994 157.335L88.244 155.397L87.493 156.468L87.897 156.701V158.717L87.354 158.404V159.352L90.836 161.363V160.415L90.269 160.087Z" fill="#7F6B59"/>
<path d="M91.766 162.954L86.426 159.871C86.377 159.843 86.338 159.773 86.338 159.714V153.346C86.338 153.288 86.378 153.263 86.426 153.292L91.766 156.375C91.815 156.403 91.854 156.473 91.854 156.532V162.901C91.854 162.958 91.814 162.983 91.766 162.954ZM86.514 159.711L91.678 162.692V156.534L86.514 153.553V159.711Z" fill="#7F6B59"/>
<path d="M160.71 132.923C160.55 133.012 160.421 133.212 160.418 133.372C160.418 133.387 160.358 134.918 157.815 136.386C156.369 137.221 155.712 137.118 155.078 137.019C154.581 136.942 154.069 136.862 153.242 137.254C153.235 136.771 153.114 136.382 152.905 136.095C153.748 135.615 154.209 135.685 154.74 135.768C155.416 135.874 156.182 135.993 157.816 135.05C160.912 133.262 160.99 131.167 160.991 131.146C160.994 130.987 160.87 130.93 160.713 131.016C160.563 131.098 160.425 131.302 160.419 131.462C160.417 131.525 160.331 133.026 157.816 134.478C156.37 135.313 155.713 135.21 155.079 135.111C154.513 135.022 153.928 134.931 152.881 135.535C152.766 135.602 152.654 135.674 152.543 135.747C151.977 135.386 151.12 135.442 150.162 135.995C148.462 136.976 147.079 139.158 147.079 140.858C147.079 142.558 148.462 143.142 150.162 142.161C151.683 141.283 152.946 139.446 153.197 137.851C153.862 137.54 154.274 137.603 154.74 137.676C155.416 137.781 156.182 137.901 157.816 136.958C160.912 135.17 160.99 133.075 160.991 133.054C160.993 132.894 160.868 132.836 160.71 132.923ZM150.162 141.589C148.778 142.388 147.651 141.912 147.651 140.528C147.651 139.144 148.777 137.367 150.162 136.568C150.821 136.187 151.42 136.099 151.869 136.257C150.285 137.595 149.348 139.422 149.302 139.513C149.211 139.695 149.241 139.856 149.369 139.873C149.419 139.88 149.477 139.864 149.534 139.83C149.623 139.779 149.712 139.686 149.767 139.575C149.778 139.554 150.73 137.696 152.279 136.512C152.517 136.749 152.659 137.108 152.669 137.575C150.603 138.881 149.355 141.313 149.301 141.42C149.21 141.601 149.24 141.762 149.368 141.78C149.497 141.797 149.675 141.664 149.767 141.483C149.778 141.46 150.876 139.328 152.617 138.181C152.376 139.456 151.367 140.893 150.162 141.589Z" fill="#63503D"/>
<path d="M129.256 148.171L113.289 157.389V155.842L129.256 146.624V148.171Z" fill="#63503D"/>
<path d="M129.256 150.546L113.289 159.765V158.991L129.256 149.773V150.546Z" fill="#63503D"/>
<path d="M129.256 151.9L113.289 161.118V160.345L129.256 151.126V151.9Z" fill="#63503D"/>
<path d="M129.256 153.253L113.289 162.472V161.698L129.256 152.48V153.253Z" fill="#63503D"/>
<path d="M124.831 157.161L113.289 163.825V163.052L124.831 156.388V157.161Z" fill="#63503D"/>
<path d="M118.597 132.604L122.787 133.248L170.642 105.619L162.644 101.001L158.742 96.3289L118.597 132.604Z" fill="#C2A49D"/>
<path d="M118.597 89.9329V132.604L96.574 119.888L90.848 116.581L74.55 107.173V64.5009L90.848 73.91L96.574 77.2169L118.597 89.9329Z" fill="#CDAD8A"/>
<path d="M162.644 64.5009V107.173L145.801 116.898L140.076 120.2L118.597 132.604V89.9329L140.076 77.5289L145.801 74.2269L162.644 64.5009Z" fill="#A48465"/>
<path d="M162.644 64.5009L118.597 89.9329L96.738 77.3069H96.733L91.007 74.0049L74.55 64.5009L96.14 52.035L101.871 48.7269L118.597 39.0699L135.054 48.5739L140.779 51.8759L162.644 64.5009Z" fill="#F0CFA8"/>
<path d="M96.574 77.2169V119.888L90.848 116.581V73.9099L96.574 77.2169Z" fill="#E0C5A4"/>
<path d="M145.801 74.222L140.076 77.529L118.327 64.972L112.597 61.665L95.988 52.095L101.718 48.788L118.327 58.358L124.053 61.665L145.801 74.222Z" fill="#F0DCC5"/>
<path d="M140.711 51.8079L123.984 61.4699L118.259 64.7769H118.254L96.67 77.2389H96.664L96.505 77.3339L90.78 74.0269L90.939 73.9369L112.528 61.4699L118.259 58.1629L134.986 48.5059L140.711 51.8079Z" fill="#F0DCC5"/>
<path d="M162.032 65.994L119.399 90.608C119.289 90.671 119.201 90.634 119.201 90.524C119.201 90.414 119.29 90.274 119.399 90.211L162.032 65.597C162.141 65.534 162.23 65.571 162.23 65.681C162.23 65.79 162.141 65.931 162.032 65.994Z" fill="#8F6E4F"/>
<path d="M145.801 74.2269V116.898L140.076 120.2V77.5289L145.801 74.2269Z" fill="#BB9673"/>
<path d="M142.659 75.808C142.516 75.891 142.284 75.891 142.141 75.809C131.686 69.824 108.45 56.332 98.946 50.809C98.803 50.726 98.804 50.592 98.947 50.51L98.948 50.509C99.092 50.426 99.325 50.427 99.468 50.51C108.972 56.033 132.206 69.524 142.659 75.508C142.803 75.59 142.804 75.725 142.661 75.808H142.659Z" fill="#E6D3BD"/>
<path d="M157.353 73.4329C157.369 73.2769 157.35 73.1109 157.35 73.1109C157.35 73.1109 157.126 73.3989 157.068 73.5739C157.064 73.5859 157.061 73.5969 157.058 73.6079C155.581 74.5699 155.499 76.0319 155.499 76.0319L155.513 76.0239C155.546 75.8879 155.639 75.7509 155.748 75.6869C155.858 75.6239 155.95 75.6539 155.983 75.7519L156.01 75.7359C156.043 75.5999 156.136 75.4619 156.246 75.3989C156.355 75.3359 156.448 75.3659 156.481 75.4639L156.508 75.4479C156.541 75.3119 156.634 75.1739 156.743 75.1109C156.853 75.0479 156.946 75.0779 156.979 75.1759L157.006 75.1599C157.025 75.0819 157.064 75.0039 157.114 74.9389V76.8639C157.114 76.9659 157.045 77.0889 156.959 77.1379C156.874 77.1869 156.804 77.1439 156.804 77.0429V76.7339C156.804 76.6499 156.747 76.6159 156.677 76.6559C156.607 76.6959 156.55 76.7969 156.55 76.8809V77.1899C156.55 77.4589 156.733 77.5719 156.959 77.4419C157.184 77.3119 157.368 76.9869 157.368 76.7179V74.7929C157.418 74.7999 157.457 74.8329 157.476 74.8889L157.504 74.8729C157.537 74.7369 157.63 74.5989 157.74 74.5359C157.849 74.4729 157.942 74.5029 157.975 74.6009L158.002 74.5849C158.035 74.4489 158.128 74.3109 158.238 74.2479C158.348 74.1849 158.441 74.2149 158.474 74.3129L158.501 74.2969C158.534 74.1609 158.626 74.0239 158.736 73.9599C158.846 73.8969 158.938 73.9269 158.971 74.0249L158.985 74.0169C158.985 74.0189 158.866 72.6279 157.353 73.4329Z" fill="#7F6B59"/>
<path d="M156.428 73.8929C156.499 73.8939 156.587 73.8029 156.645 73.6279C156.703 73.4529 156.67 73.1639 156.67 73.1639C156.67 73.1639 156.446 73.4519 156.388 73.6269C156.329 73.8009 156.357 73.8919 156.428 73.8929Z" fill="#7F6B59"/>
<path d="M156.991 73.2649C157.062 73.2649 157.15 73.1739 157.208 72.9999C157.266 72.8249 157.233 72.5359 157.233 72.5359C157.233 72.5359 157.009 72.8239 156.951 72.9989C156.893 73.1729 156.92 73.2639 156.991 73.2649Z" fill="#7F6B59"/>
<path d="M158.362 72.2299C158.304 72.4039 158.331 72.4959 158.403 72.4969C158.474 72.4969 158.562 72.4069 158.62 72.2319C158.678 72.0569 158.645 71.7679 158.645 71.7679C158.645 71.7679 158.42 72.0559 158.362 72.2299Z" fill="#7F6B59"/>
<path d="M158.451 72.9039C158.393 73.0779 158.421 73.1699 158.491 73.1709C158.562 73.1709 158.65 73.0809 158.708 72.9059C158.766 72.7309 158.733 72.4419 158.733 72.4419C158.733 72.4419 158.509 72.7289 158.451 72.9039Z" fill="#7F6B59"/>
<path d="M157.62 72.5259C157.691 72.5259 157.779 72.4359 157.837 72.2609C157.895 72.0869 157.862 71.7969 157.862 71.7969C157.862 71.7969 157.638 72.0849 157.58 72.2599C157.522 72.4349 157.549 72.5259 157.62 72.5259Z" fill="#7F6B59"/>
<path d="M157.742 72.8439C157.684 73.0179 157.711 73.1099 157.782 73.1099C157.853 73.1099 157.941 73.0199 157.999 72.8449C158.057 72.6699 158.024 72.3809 158.024 72.3809C158.024 72.3809 157.799 72.6699 157.742 72.8439Z" fill="#7F6B59"/>
<path d="M158.241 71.8659C158.312 71.8659 158.4 71.7749 158.458 71.6009C158.516 71.4259 158.483 71.1369 158.483 71.1369C158.483 71.1369 158.259 71.4249 158.201 71.5999C158.143 71.7729 158.17 71.8649 158.241 71.8659Z" fill="#7F6B59"/>
<path d="M160.016 76.3809L154.469 79.5839C154.418 79.6129 154.377 79.5879 154.377 79.5279V72.9119C154.377 72.8509 154.418 72.7789 154.469 72.7489L160.016 69.5459C160.067 69.5169 160.108 69.5419 160.108 69.6029V76.2179C160.108 76.2789 160.067 76.3519 160.016 76.3809ZM154.561 79.3119L159.925 76.2149V69.8189L154.561 72.9159V79.3119Z" fill="#7F6B59"/>
<path d="M153.298 73.4119L147.75 76.6149C147.699 76.6439 147.658 76.7169 147.658 76.7779V83.3939C147.658 83.4549 147.699 83.4799 147.75 83.4499L153.298 80.2469C153.349 80.2179 153.39 80.1449 153.39 80.0839V73.4679C153.39 73.4079 153.349 73.3819 153.298 73.4119ZM153.206 80.0799L147.842 83.1769V76.7809L153.206 73.6839V80.0799Z" fill="#7F6B59"/>
<path d="M150.364 78.2839V80.2099L149.645 80.9239L150.364 80.5089L150.638 80.3509L151.38 79.9229L150.638 80.0519V78.1299C151.008 77.8889 151.341 77.5069 151.587 77.0719C151.853 76.6009 152.018 76.0669 152.018 75.5819L150.127 76.6739L149.959 77.0709L150.273 77.0389L149.737 78.1239L149.828 77.4599L149.645 77.4159L149.752 76.8909L149.029 77.3079C149.03 78.2209 149.616 78.6329 150.364 78.2839Z" fill="#7F6B59"/>
<path d="M150.524 83.9809L149.566 85.1939L150.524 85.3009L151.483 84.0879L150.524 83.9809Z" fill="#7F6B59"/>
<path d="M149.543 86.3949L150.501 86.5019V85.3589L149.543 85.2529V86.3949Z" fill="#7F6B59"/>
<path d="M151.512 84.1159L150.554 85.3289V86.4719L151.512 85.2589V84.1159Z" fill="#7F6B59"/>
<path d="M149.428 86.8279C149.382 86.7939 149.306 86.8309 149.253 86.9139C149.215 86.9709 149.203 87.0059 149.199 87.0609C149.193 87.1259 149.212 87.1769 149.248 87.2019L149.704 87.5189C149.731 87.5379 149.735 87.5909 149.709 87.6419C149.694 87.6709 149.673 87.6939 149.652 87.7059C149.632 87.7179 149.611 87.7199 149.597 87.7099L149.148 87.3989C149.121 87.3799 149.106 87.3439 149.106 87.2969V86.8479C149.109 86.7819 149.106 86.7199 149.106 86.6409V85.9669C149.106 85.8189 149.005 85.7569 148.881 85.8289C148.757 85.9009 148.656 86.0789 148.656 86.2269V87.4709C148.656 87.6939 148.716 87.8769 148.826 87.9929L149.321 88.5139C149.385 88.5809 149.419 88.6869 149.419 88.8159V89.6129L150.131 89.2019V87.8299C150.131 87.5239 150.036 87.2839 149.864 87.1559L149.428 86.8279Z" fill="#7F6B59"/>
<path d="M152.167 83.9309C152.043 84.0029 151.942 84.1809 151.942 84.3289V85.6579C151.942 85.7049 151.927 85.7579 151.9 85.8079L151.451 86.6379C151.436 86.6649 151.416 86.6869 151.396 86.6979C151.375 86.7099 151.354 86.7119 151.338 86.6999C151.312 86.6789 151.316 86.6209 151.343 86.5709L151.798 85.7279C151.834 85.6619 151.853 85.5889 151.847 85.5299C151.842 85.4809 151.831 85.4589 151.793 85.4459C151.741 85.4239 151.664 85.4749 151.618 85.5619L151.182 86.3919C151.01 86.7189 150.915 87.0679 150.915 87.3739V88.7459L151.627 88.3349V87.5379C151.627 87.4089 151.661 87.2639 151.725 87.1229L152.219 86.0309C152.33 85.7869 152.389 85.5359 152.389 85.3129V84.0679C152.392 83.9209 152.291 83.8589 152.167 83.9309Z" fill="#7F6B59"/>
<path d="M153.298 88.2929L147.75 91.4959C147.699 91.5249 147.658 91.4999 147.658 91.4389V84.8229C147.658 84.7629 147.699 84.6899 147.75 84.6609L153.298 81.4579C153.349 81.4289 153.39 81.4539 153.39 81.5149V88.1309C153.39 88.1909 153.349 88.2639 153.298 88.2929ZM147.842 91.2239L153.206 88.1269V81.7309L147.842 84.8279V91.2239Z" fill="#7F6B59"/>
<path d="M158.461 83.4169V81.3229L158.881 81.0809L158.101 79.9679L157.321 81.9809L157.74 81.7389V83.8339L156.718 84.4239V82.3289L157.137 82.0869L156.358 80.9749L155.578 82.9879L155.997 82.7459V84.8399L155.434 85.1649V86.1499L159.051 84.0609V83.0769L158.461 83.4169Z" fill="#7F6B59"/>
<path d="M160.016 84.6009L154.469 87.8039C154.418 87.8329 154.377 87.8079 154.377 87.7469V81.1319C154.377 81.0709 154.418 80.9989 154.469 80.9689L160.016 77.7659C160.067 77.7369 160.108 77.7619 160.108 77.8229V84.4379C160.108 84.4989 160.067 84.5709 160.016 84.6009ZM154.561 87.5309L159.925 84.4339V78.0369L154.561 81.1339V87.5309Z" fill="#7F6B59"/>
<path d="M58.754 115.349H88.715L88.196 72.382L74.55 64.501V106.47L58.754 115.349Z" fill="#C2A49D"/>
<defs>
<linearGradient id="paint0_linear_120_5019" x1="41.4815" y1="132.19" x2="149.638" y2="132.19" gradientUnits="userSpaceOnUse">
<stop stop-color="#FBA621"/>
<stop offset="1" stop-color="#FFC470"/>
</linearGradient>
<linearGradient id="paint1_linear_120_5019" x1="88.1522" y1="159.135" x2="196.309" y2="159.135" gradientUnits="userSpaceOnUse">
<stop stop-color="#FBA621"/>
<stop offset="1" stop-color="#FFC470"/>
</linearGradient>
</defs>
</svg>
