<svg width="147" height="175" viewBox="0 0 147 175" fill="none" xmlns="http://www.w3.org/2000/svg">
<path d="M71.41 53.207L38.902 71.976V34.439L71.41 53.207Z" fill="#CDAD8A"/>
<path d="M6.39404 53.207L38.902 34.438V71.975L6.39404 53.207Z" fill="#A48465"/>
<path d="M27.141 76.03C27.024 76.03 26.905 76.01 26.789 75.967C24.182 75.011 23.27 73.013 23.233 72.928C23.004 72.411 23.237 71.807 23.753 71.578C24.268 71.351 24.867 71.579 25.099 72.09C25.133 72.161 25.746 73.406 27.493 74.046C28.023 74.241 28.296 74.828 28.101 75.359C27.95 75.773 27.558 76.03 27.141 76.03Z" fill="white"/>
<path d="M35.491 75.043C35.191 75.043 34.894 74.912 34.692 74.66C34.642 74.6 33.741 73.544 31.891 73.354C31.329 73.296 30.92 72.793 30.978 72.231C31.036 71.669 31.537 71.259 32.101 71.318C34.863 71.603 36.239 73.315 36.296 73.388C36.645 73.832 36.568 74.475 36.124 74.825C35.935 74.971 35.713 75.043 35.491 75.043Z" fill="#EAE4E5"/>
<path d="M38.975 72.528C38.675 72.528 38.378 72.397 38.176 72.145C38.126 72.085 37.225 71.029 35.374 70.839C34.812 70.781 34.403 70.279 34.461 69.716C34.519 69.154 35.02 68.744 35.584 68.803C38.346 69.088 39.722 70.8 39.779 70.873C40.128 71.317 40.051 71.96 39.607 72.31C39.419 72.457 39.197 72.528 38.975 72.528Z" fill="#EAE4E5"/>
<path d="M27.403 77.453C27.103 77.453 26.806 77.322 26.604 77.07C26.554 77.01 25.653 75.954 23.802 75.764C23.24 75.706 22.831 75.203 22.889 74.641C22.947 74.079 23.448 73.669 24.011 73.728C26.773 74.013 28.149 75.725 28.206 75.798C28.555 76.242 28.478 76.885 28.034 77.235C27.847 77.382 27.625 77.453 27.403 77.453Z" fill="#EAE4E5"/>
<path d="M30.696 66.75C30.396 66.75 30.099 66.619 29.897 66.367C29.847 66.307 28.946 65.251 27.096 65.061C26.534 65.003 26.125 64.5 26.183 63.938C26.241 63.376 26.742 62.966 27.306 63.025C30.068 63.31 31.444 65.022 31.501 65.095C31.85 65.539 31.773 66.182 31.329 66.532C31.14 66.679 30.917 66.75 30.696 66.75Z" fill="#EAE4E5"/>
<path d="M28.444 78.883C28.179 78.883 27.914 78.781 27.714 78.577C27.32 78.176 27.324 77.533 27.72 77.137C27.775 77.08 28.724 76.069 28.71 74.209C28.706 73.644 29.1601 73.182 29.7261 73.178C29.7291 73.178 29.7311 73.178 29.7341 73.178C30.2951 73.178 30.753 73.631 30.757 74.194C30.778 76.971 29.2271 78.526 29.1611 78.591C28.9611 78.785 28.703 78.883 28.444 78.883Z" fill="white"/>
<path d="M22.516 73.222C22.251 73.222 21.986 73.12 21.786 72.916C21.392 72.515 21.396 71.872 21.792 71.476C21.847 71.419 22.796 70.408 22.782 68.548C22.778 67.983 23.232 67.522 23.798 67.517C23.801 67.517 23.803 67.517 23.806 67.517C24.367 67.517 24.825 67.97 24.829 68.533C24.85 71.309 23.299 72.865 23.233 72.93C23.034 73.124 22.775 73.222 22.516 73.222Z" fill="white"/>
<path d="M32.143 73.004C31.878 73.004 31.613 72.902 31.413 72.698C31.019 72.297 31.023 71.654 31.419 71.258C31.474 71.201 32.423 70.19 32.409 68.33C32.405 67.765 32.859 67.304 33.424 67.299C33.427 67.299 33.429 67.299 33.432 67.299C33.993 67.299 34.451 67.752 34.455 68.314C34.476 71.091 32.925 72.646 32.859 72.711C32.661 72.907 32.402 73.004 32.143 73.004Z" fill="white"/>
<path d="M31.9761 71.979C31.9481 71.979 31.92 71.978 31.892 71.976C29.124 71.752 27.7121 70.07 27.6531 69.998C27.2941 69.561 27.357 68.917 27.794 68.558C28.228 68.201 28.868 68.261 29.228 68.691C29.278 68.749 30.2011 69.786 32.0581 69.936C32.6211 69.982 33.041 70.475 32.995 71.038C32.952 71.573 32.5041 71.979 31.9761 71.979Z" fill="white"/>
<path d="M27.925 70.624C27.897 70.624 27.869 70.623 27.841 70.621C25.073 70.397 23.661 68.714 23.602 68.643C23.243 68.207 23.306 67.562 23.743 67.203C24.177 66.846 24.817 66.906 25.177 67.336C25.227 67.394 26.15 68.431 28.007 68.581C28.57 68.627 28.99 69.12 28.944 69.683C28.901 70.219 28.453 70.624 27.925 70.624Z" fill="white"/>
<path d="M37.342 73.171C37.2 73.171 37.056 73.141 36.919 73.079L33.388 71.471C32.874 71.237 32.647 70.63 32.881 70.116C33.115 69.602 33.722 69.375 34.236 69.609L37.767 71.217C38.281 71.451 38.5079 72.058 38.2739 72.572C38.1019 72.948 37.731 73.171 37.342 73.171Z" fill="#D3C5C8"/>
<path d="M33.643 75.588C33.501 75.588 33.357 75.558 33.22 75.496L29.689 73.888C29.175 73.654 28.948 73.047 29.182 72.533C29.416 72.019 30.023 71.792 30.537 72.026L34.068 73.634C34.582 73.868 34.809 74.475 34.575 74.989C34.403 75.365 34.032 75.588 33.643 75.588Z" fill="#D3C5C8"/>
<path d="M27.923 74.011C27.781 74.011 27.637 73.981 27.5 73.919L23.969 72.311C23.455 72.077 23.228 71.47 23.462 70.956C23.696 70.442 24.303 70.215 24.817 70.449L28.348 72.057C28.862 72.291 29.089 72.898 28.855 73.412C28.684 73.788 28.312 74.011 27.923 74.011Z" fill="#D3C5C8"/>
<path d="M29.185 73.347C28.789 73.347 28.413 73.116 28.246 72.73C27.697 71.463 25.886 71.715 25.809 71.727C25.253 71.809 24.731 71.427 24.645 70.871C24.559 70.315 24.936 69.794 25.492 69.706C28.206 69.273 29.679 70.893 30.123 71.917C30.348 72.436 30.109 73.038 29.591 73.263C29.459 73.32 29.321 73.347 29.185 73.347Z" fill="#EAE4E5"/>
<path d="M31.651 70.021C31.255 70.021 30.879 69.79 30.712 69.404C30.163 68.137 28.352 68.389 28.275 68.401C27.719 68.483 27.196 68.101 27.111 67.545C27.025 66.989 27.402 66.468 27.958 66.38C30.672 65.948 32.145 67.567 32.589 68.591C32.814 69.11 32.575 69.712 32.057 69.937C31.925 69.993 31.787 70.021 31.651 70.021Z" fill="#EAE4E5"/>
<path d="M34.595 67.915C34.478 67.915 34.359 67.895 34.243 67.852C31.636 66.896 30.725 64.898 30.687 64.813C30.458 64.296 30.691 63.692 31.207 63.463C31.722 63.236 32.321 63.464 32.553 63.975C32.587 64.046 33.2 65.291 34.947 65.931C35.478 66.125 35.75 66.713 35.555 67.244C35.404 67.658 35.012 67.915 34.595 67.915Z" fill="white"/>
<path d="M42.945 66.928C42.645 66.928 42.348 66.797 42.146 66.545C42.096 66.485 41.195 65.429 39.344 65.239C38.782 65.181 38.373 64.678 38.431 64.117C38.489 63.555 38.99 63.145 39.553 63.204C42.315 63.489 43.691 65.201 43.748 65.274C44.097 65.718 44.02 66.361 43.576 66.711C43.39 66.856 43.167 66.928 42.945 66.928Z" fill="#EAE4E5"/>
<path d="M46.43 64.413C46.13 64.413 45.833 64.282 45.631 64.03C45.581 63.97 44.68 62.914 42.829 62.724C42.267 62.666 41.858 62.164 41.916 61.602C41.974 61.04 42.475 60.63 43.038 60.689C45.8 60.974 47.176 62.686 47.233 62.759C47.582 63.203 47.505 63.846 47.061 64.196C46.874 64.341 46.651 64.413 46.43 64.413Z" fill="#EAE4E5"/>
<path d="M34.857 69.338C34.557 69.338 34.26 69.207 34.058 68.955C34.008 68.895 33.107 67.839 31.256 67.649C30.694 67.591 30.285 67.089 30.343 66.527C30.401 65.965 30.902 65.555 31.465 65.614C34.227 65.899 35.603 67.611 35.66 67.684C36.009 68.128 35.932 68.771 35.488 69.121C35.301 69.267 35.079 69.338 34.857 69.338Z" fill="#EAE4E5"/>
<path d="M35.898 70.768C35.633 70.768 35.368 70.666 35.168 70.462C34.774 70.061 34.778 69.419 35.174 69.022C35.229 68.965 36.179 67.954 36.165 66.094C36.161 65.529 36.616 65.068 37.181 65.063C37.183 65.063 37.186 65.063 37.189 65.063C37.75 65.063 38.208 65.516 38.212 66.078C38.233 68.855 36.682 70.41 36.616 70.475C36.416 70.67 36.157 70.768 35.898 70.768Z" fill="white"/>
<path d="M29.97 65.107C29.705 65.107 29.44 65.005 29.24 64.801C28.846 64.4 28.85 63.757 29.246 63.361C29.301 63.304 30.25 62.293 30.237 60.433C30.233 59.868 30.6871 59.407 31.2521 59.402C31.2551 59.402 31.2571 59.402 31.2601 59.402C31.8221 59.402 32.279 59.855 32.283 60.417C32.304 63.194 30.7531 64.749 30.6871 64.814C30.4881 65.009 30.229 65.107 29.97 65.107Z" fill="white"/>
<path d="M39.597 64.889C39.332 64.889 39.068 64.787 38.867 64.583C38.473 64.182 38.477 63.539 38.873 63.143C38.928 63.086 39.877 62.075 39.863 60.215C39.859 59.65 40.314 59.189 40.879 59.184C40.881 59.184 40.884 59.184 40.887 59.184C41.449 59.184 41.906 59.637 41.91 60.199C41.931 62.976 40.38 64.531 40.314 64.596C40.115 64.792 39.856 64.889 39.597 64.889Z" fill="white"/>
<path d="M25.779 80.572C25.514 80.572 25.249 80.47 25.049 80.266C24.655 79.865 24.659 79.222 25.055 78.826C25.11 78.769 26.06 77.758 26.046 75.898C26.042 75.333 26.497 74.872 27.062 74.867C27.064 74.867 27.067 74.867 27.07 74.867C27.631 74.867 28.089 75.32 28.093 75.882C28.114 78.659 26.563 80.214 26.497 80.279C26.297 80.474 26.038 80.572 25.779 80.572Z" fill="white"/>
<path d="M39.43 63.863C39.402 63.863 39.3741 63.862 39.3461 63.86C36.5781 63.636 35.166 61.954 35.107 61.882C34.748 61.446 34.811 60.801 35.248 60.442C35.682 60.085 36.3221 60.145 36.6821 60.575C36.7321 60.632 37.656 61.67 39.512 61.82C40.075 61.866 40.495 62.359 40.449 62.922C40.406 63.458 39.958 63.863 39.43 63.863Z" fill="white"/>
<path d="M35.379 62.509C35.351 62.509 35.323 62.508 35.295 62.506C32.527 62.282 31.115 60.599 31.056 60.528C30.697 60.092 30.76 59.447 31.197 59.088C31.631 58.731 32.271 58.791 32.631 59.221C32.681 59.279 33.604 60.316 35.461 60.466C36.024 60.512 36.444 61.005 36.398 61.569C36.355 62.104 35.907 62.509 35.379 62.509Z" fill="white"/>
<path d="M44.7959 65.055C44.6539 65.055 44.5099 65.025 44.3729 64.963L40.842 63.355C40.328 63.121 40.1009 62.514 40.3349 62C40.5689 61.486 41.176 61.259 41.69 61.493L45.221 63.101C45.735 63.335 45.962 63.942 45.728 64.456C45.556 64.832 45.1849 65.055 44.7959 65.055Z" fill="#D3C5C8"/>
<path d="M41.097 67.473C40.955 67.473 40.811 67.443 40.674 67.381L37.143 65.773C36.629 65.539 36.402 64.932 36.636 64.418C36.87 63.904 37.477 63.677 37.991 63.911L41.522 65.519C42.036 65.753 42.263 66.36 42.029 66.874C41.857 67.25 41.486 67.473 41.097 67.473Z" fill="#D3C5C8"/>
<path d="M33.96 66.585C33.846 66.501 33.747 66.392 33.673 66.261L31.77 62.88C31.493 62.388 31.667 61.764 32.16 61.487C32.653 61.21 33.276 61.384 33.553 61.877L35.456 65.258C35.733 65.751 35.559 66.374 35.066 66.652C34.705 66.853 34.274 66.814 33.96 66.585Z" fill="#D3C5C8"/>
<path d="M34.644 65.926C34.383 65.629 34.308 65.194 34.487 64.813C35.077 63.564 33.693 62.37 33.633 62.32C33.205 61.956 33.147 61.312 33.508 60.88C33.87 60.449 34.509 60.388 34.943 60.748C37.059 62.502 36.814 64.677 36.338 65.687C36.097 66.198 35.487 66.417 34.976 66.175C34.845 66.114 34.734 66.028 34.644 65.926Z" fill="#EAE4E5"/>
<path d="M39.106 61.905C38.71 61.905 38.334 61.674 38.167 61.288C37.618 60.021 35.8071 60.273 35.7301 60.285C35.1741 60.367 34.6521 59.985 34.5661 59.429C34.4801 58.873 34.857 58.352 35.413 58.264C38.127 57.831 39.6 59.451 40.044 60.475C40.269 60.994 40.03 61.596 39.512 61.821C39.379 61.878 39.241 61.905 39.106 61.905Z" fill="#EAE4E5"/>
<path d="M31.651 63.664C31.255 63.664 30.879 63.433 30.712 63.047C30.163 61.78 28.352 62.032 28.275 62.044C27.719 62.126 27.196 61.744 27.111 61.188C27.025 60.632 27.402 60.111 27.958 60.023C30.672 59.59 32.145 61.21 32.589 62.234C32.814 62.752 32.575 63.355 32.057 63.58C31.925 63.637 31.787 63.664 31.651 63.664Z" fill="#EAE4E5"/>
<path d="M28.652 69.373C28.256 69.373 27.88 69.142 27.713 68.756C27.164 67.489 25.353 67.741 25.276 67.753C24.72 67.835 24.197 67.453 24.112 66.897C24.026 66.341 24.403 65.82 24.959 65.732C27.673 65.299 29.146 66.919 29.59 67.943C29.815 68.462 29.576 69.064 29.058 69.289C28.926 69.346 28.788 69.373 28.652 69.373Z" fill="#EAE4E5"/>
<path d="M32.001 78.983C31.884 78.983 31.765 78.963 31.649 78.92C29.042 77.964 28.13 75.966 28.093 75.881C27.864 75.365 28.097 74.76 28.613 74.531C29.128 74.304 29.727 74.533 29.959 75.043C29.993 75.114 30.606 76.359 32.353 76.999C32.883 77.193 33.156 77.781 32.961 78.312C32.81 78.727 32.418 78.983 32.001 78.983Z" fill="white"/>
<path d="M40.351 77.996C40.051 77.996 39.754 77.865 39.552 77.613C39.502 77.553 38.601 76.497 36.75 76.307C36.188 76.249 35.779 75.747 35.837 75.185C35.895 74.623 36.396 74.213 36.959 74.272C39.721 74.556 41.097 76.269 41.154 76.342C41.503 76.786 41.426 77.429 40.982 77.779C40.795 77.925 40.572 77.996 40.351 77.996Z" fill="#EAE4E5"/>
<path d="M43.835 75.481C43.535 75.481 43.238 75.349 43.036 75.098C42.986 75.038 42.085 73.982 40.234 73.792C39.672 73.734 39.263 73.231 39.321 72.67C39.379 72.108 39.88 71.698 40.443 71.757C43.205 72.042 44.581 73.754 44.638 73.827C44.987 74.271 44.91 74.914 44.466 75.264C44.279 75.41 44.056 75.481 43.835 75.481Z" fill="#EAE4E5"/>
<path d="M32.263 80.406C31.963 80.406 31.666 80.274 31.464 80.023C31.414 79.963 30.513 78.907 28.662 78.717C28.1 78.659 27.691 78.156 27.749 77.595C27.807 77.033 28.308 76.623 28.871 76.682C31.633 76.966 33.009 78.679 33.066 78.752C33.415 79.196 33.338 79.839 32.894 80.189C32.707 80.335 32.484 80.406 32.263 80.406Z" fill="#EAE4E5"/>
<path d="M33.3031 81.836C33.0381 81.836 32.773 81.734 32.573 81.53C32.179 81.129 32.1831 80.486 32.5791 80.09C32.6341 80.033 33.583 79.022 33.569 77.162C33.565 76.597 34.02 76.136 34.585 76.131C34.587 76.131 34.59 76.131 34.593 76.131C35.154 76.131 35.612 76.584 35.616 77.147C35.637 79.923 34.086 81.479 34.02 81.544C33.821 81.739 33.5621 81.836 33.3031 81.836Z" fill="white"/>
<path d="M27.3761 76.175C27.1111 76.175 26.846 76.073 26.646 75.869C26.252 75.468 26.2561 74.826 26.6521 74.429C26.7071 74.372 27.656 73.361 27.643 71.501C27.639 70.936 28.094 70.475 28.659 70.47C28.661 70.47 28.664 70.47 28.667 70.47C29.228 70.47 29.686 70.923 29.69 71.486C29.711 74.263 28.16 75.818 28.094 75.883C27.893 76.077 27.6341 76.175 27.3761 76.175Z" fill="white"/>
<path d="M37.002 75.958C36.737 75.958 36.473 75.856 36.272 75.652C35.878 75.251 35.882 74.608 36.278 74.212C36.333 74.155 37.282 73.144 37.268 71.284C37.264 70.719 37.719 70.257 38.284 70.253C38.287 70.253 38.289 70.253 38.292 70.253C38.853 70.253 39.311 70.706 39.315 71.268C39.336 74.045 37.785 75.6 37.719 75.665C37.52 75.86 37.261 75.958 37.002 75.958Z" fill="white"/>
<path d="M36.836 74.932C36.808 74.932 36.7801 74.931 36.7521 74.929C33.9841 74.705 32.572 73.022 32.513 72.951C32.154 72.515 32.217 71.87 32.654 71.511C33.088 71.154 33.7281 71.214 34.0881 71.644C34.1381 71.702 35.062 72.739 36.918 72.889C37.481 72.935 37.9011 73.428 37.8551 73.991C37.8111 74.527 37.363 74.932 36.836 74.932Z" fill="white"/>
<path d="M32.785 73.577C32.757 73.577 32.729 73.576 32.701 73.574C29.933 73.35 28.521 71.668 28.462 71.596C28.103 71.16 28.166 70.515 28.603 70.156C29.037 69.799 29.677 69.859 30.037 70.289C30.087 70.347 31.01 71.384 32.867 71.534C33.43 71.58 33.85 72.073 33.804 72.636C33.76 73.172 33.312 73.577 32.785 73.577Z" fill="white"/>
<path d="M40.299 76.833C40.203 76.729 40.126 76.603 40.078 76.46L38.8519 72.778C38.6739 72.242 38.963 71.663 39.5 71.484C40.036 71.306 40.616 71.596 40.794 72.132L42.0199 75.813C42.1979 76.349 41.908 76.929 41.372 77.107C40.98 77.238 40.564 77.118 40.299 76.833Z" fill="#D3C5C8"/>
<path d="M38.503 78.541C38.361 78.541 38.217 78.511 38.08 78.449L34.549 76.841C34.035 76.607 33.808 76 34.042 75.486C34.276 74.972 34.883 74.745 35.397 74.979L38.928 76.587C39.442 76.821 39.669 77.428 39.435 77.942C39.263 78.318 38.891 78.541 38.503 78.541Z" fill="#D3C5C8"/>
<path d="M32.783 76.964C32.641 76.964 32.497 76.934 32.36 76.872L28.829 75.264C28.315 75.03 28.088 74.423 28.322 73.909C28.557 73.395 29.163 73.168 29.677 73.402L33.208 75.01C33.722 75.244 33.949 75.851 33.715 76.365C33.543 76.741 33.172 76.964 32.783 76.964Z" fill="#D3C5C8"/>
<path d="M34.045 76.301C33.649 76.301 33.273 76.07 33.106 75.684C32.557 74.417 30.746 74.669 30.669 74.681C30.113 74.763 29.59 74.381 29.505 73.825C29.419 73.269 29.796 72.748 30.352 72.66C33.066 72.228 34.539 73.847 34.983 74.871C35.208 75.389 34.969 75.992 34.451 76.217C34.319 76.273 34.181 76.301 34.045 76.301Z" fill="#EAE4E5"/>
<path d="M36.511 72.974C36.115 72.974 35.739 72.743 35.572 72.357C35.023 71.09 33.212 71.342 33.135 71.354C32.579 71.436 32.056 71.054 31.971 70.498C31.885 69.942 32.262 69.421 32.818 69.333C35.532 68.9 37.005 70.52 37.449 71.544C37.674 72.063 37.435 72.665 36.917 72.89C36.785 72.946 36.647 72.974 36.511 72.974Z" fill="#EAE4E5"/>
<path d="M39.455 70.868C39.338 70.868 39.219 70.848 39.103 70.805C36.496 69.849 35.584 67.851 35.547 67.766C35.318 67.249 35.551 66.645 36.068 66.416C36.582 66.189 37.182 66.417 37.414 66.928C37.448 66.999 38.0611 68.244 39.8081 68.884C40.3391 69.079 40.611 69.666 40.417 70.197C40.264 70.611 39.872 70.868 39.455 70.868Z" fill="white"/>
<path d="M47.805 69.881C47.505 69.881 47.208 69.75 47.006 69.498C46.956 69.438 46.055 68.382 44.204 68.192C43.642 68.134 43.233 67.632 43.291 67.07C43.349 66.508 43.85 66.098 44.414 66.157C47.176 66.442 48.552 68.154 48.609 68.227C48.958 68.671 48.881 69.314 48.437 69.664C48.249 69.809 48.026 69.881 47.805 69.881Z" fill="#EAE4E5"/>
<path d="M51.289 67.366C50.989 67.366 50.692 67.235 50.49 66.983C50.44 66.923 49.539 65.867 47.688 65.677C47.126 65.619 46.717 65.116 46.775 64.555C46.833 63.993 47.334 63.583 47.897 63.642C50.659 63.927 52.035 65.639 52.092 65.712C52.441 66.156 52.364 66.799 51.92 67.149C51.733 67.294 51.51 67.366 51.289 67.366Z" fill="#EAE4E5"/>
<path d="M39.717 72.291C39.417 72.291 39.12 72.16 38.918 71.908C38.868 71.848 37.967 70.792 36.117 70.602C35.555 70.544 35.146 70.041 35.204 69.48C35.262 68.918 35.7629 68.508 36.3259 68.567C39.0879 68.852 40.464 70.564 40.521 70.637C40.87 71.081 40.793 71.724 40.349 72.074C40.161 72.22 39.938 72.291 39.717 72.291Z" fill="#EAE4E5"/>
<path d="M40.758 73.721C40.493 73.721 40.228 73.619 40.028 73.415C39.634 73.014 39.638 72.371 40.034 71.975C40.089 71.918 41.038 70.907 41.024 69.047C41.02 68.482 41.474 68.021 42.039 68.016C42.042 68.016 42.044 68.016 42.047 68.016C42.608 68.016 43.066 68.469 43.07 69.031C43.091 71.808 41.54 73.363 41.474 73.428C41.275 73.623 41.016 73.721 40.758 73.721Z" fill="white"/>
<path d="M34.83 68.06C34.565 68.06 34.3 67.958 34.1 67.754C33.706 67.353 33.71 66.71 34.106 66.314C34.161 66.257 35.111 65.246 35.097 63.386C35.093 62.821 35.548 62.36 36.112 62.355C36.114 62.355 36.117 62.355 36.12 62.355C36.682 62.355 37.139 62.808 37.143 63.37C37.164 66.147 35.613 67.702 35.547 67.767C35.348 67.962 35.089 68.06 34.83 68.06Z" fill="white"/>
<path d="M44.457 67.842C44.192 67.842 43.927 67.74 43.727 67.536C43.333 67.135 43.337 66.492 43.733 66.096C43.788 66.039 44.737 65.028 44.723 63.168C44.719 62.603 45.173 62.142 45.739 62.137C45.741 62.137 45.744 62.137 45.747 62.137C46.309 62.137 46.766 62.59 46.77 63.153C46.791 65.929 45.24 67.485 45.174 67.55C44.974 67.745 44.715 67.842 44.457 67.842Z" fill="white"/>
<path d="M44.29 66.817C44.262 66.817 44.234 66.816 44.206 66.814C41.438 66.59 40.026 64.908 39.967 64.836C39.608 64.4 39.671 63.755 40.108 63.396C40.542 63.039 41.182 63.099 41.542 63.529C41.592 63.587 42.516 64.624 44.372 64.774C44.935 64.82 45.355 65.313 45.309 65.876C45.265 66.411 44.818 66.817 44.29 66.817Z" fill="white"/>
<path d="M40.239 65.462C40.211 65.462 40.183 65.461 40.155 65.459C37.387 65.235 35.975 63.553 35.916 63.481C35.557 63.044 35.62 62.4 36.057 62.041C36.491 61.684 37.131 61.744 37.491 62.174C37.541 62.232 38.465 63.269 40.321 63.419C40.884 63.465 41.304 63.958 41.258 64.521C41.214 65.057 40.767 65.462 40.239 65.462Z" fill="white"/>
<path d="M49.656 68.008C49.514 68.008 49.37 67.978 49.233 67.916L45.702 66.308C45.188 66.074 44.961 65.467 45.195 64.953C45.429 64.439 46.036 64.212 46.55 64.446L50.081 66.054C50.595 66.288 50.822 66.895 50.588 67.409C50.416 67.786 50.044 68.008 49.656 68.008Z" fill="#D3C5C8"/>
<path d="M45.957 70.426C45.815 70.426 45.671 70.396 45.534 70.334L42.003 68.726C41.489 68.492 41.262 67.885 41.496 67.371C41.73 66.857 42.337 66.63 42.851 66.864L46.382 68.472C46.896 68.706 47.123 69.313 46.889 69.827C46.717 70.203 46.345 70.426 45.957 70.426Z" fill="#D3C5C8"/>
<path d="M40.237 68.849C40.095 68.849 39.951 68.819 39.814 68.757L36.283 67.149C35.769 66.915 35.542 66.308 35.776 65.794C36.01 65.28 36.617 65.053 37.131 65.287L40.662 66.895C41.176 67.129 41.403 67.736 41.169 68.25C40.997 68.626 40.626 68.849 40.237 68.849Z" fill="#D3C5C8"/>
<path d="M41.499 68.185C41.104 68.185 40.727 67.954 40.56 67.568C40.011 66.301 38.2 66.553 38.123 66.565C37.567 66.647 37.044 66.265 36.959 65.709C36.873 65.153 37.25 64.632 37.806 64.544C40.52 64.111 41.993 65.731 42.437 66.755C42.661 67.273 42.423 67.876 41.905 68.101C41.773 68.158 41.635 68.185 41.499 68.185Z" fill="#EAE4E5"/>
<path d="M44.756 62.832C44.503 63.136 44.085 63.278 43.681 63.16C42.356 62.772 41.392 64.325 41.352 64.392C41.06 64.872 40.432 65.029 39.95 64.739C39.468 64.449 39.308 63.826 39.596 63.342C40.999 60.979 43.186 60.881 44.257 61.195C44.799 61.354 45.11 61.922 44.951 62.465C44.91 62.604 44.843 62.728 44.756 62.832Z" fill="#EAE4E5"/>
<path d="M35.7 82.974C35.583 82.974 35.464 82.954 35.348 82.911C32.741 81.955 31.829 79.957 31.792 79.872C31.563 79.355 31.796 78.751 32.312 78.522C32.826 78.295 33.426 78.524 33.658 79.034C33.692 79.105 34.305 80.35 36.052 80.99C36.583 81.184 36.855 81.772 36.66 82.303C36.509 82.717 36.117 82.974 35.7 82.974Z" fill="white"/>
<path d="M44.05 81.987C43.75 81.987 43.453 81.856 43.251 81.604C43.201 81.544 42.3 80.488 40.449 80.298C39.887 80.24 39.478 79.738 39.536 79.176C39.594 78.614 40.095 78.204 40.658 78.263C43.42 78.548 44.796 80.26 44.853 80.333C45.202 80.777 45.125 81.42 44.681 81.77C44.494 81.915 44.271 81.987 44.05 81.987Z" fill="#EAE4E5"/>
<path d="M47.534 79.472C47.234 79.472 46.937 79.341 46.735 79.089C46.685 79.029 45.784 77.973 43.933 77.783C43.371 77.725 42.962 77.222 43.02 76.66C43.078 76.098 43.579 75.688 44.142 75.747C46.904 76.032 48.28 77.744 48.337 77.817C48.686 78.261 48.609 78.904 48.165 79.254C47.978 79.4 47.755 79.472 47.534 79.472Z" fill="#EAE4E5"/>
<path d="M35.962 84.397C35.662 84.397 35.365 84.266 35.163 84.014C35.113 83.954 34.212 82.898 32.361 82.708C31.799 82.65 31.39 82.147 31.448 81.586C31.506 81.024 32.007 80.614 32.57 80.673C35.332 80.957 36.708 82.67 36.765 82.743C37.114 83.187 37.037 83.83 36.593 84.18C36.406 84.326 36.183 84.397 35.962 84.397Z" fill="#EAE4E5"/>
<path d="M37.002 85.827C36.737 85.827 36.473 85.725 36.272 85.521C35.878 85.12 35.882 84.477 36.278 84.081C36.333 84.024 37.282 83.013 37.268 81.153C37.264 80.588 37.719 80.127 38.284 80.122C38.287 80.122 38.289 80.122 38.292 80.122C38.853 80.122 39.311 80.575 39.315 81.137C39.336 83.914 37.785 85.469 37.719 85.534C37.52 85.729 37.261 85.827 37.002 85.827Z" fill="white"/>
<path d="M45.254 64.253C44.989 64.253 44.724 64.151 44.524 63.947C44.13 63.546 44.134 62.904 44.53 62.507C44.585 62.45 45.535 61.439 45.521 59.579C45.517 59.014 45.972 58.553 46.536 58.548C46.538 58.548 46.541 58.548 46.544 58.548C47.106 58.548 47.563 59.001 47.567 59.564C47.588 62.341 46.037 63.896 45.971 63.961C45.772 64.156 45.513 64.253 45.254 64.253Z" fill="white"/>
<path d="M31.075 80.165C30.81 80.165 30.545 80.063 30.345 79.859C29.951 79.458 29.955 78.815 30.351 78.419C30.406 78.362 31.356 77.351 31.341 75.491C31.337 74.926 31.791 74.465 32.356 74.46C32.359 74.46 32.361 74.46 32.364 74.46C32.925 74.46 33.383 74.913 33.387 75.475C33.408 78.252 31.857 79.807 31.791 79.872C31.592 80.068 31.334 80.165 31.075 80.165Z" fill="white"/>
<path d="M40.701 79.948C40.436 79.948 40.171 79.846 39.971 79.642C39.577 79.241 39.581 78.598 39.977 78.202C40.032 78.145 40.981 77.134 40.967 75.274C40.963 74.709 41.418 74.247 41.982 74.243C41.985 74.243 41.987 74.243 41.99 74.243C42.551 74.243 43.009 74.696 43.013 75.258C43.034 78.035 41.483 79.59 41.417 79.655C41.219 79.851 40.96 79.948 40.701 79.948Z" fill="white"/>
<path d="M40.535 78.922C40.507 78.922 40.479 78.921 40.451 78.919C37.683 78.695 36.271 77.013 36.212 76.941C35.853 76.505 35.916 75.86 36.353 75.501C36.787 75.144 37.427 75.204 37.787 75.634C37.837 75.692 38.761 76.729 40.617 76.879C41.18 76.925 41.6 77.418 41.554 77.981C41.51 78.517 41.062 78.922 40.535 78.922Z" fill="white"/>
<path d="M36.761 77.252C36.734 77.256 36.706 77.26 36.678 77.262C33.911 77.496 32.241 76.07 32.171 76.009C31.745 75.638 31.701 74.991 32.073 74.566C32.442 74.142 33.084 74.097 33.509 74.461C33.568 74.51 34.649 75.381 36.505 75.223C37.068 75.175 37.563 75.593 37.611 76.156C37.656 76.692 37.281 77.165 36.761 77.252Z" fill="white"/>
<path d="M45.901 80.114C45.759 80.114 45.615 80.084 45.478 80.022L41.947 78.414C41.433 78.18 41.206 77.573 41.44 77.059C41.674 76.545 42.281 76.318 42.795 76.552L46.326 78.16C46.84 78.394 47.067 79.001 46.833 79.515C46.661 79.892 46.289 80.114 45.901 80.114Z" fill="#D3C5C8"/>
<path d="M42.202 82.531C42.06 82.531 41.916 82.501 41.779 82.439L38.2479 80.831C37.7339 80.597 37.507 79.99 37.741 79.476C37.975 78.962 38.582 78.735 39.096 78.969L42.627 80.577C43.141 80.811 43.368 81.418 43.134 81.932C42.962 82.309 42.59 82.531 42.202 82.531Z" fill="#D3C5C8"/>
<path d="M36.4939 75.033C36.3519 75.033 36.208 75.003 36.071 74.941L32.54 73.333C32.026 73.099 31.7989 72.492 32.0329 71.978C32.2679 71.464 32.874 71.237 33.388 71.471L36.919 73.079C37.433 73.313 37.66 73.92 37.426 74.434C37.254 74.81 36.8829 75.033 36.4939 75.033Z" fill="#D3C5C8"/>
<path d="M36.482 80.955C36.34 80.955 36.196 80.925 36.059 80.863L32.528 79.255C32.014 79.021 31.787 78.414 32.021 77.9C32.255 77.386 32.862 77.159 33.376 77.393L36.907 79.001C37.421 79.235 37.648 79.842 37.414 80.356C37.242 80.732 36.871 80.955 36.482 80.955Z" fill="#D3C5C8"/>
<path d="M50.3219 64.99C50.1799 64.99 50.0359 64.96 49.8989 64.898L46.368 63.29C45.854 63.056 45.6269 62.449 45.8609 61.935C46.0949 61.421 46.702 61.194 47.216 61.428L50.747 63.036C51.261 63.27 51.488 63.877 51.254 64.391C51.082 64.767 50.7099 64.99 50.3219 64.99Z" fill="#D3C5C8"/>
<path d="M37.7439 80.291C37.3479 80.291 36.9719 80.06 36.8049 79.674C36.2559 78.407 34.445 78.659 34.368 78.671C33.812 78.753 33.29 78.371 33.204 77.815C33.118 77.259 33.496 76.738 34.051 76.65C36.765 76.217 38.238 77.837 38.682 78.861C38.907 79.379 38.668 79.982 38.15 80.207C38.018 80.264 37.8799 80.291 37.7439 80.291Z" fill="#EAE4E5"/>
<path d="M44.836 73.607C44.44 73.607 44.064 73.376 43.896 72.99C43.347 71.723 41.5361 71.975 41.4591 71.987C40.9031 72.069 40.3801 71.687 40.2951 71.131C40.2091 70.575 40.586 70.054 41.142 69.966C43.856 69.533 45.3291 71.153 45.7731 72.177C45.9981 72.695 45.759 73.298 45.241 73.523C45.109 73.58 44.971 73.607 44.836 73.607Z" fill="#EAE4E5"/>
<path d="M43.154 74.859C43.037 74.859 42.918 74.839 42.802 74.796C40.195 73.84 39.283 71.842 39.246 71.757C39.017 71.24 39.25 70.636 39.766 70.407C40.281 70.18 40.88 70.408 41.112 70.919C41.146 70.99 41.759 72.235 43.506 72.875C44.037 73.069 44.309 73.657 44.114 74.188C43.963 74.602 43.571 74.859 43.154 74.859Z" fill="white"/>
<path d="M51.504 73.871C51.204 73.871 50.907 73.74 50.705 73.488C50.655 73.428 49.754 72.372 47.903 72.182C47.341 72.124 46.932 71.621 46.99 71.059C47.048 70.497 47.549 70.087 48.112 70.146C50.874 70.431 52.25 72.143 52.307 72.216C52.656 72.66 52.579 73.303 52.135 73.653C51.948 73.8 51.725 73.871 51.504 73.871Z" fill="#EAE4E5"/>
<path d="M54.988 71.356C54.688 71.356 54.391 71.225 54.189 70.973C54.139 70.913 53.238 69.857 51.387 69.667C50.825 69.609 50.416 69.107 50.474 68.545C50.532 67.983 51.033 67.573 51.597 67.632C54.359 67.917 55.735 69.629 55.792 69.702C56.141 70.146 56.064 70.789 55.62 71.138C55.432 71.285 55.21 71.356 54.988 71.356Z" fill="#EAE4E5"/>
<path d="M43.416 76.282C43.116 76.282 42.819 76.151 42.617 75.899C42.567 75.839 41.666 74.783 39.816 74.593C39.254 74.535 38.845 74.032 38.903 73.471C38.961 72.909 39.462 72.499 40.025 72.558C42.787 72.843 44.163 74.555 44.22 74.628C44.569 75.072 44.492 75.715 44.048 76.064C43.86 76.21 43.637 76.282 43.416 76.282Z" fill="#EAE4E5"/>
<path d="M44.457 77.711C44.192 77.711 43.927 77.609 43.727 77.405C43.333 77.004 43.337 76.361 43.733 75.965C43.788 75.908 44.737 74.897 44.723 73.037C44.719 72.472 45.173 72.011 45.739 72.006C45.741 72.006 45.744 72.006 45.747 72.006C46.309 72.006 46.766 72.459 46.77 73.021C46.791 75.798 45.24 77.353 45.174 77.418C44.974 77.614 44.715 77.711 44.457 77.711Z" fill="white"/>
<path d="M38.529 72.05C38.264 72.05 37.999 71.948 37.799 71.744C37.405 71.343 37.409 70.7 37.805 70.304C37.86 70.247 38.81 69.236 38.795 67.376C38.791 66.811 39.245 66.35 39.811 66.345C39.814 66.345 39.816 66.345 39.819 66.345C40.38 66.345 40.838 66.798 40.842 67.361C40.863 70.137 39.312 71.693 39.246 71.758C39.047 71.953 38.788 72.05 38.529 72.05Z" fill="white"/>
<path d="M48.156 71.833C47.891 71.833 47.626 71.731 47.426 71.527C47.032 71.126 47.036 70.483 47.432 70.087C47.487 70.03 48.436 69.019 48.422 67.159C48.418 66.594 48.872 66.133 49.437 66.128C49.44 66.128 49.442 66.128 49.445 66.128C50.006 66.128 50.464 66.581 50.468 67.143C50.489 69.92 48.938 71.475 48.872 71.54C48.673 71.735 48.414 71.833 48.156 71.833Z" fill="white"/>
<path d="M47.989 70.807C47.961 70.807 47.933 70.806 47.905 70.804C45.137 70.58 43.725 68.898 43.666 68.826C43.307 68.39 43.37 67.745 43.807 67.386C44.241 67.029 44.881 67.089 45.241 67.519C45.291 67.577 46.215 68.614 48.071 68.764C48.634 68.81 49.054 69.303 49.008 69.866C48.964 70.402 48.517 70.807 47.989 70.807Z" fill="white"/>
<path d="M43.938 69.453C43.91 69.453 43.882 69.452 43.854 69.45C41.086 69.226 39.674 67.543 39.615 67.472C39.256 67.036 39.319 66.391 39.756 66.032C40.19 65.675 40.83 65.735 41.19 66.165C41.24 66.223 42.164 67.26 44.02 67.41C44.583 67.456 45.003 67.949 44.957 68.512C44.913 69.047 44.466 69.453 43.938 69.453Z" fill="white"/>
<path d="M53.355 71.999C53.213 71.999 53.069 71.969 52.932 71.907L49.401 70.299C48.887 70.065 48.66 69.458 48.894 68.944C49.128 68.43 49.735 68.203 50.249 68.437L53.78 70.045C54.294 70.279 54.521 70.886 54.287 71.4C54.115 71.776 53.743 71.999 53.355 71.999Z" fill="#D3C5C8"/>
<path d="M49.656 74.416C49.514 74.416 49.37 74.386 49.233 74.324L45.702 72.716C45.188 72.482 44.961 71.875 45.195 71.361C45.429 70.847 46.036 70.62 46.55 70.854L50.081 72.462C50.595 72.696 50.822 73.303 50.588 73.817C50.416 74.194 50.044 74.416 49.656 74.416Z" fill="#D3C5C8"/>
<path d="M48.1189 75.588C47.9769 75.588 47.833 75.558 47.696 75.496L44.165 73.888C43.651 73.654 43.4239 73.047 43.6579 72.533C43.8919 72.019 44.499 71.792 45.013 72.026L48.544 73.634C49.058 73.868 49.285 74.475 49.051 74.989C48.879 75.365 48.5079 75.588 48.1189 75.588Z" fill="#D3C5C8"/>
<path d="M39.976 64.99C39.834 64.99 39.69 64.96 39.553 64.898L36.022 63.29C35.508 63.056 35.281 62.449 35.515 61.935C35.749 61.421 36.356 61.194 36.87 61.428L40.401 63.036C40.915 63.27 41.142 63.877 40.908 64.391C40.736 64.767 40.365 64.99 39.976 64.99Z" fill="#D3C5C8"/>
<path d="M45.198 72.176C44.802 72.176 44.426 71.945 44.259 71.559C43.71 70.292 41.899 70.544 41.822 70.556C41.266 70.638 40.743 70.256 40.658 69.7C40.572 69.144 40.949 68.623 41.505 68.535C44.219 68.102 45.692 69.722 46.136 70.746C46.361 71.265 46.122 71.867 45.604 72.092C45.472 72.148 45.334 72.176 45.198 72.176Z" fill="#EAE4E5"/>
<path d="M47.664 68.849C47.269 68.849 46.892 68.618 46.725 68.232C46.176 66.965 44.365 67.217 44.288 67.229C43.732 67.311 43.209 66.929 43.124 66.373C43.038 65.817 43.415 65.296 43.971 65.208C46.685 64.775 48.158 66.395 48.602 67.419C48.827 67.937 48.588 68.54 48.07 68.765C47.938 68.822 47.8 68.849 47.664 68.849Z" fill="#EAE4E5"/>
<path d="M73.998 144.921L38.903 165.183V73.47L73.998 53.208V83.248V100.426V128.864V144.921Z" fill="#A48465"/>
<path d="M38.902 165.183L3.80701 144.921V53.208L38.902 73.47V165.183ZM11.944 78.356V98.974L27.952 108.216V87.598L11.944 78.356Z" fill="#CDAD8A"/>
<path d="M3.80701 53.207L38.902 32.945L73.997 53.207L38.902 73.469L3.80701 53.207Z" fill="#F0CFA8"/>
<path d="M11.944 98.974V78.356L27.952 87.598V108.216L11.944 98.974Z" fill="#E3D7CA"/>
<path d="M27.952 106.166C29.082 106.818 30.002 108.269 30.002 109.399C30.002 110.529 29.083 110.918 27.952 110.265C26.822 109.613 25.902 108.162 25.902 107.032C25.902 105.902 26.822 105.514 27.952 106.166ZM27.952 104.829C26.082 103.749 24.565 104.39 24.565 106.26C24.565 108.13 26.081 110.522 27.952 111.602C29.822 112.682 31.339 112.041 31.339 110.171C31.339 108.301 29.822 105.909 27.952 104.829Z" fill="#917559"/>
<path d="M46.841 77.696C46.862 77.487 46.837 77.266 46.837 77.266C46.837 77.266 46.537 77.651 46.46 77.884C46.455 77.9 46.451 77.914 46.447 77.929C44.475 79.213 44.365 81.167 44.365 81.167L44.383 81.156C44.427 80.974 44.55 80.791 44.697 80.706C44.843 80.621 44.967 80.663 45.011 80.793L45.048 80.772C45.092 80.59 45.216 80.406 45.363 80.322C45.509 80.238 45.633 80.279 45.677 80.409L45.714 80.388C45.758 80.206 45.882 80.022 46.028 79.938C46.175 79.853 46.299 79.894 46.343 80.025L46.38 80.004C46.406 79.9 46.458 79.795 46.525 79.709V82.28C46.525 82.416 46.432 82.58 46.318 82.646C46.204 82.712 46.111 82.655 46.111 82.519V82.107C46.111 81.995 46.035 81.949 45.941 82.003C45.847 82.057 45.771 82.191 45.771 82.303V82.715C45.771 83.074 46.016 83.225 46.317 83.051C46.618 82.877 46.863 82.444 46.863 82.085V79.514C46.93 79.523 46.982 79.567 47.007 79.642L47.044 79.621C47.088 79.44 47.212 79.255 47.359 79.171C47.505 79.087 47.629 79.128 47.673 79.258L47.709 79.237C47.754 79.055 47.877 78.871 48.024 78.787C48.17 78.703 48.295 78.743 48.339 78.874L48.375 78.853C48.419 78.671 48.543 78.488 48.689 78.403C48.836 78.318 48.959 78.36 49.003 78.49L49.021 78.479C49.021 78.479 48.862 76.621 46.841 77.696Z" fill="#63503D"/>
<path d="M45.606 78.311C45.701 78.311 45.818 78.19 45.895 77.957C45.972 77.724 45.929 77.337 45.929 77.337C45.929 77.337 45.629 77.722 45.552 77.955C45.474 78.188 45.511 78.31 45.606 78.311Z" fill="#63503D"/>
<path d="M46.358 77.472C46.453 77.473 46.57 77.351 46.647 77.118C46.724 76.885 46.68 76.498 46.68 76.498C46.68 76.498 46.38 76.883 46.303 77.116C46.227 77.349 46.264 77.472 46.358 77.472Z" fill="#63503D"/>
<path d="M48.189 76.091C48.112 76.324 48.148 76.446 48.243 76.447C48.338 76.447 48.455 76.326 48.532 76.093C48.609 75.86 48.565 75.473 48.565 75.473C48.565 75.473 48.266 75.858 48.189 76.091Z" fill="#63503D"/>
<path d="M48.307 76.99C48.23 77.223 48.266 77.345 48.361 77.346C48.456 77.346 48.573 77.225 48.65 76.992C48.727 76.759 48.684 76.372 48.684 76.372C48.684 76.372 48.385 76.757 48.307 76.99Z" fill="#63503D"/>
<path d="M47.199 76.486C47.294 76.487 47.411 76.365 47.488 76.132C47.565 75.899 47.522 75.512 47.522 75.512C47.522 75.512 47.222 75.897 47.145 76.13C47.067 76.363 47.104 76.486 47.199 76.486Z" fill="#63503D"/>
<path d="M47.36 76.911C47.283 77.144 47.319 77.266 47.414 77.267C47.509 77.268 47.626 77.146 47.703 76.913C47.78 76.68 47.737 76.293 47.737 76.293C47.737 76.293 47.438 76.678 47.36 76.911Z" fill="#63503D"/>
<path d="M48.028 75.603C48.123 75.604 48.24 75.482 48.317 75.249C48.394 75.016 48.35 74.629 48.35 74.629C48.35 74.629 48.05 75.014 47.973 75.247C47.896 75.48 47.933 75.603 48.028 75.603Z" fill="#63503D"/>
<path d="M50.398 81.634L42.989 85.911C42.921 85.95 42.866 85.916 42.866 85.835V77C42.866 76.919 42.921 76.822 42.989 76.783L50.398 72.505C50.466 72.466 50.521 72.5 50.521 72.58V81.415C50.521 81.498 50.466 81.595 50.398 81.634ZM43.112 85.548L50.275 81.412V72.869L43.112 77.005V85.548Z" fill="#63503D"/>
<path d="M50.398 83.233L42.989 87.511C42.921 87.55 42.866 87.647 42.866 87.728V96.563C42.866 96.644 42.921 96.678 42.989 96.639L50.398 92.362C50.466 92.323 50.521 92.226 50.521 92.145V83.31C50.521 83.228 50.466 83.194 50.398 83.233ZM50.275 92.139L43.112 96.275V87.732L50.275 83.596V92.139Z" fill="#63503D"/>
<path d="M46.48 89.739V92.312L45.52 93.266L46.48 92.712L46.846 92.501L47.836 91.929L46.846 92.101V89.534C47.34 89.213 47.785 88.702 48.114 88.121C48.47 87.492 48.69 86.779 48.69 86.131L46.165 87.589L45.94 88.119L46.359 88.077L45.643 89.526L45.765 88.638L45.521 88.579L45.664 87.878L44.699 88.435C44.698 89.656 45.481 90.206 46.48 89.739Z" fill="#63503D"/>
<path d="M56.4499 70.368L55.1699 71.988L56.4499 72.131L57.7299 70.51L56.4499 70.368Z" fill="#63503D"/>
<path d="M55.1389 73.592L56.4189 73.735V72.208L55.1389 72.066V73.592Z" fill="#63503D"/>
<path d="M57.769 70.548L56.489 72.168V73.694L57.769 72.074V70.548Z" fill="#63503D"/>
<path d="M54.9869 74.17C54.9259 74.124 54.8239 74.174 54.7539 74.285C54.7029 74.361 54.6879 74.408 54.6809 74.481C54.6729 74.568 54.6989 74.636 54.7469 74.669L55.3559 75.092C55.3919 75.117 55.3979 75.188 55.3629 75.256C55.3429 75.295 55.3149 75.325 55.2859 75.341C55.2589 75.357 55.2319 75.36 55.2119 75.346L54.6119 74.93C54.5759 74.905 54.5559 74.857 54.5559 74.794V74.195C54.5599 74.107 54.5559 74.024 54.5559 73.919V73.018C54.5559 72.82 54.422 72.738 54.256 72.833C54.09 72.929 53.9559 73.166 53.9559 73.364V75.026C53.9559 75.324 54.035 75.568 54.183 75.724L54.8439 76.419C54.9289 76.509 54.9749 76.65 54.9749 76.822V77.886L55.9259 77.337V75.505C55.9259 75.096 55.7989 74.776 55.5699 74.605L54.9869 74.17Z" fill="#63503D"/>
<path d="M58.6439 70.301C58.4779 70.397 58.3439 70.634 58.3439 70.832V72.608C58.3439 72.67 58.3239 72.742 58.2879 72.808L57.6879 73.916C57.6679 73.952 57.6409 73.981 57.6139 73.997C57.5849 74.013 57.5579 74.016 57.5369 74C57.5019 73.973 57.5069 73.895 57.5439 73.828L58.1519 72.703C58.1999 72.614 58.2249 72.518 58.2179 72.439C58.2119 72.373 58.1959 72.344 58.1449 72.326C58.0749 72.297 57.9729 72.365 57.9119 72.481L57.3289 73.589C57.0999 74.025 56.9729 74.492 56.9729 74.901V76.734L57.9239 76.185V75.121C57.9239 74.949 57.9699 74.755 58.0549 74.566L58.7159 73.108C58.8639 72.782 58.9429 72.446 58.9429 72.148V70.486C58.9439 70.288 58.8099 70.205 58.6439 70.301Z" fill="#63503D"/>
<path d="M60.1539 76.127L52.7449 80.404C52.6769 80.443 52.6219 80.409 52.6219 80.328V71.493C52.6219 71.412 52.6769 71.315 52.7449 71.276L60.1539 66.999C60.2219 66.96 60.2769 66.994 60.2769 67.074V75.909C60.2769 75.991 60.2219 76.088 60.1539 76.127ZM52.868 80.041L60.0309 75.905V67.362L52.868 71.498V80.041Z" fill="#63503D"/>
<path d="M67.8339 68.929V66.132L68.3939 65.809L67.3529 64.323L66.3109 67.011L66.8709 66.688V69.485L65.5059 70.273V67.476L66.0659 67.153L65.0239 65.667L63.9829 68.355L64.5429 68.032V70.829L63.7909 71.263V72.578L68.6209 69.789V68.474L67.8339 68.929Z" fill="#63503D"/>
<path d="M69.9099 70.509L62.5009 74.787C62.4329 74.826 62.3779 74.792 62.3779 74.711V65.876C62.3779 65.795 62.4329 65.698 62.5009 65.659L69.9099 61.381C69.9779 61.342 70.0329 61.376 70.0329 61.457V70.292C70.0329 70.373 69.9779 70.47 69.9099 70.509ZM62.6239 74.423L69.7869 70.287V61.744L62.6239 65.88V74.423Z" fill="#63503D"/>
<path d="M25.073 90.954C24.95 90.88 24.851 90.92 24.849 91.04C24.849 91.051 24.803 92.173 22.851 91.046C21.741 90.405 21.237 89.745 20.75 89.106C20.368 88.606 19.975 88.091 19.34 87.659C19.334 87.282 19.242 86.876 19.081 86.47C19.728 86.849 20.082 87.311 20.49 87.845C21.009 88.525 21.597 89.296 22.851 90.02C25.228 91.392 25.288 89.853 25.288 89.837C25.291 89.718 25.196 89.564 25.075 89.491C24.96 89.421 24.854 89.455 24.849 89.573C24.847 89.619 24.782 90.696 22.851 89.581C21.741 88.94 21.237 88.279 20.75 87.641C20.316 87.072 19.867 86.483 19.063 86.019C18.974 85.968 18.889 85.924 18.804 85.882C18.37 85.103 17.712 84.386 16.976 83.961C15.671 83.208 14.609 83.656 14.609 84.961C14.609 86.266 15.671 87.941 16.976 88.694C18.143 89.368 19.114 89.078 19.306 88.075C19.816 88.425 20.133 88.839 20.491 89.309C21.01 89.989 21.598 90.761 22.852 91.485C25.229 92.857 25.289 91.318 25.289 91.302C25.29 91.183 25.194 91.027 25.073 90.954ZM16.975 88.256C15.912 87.642 15.048 86.278 15.048 85.216C15.048 84.153 15.913 83.788 16.975 84.401C17.481 84.693 17.941 85.156 18.285 85.676C17.069 85.299 16.35 85.871 16.314 85.9C16.244 85.958 16.267 86.109 16.366 86.236C16.405 86.286 16.449 86.325 16.493 86.35C16.562 86.39 16.629 86.397 16.672 86.361C16.68 86.354 17.411 85.772 18.601 86.237C18.784 86.63 18.893 87.031 18.9 87.399C17.313 86.57 16.355 87.331 16.314 87.365C16.244 87.423 16.267 87.573 16.365 87.701C16.464 87.829 16.601 87.885 16.671 87.827C16.68 87.82 17.522 87.156 18.859 87.818C18.675 88.582 17.9 88.79 16.975 88.256Z" fill="#63503D"/>
<path d="M38.902 165.183L113.828 174.438L146.592 155.166L111.419 135.513L73.914 130.552L73.998 144.921L38.902 165.183Z" fill="#C2A49D"/>
<path d="M0.776001 22.681L38.881 44.681V75.558L0.776001 53.558V22.681Z" fill="#CDAD8A"/>
<path d="M0.754028 22.668L38.88 0.656006L77.007 22.668L38.88 44.681L0.754028 22.668Z" fill="#DEBD97"/>
<path d="M77.029 53.568L38.881 75.593V44.681L77.029 22.656V53.568Z" fill="#A48465"/>
<path d="M3.80701 55.308L6.39401 58.855L38.902 78.055L38.88 75.557L3.80701 55.308Z" fill="#C2A49D"/>
</svg>
