<svg width="178" height="187" viewBox="0 0 178 187" fill="none" xmlns="http://www.w3.org/2000/svg">
<path d="M31.903 143.344L62.482 148.049L124.304 110.509L95.973 94.352L89.714 93.03L31.903 143.344Z" fill="#C2A49D"/>
<path d="M31.904 54.484V143.345L20.228 136.6L13.937 132.972L0.184998 125.029V36.168L13.937 44.105V44.111L20.228 47.739L31.904 54.484Z" fill="#CDAD8A"/>
<path d="M93.061 108.035L31.903 143.344V54.482L93.061 19.173V108.035Z" fill="#A48465"/>
<path d="M93.064 19.172L31.904 54.484L20.228 47.739L13.931 44.105L0.184998 36.168L61.339 0.861023L75.09 8.79802L81.388 12.432L93.064 19.172Z" fill="#F0CFA8"/>
<path d="M79.978 11.487L18.819 46.794L12.521 43.16L73.681 7.85303L79.978 11.487Z" fill="#F0DCC5"/>
<path d="M14.321 31.776C14.212 31.696 14.046 31.62 14.046 31.62C14.046 31.62 13.972 31.817 14.037 31.916C14.042 31.923 14.047 31.9289 14.052 31.9349C12.777 32.7769 13.889 33.508 13.889 33.508L13.902 33.501C13.834 33.427 13.849 33.336 13.951 33.278C14.053 33.219 14.209 33.211 14.338 33.25L14.363 33.235C14.295 33.161 14.311 33.07 14.412 33.011C14.513 32.953 14.67 32.944 14.799 32.983L14.824 32.968C14.756 32.894 14.772 32.803 14.873 32.745C14.975 32.686 15.131 32.677 15.26 32.717L15.285 32.702C15.246 32.659 15.235 32.611 15.252 32.567L16.869 33.501C16.954 33.55 16.96 33.6279 16.881 33.6729C16.802 33.7189 16.668 33.715 16.583 33.666L16.324 33.516C16.254 33.475 16.144 33.473 16.079 33.51C16.014 33.547 16.018 33.611 16.089 33.651L16.348 33.801C16.574 33.932 16.927 33.939 17.136 33.819C17.345 33.699 17.331 33.4939 17.105 33.3639L15.488 32.43C15.565 32.421 15.647 32.4269 15.721 32.4489L15.746 32.4339C15.678 32.3599 15.694 32.269 15.795 32.21C15.896 32.152 16.053 32.143 16.182 32.182L16.207 32.168C16.14 32.093 16.155 32.003 16.256 31.945C16.358 31.886 16.514 31.877 16.643 31.917L16.668 31.902C16.6 31.828 16.615 31.737 16.717 31.679C16.819 31.62 16.975 31.612 17.104 31.651L17.117 31.6439C17.117 31.6439 15.779 31 14.321 31.776Z" fill="#7F6B59"/>
<path d="M13.403 32.234C13.504 32.216 13.551 32.15 13.486 32.05C13.421 31.951 13.131 31.818 13.131 31.818C13.131 31.818 13.057 32.015 13.122 32.114C13.187 32.215 13.302 32.252 13.403 32.234Z" fill="#7F6B59"/>
<path d="M13.67 31.786C13.77 31.768 13.818 31.702 13.753 31.602C13.688 31.502 13.398 31.37 13.398 31.37C13.398 31.37 13.324 31.567 13.389 31.666C13.454 31.767 13.57 31.804 13.67 31.786Z" fill="#7F6B59"/>
<path d="M14.735 30.936C14.8 31.035 14.915 31.073 15.016 31.055C15.116 31.037 15.164 30.971 15.099 30.871C15.034 30.772 14.744 30.639 14.744 30.639C14.744 30.639 14.67 30.836 14.735 30.936Z" fill="#7F6B59"/>
<path d="M15.426 31.24C15.491 31.339 15.607 31.377 15.707 31.359C15.807 31.341 15.855 31.275 15.79 31.175C15.725 31.076 15.435 30.943 15.435 30.943C15.435 30.943 15.361 31.141 15.426 31.24Z" fill="#7F6B59"/>
<path d="M13.937 31.268C14.037 31.25 14.085 31.184 14.02 31.084C13.955 30.985 13.665 30.852 13.665 30.852C13.665 30.852 13.591 31.049 13.656 31.148C13.721 31.248 13.837 31.286 13.937 31.268Z" fill="#7F6B59"/>
<path d="M14.375 31.392C14.44 31.491 14.555 31.529 14.656 31.511C14.757 31.493 14.804 31.427 14.739 31.327C14.674 31.228 14.384 31.095 14.384 31.095C14.384 31.095 14.31 31.292 14.375 31.392Z" fill="#7F6B59"/>
<path d="M14.258 30.789C14.359 30.771 14.406 30.705 14.341 30.605C14.276 30.506 13.986 30.373 13.986 30.373C13.986 30.373 13.912 30.57 13.977 30.669C14.042 30.77 14.157 30.807 14.258 30.789Z" fill="#7F6B59"/>
<path d="M20.556 32.529L15.421 35.494C15.374 35.521 15.295 35.519 15.244 35.49L9.68499 32.281C9.63399 32.252 9.631 32.206 9.678 32.179L14.814 29.214C14.861 29.187 14.94 29.189 14.991 29.218L20.55 32.427C20.6 32.456 20.603 32.502 20.556 32.529ZM15.322 35.338L20.287 32.471L14.912 29.368L9.94699 32.235L15.322 35.338Z" fill="#7F6B59"/>
<path d="M8.00698 33.112L2.872 36.077C2.825 36.104 2.82799 36.15 2.87899 36.179L8.43798 39.388C8.48898 39.417 8.56799 39.419 8.61499 39.392L13.751 36.427C13.798 36.4 13.795 36.354 13.744 36.325L8.18499 33.116C8.13299 33.086 8.05398 33.084 8.00698 33.112ZM13.481 36.37L8.51599 39.237L3.14099 36.134L8.10598 33.267L13.481 36.37Z" fill="#7F6B59"/>
<path d="M7.96201 36.221L9.58099 37.155L9.16699 37.684L9.832 37.3L10.085 37.154L10.772 36.758L9.83401 37.009L8.21899 36.076C8.53899 35.865 8.68801 35.595 8.66901 35.321C8.64901 35.024 8.43299 34.724 8.02499 34.489L6.27499 35.499L6.371 35.734L6.78699 35.639L6.94199 36.302L6.51199 35.956L6.21701 35.981L5.927 35.699L5.258 36.085C6.026 36.53 7.19901 36.581 7.96201 36.221Z" fill="#7F6B59"/>
<path d="M19.861 27.284L19.529 28.116L20.97 27.924L21.303 27.091L19.861 27.284Z" fill="#7F6B59"/>
<path d="M20.505 28.704L21.947 28.512L20.987 27.958L19.545 28.15L20.505 28.704Z" fill="#7F6B59"/>
<path d="M21.368 27.098L21.035 27.93L21.995 28.484L22.328 27.652L21.368 27.098Z" fill="#7F6B59"/>
<path d="M20.707 28.943C20.614 28.938 20.537 28.976 20.533 29.029C20.527 29.066 20.54 29.086 20.58 29.114C20.627 29.147 20.696 29.167 20.768 29.17L21.677 29.208C21.731 29.21 21.782 29.235 21.788 29.266C21.791 29.284 21.781 29.3 21.761 29.312C21.742 29.323 21.715 29.329 21.686 29.328L20.791 29.291C20.738 29.289 20.686 29.275 20.647 29.252L20.27 29.034C20.219 29.001 20.162 28.972 20.096 28.934L19.529 28.607C19.405 28.535 19.211 28.531 19.096 28.597C18.981 28.663 18.989 28.775 19.113 28.847L20.159 29.451C20.347 29.559 20.584 29.633 20.838 29.661L21.973 29.788C22.12 29.804 22.257 29.847 22.365 29.909L23.034 30.295L23.693 29.914L22.54 29.249C22.283 29.101 21.947 29.008 21.597 28.99L20.707 28.943Z" fill="#7F6B59"/>
<path d="M22.137 26.841C22.022 26.907 22.03 27.019 22.154 27.091L23.271 27.736C23.31 27.759 23.3341 27.788 23.3381 27.819L23.402 28.336C23.404 28.353 23.393 28.368 23.375 28.379C23.355 28.39 23.327 28.397 23.296 28.395C23.241 28.392 23.198 28.363 23.195 28.331L23.13 27.806C23.125 27.765 23.091 27.725 23.034 27.698C22.986 27.675 22.951 27.668 22.887 27.671C22.795 27.674 22.729 27.718 22.738 27.772L22.82 28.285C22.852 28.487 23.0121 28.681 23.2691 28.829L24.422 29.495L25.081 29.114L24.412 28.728C24.304 28.665 24.23 28.586 24.202 28.502L23.982 27.847C23.933 27.701 23.8061 27.563 23.6181 27.455L22.572 26.851C22.446 26.779 22.252 26.775 22.137 26.841Z" fill="#7F6B59"/>
<path d="M27.398 28.67L22.262 31.635C22.215 31.662 22.136 31.66 22.085 31.631L16.526 28.422C16.475 28.393 16.472 28.347 16.519 28.32L21.654 25.355C21.701 25.328 21.78 25.33 21.831 25.359L27.39 28.568C27.442 28.597 27.445 28.643 27.398 28.67ZM22.163 31.479L27.129 28.612L21.754 25.509L16.789 28.376L22.163 31.479Z" fill="#7F6B59"/>
<path d="M30.982 24.592L29.222 23.576L29.611 23.352L27.575 23.011L28.167 24.186L28.555 23.962L30.315 24.978L29.368 25.524L27.609 24.508L27.997 24.284L25.962 23.942L26.553 25.118L26.941 24.893L28.701 25.909L28.179 26.211L29.007 26.688L32.355 24.755L31.528 24.277L30.982 24.592Z" fill="#7F6B59"/>
<path d="M34.1701 24.771L29.034 27.736C28.987 27.763 28.908 27.761 28.857 27.732L23.298 24.523C23.247 24.494 23.244 24.448 23.291 24.421L28.426 21.456C28.473 21.429 28.552 21.431 28.603 21.46L34.162 24.669C34.214 24.698 34.2171 24.744 34.1701 24.771ZM28.935 27.58L33.9 24.713L28.526 21.61L23.56 24.477L28.935 27.58Z" fill="#7F6B59"/>
<path d="M76.296 9.93401C76.099 9.82001 75.78 9.82001 75.583 9.93301C61.21 18.161 29.268 36.709 16.202 44.301C16.006 44.415 16.006 44.599 16.203 44.713L16.204 44.714C16.402 44.828 16.722 44.827 16.918 44.713C29.984 37.121 61.923 18.575 76.294 10.348C76.492 10.235 76.494 10.05 76.297 9.93601C76.297 9.93401 76.296 9.93401 76.296 9.93401Z" fill="#E6D3BD"/>
<path d="M0.699005 37.244L31.413 54.977C31.492 55.023 31.556 54.996 31.556 54.917C31.556 54.838 31.492 54.737 31.413 54.692L0.699005 36.959C0.620005 36.913 0.556 36.94 0.556 37.019C0.556 37.097 0.620005 37.198 0.699005 37.244Z" fill="#B29778"/>
<path d="M18.819 46.794V135.655L12.527 132.026V43.16L18.819 46.794Z" fill="#E0C5A4"/>
<path d="M67.65 44.908L59.751 49.469C58.431 50.231 57.36 49.779 57.36 48.459C57.36 47.139 58.43 45.451 59.751 44.688L67.65 40.127C68.97 39.365 70.041 39.817 70.041 41.138C70.041 42.458 68.97 44.146 67.65 44.908Z" fill="#63503D"/>
<path d="M56.49 81.224L36.758 92.616V81.293L56.49 69.901V81.224Z" fill="#C5B9AB"/>
<path d="M52.022 62.46L38.863 70.058V68.783L52.022 61.185V62.46Z" fill="#63503D"/>
<path d="M52.022 64.418L38.863 72.016V71.378L52.022 63.781V64.418Z" fill="#63503D"/>
<path d="M52.022 65.534L38.863 73.131V72.494L52.022 64.896V65.534Z" fill="#63503D"/>
<path d="M52.022 66.649L38.863 74.247V73.609L52.022 66.011V66.649Z" fill="#63503D"/>
<path d="M48.375 69.87L38.863 75.362V74.725L48.375 69.233V69.87Z" fill="#63503D"/>
<path d="M56.49 79.476C57.473 78.908 58.273 79.247 58.273 80.229C58.273 81.212 57.473 82.473 56.49 83.041C55.507 83.609 54.707 83.27 54.707 82.287C54.707 81.304 55.507 80.043 56.49 79.476ZM56.49 78.313C54.863 79.252 53.544 81.333 53.544 82.959C53.544 84.586 54.863 85.143 56.49 84.204C58.117 83.265 59.436 81.184 59.436 79.558C59.436 77.931 58.117 77.374 56.49 78.313Z" fill="#917559"/>
<path d="M67.308 182.495L94.725 186.713L177.04 139.888L146.102 122.244L138.404 120.617L67.308 182.495Z" fill="#C2A49D"/>
<path d="M67.308 141.477V182.495L19.996 155.181V114.163L67.308 141.477Z" fill="#CDAD8A"/>
<path d="M143.853 138.3L67.306 182.495V141.476L143.853 97.281V138.3Z" fill="#A48465"/>
<path d="M143.853 97.281L72.3 138.594L67.308 141.477L20.001 114.163L24.993 111.279L96.546 69.966L143.853 97.281Z" fill="#F0CFA8"/>
<path d="M67.308 146.472V141.477L143.853 97.281V102.275L67.308 146.472Z" fill="#BB9673"/>
<path d="M67.308 141.477L62.313 138.594L138.857 94.399L143.851 97.282L67.308 141.477Z" fill="#F0DCC5"/>
<path d="M24.991 117.046L19.996 114.163L96.54 69.968L101.534 72.851L24.991 117.046Z" fill="#F0DCC5"/>
<path d="M72.3 138.594L67.308 141.477L20.001 114.163L24.993 111.279L72.3 138.594Z" fill="#F0DCC5"/>
<path d="M143.853 97.281L138.861 100.165L91.5549 72.85L96.5469 69.967L143.853 97.281Z" fill="#F0DCC5"/>
<path d="M67.308 141.477V146.47L19.996 119.155V114.163L67.308 141.477Z" fill="#E0C5A4"/>
<path d="M143.344 98.802L67.96 142.291C67.864 142.346 67.787 142.313 67.787 142.218C67.787 142.122 67.864 142 67.96 141.945L143.344 98.456C143.439 98.401 143.517 98.434 143.517 98.529C143.517 98.624 143.439 98.747 143.344 98.802Z" fill="#A48465"/>
<path d="M48.348 140.596C48.363 140.463 48.345 140.283 48.345 140.283C48.345 140.283 48.129 140.311 48.073 140.415C48.069 140.422 48.067 140.429 48.064 140.437C46.643 139.722 46.563 141.038 46.563 141.038L46.576 141.046C46.608 140.952 46.697 140.922 46.803 140.983C46.909 141.044 46.997 141.176 47.029 141.307L47.055 141.322C47.087 141.228 47.176 141.198 47.282 141.259C47.387 141.32 47.477 141.452 47.508 141.583L47.534 141.598C47.566 141.504 47.655 141.474 47.76 141.535C47.866 141.596 47.955 141.729 47.987 141.86L48.013 141.875C48.031 141.821 48.069 141.789 48.117 141.782V143.635C48.117 143.733 48.05 143.774 47.968 143.727C47.886 143.679 47.819 143.561 47.819 143.463V143.166C47.819 143.086 47.764 142.989 47.697 142.95C47.63 142.911 47.575 142.945 47.575 143.025V143.322C47.575 143.581 47.752 143.893 47.968 144.018C48.185 144.143 48.362 144.035 48.362 143.776V141.923C48.41 141.985 48.448 142.061 48.466 142.136L48.492 142.151C48.524 142.057 48.613 142.027 48.719 142.088C48.824 142.149 48.914 142.281 48.945 142.412L48.971 142.427C49.003 142.333 49.092 142.303 49.198 142.364C49.304 142.425 49.393 142.558 49.425 142.689L49.451 142.704C49.483 142.61 49.572 142.58 49.677 142.641C49.783 142.702 49.872 142.834 49.903 142.965L49.916 142.973C49.92 142.975 49.805 141.503 48.348 140.596Z" fill="#7F6B59"/>
<path d="M47.458 140.01C47.526 140.089 47.611 140.099 47.667 139.996C47.723 139.892 47.691 139.577 47.691 139.577C47.691 139.577 47.475 139.605 47.419 139.709C47.363 139.813 47.389 139.931 47.458 140.01Z" fill="#7F6B59"/>
<path d="M48 140.033C48.068 140.112 48.1531 140.122 48.2091 140.019C48.2651 139.916 48.233 139.6 48.233 139.6C48.233 139.6 48.017 139.628 47.961 139.732C47.906 139.835 47.932 139.953 48 140.033Z" fill="#7F6B59"/>
<path d="M49.32 140.561C49.264 140.665 49.29 140.783 49.359 140.862C49.427 140.941 49.512 140.951 49.568 140.848C49.624 140.744 49.592 140.429 49.592 140.429C49.592 140.429 49.376 140.457 49.32 140.561Z" fill="#7F6B59"/>
<path d="M49.405 141.307C49.349 141.411 49.376 141.529 49.444 141.609C49.512 141.688 49.597 141.698 49.653 141.595C49.709 141.491 49.677 141.176 49.677 141.176C49.677 141.176 49.461 141.204 49.405 141.307Z" fill="#7F6B59"/>
<path d="M48.6059 140.021C48.6739 140.1 48.759 140.11 48.815 140.007C48.871 139.903 48.8389 139.588 48.8389 139.588C48.8389 139.588 48.6229 139.616 48.5669 139.72C48.5109 139.823 48.5379 139.942 48.6059 140.021Z" fill="#7F6B59"/>
<path d="M48.722 140.462C48.666 140.566 48.693 140.684 48.761 140.764C48.829 140.843 48.914 140.853 48.97 140.75C49.026 140.646 48.994 140.331 48.994 140.331C48.994 140.331 48.778 140.358 48.722 140.462Z" fill="#7F6B59"/>
<path d="M49.203 140.075C49.271 140.154 49.356 140.164 49.412 140.061C49.468 139.957 49.436 139.642 49.436 139.642C49.436 139.642 49.22 139.67 49.164 139.774C49.109 139.877 49.135 139.995 49.203 140.075Z" fill="#7F6B59"/>
<path d="M50.912 146.395L45.572 143.312C45.523 143.284 45.484 143.214 45.484 143.156V136.788C45.484 136.73 45.523 136.705 45.572 136.734L50.912 139.817C50.961 139.845 51 139.915 51 139.973V146.341C51 146.399 50.961 146.423 50.912 146.395ZM45.66 143.152L50.824 146.133V139.975L45.66 136.994V143.152Z" fill="#7F6B59"/>
<path d="M50.912 147.547L45.572 144.464C45.523 144.436 45.484 144.46 45.484 144.518V150.887C45.484 150.945 45.523 151.015 45.572 151.043L50.912 154.126C50.961 154.154 51 154.13 51 154.072V147.703C51 147.645 50.961 147.576 50.912 147.547ZM50.824 153.865L45.66 150.884V144.726L50.824 147.707V153.865Z" fill="#7F6B59"/>
<path d="M48.088 148.976V150.83L47.396 150.719L48.088 151.119L48.352 151.271L49.066 151.683L48.352 150.983V149.133C48.708 149.313 49.029 149.315 49.266 149.169C49.523 149.012 49.681 148.681 49.681 148.214L47.861 147.163L47.699 147.358L48.001 147.677L47.485 148.125L47.573 147.587L47.397 147.341L47.5 146.955L46.804 146.553C46.803 147.433 47.367 148.481 48.088 148.976Z" fill="#7F6B59"/>
<path d="M55.274 143.311L54.3521 143.413L55.274 144.581L56.1971 144.479L55.274 143.311Z" fill="#7F6B59"/>
<path d="M54.33 144.544L55.252 145.712V144.612L54.33 143.444V144.544Z" fill="#7F6B59"/>
<path d="M56.225 144.538L55.303 144.641V145.741L56.225 145.639V144.538Z" fill="#7F6B59"/>
<path d="M54.219 144.834C54.175 144.75 54.101 144.701 54.051 144.722C54.014 144.735 54.003 144.755 53.999 144.803C53.994 144.859 54.012 144.929 54.046 144.993L54.485 145.804C54.511 145.852 54.515 145.908 54.49 145.928C54.475 145.939 54.455 145.938 54.435 145.926C54.415 145.915 54.396 145.894 54.382 145.868L53.95 145.069C53.924 145.021 53.91 144.97 53.91 144.925V144.493C53.913 144.433 53.91 144.369 53.91 144.294V143.645C53.91 143.503 53.813 143.331 53.694 143.262C53.575 143.193 53.478 143.253 53.478 143.395V144.593C53.478 144.808 53.535 145.05 53.642 145.285L54.118 146.336C54.179 146.472 54.212 146.612 54.212 146.736V147.503L54.898 147.899V146.578C54.898 146.284 54.806 145.947 54.641 145.633L54.219 144.834Z" fill="#7F6B59"/>
<path d="M56.856 145.089C56.737 145.02 56.6401 145.08 56.6401 145.222V146.502C56.6401 146.547 56.6261 146.582 56.6001 146.6L56.1681 146.9C56.1541 146.91 56.1341 146.908 56.1151 146.897C56.0941 146.885 56.0741 146.864 56.0601 146.835C56.0351 146.786 56.0381 146.735 56.0651 146.717L56.5041 146.412C56.5391 146.388 56.5571 146.339 56.5511 146.277C56.5471 146.224 56.5351 146.19 56.4991 146.136C56.4491 146.057 56.3751 146.021 56.3311 146.053L55.9111 146.367C55.7461 146.49 55.6541 146.722 55.6541 147.016V148.337L56.3391 148.733V147.966C56.3391 147.842 56.3721 147.74 56.4341 147.675L56.9101 147.174C57.0161 147.062 57.0741 146.886 57.0741 146.671V145.473C57.0721 145.329 56.975 145.158 56.856 145.089Z" fill="#7F6B59"/>
<path d="M57.944 150.545L52.604 147.462C52.555 147.434 52.516 147.364 52.516 147.306V140.937C52.516 140.879 52.556 140.854 52.604 140.883L57.944 143.966C57.993 143.994 58.032 144.064 58.032 144.123V150.491C58.033 150.549 57.993 150.574 57.944 150.545ZM52.693 147.302L57.856 150.283V144.125L52.693 141.144V147.302Z" fill="#7F6B59"/>
<path d="M63.48 151.749V149.733L63.884 149.966L63.133 148.028L62.382 149.099L62.786 149.332V151.348L61.802 150.78V148.764L62.206 148.997L61.455 147.059L60.704 148.13L61.108 148.363V150.38L60.566 150.066V151.014L64.048 153.025V152.077L63.48 151.749Z" fill="#7F6B59"/>
<path d="M64.977 154.617L59.637 151.534C59.588 151.506 59.548 151.436 59.548 151.377V145.009C59.548 144.951 59.588 144.926 59.637 144.955L64.977 148.038C65.026 148.066 65.065 148.136 65.065 148.194V154.563C65.065 154.62 65.026 154.645 64.977 154.617ZM59.725 151.373L64.889 154.354V148.196L59.725 145.215V151.373Z" fill="#7F6B59"/>
<path d="M133.921 124.585C133.761 124.674 133.632 124.874 133.629 125.034C133.629 125.049 133.569 126.58 131.026 128.048C129.58 128.883 128.923 128.78 128.289 128.681C127.792 128.604 127.28 128.524 126.453 128.916C126.446 128.433 126.325 128.044 126.116 127.757C126.959 127.277 127.42 127.347 127.951 127.43C128.627 127.536 129.393 127.655 131.027 126.712C134.123 124.924 134.201 122.828 134.202 122.808C134.205 122.649 134.081 122.592 133.924 122.678C133.774 122.76 133.636 122.964 133.63 123.124C133.628 123.187 133.542 124.688 131.027 126.14C129.581 126.975 128.924 126.872 128.29 126.773C127.724 126.684 127.139 126.593 126.092 127.197C125.977 127.264 125.865 127.336 125.754 127.409C125.188 127.048 124.331 127.104 123.373 127.657C121.673 128.639 120.29 130.82 120.29 132.52C120.29 134.22 121.673 134.804 123.373 133.823C124.894 132.945 126.157 131.107 126.408 129.513C127.073 129.202 127.485 129.265 127.951 129.338C128.627 129.443 129.393 129.563 131.027 128.62C134.123 126.832 134.201 124.737 134.202 124.716C134.205 124.556 134.079 124.498 133.921 124.585ZM123.373 133.251C121.989 134.05 120.862 133.574 120.862 132.19C120.862 130.806 121.988 129.029 123.373 128.23C124.032 127.849 124.631 127.761 125.08 127.919C123.496 129.257 122.559 131.083 122.513 131.175C122.422 131.357 122.452 131.518 122.58 131.535C122.63 131.542 122.688 131.526 122.745 131.493C122.834 131.441 122.923 131.349 122.978 131.238C122.989 131.217 123.941 129.359 125.49 128.175C125.728 128.412 125.87 128.771 125.88 129.238C123.813 130.544 122.565 132.976 122.512 133.083C122.421 133.264 122.451 133.425 122.579 133.443C122.708 133.46 122.886 133.327 122.978 133.146C122.989 133.123 124.087 130.991 125.828 129.844C125.588 131.118 124.579 132.555 123.373 133.251Z" fill="#63503D"/>
<path d="M102.467 139.833L86.5 149.051V147.504L102.467 138.286V139.833Z" fill="#63503D"/>
<path d="M102.467 142.208L86.5 151.427V150.653L102.467 141.435V142.208Z" fill="#63503D"/>
<path d="M102.467 143.562L86.5 152.78V152.007L102.467 142.788V143.562Z" fill="#63503D"/>
<path d="M102.467 144.915L86.5 154.134V153.36L102.467 144.142V144.915Z" fill="#63503D"/>
<path d="M98.042 148.824L86.5 155.487V154.714L98.042 148.05V148.824Z" fill="#63503D"/>
<path d="M91.809 124.266L95.998 124.91L143.853 97.2811L135.855 92.6631L131.953 87.9911L91.809 124.266Z" fill="#C2A49D"/>
<path d="M91.809 81.5951V124.266L69.785 111.55L64.06 108.243L47.762 98.8351V56.1631L64.06 65.5721L69.785 68.8791L91.809 81.5951Z" fill="#CDAD8A"/>
<path d="M135.855 56.1631V98.8351L119.012 108.561L113.287 111.863L91.809 124.266V81.5951L113.287 69.1911L119.012 65.8891L135.855 56.1631Z" fill="#A48465"/>
<path d="M135.855 56.1631L91.809 81.5951L69.949 68.9691H69.944L64.218 65.6671L47.762 56.1631L69.351 43.6971L75.082 40.3891L91.809 30.7321L108.265 40.2361L113.991 43.5381L135.855 56.1631Z" fill="#F0CFA8"/>
<path d="M69.7849 68.8791V111.55L64.0599 108.243V65.5721L69.7849 68.8791Z" fill="#E0C5A4"/>
<path d="M119.012 65.8841L113.287 69.1911L91.539 56.6341L85.808 53.3271L69.199 43.7571L74.93 40.4501L91.539 50.0201L97.264 53.3271L119.012 65.8841Z" fill="#F0DCC5"/>
<path d="M113.922 43.469L97.196 53.132L91.47 56.439H91.465L69.881 68.901H69.875L69.717 68.996L63.991 65.689L64.15 65.599L85.74 53.132L91.47 49.825L108.197 40.168L113.922 43.469Z" fill="#F0DCC5"/>
<path d="M135.243 57.6561L92.61 82.2701C92.5 82.3331 92.411 82.2961 92.411 82.1861C92.411 82.0761 92.5 81.9361 92.61 81.8731L135.243 57.2591C135.353 57.1961 135.441 57.2331 135.441 57.3431C135.441 57.4531 135.352 57.5931 135.243 57.6561Z" fill="#8F6E4F"/>
<path d="M119.012 65.889V108.561L113.287 111.863V69.191L119.012 65.889Z" fill="#BB9673"/>
<path d="M115.87 67.47C115.727 67.553 115.495 67.553 115.352 67.471C104.897 61.486 81.662 47.994 72.157 42.471C72.014 42.388 72.015 42.254 72.158 42.172H72.159C72.303 42.089 72.536 42.09 72.679 42.173C82.183 47.696 105.417 61.187 115.87 67.171C116.014 67.253 116.015 67.388 115.872 67.471L115.87 67.47Z" fill="#E6D3BD"/>
<path d="M130.564 65.095C130.58 64.939 130.561 64.773 130.561 64.773C130.561 64.773 130.337 65.061 130.279 65.236C130.275 65.248 130.272 65.258 130.269 65.27C128.792 66.232 128.71 67.694 128.71 67.694L128.724 67.686C128.757 67.55 128.849 67.412 128.959 67.349C129.069 67.286 129.161 67.316 129.194 67.414L129.221 67.398C129.254 67.262 129.347 67.124 129.457 67.061C129.566 66.998 129.659 67.028 129.692 67.126L129.719 67.11C129.752 66.974 129.845 66.836 129.954 66.773C130.064 66.71 130.157 66.74 130.19 66.838L130.217 66.822C130.236 66.744 130.275 66.666 130.325 66.601V68.526C130.325 68.628 130.256 68.751 130.17 68.8C130.085 68.849 130.015 68.807 130.015 68.705V68.396C130.015 68.312 129.958 68.278 129.888 68.318C129.818 68.359 129.761 68.459 129.761 68.543V68.852C129.761 69.121 129.944 69.234 130.17 69.104C130.395 68.974 130.579 68.649 130.579 68.38V66.455C130.629 66.462 130.668 66.495 130.687 66.551L130.715 66.535C130.748 66.399 130.841 66.261 130.951 66.198C131.06 66.135 131.153 66.165 131.186 66.263L131.213 66.248C131.247 66.112 131.339 65.974 131.449 65.911C131.559 65.848 131.652 65.878 131.685 65.976L131.712 65.96C131.745 65.824 131.838 65.687 131.947 65.623C132.057 65.56 132.149 65.59 132.182 65.688L132.196 65.68C132.196 65.68 132.077 64.29 130.564 65.095Z" fill="#7F6B59"/>
<path d="M129.639 65.5551C129.71 65.5551 129.798 65.4641 129.856 65.2901C129.914 65.1151 129.881 64.826 129.881 64.826C129.881 64.826 129.657 65.1141 129.599 65.2891C129.541 65.4631 129.568 65.5541 129.639 65.5551Z" fill="#7F6B59"/>
<path d="M130.203 64.927C130.274 64.927 130.362 64.837 130.42 64.662C130.478 64.487 130.445 64.198 130.445 64.198C130.445 64.198 130.221 64.486 130.163 64.661C130.104 64.835 130.132 64.926 130.203 64.927Z" fill="#7F6B59"/>
<path d="M131.574 63.892C131.516 64.066 131.543 64.158 131.614 64.158C131.685 64.158 131.773 64.068 131.831 63.893C131.889 63.718 131.856 63.429 131.856 63.429C131.856 63.429 131.631 63.718 131.574 63.892Z" fill="#7F6B59"/>
<path d="M131.662 64.566C131.604 64.74 131.632 64.832 131.702 64.832C131.773 64.833 131.861 64.742 131.919 64.567C131.977 64.392 131.944 64.103 131.944 64.103C131.944 64.103 131.72 64.391 131.662 64.566Z" fill="#7F6B59"/>
<path d="M130.832 64.189C130.903 64.189 130.991 64.098 131.049 63.924C131.107 63.75 131.074 63.46 131.074 63.46C131.074 63.46 130.85 63.748 130.792 63.923C130.733 64.096 130.761 64.188 130.832 64.189Z" fill="#7F6B59"/>
<path d="M130.953 64.507C130.895 64.681 130.922 64.773 130.993 64.773C131.064 64.773 131.152 64.683 131.21 64.508C131.268 64.333 131.235 64.044 131.235 64.044C131.235 64.044 131.011 64.332 130.953 64.507Z" fill="#7F6B59"/>
<path d="M131.453 63.527C131.524 63.527 131.612 63.436 131.67 63.262C131.728 63.087 131.695 62.798 131.695 62.798C131.695 62.798 131.471 63.086 131.413 63.261C131.354 63.436 131.382 63.527 131.453 63.527Z" fill="#7F6B59"/>
<path d="M133.227 68.043L127.68 71.246C127.629 71.275 127.588 71.25 127.588 71.189V64.574C127.588 64.513 127.629 64.441 127.68 64.411L133.227 61.208C133.278 61.179 133.319 61.204 133.319 61.265V67.881C133.319 67.941 133.278 68.014 133.227 68.043ZM127.772 70.974L133.136 67.877V61.481L127.772 64.578V70.974Z" fill="#7F6B59"/>
<path d="M126.509 65.074L120.961 68.277C120.91 68.306 120.869 68.379 120.869 68.44V75.055C120.869 75.116 120.91 75.141 120.961 75.112L126.509 71.909C126.56 71.88 126.601 71.807 126.601 71.746V65.131C126.601 65.07 126.56 65.045 126.509 65.074ZM126.417 71.742L121.053 74.839V68.443L126.417 65.346V71.742Z" fill="#7F6B59"/>
<path d="M123.576 69.946V71.872L122.857 72.586L123.576 72.1711L123.85 72.013L124.591 71.5851L123.85 71.7141V69.792C124.22 69.551 124.553 69.169 124.799 68.734C125.066 68.263 125.23 67.729 125.23 67.244L123.339 68.336L123.171 68.733L123.485 68.702L122.949 69.787L123.04 69.122L122.858 69.078L122.965 68.553L122.242 68.97C122.241 69.883 122.827 70.295 123.576 69.946Z" fill="#7F6B59"/>
<path d="M123.735 75.6431L122.777 76.8571L123.735 76.9631L124.694 75.7501L123.735 75.6431Z" fill="#7F6B59"/>
<path d="M122.754 78.058L123.712 78.164V77.021L122.754 76.915V78.058Z" fill="#7F6B59"/>
<path d="M124.723 75.778L123.765 76.991V78.134L124.723 76.9211V75.778Z" fill="#7F6B59"/>
<path d="M122.64 78.4901C122.594 78.4561 122.518 78.4931 122.465 78.5761C122.427 78.6331 122.415 78.6681 122.411 78.7231C122.405 78.7881 122.424 78.8391 122.46 78.8641L122.916 79.1811C122.943 79.2001 122.947 79.2531 122.921 79.3041C122.906 79.3331 122.885 79.356 122.864 79.368C122.844 79.38 122.823 79.3821 122.809 79.3711L122.36 79.06C122.333 79.042 122.318 79.005 122.318 78.958V78.5091C122.321 78.4431 122.318 78.381 122.318 78.303V77.629C122.318 77.481 122.217 77.419 122.093 77.491C121.969 77.563 121.868 77.7411 121.868 77.8891V79.133C121.868 79.356 121.928 79.5391 122.038 79.6551L122.533 80.176C122.597 80.243 122.631 80.349 122.631 80.478V81.275L123.343 80.8641V79.4921C123.343 79.1861 123.248 78.946 123.076 78.818L122.64 78.4901Z" fill="#7F6B59"/>
<path d="M125.378 75.593C125.254 75.665 125.153 75.843 125.153 75.991V77.3201C125.153 77.3671 125.138 77.42 125.111 77.47L124.662 78.3C124.647 78.327 124.627 78.349 124.607 78.361C124.586 78.373 124.565 78.3751 124.55 78.3631C124.524 78.3431 124.528 78.284 124.555 78.234L125.011 77.3911C125.047 77.3251 125.066 77.252 125.06 77.194C125.055 77.145 125.044 77.123 125.006 77.11C124.954 77.088 124.877 77.139 124.831 77.226L124.395 78.056C124.223 78.382 124.128 78.732 124.128 79.038V80.41L124.84 79.999V79.202C124.84 79.073 124.874 78.928 124.938 78.787L125.433 77.6951C125.544 77.4511 125.603 77.199 125.603 76.976V75.732C125.603 75.583 125.502 75.521 125.378 75.593Z" fill="#7F6B59"/>
<path d="M126.509 79.955L120.961 83.158C120.91 83.187 120.869 83.162 120.869 83.102V76.486C120.869 76.425 120.91 76.353 120.961 76.323L126.509 73.12C126.56 73.091 126.601 73.116 126.601 73.177V79.793C126.601 79.853 126.56 79.926 126.509 79.955ZM121.053 82.886L126.417 79.789V73.393L121.053 76.49V82.886Z" fill="#7F6B59"/>
<path d="M131.673 75.0791V72.9851L132.092 72.7431L131.312 71.6301L130.532 73.6431L130.952 73.4011V75.4961L129.929 76.0861V73.9911L130.349 73.7491L129.569 72.6371L128.789 74.6501L129.209 74.4081V76.5021L128.645 76.8271V77.8121L132.262 75.7241V74.7391L131.673 75.0791Z" fill="#7F6B59"/>
<path d="M133.227 76.2631L127.68 79.4661C127.629 79.4951 127.588 79.47 127.588 79.409V72.7931C127.588 72.7321 127.629 72.6601 127.68 72.6301L133.227 69.4271C133.278 69.3981 133.319 69.4231 133.319 69.4831V76.0991C133.319 76.1611 133.278 76.2341 133.227 76.2631ZM127.772 79.193L133.136 76.096V69.7001L127.772 72.7971V79.193Z" fill="#7F6B59"/>
<path d="M31.965 107.012H61.926L61.407 64.044L47.762 56.163V98.132L31.965 107.012Z" fill="#C2A49D"/>
</svg>
