<svg width="168" height="165" viewBox="0 0 168 165" fill="none" xmlns="http://www.w3.org/2000/svg">
<path d="M68.302 38.246L35.794 57.015V25.668L68.302 38.246Z" fill="#CDAD8A"/>
<path d="M3.285 38.246L35.793 25.668V57.015L3.285 38.246Z" fill="#A48465"/>
<path d="M123.566 105.723L83.24 123.331V94.893L123.566 77.285V105.723Z" fill="#A48465"/>
<path d="M123.566 77.285L83.24 94.893L70.889 85.464V68.286L96.901 56.928L123.566 77.285Z" fill="#DEBD97"/>
<path d="M83.24 94.893V123.331L70.889 113.902V85.464L83.24 94.893Z" fill="#B89879"/>
<path d="M70.889 129.96L35.794 150.222V58.509L70.889 38.247V68.287V85.465V113.903V129.96Z" fill="#A48465"/>
<path d="M35.794 150.222L0.697998 129.96V38.247L35.793 58.509L35.794 150.222ZM8.835 63.395V84.013L24.843 93.255V72.637L8.835 63.395Z" fill="#CDAD8A"/>
<path d="M0.697998 38.246L35.793 24.174L70.888 38.246L35.793 58.508L0.697998 38.246ZM35.794 57.015L68.302 38.246L35.794 25.668L3.286 38.246L35.794 57.015Z" fill="#F0CFA8"/>
<path d="M8.83499 84.013V63.395L24.843 72.637V93.255L8.83499 84.013Z" fill="#E3D7CA"/>
<path d="M24.843 91.206C25.973 91.858 26.893 93.309 26.893 94.439C26.893 95.569 25.973 95.958 24.843 95.305C23.713 94.653 22.793 93.202 22.793 92.072C22.793 90.942 23.713 90.553 24.843 91.206ZM24.843 89.869C22.973 88.789 21.456 89.43 21.456 91.3C21.456 93.17 22.972 95.562 24.843 96.642C26.713 97.722 28.23 97.081 28.23 95.211C28.23 93.34 26.714 90.948 24.843 89.869Z" fill="#917559"/>
<path d="M43.733 62.736C43.754 62.527 43.729 62.306 43.729 62.306C43.729 62.306 43.429 62.691 43.352 62.924C43.347 62.94 43.343 62.954 43.339 62.969C41.367 64.254 41.257 66.207 41.257 66.207L41.275 66.196C41.319 66.014 41.442 65.831 41.589 65.746C41.735 65.661 41.859 65.703 41.903 65.833L41.94 65.812C41.984 65.63 42.108 65.446 42.255 65.362C42.401 65.278 42.525 65.319 42.569 65.449L42.606 65.428C42.65 65.246 42.774 65.062 42.92 64.978C43.067 64.893 43.191 64.934 43.235 65.065L43.272 65.044C43.297 64.94 43.349 64.835 43.417 64.749V67.32C43.417 67.456 43.324 67.62 43.21 67.686C43.096 67.752 43.003 67.695 43.003 67.559V67.147C43.003 67.035 42.927 66.989 42.833 67.043C42.739 67.097 42.664 67.231 42.664 67.343V67.755C42.664 68.114 42.909 68.265 43.21 68.091C43.511 67.917 43.756 67.484 43.756 67.125V64.554C43.823 64.563 43.875 64.607 43.9 64.682L43.937 64.661C43.981 64.479 44.105 64.295 44.252 64.211C44.398 64.127 44.522 64.168 44.566 64.298L44.602 64.277C44.647 64.095 44.77 63.911 44.917 63.827C45.063 63.742 45.188 63.783 45.232 63.914L45.268 63.893C45.312 63.711 45.436 63.528 45.582 63.443C45.728 63.358 45.852 63.4 45.896 63.53L45.914 63.519C45.914 63.519 45.754 61.66 43.733 62.736Z" fill="#63503D"/>
<path d="M42.497 63.35C42.592 63.351 42.709 63.229 42.786 62.996C42.863 62.763 42.82 62.376 42.82 62.376C42.82 62.376 42.52 62.761 42.443 62.994C42.366 63.227 42.402 63.35 42.497 63.35Z" fill="#63503D"/>
<path d="M43.25 62.511C43.345 62.512 43.462 62.39 43.539 62.157C43.616 61.924 43.572 61.537 43.572 61.537C43.572 61.537 43.272 61.922 43.195 62.155C43.119 62.389 43.155 62.511 43.25 62.511Z" fill="#63503D"/>
<path d="M45.081 61.13C45.004 61.363 45.04 61.485 45.135 61.486C45.23 61.486 45.347 61.365 45.424 61.132C45.501 60.899 45.457 60.512 45.457 60.512C45.457 60.512 45.158 60.897 45.081 61.13Z" fill="#63503D"/>
<path d="M45.199 62.029C45.122 62.262 45.158 62.384 45.253 62.385C45.348 62.385 45.465 62.264 45.542 62.031C45.619 61.798 45.576 61.411 45.576 61.411C45.576 61.411 45.276 61.796 45.199 62.029Z" fill="#63503D"/>
<path d="M44.09 61.525C44.185 61.526 44.302 61.404 44.379 61.171C44.456 60.938 44.413 60.551 44.413 60.551C44.413 60.551 44.113 60.936 44.036 61.169C43.959 61.402 43.995 61.525 44.09 61.525Z" fill="#63503D"/>
<path d="M44.252 61.95C44.175 62.183 44.211 62.305 44.306 62.306C44.401 62.306 44.518 62.185 44.595 61.952C44.672 61.719 44.629 61.332 44.629 61.332C44.629 61.332 44.329 61.717 44.252 61.95Z" fill="#63503D"/>
<path d="M44.919 60.642C45.014 60.643 45.131 60.521 45.208 60.288C45.285 60.055 45.241 59.668 45.241 59.668C45.241 59.668 44.941 60.053 44.864 60.286C44.788 60.52 44.824 60.642 44.919 60.642Z" fill="#63503D"/>
<path d="M47.29 66.674L39.881 70.951C39.813 70.99 39.758 70.956 39.758 70.875V62.04C39.758 61.959 39.813 61.862 39.881 61.823L47.29 57.545C47.358 57.506 47.413 57.54 47.413 57.62V66.455C47.412 66.537 47.357 66.634 47.29 66.674ZM40.004 70.588L47.167 66.452V57.909L40.004 62.045V70.588Z" fill="#63503D"/>
<path d="M47.29 68.272L39.881 72.55C39.813 72.589 39.758 72.686 39.758 72.767V81.602C39.758 81.683 39.813 81.717 39.881 81.678L47.29 77.4C47.358 77.361 47.413 77.264 47.413 77.183V68.348C47.412 68.267 47.357 68.233 47.29 68.272ZM47.167 77.178L40.004 81.314V72.771L47.167 68.635V77.178Z" fill="#63503D"/>
<path d="M43.372 74.779V77.352L42.412 78.306L43.372 77.752L43.738 77.541L44.728 76.969L43.738 77.141V74.574C44.232 74.253 44.677 73.742 45.006 73.161C45.362 72.532 45.582 71.819 45.582 71.171L43.057 72.629L42.832 73.159L43.251 73.117L42.535 74.566L42.657 73.678L42.413 73.619L42.556 72.918L41.591 73.475C41.589 74.695 42.372 75.246 43.372 74.779Z" fill="#63503D"/>
<path d="M53.341 55.407L52.061 57.027L53.341 57.17L54.621 55.55L53.341 55.407Z" fill="#63503D"/>
<path d="M52.031 58.632L53.311 58.774V57.247L52.031 57.105V58.632Z" fill="#63503D"/>
<path d="M54.661 55.587L53.381 57.207V58.733L54.661 57.113V55.587Z" fill="#63503D"/>
<path d="M51.878 59.209C51.817 59.163 51.715 59.213 51.645 59.324C51.594 59.4 51.579 59.447 51.573 59.52C51.565 59.607 51.591 59.675 51.639 59.708L52.247 60.131C52.284 60.156 52.289 60.227 52.254 60.295C52.234 60.334 52.206 60.364 52.177 60.38C52.15 60.396 52.123 60.398 52.103 60.385L51.503 59.969C51.467 59.944 51.447 59.896 51.447 59.833V59.234C51.451 59.146 51.447 59.063 51.447 58.958V58.057C51.447 57.859 51.313 57.777 51.147 57.872C50.981 57.968 50.847 58.205 50.847 58.403V60.065C50.847 60.363 50.926 60.607 51.074 60.763L51.735 61.458C51.82 61.548 51.866 61.689 51.866 61.861V62.925L52.817 62.376V60.544C52.817 60.135 52.69 59.815 52.461 59.644L51.878 59.209Z" fill="#63503D"/>
<path d="M55.535 55.34C55.369 55.436 55.235 55.673 55.235 55.871V57.646C55.235 57.708 55.215 57.78 55.179 57.846L54.579 58.954C54.559 58.99 54.532 59.019 54.505 59.035C54.476 59.051 54.449 59.054 54.428 59.038C54.393 59.011 54.398 58.933 54.435 58.866L55.043 57.741C55.091 57.652 55.116 57.556 55.109 57.477C55.103 57.411 55.087 57.382 55.037 57.364C54.967 57.335 54.865 57.403 54.804 57.519L54.221 58.627C53.992 59.063 53.865 59.53 53.865 59.939V61.771L54.816 61.222V60.158C54.816 59.986 54.862 59.792 54.947 59.603L55.608 58.145C55.756 57.819 55.835 57.483 55.835 57.185V55.523C55.836 55.327 55.701 55.245 55.535 55.34Z" fill="#63503D"/>
<path d="M57.046 61.166L49.637 65.443C49.569 65.482 49.514 65.448 49.514 65.367V56.532C49.514 56.451 49.569 56.354 49.637 56.315L57.046 52.038C57.114 51.999 57.169 52.033 57.169 52.114V60.949C57.168 61.03 57.114 61.127 57.046 61.166ZM49.76 65.08L56.923 60.944V52.402L49.76 56.538V65.08Z" fill="#63503D"/>
<path d="M64.725 53.968V51.171L65.285 50.848L64.244 49.362L63.203 52.051L63.763 51.727V54.524L62.397 55.312V52.515L62.957 52.192L61.916 50.706L60.874 53.395L61.435 53.071V55.868L60.682 56.303V57.618L65.513 54.829V53.514L64.725 53.968Z" fill="#63503D"/>
<path d="M66.802 55.549L59.393 59.827C59.325 59.866 59.27 59.832 59.27 59.751V50.916C59.27 50.835 59.325 50.738 59.393 50.699L66.802 46.421C66.87 46.382 66.925 46.416 66.925 46.497V55.332C66.925 55.412 66.87 55.51 66.802 55.549ZM59.516 59.463L66.679 55.327V46.784L59.516 50.92V59.463Z" fill="#63503D"/>
<path d="M21.964 75.994C21.841 75.92 21.742 75.96 21.74 76.08C21.74 76.091 21.694 77.213 19.742 76.086C18.632 75.445 18.128 74.785 17.641 74.146C17.259 73.646 16.866 73.131 16.231 72.699C16.225 72.322 16.133 71.916 15.972 71.51C16.619 71.889 16.973 72.351 17.381 72.885C17.9 73.565 18.488 74.337 19.742 75.061C22.119 76.433 22.179 74.894 22.179 74.878C22.182 74.759 22.087 74.605 21.966 74.532C21.851 74.462 21.745 74.496 21.74 74.614C21.738 74.66 21.673 75.737 19.742 74.622C18.632 73.981 18.128 73.32 17.641 72.682C17.207 72.113 16.758 71.524 15.954 71.06C15.865 71.009 15.78 70.965 15.695 70.924C15.261 70.145 14.603 69.428 13.867 69.003C12.562 68.25 11.5 68.698 11.5 70.003C11.5 71.308 12.562 72.983 13.867 73.736C15.034 74.41 16.005 74.12 16.197 73.117C16.707 73.467 17.023 73.881 17.382 74.351C17.901 75.031 18.489 75.803 19.743 76.527C22.12 77.899 22.18 76.36 22.18 76.344C22.182 76.222 22.085 76.066 21.964 75.994ZM13.866 73.296C12.803 72.682 11.938 71.318 11.938 70.256C11.938 69.193 12.803 68.828 13.866 69.441C14.372 69.733 14.832 70.197 15.176 70.716C13.96 70.339 13.241 70.911 13.205 70.94C13.135 70.998 13.158 71.149 13.257 71.276C13.296 71.326 13.34 71.365 13.384 71.39C13.453 71.43 13.52 71.437 13.563 71.401C13.571 71.394 14.302 70.812 15.492 71.277C15.675 71.67 15.784 72.071 15.791 72.439C14.205 71.61 13.246 72.371 13.205 72.405C13.135 72.463 13.158 72.613 13.256 72.741C13.355 72.868 13.492 72.925 13.562 72.867C13.571 72.86 14.413 72.196 15.75 72.858C15.566 73.621 14.792 73.83 13.866 73.296Z" fill="#63503D"/>
<path d="M35.794 150.222L134.717 164.438L167.481 145.166L132.308 125.513L118.336 121.476L150.238 104.398L128.604 90.748L123.566 89.957V105.723L83.24 123.331V94.893L93.149 90.566L73.368 87.357V115.833L70.806 115.592L70.889 129.96L35.794 150.222Z" fill="#C2A49D"/>
<path d="M68.199 38.306L35.794 57.015V38.103L68.199 19.394V38.306Z" fill="#B36A4B"/>
<path d="M3.38899 38.306L35.794 57.015V38.103L3.38899 19.394V38.306Z" fill="#E29214"/>
<path d="M3.38899 19.394L35.794 0.684998L68.199 19.394L35.794 38.103L3.38899 19.394Z" fill="#FBB03B"/>
<path d="M55.419 45.674L49.465 49.112V30.032L55.419 26.594V45.674Z" fill="#BAA09C"/>
<path d="M55.419 26.594L23.163 7.98099L17.208 11.419L49.465 30.032L55.419 26.594Z" fill="#FFE5DE"/>
<path d="M37.466 14.343L27.157 8.39099L35.161 3.76999L45.47 9.72198L37.466 14.343Z" fill="#F7EFE6"/>
<path d="M38.851 4.942C38.788 4.977 38.787 5.03301 38.846 5.06901C38.852 5.07201 39.403 5.417 38.427 5.981C37.872 6.301 37.435 6.34 37.013 6.378C36.682 6.407 36.342 6.438 35.991 6.602C35.801 6.496 35.579 6.42103 35.342 6.37703C35.668 6.19203 35.974 6.16401 36.327 6.13301C36.777 6.09301 37.287 6.04802 37.914 5.68602C39.103 5.00002 38.345 4.52802 38.338 4.52302C38.279 4.48702 38.182 4.486 38.12 4.52C38.06 4.552 38.055 4.61001 38.113 4.64601C38.136 4.66001 38.66 5.00103 37.695 5.55803C37.14 5.87803 36.703 5.917 36.281 5.955C35.905 5.988 35.515 6.02302 35.113 6.25502C35.069 6.28102 35.029 6.30703 34.99 6.33403C34.509 6.30703 34.011 6.40001 33.643 6.61201C32.99 6.98901 32.99 7.60201 33.643 7.97801C34.296 8.35501 35.357 8.35501 36.01 7.97801C36.594 7.64101 36.654 7.11502 36.193 6.73802C36.476 6.60702 36.75 6.582 37.06 6.555C37.51 6.515 38.02 6.47001 38.647 6.10801C39.836 5.42201 39.078 4.95002 39.071 4.94502C39.011 4.90902 38.913 4.908 38.851 4.942ZM35.791 7.85102C35.26 8.15802 34.395 8.15802 33.863 7.85102C33.332 7.54402 33.332 7.04502 33.863 6.73802C34.116 6.59202 34.445 6.51601 34.777 6.50901C34.332 6.95401 34.465 7.44602 34.472 7.47102C34.486 7.52002 34.566 7.55302 34.651 7.54502C34.684 7.54202 34.713 7.533 34.735 7.52C34.769 7.5 34.787 7.471 34.779 7.442C34.777 7.436 34.64 6.93503 35.124 6.52803C35.359 6.55803 35.583 6.624 35.768 6.727C35.018 7.21 35.196 7.866 35.205 7.895C35.219 7.944 35.299 7.977 35.384 7.968C35.469 7.959 35.526 7.914 35.512 7.865C35.51 7.859 35.356 7.28301 35.97 6.86601C36.313 7.17001 36.254 7.58302 35.791 7.85102Z" fill="#63503D"/>
</svg>
