<svg width="167" height="148" viewBox="0 0 167 148" fill="none" xmlns="http://www.w3.org/2000/svg">
<path d="M67.715 21.246L35.207 40.015V2.478L67.715 21.246Z" fill="#CDAD8A"/>
<path d="M2.69901 21.246L35.207 2.47699V40.014L2.69901 21.246Z" fill="#A48465"/>
<path d="M122.979 88.723L82.653 106.331V77.893L122.979 60.285V88.723Z" fill="#A48465"/>
<path d="M122.979 60.285L82.653 77.893L70.302 68.464V51.286L96.314 39.928L122.979 60.285Z" fill="#DEBD97"/>
<path d="M82.653 77.893V106.331L70.302 96.902V68.464L82.653 77.893Z" fill="#B89879"/>
<path d="M23.446 44.07C23.329 44.07 23.21 44.05 23.094 44.007C20.487 43.051 19.575 41.053 19.538 40.968C19.309 40.451 19.542 39.847 20.058 39.618C20.573 39.391 21.172 39.619 21.404 40.13C21.438 40.201 22.051 41.446 23.798 42.086C24.329 42.281 24.601 42.868 24.407 43.399C24.255 43.813 23.863 44.07 23.446 44.07Z" fill="white"/>
<path d="M31.796 43.082C31.496 43.082 31.199 42.951 30.997 42.699C30.947 42.639 30.046 41.583 28.195 41.393C27.633 41.335 27.224 40.832 27.282 40.27C27.34 39.708 27.841 39.298 28.405 39.357C31.167 39.642 32.543 41.354 32.6 41.427C32.949 41.871 32.872 42.514 32.428 42.864C32.24 43.011 32.017 43.082 31.796 43.082Z" fill="#EAE4E5"/>
<path d="M35.28 40.567C34.98 40.567 34.683 40.436 34.481 40.184C34.431 40.124 33.53 39.068 31.679 38.878C31.117 38.82 30.708 38.318 30.766 37.755C30.824 37.193 31.325 36.783 31.889 36.842C34.651 37.127 36.027 38.839 36.084 38.912C36.433 39.356 36.356 39.999 35.912 40.348C35.724 40.496 35.501 40.567 35.28 40.567Z" fill="#EAE4E5"/>
<path d="M23.708 45.493C23.408 45.493 23.111 45.361 22.909 45.11C22.859 45.05 21.958 43.994 20.107 43.804C19.545 43.746 19.136 43.244 19.194 42.681C19.252 42.119 19.753 41.709 20.317 41.768C23.079 42.053 24.455 43.765 24.512 43.838C24.861 44.282 24.784 44.925 24.34 45.275C24.152 45.421 23.929 45.493 23.708 45.493Z" fill="#EAE4E5"/>
<path d="M27 34.79C26.7 34.79 26.403 34.659 26.201 34.407C26.151 34.347 25.25 33.291 23.4 33.101C22.838 33.043 22.429 32.541 22.487 31.978C22.545 31.416 23.046 31.006 23.61 31.065C26.372 31.35 27.748 33.062 27.805 33.135C28.154 33.579 28.077 34.222 27.633 34.572C27.444 34.718 27.222 34.79 27 34.79Z" fill="#EAE4E5"/>
<path d="M24.748 46.922C24.483 46.922 24.219 46.82 24.018 46.616C23.624 46.215 23.628 45.572 24.024 45.176C24.079 45.119 25.028 44.108 25.014 42.248C25.01 41.683 25.464 41.222 26.029 41.217C26.032 41.217 26.034 41.217 26.037 41.217C26.598 41.217 27.056 41.67 27.06 42.233C27.081 45.009 25.53 46.565 25.464 46.63C25.266 46.825 25.007 46.922 24.748 46.922Z" fill="white"/>
<path d="M18.821 41.261C18.556 41.261 18.292 41.159 18.091 40.955C17.697 40.554 17.701 39.911 18.097 39.515C18.152 39.458 19.101 38.447 19.087 36.587C19.083 36.022 19.537 35.561 20.103 35.556C20.105 35.556 20.108 35.556 20.111 35.556C20.672 35.556 21.13 36.009 21.134 36.572C21.155 39.349 19.604 40.904 19.538 40.969C19.339 41.164 19.08 41.261 18.821 41.261Z" fill="white"/>
<path d="M28.447 41.044C28.182 41.044 27.918 40.942 27.717 40.738C27.323 40.337 27.327 39.694 27.723 39.298C27.778 39.241 28.727 38.23 28.713 36.37C28.709 35.805 29.163 35.344 29.728 35.339C29.731 35.339 29.733 35.339 29.736 35.339C30.298 35.339 30.755 35.792 30.759 36.354C30.78 39.131 29.229 40.686 29.163 40.751C28.965 40.946 28.706 41.044 28.447 41.044Z" fill="white"/>
<path d="M28.281 40.018C28.253 40.018 28.225 40.017 28.197 40.015C25.429 39.791 24.017 38.108 23.958 38.037C23.599 37.601 23.662 36.956 24.099 36.597C24.533 36.24 25.173 36.3 25.533 36.73C25.583 36.788 26.506 37.825 28.363 37.975C28.926 38.021 29.346 38.514 29.3 39.077C29.256 39.613 28.808 40.018 28.281 40.018Z" fill="white"/>
<path d="M24.23 38.664C24.202 38.664 24.174 38.663 24.146 38.661C21.378 38.437 19.966 36.755 19.907 36.683C19.548 36.247 19.611 35.602 20.048 35.243C20.482 34.886 21.122 34.946 21.482 35.376C21.532 35.434 22.456 36.471 24.312 36.621C24.875 36.667 25.295 37.16 25.249 37.723C25.205 38.258 24.758 38.664 24.23 38.664Z" fill="white"/>
<path d="M33.647 41.21C33.505 41.21 33.361 41.18 33.224 41.118L29.693 39.51C29.179 39.276 28.952 38.669 29.186 38.155C29.42 37.641 30.027 37.414 30.541 37.648L34.072 39.256C34.586 39.49 34.813 40.097 34.579 40.611C34.407 40.987 34.035 41.21 33.647 41.21Z" fill="#D3C5C8"/>
<path d="M29.948 43.627C29.806 43.627 29.662 43.597 29.525 43.535L25.994 41.927C25.48 41.693 25.253 41.086 25.487 40.572C25.721 40.058 26.328 39.831 26.842 40.065L30.373 41.673C30.887 41.907 31.114 42.514 30.88 43.028C30.708 43.405 30.336 43.627 29.948 43.627Z" fill="#D3C5C8"/>
<path d="M24.228 42.05C24.086 42.05 23.942 42.02 23.805 41.958L20.274 40.35C19.76 40.116 19.533 39.509 19.767 38.995C20.001 38.481 20.608 38.254 21.122 38.488L24.653 40.096C25.167 40.33 25.394 40.937 25.16 41.451C24.988 41.828 24.617 42.05 24.228 42.05Z" fill="#D3C5C8"/>
<path d="M25.49 41.387C25.094 41.387 24.718 41.156 24.551 40.77C24.002 39.503 22.191 39.755 22.114 39.767C21.558 39.849 21.036 39.467 20.95 38.911C20.864 38.355 21.242 37.834 21.797 37.746C24.511 37.313 25.984 38.933 26.428 39.957C26.653 40.475 26.414 41.078 25.896 41.303C25.764 41.359 25.626 41.387 25.49 41.387Z" fill="#EAE4E5"/>
<path d="M27.956 38.06C27.56 38.06 27.184 37.829 27.017 37.443C26.468 36.176 24.657 36.428 24.58 36.44C24.024 36.522 23.501 36.14 23.416 35.584C23.33 35.028 23.707 34.507 24.263 34.419C26.977 33.986 28.45 35.606 28.894 36.63C29.119 37.149 28.88 37.751 28.362 37.976C28.23 38.032 28.092 38.06 27.956 38.06Z" fill="#EAE4E5"/>
<path d="M30.9 35.954C30.783 35.954 30.664 35.934 30.548 35.891C27.941 34.935 27.029 32.937 26.992 32.852C26.763 32.335 26.996 31.731 27.512 31.502C28.027 31.275 28.626 31.503 28.858 32.014C28.892 32.085 29.505 33.33 31.252 33.97C31.782 34.164 32.055 34.752 31.86 35.283C31.709 35.697 31.317 35.954 30.9 35.954Z" fill="white"/>
<path d="M39.25 34.967C38.95 34.967 38.653 34.836 38.451 34.584C38.401 34.524 37.5 33.468 35.649 33.278C35.087 33.22 34.678 32.718 34.736 32.156C34.794 31.594 35.295 31.184 35.858 31.243C38.62 31.528 39.996 33.24 40.053 33.313C40.402 33.757 40.325 34.4 39.881 34.75C39.694 34.896 39.471 34.967 39.25 34.967Z" fill="#EAE4E5"/>
<path d="M42.734 32.452C42.434 32.452 42.137 32.321 41.935 32.069C41.885 32.009 40.984 30.953 39.133 30.763C38.571 30.705 38.162 30.203 38.22 29.641C38.278 29.079 38.779 28.669 39.343 28.728C42.105 29.013 43.481 30.725 43.538 30.798C43.887 31.242 43.81 31.885 43.366 32.235C43.178 32.381 42.956 32.452 42.734 32.452Z" fill="#EAE4E5"/>
<path d="M31.162 37.377C30.862 37.377 30.565 37.246 30.363 36.994C30.313 36.934 29.412 35.878 27.561 35.688C26.999 35.63 26.59 35.128 26.648 34.566C26.706 34.004 27.207 33.594 27.77 33.653C30.532 33.938 31.908 35.65 31.965 35.723C32.314 36.167 32.237 36.81 31.793 37.16C31.606 37.306 31.383 37.377 31.162 37.377Z" fill="#EAE4E5"/>
<path d="M32.203 38.807C31.938 38.807 31.674 38.705 31.473 38.501C31.079 38.1 31.083 37.458 31.479 37.061C31.534 37.004 32.484 35.993 32.469 34.133C32.465 33.568 32.919 33.107 33.485 33.102C33.487 33.102 33.49 33.102 33.493 33.102C34.054 33.102 34.512 33.555 34.516 34.117C34.537 36.894 32.986 38.449 32.92 38.514C32.72 38.71 32.461 38.807 32.203 38.807Z" fill="white"/>
<path d="M26.275 33.146C26.01 33.146 25.746 33.044 25.545 32.84C25.151 32.439 25.155 31.796 25.551 31.4C25.606 31.343 26.556 30.332 26.542 28.472C26.538 27.907 26.992 27.445 27.557 27.441C27.56 27.441 27.562 27.441 27.565 27.441C28.127 27.441 28.584 27.894 28.588 28.456C28.609 31.233 27.058 32.788 26.992 32.853C26.793 33.048 26.534 33.146 26.275 33.146Z" fill="white"/>
<path d="M35.902 32.928C35.637 32.928 35.373 32.826 35.172 32.622C34.778 32.221 34.782 31.578 35.178 31.182C35.233 31.125 36.182 30.114 36.168 28.254C36.164 27.689 36.619 27.228 37.184 27.223C37.187 27.223 37.189 27.223 37.192 27.223C37.753 27.223 38.211 27.676 38.215 28.238C38.236 31.015 36.685 32.57 36.619 32.635C36.419 32.831 36.16 32.928 35.902 32.928Z" fill="white"/>
<path d="M22.084 48.611C21.819 48.611 21.555 48.509 21.354 48.305C20.96 47.904 20.964 47.261 21.36 46.865C21.415 46.808 22.365 45.797 22.35 43.937C22.346 43.372 22.8 42.911 23.366 42.906C23.368 42.906 23.371 42.906 23.374 42.906C23.936 42.906 24.393 43.359 24.397 43.921C24.418 46.698 22.867 48.253 22.801 48.318C22.602 48.513 22.343 48.611 22.084 48.611Z" fill="white"/>
<path d="M35.735 31.903C35.707 31.903 35.679 31.902 35.651 31.9C32.883 31.676 31.471 29.993 31.412 29.922C31.053 29.486 31.116 28.841 31.553 28.482C31.987 28.125 32.627 28.185 32.987 28.615C33.037 28.673 33.96 29.71 35.817 29.86C36.38 29.906 36.8 30.399 36.754 30.962C36.71 31.497 36.263 31.903 35.735 31.903Z" fill="white"/>
<path d="M31.684 30.548C31.656 30.548 31.628 30.547 31.6 30.545C28.832 30.321 27.42 28.639 27.361 28.567C27.002 28.131 27.065 27.486 27.502 27.127C27.936 26.77 28.576 26.83 28.936 27.26C28.986 27.318 29.909 28.355 31.766 28.505C32.329 28.551 32.749 29.044 32.703 29.607C32.66 30.143 32.212 30.548 31.684 30.548Z" fill="white"/>
<path d="M41.101 33.095C40.959 33.095 40.815 33.065 40.678 33.003L37.147 31.395C36.633 31.161 36.406 30.554 36.64 30.04C36.874 29.526 37.481 29.299 37.995 29.533L41.526 31.141C42.04 31.375 42.267 31.982 42.033 32.496C41.861 32.872 41.489 33.095 41.101 33.095Z" fill="#D3C5C8"/>
<path d="M37.402 35.512C37.26 35.512 37.116 35.482 36.979 35.42L33.448 33.812C32.934 33.578 32.707 32.971 32.941 32.457C33.175 31.943 33.782 31.716 34.296 31.95L37.827 33.558C38.341 33.792 38.568 34.399 38.334 34.913C38.162 35.289 37.79 35.512 37.402 35.512Z" fill="#D3C5C8"/>
<path d="M30.265 34.624C30.151 34.54 30.052 34.431 29.978 34.3L28.075 30.919C27.798 30.426 27.972 29.803 28.465 29.525C28.958 29.248 29.581 29.423 29.859 29.915L31.762 33.296C32.039 33.788 31.865 34.412 31.372 34.689C31.01 34.893 30.578 34.853 30.265 34.624Z" fill="#D3C5C8"/>
<path d="M30.949 33.966C30.688 33.669 30.613 33.234 30.792 32.853C31.382 31.604 29.998 30.41 29.938 30.36C29.51 29.996 29.452 29.352 29.813 28.921C30.175 28.49 30.814 28.429 31.248 28.789C33.364 30.543 33.119 32.718 32.643 33.728C32.402 34.239 31.792 34.457 31.281 34.216C31.15 34.153 31.039 34.068 30.949 33.966Z" fill="#EAE4E5"/>
<path d="M35.41 29.944C35.015 29.944 34.638 29.713 34.471 29.327C33.922 28.06 32.111 28.312 32.034 28.324C31.478 28.406 30.955 28.024 30.87 27.468C30.784 26.912 31.161 26.391 31.717 26.303C34.431 25.87 35.904 27.49 36.348 28.514C36.573 29.033 36.334 29.635 35.816 29.86C35.684 29.917 35.546 29.944 35.41 29.944Z" fill="#EAE4E5"/>
<path d="M27.956 31.704C27.56 31.704 27.184 31.473 27.017 31.087C26.468 29.82 24.657 30.072 24.58 30.084C24.024 30.166 23.501 29.784 23.416 29.228C23.33 28.672 23.707 28.151 24.263 28.063C26.977 27.63 28.45 29.25 28.894 30.274C29.119 30.793 28.88 31.395 28.362 31.62C28.23 31.677 28.092 31.704 27.956 31.704Z" fill="#EAE4E5"/>
<path d="M24.957 37.412C24.561 37.412 24.185 37.181 24.018 36.795C23.469 35.528 21.658 35.78 21.581 35.792C21.025 35.874 20.502 35.492 20.417 34.936C20.331 34.38 20.708 33.859 21.264 33.771C23.978 33.338 25.451 34.958 25.895 35.982C26.12 36.501 25.881 37.103 25.363 37.328C25.23 37.385 25.092 37.412 24.957 37.412Z" fill="#EAE4E5"/>
<path d="M28.305 47.023C28.188 47.023 28.069 47.003 27.953 46.96C25.346 46.004 24.434 44.006 24.397 43.921C24.168 43.404 24.401 42.8 24.917 42.571C25.432 42.344 26.031 42.573 26.263 43.083C26.297 43.154 26.91 44.399 28.657 45.039C29.188 45.233 29.46 45.821 29.265 46.352C29.114 46.766 28.722 47.023 28.305 47.023Z" fill="white"/>
<path d="M36.655 46.035C36.355 46.035 36.058 45.904 35.856 45.652C35.806 45.592 34.905 44.536 33.055 44.346C32.493 44.288 32.084 43.785 32.142 43.224C32.2 42.662 32.7 42.252 33.264 42.311C36.026 42.595 37.402 44.308 37.459 44.381C37.808 44.825 37.731 45.468 37.287 45.818C37.1 45.964 36.877 46.035 36.655 46.035Z" fill="#EAE4E5"/>
<path d="M40.14 43.521C39.84 43.521 39.543 43.389 39.341 43.138C39.291 43.078 38.39 42.022 36.539 41.832C35.977 41.774 35.568 41.272 35.626 40.71C35.684 40.148 36.184 39.738 36.748 39.797C39.51 40.082 40.886 41.794 40.943 41.867C41.292 42.311 41.215 42.955 40.771 43.304C40.584 43.449 40.361 43.521 40.14 43.521Z" fill="#EAE4E5"/>
<path d="M28.567 48.446C28.267 48.446 27.97 48.314 27.768 48.063C27.718 48.003 26.817 46.947 24.966 46.757C24.404 46.699 23.995 46.196 24.053 45.635C24.111 45.073 24.612 44.663 25.175 44.722C27.937 45.007 29.313 46.719 29.37 46.792C29.719 47.236 29.642 47.879 29.198 48.229C29.012 48.374 28.789 48.446 28.567 48.446Z" fill="#EAE4E5"/>
<path d="M29.608 49.875C29.343 49.875 29.078 49.773 28.878 49.569C28.484 49.168 28.488 48.525 28.884 48.129C28.939 48.072 29.889 47.061 29.874 45.201C29.87 44.636 30.325 44.175 30.89 44.17C30.892 44.17 30.895 44.17 30.898 44.17C31.46 44.17 31.917 44.623 31.921 45.186C31.942 47.963 30.391 49.518 30.325 49.583C30.126 49.778 29.867 49.875 29.608 49.875Z" fill="white"/>
<path d="M23.68 44.214C23.415 44.214 23.151 44.112 22.95 43.908C22.556 43.507 22.56 42.864 22.956 42.468C23.011 42.411 23.961 41.4 23.946 39.54C23.942 38.975 24.397 38.514 24.962 38.509C24.964 38.509 24.967 38.509 24.97 38.509C25.531 38.509 25.989 38.962 25.993 39.525C26.014 42.302 24.463 43.857 24.397 43.922C24.198 44.117 23.939 44.214 23.68 44.214Z" fill="white"/>
<path d="M33.307 43.997C33.042 43.997 32.777 43.895 32.577 43.691C32.183 43.29 32.187 42.647 32.583 42.251C32.638 42.194 33.587 41.183 33.573 39.323C33.569 38.758 34.023 38.296 34.588 38.292C34.591 38.292 34.593 38.292 34.596 38.292C35.158 38.292 35.615 38.745 35.619 39.307C35.64 42.084 34.089 43.639 34.023 43.704C33.825 43.899 33.566 43.997 33.307 43.997Z" fill="white"/>
<path d="M33.14 42.971C33.112 42.971 33.084 42.97 33.056 42.968C30.288 42.744 28.876 41.062 28.817 40.99C28.458 40.554 28.521 39.909 28.958 39.55C29.392 39.193 30.032 39.253 30.392 39.683C30.442 39.741 31.365 40.778 33.222 40.928C33.785 40.974 34.205 41.467 34.159 42.03C34.116 42.566 33.668 42.971 33.14 42.971Z" fill="white"/>
<path d="M29.089 41.617C29.061 41.617 29.034 41.616 29.005 41.614C26.237 41.39 24.825 39.707 24.766 39.636C24.407 39.2 24.47 38.555 24.907 38.196C25.341 37.839 25.981 37.899 26.341 38.329C26.391 38.387 27.314 39.424 29.171 39.574C29.734 39.62 30.154 40.113 30.108 40.676C30.065 41.211 29.617 41.617 29.089 41.617Z" fill="white"/>
<path d="M36.604 44.872C36.508 44.768 36.431 44.642 36.383 44.499L35.157 40.818C34.979 40.282 35.268 39.703 35.805 39.524C36.341 39.346 36.92 39.636 37.099 40.172L38.325 43.853C38.503 44.389 38.214 44.969 37.677 45.147C37.284 45.278 36.868 45.157 36.604 44.872Z" fill="#D3C5C8"/>
<path d="M34.807 46.58C34.665 46.58 34.521 46.55 34.384 46.488L30.853 44.88C30.339 44.646 30.112 44.039 30.346 43.525C30.581 43.011 31.187 42.784 31.701 43.018L35.232 44.626C35.746 44.86 35.973 45.467 35.739 45.981C35.567 46.358 35.196 46.58 34.807 46.58Z" fill="#D3C5C8"/>
<path d="M29.088 45.003C28.946 45.003 28.802 44.973 28.665 44.911L25.134 43.303C24.62 43.069 24.393 42.462 24.627 41.948C24.861 41.434 25.468 41.207 25.982 41.441L29.513 43.049C30.027 43.283 30.254 43.89 30.02 44.404C29.848 44.781 29.476 45.003 29.088 45.003Z" fill="#D3C5C8"/>
<path d="M30.35 44.34C29.955 44.34 29.578 44.109 29.411 43.723C28.862 42.456 27.051 42.708 26.974 42.72C26.418 42.802 25.895 42.42 25.81 41.864C25.724 41.308 26.102 40.787 26.657 40.699C29.371 40.266 30.844 41.886 31.288 42.91C31.513 43.429 31.274 44.031 30.756 44.256C30.623 44.312 30.485 44.34 30.35 44.34Z" fill="#EAE4E5"/>
<path d="M32.816 41.013C32.421 41.013 32.044 40.782 31.877 40.396C31.328 39.129 29.517 39.381 29.44 39.393C28.884 39.475 28.361 39.093 28.276 38.537C28.19 37.981 28.567 37.46 29.123 37.372C31.837 36.939 33.31 38.559 33.754 39.583C33.979 40.102 33.74 40.704 33.222 40.929C33.089 40.986 32.951 41.013 32.816 41.013Z" fill="#EAE4E5"/>
<path d="M35.76 38.907C35.643 38.907 35.524 38.887 35.408 38.844C32.801 37.888 31.889 35.89 31.852 35.805C31.623 35.288 31.856 34.684 32.372 34.455C32.887 34.228 33.486 34.456 33.718 34.967C33.752 35.038 34.365 36.283 36.112 36.923C36.643 37.117 36.915 37.705 36.72 38.236C36.569 38.651 36.177 38.907 35.76 38.907Z" fill="white"/>
<path d="M44.11 37.92C43.81 37.92 43.513 37.789 43.311 37.537C43.261 37.477 42.36 36.421 40.51 36.231C39.948 36.173 39.539 35.67 39.597 35.109C39.655 34.547 40.155 34.137 40.719 34.196C43.481 34.481 44.857 36.193 44.914 36.266C45.263 36.71 45.186 37.353 44.742 37.703C44.554 37.849 44.331 37.92 44.11 37.92Z" fill="#EAE4E5"/>
<path d="M47.594 35.405C47.294 35.405 46.997 35.274 46.795 35.022C46.745 34.962 45.844 33.906 43.994 33.716C43.432 33.658 43.023 33.155 43.081 32.593C43.139 32.031 43.64 31.621 44.203 31.68C46.965 31.965 48.341 33.677 48.398 33.75C48.747 34.194 48.67 34.837 48.226 35.187C48.038 35.334 47.815 35.405 47.594 35.405Z" fill="#EAE4E5"/>
<path d="M36.022 40.33C35.722 40.33 35.425 40.199 35.223 39.947C35.173 39.887 34.272 38.831 32.422 38.641C31.86 38.583 31.451 38.08 31.509 37.518C31.567 36.956 32.068 36.546 32.632 36.605C35.394 36.89 36.77 38.602 36.827 38.675C37.176 39.119 37.099 39.762 36.655 40.112C36.466 40.259 36.243 40.33 36.022 40.33Z" fill="#EAE4E5"/>
<path d="M37.062 41.76C36.797 41.76 36.532 41.658 36.332 41.454C35.938 41.053 35.942 40.41 36.338 40.014C36.393 39.957 37.342 38.946 37.328 37.086C37.324 36.521 37.778 36.059 38.343 36.055C38.346 36.055 38.348 36.055 38.351 36.055C38.913 36.055 39.37 36.508 39.374 37.07C39.395 39.847 37.844 41.402 37.778 41.467C37.58 41.663 37.321 41.76 37.062 41.76Z" fill="white"/>
<path d="M31.135 36.099C30.87 36.099 30.605 35.997 30.405 35.793C30.011 35.392 30.015 34.749 30.411 34.353C30.466 34.296 31.416 33.285 31.402 31.425C31.398 30.86 31.852 30.399 32.417 30.394C32.419 30.394 32.422 30.394 32.425 30.394C32.986 30.394 33.443 30.847 33.448 31.409C33.469 34.186 31.918 35.741 31.852 35.806C31.652 36.001 31.393 36.099 31.135 36.099Z" fill="white"/>
<path d="M40.761 35.882C40.496 35.882 40.232 35.78 40.031 35.576C39.637 35.175 39.641 34.533 40.037 34.136C40.092 34.079 41.041 33.068 41.027 31.208C41.023 30.643 41.477 30.182 42.042 30.177C42.045 30.177 42.047 30.177 42.05 30.177C42.612 30.177 43.069 30.63 43.073 31.193C43.094 33.97 41.543 35.525 41.477 35.59C41.279 35.784 41.02 35.882 40.761 35.882Z" fill="white"/>
<path d="M40.595 34.856C40.567 34.856 40.539 34.855 40.511 34.853C37.743 34.629 36.331 32.947 36.272 32.875C35.913 32.438 35.976 31.794 36.413 31.435C36.847 31.078 37.487 31.138 37.847 31.568C37.897 31.626 38.821 32.663 40.677 32.813C41.24 32.859 41.66 33.352 41.614 33.915C41.57 34.451 41.122 34.856 40.595 34.856Z" fill="white"/>
<path d="M36.544 33.501C36.516 33.501 36.488 33.5 36.46 33.498C33.692 33.274 32.28 31.591 32.221 31.52C31.862 31.084 31.925 30.439 32.362 30.08C32.796 29.723 33.436 29.783 33.796 30.213C33.846 30.271 34.769 31.308 36.626 31.458C37.189 31.504 37.609 31.997 37.563 32.56C37.519 33.096 37.071 33.501 36.544 33.501Z" fill="white"/>
<path d="M45.96 36.048C45.818 36.048 45.674 36.018 45.537 35.956L42.006 34.348C41.492 34.114 41.265 33.507 41.499 32.993C41.733 32.479 42.34 32.252 42.854 32.486L46.385 34.094C46.899 34.328 47.126 34.935 46.892 35.449C46.721 35.825 46.349 36.048 45.96 36.048Z" fill="#D3C5C8"/>
<path d="M42.261 38.465C42.119 38.465 41.975 38.435 41.838 38.373L38.307 36.765C37.793 36.531 37.566 35.924 37.8 35.41C38.034 34.896 38.641 34.669 39.155 34.903L42.686 36.511C43.2 36.745 43.427 37.352 43.193 37.866C43.021 38.242 42.65 38.465 42.261 38.465Z" fill="#D3C5C8"/>
<path d="M36.542 36.888C36.4 36.888 36.256 36.858 36.119 36.796L32.588 35.188C32.074 34.954 31.847 34.347 32.081 33.833C32.315 33.319 32.922 33.092 33.436 33.326L36.967 34.934C37.481 35.168 37.708 35.775 37.474 36.289C37.302 36.665 36.931 36.888 36.542 36.888Z" fill="#D3C5C8"/>
<path d="M37.804 36.224C37.408 36.224 37.032 35.993 36.865 35.607C36.316 34.34 34.505 34.592 34.428 34.604C33.872 34.686 33.349 34.304 33.264 33.748C33.178 33.192 33.555 32.671 34.111 32.583C36.825 32.15 38.298 33.77 38.742 34.794C38.967 35.313 38.728 35.915 38.21 36.14C38.077 36.197 37.939 36.224 37.804 36.224Z" fill="#EAE4E5"/>
<path d="M41.061 30.871C40.808 31.175 40.39 31.317 39.986 31.199C38.661 30.811 37.697 32.364 37.657 32.431C37.365 32.911 36.737 33.069 36.254 32.778C35.772 32.488 35.612 31.865 35.9 31.381C37.303 29.018 39.49 28.92 40.561 29.234C41.103 29.393 41.414 29.961 41.255 30.504C41.215 30.643 41.148 30.767 41.061 30.871Z" fill="#EAE4E5"/>
<path d="M32.005 51.013C31.888 51.013 31.769 50.993 31.653 50.95C29.046 49.994 28.134 47.996 28.097 47.911C27.868 47.394 28.101 46.79 28.617 46.561C29.132 46.334 29.731 46.562 29.963 47.073C29.997 47.144 30.61 48.389 32.357 49.029C32.888 49.223 33.16 49.811 32.966 50.342C32.813 50.756 32.422 51.013 32.005 51.013Z" fill="white"/>
<path d="M40.354 50.026C40.054 50.026 39.757 49.895 39.555 49.643C39.505 49.583 38.604 48.527 36.753 48.337C36.191 48.279 35.782 47.776 35.84 47.215C35.898 46.653 36.399 46.243 36.962 46.302C39.724 46.587 41.1 48.299 41.157 48.372C41.506 48.816 41.429 49.459 40.985 49.809C40.799 49.955 40.576 50.026 40.354 50.026Z" fill="#EAE4E5"/>
<path d="M43.839 47.511C43.539 47.511 43.242 47.38 43.04 47.128C42.99 47.068 42.089 46.012 40.239 45.822C39.677 45.764 39.268 45.262 39.326 44.7C39.384 44.138 39.885 43.728 40.448 43.787C43.21 44.072 44.586 45.784 44.643 45.857C44.992 46.301 44.915 46.944 44.471 47.294C44.283 47.44 44.06 47.511 43.839 47.511Z" fill="#EAE4E5"/>
<path d="M32.266 52.436C31.966 52.436 31.669 52.305 31.467 52.053C31.417 51.993 30.516 50.937 28.665 50.747C28.103 50.689 27.694 50.186 27.752 49.625C27.81 49.063 28.311 48.653 28.874 48.712C31.636 48.997 33.012 50.709 33.069 50.782C33.418 51.226 33.341 51.869 32.897 52.219C32.711 52.365 32.488 52.436 32.266 52.436Z" fill="#EAE4E5"/>
<path d="M33.307 53.866C33.042 53.866 32.777 53.764 32.577 53.56C32.183 53.159 32.187 52.516 32.583 52.12C32.638 52.063 33.587 51.052 33.573 49.192C33.569 48.627 34.023 48.165 34.588 48.161C34.591 48.161 34.593 48.161 34.596 48.161C35.158 48.161 35.615 48.614 35.619 49.176C35.64 51.953 34.089 53.508 34.023 53.573C33.825 53.768 33.566 53.866 33.307 53.866Z" fill="white"/>
<path d="M41.559 32.293C41.294 32.293 41.029 32.191 40.829 31.987C40.435 31.586 40.439 30.943 40.835 30.547C40.89 30.49 41.839 29.479 41.825 27.619C41.821 27.054 42.275 26.592 42.84 26.588C42.843 26.588 42.845 26.588 42.848 26.588C43.41 26.588 43.867 27.041 43.871 27.603C43.892 30.38 42.341 31.935 42.275 32C42.077 32.195 41.818 32.293 41.559 32.293Z" fill="white"/>
<path d="M27.38 48.205C27.115 48.205 26.85 48.103 26.65 47.899C26.256 47.498 26.26 46.855 26.656 46.459C26.711 46.402 27.66 45.391 27.646 43.531C27.642 42.966 28.097 42.505 28.662 42.5C28.665 42.5 28.667 42.5 28.67 42.5C29.232 42.5 29.689 42.953 29.693 43.515C29.714 46.292 28.163 47.847 28.097 47.912C27.897 48.107 27.638 48.205 27.38 48.205Z" fill="white"/>
<path d="M37.006 47.987C36.741 47.987 36.476 47.885 36.276 47.681C35.882 47.28 35.886 46.637 36.282 46.241C36.337 46.184 37.287 45.173 37.273 43.313C37.269 42.748 37.723 42.286 38.288 42.282C38.291 42.282 38.293 42.282 38.296 42.282C38.858 42.282 39.315 42.735 39.319 43.298C39.34 46.075 37.789 47.63 37.723 47.695C37.524 47.89 37.265 47.987 37.006 47.987Z" fill="white"/>
<path d="M36.84 46.962C36.812 46.962 36.784 46.961 36.756 46.959C33.988 46.735 32.576 45.053 32.517 44.981C32.158 44.545 32.221 43.9 32.658 43.541C33.092 43.184 33.732 43.244 34.092 43.674C34.142 43.732 35.065 44.769 36.922 44.919C37.485 44.965 37.905 45.458 37.859 46.021C37.815 46.556 37.367 46.962 36.84 46.962Z" fill="white"/>
<path d="M33.065 45.291C33.038 45.295 33.01 45.299 32.982 45.301C30.215 45.535 28.545 44.109 28.475 44.048C28.049 43.677 28.005 43.03 28.377 42.604C28.746 42.18 29.387 42.135 29.813 42.499C29.872 42.548 30.954 43.419 32.809 43.261C33.372 43.213 33.867 43.631 33.915 44.194C33.961 44.731 33.586 45.204 33.065 45.291Z" fill="white"/>
<path d="M42.205 48.153C42.063 48.153 41.919 48.123 41.782 48.061L38.251 46.453C37.737 46.219 37.51 45.612 37.744 45.098C37.978 44.584 38.585 44.357 39.099 44.591L42.63 46.199C43.144 46.433 43.371 47.04 43.137 47.554C42.965 47.931 42.594 48.153 42.205 48.153Z" fill="#D3C5C8"/>
<path d="M38.506 50.571C38.364 50.571 38.22 50.541 38.083 50.479L34.552 48.871C34.038 48.637 33.811 48.03 34.045 47.516C34.28 47.002 34.886 46.775 35.4 47.009L38.931 48.617C39.445 48.851 39.672 49.458 39.438 49.972C39.266 50.348 38.895 50.571 38.506 50.571Z" fill="#D3C5C8"/>
<path d="M32.799 43.072C32.657 43.072 32.513 43.042 32.376 42.98L28.845 41.372C28.331 41.138 28.104 40.531 28.338 40.017C28.572 39.503 29.179 39.276 29.693 39.51L33.224 41.118C33.738 41.352 33.965 41.959 33.731 42.473C33.559 42.849 33.187 43.072 32.799 43.072Z" fill="#D3C5C8"/>
<path d="M32.787 48.994C32.645 48.994 32.501 48.964 32.364 48.902L28.833 47.294C28.319 47.06 28.092 46.453 28.326 45.939C28.56 45.425 29.167 45.198 29.681 45.432L33.212 47.04C33.726 47.274 33.953 47.881 33.719 48.395C33.547 48.771 33.175 48.994 32.787 48.994Z" fill="#D3C5C8"/>
<path d="M46.626 33.029C46.484 33.029 46.34 33 46.203 32.937L42.672 31.329C42.158 31.095 41.931 30.488 42.165 29.974C42.4 29.46 43.006 29.233 43.52 29.467L47.051 31.075C47.565 31.309 47.792 31.916 47.558 32.43C47.386 32.806 47.015 33.029 46.626 33.029Z" fill="#D3C5C8"/>
<path d="M34.049 48.33C33.654 48.33 33.277 48.099 33.11 47.713C32.561 46.446 30.75 46.698 30.673 46.71C30.117 46.792 29.594 46.41 29.509 45.854C29.423 45.298 29.8 44.777 30.356 44.689C33.07 44.256 34.543 45.876 34.987 46.9C35.212 47.419 34.973 48.021 34.455 48.246C34.322 48.303 34.184 48.33 34.049 48.33Z" fill="#EAE4E5"/>
<path d="M41.14 41.646C40.744 41.646 40.368 41.415 40.201 41.029C39.652 39.762 37.841 40.014 37.764 40.026C37.208 40.108 36.685 39.726 36.6 39.17C36.514 38.614 36.891 38.093 37.447 38.005C40.161 37.572 41.634 39.192 42.078 40.216C42.303 40.734 42.064 41.337 41.546 41.562C41.414 41.619 41.276 41.646 41.14 41.646Z" fill="#EAE4E5"/>
<path d="M39.459 42.898C39.342 42.898 39.223 42.878 39.107 42.835C36.5 41.879 35.588 39.881 35.551 39.796C35.322 39.279 35.555 38.675 36.071 38.446C36.586 38.219 37.185 38.447 37.417 38.958C37.451 39.029 38.064 40.274 39.811 40.914C40.342 41.108 40.614 41.696 40.419 42.227C40.268 42.641 39.876 42.898 39.459 42.898Z" fill="white"/>
<path d="M47.809 41.911C47.509 41.911 47.212 41.78 47.01 41.528C46.96 41.468 46.059 40.412 44.208 40.222C43.646 40.164 43.237 39.661 43.295 39.099C43.353 38.537 43.854 38.127 44.418 38.186C47.18 38.471 48.556 40.183 48.613 40.256C48.962 40.7 48.885 41.343 48.441 41.693C48.253 41.839 48.03 41.911 47.809 41.911Z" fill="#EAE4E5"/>
<path d="M51.293 39.396C50.993 39.396 50.696 39.265 50.494 39.013C50.444 38.953 49.543 37.897 47.692 37.707C47.13 37.649 46.721 37.147 46.779 36.585C46.837 36.023 47.338 35.613 47.902 35.672C50.664 35.957 52.04 37.669 52.097 37.742C52.446 38.186 52.369 38.829 51.925 39.179C51.737 39.324 51.514 39.396 51.293 39.396Z" fill="#EAE4E5"/>
<path d="M39.721 44.321C39.421 44.321 39.124 44.19 38.922 43.938C38.872 43.878 37.971 42.822 36.12 42.632C35.558 42.574 35.149 42.072 35.207 41.51C35.265 40.948 35.766 40.538 36.33 40.597C39.092 40.882 40.468 42.594 40.525 42.667C40.874 43.111 40.797 43.754 40.353 44.103C40.165 44.25 39.942 44.321 39.721 44.321Z" fill="#EAE4E5"/>
<path d="M40.761 45.751C40.496 45.751 40.232 45.649 40.031 45.445C39.637 45.044 39.641 44.401 40.037 44.005C40.092 43.948 41.041 42.937 41.027 41.077C41.023 40.512 41.477 40.051 42.042 40.046C42.045 40.046 42.047 40.046 42.05 40.046C42.612 40.046 43.069 40.499 43.073 41.061C43.094 43.837 41.543 45.393 41.477 45.458C41.279 45.653 41.02 45.751 40.761 45.751Z" fill="white"/>
<path d="M34.834 40.089C34.569 40.089 34.305 39.987 34.104 39.783C33.71 39.382 33.714 38.739 34.11 38.343C34.165 38.286 35.114 37.275 35.1 35.415C35.096 34.85 35.55 34.389 36.115 34.384C36.118 34.384 36.12 34.384 36.123 34.384C36.684 34.384 37.142 34.837 37.146 35.4C37.167 38.176 35.616 39.732 35.55 39.797C35.351 39.992 35.092 40.089 34.834 40.089Z" fill="white"/>
<path d="M44.46 39.872C44.195 39.872 43.93 39.77 43.73 39.566C43.336 39.165 43.34 38.523 43.736 38.126C43.791 38.069 44.74 37.058 44.726 35.198C44.722 34.633 45.176 34.172 45.741 34.167C45.744 34.167 45.746 34.167 45.749 34.167C46.31 34.167 46.768 34.62 46.772 35.182C46.793 37.959 45.242 39.514 45.176 39.579C44.978 39.775 44.719 39.872 44.46 39.872Z" fill="white"/>
<path d="M44.294 38.846C44.266 38.846 44.238 38.845 44.21 38.843C41.442 38.619 40.03 36.937 39.971 36.865C39.612 36.428 39.675 35.784 40.112 35.425C40.546 35.068 41.186 35.128 41.546 35.558C41.596 35.616 42.519 36.653 44.376 36.803C44.939 36.849 45.359 37.342 45.313 37.905C45.269 38.441 44.821 38.846 44.294 38.846Z" fill="white"/>
<path d="M40.243 37.492C40.215 37.492 40.187 37.491 40.159 37.489C37.391 37.265 35.979 35.582 35.92 35.511C35.561 35.075 35.624 34.43 36.061 34.071C36.495 33.714 37.135 33.774 37.495 34.204C37.545 34.262 38.469 35.299 40.325 35.449C40.888 35.495 41.308 35.988 41.262 36.551C41.218 37.087 40.77 37.492 40.243 37.492Z" fill="white"/>
<path d="M49.66 40.038C49.518 40.038 49.374 40.008 49.237 39.946L45.706 38.338C45.192 38.104 44.965 37.497 45.199 36.983C45.433 36.469 46.04 36.242 46.554 36.476L50.085 38.084C50.599 38.318 50.826 38.925 50.592 39.439C50.42 39.815 50.048 40.038 49.66 40.038Z" fill="#D3C5C8"/>
<path d="M45.96 42.456C45.818 42.456 45.674 42.426 45.537 42.364L42.006 40.756C41.492 40.522 41.265 39.915 41.499 39.401C41.733 38.887 42.34 38.66 42.854 38.894L46.385 40.502C46.899 40.736 47.126 41.343 46.892 41.857C46.721 42.233 46.349 42.456 45.96 42.456Z" fill="#D3C5C8"/>
<path d="M44.424 43.627C44.282 43.627 44.138 43.597 44.001 43.535L40.47 41.927C39.956 41.693 39.729 41.086 39.963 40.572C40.197 40.058 40.804 39.831 41.318 40.065L44.849 41.673C45.363 41.907 45.59 42.514 45.356 43.028C45.184 43.405 44.812 43.627 44.424 43.627Z" fill="#D3C5C8"/>
<path d="M36.281 33.029C36.139 33.029 35.995 33 35.858 32.937L32.327 31.329C31.813 31.095 31.586 30.488 31.82 29.974C32.054 29.46 32.661 29.233 33.175 29.467L36.706 31.075C37.22 31.309 37.447 31.916 37.213 32.43C37.041 32.806 36.67 33.029 36.281 33.029Z" fill="#D3C5C8"/>
<path d="M41.503 40.215C41.108 40.215 40.731 39.984 40.564 39.598C40.015 38.331 38.204 38.583 38.127 38.595C37.571 38.677 37.049 38.295 36.963 37.739C36.877 37.183 37.255 36.662 37.81 36.574C40.524 36.141 41.997 37.761 42.441 38.785C42.666 39.304 42.427 39.906 41.909 40.131C41.777 40.188 41.638 40.215 41.503 40.215Z" fill="#EAE4E5"/>
<path d="M43.969 36.888C43.574 36.888 43.197 36.657 43.03 36.271C42.481 35.004 40.67 35.256 40.593 35.268C40.037 35.35 39.514 34.968 39.429 34.412C39.343 33.856 39.72 33.335 40.276 33.247C42.99 32.814 44.463 34.434 44.907 35.458C45.132 35.976 44.893 36.579 44.375 36.804C44.243 36.861 44.105 36.888 43.969 36.888Z" fill="#EAE4E5"/>
<path d="M70.302 112.96L35.207 133.222V41.509L70.302 21.247V51.287V68.465V96.903V112.96Z" fill="#A48465"/>
<path d="M35.207 133.222L0.112 112.96V21.247L35.207 41.509V133.222ZM8.248 46.395V67.013L24.256 76.255V55.637L8.248 46.395Z" fill="#CDAD8A"/>
<path d="M0.112 21.246L35.207 0.984009L70.302 21.246L35.207 41.508L0.112 21.246ZM35.207 40.015L67.715 21.246L35.207 2.47699L2.69901 21.246L35.207 40.015Z" fill="#F0CFA8"/>
<path d="M8.24799 67.013V46.395L24.256 55.637V76.255L8.24799 67.013Z" fill="#E3D7CA"/>
<path d="M24.257 74.206C25.387 74.858 26.307 76.309 26.307 77.439C26.307 78.569 25.387 78.958 24.257 78.305C23.127 77.653 22.207 76.202 22.207 75.072C22.207 73.942 23.126 73.553 24.257 74.206ZM24.257 72.869C22.387 71.789 20.87 72.43 20.87 74.3C20.87 76.17 22.386 78.562 24.257 79.642C26.127 80.722 27.643 80.081 27.643 78.211C27.643 76.34 26.127 73.948 24.257 72.869Z" fill="#917559"/>
<path d="M43.146 45.736C43.167 45.527 43.142 45.306 43.142 45.306C43.142 45.306 42.842 45.691 42.765 45.924C42.76 45.94 42.756 45.954 42.752 45.969C40.78 47.254 40.67 49.207 40.67 49.207L40.688 49.196C40.732 49.014 40.855 48.831 41.002 48.746C41.148 48.661 41.272 48.703 41.316 48.833L41.353 48.812C41.397 48.63 41.521 48.446 41.668 48.362C41.814 48.278 41.938 48.319 41.982 48.449L42.018 48.428C42.062 48.246 42.186 48.062 42.332 47.978C42.479 47.893 42.603 47.934 42.647 48.065L42.684 48.044C42.709 47.94 42.761 47.835 42.829 47.749V50.32C42.829 50.456 42.736 50.62 42.622 50.686C42.508 50.752 42.415 50.695 42.415 50.559V50.147C42.415 50.035 42.339 49.989 42.245 50.043C42.151 50.097 42.075 50.231 42.075 50.343V50.755C42.075 51.114 42.32 51.265 42.621 51.091C42.922 50.917 43.167 50.484 43.167 50.125V47.554C43.234 47.563 43.286 47.607 43.311 47.682L43.348 47.661C43.392 47.479 43.516 47.295 43.663 47.211C43.809 47.127 43.933 47.168 43.977 47.298L44.013 47.277C44.058 47.095 44.181 46.911 44.328 46.827C44.474 46.742 44.599 46.783 44.643 46.914L44.68 46.893C44.724 46.711 44.848 46.528 44.994 46.443C45.14 46.358 45.264 46.4 45.308 46.53L45.326 46.519C45.326 46.519 45.167 44.66 43.146 45.736Z" fill="#63503D"/>
<path d="M41.91 46.35C42.005 46.351 42.122 46.229 42.199 45.996C42.276 45.763 42.232 45.376 42.232 45.376C42.232 45.376 41.932 45.761 41.855 45.994C41.779 46.227 41.816 46.35 41.91 46.35Z" fill="#63503D"/>
<path d="M42.663 45.511C42.758 45.512 42.875 45.39 42.952 45.157C43.029 44.924 42.985 44.537 42.985 44.537C42.985 44.537 42.685 44.922 42.608 45.155C42.532 45.389 42.568 45.511 42.663 45.511Z" fill="#63503D"/>
<path d="M44.494 44.13C44.417 44.363 44.453 44.485 44.548 44.486C44.643 44.486 44.76 44.365 44.837 44.132C44.914 43.899 44.87 43.512 44.87 43.512C44.87 43.512 44.571 43.897 44.494 44.13Z" fill="#63503D"/>
<path d="M44.612 45.029C44.535 45.262 44.571 45.384 44.666 45.385C44.761 45.385 44.878 45.264 44.956 45.031C45.033 44.798 44.989 44.411 44.989 44.411C44.989 44.411 44.689 44.796 44.612 45.029Z" fill="#63503D"/>
<path d="M43.503 44.525C43.598 44.526 43.715 44.404 43.792 44.171C43.869 43.938 43.825 43.551 43.825 43.551C43.825 43.551 43.525 43.936 43.448 44.169C43.372 44.402 43.408 44.525 43.503 44.525Z" fill="#63503D"/>
<path d="M43.665 44.95C43.588 45.183 43.624 45.305 43.719 45.306C43.814 45.306 43.931 45.185 44.008 44.952C44.085 44.719 44.041 44.332 44.041 44.332C44.041 44.332 43.742 44.717 43.665 44.95Z" fill="#63503D"/>
<path d="M44.332 43.642C44.427 43.643 44.544 43.521 44.621 43.288C44.698 43.055 44.654 42.668 44.654 42.668C44.654 42.668 44.354 43.053 44.277 43.286C44.201 43.52 44.237 43.642 44.332 43.642Z" fill="#63503D"/>
<path d="M46.703 49.674L39.294 53.951C39.226 53.99 39.171 53.956 39.171 53.875V45.04C39.171 44.959 39.226 44.862 39.294 44.823L46.703 40.545C46.771 40.506 46.826 40.54 46.826 40.62V49.455C46.826 49.537 46.771 49.634 46.703 49.674ZM39.417 53.588L46.58 49.452V40.909L39.417 45.045V53.588Z" fill="#63503D"/>
<path d="M46.703 51.272L39.294 55.55C39.226 55.589 39.171 55.686 39.171 55.767V64.602C39.171 64.683 39.226 64.717 39.294 64.678L46.703 60.4C46.771 60.361 46.826 60.264 46.826 60.183V51.348C46.826 51.267 46.771 51.233 46.703 51.272ZM46.58 60.178L39.417 64.314V55.771L46.58 51.635V60.178Z" fill="#63503D"/>
<path d="M42.785 57.779V60.352L41.825 61.306L42.785 60.752L43.151 60.541L44.141 59.969L43.151 60.141V57.574C43.645 57.253 44.09 56.742 44.419 56.161C44.775 55.532 44.995 54.819 44.995 54.171L42.47 55.629L42.245 56.159L42.664 56.117L41.948 57.566L42.07 56.678L41.826 56.619L41.969 55.918L41.004 56.475C41.003 57.695 41.785 58.246 42.785 57.779Z" fill="#63503D"/>
<path d="M52.755 38.407L51.475 40.027L52.755 40.17L54.035 38.55L52.755 38.407Z" fill="#63503D"/>
<path d="M51.444 41.632L52.724 41.774V40.247L51.444 40.105V41.632Z" fill="#63503D"/>
<path d="M54.074 38.587L52.794 40.207V41.733L54.074 40.113V38.587Z" fill="#63503D"/>
<path d="M51.291 42.209C51.23 42.163 51.128 42.213 51.058 42.324C51.007 42.4 50.992 42.447 50.985 42.52C50.978 42.607 51.003 42.675 51.051 42.708L51.66 43.131C51.697 43.156 51.702 43.227 51.667 43.295C51.647 43.334 51.619 43.364 51.59 43.38C51.563 43.396 51.536 43.398 51.516 43.385L50.916 42.969C50.88 42.944 50.86 42.896 50.86 42.833V42.234C50.864 42.146 50.86 42.063 50.86 41.958V41.057C50.86 40.859 50.726 40.777 50.56 40.872C50.394 40.968 50.26 41.205 50.26 41.403V43.065C50.26 43.363 50.339 43.607 50.487 43.763L51.148 44.458C51.233 44.548 51.279 44.689 51.279 44.861V45.925L52.23 45.376V43.544C52.23 43.135 52.103 42.815 51.874 42.644L51.291 42.209Z" fill="#63503D"/>
<path d="M54.949 38.34C54.783 38.436 54.649 38.673 54.649 38.871V40.646C54.649 40.708 54.629 40.78 54.593 40.846L53.993 41.954C53.973 41.99 53.946 42.019 53.919 42.035C53.89 42.051 53.863 42.054 53.842 42.038C53.807 42.011 53.812 41.933 53.849 41.866L54.457 40.741C54.505 40.652 54.53 40.556 54.523 40.477C54.517 40.411 54.501 40.382 54.451 40.364C54.381 40.335 54.279 40.403 54.218 40.519L53.635 41.627C53.406 42.063 53.279 42.53 53.279 42.939V44.771L54.23 44.222V43.158C54.23 42.986 54.276 42.792 54.361 42.603L55.022 41.145C55.169 40.819 55.249 40.483 55.249 40.185V38.523C55.249 38.327 55.114 38.245 54.949 38.34Z" fill="#63503D"/>
<path d="M56.459 44.166L49.05 48.443C48.982 48.482 48.927 48.448 48.927 48.367V39.532C48.927 39.451 48.982 39.354 49.05 39.315L56.459 35.038C56.527 34.999 56.582 35.033 56.582 35.114V43.949C56.582 44.03 56.527 44.127 56.459 44.166ZM49.173 48.08L56.336 43.944V35.402L49.173 39.538V48.08Z" fill="#63503D"/>
<path d="M64.139 36.968V34.171L64.699 33.848L63.657 32.362L62.616 35.051L63.176 34.727V37.524L61.811 38.312V35.515L62.371 35.192L61.329 33.706L60.288 36.395L60.848 36.071V38.868L60.095 39.303V40.618L64.926 37.829V36.514L64.139 36.968Z" fill="#63503D"/>
<path d="M66.215 38.549L58.806 42.827C58.738 42.866 58.683 42.832 58.683 42.751V33.916C58.683 33.835 58.738 33.738 58.806 33.699L66.215 29.421C66.283 29.382 66.338 29.416 66.338 29.497V38.332C66.338 38.412 66.283 38.51 66.215 38.549ZM58.929 42.463L66.092 38.327V29.784L58.929 33.92V42.463Z" fill="#63503D"/>
<path d="M21.377 58.994C21.254 58.92 21.155 58.96 21.153 59.08C21.153 59.091 21.107 60.213 19.155 59.086C18.045 58.445 17.541 57.785 17.054 57.146C16.672 56.646 16.279 56.131 15.644 55.699C15.638 55.322 15.545 54.916 15.385 54.51C16.032 54.889 16.386 55.351 16.794 55.885C17.313 56.565 17.901 57.337 19.155 58.061C21.532 59.433 21.592 57.894 21.592 57.878C21.595 57.759 21.499 57.605 21.379 57.532C21.264 57.462 21.158 57.496 21.153 57.614C21.151 57.66 21.086 58.737 19.155 57.622C18.045 56.981 17.541 56.32 17.054 55.682C16.62 55.113 16.171 54.524 15.367 54.06C15.278 54.009 15.193 53.965 15.108 53.924C14.674 53.145 14.016 52.428 13.28 52.003C11.975 51.25 10.913 51.698 10.913 53.003C10.913 54.308 11.975 55.983 13.28 56.736C14.447 57.41 15.418 57.12 15.61 56.117C16.12 56.467 16.437 56.881 16.795 57.351C17.314 58.031 17.902 58.803 19.156 59.527C21.533 60.899 21.593 59.36 21.593 59.344C21.595 59.222 21.499 59.066 21.377 58.994ZM13.279 56.296C12.216 55.682 11.351 54.318 11.351 53.256C11.351 52.193 12.216 51.828 13.279 52.441C13.785 52.733 14.245 53.197 14.589 53.716C13.373 53.339 12.654 53.911 12.618 53.94C12.548 53.998 12.571 54.149 12.67 54.276C12.709 54.326 12.753 54.365 12.797 54.39C12.866 54.43 12.933 54.437 12.976 54.401C12.984 54.394 13.715 53.812 14.905 54.277C15.088 54.67 15.197 55.071 15.204 55.439C13.618 54.61 12.659 55.371 12.618 55.405C12.548 55.463 12.571 55.613 12.669 55.741C12.768 55.868 12.905 55.925 12.975 55.867C12.984 55.86 13.826 55.196 15.163 55.858C14.979 56.621 14.205 56.83 13.279 56.296Z" fill="#63503D"/>
<path d="M35.207 133.222L134.131 147.438L166.894 128.166L131.721 108.513L117.749 104.476L149.651 87.398L128.017 73.748L122.979 72.957V88.723L82.653 106.331V77.893L92.563 73.566L72.782 70.357V98.833L70.219 98.592L70.302 112.96L35.207 133.222Z" fill="#C2A49D"/>
</svg>
