<svg width="450" height="388" viewBox="0 0 450 388" fill="none" xmlns="http://www.w3.org/2000/svg">
<path d="M279.002 297.561C240.978 298.151 221.742 295.953 136.287 297.357C113.413 297.357 90.8797 297.503 68.198 298.816C50.8213 298.816 33.8725 298.36 16.5937 298.086C10.7888 298.086 5.43487 297.4 -6.10352e-05 296.69V353.493H449.994V297.128C425.554 295.977 401.786 296.391 377.823 297.358C354.966 293.131 330.88 299.207 307.584 297.358C299.958 295.806 286.898 299.559 279.002 297.561Z" fill="url(#paint0_linear_218_2)"/>
<path d="M156.504 326.326C119.935 329.81 83.3898 330.305 46.4213 330.305H-6.10352e-05V337.821C33.8835 335.233 58.5302 338.7 111.805 340.081C227.784 341.257 369.688 337.082 450 336.226C345.822 326.133 213.772 329.471 156.504 326.326Z" fill="url(#paint1_linear_218_2)"/>
<path d="M29.5766 313.1C132.757 309.997 276.457 306.733 319.896 309.847C356.923 308.53 391.852 315.54 428.867 315.54C380.8 318.108 237.732 327.499 192.021 318.357C167.24 309.055 189.34 319.214 29.5766 313.1Z" fill="url(#paint2_linear_218_2)"/>
<path d="M14.0849 316.873C34.8316 318.561 55.8843 315.826 75.352 314.056C88.0279 314.056 100.704 314.056 113.38 314.056C140.092 312.167 171.257 316.543 194.364 320.394C132.963 329.129 66.8422 331.662 7.74695 331.662C10.6729 330.477 13.0499 328.287 15.4938 326.732C17.1478 321.773 15.3408 321.063 14.0849 316.873Z" fill="#5C6A8B"/>
<path d="M-6.10352e-05 296.689V313.351C36.3305 301.824 108.379 316.915 136.617 299.972C132.326 299.751 122.292 298.733 109.553 297.488C95.7507 297.653 82.0018 298.017 68.199 298.816C50.8223 298.816 33.8735 298.359 16.5947 298.086C10.7878 298.086 5.43387 297.399 -6.10352e-05 296.689Z" fill="url(#paint3_linear_218_2)"/>
<path d="M270.726 316.889C281.581 319.279 279.673 313.539 310.163 314.072C340.232 313.017 369.698 315.48 399.6 315.48C403.567 314.854 409.43 315.9 412.275 316.184C380.472 318.644 321.188 315.258 270.726 316.889Z" fill="url(#paint4_linear_218_2)"/>
<path d="M353.058 300.011C210.846 299.956 108.012 302.141 -6.10352e-05 302.527V303.675C131.175 303.207 254.612 299.693 449.994 302.463V300.726C426.654 300.395 404.295 300.187 382.874 300.087C372.741 300.04 362.806 300.014 353.058 300.011Z" fill="url(#paint5_linear_218_2)"/>
<path d="M-6.10352e-05 341.435V344.553C142.251 341.61 267.389 339.628 449.994 345.528V343.639C298.839 336.892 144.576 338.51 -6.10352e-05 341.435Z" fill="url(#paint6_linear_218_2)"/>
<path d="M-6.10352e-05 332.509V352.085C0.519932 352.586 1.08592 353.057 1.70092 353.491H113.824C134.045 351.867 159.938 349.431 164.082 344.337C129.253 341.542 72.817 340.202 -6.10352e-05 332.509Z" fill="url(#paint7_linear_218_2)"/>
<path d="M176.759 324.619C188.526 325.635 199.792 325.669 211.265 323.211C235.756 317.529 260.816 323.915 284.503 323.915C266.137 324.58 246.511 321.651 229.575 326.732C206.254 327.596 205.695 328.466 157.745 330.253C164.357 328.782 169.853 326.503 176.759 324.619Z" fill="#7B7D9F"/>
<path d="M284.513 314.845C277.023 314.852 269.625 314.87 262.308 314.895C251.772 314.933 240.218 314.991 229.992 315.063C230.437 315.676 230.95 316.406 231.441 317.186C252.947 317.039 276.38 316.971 299.406 316.99C298.15 316.269 296.806 315.544 295.381 314.847C291.753 314.847 288.098 314.841 284.514 314.847V314.845H284.513Z" fill="url(#paint8_linear_218_2)"/>
<path d="M304.889 314.851C306.146 315.521 307.256 316.253 308.373 317.003C331.171 317.046 352.646 317.173 377.471 317.426C373.365 316.649 371.358 315.908 367.238 315.177C345.665 314.987 324.917 314.88 304.889 314.851Z" fill="url(#paint9_linear_218_2)"/>
<path d="M222.381 315.131C201.53 315.297 181.215 315.524 161.24 315.797C160.796 316.556 160.185 317.276 159.469 317.958C179.866 317.676 200.632 317.443 221.934 317.272C222.052 316.562 222.215 315.848 222.381 315.131Z" fill="url(#paint10_linear_218_2)"/>
<path d="M380.039 315.382C383.362 316.044 386.686 316.816 390.023 317.628H390.025C406.892 317.833 431.998 318.093 449.995 318.413V316.282C428.421 315.899 400.022 315.605 380.039 315.382Z" fill="url(#paint11_linear_218_2)"/>
<path d="M154.899 315.891C132.988 316.201 111.393 316.556 89.8559 316.934C86.7779 317.736 83.3059 318.513 79.8289 319.247C103.4 318.829 126.969 318.423 150.899 318.078C152.223 317.339 153.573 316.62 154.899 315.891Z" fill="url(#paint12_linear_218_2)"/>
<path d="M79.4379 317.118C55.8702 317.536 32.1735 317.966 8.10883 318.379C5.32987 318.853 2.7399 319.288 -6.10352e-05 319.746V320.654C22.7616 320.269 45.0413 319.868 67.245 319.47C71.317 318.662 75.4319 317.871 79.4379 317.119V317.118Z" fill="url(#paint13_linear_218_2)"/>
<path d="M298.588 305.605C360.428 299.064 414.04 306.309 447.882 306.309C449.113 308.064 448.352 310.065 448.586 311.943C424.17 306.227 366.199 310.312 298.588 305.605Z" fill="url(#paint14_linear_218_2)"/>
<path d="M449.291 321.098C424.803 324.865 399.569 322.197 375.347 324.619C415.033 327.463 431.842 329.004 442.248 328.844C449.733 328.054 447.135 326.487 449.291 321.098Z" fill="#D3A6AD"/>
<path d="M209.285 339.52C138.747 339.659 69.904 339.314 -6.10352e-05 340.589V343.338C86.8138 341.755 167.314 340.497 258.332 340.931C255.097 339.981 259.546 340.819 256.353 339.917C239.944 338.843 223.691 339.412 209.285 339.52Z" fill="url(#paint15_linear_218_2)"/>
<path d="M116.49 302.588C77.1059 302.645 39.0504 302.694 0.382935 302.704V302.911C41.3104 302.9 81.6868 302.846 123.527 302.784C121.181 302.718 118.835 302.653 116.49 302.588Z" fill="url(#paint16_linear_218_2)"/>
<defs>
<linearGradient id="paint0_linear_218_2" x1="364.84" y1="253.515" x2="192.998" y2="335.953" gradientUnits="userSpaceOnUse">
<stop stop-color="#C79BB0"/>
<stop offset="0.2269" stop-color="#AB95BF"/>
<stop offset="0.7362" stop-color="#9A8DB6"/>
<stop offset="1" stop-color="#66759A"/>
</linearGradient>
<linearGradient id="paint1_linear_218_2" x1="-0.497254" y1="333.571" x2="445.122" y2="332.857" gradientUnits="userSpaceOnUse">
<stop stop-color="#586685"/>
<stop offset="0.5386" stop-color="#66759A"/>
<stop offset="1" stop-color="#C79BB0"/>
</linearGradient>
<linearGradient id="paint2_linear_218_2" x1="360.897" y1="306.627" x2="102.143" y2="321.743" gradientUnits="userSpaceOnUse">
<stop stop-color="#A291BA"/>
<stop offset="1" stop-color="#5A6989"/>
</linearGradient>
<linearGradient id="paint3_linear_218_2" x1="156.279" y1="175.552" x2="46.1851" y2="319.572" gradientUnits="userSpaceOnUse">
<stop stop-color="#C79BB0"/>
<stop offset="0.2269" stop-color="#AB95BF"/>
<stop offset="0.4644" stop-color="#9A8DB6"/>
<stop offset="1" stop-color="#66759A"/>
</linearGradient>
<linearGradient id="paint4_linear_218_2" x1="300.526" y1="315.6" x2="403.348" y2="317.253" gradientUnits="userSpaceOnUse">
<stop stop-color="#7B7D9F"/>
<stop offset="1" stop-color="#988CB3"/>
</linearGradient>
<linearGradient id="paint5_linear_218_2" x1="399.646" y1="281.108" x2="95.6661" y2="325.96" gradientUnits="userSpaceOnUse">
<stop stop-color="#F5EAFF"/>
<stop offset="1" stop-color="#ABB1C4"/>
</linearGradient>
<linearGradient id="paint6_linear_218_2" x1="405.892" y1="328.33" x2="109.106" y2="392.354" gradientUnits="userSpaceOnUse">
<stop stop-color="#F5EAFF"/>
<stop offset="1" stop-color="#ABB1C4"/>
</linearGradient>
<linearGradient id="paint7_linear_218_2" x1="341.889" y1="205.675" x2="170.048" y2="288.114" gradientUnits="userSpaceOnUse">
<stop stop-color="#C79BB0"/>
<stop offset="0.2269" stop-color="#AB95BF"/>
<stop offset="0.7362" stop-color="#9A8DB6"/>
<stop offset="1" stop-color="#53607E"/>
</linearGradient>
<linearGradient id="paint8_linear_218_2" x1="402.544" y1="306.15" x2="140.605" y2="419.051" gradientUnits="userSpaceOnUse">
<stop stop-color="#F5EAFF"/>
<stop offset="1" stop-color="#ABB1C4"/>
</linearGradient>
<linearGradient id="paint9_linear_218_2" x1="403.929" y1="311.643" x2="141.99" y2="424.544" gradientUnits="userSpaceOnUse">
<stop stop-color="#F5EAFF"/>
<stop offset="1" stop-color="#ABB1C4"/>
</linearGradient>
<linearGradient id="paint10_linear_218_2" x1="401.374" y1="301.505" x2="139.434" y2="414.405" gradientUnits="userSpaceOnUse">
<stop stop-color="#F5EAFF"/>
<stop offset="1" stop-color="#ABB1C4"/>
</linearGradient>
<linearGradient id="paint11_linear_218_2" x1="405.426" y1="317.584" x2="143.487" y2="430.485" gradientUnits="userSpaceOnUse">
<stop stop-color="#F5EAFF"/>
<stop offset="1" stop-color="#ABB1C4"/>
</linearGradient>
<linearGradient id="paint12_linear_218_2" x1="128.442" y1="306.51" x2="124.825" y2="328.229" gradientUnits="userSpaceOnUse">
<stop stop-color="#C5C5D9"/>
<stop offset="1" stop-color="#AAA296"/>
</linearGradient>
<linearGradient id="paint13_linear_218_2" x1="68.6932" y1="289.507" x2="65.0767" y2="311.227" gradientUnits="userSpaceOnUse">
<stop stop-color="#C5C5D9"/>
<stop offset="1" stop-color="#AAA296"/>
</linearGradient>
<linearGradient id="paint14_linear_218_2" x1="445.78" y1="308.808" x2="311.275" y2="303.879" gradientUnits="userSpaceOnUse">
<stop stop-color="#D9B1B7"/>
<stop offset="1" stop-color="#B898B8"/>
</linearGradient>
<linearGradient id="paint15_linear_218_2" x1="147.945" y1="321.439" x2="137.328" y2="357.641" gradientUnits="userSpaceOnUse">
<stop stop-color="#C5C5D9"/>
<stop offset="1" stop-color="#AAA296"/>
</linearGradient>
<linearGradient id="paint16_linear_218_2" x1="78.5132" y1="300.607" x2="78.332" y2="305.532" gradientUnits="userSpaceOnUse">
<stop stop-color="#C5C5D9"/>
<stop offset="1" stop-color="#AAA296"/>
</linearGradient>
</defs>
</svg>
