<svg width="450" height="388" viewBox="0 0 450 388" fill="none" xmlns="http://www.w3.org/2000/svg">
<path d="M19.0139 221.966C19.1589 221.987 19.3859 222.291 19.7059 223.051C21.5119 223.255 21.2629 228.387 21.4139 230.048C21.6099 231.926 21.7129 233.846 21.9849 235.744C23.3959 236.374 24.9749 236.947 26.5419 237.208C27.5989 238.653 26.2189 239.106 24.9139 238.997C25.9799 240.519 24.5479 240.961 23.0429 240.382C23.7059 241.188 24.7599 241.715 25.5649 242.008C25.5349 243.342 24.4799 243.141 23.5299 243.068C24.2489 244.572 25.7559 245.964 27.0289 246.891C27.3619 248.824 25.4499 248.225 24.4279 247.543C25.3089 248.658 25.4039 250.081 25.4039 251.447C25.4639 251.478 25.5179 251.513 25.5759 251.546C25.9839 251.066 26.4649 250.726 27.2439 251.009C27.3659 250.341 27.4619 249.667 27.6089 249.003C27.6319 248.875 25.1999 248.355 27.9739 247.455C28.5239 247.209 28.9459 246.708 29.6819 246.656C29.7109 246.17 30.0259 245.611 30.7769 245.02C27.5029 245.02 30.9639 242.495 32.7829 243.52C32.7409 243.018 32.8789 242.5 32.6569 242.02C29.6139 242.02 30.6739 240.481 32.9089 239.895C33.0159 238.824 32.9239 238.306 34.0359 237.646C34.0359 237.059 34.0029 236.429 33.9119 235.768C33.9119 234.598 33.6899 234.104 34.9149 234.268C34.5149 232.806 34.0879 231.61 34.7889 230.141C35.0699 229.51 35.3169 229.245 35.5339 229.239C36.4739 229.213 36.8449 234.078 36.9209 235.394C37.1929 236.004 37.2849 236.938 36.7949 237.393C37.4729 238.52 38.0469 239.845 37.5459 241.643C38.1379 242.153 39.2199 242.541 39.4259 242.644C39.9529 242.828 40.8759 243.003 40.9319 243.017C41.2789 244.7 40.8989 245.44 39.1759 245.268C40.6929 246.645 42.0599 245.654 42.4339 247.519C42.0079 249.325 41.4439 249.418 39.9289 249.143C39.1389 249.055 39.0079 248.562 38.5479 248.27C38.8199 249.942 39.1009 250.986 38.0839 251.022C37.7959 251.002 37.4899 250.965 37.1689 250.894C37.5639 251.002 37.8479 251.03 38.0839 251.022C40.1009 251.163 41.2469 250.432 40.5529 253.894C39.7589 254.021 39.1309 253.731 38.4209 253.518C39.9749 254.231 39.6179 255.317 39.5519 256.002C39.3929 255.92 39.3569 255.916 39.5499 256.019C39.5499 256.014 39.5519 256.007 39.5519 256.002C39.9329 256.199 41.0289 256.88 41.5909 257.779C41.7369 256.693 42.1079 255.831 43.4179 256.283C43.4909 256.016 42.6589 254.875 44.8209 254.762C43.8839 254.575 43.0929 254.725 42.7169 253.826C43.1919 252.639 44.4889 251.333 45.7589 251.485C45.8149 250.927 45.7129 250.381 45.9919 249.851C44.0409 251.152 43.2949 249.385 44.9389 248.095C44.4829 247.525 43.6879 248.407 44.0049 246.926C44.6859 246.548 44.8189 245.861 46.2249 246.809C46.2739 246.264 46.4369 245.555 46.3429 244.936C45.0589 245.064 44.0479 245.101 44.7069 243.532C44.9139 243.417 46.0829 242.666 46.9309 242.714C46.9959 242.41 47.5649 241.654 47.2789 241.076C47.0579 240.91 46.3139 240.999 46.3429 240.375C46.4719 239.083 46.6199 238.987 47.9819 239.089C47.9819 237.011 47.3969 234.724 48.7999 233.24C49.5559 233.996 50.0439 236.656 49.7379 239.207C49.8879 239.958 50.2539 240.724 49.5029 241.546C49.6209 242.255 49.5559 242.936 50.0859 243.533C50.3429 243.754 50.9819 243.548 50.9059 244.236C50.8279 244.585 51.0919 245.008 50.6709 245.289C51.1379 245.586 51.8459 245.039 51.9589 246.107C51.7909 246.41 51.5149 247.492 50.3199 247.743C50.2809 248.17 49.9029 248.556 50.2019 249.031C50.5099 249.069 50.8579 248.9 51.1399 249.146C51.2009 249.451 52.0839 250.167 50.9049 251.255C51.9729 251.849 52.5999 252.057 52.3079 253.945C54.0889 254.481 54.3359 255.074 53.0089 256.402C55.3259 256.375 55.7069 258.484 53.4789 259.092C52.4889 259.539 51.9299 259.247 51.0219 258.975C50.5189 259.027 50.0539 258.623 49.7359 258.507C49.9929 259.564 49.8169 260.893 49.7359 261.782C50.5139 262.14 51.3169 262.49 52.0749 262.835C54.2169 262.463 54.3369 263.081 53.8269 264.356C55.4969 264.798 56.1979 266.877 54.1789 267.281C53.5719 266.994 53.1929 266.4 52.7759 265.878C52.9769 266.981 52.8849 268.067 52.7759 269.151C51.1269 271.964 43.8599 270.107 40.8449 269.503C40.7339 269.196 40.6529 268.963 40.5809 268.735C36.8919 271.36 29.8509 273.698 25.1419 272.759C25.1049 272.162 25.1099 271.59 25.1359 271.03C20.9059 270.954 16.1289 271.704 12.3009 271.385C11.6449 273.026 7.95394 269.635 6.11794 269.839C4.71594 269.995 2.14394 270.572 -6.10352e-05 271.039V247.968C0.00593896 247.963 0.00893896 247.957 0.014939 247.951C0.00993896 247.929 0.00493896 247.898 -6.10352e-05 247.875V242.831C0.206939 242.663 0.500939 242.562 0.910939 242.579C0.787939 241.965 0.708939 241.596 0.990939 240.951C2.03694 240.486 2.07094 241.043 2.04994 242.579C3.13094 243.66 1.28294 245.252 2.37494 245.426C3.43694 246.355 2.76494 248.629 2.78194 250.146C3.10894 250.437 3.61794 250.633 3.67594 251.203C4.25894 250.717 5.00494 249.931 5.95394 249.82C2.94994 248.485 5.75394 246.178 7.98894 246.81C8.01594 246.429 7.93094 246.04 8.07094 245.669C7.94594 245.344 7.86194 244.936 7.66194 244.614C7.52294 243.22 7.95394 242.024 9.61494 241.765C9.15894 240.945 8.09594 239.055 9.94194 239.568C9.44994 234.651 11.2779 234.249 11.1609 239.325C11.3569 239.914 11.5999 240.74 11.7319 241.44C13.3849 241.275 12.8469 242.745 11.6499 243.557C12.6439 244.22 12.8179 244.63 12.4639 245.835C13.3659 245.904 14.2719 245.971 15.1489 246.24C15.5469 245.785 15.9249 245.641 15.8809 244.451C14.7799 243.851 14.5889 243.494 15.3919 242.416C12.5419 242.416 16.2719 238.067 18.2409 239.326C18.2409 239.296 17.9429 238.692 18.2409 238.594C18.6189 238.481 19.4769 238.283 19.9489 238.105C19.8489 236.81 19.6649 235.507 19.8669 234.201C18.5099 234.078 19.4079 233.259 18.1589 233.142C17.4519 233.213 16.5919 233.321 15.9619 232.571C16.3749 231.437 17.6059 231.744 18.8909 231.434C18.8669 231.188 18.7869 230.167 18.8109 229.642C18.4289 229.132 17.9519 228.717 19.4609 228.91C19.4609 227.295 19.2109 225.713 19.1339 224.11C18.7749 223.243 18.6959 221.92 19.0139 221.966ZM41.9629 258.72C42.1349 259.104 42.2879 259.479 42.4219 259.84C42.8369 259.542 43.3379 259.286 43.8859 259.091C43.0389 259.092 42.4159 259.165 41.9629 258.72Z" fill="url(#paint0_linear_217_1083)"/>
<path d="M315.085 272.266C315.085 256.891 316.526 239.649 315.99 224.053C316.572 222.628 316.508 221.535 318.402 222.208C317.986 221.869 317.157 221.209 316.593 220.732C316.816 218.916 317.478 218.926 319.759 219.01C319.759 218.2 319.726 217.451 319.457 216.673C317.811 216.136 315.38 213.62 318.703 213.967C317.55 213.026 317.062 212.099 319.005 211.507C318.292 210.459 317.627 209.053 319.909 209.785C319.241 207.061 320.684 204.318 321.115 208.678C321.115 203.053 322.935 206.907 322.622 210.523C322.937 210.985 323.905 211.462 322.923 212.737C323.238 213.379 324.346 213.49 322.923 214.828C323.093 215.106 324.661 214.579 323.677 216.058C323.747 216.691 324.314 217.441 323.677 218.395C323.997 219.267 324.345 219.925 323.978 220.978C323.998 220.994 326.045 222.413 325.787 223.807C326.045 223.176 326.288 222.393 326.842 221.839C325.881 220.794 325.507 220.698 327.294 219.379C326.282 218.278 325.976 217.845 327.445 217.288C326.791 216.576 326.042 216.584 327.294 215.566C326.857 214.783 325.605 214.007 327.746 214.09C327.471 211.847 328.976 208.623 329.253 212.737C329.39 213.351 329.946 214.288 329.102 215.443C329.652 216.041 330.584 216.239 329.102 217.657C330.212 218.336 330.563 218.213 330.308 219.871C330.522 220.22 331.292 220.739 331.212 221.347C331.212 219.994 330.85 219.416 332.418 219.01C332.142 218.672 331.777 217.884 331.212 217.534C331.767 216.968 330.929 216.455 332.418 216.304C331.981 215.912 331.679 215.155 330.911 214.951C331.313 214.514 331.155 213.847 332.72 213.967C332.553 213.695 331.993 213.462 332.117 212.983C332.117 212.524 330.244 212.062 333.021 211.507C332.915 210.644 332.431 209.95 333.775 209.908C332.702 209.033 332.205 207.71 334.076 208.309C333.155 207.182 332.506 206.373 334.528 206.218C334.528 201.272 336.631 203.946 336.035 207.202C336.499 208.055 336.795 208.751 336.337 209.785C336.407 210.36 336.884 210.958 336.035 211.63C336.317 212.148 337.041 212.363 336.337 213.475C338.777 212.878 340.266 214.553 336.638 214.336C337.683 214.421 338.061 214.146 338.598 215.074C337.884 215.527 336.944 216.054 336.638 216.796C338.105 217.155 339.238 217.248 338.146 218.764C338.122 219.035 338.631 219.887 337.995 220.486C339.1 221.387 339.404 221.536 337.844 222.946C338.918 223.344 339.955 223.665 340.407 224.668C340.587 223.936 340.442 223.306 341.161 222.7C339.947 221.71 339.135 220.821 341.161 220.609C339.689 219.708 339.475 219.394 341.161 219.01V217.657C339.969 216.928 339.407 216.809 341.312 215.935C340.123 215.207 339.171 214.151 341.915 214.459C340.608 213.393 338.827 212.56 341.312 212.368C341.312 211.589 341.21 210.779 341.463 210.031C340.388 208.57 339.179 206.462 341.915 207.079C341.267 204.435 344.071 205.495 343.422 208.186C343.636 208.361 345.257 208.126 344.176 210.4C344.383 210.78 345.151 211.808 344.327 212.983C345.166 213.497 345.644 214.656 345.231 215.443C345.34 215.857 346.471 216.032 345.683 217.165C345.763 217.818 346.2 218.63 345.683 219.133C346.531 219.824 347.336 219.646 345.834 221.224C346.291 221.721 347.212 222.259 346.588 223.684C347.15 224.208 347.983 224.269 348.095 225.529C348.254 224.106 348.075 222.653 349.452 221.716C347.878 221.459 347.171 220.058 349.452 219.994C349.555 219.489 349.233 218.947 349.754 218.518C348.303 217.992 347.862 217.586 349.452 217.042C348.316 216.231 347.539 215.895 349.452 215.197C349.372 214.543 349.371 214.011 349.301 213.352C348.726 212.508 347.917 212.172 349.603 211.63C348.811 210.466 348.358 209.548 350.357 210.154C350.203 209.526 349.775 208.951 350.206 208.186C349.768 207.293 348.955 206.319 350.658 205.726C351.047 202.55 353.085 204.298 352.165 206.587C352.165 207.221 352.277 208.529 352.014 209.416C353.033 210.248 353.648 210.554 352.617 211.63C352.792 211.952 353.635 212.323 353.069 213.475C355.435 212.617 354.65 214.383 352.768 214.828C353.988 215.491 354.87 215.332 353.069 216.673C354.166 217.344 354.566 217.087 353.823 218.395C354.13 218.959 354.914 219.252 353.974 220.363C355.321 220.912 356.062 221.416 355.18 223.069C354.979 223.643 355.258 224.572 354.577 224.791C354.615 225.165 355.303 225.472 354.728 226.267C355.589 226.337 355.815 225.321 356.838 227.005C356.579 226.302 356.031 225.735 356.838 224.791C355.956 223.832 355.477 223.911 356.989 223.315C357.438 219.654 359.288 222.647 358.044 224.668C358.242 225.205 358.933 225.629 358.496 226.636C358.697 227.455 359.053 228.336 358.345 229.342C358.555 229.587 359.272 230.01 359.4 230.572C360.095 228.682 359.649 228.732 360.606 227.374C360.018 226.735 359.177 226.698 360.305 225.898C360.255 225.612 360.425 225.301 360.154 225.037C359.574 224.406 358.89 224.657 359.551 223.315C359.426 222.292 359.137 221.507 360.606 220.978C359.536 220.105 359.194 219.953 360.606 219.133C360.606 215.341 363.249 219.29 361.661 221.47C362.237 221.822 362.906 222.552 362.565 223.069C362.975 223.67 363.967 224.167 362.565 225.283V226.759C362.908 227.132 364.095 228.101 363.47 229.588C363.47 225.337 365.676 228.883 364.676 231.31C364.692 231.343 365.795 232.238 365.43 233.278C365.738 233.843 366.704 234.451 365.43 235.861C365.822 236.436 366.738 236.512 365.731 237.583C365.704 237.844 366.407 238.479 365.58 239.059C366.144 239.887 367.216 239.74 365.429 241.15C366.413 241.953 367.066 242.187 366.484 243.487C366.834 243.854 366.522 244.594 367.539 244.594C367.539 243.482 367.843 242.475 367.539 241.396C367.411 240.349 366.803 239.526 368.443 239.182C368.219 241.008 369.398 242.645 368.594 244.471C368.838 245.465 368.705 246.221 370.554 245.455C370.663 245.011 370.877 244.22 371.006 243.61C370.154 242.915 369.184 242.611 371.157 241.888C368.936 240.881 368.855 239.439 371.76 240.412C371.86 240.043 371.863 239.647 372.061 239.305C370.182 238.692 369.967 238.655 371.458 237.952C371.014 237.136 370.059 237.101 371.76 236.845C371.76 232.959 373.499 230.206 372.815 235.246C372.732 235.919 372.764 236.486 372.513 237.091C372.741 237.741 373.85 237.489 373.116 238.813C373.066 239.264 373.009 239.715 372.965 240.166C373.261 240.601 374.304 241.141 373.568 242.749C373.369 244.377 374.785 244.831 374.623 242.872C374.309 242.105 373.605 241.13 374.472 240.289C374.513 240.12 374.981 238.952 374.774 238.198C373.522 232.58 378.329 241.107 375.678 242.134C377.259 242.707 376.825 242.114 376.432 243.364C377.441 243.981 378.179 244.017 377.035 245.455C377.794 246.075 378.767 245.281 377.487 246.808C377.829 247.436 378.936 247.24 377.638 248.776C378.141 248.571 379.077 248.616 379.145 248.161C379.145 247.546 380.495 246.567 380.954 247.054C381.457 247.341 382.404 247.417 382.461 247.915C382.636 247.202 382.624 246.103 383.516 245.701C382.297 245.701 381.989 245.803 381.406 244.84C382.757 244.73 383.319 244.726 384.572 243.979C382.78 243.979 380.652 244.289 381.256 242.38C383.038 242.38 384.476 242.075 384.572 240.043C382.049 242.102 380.363 240.555 382.914 239.305C382.509 238.561 381.414 238.008 383.668 238.321C382.967 237.034 382.862 236.617 385.025 236.722C385.126 236.394 385.137 236.038 385.326 235.738C381.85 235.738 381.18 233.922 384.723 233.77C384.822 233.446 384.455 233.031 385.025 232.786C383.353 231.763 382.209 231.003 385.477 231.187C384.167 230.593 382.509 229.45 385.176 228.973C385.651 228.456 385.793 227.704 387.437 227.374C386.361 226.371 385.056 225.221 387.588 225.037C387.803 224.581 386.842 223.83 388.342 223.438C387.698 222.387 386.951 221.486 389.247 221.224C388.098 218.099 391.266 218.331 390.001 221.101C390.035 221.138 391.137 222.08 390.755 222.823C391.854 223.72 391.719 223.527 390.906 224.668C393.08 224.845 393.161 225.547 391.057 226.021C391.094 226.352 391.678 226.825 391.208 227.374C391.258 227.702 391.095 228.051 391.359 228.358C392.414 229.219 393.948 230.115 391.208 230.941C391.547 231.183 392.1 231.259 392.414 231.802C392.012 232.089 391.73 232.755 391.208 232.663V233.278C391.964 233.741 393.851 235.289 391.057 234.877C391.007 235.205 391.157 235.553 390.906 235.861C391.635 236.337 392.413 235.463 392.413 236.845C393.46 236.93 394.382 237.049 395.277 237.706C395.589 237.415 395.275 236.617 396.332 236.722C393.079 236.457 392.97 235.133 396.483 235C394.132 234.616 392.27 232.911 395.578 232.294C395.731 232.013 394.795 231.031 397.086 231.187C397.185 230.905 397.271 230.617 397.387 230.326C394.387 230.104 394.587 228.307 397.236 228.85C397.286 228.564 397.125 228.254 397.387 227.989C396.153 227.234 395.686 227.067 397.689 226.39C397.019 225.406 396.589 224.797 397.689 223.93C397.689 223.32 396.857 222.791 398.292 222.946C398.638 220.125 399.803 218.602 399.498 222.331C399.522 222.544 399.838 223.284 399.649 223.684L399.8 224.914C401.095 225.231 402.196 226.159 399.348 226.021C399.405 226.161 401.446 226.441 399.649 226.759V227.62C400.546 228.169 401.075 228.188 400.855 229.465C400.503 229.752 400.279 230.435 399.8 230.326C399.75 230.531 400.019 230.768 399.649 230.941C400.355 231.453 401.114 230.464 401.006 231.925C403.995 232.169 403.302 233.88 400.554 233.155V234.262C402.732 233.374 404.502 234.38 401.911 235.615C401.76 236.189 402.042 236.993 401.459 237.337C401.964 237.795 401.434 238.091 402.816 238.567C403.308 238.929 403.168 239.443 404.323 239.674C404.612 237.318 405.731 238.388 405.529 240.781C407.085 239.088 407.708 239.865 406.886 241.642C407.403 241.582 407.327 240.872 407.941 241.519C407.622 242.169 407.465 242.88 407.037 243.487C408.727 242.453 409.432 242.699 408.092 244.348V245.824C409.949 246.279 410.387 246.483 408.544 247.546C408.594 247.792 408.278 248.068 408.695 248.284C410.601 248.284 410.527 248.453 409.449 249.883C410.566 249.792 410.531 249.139 410.956 250.498C410.585 251.153 410.296 251.994 409.901 252.712C410.148 252.981 411.031 252.926 410.805 253.696C410.83 253.744 411.774 254.411 411.559 255.172C411.535 255.408 412.338 256.462 411.257 257.386C411.44 257.61 412.661 257.354 412.161 258.493C412.018 258.797 412.699 259.705 411.407 260.092C411.683 260.354 412.115 260.367 412.311 260.953C411.928 261.37 411.418 261.889 411.256 262.429C411.498 262.385 411.997 261.946 412.613 262.183C412.596 262.235 412.517 264.007 411.256 264.397C412.751 265.372 395.763 262.296 395.388 263.827C394.473 264.987 393.502 263.937 393.278 263.95C393.559 265.708 391.173 265.994 391.017 266.041C390.827 265.61 389.912 265.877 389.359 265.795C388.985 266.998 378.313 268.231 387.098 267.517L315.085 272.266Z" fill="url(#paint1_linear_217_1083)"/>
<path d="M312.786 192.623C312.447 192.587 312.286 193.903 312.791 195.981C312.865 196.577 313.068 197.025 312.986 197.604C311.184 197.153 309.797 197.398 311.229 198.534C309.199 198.946 310.877 199.729 311.718 200.313C311.548 200.729 311.848 201.136 311.913 201.395C309.881 201.321 310.238 202.367 310.647 203.561C308.62 203.821 309.223 204.59 310.745 204.953C310.103 206.057 310.453 206.347 311.522 206.81C308.595 206.454 307.683 208.666 311.034 208.666C311.383 208.982 311.404 209.902 311.424 210.058C310.074 210.545 310.692 211.13 311.62 211.682C311.765 212.109 311.718 212.555 311.718 212.996C309.297 212.755 308.238 214.468 311.229 214.468C308.37 215.333 308.353 216.89 311.62 216.631C311.736 217.305 311.374 217.517 311.131 217.949C308.235 215.802 305.692 219.804 310.549 219.419C310.906 219.981 310.682 220.287 310.549 220.811C308.621 221.012 306.837 221.965 308.308 223.133C307.143 224.717 309.19 224.725 310.452 224.525C310.373 225.406 310.646 225.36 311.718 225.529C310.164 226.061 310.808 226.74 311.718 227.463C311.956 228.92 312.026 230.456 312.206 231.873C311.47 232.394 308.677 234.135 311.328 234.347C309.774 234.901 310.159 235.291 310.453 235.816H308.505C308.617 234.526 308.616 234.084 307.334 233.575C308.519 232.805 310.325 231.801 308.114 231.1C309.117 230.358 308.245 229.761 307.528 229.398C308.446 228.683 308.229 228.209 307.919 227.387C308.057 226.883 308.762 226.753 309.38 226.46C308.705 225.585 307.48 224.917 306.166 224.604C306.501 223.308 307.426 222.164 306.068 221.355C307.275 220.413 307.034 220.42 306.068 219.654C306.598 218.917 306.262 218.361 306.166 218.108C307.259 217.264 306.762 217.11 306.166 216.637C306.89 215.475 307.012 214.846 305.775 214.551C306.519 213.374 306.427 212.412 305.384 211.688C305.631 210.42 305.347 209.708 304.119 210.683C303.108 206.999 301.965 210.652 302.361 212.229C300.636 211.222 301.104 212.705 301.486 213.389C299.982 213.423 300.67 214.153 301.193 214.706C300.91 215.17 301.45 215.315 301.584 215.633C298.587 215.314 298.407 217.025 301.486 217.025C300.798 217.07 301.225 217.492 301.096 217.722C299.246 217.057 297.584 217.933 299.732 218.881C297.035 218.337 300.265 220.825 300.9 221.203C300.968 221.513 300.705 221.718 300.607 221.975C299.827 220.627 299.244 221.218 299.244 222.439C297.995 221.167 295.597 220.883 296.905 222.439C297.323 222.989 298.123 223.108 298.755 223.443C298.846 223.779 298.698 223.808 298.657 224.062C296.795 222.742 293.034 224.489 296.514 224.914C296.659 225.289 296.611 225.684 296.611 226.074C292.981 225.884 294.39 226.683 296.611 227.388C292.824 227.868 295.373 229.288 297.682 229.786C297.951 230.104 297.682 230.426 297.682 230.713C296.657 230.457 294.956 229.281 294.956 230.868C294.338 230.572 293.558 230.789 293.008 230.868C292.712 227.134 291.739 223.343 291.739 219.577C289.82 221.953 291.554 227.011 291.935 230.328C291.054 231.26 291.431 231.416 292.228 232.259C291.668 233.202 292.008 233.831 292.716 234.581C292.876 235.25 292.814 236.393 292.814 236.825H292.033C291.731 237.788 292.623 238.015 293.396 238.295C293.04 239.059 293.216 240.092 293.301 240.77C294.464 242.098 292.147 243.203 291.349 241.619C292.211 241.101 292.033 240.516 292.033 240.074C291.943 239.493 291.452 239.614 291.252 239.454C291.428 239.138 291.252 238.927 291.252 238.605C291.659 237.687 291.386 237.378 290.866 236.826C291.416 235.903 291.01 235.5 290.377 235.125C290.811 233.505 290.613 233.528 290.182 231.646C290.67 230.508 290.041 230.054 289.791 229.789C290.466 227.627 288.705 227.134 289.011 229.556C287.497 229.262 287.906 230.558 288.625 231.413C287.423 232.328 289.214 233.602 289.011 235.203C287.877 234.167 286.03 233.874 287.063 235.513C285.267 235.838 285.622 236.94 286.867 237.599C286.82 238.542 286.965 239.447 286.965 240.385C285.14 238.568 283.245 240.161 285.504 241.157C285.264 241.266 285.439 241.415 285.406 241.545C282.646 241.03 284.449 242.625 285.797 243.015C282.919 243.187 283.498 244.328 285.699 245.026C281.73 244.812 281.178 247.275 285.602 246.572C285.602 246.829 285.602 247.089 285.602 247.346C284.569 248.154 283.982 248.244 282.388 248.118C280.689 248.67 282.373 249.581 283.263 250.052C278.258 249.976 282.645 251.408 284.724 252.141C283.747 251.849 277.053 254.539 281.901 254.924C281.402 255.478 281.553 256.256 281.607 256.78C281.079 256.325 280.536 256.136 280.146 255.931C280.053 255.022 279.827 255.085 278.78 255.001C279.304 253.981 279.057 253.601 278.291 253.145C278.618 250.464 276.733 250.499 277.026 253.068C275.654 253.335 275.642 254.254 276.148 255.157C274.261 255.522 272.881 256.842 275.37 257.632C274.444 259.014 272.912 259.973 274.98 260.958C273.962 261.836 274.429 262.543 276.05 262.659C273.093 263.169 273.332 265.027 275.855 266.139C272.638 266.27 274.822 268.468 275.662 269.232C277.294 268.626 278.656 267.987 279.852 268.461C281.209 267.079 283.428 266.431 285.014 266.527C285.184 266.879 285.079 267.247 285.112 267.609C286.589 267.616 287.671 267.067 289.204 267.067C288.731 266.09 289.66 265.75 290.179 265.521C290.086 264.439 289.652 263.994 288.426 263.898C288.915 263.82 289.514 263.586 290.179 263.898C291.133 263.392 292.679 263.389 291.057 264.363C291.719 264.573 292.574 264.662 292.614 265.29C292.892 264.191 294.446 263.895 294.758 265.135C295.978 263.682 297.547 264.572 296.122 266.064C297.455 266.064 299.627 265.602 300.8 265.135C302.07 264.462 303.429 264.441 303.627 265.754C304.676 265.2 305.781 264.55 307.134 264.517C307.86 263.694 309.113 263.115 310.156 264.439L313.467 263.51C313.467 261.25 316.25 263.235 317.559 263.974C318.538 263.586 319.493 263.128 320.581 263.741C320.693 263.431 320.785 263.09 320.972 262.659C321.531 262.483 322.049 262.373 322.466 262.513C322.565 262.942 322.934 263.3 323.714 263.389C325.785 263.623 326.973 262.184 328.686 261.766C329.545 263.569 331.924 262.146 332.095 261.921C334.443 262.287 334.276 259.942 331.997 259.832C332.03 259.523 331.989 259.204 332.095 258.905C334.644 258.702 334.69 257.234 332.29 257.743C332.23 257.537 332.109 257.043 331.997 256.738C334.127 255.987 334.858 254.536 331.415 255.579C331.463 255.2 331.698 254.925 331.122 254.572C330.342 254.572 329.575 254.514 328.979 254.494V252.25C331.721 252.904 334.138 251.438 329.467 251.401V250.859C332.305 249.858 333.7 249.685 329.076 249.391C329.061 249.241 328.868 248.808 328.979 248.542C330.52 247.624 333.119 249.97 334.629 248.772C335.253 248.277 333.687 247.387 333.266 247.302C332.124 247.075 331.065 246.749 329.854 246.917C334.198 246.572 333.145 244.957 329.369 245.832C329.369 245.677 329.375 245.522 329.369 245.368C330.704 244.779 331.484 243.46 329.174 243.822C329.174 243.533 329.446 243.196 329.174 242.895C329.207 242.533 329.098 242.163 329.272 241.811C331.231 241.966 331.509 241.061 329.565 240.806C330.568 240.487 331.545 239.267 329.369 239.802C329.437 239.503 329.278 239.206 329.565 238.95C329.565 238.587 329.519 238.219 329.66 237.868C330.845 237.345 330.828 236.496 329.176 236.706C330.096 233.048 328.04 232.926 328.395 236.939C326.847 236.393 327.19 237.263 328.298 238.101C326.431 238.101 326.033 238.839 327.907 239.26C327.94 239.467 327.92 239.683 328.005 239.88C326.486 239.638 324.66 240.377 327.13 240.574C327.061 240.9 326.989 241.059 326.934 241.503C326.4 241.927 325.713 242.216 327.13 242.507C326.931 242.862 326.615 243.128 326.641 243.667C326.43 243.683 326.207 243.746 325.989 243.8C325.736 243.331 324.842 243.127 323.993 243.635C323.357 243.355 322.749 243.035 321.85 242.938C322.101 242.273 322.01 242.04 322.825 241.934C325.22 244.106 326.987 239.954 323.703 241.082C323.545 239.829 322.881 239.881 321.462 240.155C321.413 239.766 321.328 239.265 321.266 238.841C321.555 238.663 321.937 238.634 322.141 238.299C323.49 240.655 325.765 239.466 323.801 237.757C325.934 236.487 321.973 235.121 320.388 235.207C319.667 234.89 318.75 234.135 317.659 234.045C316.719 230.315 321.69 235.585 323.019 233.582C322.015 233.229 321.266 232.627 320.778 231.804C322.497 231.804 322.437 230.561 320.973 230.102C321.485 229.127 321.825 227.147 319.416 228.246C319.416 226.101 317.181 227.546 317.077 225.615C318.033 225.615 318.377 225.769 318.732 225.075C319.15 225.671 319.627 228.361 321.168 226.621C322.255 226.308 322.736 226.091 322.141 225.075C323.246 224.417 322.949 222.976 321.266 223.913C320.92 223.547 320.61 222.815 319.607 222.909C319.393 222.739 318.595 222.031 318.341 221.285C320.052 221.828 321.717 219.761 319.414 219.506C318.936 218.558 318.472 218.288 317.657 218.965C317.34 218.629 316.917 218.279 316.782 217.805C317.634 217.43 318.056 217.34 317.657 216.488C319.398 215.452 318.281 215.041 316.977 214.246C317.285 213.351 317.098 213.084 315.611 213.394C315.611 212.841 315.611 212.304 315.513 211.771C318.788 212.551 318.86 209.991 315.91 209.834C317.176 209.722 317.594 208.985 315.903 208.522C315.837 207.991 315.924 207.722 315.414 207.285C318.805 206.478 315.897 205.566 314.051 205.196C315.098 204.827 315.469 204.636 315.026 203.495C315.092 203.377 315.663 202.86 315.511 202.258C319.625 202.258 316.236 200.681 314.049 202.025C314.124 201.433 314.118 200.843 314.245 200.247C316.365 200.093 315.732 199.089 313.952 199.395C314.012 199.132 314.344 198.932 314.147 198.546C316.534 198.23 317.314 196.438 314.44 197.461C314.854 196.639 315.386 195.201 313.66 195.452C313.421 193.498 313.051 192.652 312.786 192.623ZM251.075 216.557C250.614 216.473 250.048 217.271 250.325 218.333C249.058 219.087 250.352 218.876 250.325 219.881C250.065 220.345 249.632 220.275 250.325 220.963C250.364 221.039 251.375 220.749 250.52 221.351C248.625 221.226 248.507 222.672 250.227 222.897C249.099 223.295 249.124 223.89 250.52 224.367C250.355 224.592 250.018 224.929 249.838 225.294C248.469 225.656 247.9 226.525 249.74 226.456C249.785 226.572 249.799 227.375 250.033 227.615C249.878 227.664 248.792 227.851 248.378 228.157C247.388 227.808 245.377 227.814 247.403 229.084C246.762 229.847 246.749 230.069 248.574 230.013C248.19 230.697 247.736 231.196 247.89 232.177C245.897 232.177 246.326 233.37 247.694 233.726C245.319 234.291 244.166 235.72 247.694 235.272C246.058 235.792 245.604 236.762 247.792 236.895C246.956 236.956 246.62 236.808 246.137 237.589C244.894 238.357 245.276 239.046 247.21 239.213C246.677 239.818 246.361 240.339 245.844 240.914C243.309 239.572 241.594 242.757 245.648 242.693C243.907 243.729 244.786 244.793 246.917 244.164C246.023 245.441 247.089 246.675 248.67 245.168C248.638 245.53 248.74 245.897 248.572 246.25C247.585 246.598 245.857 247.151 244.87 247.72C242.492 248.749 243.009 250.977 246.331 250.428C245.079 251.024 242.641 250.881 243.309 252.129C242.819 254.072 245.47 251.572 246.917 252.129C246.63 254.411 243.289 254.207 244.089 256.152C242.019 256.81 242.543 256.984 242.337 258.626C241.87 258.904 241.209 258.973 241.848 259.941C241.153 261.044 242.26 261.871 244.48 261.258C241.582 262.723 244.691 263.513 246.135 262.108C245.558 262.72 245.331 263.207 244.772 263.886C243.148 264.016 243.26 264.849 243.308 266.053C241.533 266.335 241.694 267.426 241.457 268.836C240.717 269.422 240.134 269.885 239.509 270.77C236.304 272.678 239.769 273.491 242.531 272.393C244.045 272.494 245.147 272.465 246.135 271.622C246.161 271.622 247.841 271.663 248.474 271.467C248.734 272.705 249.509 272.662 250.813 272.007C252.095 272.007 252.759 271.846 252.275 270.77H253.836C255.026 270.77 257.502 270.878 255.98 269.378C256.239 269.357 256.634 269.198 256.953 269.3C258.293 269.89 259.058 270.261 260.655 269.61C261.968 269.895 263.371 269.873 264.849 269.766C264.757 269.33 264.703 268.454 263.874 268.142C263.874 266.264 263.06 266.257 261.144 265.898C261.105 265.793 260.922 264.997 260.366 264.738C260.481 264.28 260.616 263.493 260.655 262.882C262.461 261.927 261.934 260.698 259.683 260.019C261.688 259.44 260.579 258.667 259.096 257.932C259.154 257.477 259.829 257.092 258.221 256.925C258.137 256.632 257.838 256.323 257.928 255.921C259.339 255.299 258.671 254.565 257.246 254.22C259.417 254.22 258.405 253.004 257.344 252.441C258.816 252.091 258.895 251.264 257.148 250.585C259.592 250.391 257.69 249.118 257.344 247.954C257.925 247.339 258.086 247.16 257.344 245.946C260.152 245.946 257.796 244.305 257.344 243.624C257.292 243.418 257.269 242.604 256.173 242.309C257.55 241.982 257.856 241.493 256.368 240.686C258.069 240.145 257.573 238.857 255.591 239.292C255.54 238.895 255.415 238.532 255.591 238.132C257.983 237.289 255.976 236.381 254.615 235.579C256.326 235.443 256.892 234.388 254.322 234.342C255.474 233.298 258.999 232.487 254.42 232.564C254.42 231.917 254.355 231.523 255.104 231.094C255.934 230.434 256.124 229.834 254.908 229.315C254.772 228.229 253.532 227.496 253.545 226.222C254.833 225.199 252.927 225.621 252.765 223.824C252.739 223.776 253.101 222.975 252.082 222.587C254.233 222.587 252.375 221.509 251.887 220.653C252.798 219.93 252.788 220.083 251.984 219.649C251.951 219.437 251.482 219.366 251.887 219.029C252.232 218.413 252.719 218.417 251.598 217.792C251.594 216.975 251.352 216.607 251.075 216.557ZM319.608 244.091C320.181 244.433 321.295 244.976 321.85 245.56C323.924 245.889 323.598 246.483 324.482 247.417C324.676 247.417 324.842 247.4 324.986 247.368C324.423 247.782 324.207 248.204 324.693 249.227C322.345 249.04 321.495 250.184 324.302 250.542C323.716 251.007 322.91 251.581 324.009 252.165C323.495 252.165 323.151 252.247 322.926 252.368C322.654 252.262 322.283 252.191 321.755 252.21C321.276 250.945 320.579 251.372 319.416 252.21C319.153 251.862 317.699 250.168 317.952 249.116C318.785 249.777 319.554 251.362 320.875 250.276C322.512 250.276 323.361 248.888 322.141 247.878C323.003 247.194 322.7 245.901 321.364 246.874C320.397 246.697 319.808 246.772 319.416 245.792C319.486 245.239 319.492 244.647 319.608 244.091ZM325.48 244.892C325.601 244.921 325.7 244.951 325.861 244.976C325.775 245.316 325.049 245.418 326.056 245.825C326.056 245.957 325.785 246.434 326.056 246.677C325.891 246.779 325.768 246.852 325.622 246.938C325.835 246.506 325.576 245.841 325.066 245.173C325.243 245.079 325.354 244.986 325.48 244.892ZM322.967 253.455C323.401 253.861 324.161 254.168 324.936 254.009C324.605 254.122 324.275 254.24 323.913 254.332C323.816 254.382 323.575 254.432 323.347 254.532C323.11 254.375 322.647 254.465 321.947 255.072C321.839 254.616 322.148 254.254 321.657 253.835C322.233 253.789 322.667 253.641 322.967 253.455ZM324.302 256.885C324.454 257.066 324.518 257.397 324.888 257.579C324.676 257.892 324.483 258.283 324.206 258.586C323.926 258.605 323.71 258.642 323.499 258.682C323.384 258.368 323.177 258.04 322.923 257.625C323.37 257.431 323.7 257.22 323.852 257.016V257.013C324.003 256.973 324.155 256.945 324.302 256.885ZM323.038 259.994C323.49 260.263 324.17 260.513 325.084 260.675C324.707 260.625 324.344 260.577 323.996 260.613C323.755 260.401 323.413 260.218 322.923 260.098C322.969 260.062 322.996 260.03 323.038 259.994Z" fill="url(#paint2_linear_217_1083)"/>
<path d="M0.00495312 380.253H450V264.853C442.36 262.978 432.214 260.666 423.5 261.194C419.356 261.445 417.472 263.547 412.73 264.39C374.107 263.562 340.431 262.767 298.481 259.721C288.642 259.672 264.151 263.194 253.985 266.087C236.475 263.624 225.937 263.999 211.975 264.762L174.626 264.493L166.626 260.288L133.109 266.232C119.234 264.965 110.892 268.252 110.892 268.252C103.06 266.086 100.022 268.115 94.901 268.322L48.523 268.948L0.00195312 274.982L0.00495312 380.253Z" fill="url(#paint3_linear_217_1083)"/>
<path d="M46.8979 269.521C43.4649 269.533 40.0289 269.599 36.6209 269.688C24.4479 272.123 12.1209 262.22 -6.10352e-05 263.956V288.057C13.1589 285.791 26.6069 285.222 39.4379 280.251C39.2919 280.217 32.6219 279.025 30.2819 278.141C39.4789 277.221 47.2049 276.114 56.3389 273.211C62.7779 272.626 70.0299 272.566 76.7629 271.802C67.4579 269.941 57.1979 269.484 46.8979 269.521Z" fill="#64913B"/>
<path d="M133.803 266.169C141.537 264.252 154.105 266.072 161.972 264.76H173.24C184.184 265.941 200.203 268.281 209.155 268.281C229.545 270.254 291.239 283.694 309.859 293.633C299.657 292.505 254.738 282.967 229.577 276.732C221.511 277.567 212.87 276.579 206.337 274.619C186.612 267.746 149.491 267.738 133.803 266.169Z" fill="url(#paint4_linear_217_1083)"/>
<path d="M111.615 267.601C118.268 265.949 124.757 264.743 130.282 266.168C136.664 265.464 142.296 267.968 147.888 268.985C152.277 272.003 198.657 286.15 202.818 287.999C196.403 288.59 147.346 274.37 141.55 273.21C130.385 268.427 122.927 269.657 111.615 267.601Z" fill="url(#paint5_linear_217_1083)"/>
<path d="M104.225 267.576C112.104 267.059 119.001 273.281 123.943 276.027C130.902 279.498 141.432 285.352 143.661 286.59C135.849 283.823 128.971 280.282 121.83 278.139C113.172 275.735 108.273 272.973 104.225 267.576Z" fill="#A7BF34"/>
<path d="M87.3239 268.986C89.1019 267.745 91.0799 268.517 92.9579 268.282C96.8929 268.51 97.6589 272.042 99.9999 273.916C104.962 278.561 107.128 283.789 109.859 288.705C106.672 285.556 104.325 282.97 100.704 280.254C94.6069 276.948 91.4399 274.278 87.3239 268.986Z" fill="#A7BF34"/>
<path d="M171.127 274.62C180.628 275.249 190.296 277.554 199.296 280.254C218.405 285.685 236.222 289.008 252.817 295.043C247.018 294.76 241.864 294.339 235.916 294.339C230.71 295.439 226.324 293.829 221.831 292.93C204.98 284.907 186.299 279.172 171.127 274.62Z" fill="#90B23F"/>
<path d="M126.056 274.62C132.951 275.249 138.703 277.554 143.637 280.254C154.342 285.685 165.646 289.008 173.943 295.043C169.659 294.76 165.979 294.339 161.364 294.339C156.49 295.439 154.309 293.829 151.505 292.93C144.518 284.907 134.375 279.172 126.056 274.62Z" fill="#8CAA45"/>
<path d="M99.296 274.62C103.555 275.249 107.107 277.554 110.155 280.254C116.767 285.685 123.749 289.008 128.873 295.043C126.227 294.76 123.954 294.339 121.104 294.339C118.094 295.439 116.746 293.829 115.014 292.93C110.698 284.907 104.434 279.172 99.296 274.62Z" fill="#8CAA45"/>
<path d="M211.268 268.281C228.387 269.104 245.806 272.125 262.021 275.663C296.449 282.78 328.552 287.134 358.451 295.041C348.004 294.67 338.717 294.118 327.999 294.118C318.619 295.56 310.717 293.45 302.623 292.272C272.262 281.761 238.605 274.245 211.268 268.281Z" fill="#94B63D"/>
<path d="M180.282 266.169C190.287 264.252 206.545 266.072 216.722 264.76H231.298C245.455 265.941 266.178 268.281 277.759 268.281C291.992 267.101 321.451 281.312 340.696 277.527C365.588 272.631 405.839 290.237 414.085 290.816C400.888 289.688 336.726 282.967 304.178 276.731C293.744 277.566 282.566 276.578 274.115 274.618C248.596 267.746 200.577 267.738 180.282 266.169Z" fill="url(#paint6_linear_217_1083)"/>
<path d="M350 272.506C351.759 271.31 369.249 272.037 371.127 271.802C373.87 270.799 384.524 268.985 385.212 268.985C393.745 269.239 406.777 269.495 414.789 271.098C423.486 271.41 440.672 280.201 447.888 282.366C442.124 281.954 431.807 277.959 426.057 277.437C423.209 281.882 414.266 277.936 397.888 276.028C365.308 272.08 359.201 273.829 350 272.506Z" fill="#E2E173"/>
<path d="M81.691 273.914C81.278 281.29 82.651 288.576 83.804 294.337C80.364 296.824 77.341 293.798 75.353 293.633C74.1 285.345 79.349 281.722 81.691 273.914Z" fill="#8CAA45"/>
<path d="M274.471 287.334C274.295 287.619 274.162 287.947 274.047 288.289C274.188 287.97 274.324 287.647 274.471 287.334ZM274.046 288.289C273.15 290.304 272.384 292.449 272.367 294.833C272.147 292.955 272.135 291.559 270.919 290.146V294.083C269.173 294.581 266.977 295.111 265.002 295.206C263.803 294.943 262.666 294.366 261.45 294.268C260.272 294.397 259.166 294.635 258.032 295.018C257.258 294.038 256.541 292.897 255.269 292.771C254.473 293.338 253.569 294.012 252.655 294.587C251.365 293.413 249.507 294.524 248.225 295.071C247.731 294.988 247.575 294.331 247.259 293.971C245.88 294.167 244.719 294.955 243.392 295.76C243.227 295.384 243.531 294.69 242.908 294.661C241.051 294.864 239.288 295.875 237.398 295.76C237.298 295.045 237.27 294.283 236.914 293.696C236.058 294.029 235.508 294.2 234.982 295.485C234.605 294.678 234.517 294.083 233.821 294.107C233.353 294.477 232.79 294.907 232.275 295.211C231.668 294.454 231.435 294.112 230.536 293.833C229.92 293.833 229.298 293.903 228.699 294.107C229.344 295.332 230.815 295.8 231.404 296.174C231.994 296.548 232.711 296.449 233.434 296.449C234.011 296.545 234.66 296.387 235.175 296.313C236.341 296.959 237.307 296.983 238.364 296.313C240.009 296.354 241.583 296.679 243.199 296.449C246.168 298.602 248.395 296.64 250.944 295.68C250.757 295.819 250.572 295.965 250.402 296.143C252.017 296.373 255.162 297.387 257.769 297.641C259.247 296.705 260.815 296.74 262.371 296.143C263.656 296.642 265.293 296.792 266.712 297.268C268.108 297.467 269.677 297.744 270.919 296.891C271.857 296.149 272.37 295.577 273.945 296.518C274.375 296.654 274.66 296.975 275.128 296.891C277.87 296.891 280.647 297.416 283.413 296.891C280.992 295.95 278.383 294.807 275.522 295.393C275.123 294.256 274.645 293.137 274.865 291.458C274.537 291.879 274.392 293.311 273.55 293.143C273.55 292.018 273.496 289.915 274.046 288.289ZM197.439 290.354C197.283 291.552 197.142 292.768 197.112 294.044C195.705 294.261 194.588 293.955 193.622 295.891C195.034 295.724 196.61 295.664 198.092 295.724C200.791 295.724 202.736 296.615 205.507 296.393C207.31 296.393 209.01 296.412 210.74 295.724C211.122 295.938 211.574 295.943 211.941 296.393C213.734 296.393 215.552 296.459 217.284 296.227C218.596 296.227 219.555 296.283 220.662 295.221C221.139 295.547 221.713 295.84 222.19 296.393C223.844 296.393 225.468 296.385 227.096 296.227C225.359 295.405 223.965 294.736 222.407 293.542C221.92 293.792 221.155 294.123 220.554 294.044C220.355 293.279 220.287 292.5 219.899 291.526C217.886 292.456 216.392 295.323 214.339 295.891C213.463 293.964 212.47 291.526 210.849 291.526C210.618 291.925 210.077 292.914 209.54 293.206C208.488 292.486 207.838 291.598 206.705 292.029C206.342 292.532 206.087 293.342 205.615 293.542C205.1 292.485 204.583 291.245 203.543 290.857C203.035 291.75 202.554 292.533 202.344 293.878C201.521 292.19 200.718 291.247 199.29 290.688C199.439 291.261 200.04 292.115 199.726 293.708C198.762 292.883 198.207 291.686 197.439 290.354ZM158.018 290.732V294.596C157.075 295.113 156.021 295.01 154.978 295.01C154.445 294.997 153.984 294.918 153.458 294.87C152.671 295.593 152.026 295.898 151.354 296.25C150.489 296.288 149.697 295.764 148.9 295.422C148.15 294.927 147.528 294.414 146.912 293.768C145.551 293.893 144.734 294.647 143.522 295.284C142.197 295.516 140.869 295.404 139.548 295.284C137.592 295.84 135.51 295.595 133.586 295.974C136.111 295.925 138.458 296.545 140.718 297.078C141.852 296.682 143.046 296.15 144.106 295.837C144.965 296.282 146.338 296.446 147.264 296.665C148.544 296.779 149.953 296.942 151.121 297.217C152.812 296.778 154.304 296.389 156.031 296.389C157.862 296.384 159.739 296.316 161.525 296.526C162.04 296.657 162.497 297.004 162.927 297.216C162.999 296.336 163.419 295.979 163.746 295.284C163.823 295.268 163.896 295.264 163.971 295.255C163.233 295.823 163.878 296.447 176.168 296.742C176.168 296.27 176.398 295.711 176.168 295.326C176.854 295.694 177.495 295.948 178.132 296.227C179.892 296.642 182.034 296.605 183.692 296.1C184.369 296.034 185.049 295.782 185.764 296.1C186.644 296.1 189.126 296.232 190.561 296.487C191.09 295.773 191.535 295.112 192.416 294.297C190.021 294.297 187.712 294.94 185.328 294.941C185.045 294.559 184.685 294.411 184.565 293.911C184.258 294.233 183.739 294.361 183.583 294.941C182.637 294.941 181.678 295.012 180.748 294.812C180.374 294.308 179.873 293.649 179.439 293.141C179.176 293.49 178.415 293.33 178.568 294.297C178.17 293.592 177.7 293.213 177.696 292.24C175.925 290.954 176.364 290.87 175.298 292.24C174.426 292.812 173.537 293.384 172.571 293.656C170.058 293.925 167.495 293.945 164.949 294.393C164.651 293.42 164.656 292.5 164.564 291.56C164.472 292.443 163.929 294.007 163.863 294.182C162.57 294.375 162.168 293.228 161.524 292.25C161.662 292.824 161.676 293.315 161.759 293.904C162.003 295.038 161.403 295.017 161.058 295.56C160.531 295.802 160.079 295.35 159.771 295.284C158.251 293.87 158.018 292.87 158.018 290.732ZM285.204 291.638C284.703 292.822 284.079 294.204 283.686 295.399C283.355 295.008 283.13 295.457 282.927 294.503C282.04 294.745 281.082 294.788 280.196 295.039C281.568 296.254 283.074 296.656 284.901 297.01C289.324 298.054 295.049 298.234 299.164 296.113C296.886 296.113 294.557 296.299 292.335 295.756C291.989 295.484 291.838 295.504 291.425 295.039C291.063 295.406 290.606 295.537 290.363 296.115C289.734 295.829 289.052 295.694 288.391 295.219C288.344 295.072 287.339 294.667 287.935 293.786C287.518 294.377 286.758 295.125 286.417 295.935C286.101 294.693 285.368 293.165 285.204 291.638Z" fill="url(#paint7_linear_217_1083)"/>
<path d="M298.401 295.222C303.009 295.554 307.935 294.716 311.993 294.093C313.296 293.766 313.592 294.576 314.329 294.798C315.349 295.095 315.929 294.373 316.453 294.234C317.295 293.842 318.034 294.701 318.364 294.798C319.815 293.655 319.971 292.2 320.7 290.989C322.144 291.596 322.465 292.908 323.036 293.951C324.44 293.928 325.658 293.754 327.071 293.669C327.658 293.835 328.035 293.852 328.558 293.951C330.228 293.53 331.732 292.548 332.806 291.835C333.932 292.243 334.893 293.234 335.567 293.81C336.381 293.51 337.267 293.34 338.116 293.105C340.219 292.875 342.363 292.964 344.487 292.964C346.066 292.908 346.679 292.073 347.46 291.553C349.059 291.726 349.895 292.664 350.858 293.246C352.474 293.32 354.017 292.842 355.53 292.541C357.232 292.7 358.498 293.431 359.778 294.093C361.548 294.093 363.318 294.093 365.088 294.093C366.56 293.264 365.937 292.522 365.937 291.836C366.922 292.448 366.977 293.144 367.424 293.811C368.667 293.721 369.46 292.963 370.185 292.541C370.007 293.293 370.298 294.137 370.397 294.798C373.463 294.537 376.634 294.657 379.742 294.657C380.656 294.919 381.634 295.39 382.291 295.644C377.492 296.994 372.824 296.186 368.274 295.362C366.799 295.542 365.189 295.503 363.602 295.503C360.122 294.723 356.155 294.924 352.77 294.516C350.819 294.59 348.915 294.5 347.036 294.375C347.886 294.393 347.789 294.975 348.098 295.221C344.991 295.536 342.728 294.798 339.815 294.798C337.508 294.934 335.204 294.939 332.806 294.939C331.068 295.164 329.267 295.08 327.496 295.08C325.91 294.147 326.797 295.428 326.647 295.503C325.38 295.707 322.472 295.392 321.974 295.362C320.841 295.185 320.135 295.644 319.213 295.785C317.018 295.785 314.824 295.785 312.629 295.785C307.124 295.038 301.953 297.581 298.401 295.222Z" fill="#BDD645"/>
<path d="M381.939 295.117C383.232 294.873 385.734 294.129 386.524 293.883C387.378 293.887 387.369 294.411 387.935 294.765C388.415 294.163 388.613 292.431 388.64 292.296C389.405 292.833 389.563 293.565 390.051 294.236C390.689 293.758 391.398 292.729 391.638 292.296C391.248 293.016 391.927 293.887 391.991 294.236C393.364 294.463 394.497 294.013 395.518 293.707C396.517 293.707 397.517 293.707 398.516 293.707C399.441 293.406 399.371 292.363 399.75 291.767C400.192 291.811 400.341 292.24 400.632 292.472C401.491 292.988 402.484 292.825 403.453 292.825C404.168 292.617 404.871 292.352 405.569 292.12C406.834 291.79 406.17 293.082 406.451 293.531C409.636 293.576 412.71 293.795 415.62 294.06C416.635 292.767 416.276 291.578 416.149 290.181C416.393 291.347 416.898 293.573 417.031 294.06C417.45 292.541 418.596 291.326 419.323 290.357C419.596 291.443 419.499 292.589 419.499 293.707C420.18 293.351 420.549 293.007 421.086 292.649C421.228 293.305 421.682 293.722 421.968 294.236C424.068 293.7 424.514 292.519 425.318 290.709C425.846 291.867 425.294 293.22 425.142 294.059C426.024 293.603 426.779 293.111 427.611 292.648C427.611 293.059 427.611 293.471 427.611 293.882C429.279 293.606 430.782 293.337 432.548 293.177C437.904 295.345 443.557 294.787 449.123 295.293C445.351 297.089 439.554 296.466 435.898 295.469C434.429 295.469 432.959 295.469 431.49 295.469C430.613 295.379 429.863 295.585 429.021 295.645C427.491 295.87 425.594 295.524 424.436 295.292C422.439 295.501 420.33 295.224 418.793 294.763C419.369 295.488 418.501 295.639 418.44 295.821C416.834 296.028 415.22 295.648 414.032 295.292C411.322 294.82 408.533 294.939 405.744 294.939C405.744 295.35 405.744 295.762 405.744 296.173C403.395 296.497 402.335 295.422 400.454 294.586C398.93 294.758 397.743 295.139 396.222 295.291C394.468 295.191 392.815 295.734 391.108 295.996C390.155 296.594 389.667 295.564 389.345 295.467C386.856 295.508 384.27 295.584 381.939 295.117Z" fill="#94B63D"/>
<path d="M136.934 295.645C135.778 294.925 135.745 294.356 135.745 293.084C135.258 293.733 135.133 294.495 135.013 295.096C133.82 293.137 133.28 290.811 132.543 288.602C132.642 290.388 132.634 292.188 132.634 293.999C132.123 293.225 131.41 292.49 130.896 291.804C130.997 292.584 130.987 293.377 130.987 294.182C130.391 294.238 129.833 293.944 129.34 293.725C129.496 294.36 129.209 294.755 129.066 295.28C127.936 294.843 127.438 294.008 127.237 292.902C127.086 293.461 126.939 293.927 126.78 294.457C126.051 293.648 125.685 292.449 125.225 291.621C125.039 292.764 124.299 293.819 123.853 294.822C123.377 294.374 123.533 293.912 123.487 293.358C123.248 294.122 122.797 294.396 122.206 294.913C121.774 294.927 121.477 294.55 121.2 294.273C120.817 294.961 120.432 295.192 119.828 295.645C118.655 293.238 116.388 292.271 114.431 290.705C115.014 292.5 115.638 293.811 115.986 295.553C115.449 294.13 113.889 293.325 112.876 292.717C113.768 293.596 114.311 294.568 114.705 295.553C113.593 294.63 112.766 294.547 111.412 294.547C111.89 294.701 112.167 295.175 112.418 295.462C110.521 295.787 108.587 295.677 106.747 295.371C106.562 293.996 107.189 292.91 107.753 291.895C106.277 292.352 106.083 293.772 105.558 294.822C105.092 292.513 105.827 290.951 106.93 289.059C105.17 290.329 104.564 292.712 103.911 294.181C103.515 293.117 103.045 292.325 102.447 291.528C102.577 292.647 102.572 293.704 102.264 294.73C101.422 294.88 100.557 294.821 99.7029 294.821C100.125 295.396 99.3399 295.401 99.2459 295.553C97.6889 295.51 96.3769 294.624 95.2209 293.815C95.2209 294.364 95.2209 294.913 95.2209 295.461C93.4609 295.579 91.5959 295.32 90.1899 296.101C92.2409 295.762 93.9809 296.833 95.9529 296.833C97.9509 295.958 100.321 296.089 102.265 295.735C104.859 296.403 107.553 296.558 110.223 296.558C110.145 296.995 110.274 296.914 110.314 297.198C111.74 296.296 113.236 295.9 114.888 295.734C115.919 295.763 116.912 296.286 117.815 296.557C118.056 296.262 118.18 295.949 118.364 295.642C119.351 296.354 119.98 296.74 121.108 296.74C120.905 296.305 121.447 295.995 121.565 295.734C122.036 297.402 123.9 297.677 125.498 297.198C125.612 296.874 125.433 296.552 125.407 296.283C126.842 296.772 128.548 296.753 129.981 296.466C132.421 296.737 135.621 297.145 136.934 295.645Z" fill="#718D2D"/>
<path d="M91.4699 294.886C90.9969 293.261 90.9559 291.387 91.2779 289.613C90.6709 291.069 89.4799 292.257 88.9769 293.64C88.4559 293.384 87.8729 293.073 87.5389 292.873C87.4569 293.504 87.4089 294.174 87.3469 294.791C86.3379 294.931 85.4229 294.558 84.5659 294.216C84.4039 293.437 84.4699 292.617 84.4699 291.819C83.7579 292.427 83.4259 293.636 83.0319 294.504C82.0709 293.301 80.6639 292.542 79.5799 291.819C80.4619 293.021 80.4989 294.3 80.6349 295.654C78.3399 294.59 76.0569 293.297 73.6359 292.49C75.1579 292.904 76.5129 294.697 76.9919 295.558C76.2779 295.823 75.5349 295.75 74.7869 295.75C74.2269 295.096 74.2889 294.512 74.2119 293.737C74.2839 294.485 74.0829 295.071 73.9239 295.655C72.5229 293.712 71.1969 291.855 68.8419 291.148C70.2919 292.226 71.0519 293.692 71.2389 295.559C70.7529 295.386 70.3509 295.143 69.9929 294.984C69.8239 294.616 69.9289 294.218 69.8969 293.833C68.9369 294.238 68.3309 295.244 67.7879 295.942C66.8239 295.029 65.9499 294.065 64.9119 293.257C64.9269 294.042 65.0079 294.766 65.0079 295.558C63.5749 295.713 62.1609 295.366 60.6929 295.366C60.4819 295.833 60.6509 296.289 60.6929 296.708C59.0239 296.074 57.5989 295.845 55.8989 295.845C55.4139 296.227 54.8699 296.448 54.4609 296.708C54.1579 295.48 54.4819 294.253 54.8449 293.256C53.5749 293.883 52.5049 294.498 51.6809 295.557C50.6369 295.631 49.3839 295.988 48.5169 296.132C47.8829 294.957 47.0959 294.636 46.1199 294.31C46.4199 295.301 46.5029 296.21 46.5029 297.282C48.0169 297.673 49.6019 297.697 51.2009 297.857C51.6779 297.825 51.7929 297.442 52.1599 297.186C52.9589 297.603 53.4969 298.174 54.1739 298.624C55.0829 297.952 56.0479 297.736 57.0499 297.569C58.7159 297.838 60.4319 298.549 62.0359 299.007C62.7399 298.852 63.2329 298.194 63.5699 297.856C64.5409 297.93 65.3789 298.144 66.3509 298.144C67.6219 298.284 68.8049 297.832 69.8989 297.377C70.4439 297.959 71.0539 298.107 71.7209 298.24C71.8889 297.945 72.1669 297.496 72.2959 297.281C73.2299 297.395 74.1069 297.786 74.9809 298.048C75.5239 298.005 75.9889 297.508 76.4189 297.185C78.0809 297.703 79.9639 297.53 81.5969 297.856C82.0529 297.354 82.0139 297.039 82.0759 296.418C82.7499 296.628 82.9719 296.874 83.5139 297.281C84.0979 297.176 85.7139 296.461 85.8149 296.418C86.6119 296.671 87.3759 297.349 87.9239 297.76C88.5249 296.919 88.9759 296.424 89.3619 295.555C90.3149 296.326 91.3729 296.801 92.3339 297.089C92.2449 296.162 91.8149 295.576 91.4699 294.886Z" fill="#7C983E"/>
<path d="M47.5369 297.428C46.9739 293.852 46.0819 293.705 43.7279 292.04C44.0959 293.121 43.8689 294.26 43.9399 295.375C42.7719 293.933 42.8819 292.065 42.8819 289.988C40.8649 291.151 39.2219 293.75 38.0149 295.632C37.3299 295.261 37.0279 294.264 36.5339 293.58C35.6479 293.98 34.9649 294.791 34.2059 295.376C31.5459 295.43 29.3019 294.187 26.7999 293.58C25.8239 294.403 26.6639 295.066 26.5879 295.889C23.3899 295.978 20.5329 294.78 17.7009 294.093C17.6499 296.622 16.7139 294.606 16.2199 294.863C15.7259 292.484 16.1589 290.816 16.8549 288.706C15.7099 290.297 15.1829 292.003 14.3159 293.58C13.9839 291.655 13.8399 289.6 13.6809 287.679C12.6629 290.116 12.2739 292.158 11.5649 294.093C10.3559 293.829 11.2829 293.067 11.1419 292.554C10.3959 291.753 9.13193 290.604 9.02593 290.502C9.73093 292.066 9.68793 293.005 10.0839 294.607C9.22093 294.288 8.34193 293.647 7.75593 293.324C6.95993 292.054 6.63493 294.231 6.48593 294.35C4.52093 293.678 2.52893 295.114 2.04193 295.376C3.59493 297.312 6.48793 296.915 7.96693 296.915C7.24493 298.424 8.85793 298.644 9.02493 298.967C10.5159 299.008 11.7979 298.033 13.0449 297.428C13.9469 299.283 15.0119 298.692 16.2189 299.224C16.8759 299.259 17.0709 298.398 17.2769 298.198C18.4199 297.455 19.9179 297.374 21.0859 297.172C22.2869 296.849 23.4009 297.477 24.2599 297.685C23.9069 299.306 24.9529 299.029 25.3179 299.737C27.0849 299.733 28.5799 298.433 30.1849 297.685C31.2899 297.311 32.4369 297.428 33.5709 297.428C34.7539 297.274 35.5479 297.976 36.5329 298.454C37.5959 298.523 38.7189 298.012 39.0719 297.941C40.1949 297.761 40.7499 298.28 41.6109 298.454C41.6629 297.811 42.1779 297.595 42.4569 297.171C44.5209 298.042 45.8579 297.632 47.5369 297.428Z" fill="#64913B"/>
<path d="M328.884 260.888C318.936 260.322 329.091 250.74 319.414 252.801C296.485 254.391 253.99 268.943 234.718 276.24C242.852 277.639 254.54 281.212 260.293 283.172C283.722 276.427 304.733 262.945 328.884 260.888Z" fill="#94B63D"/>
<path d="M277.813 279.705C286.097 274.33 294.354 270.931 303.068 266.831C316.021 253.423 325.538 246.841 346.151 263.364C355.892 267.389 368.512 262.625 384.923 261.529C393.779 260.937 400.137 263.069 414.329 269.514C431.984 289.982 427.656 279.879 426.07 280.046C416.51 281.056 382.157 274.444 367.721 283.559C344.756 274.537 319.894 274.251 317.821 275.174C303.917 279.533 289.951 285.316 277.813 279.705Z" fill="#C0C93B"/>
<path d="M319.508 253.349C340.713 252.177 353.069 260.24 361.633 263.855C369.587 262.682 371.163 262.274 382.137 259.2C390.489 260.158 408.081 264.786 421.159 273.474C413.616 267.886 384.458 261.072 374.719 266.099C372.008 267.498 378.873 276.093 378.324 278.261C371.257 274.78 347.366 273.041 339.714 272.277C348.161 261.79 330.545 253.132 319.508 253.349Z" fill="#E1D972"/>
<path d="M362.204 264.171C365.739 266.23 368.78 268.467 370.975 270.443C371.907 270.091 377.992 279.445 378.651 278.86C405.866 288.045 387.008 280.166 378.376 273.877C372.172 269.124 377.851 262.737 382.431 259.311C379.797 257.623 365.252 263.257 362.204 264.171Z" fill="#94B63D"/>
<path d="M394.371 261.837C400.431 262.372 406.825 261.019 412.34 263.47C412.231 263.284 418.673 260.652 423.979 261.045C422.617 264.285 416.966 268.199 418.483 270.582C407.958 266.556 401.742 263.847 394.371 261.837Z" fill="#94B63D"/>
<path d="M431.664 265.273C431.626 263.331 434.099 263.121 435.956 262.347C439.782 263.338 444.266 263.865 447.66 264.883C450.915 268.866 449.505 275.335 450.001 280.293C449.711 271.413 435.991 269.6 431.664 265.273Z" fill="#E2E173"/>
<defs>
<linearGradient id="paint0_linear_217_1083" x1="21.5126" y1="250.182" x2="47.5689" y2="242.435" gradientUnits="userSpaceOnUse">
<stop stop-color="#2F4B70"/>
<stop offset="1" stop-color="#694B59"/>
</linearGradient>
<linearGradient id="paint1_linear_217_1083" x1="404.649" y1="225.612" x2="317.813" y2="258.293" gradientUnits="userSpaceOnUse">
<stop stop-color="#494A86"/>
<stop offset="1" stop-color="#244A53"/>
</linearGradient>
<linearGradient id="paint2_linear_217_1083" x1="316.501" y1="228.951" x2="202.984" y2="247.245" gradientUnits="userSpaceOnUse">
<stop stop-color="#2E5E69"/>
<stop offset="1" stop-color="#5182A9"/>
</linearGradient>
<linearGradient id="paint3_linear_217_1083" x1="149.815" y1="329.893" x2="346.997" y2="317.921" gradientUnits="userSpaceOnUse">
<stop stop-color="#93B248"/>
<stop offset="1" stop-color="#C5CB3A"/>
</linearGradient>
<linearGradient id="paint4_linear_217_1083" x1="205.108" y1="274.126" x2="293.841" y2="298.774" gradientUnits="userSpaceOnUse">
<stop stop-color="#B1CA3B"/>
<stop offset="1" stop-color="#CEE273"/>
</linearGradient>
<linearGradient id="paint5_linear_217_1083" x1="142.159" y1="272.218" x2="211.174" y2="294.049" gradientUnits="userSpaceOnUse">
<stop stop-color="#A7BF34"/>
<stop offset="1" stop-color="#B9D242"/>
</linearGradient>
<linearGradient id="paint6_linear_217_1083" x1="222.837" y1="267.132" x2="328.244" y2="277.614" gradientUnits="userSpaceOnUse">
<stop stop-color="#B1CA3B"/>
<stop offset="1" stop-color="#E2D973"/>
</linearGradient>
<linearGradient id="paint7_linear_217_1083" x1="276.354" y1="292.953" x2="143.397" y2="291.936" gradientUnits="userSpaceOnUse">
<stop stop-color="#86A63B"/>
<stop offset="1" stop-color="#718D2D"/>
</linearGradient>
</defs>
</svg>
