<svg width="450" height="388" viewBox="0 0 450 388" fill="none" xmlns="http://www.w3.org/2000/svg">
<path d="M68.0099 108.689C66.4625 108.664 64.8193 108.831 63.0731 109.255C56.985 111.049 51.8926 111.371 46.215 116.544C42.469 115.329 38.1294 112.565 32.7294 113.811C31.6523 115.169 24.8664 113.757 27.6729 120.188C24.6259 121.385 19.5849 120.737 16.6803 125.674C15.5948 126.298 14.6386 127.105 13.9707 128.163C9.70654 126.23 5.21614 125.346 0.703003 126.337V218.413C5.9055 219.696 11.1882 219.076 15.9108 216.401C16.9663 216.25 17.7203 214.645 18.2768 214.105C22.5602 216.611 27.3869 216.161 31.7971 215.253C33.5696 213.849 35.5515 213.571 37.5429 212.957C39.7702 215.548 42.4379 215.02 45.315 215.253C47.5398 215.696 49.1615 214.583 51.0608 213.721C101.341 214.742 158.422 224.771 207.202 213.721C229.766 213.721 314.367 226.467 334.745 216.839C333.808 211.533 331.876 209.43 326.97 208.797C325.198 203.779 322.215 201.137 316.832 201.908C315.165 199.391 314.676 198.463 311.424 198.463C311.591 196.572 311.962 194.045 312.101 191.953C309.641 189.165 307.427 184.376 303.652 183.532C303.843 181.154 304.632 178.551 302.976 176.259C300.717 174.838 297.731 173.691 293.85 173.964C292.417 173.314 290.804 171.298 287.768 172.432C286.094 169.903 286.687 169.104 283.373 169.75C286.287 165.705 286.339 165.939 264.656 171.586C263.281 159.089 249.047 159.631 247.011 165.212C246.415 163.016 243.941 146.783 215.987 152.856C213.742 152.432 210.261 151.239 207.537 153.619C206.254 151.984 205.102 149.603 203.144 148.645C204.753 147.43 206.335 148.024 206.185 144.817C199.081 141.104 192.821 138.071 184.893 140.603C184.893 139.583 184.893 138.565 184.893 137.544C182.415 136.778 180.039 135.464 177.121 137.157C175.707 136.036 174.475 133.818 172.051 134.098C169.794 134.525 167.617 134.488 165.631 136.394C157.283 130.878 148.565 128.956 138.93 130.651C134.003 126.311 127.101 125.447 121.356 128.356C119.219 127.01 117.13 125.472 114.935 124.142C111.481 123.816 108.24 123.068 105.137 125.291C102.1 124.603 100.369 123.879 97.699 126.823C95.7733 126.096 93.2337 125.035 90.8641 123.64C91.1525 123.399 91.4445 123.169 91.7293 122.919C90.7384 121.313 90.6211 120.094 88.3591 117.452C86.6729 116.541 83.1184 122.921 83.3003 114.721C79.6297 112.517 74.718 108.795 68.0099 108.689Z" fill="url(#paint0_linear_218_3)"/>
<path d="M196.332 168.353C195.506 162.572 198.679 156.132 207.752 159.13C211.381 149.173 220.386 154.742 222.012 157.238C229.411 154.372 233.708 160.375 232.592 163.555C238.036 159.825 242.946 165.441 244.124 171.951C237.464 166.821 235.503 168.823 224.835 171.334C222.133 158.375 206.008 166.261 196.332 168.353Z" fill="#E5D9DE"/>
<path d="M90.1484 154.932C89.6553 154.898 89.1491 154.902 88.6332 154.946C87.3969 156.762 87.4197 160.743 83.8484 161.972C78.8937 164.088 74.9263 165.922 69.494 165.166C65.9503 163.445 62.3455 163.452 59.922 158.777C57.3321 161.331 53.7776 161.915 52.1475 166.445C46.9582 165.942 41.2997 166.343 37.1935 162.611C33.5433 162.871 28.5801 164.776 24.6319 160.694C17.0968 162.994 7.87187 166.552 0.704224 163.513V218.642C7.55352 220.067 14.5081 219.378 20.7255 216.405C22.115 216.237 23.106 214.453 23.8384 213.853C29.4765 216.638 35.8292 216.139 41.6336 215.13C43.9674 213.571 46.5752 213.261 49.1962 212.578C52.1272 215.457 55.6398 214.871 59.4289 215.13C62.3575 215.623 64.4914 214.385 66.9915 213.429C96.6207 213.937 128.043 216.442 159.477 217.963C165.451 214.904 170.113 211.947 172.975 209.244C178.344 210.199 182.257 210.842 187.631 215.314C195.585 215.054 202 214.557 207.072 208.606C209.951 207.508 212.602 207.761 215.448 205.412C216.045 208.92 213.261 209.047 216.643 212.438C222.659 212.932 225.592 213.267 226.876 213.447C225.294 213.12 222.444 212.193 226.514 210.521C233.495 210.51 234.511 211.107 236.383 204.771C241.906 203.699 245.325 201.26 250.143 207.325C258.451 208.132 263.977 205.04 269.284 197.106C273.062 197.913 276.507 198.902 280.649 195.189C279.306 189.451 278.361 183.783 273.472 179.859C269.068 180.287 265.182 180.154 261.508 183.69C258.088 182.067 255.798 182.416 254.33 177.942C248.328 182.749 241.357 186.286 235.786 178.58C231.828 177.734 227.243 176.323 222.626 177.942C221.901 174.071 222.06 170.857 218.438 169.637C214.373 169.243 210.962 168.558 207.074 171.554C203.965 167.128 202.187 164.088 195.109 164.528C193.671 164.272 191.714 161.022 187.932 163.249C187.391 163.682 181.107 161.708 183.147 167.083C176.443 167.799 170.67 169.302 172.379 177.942C170.472 178.553 168.189 178.467 166.398 179.859C165.19 178.312 166.596 176.685 163.408 176.025C161.674 177.183 158.526 174.239 158.623 179.219C154.492 178.818 150.076 179.463 147.256 176.025C146.108 173.779 147.04 170.314 143.669 168.999C138.297 167.957 132.814 166.627 127.517 168.999C124.117 171.421 120.875 173.151 116.751 174.11C107.52 173.352 97.7816 169.681 98.8061 158.14C96.4879 157.152 93.6012 155.167 90.1484 154.932Z" fill="url(#paint1_linear_218_3)"/>
<path d="M39.9162 141.433C38.5962 141.47 37.2079 141.714 35.755 142.255C32.3058 143.966 23.9856 138.527 25.94 147.126C23.5057 149.541 22.4752 151.574 18.5773 154.429C16.7521 152.256 18.2374 146.771 12.4413 147.126C6.68823 149.979 3.07628 151.403 0.704224 153.744V177.225C13.5184 197.19 46.4208 169.981 73.7929 183.645C76.0812 180.013 79.1486 179.243 79.9289 173.907C73.7438 171.862 70.3545 175.719 65.2047 169.038C62.7357 167.288 56.2191 169.498 56.614 162.95C60.7226 161.138 61.9948 158.155 67.6593 158.081C63.5686 156.864 59.6228 153.888 55.3873 154.429C57.0233 151.994 59.2266 149.852 60.2966 147.126C57.8431 146.72 55.3298 146.574 52.9338 145.909C50.0687 145.055 45.6346 141.277 39.9162 141.433Z" fill="#9CC4EB"/>
<path d="M432.299 219.853C432.164 219.873 431.952 220.156 431.654 220.863C429.973 221.053 430.205 225.831 430.064 227.377C429.881 229.125 429.785 230.913 429.533 232.68C428.219 233.267 426.75 233.8 425.291 234.043C424.307 235.388 425.592 235.81 426.807 235.709C425.815 237.125 427.148 237.537 428.549 236.998C427.931 237.748 426.951 238.239 426.201 238.512C426.229 239.754 427.211 239.566 428.096 239.498C427.427 240.898 426.024 242.194 424.838 243.057C424.528 244.857 426.308 244.299 427.26 243.664C426.44 244.702 426.352 246.027 426.352 247.299C426.296 247.328 426.246 247.361 426.192 247.391C425.812 246.945 425.364 246.628 424.639 246.891C424.526 246.269 424.436 245.641 424.299 245.024C424.277 244.905 426.542 244.421 423.959 243.583C423.446 243.354 423.054 242.888 422.369 242.839C422.342 242.386 422.049 241.866 421.349 241.316C424.397 241.316 421.175 238.965 419.482 239.92C419.521 239.453 419.392 238.971 419.599 238.524C422.432 238.524 421.445 237.091 419.365 236.545C419.265 235.548 419.351 235.066 418.316 234.451C418.316 233.905 418.347 233.318 418.431 232.703C418.431 231.614 418.638 231.154 417.497 231.307C417.869 229.946 418.267 228.833 417.614 227.465C417.352 226.878 417.123 226.631 416.921 226.625C416.046 226.6 415.701 231.13 415.63 232.356C415.377 232.924 415.291 233.793 415.747 234.217C415.116 235.266 414.582 236.5 415.048 238.174C414.497 238.648 413.49 239.01 413.298 239.106C412.807 239.277 411.948 239.441 411.896 239.454C411.573 241.02 411.927 241.71 413.531 241.55C412.119 242.832 410.846 241.909 410.498 243.646C410.895 245.327 411.42 245.413 412.83 245.158C413.566 245.076 413.688 244.617 414.115 244.345C413.862 245.902 413.6 246.874 414.547 246.908C414.815 246.889 415.1 246.855 415.399 246.789C415.031 246.889 414.767 246.916 414.547 246.908C412.669 247.04 411.602 246.359 412.248 249.582C412.987 249.7 413.572 249.43 414.232 249.232C412.785 249.895 413.117 250.907 413.179 251.545C413.327 251.468 413.36 251.465 413.181 251.561C413.18 251.556 413.179 251.55 413.179 251.545C412.825 251.729 411.804 252.362 411.281 253.199C411.145 252.187 410.799 251.386 409.58 251.806C409.512 251.558 410.287 250.495 408.273 250.39C409.145 250.216 409.882 250.355 410.232 249.519C409.79 248.413 408.582 247.198 407.4 247.339C407.348 246.82 407.443 246.311 407.183 245.818C408.999 247.029 409.693 245.384 408.163 244.183C408.587 243.653 409.327 244.474 409.032 243.095C408.398 242.743 408.274 242.104 406.966 242.986C406.92 242.479 406.768 241.818 406.857 241.242C408.052 241.362 408.993 241.396 408.38 239.935C408.188 239.828 407.099 239.129 406.31 239.173C406.249 238.89 405.72 238.186 405.986 237.648C406.192 237.494 406.884 237.576 406.857 236.996C406.737 235.793 406.599 235.704 405.332 235.799C405.332 233.864 405.877 231.735 404.57 230.354C403.866 231.058 403.412 233.534 403.697 235.909C403.557 236.608 403.217 237.321 403.916 238.087C403.806 238.747 403.867 239.381 403.373 239.937C403.133 240.142 402.539 239.951 402.609 240.591C402.681 240.916 402.436 241.31 402.828 241.572C402.393 241.848 401.734 241.339 401.629 242.334C401.786 242.616 402.043 243.624 403.154 243.857C403.19 244.254 403.542 244.613 403.263 245.056C402.977 245.092 402.652 244.934 402.39 245.163C402.333 245.447 401.511 246.114 402.609 247.126C401.614 247.679 401.031 247.873 401.302 249.63C399.644 250.129 399.414 250.681 400.65 251.917C398.493 251.892 398.138 253.855 400.212 254.421C401.133 254.837 401.654 254.565 402.499 254.312C402.967 254.361 403.4 253.984 403.696 253.876C403.456 254.86 403.621 256.098 403.696 256.925C402.972 257.259 402.224 257.585 401.518 257.905C399.524 257.559 399.413 258.135 399.887 259.321C398.332 259.733 397.68 261.668 399.559 262.044C400.124 261.777 400.477 261.223 400.866 260.737C400.679 261.763 400.765 262.775 400.866 263.784C402.401 266.403 409.166 264.674 411.973 264.112C412.076 263.826 412.151 263.609 412.219 263.397C415.653 265.84 422.208 268.018 426.592 267.143C426.627 266.587 426.622 266.055 426.598 265.534C430.536 265.463 434.983 266.161 438.547 265.864C439.158 267.392 442.594 264.235 444.303 264.425C445.608 264.57 448.003 265.108 449.998 265.542V244.063C449.993 244.058 449.99 244.052 449.984 244.047C449.988 244.027 449.993 243.998 449.998 243.977V239.282C449.805 239.126 449.532 239.032 449.15 239.048C449.265 238.476 449.338 238.133 449.076 237.532C448.102 237.099 448.071 237.618 448.09 239.048C447.083 240.055 448.804 241.536 447.787 241.698C446.798 242.563 447.424 244.68 447.408 246.092C447.104 246.363 446.63 246.545 446.576 247.076C446.033 246.624 445.338 245.892 444.455 245.789C447.251 244.546 444.641 242.398 442.56 242.986C442.535 242.632 442.614 242.269 442.484 241.923C442.6 241.621 442.679 241.24 442.865 240.94C442.995 239.643 442.593 238.529 441.047 238.288C441.471 237.525 442.461 235.765 440.742 236.243C441.2 231.665 439.499 231.291 439.607 236.016C439.424 236.564 439.198 237.333 439.076 237.985C437.537 237.831 438.038 239.2 439.152 239.956C438.227 240.573 438.064 240.955 438.394 242.077C437.554 242.141 436.71 242.204 435.894 242.454C435.524 242.031 435.172 241.896 435.212 240.788C436.237 240.229 436.414 239.897 435.667 238.894C438.32 238.894 434.848 234.845 433.015 236.017C433.015 235.99 433.292 235.427 433.015 235.335C432.663 235.23 431.864 235.046 431.425 234.88C431.518 233.675 431.69 232.462 431.501 231.245C432.764 231.13 431.928 230.368 433.091 230.259C433.749 230.325 434.55 230.426 435.136 229.728C434.752 228.672 433.605 228.958 432.409 228.669C432.432 228.44 432.506 227.49 432.483 227.001C432.839 226.526 433.283 226.139 431.878 226.319C431.878 224.815 432.11 223.343 432.183 221.85C432.521 221.042 432.595 219.81 432.299 219.853ZM410.934 254.07C410.774 254.427 410.632 254.776 410.506 255.113C410.119 254.836 409.654 254.597 409.143 254.416C409.932 254.416 410.512 254.484 410.934 254.07Z" fill="#434A7D"/>
<path d="M238.857 103.964C237.461 103.91 236.709 104.875 235.378 106.67C234.868 107.648 234.544 108.657 234.271 109.681C234.352 109.756 234.422 109.808 234.509 109.893C234.171 110.804 234.103 111.064 233.642 112.238C233.855 111.375 234.047 110.523 234.271 109.681C232.488 108.045 231.84 108.815 229.875 109.014C228.357 107.721 227.024 108.247 225.241 108.428C224.855 105.279 223.247 107.219 222.343 106.67C219.951 105.828 220.885 107.409 219.448 108.135C214.633 102.452 210.388 105.215 206.701 110.187C201.231 110.9 196.883 114.432 195.984 118.977C195.592 120.228 195.694 122.013 195.694 123.664C198.402 125.165 202.771 124.53 205.541 124.25C202.361 125.397 204.751 126.652 204.384 127.765C200.245 127.79 197.769 126.175 198.465 129.691L195.983 132.748C192.499 131.186 181.375 131.406 179.935 133.591C177.021 134.852 178.04 137.191 178.486 139.45C177.933 147.222 197.17 144.65 202.355 144.173C206.619 145.502 211.021 143.737 215.39 143.001C216.8 147.997 221.863 146.518 226.688 146.518C228.447 150.266 233.77 148.862 237.695 148.862C241.646 148.871 245.275 147.53 248.704 145.639C252.033 147.456 255.841 147.763 259.421 149.156C266.178 152.41 274.253 151.658 281.436 150.62C283.082 152.395 285.621 152.302 287.808 152.672C290.627 152.668 293.132 151.832 295.629 150.913C303.214 153.895 313.918 153.124 320.832 150.327C337.17 141.118 374.345 138.184 390.932 145.64C408.318 153.846 430.477 154.521 449.999 153.17V114.282C421.283 109.636 391.257 103.855 361.675 104.621C354.451 104.808 347.504 107.844 340.529 107.844C331.86 110.474 313.847 106.341 302.002 107.844L242.329 105.208C240.764 104.399 239.695 103.996 238.857 103.964Z" fill="url(#paint2_linear_218_3)"/>
<path d="M417.839 63.1623C414.547 62.2731 412.508 61.5131 408.848 63.363C407.352 64.3144 407.248 65.4919 406.651 67.0027C404.353 66.1551 402.566 67.1054 400.856 68.6185C400.457 69.8213 400.832 70.5098 401.057 71.6493C397.394 71.813 394.445 74.1657 392.265 77.1065C387.982 72.0333 383.075 78.7696 383.075 83.37C380.661 82.8545 378.21 84.2315 376.082 85.1876C375.902 82.241 375.908 80.5722 372.685 81.5501C371.547 78.7996 370.064 78.8446 368.689 81.3495C364.998 79.6691 360.9 82.5973 361.296 86.6026C357.199 85.3317 353.07 87.192 352.307 91.0497C351.886 93.2755 353.165 94.7655 354.504 96.507C352.664 97.1044 352.906 99.3924 352.906 101.355C357.542 105.411 365.429 104.993 371.286 104.993C377.486 109.111 384.734 108.228 391.865 108.228C394.566 112.892 402.008 111.501 406.85 111.056C412.523 113.668 419.153 112.233 425.031 110.45C432.797 114.119 442.139 114.138 450 113.116V51.1717C448.849 50.7392 447.929 51.5211 446.81 52.6525C445.05 50.8361 444.293 51.3309 443.013 53.0573C440.461 51.9859 440.42 52.4426 439.616 54.2706C437.225 54.5358 436.39 54.9222 435.222 56.6936C434.015 55.3201 432.962 56.2865 431.624 57.3014C423.523 48.9609 418.929 57.8722 417.839 63.1623Z" fill="white"/>
<path d="M364.034 104.872C365.577 105.566 369.174 107.727 370.301 103.719C369.899 99.6565 366.327 97.5355 362.894 100.262C362.358 99.4488 361.864 97.8043 360.615 96.8044C360.615 94.8819 361.615 94.1842 358.906 93.3469C360.855 92.2513 361.482 93.5326 361.185 90.1777C361.777 87.1815 360.866 85.2509 358.336 88.4489C357.164 87.9553 357.709 86.0178 354.917 87.0084C354.526 86.0212 355.009 84.8841 353.778 84.1276C355.463 82.8486 356.329 83.2396 355.772 80.3818C356.168 80.4175 356.895 82.423 358.906 80.6701C359.641 76.9554 358.651 74.3928 354.348 76.3476C353.515 74.4528 354.659 73.0665 350.645 74.0422C347.793 73.1772 343.407 72.882 339.535 73.1772C338.669 73.3721 339.555 69.9054 336.971 73.7539C336.283 74.2948 334.514 72.7644 334.407 75.771C333.266 73.1749 333.926 72.6917 330.704 74.0422C329.374 72.6975 329.309 71.2881 326.431 72.89C326.055 71.9397 325.363 71.2028 325.292 70.0092C327.76 68.1374 328.257 67.4847 326.147 63.3825C324.816 60.354 324.64 57.9805 320.449 57.6195C319.163 56.6439 318.636 55.3695 316.176 55.0258C315.449 51.348 313.787 48.6851 311.333 51.5683C309.364 50.4623 306.196 48.6528 303.072 51.8566C293.847 57.623 294.683 69.0889 290.537 76.6371C287.609 76.7432 288.208 77.0937 287.403 79.8062C284.617 76.8642 283.001 76.2092 281.421 79.8062C276.91 76.1088 273.426 76.7374 274.014 82.6883C273.516 83.8289 274.922 84.0665 275.153 84.4171C272.117 85.8875 272.644 87.0004 273.159 89.6033C270.228 89.9585 270.595 90.3968 270.595 93.3492C267.985 92.4589 267.318 93.6017 265.752 94.7896C268.924 97.4721 270.9 97.772 273.729 94.5013C276.441 95.8621 279.252 95.7641 281.421 95.3662L283.13 98.5354C279.021 102.944 287.083 103.757 291.107 99.6876C292.216 98.9322 293.373 99.1144 294.526 98.8226C294.377 103.476 298.022 103.8 301.648 103.433C305.247 107.242 308.599 105.186 312.758 103.433C316.591 104.808 321.664 106.299 327.287 105.162C330.504 103.513 328.496 102.612 328.142 101.416C330.491 100.299 331.815 101.263 333.27 101.705C335.312 107.21 339.26 105.336 342.386 102.57C342.024 98.103 345.823 99.9759 349.223 99.9759C349.927 101.543 349.223 102.39 349.223 103.722C352.171 105.778 353.543 104.528 355.49 103.433C358.35 105.943 360.784 105.858 364.034 104.872Z" fill="white"/>
<path d="M303.925 51.5659C306.399 51.77 306.886 53.38 307.913 54.1597C306.572 54.8205 305.953 56.3624 305.349 57.0417C306.502 60.0552 307.268 57.4304 308.198 57.6184C309.174 59.3563 310.678 59.6181 312.186 59.9237C315.021 58.0958 314.766 58.7924 316.459 61.0759C320.067 61.9846 317.987 63.4862 317.314 64.5334C322.008 67.3543 317.696 66.7799 318.454 68.5675C314.07 65.8792 312.342 68.7209 311.902 73.1772C312.218 74.6084 315.515 74.0421 317.6 74.0421C313.517 79.1684 318.055 81.7472 323.013 81.2455C324.059 80.7473 324.805 79.2065 325.292 78.6518C326.732 81.8798 327.228 82.3976 330.705 82.3976C332.044 81.5615 333.467 81.001 334.693 80.3806C336.596 82.6029 338.237 82.3976 340.96 82.3976C341.789 83.5866 343.258 84.4285 344.378 85.2785C343.194 86.5263 343.639 87.3337 343.239 88.4477C340.581 89.4188 341.063 89.9262 340.39 92.1935C339.866 91.1913 338.876 91.8107 338.111 91.6169C338.907 87.479 337.259 88.9655 335.547 89.3115C333.375 87.8883 333.376 88.7821 331.559 89.5998C328.601 86.3603 325.725 86.7939 323.297 89.5998C325.098 90.0081 323.677 90.9445 323.867 91.6169C321.282 90.5686 320.48 90.7347 317.885 92.1935C318.793 88.7937 317.374 89.7279 315.321 89.3127C312.908 88.4869 310.649 88.7764 308.199 89.0244C308.142 86.5979 307.86 85.3016 306.775 83.8381C305.082 81.58 303.964 82.6859 302.787 82.6859C302.224 79.0831 302.192 80.1118 299.938 81.821C296.966 81.9052 295.976 80.256 294.24 78.939C294.129 75.0132 291.898 75.7755 289.112 76.058C288.469 72.95 289.918 71.7505 291.676 69.7185C288.833 71.1485 287.534 72.4991 285.979 68.5664C287.777 65.0627 291.207 63.9936 294.24 63.3801C293.107 59.1741 293.431 56.7903 296.519 54.448C299.072 52.1668 300.385 51.9234 303.925 51.5659Z" fill="url(#paint3_radial_218_3)"/>
<path d="M288.125 77.3359C287.855 77.7869 287.781 78.5296 287.403 79.8051C284.617 76.8631 283 76.208 281.42 79.8051C276.909 76.1077 273.424 76.7351 274.013 82.686C273.515 83.8254 274.921 84.0641 275.152 84.4147C272.116 85.8852 272.644 86.9992 273.158 89.6022C270.227 89.9574 270.595 90.3945 270.595 93.3469C267.985 92.4577 267.317 93.5994 265.751 94.7873C268.923 97.4698 270.899 97.7696 273.728 94.4989C276.44 95.8598 279.251 95.7618 281.42 95.3628L283.129 98.5343C279.02 102.943 287.083 103.756 291.106 99.6864C292.215 98.931 293.374 99.1132 294.526 98.8226C294.377 103.476 298.02 103.798 301.646 103.431C305.245 107.239 308.599 105.184 312.758 103.431C316.591 104.806 321.663 106.297 327.285 105.16C330.502 103.511 328.494 102.611 328.139 101.415C330.488 100.298 331.813 101.262 333.268 101.703C335.31 107.209 339.258 105.334 342.384 102.567C342.022 98.1007 345.822 99.9747 349.222 99.9747C349.926 101.542 349.222 102.387 349.222 103.719C352.17 105.776 353.54 104.526 355.488 103.431C358.35 105.943 360.785 105.858 364.034 104.872C365.577 105.566 369.175 107.727 370.302 103.719C369.9 99.6565 366.328 97.5367 362.895 100.263C362.533 99.7141 362.174 98.7903 361.606 97.9381C360.622 98.7258 359.627 99.6784 358.623 100.84C357.966 99.3439 357.046 98.6542 356.627 96.8044C355.358 97.5528 354.01 95.8448 353.209 98.8237C352.306 97.9864 350.552 97.0246 349.791 95.6522C345.417 95.2094 343.004 96.4895 339.533 97.9565C337.97 97.6405 337.213 96.997 335.546 97.9565V95.0756C333.837 92.4819 333.175 90.8927 329.278 92.7713C327.329 91.2928 327.383 90.1673 323.867 91.9076C322.136 92.4911 318.646 93.6236 317.599 96.8044C316.839 96.6118 315.83 98.2298 315.321 96.2277C315.103 95.3466 312.218 95.6349 314.467 92.7713C312.302 91.798 309.961 90.6021 306.775 93.9235C306.775 95.0491 307.377 97.3602 306.205 99.3992C305.107 98.4282 303.492 97.6243 303.072 95.6522C302.693 91.4324 301.105 90.4936 297.943 93.0597C295.993 92.1832 295.043 91.2006 293.099 93.6363C291.04 93.4276 290.203 93.8612 288.542 91.9076C290.043 89.1755 290.982 88.1882 294.24 90.1788C294.611 90.1788 296.322 89.2516 297.088 90.1788C298.061 89.6321 298.802 88.1387 301.075 88.1594C300.542 86.5414 300.137 83.1934 296.518 82.686C294.455 79.9031 291.344 78.0671 287.687 80.9572C287.946 79.6483 288.081 78.4477 288.125 77.3359Z" fill="url(#paint4_radial_218_3)"/>
<path d="M369.346 82.453C368.798 82.3884 368.027 82.6259 366.736 83.3825C365.767 83.5785 364.058 82.581 363.393 84.9198C360.855 82.995 357.466 83.7284 358.229 89.5283C354.421 91.2224 355.622 91.934 358.837 92.9097C359.319 96.7743 361.257 96.9669 364.913 96.5978C365.801 91.9663 367.356 95.3615 367.951 95.0605C367.436 97.2102 369.183 97.1376 369.774 98.134C366.747 96.5702 365.83 98.0637 364.305 98.7488C361.078 96.6383 361.447 99.3692 360.052 99.6714C356.856 98.1248 355.501 99.0878 353.368 100.286C351.732 96.682 349.404 99.2331 346.379 100.593C343.703 101.509 341.926 100.265 338.785 100.901C335.767 99.3011 333.096 99.0567 329.671 99.0567C326.249 97.6969 322.939 99.0797 321.164 99.9769C319.361 97.2437 318.287 99.3069 317.213 99.0567C313.605 98.5238 311.373 97.9587 306.883 99.9769C304.422 98.7914 302.787 96.1423 301.414 94.7538C300.359 95.2128 301.01 96.185 300.806 96.9035C298.239 98.1052 295.35 97.6993 292.907 98.4408C291.292 99.5514 292.66 99.9435 292.604 100.285C288.7 100.712 287.76 99.2366 287.438 95.9832C285.482 91.9675 284.249 92.7413 281.667 93.2164C277.69 90.2675 275.302 92.2765 272.855 95.0605C270.062 96.4421 272.037 97.2091 271.335 99.0567C269.151 97.9299 267.786 97.5171 265.564 96.9047C262.395 96.3177 264.128 98.1767 263.133 99.0567C261.763 95.5934 260.325 97.2126 258.88 97.2126C257.564 92.9524 254.81 94.0953 252.499 97.2126C251.466 98.9413 252.061 100.451 252.196 101.821C251.485 101.958 250.703 103.08 250.373 103.358C248.85 98.6703 243.253 98.3981 240.954 103.05C240.226 106.057 240.489 105.694 243.082 107.661C243.588 107.56 244.094 107.455 244.6 107.353C246.388 109.114 247.438 108.788 249.461 109.197C247.17 109.667 244.705 109.423 242.474 109.197C241.968 109.299 241.46 109.404 240.954 109.505C237.424 106.56 234.878 105.413 234.878 109.812C236.384 111.525 237.393 111.437 239.131 111.964C241.236 114.466 242.809 114.087 246.12 114.423C247.983 114.685 248.661 115.304 250.373 116.267C247.43 114.906 244.46 114.757 241.561 115.344C238.748 114.094 235.838 113.772 232.447 114.115C229.992 111.678 227.631 111.815 225.155 112.271C222.971 111.472 221.508 111.473 219.079 111.965C215.845 112.251 212.399 112.886 209.357 112.886C208.229 111.333 208.447 110.069 208.447 108.277C204.856 108.638 205.043 110.744 204.801 113.194C207.945 114.857 210.732 115.343 214.523 115.343C216.988 114.166 219.235 116.097 221.815 116.881C220.754 117.194 219.767 117.295 218.777 117.495C214.583 119.237 210.766 118.082 206.927 117.187C204.572 114.94 202.771 114.442 199.94 114.729C197.755 114.822 197.13 116.469 195.687 118.416C191.723 117.494 191.129 119.52 191.129 123.332C193.431 123.805 195.434 124.342 197.813 124.561C199.392 124.276 200.974 124.255 202.674 124.255C206.352 124.65 209.13 124.049 212.093 122.717C215.447 124.375 220.976 124.7 224.853 125.484C225.846 126.747 224.35 127.011 224.245 127.328C220.757 125.943 218.003 125.484 213.915 125.484C210.517 125.848 207.615 127.321 204.193 127.636C206.618 129.313 208.565 129.46 211.787 129.786C209.582 130.601 207.511 130.706 205.103 130.706C200.697 128.082 200.215 130.154 199.027 132.858C225.652 136.023 216.143 133.326 209.662 136.239C205.921 133.612 201.659 133.372 198.42 136.239C195.721 137.487 185.078 137.418 182.524 136.865C181.938 140.065 191.026 139.106 193.864 140.542C192.77 141.591 191.459 140.947 190.218 141.157C192.689 144.989 196.418 143.122 200.548 142.077C203.912 146.136 209.526 144.402 214.218 143.307C217.378 141.736 220.652 142.479 223.875 143.357C224.156 143.396 224.471 143.469 224.852 143.616C224.528 143.526 224.2 143.446 223.875 143.357C222.147 143.125 222.093 144.687 220.902 145.151C224.417 147.305 228.091 146.975 231.839 145.459C235.011 144.801 237.945 144.171 240.953 143C242.861 144.19 245.485 143.374 247.334 143C247.197 141.273 246.859 140.291 246.121 139.604C244.962 139.261 243.838 138.772 242.776 138.084C244.376 138.569 245.426 138.955 246.121 139.604C249.728 140.67 253.693 140.298 257.359 139.928C258 144.451 260.737 144.229 264.955 144.229C266.773 141.903 267.935 142.113 268.296 145.764C267.513 148.548 267.938 147.612 270.119 148.838C273.409 148.451 276.207 147.465 279.538 146.688C282.679 149.617 286.726 149.452 290.78 149.452C292.439 148.109 293.752 146.74 295.336 145.459C297.169 146.228 298.545 145.484 300.197 145.151C305.27 148.803 312.952 144.094 318.078 145.649C317.799 146.293 317.082 146.825 316.735 147.235C312.778 145.78 310.446 146.794 307.108 148.821C309.297 151.57 311.111 151.765 314.495 151.765C316.107 151.383 317.647 150.75 319.198 150.179C323.876 151.486 328.733 151.122 333.303 149.274C334.834 150.093 336.022 149.015 336.661 148.821C336.523 147.633 336.934 147.162 337.109 146.102C338.857 145.368 340.657 145.693 342.483 145.877C342.733 148.601 344.176 148.562 346.736 148.822C349.395 152.972 358.261 150.911 362.409 149.047C365.13 150.2 367.856 150.135 370.693 149.274C370.035 150.578 370.741 151.777 370.918 152.67C375.603 154.791 380.678 152.683 385.023 151.084C385.845 150.959 386.506 151.384 387.263 151.538C388.026 154.793 389.917 156.708 392.859 158.33C399.232 161.616 434.572 163.052 449.998 158.108V147.329C447.779 147.041 445.399 147.26 443.013 147.913C438.06 143.529 427.354 142.665 420.174 144.744C419.066 143.763 418.096 142.796 417.041 141.799C414.459 141.087 409.937 141.359 406.742 140.667C406.892 140.136 406.412 139.419 407.19 139.081C411.709 139.081 415.996 138.852 420.175 137.043C421.632 139.008 421.883 139.267 425.326 138.629C430.868 137.508 436.855 140.265 442.342 138.176C441.587 137.582 440.792 137.55 440.327 136.59C435.763 136.59 430.724 136.591 426.894 134.779C425.095 133.768 422.923 133.061 420.175 134.326C418.644 132.777 416.918 131.67 415.026 135.007C413.605 135.007 412.151 134.882 410.771 135.231C408.335 135.231 406.64 135.542 405.397 132.968C403.585 131.135 402.47 130.971 398.905 132.514C396.261 132.514 394.044 132.638 391.964 134.551C389.314 132.541 384.628 133.138 380.322 134.326C377.96 133.61 374.911 133.206 372.261 134.326C372.084 133.342 372.477 132.611 371.813 131.835C369.693 131.621 367.817 130.811 367.112 133.194C366.389 134.509 365.973 135.427 364.424 136.365C361.379 135.655 357.807 135.446 354.35 135.46C353.392 133.036 352.819 131.152 350.097 130.93C351.934 129.072 352.38 126.994 348.977 126.4C349.505 125.866 350.378 124.741 351.215 124.136C355.496 127.383 360.721 128.444 365.993 126.173C369.359 128.064 375.053 127.664 378.98 126.627C379.617 128.077 379.481 129.003 381.317 129.786C385.848 129.458 391.312 129.368 394.988 125.175C397.479 126.183 399.621 126.417 402.28 127.019C405.66 126.676 408.129 124.934 411.092 125.175C411.147 125.423 409.057 128.153 411.7 127.942C413.345 128.275 417.395 128.925 420.512 127.019C423.799 127.019 427.143 126.213 429.929 126.404C431.164 128.07 430.048 128.928 433.272 129.48C436.777 131.45 439.115 132.121 442.386 129.48C444.88 130.881 447.654 130.57 450 131.783V88.0924C448.415 88.1697 446.878 88.6564 445.424 89.8373C442.141 89.5052 438.539 90.384 436.612 94.4459C434.319 93.9823 431.497 93.544 428.713 94.7538C426.446 93.4794 425.235 92.5545 422.029 93.5244C419.073 94.6119 416.48 95.9855 413.219 95.0594C410.291 95.0594 408.031 95.5461 405.32 96.9035C404.582 96.6797 402.173 95.2382 400.154 95.6741C403.934 91.851 405.539 95.177 410.484 93.2153C412.854 94.2809 413.908 95.1562 416.56 92.6006C418.527 92.7817 420.426 93.8473 422.029 89.8362C426.597 86.3718 421.955 85.7628 417.776 87.6842C414.676 85.3326 415.602 83.5751 412.307 85.5345C410.915 84.4781 409.516 82.6375 406.536 83.0757C403.392 82.4403 401.485 81.7379 401.065 86.4548C400.409 86.5217 397.283 85.8528 394.989 88.2989C394.351 86.6209 394.824 85.7582 393.471 84.3051C389.41 82.4795 389.908 84.4977 386.482 87.0695C385.126 85.2416 385.46 84.1067 382.229 84.9198C381.508 84.8541 380.908 82.0954 378.888 84.6118C377.297 84.7733 375.695 83.4044 374.937 87.0707C374.703 86.893 373.111 85.1562 371.596 84.3063C370.552 83.5117 370.259 82.5614 369.346 82.453Z" fill="url(#paint5_linear_218_3)"/>
<path d="M446.826 55.486C445.033 55.4249 443.527 56.4328 441.857 58.1212C438.883 57.1294 437.644 58.1178 435.485 59.0877C433.034 56.8584 431.305 58.285 429.748 58.443C425.406 53.9441 421.074 56.3694 419.235 61.0217C418.27 62.4541 420.209 63.4851 420.509 64.244C416.49 63.7735 416.055 64.56 413.819 67.4674C412.983 63.2971 410.95 64.2774 408.084 64.5669C404.524 63.6016 402.868 64.8979 400.756 66.4998C400.061 67.8999 399.908 69.2838 399.48 70.6884C395.704 68.9089 394.758 71.1244 393.745 74.8795C397.693 76.4249 401.417 75.0098 405.214 73.913C405.179 77.4501 406.831 78.2286 408.719 79.7128C405.438 78.4512 405.384 79.3415 403.94 81.9698C399.467 80.9757 398.715 82.0724 396.294 84.8703C396.675 86.6429 398.413 87.0142 398.523 87.1249C401.514 88.0383 403.891 86.2427 406.489 85.1921C409.171 90.0601 416.034 89.3831 421.463 89.3831C422.412 90.4487 423.309 90.8339 424.33 91.6377C425.882 90.7613 427.527 90.5064 429.111 90.0255C427.54 87.6001 425.422 87.6232 423.694 87.449C425.357 83.5798 429.984 83.4991 433.572 84.2256C433.524 85.5069 433.364 86.5218 433.252 87.7708C434.559 86.0939 435.884 86.5287 437.713 86.1585C438.98 80.8846 447.483 79.6898 450 84.1288V56.5747C448.821 55.885 447.777 55.5183 446.826 55.486Z" fill="url(#paint6_radial_218_3)"/>
<path d="M344.224 120.201C337.657 120.201 330.01 122.369 324.732 118.449C321.208 118.449 318.036 118.266 314.77 117.572C310.948 117.572 309.162 117.359 306.54 120.201C302.545 121.67 299.488 123.052 296.144 124.582C292.262 124.582 289.34 123.534 285.748 122.829C282.671 123.14 281.487 123.023 278.818 124.582C276.075 124.582 273.331 124.582 270.588 124.582C267.714 124.582 265.038 124.67 262.358 123.267C261.056 123.56 259.475 122.619 258.46 124.144C253.725 123.708 249.05 123.582 244.599 121.516C241.278 121.516 237.957 121.516 234.637 121.516C236.73 126.839 242.099 125.02 247.632 125.02C250.949 126.704 254.51 127.375 258.028 128.087C259.408 127.185 260.92 127.794 262.36 127.649C266.037 132.589 272.227 132.906 278.387 132.906C282.409 131.913 286.519 131.38 290.515 130.278C293.86 132.416 296.525 132.906 300.477 132.906C302.642 131.164 304.081 131.504 306.108 130.716C309.285 133.558 312.974 132.906 316.937 132.906C324.546 132.048 332.657 130.166 339.894 125.897C347.254 127.127 353.751 121.165 344.224 120.201Z" fill="url(#paint7_linear_218_3)"/>
<path d="M248.739 104.484C248.739 105.192 245.277 106.371 248.739 108.609C252.468 115.059 258.292 113.768 267.232 113.768C273.1 117.518 281.947 116.348 290.35 116.348C297.118 121.005 304.809 120.99 314.238 120.99C313.593 121.808 313.21 122.71 312.696 123.569C320.815 129.135 336.667 126.148 348.914 126.148C354.081 123.435 356.722 129.477 362.93 129.06C373.781 130.965 390.167 127.058 400.925 125.858C412.044 124.425 436.98 128.548 450 125.573V105.261C421.111 109.126 271.654 116.411 248.739 104.484Z" fill="url(#paint8_linear_218_3)"/>
<path d="M359.913 114.08C356.145 114.598 354.02 115.332 349.681 114.596C342.916 114.906 334.453 115.981 330.241 112.791C325.152 113.432 320.188 114.703 314.894 114.854C313.646 114.618 312.692 113.768 310.801 114.08C307.647 114.08 304.506 114.264 301.593 113.565C300.031 113.723 298.268 113.966 296.477 114.08C291.232 114.561 288.547 114.788 287.78 111.76C293.221 109.599 297.639 110.251 302.104 111.501C304.365 110.214 307.971 111.079 309.266 110.986C311.455 110.686 312.695 111.754 313.87 112.017C318.053 110.323 321.355 110.453 326.148 110.212C328.776 110.066 331.005 110.669 333.31 110.986C335.959 111.269 338.398 111.329 340.984 111.501C345.959 108.669 350.373 109.543 354.797 110.212C358.975 109.77 356.236 111.301 356.843 111.76C362.051 110.92 365.281 112.333 369.121 113.565C365.324 115.107 363.784 114.47 359.913 114.08Z" fill="url(#paint9_linear_218_3)"/>
<path d="M271.74 138.195C271.71 135.72 271.351 132.975 269.01 131.192C267.379 128.632 264.384 126.656 261.691 129.616C261.667 129.634 259.48 130.948 258.751 131.792C257.919 130.93 255.804 131.487 255.956 128.898C258.503 128.886 258.765 129.71 259.15 126.986C258.08 125.501 256.643 123.149 253.108 123.338C251.756 123.985 249.93 124.625 249.579 125.949C249.065 125.502 248.669 124.914 248.035 124.61C244.838 124.345 242.041 124.277 239.929 125.872C237.761 124.813 235.545 123.238 232.356 124.033C233.706 122.247 234.945 121.817 231.793 120.841C230.935 118.995 228.577 113.843 226.239 117.959C224.507 116.602 222.256 115.106 218.706 115.639C217.494 113.958 215.686 111.833 214.809 116.042C212.931 115.124 211.682 113.79 209.328 115.587C207.91 113.619 205.24 111.03 202.518 114.537C200.21 112.729 197.196 112.754 198.755 116.645C196.229 117.595 196.053 119.137 195.321 121.441C192.645 124.399 193.555 124.831 195.176 126.51C196.654 126.061 197.296 127.458 197.837 127.7C196.706 130.334 197.636 130.728 198.828 132.38C201.092 132.83 203.332 133.178 205.718 132.469C209.468 133.225 212.451 134.146 216.091 133.814C218.95 134.819 220.99 134.94 223.764 134.451C226.823 136.61 227.803 136.985 231.611 136.313C235.34 139.268 238.247 139.907 243.214 139.455C244.732 138.869 244.269 137.776 244.804 136.925C247.917 137.92 250.932 138.577 253.907 136.955C256.27 138.482 257.978 137.755 259.935 137.455C259.603 136.001 260.857 135.394 261.291 134.422C262.513 134.938 263.83 134.794 265.108 134.981C265.917 138.494 267.815 139.361 271.74 138.195Z" fill="white"/>
<path d="M230.113 140.568C226.916 141.664 224.351 143.327 221.152 141.269C217.801 141.522 215.012 141.035 212.703 143.748C210.473 144.615 209.482 145.429 206.713 144.408C205.582 144.795 203.598 145.806 201.962 146.037C199.029 145.793 197.433 145.691 196.282 142.962L191.043 142.527C188.748 142.336 187.094 142.436 185.244 140.888C185.091 140.495 182.151 140.076 184.428 138.796L181.481 138.551C178.112 138.272 177.598 138.19 177.136 135.299C174.599 136.489 170.97 135.157 171.527 133.713C167.938 135.469 166.622 132.066 167.959 129.682C169.634 128.26 171.919 128.057 175.368 128.79C177.472 127.437 178.05 126.877 180.774 127.215C182.194 126.273 180.725 124.043 184.264 124.902C186.346 123.999 186.775 125.728 187.794 126.063C190.737 125.594 193.66 125.921 196.379 125.908C198.157 126.905 198.835 129.008 199.32 130.201C202.527 129.649 205.429 130.144 208.513 130.675C209.812 132.276 211.988 133.006 213.21 133.669C218.719 132.126 224.279 133.207 227.923 135.18C233.672 136.089 238.181 139.834 230.113 140.568Z" fill="url(#paint10_linear_218_3)"/>
<path d="M198.654 116.356C198.689 116.453 198.715 116.542 198.755 116.644C196.229 117.594 196.051 119.136 195.32 121.441C192.644 124.398 193.556 124.83 195.177 126.509C196.656 126.059 197.296 127.456 197.837 127.698C196.706 130.331 193.355 130.66 194.547 132.312C196.811 132.762 203.332 133.176 205.719 132.467C209.469 133.224 212.451 134.145 216.092 133.813C218.951 134.818 220.991 134.939 223.766 134.45C226.825 136.609 227.805 136.983 231.614 136.313C235.343 139.266 238.249 139.906 243.217 139.454C244.734 138.868 244.271 137.775 244.805 136.925C247.918 137.919 250.933 138.577 253.908 136.956C256.271 138.483 257.98 137.756 259.937 137.456C259.605 136.002 260.858 135.396 261.293 134.424C262.514 134.941 263.831 134.796 265.109 134.983C265.917 138.495 267.816 139.361 271.741 138.195C271.711 135.72 271.352 132.975 269.012 131.192C267.381 128.632 264.386 126.657 261.692 129.617C261.668 129.635 259.482 130.948 258.753 131.792C258.662 131.697 258.549 131.624 258.431 131.558C257.502 132.703 256.822 133.684 256.616 134.278C254.354 133.888 253.106 133.808 251.508 132.641C248.513 133.804 246.412 134.515 243.401 133.905C242.209 130.975 243.275 130.359 248.714 129.748C248.839 129.355 248.387 128.851 249.088 128.569C245.579 129.481 243.616 129.538 242.336 126.799C241.245 127.021 240.377 127.388 238.967 127.486C238.824 129.203 238.692 130.875 238.273 132.511C234.729 133.136 231.842 132.44 233.642 128.495C231.474 128.505 229.489 128.164 227.339 127.971C226.386 129.517 225.521 130.929 223.692 132.025C220.346 131.747 218.996 131.856 217.902 128.639C217.37 129.23 216.59 129.983 216.079 130.667C209.098 130.087 208.562 123.916 215.716 125.071C212.579 123.96 211.464 123.867 212.218 120.665C209.023 120.68 207.79 120.516 206.938 117.807C206.247 118.611 204.36 117.502 204.801 120.291C201.537 120.587 199.283 120.363 199.031 116.666C198.902 116.551 198.78 116.465 198.654 116.356Z" fill="url(#paint11_linear_218_3)"/>
<path d="M199.691 115.799C201.729 119.385 201.952 117.264 204.073 117.071C207.76 113.133 206.659 117.286 207.845 117.385C210.46 115.965 212.185 117.171 213.699 117.568C214.627 118.332 214.49 119.268 214.871 120.087C216.77 116.588 218.189 118.065 220.189 118.41C222.908 118.61 221.967 120.482 222.707 121.345C226.286 120.164 224.043 122.558 225.276 123.677C224.025 125.355 223.301 125.1 220.668 125.112C217.151 124.801 217.187 125.646 215.618 127.721C214.508 125.493 212.53 126.961 211.896 126.805C210.098 130.186 207.506 128.995 206.528 129.085C206.173 127.281 203.814 126.774 202.981 126.065C198.73 124.777 197.121 123.458 198.337 119.623C196.305 117.765 199.341 116.786 199.691 115.799Z" fill="url(#paint12_linear_218_3)"/>
<path d="M211.103 135.23C210.745 137.242 209.066 135.835 208.061 136.134C204.42 134.388 203.958 136.727 202.91 138.598C199.286 137.213 197.586 138.535 195.938 139.176C195.938 139.176 188.294 145.497 204.094 144.191C205.194 142.441 208.6 140.599 210.043 140.058C211.333 138.354 212.691 138.493 214.842 137.854C217.474 139.528 218.222 138.515 220.408 138.317C220.362 135.801 222.686 136.439 223.594 135.689C221.338 132.949 219.337 133.179 216.565 134.961C213.318 132.684 213.376 133.547 211.103 135.23Z" fill="url(#paint13_linear_218_3)"/>
<path d="M234.779 142.418C232.913 141.757 231.387 141.375 229.314 142.142C228.741 141.613 227.855 141.884 227.615 140.575C226.71 140.133 225.818 139.442 224.444 139.598C222.752 139.321 221.662 139.033 219.929 140.114C218.797 139.713 217.614 139.314 216.34 139.281C214.852 140.068 213.199 140.923 211.677 141.568C209.648 141.19 209.868 141.596 209.137 142.783C211.063 144.251 213.187 144.093 215.567 143.674C217.727 145.06 219.718 144.807 222.2 144.581C223.621 144.535 224.69 144.127 225.936 143.643C227.926 144.751 229.973 144.726 232.381 144.357C235.515 144.993 237.349 144.431 234.779 142.418Z" fill="url(#paint14_linear_218_3)"/>
<path d="M189.009 123.361C187.251 123.086 186.916 124.134 186.287 124.366C182.434 124.043 182.537 124.858 181.441 127.143C183.822 128.514 185.903 128.091 188.258 128.428C189.117 127.599 190.358 126.961 191.408 126.227C193.39 127.812 194.492 127.627 197.94 126.975C198.859 127.147 199.11 126.114 198.404 125.371C195.086 121.547 191.849 122.311 189.009 123.361Z" fill="url(#paint15_linear_218_3)"/>
<path d="M199.083 150.848C198.452 151.969 197.63 152.462 196.257 152.564C194.774 153.553 190.662 154.045 189.571 152.503C187.058 153.62 181.912 154.114 179.99 152.013C176.915 152.261 173.364 152.234 170.133 151.339C158.792 152.89 137.436 152.465 145.111 136.875C145.284 135.301 147.162 135.228 147.937 135.343C148.374 135.197 148.449 135.467 148.695 135.527C149.497 134.696 150.912 134.462 151.866 135.098C153.057 134.398 153.942 134.587 154.899 135.343C155.363 135.72 155.943 135.649 156.553 135.649C157.083 135.441 156.921 135.077 157.104 134.791C157.321 133.626 159.145 134.081 160.137 134.669C160.562 135.248 161.331 135.308 161.929 135.404C163.818 135.018 164.825 135.947 165.582 137.181C167.324 137.001 168.799 137.37 170.338 137.978C171.496 137.872 172.587 137.911 173.716 138.162C175.011 137.396 176.016 137.505 177.301 137.733C175.502 134.614 181.009 132.571 182.747 135.22C183.87 134.066 185.336 134.731 185.918 135.894C187.256 134.654 189.333 133.247 190.123 135.588C190.038 135.932 190.055 136.229 189.985 136.569C190.951 137.042 191.445 136.808 192.053 136.508C192.728 135.57 192.694 134.222 193.501 133.505C194 132.81 195.139 132.811 195.845 132.77C196.136 130.905 198.66 129.681 199.636 131.851C199.792 132.651 198.961 132.943 198.326 133.199C199.383 134.454 199.243 135.576 197.844 136.447C199.43 136.916 200.865 137.51 201.497 138.776C204.198 138.366 206.693 141.642 203.427 142.698C202.478 144.257 200.579 144.29 198.809 144.169C200.253 144.811 200.944 146.201 200.67 147.417C201.202 149.013 200.283 149.782 199.083 150.848Z" fill="url(#paint16_linear_218_3)"/>
<path d="M177.62 147.14C179.919 148.549 182.781 147.947 185.343 147.14C185.753 146.645 187.325 145.447 187.526 145.289C187.709 147.397 189.745 147.031 191.723 146.876C192.575 146.823 193.326 146.336 193.906 146.083C194.077 147.918 196.07 147.989 197.935 148.198C198.987 148.433 199.404 147.523 199.95 147.272C200.051 149.302 200.156 150.727 197.432 151.371C196.841 151.113 195.679 150.242 195.585 150.181C195.266 153.094 193.165 154.147 189.877 154.147C186.604 153.616 183.929 155.45 180.979 154.676C177.432 151.575 169.108 155.858 168.387 150.181C166.633 149.125 166.036 147.6 166.036 146.215C169.483 148.191 175.316 148.955 177.62 147.14Z" fill="url(#paint17_linear_218_3)"/>
<path d="M170.966 157.681C168.17 158.907 165.136 159.327 161.77 158.504C158.535 159.639 155.66 159.558 152.761 158.339C149.811 159.115 146.517 159.178 144.128 157.187C142.021 157.355 140.3 157.259 138.873 155.87C137.104 155.716 135.995 155.842 134.744 154.389C133.179 154.663 131.616 154.987 130.053 154.389C128.89 155.069 127.865 155.728 126.111 155.047C125.855 155.421 125.356 157.821 122.733 156.363C121.083 157.006 119.441 157.376 117.479 156.528C116.763 156.643 116.329 156.898 115.414 156.857C113.216 157.243 110.933 157.623 109.033 156.034C106.777 156.034 105.589 156.061 103.966 154.718C101.817 155.094 100.465 155.478 99.6494 153.566C101.325 150.627 103.763 151.138 106.594 150.274C107.136 149.204 107.153 148.621 109.033 148.792C109.692 147.754 109.835 147.063 111.473 146.653C111.439 146.505 110.64 145.673 111.098 145.007C109.919 143.973 109.203 143.175 110.535 141.715C110.091 141.715 108.81 141.267 108.095 141.715C106.457 141.859 105.393 141.895 104.154 140.892C102.367 140.736 102.082 140.996 101.714 139.247C103.109 138.329 104.126 137.924 106.218 138.588C106.954 138.265 107.266 138.368 108.095 137.765C108.624 136.22 108.036 136.182 109.972 136.119C111.795 136.119 110.713 134.273 113.35 136.119C114.18 133.654 116.507 133.908 117.854 134.144C120.657 131.999 123.612 133.199 125.548 134.473C129.838 130.963 134.118 131.26 138.686 133.485C139.597 134.722 139.031 135.174 138.686 136.284C137.888 136.166 137.338 136.392 136.622 136.449C139.934 136.177 140.571 137.143 141.126 139.576C142.789 138.995 143.186 139.676 144.129 140.399C146.824 140.428 148.183 140.268 150.135 141.551C150.823 143.366 150.471 144.411 149.571 145.831C151.145 146.147 152.314 147.249 153.138 147.97C155.657 146.983 157.6 147.182 159.894 148.299C161.332 147.763 163.848 147.916 164.585 147.97C165.786 147.708 165.818 148.728 166.462 149.122C168.549 147.626 171.291 147.956 173.218 148.463C176.192 147.68 179.375 148.082 181.663 149.286C183.032 150.499 181.763 151.17 181.288 151.92C183.933 154.308 180.192 155.798 176.972 155.541C175.165 157.008 173.265 157.076 170.966 157.681Z" fill="url(#paint18_linear_218_3)"/>
<path d="M121.011 132.967C119.978 133.003 118.906 133.339 117.854 134.144C116.507 133.908 114.177 133.652 113.347 136.117C110.711 134.271 111.793 136.117 109.969 136.117C108.034 136.181 108.624 136.219 108.095 137.765C107.266 138.368 106.952 138.264 106.216 138.587C104.124 137.922 103.109 138.327 101.714 139.244C102.082 140.994 102.368 140.735 104.155 140.891C105.395 141.894 106.457 141.857 108.095 141.713C108.81 141.265 110.092 141.713 110.536 141.713C109.204 143.174 109.919 143.975 111.098 145.009C110.641 145.675 111.439 146.505 111.473 146.653C109.835 147.063 109.691 147.755 109.032 148.793C107.152 148.622 107.134 149.202 106.591 150.272C103.761 151.136 101.324 150.628 99.6484 153.568C100.465 155.48 101.819 155.095 103.968 154.719C105.591 156.062 106.776 156.033 109.033 156.033C110.933 157.622 113.217 157.244 115.414 156.859C116.329 156.899 116.765 156.645 117.48 156.53C119.442 157.377 121.082 157.009 122.732 156.366C125.356 157.824 125.854 155.421 126.11 155.048C127.864 155.728 128.892 155.07 130.055 154.39C131.619 154.988 133.181 154.664 134.745 154.39C135.996 155.842 137.104 155.714 138.873 155.869C140.3 157.258 142.024 157.355 144.13 157.187C146.518 159.178 149.814 159.114 152.765 158.338C155.662 159.556 158.535 159.637 161.77 158.502C165.136 159.324 168.171 158.906 170.967 157.68C173.266 157.076 175.166 157.006 176.973 155.54C178.256 155.642 179.607 155.457 180.619 155.058C179.262 154.448 178.288 153.486 178.289 151.92C176.387 152.847 174.347 153.293 172.096 153.4C169.116 154.183 166.697 154.528 164.211 152.578C163.864 152.882 163.086 153.376 162.712 153.897C159.519 155.017 156.751 154.482 156.143 151.427C154.66 151.643 152.379 152.111 151.448 154.061C147.537 154.061 141.4 151.415 147.32 150.108C147.383 149.339 147.178 148.551 147.507 147.804C146.791 147.852 145.816 147.246 145.066 147.971C143.354 146.846 142.456 146.299 143.567 144.348C142.942 144.458 142.21 144.097 141.688 144.677C139.54 146.142 138.696 146.185 136.249 145.339L134.932 146.49C132.068 146.946 129.482 146.852 130.242 143.691C129.373 143.574 128.617 143.784 127.801 143.362C128.705 142.471 129.465 141.41 130.804 141.221C132.529 140.549 134.239 140.529 136.248 140.399C134.935 140.054 133.579 139.936 132.49 138.917C129.884 139.603 127.491 138.873 128.737 135.461C126.948 135.746 125.399 135.975 124.235 137.438C123.508 137.246 122.999 136.323 121.607 137.109C120.108 135.606 119.436 134.701 121.982 134.146C122.251 133.831 122.476 133.504 122.681 133.175C122.14 133.038 121.586 132.947 121.011 132.967ZM118.979 141.22C119.329 141.795 120.155 142.251 120.483 142.539C119.489 143.032 120.115 143.814 119.916 144.512C121.485 145.195 123.148 144.517 124.423 144.183C125.952 146.479 126.391 147.375 124.329 148.628C124.082 148.651 123.926 149.686 122.919 149.286C120.053 149.972 116.765 149.601 118.042 145.995C117.467 145.187 116.233 145.056 116.351 143.607C116.117 142.497 118.285 141.782 118.979 141.22Z" fill="url(#paint19_linear_218_3)"/>
<path d="M196.65 140.312C197.209 140.487 198.905 140.799 199.474 141.663C201.236 141.663 202.82 141.399 204.481 141.1C203.06 142.97 200.98 143.748 198.576 144.365C197.207 143.698 195.417 142.583 193.698 142.339C192.794 142.396 190.423 142.464 189.077 142.902C188.559 142.65 187.862 142.207 187.151 142.001C185.813 141.903 184.451 142.182 183.043 142.226C182.375 141.901 182.013 141.447 180.989 141.55C180.404 141.094 178.546 139.341 176.496 140.537C177.813 138.497 181.567 138.955 183.428 139.861C184.752 138.97 186.197 138.51 187.921 138.51C189.768 138.33 191.548 138.51 193.441 138.51C194.822 138.444 196.03 139.691 196.65 140.312Z" fill="url(#paint20_linear_218_3)"/>
<path d="M129.174 111.836C128.203 109.496 127.429 108.456 124.286 109.549C124.123 106.995 123.224 104.815 120.129 106.347C120.197 104.97 120.467 104.573 118.783 103.834C117.837 100.643 115.627 99.4717 113.163 102.459C111.751 101.879 111.533 101.091 110.605 102.622C108.967 102.101 107.547 101.988 105.63 102.074C102.984 100.745 98.9307 100.542 96.9059 104.709C94.3839 104.87 93.3242 105.326 93.3423 107.709C92.0593 107.678 91.2435 107.599 90.2051 108.082C89.7763 106.961 89.9418 106.459 89.0456 105.384C89.7627 103.712 89.9239 101.777 87.9066 99.9106C87.9412 99.0469 88.2457 97.6271 87.6865 96.4583C91.4324 93.9348 87.7962 90.109 83.6938 92.727L83.5947 91.1734C81.1038 89.2549 78.0321 87.7416 76.1058 91.4777C75.5107 91.4576 74.9001 91.6823 74.3233 91.4182C73.4689 88.3095 68.4749 86.5005 67.9374 90.4386C67.1376 90.5489 66.481 90.8267 65.5869 90.7618C64.3761 90.3763 63.778 89.8196 62.0219 90.6426C59.1911 91.0738 57.54 92.1785 57.9564 95.061C55.8664 94.3966 53.651 93.9454 52.2829 95.9424C51.595 94.996 51.2042 94.3475 49.7673 93.6768C50.3349 92.9205 49.9035 92.2267 51.6364 91.9977C51.7856 92.1978 52.7527 92.5726 52.5002 93.1561C62.2965 96.2724 53.2813 81.1783 49.1428 90.0772C48.5885 90.043 47.3171 89.4609 46.3659 89.9078C45.2401 86.9634 43.2674 87.8732 39.7284 88.0783C37.626 85.9152 36.9762 86.5047 34.4042 88.2446C30.8018 88.4743 28.2803 89.0294 29.7376 92.5281C27.442 93.8333 26.4508 94.7123 28.6567 97.2757C28.4409 100.391 29.2386 101.634 31.5781 102.808C28.7399 108.483 33.5139 108.819 37.2338 110.939C37.7997 111.501 36.9932 112.423 36.9505 112.69C36.8109 114.617 38.1385 114.797 39.3024 115.486C38.6423 117.38 39.6488 117.19 40.2542 118.024C41.9877 118.601 43.8634 118.023 45.3596 117.526C45.2024 122.6 50.7908 123.767 55.1138 121.756C58.7042 123.639 63.7529 126.651 67.3602 124.787C68.928 124.17 71.9697 123.764 72.815 123.574C76.4177 125.364 80.9924 124.367 84.0986 123.893C88.8368 124.707 93.8692 123.082 98.1577 121.264C99.4003 122.597 101.139 122.213 103.952 122.281C105.547 122.227 106.749 121.46 108.008 120.809C110.39 120.998 112.458 120.743 114.262 119.717C118.859 122.6 122.727 121.481 125.917 119.667C128.75 120.866 130.747 120.356 133.428 119.708C137.844 123.362 143.791 116.252 137.876 115.092C136.692 111.89 133.964 112 131.424 113.077C130.766 111.631 130.374 112.218 129.174 111.836Z" fill="url(#paint21_linear_218_3)"/>
<path d="M27.426 94.9682C27.4437 95.5721 27.8175 96.3003 28.6567 97.2758C28.4409 100.391 29.2387 101.635 31.5782 102.81C28.74 108.484 33.5154 108.821 37.2352 110.942C37.8011 111.504 36.9945 112.423 36.9505 112.692C36.8109 114.618 38.1373 114.799 39.3012 115.489C38.6411 117.382 39.6489 117.193 40.2543 118.027C41.9879 118.603 43.8636 118.026 45.361 117.528C45.2038 122.602 50.7909 123.768 55.114 121.758C58.7044 123.642 63.7532 126.656 67.3605 124.792C68.9283 124.175 71.9686 123.767 72.8152 123.576C76.4178 125.367 80.9926 124.37 84.1 123.896C88.8383 124.709 93.8695 123.087 98.1579 121.267C99.4006 122.601 101.14 122.217 103.955 122.284C105.55 122.231 106.752 121.463 108.01 120.813C110.392 121.002 112.459 120.746 114.263 119.721C118.861 122.603 122.729 121.486 125.918 119.671C128.752 120.871 130.749 120.359 133.429 119.711C137.503 123.082 142.855 117.304 139.024 115.475C137.928 118.722 133.854 119.44 132.205 115.978C131.585 114.483 131.875 114.134 129.688 113.712C129.805 113.911 130.997 114.407 130.575 115.215C128.032 117.439 122.215 117.719 122.745 113.289C121.175 114.661 119.823 115.613 117.354 115.538C114.774 115.702 112.89 115.662 111.516 113.832C107.153 118.179 96.6154 119.571 98.3186 111.379C95.2556 113.12 89.4537 116.084 87.1218 112.44C85.5552 114.971 76.3684 118.418 74.7153 117.738C69.0467 123.851 62.1869 117.64 68.821 113.607C67.0978 113.418 65.678 113.341 64.2176 112.688C63.0265 115.464 58.6936 114.284 60.0764 119.017C58.4889 118.979 57.9816 119.439 57.0478 117.997C51.1475 121.047 47.5054 115.052 54.7055 115.373C54.8056 115.109 54.0971 114.512 55.0452 114.486C53.2287 112.486 51.7189 111.406 53.6986 108.853C48.6456 109.175 49.3412 112.198 45.3021 113.547C45.6505 112.267 46.1653 111.538 46.079 110.206C44.2174 109.883 41.6872 108.692 41.8552 105.968C43.0503 105.068 44.0938 104.419 46.0858 104.139C44.3834 103.439 41.9077 102.533 39.352 103.876C35.4987 105.062 34.2184 103.912 34.3758 100.208C32.0538 99.4692 30.3655 99.0732 30.7544 96.1051C29.3334 95.7035 28.1888 95.7457 27.426 94.9682Z" fill="url(#paint22_linear_218_3)"/>
<path d="M29.6403 97.5421C29.3 97.5638 28.9697 97.6203 28.6434 97.6992C28.5332 100.493 29.3527 101.691 31.5781 102.808C28.7399 108.483 33.5153 108.82 37.2351 110.94C37.8011 111.502 36.9945 112.423 36.9505 112.69C36.8109 114.617 38.1372 114.798 39.3011 115.487C38.6411 117.381 39.6489 117.191 40.2542 118.025C41.9878 118.602 43.8635 118.024 45.361 117.527C45.2925 119.713 46.2936 121.171 47.7981 121.965C48.3147 120.408 49.2644 119.043 51.5719 118.473C49.6606 115.842 49.2151 113.399 54.2312 113.029C54.0841 112.779 52.5435 112.254 52.8822 110.74C53.9627 109.51 53.7581 108.4 56.5903 107.604C55.7261 106.56 56.7009 105.079 54.3112 104.849C53.9684 103.69 52.9101 102.131 53.7262 100.401C55.0494 98.6384 55.176 97.8521 58.0836 98.0131C54.7967 98.0165 51.9168 97.8002 48.968 96.4841C47.6292 98.2673 47.4045 98.9413 44.6248 99.1357C43.6314 99.2868 42.5653 99.0711 41.6472 99.5877C39.3989 103.694 31.7385 104.814 31.9133 97.8359C31.131 97.5895 30.3715 97.4967 29.6403 97.5421Z" fill="url(#paint23_linear_218_3)"/>
<path d="M33.9259 96.3904C35.787 100.862 39.929 97.5812 42.5944 95.5744C43.7274 95.5352 44.2778 95.7918 45.3233 95.928C46.8035 95.5886 46.3176 95.0989 47.0369 94.5004C48.635 95.4798 49.6709 95.2816 51.3299 95.8093C48.588 100.773 46.1591 100.886 40.2521 101.263C38.1127 111.5 24.5147 96.9905 33.9259 96.3904Z" fill="#D9E3EC"/>
<path d="M53.1854 110.667C55.1614 113.761 53.4169 113.563 51.4983 113.855C49.7796 115.265 50.9457 115.885 50.8413 116.266C48.9356 116.576 48.7968 117.027 47.4188 117.668C47.7641 119.72 48.6135 119.532 50.5437 120.075C50.7367 119.128 51.247 117.799 51.4397 117.175C53.7003 117.499 53.714 116.389 54.8471 115.536C57.4247 115.554 59.6239 115.1 61.5432 114.635C62.1071 113.516 62.6304 112.391 62.9461 111.229C62.648 104.985 55.7752 107.718 53.1854 110.667Z" fill="url(#paint24_linear_218_3)"/>
<path d="M65.25 114.963C65.8521 111.058 68.464 111.535 71.0351 111.166C72.621 112.096 73.846 112.071 75.1379 112.487C75.5224 110.854 77.4427 109.795 78.2548 108.859C80.4979 107.932 83.6154 108.573 84.942 108.696C85.2089 106.891 86.7855 106.84 87.4594 106.162C90.2566 105.896 90.358 106.935 91.9128 107.724C93.7988 109.732 94.9239 107.532 95.2474 107.511C94.9831 104.466 95.2171 105.834 98.0987 104.956C99.3882 103.845 100.96 104.007 102.034 103.65C102.888 107.479 101.091 108.285 97.4167 110.01C100.007 110.494 100.062 111.41 101.269 112.665C101.261 115.491 101.159 115.034 97.7851 115.788C96.1902 115.104 96.4884 118.905 95.2086 118.333C93.3981 117.711 92.2927 117.472 90.5153 117.307C90.3059 121.175 86.437 115.638 82.0763 116.263C72.1047 117.426 76.1734 120.595 72.3225 120.841C72.4822 119.312 71.6422 118.568 71.4705 117.994C66.6293 123.084 65.4375 117.904 65.25 114.963Z" fill="url(#paint25_linear_218_3)"/>
<path d="M78.6934 110.094C74.7041 111.999 73.3218 113.306 68.8757 113.589C63.9928 111.873 64.2632 111.121 64.7186 108.116C64.9987 105.887 61.1056 105.491 61.0879 105.478C54.53 102.82 57.0638 99.9711 62.0421 98.7227C63.174 97.9714 61.9156 96.7378 61.7081 96.1939C64.5619 93.4538 65.8737 93.059 69.9743 92.7976C70.5443 93.5657 70.7687 94.2533 71.1512 94.9536C73.1001 92.7122 73.8842 93.8233 75.9183 93.6936C78.5865 89.998 81.0555 91.2273 83.505 93.2099C81.4103 94.2653 79.9004 96.1164 78.5758 97.3494C79.485 98.3022 80.5117 98.5113 81.4561 99.0789C74.9747 97.6405 67.8202 103.821 78.0582 105.511C74.5019 109.439 78.599 109.449 78.6934 110.094Z" fill="url(#paint26_linear_218_3)"/>
<defs>
<linearGradient id="paint0_linear_218_3" x1="192.995" y1="144.152" x2="88.3576" y2="209.829" gradientUnits="userSpaceOnUse">
<stop stop-color="#FCE2E2"/>
<stop offset="0.3688" stop-color="#FEE5C3"/>
<stop offset="1" stop-color="#AACCEB"/>
</linearGradient>
<linearGradient id="paint1_linear_218_3" x1="93.1276" y1="189.705" x2="312.627" y2="174.526" gradientUnits="userSpaceOnUse">
<stop stop-color="#A8CBED"/>
<stop offset="1" stop-color="#EFDBDB"/>
</linearGradient>
<linearGradient id="paint2_linear_218_3" x1="312.782" y1="93.974" x2="315.772" y2="160.77" gradientUnits="userSpaceOnUse">
<stop stop-color="white"/>
<stop offset="1" stop-color="#E1BFBF"/>
</linearGradient>
<radialGradient id="paint3_radial_218_3" cx="0" cy="0" r="1" gradientUnits="userSpaceOnUse" gradientTransform="translate(313.918 72.2584) rotate(126.275) scale(18.1358 83.9857)">
<stop stop-color="#EFF5F9"/>
<stop offset="1" stop-color="#C7DBEB"/>
</radialGradient>
<radialGradient id="paint4_radial_218_3" cx="0" cy="0" r="1" gradientUnits="userSpaceOnUse" gradientTransform="translate(305.55 87.7785) rotate(11.6759) scale(109.113 16.5658)">
<stop stop-color="#EFF5F9"/>
<stop offset="1" stop-color="#C7DBEB"/>
</radialGradient>
<linearGradient id="paint5_linear_218_3" x1="316.249" y1="158.035" x2="316.249" y2="74.3819" gradientUnits="userSpaceOnUse">
<stop stop-color="#E2BFBF"/>
<stop offset="0.381" stop-color="#739EC5"/>
<stop offset="1" stop-color="#D2E0EB"/>
</linearGradient>
<radialGradient id="paint6_radial_218_3" cx="0" cy="0" r="1" gradientUnits="userSpaceOnUse" gradientTransform="translate(442.184 74.554) rotate(-104.909) scale(18.5891 60.4176)">
<stop stop-color="#B7CFE7"/>
<stop offset="1" stop-color="#E1ECF4"/>
</radialGradient>
<linearGradient id="paint7_linear_218_3" x1="291.814" y1="130.716" x2="291.814" y2="119.095" gradientUnits="userSpaceOnUse">
<stop stop-color="#80A7CA"/>
<stop offset="1" stop-color="#ABC6DA"/>
</linearGradient>
<linearGradient id="paint8_linear_218_3" x1="348.255" y1="130.182" x2="348.572" y2="105.193" gradientUnits="userSpaceOnUse">
<stop stop-color="#80A7CA"/>
<stop offset="1" stop-color="#AEC7DD"/>
</linearGradient>
<linearGradient id="paint9_linear_218_3" x1="328.639" y1="111.145" x2="328.466" y2="115.915" gradientUnits="userSpaceOnUse">
<stop stop-color="#D3E1F0"/>
<stop offset="1" stop-color="#9BBAD5"/>
</linearGradient>
<linearGradient id="paint10_linear_218_3" x1="220.779" y1="137.75" x2="172.517" y2="137.935" gradientUnits="userSpaceOnUse">
<stop stop-color="#E4EDF4"/>
<stop offset="1" stop-color="#A7C3DA"/>
</linearGradient>
<linearGradient id="paint11_linear_218_3" x1="211.672" y1="129.444" x2="263.279" y2="117.471" gradientUnits="userSpaceOnUse">
<stop stop-color="#BAD0E2"/>
<stop offset="1" stop-color="#FFE5C3"/>
</linearGradient>
<linearGradient id="paint12_linear_218_3" x1="203.495" y1="122.592" x2="223.993" y2="117.016" gradientUnits="userSpaceOnUse">
<stop stop-color="#BAD0E2"/>
<stop offset="1" stop-color="#FBFCFD"/>
</linearGradient>
<linearGradient id="paint13_linear_218_3" x1="218.421" y1="137.159" x2="196.543" y2="144.964" gradientUnits="userSpaceOnUse">
<stop stop-color="#EEF3F8"/>
<stop offset="1" stop-color="#D8E5EF"/>
</linearGradient>
<linearGradient id="paint14_linear_218_3" x1="231.481" y1="142.838" x2="210.243" y2="143.315" gradientUnits="userSpaceOnUse">
<stop stop-color="white"/>
<stop offset="1" stop-color="#EEF3F8"/>
</linearGradient>
<linearGradient id="paint15_linear_218_3" x1="190.844" y1="123.007" x2="190.277" y2="129.06" gradientUnits="userSpaceOnUse">
<stop stop-color="white"/>
<stop offset="1" stop-color="#B9CFE2"/>
</linearGradient>
<linearGradient id="paint16_linear_218_3" x1="163.754" y1="158.184" x2="172.966" y2="138.049" gradientUnits="userSpaceOnUse">
<stop stop-color="#A5BCD5"/>
<stop offset="1" stop-color="white"/>
</linearGradient>
<linearGradient id="paint17_linear_218_3" x1="182.735" y1="150.288" x2="183.084" y2="145.652" gradientUnits="userSpaceOnUse">
<stop stop-color="#B5C8DD"/>
<stop offset="1" stop-color="#EFF3F7"/>
</linearGradient>
<linearGradient id="paint18_linear_218_3" x1="145.789" y1="140.748" x2="140.613" y2="152.296" gradientUnits="userSpaceOnUse">
<stop stop-color="white"/>
<stop offset="1" stop-color="#C5D4E5"/>
</linearGradient>
<linearGradient id="paint19_linear_218_3" x1="132.855" y1="157.261" x2="140.81" y2="142.915" gradientUnits="userSpaceOnUse">
<stop stop-color="#A5BCD5"/>
<stop offset="1" stop-color="#DBE5EF"/>
</linearGradient>
<linearGradient id="paint20_linear_218_3" x1="190.341" y1="141.367" x2="191.107" y2="137.652" gradientUnits="userSpaceOnUse">
<stop stop-color="#DEE6EF"/>
<stop offset="1" stop-color="#F5F7FA"/>
</linearGradient>
<linearGradient id="paint21_linear_218_3" x1="83.4403" y1="107.917" x2="79.9355" y2="124.893" gradientUnits="userSpaceOnUse">
<stop stop-color="white"/>
<stop offset="1" stop-color="#B4C8DA"/>
</linearGradient>
<linearGradient id="paint22_linear_218_3" x1="81.9342" y1="122.479" x2="83.1003" y2="112.471" gradientUnits="userSpaceOnUse">
<stop stop-color="#8FB7DB"/>
<stop offset="1" stop-color="#DCE6EE"/>
</linearGradient>
<linearGradient id="paint23_linear_218_3" x1="40.4073" y1="101.917" x2="50.4155" y2="113.746" gradientUnits="userSpaceOnUse">
<stop stop-color="#D9E3EC"/>
<stop offset="1" stop-color="#B4C8DA"/>
</linearGradient>
<linearGradient id="paint24_linear_218_3" x1="59.6334" y1="110.527" x2="49.4674" y2="122.71" gradientUnits="userSpaceOnUse">
<stop stop-color="#EEF2F6"/>
<stop offset="1" stop-color="#D1DDE8"/>
</linearGradient>
<linearGradient id="paint25_linear_218_3" x1="89.9095" y1="114.826" x2="80.7762" y2="103.781" gradientUnits="userSpaceOnUse">
<stop stop-color="#C5D4E5"/>
<stop offset="1" stop-color="#D5E0EA"/>
</linearGradient>
<linearGradient id="paint26_linear_218_3" x1="79.3531" y1="103.447" x2="55.1266" y2="94.6262" gradientUnits="userSpaceOnUse">
<stop stop-color="#D5E0EA"/>
<stop offset="1" stop-color="white"/>
</linearGradient>
</defs>
</svg>
