<svg width="3366" height="571" viewBox="0 0 3366 571" fill="none" xmlns="http://www.w3.org/2000/svg">
<path d="M325.012 403.63H170.952V513.348H325.012V403.63Z" fill="#2D2D2D"/>
<path d="M1104.44 403.63H795.295V513.348H1104.44V403.63Z" fill="#2D2D2D"/>
<path fill-rule="evenodd" clip-rule="evenodd" d="M1250.95 478.909H1243.24V453.398H1234.25V478.909V504.417H1250.95V478.909Z" fill="black"/>
<path fill-rule="evenodd" clip-rule="evenodd" d="M855.807 407.577H267.057C279.709 410.908 291.343 417.543 300.793 426.989C314.843 441.04 322.667 459.93 322.667 479.804C322.667 494.361 318.468 508.392 310.701 520.375H812.16C804.393 508.388 800.194 494.361 800.194 479.804C800.194 459.93 808.021 441.04 822.068 426.989C831.517 417.543 843.155 410.911 855.807 407.577Z" fill="#505050" stroke="black" stroke-width="10" stroke-miterlimit="22.9256" stroke-linecap="round" stroke-linejoin="round"/>
<path fill-rule="evenodd" clip-rule="evenodd" d="M1099.74 520.378C1115.37 508.834 1126.08 493.141 1132.41 473.769C1170.09 469.487 1207.78 465.204 1245.46 460.921C1245.46 449.022 1245.46 419.476 1245.46 407.577H1043.94C1056.59 410.908 1068.23 417.543 1077.67 426.989C1091.72 441.04 1099.55 459.93 1099.55 479.804C1099.55 494.361 1095.35 508.392 1087.58 520.375H1099.74V520.378Z" fill="#505050" stroke="black" stroke-width="10" stroke-miterlimit="22.9256" stroke-linecap="round" stroke-linejoin="round"/>
<path d="M1343.12 5H318.1V407.577H1343.12V5Z" fill="white" stroke="black" stroke-width="10" stroke-miterlimit="22.9256" stroke-linecap="round" stroke-linejoin="round"/>
<path fill-rule="evenodd" clip-rule="evenodd" d="M185.263 520.378H29.5947C29.5947 458.653 29.5947 396.928 29.5947 335.203C55.4194 275.542 81.2407 215.881 107.062 156.22C108.185 153.626 110.6 152.038 113.429 152.038H318.099C318.049 247.628 318.15 311.99 318.099 407.58L298.571 424.858C284.782 412.155 266.825 405.117 247.984 405.117C228.113 405.117 209.222 412.942 195.175 426.993C181.125 441.043 173.298 459.933 173.298 479.808C173.294 494.364 177.496 508.391 185.263 520.378Z" fill="white" stroke="black" stroke-width="10" stroke-miterlimit="22.9256" stroke-linecap="round" stroke-linejoin="round"/>
<path fill-rule="evenodd" clip-rule="evenodd" d="M134.09 152.038C179.731 95.1214 241.373 65.9444 318.14 62.9788L318.1 152.038H134.09Z" fill="white" stroke="black" stroke-width="10" stroke-miterlimit="22.9256" stroke-linecap="round" stroke-linejoin="round"/>
<path fill-rule="evenodd" clip-rule="evenodd" d="M52.1658 460H29.5947V405.858H42.4551C47.803 405.858 52.1658 410.221 52.1658 415.569V460Z" fill="#C8C8C8" stroke="black" stroke-width="10" stroke-miterlimit="22.9256" stroke-linecap="round" stroke-linejoin="round"/>
<path fill-rule="evenodd" clip-rule="evenodd" d="M12.8911 460H52.166V520.378H12.8911C8.55179 520.378 5 516.826 5 512.486V467.895C5 463.552 8.55179 460 12.8911 460Z" fill="#505050" stroke="black" stroke-width="10" stroke-miterlimit="22.9256" stroke-linecap="round" stroke-linejoin="round"/>
<path fill-rule="evenodd" clip-rule="evenodd" d="M95.7966 182.247L103.45 182.223C104.897 182.217 106.141 182.887 106.938 184.093C107.736 185.303 107.856 186.71 107.283 188.037L47.736 325.609C46.8112 327.75 45.2363 329.255 43.0549 330.082L29.5947 335.199L95.7966 182.247Z" fill="#C8C8C8" stroke="black" stroke-width="10" stroke-miterlimit="22.9256" stroke-linecap="round" stroke-linejoin="round"/>
<path fill-rule="evenodd" clip-rule="evenodd" d="M62.6602 329.543L126.456 182.153H273.205V286.201L62.6602 329.543Z" fill="#C8C8C8" stroke="black" stroke-width="10" stroke-miterlimit="22.9256" stroke-linecap="round" stroke-linejoin="round"/>
<path fill-rule="evenodd" clip-rule="evenodd" d="M273.205 286.201L62.6602 329.543V460H150.217C159.401 414.403 199.682 380.066 247.983 380.066H273.205V286.201Z" fill="white" stroke="black" stroke-width="10" stroke-miterlimit="22.9256" stroke-linecap="round" stroke-linejoin="round"/>
<path fill-rule="evenodd" clip-rule="evenodd" d="M210.223 349.826H238.008C239.895 349.826 241.436 351.368 241.436 353.258V361.963C241.436 363.85 239.891 365.395 238.008 365.395H210.223C208.337 365.395 206.792 363.853 206.792 361.963V353.258C206.795 351.371 208.337 349.826 210.223 349.826Z" fill="black"/>
<path d="M158.604 408.234H80.4363C79.1228 408.234 78.0605 407.172 78.0605 405.858C78.0605 404.544 79.1228 403.482 80.4363 403.482H158.604C159.918 403.482 160.98 404.544 160.98 405.858C160.98 407.172 159.918 408.234 158.604 408.234Z" fill="black"/>
<path fill-rule="evenodd" clip-rule="evenodd" d="M296.621 405.875C299.771 405.875 302.344 404.025 302.344 401.76C302.344 399.495 299.774 397.645 296.621 397.645C293.468 397.645 290.901 399.495 290.901 401.76C290.901 404.025 293.471 405.875 296.621 405.875Z" fill="#F58220"/>
<path d="M143.995 502.403H68.8836C67.5701 502.403 66.5078 501.341 66.5078 500.027V494.424C66.5078 493.111 67.5701 492.049 68.8836 492.049C70.1971 492.049 71.2593 493.111 71.2593 494.424V497.651H141.62V494.424C141.62 493.111 142.682 492.049 143.995 492.049C145.309 492.049 146.371 493.111 146.371 494.424V500.027C146.371 501.338 145.305 502.403 143.995 502.403Z" fill="black"/>
<path fill-rule="evenodd" clip-rule="evenodd" d="M247.984 548.982C286.083 548.982 317.155 517.908 317.155 479.808C317.155 441.707 286.08 410.633 247.984 410.633C209.886 410.633 178.813 441.71 178.813 479.808C178.813 517.905 209.886 548.982 247.984 548.982Z" fill="black"/>
<path fill-rule="evenodd" clip-rule="evenodd" d="M247.984 526.125C273.494 526.125 294.303 505.319 294.303 479.804C294.303 454.293 273.494 433.484 247.984 433.484C222.475 433.484 201.666 454.293 201.666 479.804C201.666 505.319 222.471 526.125 247.984 526.125Z" fill="white"/>
<path fill-rule="evenodd" clip-rule="evenodd" d="M247.984 495.316C256.525 495.316 263.492 488.349 263.492 479.808C263.492 471.266 256.525 464.299 247.984 464.299C239.443 464.299 232.477 471.266 232.477 479.808C232.477 488.349 239.44 495.316 247.984 495.316Z" fill="black"/>
<path fill-rule="evenodd" clip-rule="evenodd" d="M247.984 487.294C252.109 487.294 255.473 483.929 255.473 479.804C255.473 475.679 252.109 472.318 247.984 472.318C243.859 472.318 240.498 475.683 240.498 479.804C240.498 483.926 243.859 487.294 247.984 487.294Z" fill="white" stroke="black" stroke-width="10" stroke-miterlimit="22.9256" stroke-linecap="round" stroke-linejoin="round"/>
<path d="M247.985 522.043C271.31 522.043 290.218 503.134 290.218 479.808C290.218 456.481 271.31 437.572 247.985 437.572C224.66 437.572 205.751 456.481 205.751 479.808C205.751 503.134 224.66 522.043 247.985 522.043Z" stroke="black" stroke-width="10" stroke-miterlimit="22.9256" stroke-linecap="round" stroke-linejoin="round"/>
<path fill-rule="evenodd" clip-rule="evenodd" d="M247.984 449.769C251.925 449.769 255.142 447.973 255.142 445.772C255.142 443.57 251.925 441.774 247.984 441.774C244.044 441.774 240.827 443.57 240.827 445.772C240.827 447.973 244.041 449.769 247.984 449.769Z" fill="black"/>
<path fill-rule="evenodd" clip-rule="evenodd" d="M221.969 464.789C219.992 468.213 216.839 470.093 214.929 468.987C213.019 467.885 213.069 464.212 215.046 460.791C217.023 457.366 220.176 455.486 222.086 456.589C224 457.694 223.946 461.364 221.969 464.789Z" fill="black"/>
<path fill-rule="evenodd" clip-rule="evenodd" d="M221.969 494.827C223.946 498.251 223.996 501.921 222.086 503.027C220.176 504.129 217.023 502.249 215.046 498.828C213.069 495.403 213.019 491.734 214.929 490.628C216.842 489.522 219.992 491.402 221.969 494.827Z" fill="black"/>
<path fill-rule="evenodd" clip-rule="evenodd" d="M247.982 509.846C251.935 509.846 255.139 511.635 255.139 513.843C255.139 516.052 251.935 517.841 247.982 517.841C244.028 517.841 240.824 516.052 240.824 513.843C240.824 511.635 244.031 509.846 247.982 509.846Z" fill="black"/>
<path fill-rule="evenodd" clip-rule="evenodd" d="M273.994 494.827C275.971 491.402 279.124 489.522 281.037 490.628C282.947 491.731 282.897 495.403 280.92 498.828C278.943 502.253 275.79 504.132 273.88 503.027C271.967 501.921 272.017 498.248 273.994 494.827Z" fill="black"/>
<path fill-rule="evenodd" clip-rule="evenodd" d="M273.993 464.789C272.016 461.364 271.966 457.694 273.876 456.589C275.786 455.486 278.939 457.366 280.916 460.791C282.893 464.215 282.943 467.885 281.034 468.987C279.124 470.093 275.97 468.21 273.993 464.789Z" fill="black"/>
<path fill-rule="evenodd" clip-rule="evenodd" d="M237.423 464.39C239.008 464.39 240.298 463.1 240.298 461.515C240.298 459.93 239.008 458.639 237.423 458.639C235.838 458.639 234.548 459.93 234.548 461.515C234.548 463.1 235.838 464.39 237.423 464.39Z" fill="black"/>
<path d="M226.86 482.683C228.448 482.683 229.735 481.396 229.735 479.808C229.735 478.22 228.448 476.933 226.86 476.933C225.273 476.933 223.985 478.22 223.985 479.808C223.985 481.396 225.273 482.683 226.86 482.683Z" fill="black"/>
<path fill-rule="evenodd" clip-rule="evenodd" d="M237.423 500.972C239.008 500.972 240.298 499.682 240.298 498.097C240.298 496.512 239.008 495.222 237.423 495.222C235.838 495.222 234.548 496.512 234.548 498.097C234.548 499.682 235.838 500.972 237.423 500.972Z" fill="black"/>
<path d="M258.543 500.972C260.131 500.972 261.418 499.685 261.418 498.097C261.418 496.509 260.131 495.222 258.543 495.222C256.955 495.222 255.668 496.509 255.668 498.097C255.668 499.685 256.955 500.972 258.543 500.972Z" fill="black"/>
<path fill-rule="evenodd" clip-rule="evenodd" d="M269.102 482.679C270.686 482.679 271.977 481.389 271.977 479.804C271.977 478.219 270.686 476.929 269.102 476.929C267.517 476.929 266.227 478.219 266.227 479.804C266.227 481.389 267.52 482.679 269.102 482.679Z" fill="black"/>
<path fill-rule="evenodd" clip-rule="evenodd" d="M258.543 464.393C260.128 464.393 261.418 463.1 261.418 461.518C261.418 459.936 260.128 458.643 258.543 458.643C256.958 458.643 255.668 459.933 255.668 461.518C255.668 463.103 256.958 464.393 258.543 464.393Z" fill="black"/>
<path d="M874.88 548.982C913.082 548.982 944.051 518.012 944.051 479.808C944.051 441.604 913.082 410.633 874.88 410.633C836.678 410.633 805.709 441.604 805.709 479.808C805.709 518.012 836.678 548.982 874.88 548.982Z" fill="black"/>
<path d="M874.88 520.234C897.206 520.234 915.304 502.134 915.304 479.808C915.304 457.481 897.206 439.381 874.88 439.381C852.554 439.381 834.456 457.481 834.456 479.808C834.456 502.134 852.554 520.234 874.88 520.234Z" fill="white"/>
<path fill-rule="evenodd" clip-rule="evenodd" d="M874.88 516.722C895.21 516.722 911.793 500.141 911.793 479.808C911.793 459.474 895.21 442.893 874.88 442.893C854.551 442.893 837.968 459.477 837.968 479.808C837.968 500.138 854.551 516.722 874.88 516.722Z" stroke="black" stroke-width="10" stroke-miterlimit="22.9256" stroke-linecap="round" stroke-linejoin="round"/>
<path fill-rule="evenodd" clip-rule="evenodd" d="M874.88 490.557C880.801 490.557 885.633 485.729 885.633 479.804C885.633 473.88 880.804 469.054 874.88 469.054C868.959 469.054 864.131 473.883 864.131 479.804C864.131 485.725 868.959 490.557 874.88 490.557Z" fill="black"/>
<path fill-rule="evenodd" clip-rule="evenodd" d="M874.879 454.354C878.22 454.354 880.944 452.832 880.944 450.966C880.944 449.099 878.22 447.578 874.879 447.578C871.539 447.578 868.814 449.099 868.814 450.966C868.814 452.832 871.539 454.354 874.879 454.354Z" fill="black"/>
<path fill-rule="evenodd" clip-rule="evenodd" d="M852.838 467.081C851.163 469.982 848.492 471.574 846.87 470.639C845.252 469.704 845.296 466.595 846.968 463.693C848.643 460.791 851.314 459.199 852.935 460.134C854.557 461.069 854.514 464.179 852.838 467.081Z" fill="black"/>
<path fill-rule="evenodd" clip-rule="evenodd" d="M852.838 492.535C854.513 495.437 854.557 498.546 852.935 499.481C851.313 500.416 848.643 498.821 846.967 495.923C845.292 493.021 845.248 489.911 846.87 488.976C848.492 488.038 851.162 489.633 852.838 492.535Z" fill="black"/>
<path fill-rule="evenodd" clip-rule="evenodd" d="M874.879 505.258C878.23 505.258 880.944 506.776 880.944 508.646C880.944 510.516 878.23 512.034 874.879 512.034C871.529 512.034 868.814 510.516 868.814 508.646C868.814 506.776 871.529 505.258 874.879 505.258Z" fill="black"/>
<path fill-rule="evenodd" clip-rule="evenodd" d="M896.921 492.535C898.597 489.633 901.267 488.041 902.889 488.976C904.508 489.911 904.464 493.021 902.792 495.923C901.117 498.825 898.446 500.416 896.824 499.481C895.202 498.543 895.246 495.433 896.921 492.535Z" fill="black"/>
<path fill-rule="evenodd" clip-rule="evenodd" d="M896.921 467.081C895.246 464.179 895.202 461.069 896.824 460.134C898.443 459.199 901.117 460.791 902.792 463.693C904.467 466.595 904.511 469.704 902.889 470.639C901.267 471.574 898.597 469.982 896.921 467.081Z" fill="black"/>
<path fill-rule="evenodd" clip-rule="evenodd" d="M866.939 468.803C868.457 468.803 869.693 467.566 869.693 466.048C869.693 464.53 868.457 463.294 866.939 463.294C865.421 463.294 864.185 464.53 864.185 466.048C864.185 467.566 865.421 468.803 866.939 468.803Z" fill="black"/>
<path fill-rule="evenodd" clip-rule="evenodd" d="M858.994 482.562C860.512 482.562 861.748 481.326 861.748 479.808C861.748 478.29 860.512 477.053 858.994 477.053C857.476 477.053 856.239 478.29 856.239 479.808C856.239 481.326 857.479 482.562 858.994 482.562Z" fill="black"/>
<path fill-rule="evenodd" clip-rule="evenodd" d="M866.939 496.318C868.457 496.318 869.693 495.081 869.693 493.563C869.693 492.045 868.457 490.809 866.939 490.809C865.421 490.809 864.185 492.045 864.185 493.563C864.185 495.081 865.421 496.318 866.939 496.318Z" fill="black"/>
<path fill-rule="evenodd" clip-rule="evenodd" d="M882.822 496.318C884.34 496.318 885.576 495.081 885.576 493.563C885.576 492.045 884.34 490.809 882.822 490.809C881.304 490.809 880.067 492.045 880.067 493.563C880.067 495.081 881.307 496.318 882.822 496.318Z" fill="black"/>
<path fill-rule="evenodd" clip-rule="evenodd" d="M890.766 482.559C892.284 482.559 893.521 481.322 893.521 479.804C893.521 478.286 892.284 477.05 890.766 477.05C889.248 477.05 888.012 478.286 888.012 479.804C888.012 481.322 889.248 482.559 890.766 482.559Z" fill="black"/>
<path fill-rule="evenodd" clip-rule="evenodd" d="M882.822 468.803C884.34 468.803 885.576 467.566 885.576 466.048C885.576 464.53 884.34 463.294 882.822 463.294C881.304 463.294 880.067 464.53 880.067 466.048C880.067 467.566 881.307 468.803 882.822 468.803Z" fill="black"/>
<path d="M1088.91 506.055C1103.44 470.72 1086.57 430.297 1051.24 415.768C1015.91 401.239 975.485 418.106 960.957 453.441C946.429 488.775 963.294 529.198 998.627 543.727C1033.96 558.256 1074.38 541.389 1088.91 506.055Z" fill="black"/>
<path fill-rule="evenodd" clip-rule="evenodd" d="M1024.86 520.23C1047.13 520.23 1065.29 502.071 1065.29 479.804C1065.29 457.537 1047.13 439.378 1024.86 439.378C1002.6 439.378 984.438 457.537 984.438 479.804C984.438 502.071 1002.6 520.23 1024.86 520.23Z" fill="white"/>
<path fill-rule="evenodd" clip-rule="evenodd" d="M1024.86 516.722C1045.2 516.722 1061.78 500.141 1061.78 479.808C1061.78 459.474 1045.19 442.893 1024.86 442.893C1004.53 442.893 987.95 459.477 987.95 479.808C987.95 500.138 1004.53 516.722 1024.86 516.722Z" stroke="black" stroke-width="10" stroke-miterlimit="22.9256" stroke-linecap="round" stroke-linejoin="round"/>
<path fill-rule="evenodd" clip-rule="evenodd" d="M1024.86 490.557C1030.78 490.557 1035.61 485.729 1035.61 479.804C1035.61 473.88 1030.78 469.054 1024.86 469.054C1018.94 469.054 1014.11 473.883 1014.11 479.804C1014.11 485.725 1018.94 490.557 1024.86 490.557Z" fill="black"/>
<path fill-rule="evenodd" clip-rule="evenodd" d="M1024.86 454.353C1028.2 454.353 1030.93 452.832 1030.93 450.966C1030.93 449.099 1028.2 447.578 1024.86 447.578C1021.52 447.578 1018.8 449.099 1018.8 450.966C1018.8 452.832 1021.52 454.353 1024.86 454.353Z" fill="black"/>
<path fill-rule="evenodd" clip-rule="evenodd" d="M1002.82 467.08C1001.14 469.982 998.472 471.574 996.85 470.639C995.232 469.704 995.275 466.594 996.947 463.692C998.623 460.79 1001.29 459.199 1002.91 460.134C1004.54 461.069 1004.49 464.178 1002.82 467.08Z" fill="black"/>
<path fill-rule="evenodd" clip-rule="evenodd" d="M1002.82 492.535C1004.49 495.437 1004.54 498.546 1002.91 499.481C1001.3 500.416 998.622 498.821 996.947 495.922C995.271 493.02 995.228 489.911 996.85 488.976C998.471 488.038 1001.15 489.633 1002.82 492.535Z" fill="black"/>
<path fill-rule="evenodd" clip-rule="evenodd" d="M1024.86 505.258C1028.21 505.258 1030.92 506.776 1030.92 508.646C1030.92 510.516 1028.21 512.034 1024.86 512.034C1021.51 512.034 1018.79 510.516 1018.79 508.646C1018.79 506.776 1021.51 505.258 1024.86 505.258Z" fill="black"/>
<path fill-rule="evenodd" clip-rule="evenodd" d="M1046.9 492.535C1048.58 489.633 1051.25 488.041 1052.87 488.976C1054.49 489.911 1054.45 493.02 1052.77 495.922C1051.1 498.824 1048.43 500.416 1046.81 499.481C1045.19 498.543 1045.23 495.433 1046.9 492.535Z" fill="black"/>
<path fill-rule="evenodd" clip-rule="evenodd" d="M1046.9 467.08C1045.23 464.178 1045.18 461.069 1046.8 460.134C1048.42 459.199 1051.1 460.79 1052.77 463.692C1054.44 466.594 1054.49 469.704 1052.87 470.639C1051.25 471.574 1048.58 469.982 1046.9 467.08Z" fill="black"/>
<path fill-rule="evenodd" clip-rule="evenodd" d="M1016.92 468.803C1018.44 468.803 1019.67 467.566 1019.67 466.048C1019.67 464.53 1018.44 463.294 1016.92 463.294C1015.4 463.294 1014.16 464.53 1014.16 466.048C1014.16 467.566 1015.4 468.803 1016.92 468.803Z" fill="black"/>
<path fill-rule="evenodd" clip-rule="evenodd" d="M1008.98 482.562C1010.5 482.562 1011.73 481.325 1011.73 479.807C1011.73 478.289 1010.5 477.053 1008.98 477.053C1007.46 477.053 1006.22 478.289 1006.22 479.807C1006.22 481.325 1007.46 482.562 1008.98 482.562Z" fill="black"/>
<path fill-rule="evenodd" clip-rule="evenodd" d="M1016.92 496.318C1018.44 496.318 1019.67 495.081 1019.67 493.563C1019.67 492.045 1018.44 490.809 1016.92 490.809C1015.4 490.809 1014.16 492.045 1014.16 493.563C1014.16 495.081 1015.4 496.318 1016.92 496.318Z" fill="black"/>
<path fill-rule="evenodd" clip-rule="evenodd" d="M1032.81 496.318C1034.32 496.318 1035.56 495.081 1035.56 493.563C1035.56 492.045 1034.32 490.809 1032.81 490.809C1031.29 490.809 1030.05 492.045 1030.05 493.563C1030.05 495.081 1031.29 496.318 1032.81 496.318Z" fill="black"/>
<path fill-rule="evenodd" clip-rule="evenodd" d="M1040.75 482.559C1042.26 482.559 1043.5 481.322 1043.5 479.804C1043.5 478.286 1042.26 477.05 1040.75 477.05C1039.23 477.05 1037.99 478.286 1037.99 479.804C1037.99 481.322 1039.23 482.559 1040.75 482.559Z" fill="black"/>
<path d="M1032.81 468.806C1034.33 468.806 1035.56 467.573 1035.56 466.052C1035.56 464.53 1034.33 463.297 1032.81 463.297C1031.28 463.297 1030.05 464.53 1030.05 466.052C1030.05 467.573 1031.28 468.806 1032.81 468.806Z" fill="black"/>
<path d="M78.8962 341.375C77.5827 341.375 76.5205 340.313 76.5205 338.999V187.444C76.5205 183.215 79.9584 179.777 84.1871 179.777H126.458C127.771 179.777 128.833 180.84 128.833 182.153C128.833 183.467 127.771 184.529 126.458 184.529H84.1871C82.6056 184.529 81.272 185.866 81.272 187.444V338.999C81.272 340.313 80.2063 341.375 78.8962 341.375Z" fill="black"/>
<path fill-rule="evenodd" clip-rule="evenodd" d="M76.9257 227.174H82.3607C83.386 227.174 84.2171 228.008 84.2171 229.03V237.139C84.2171 238.161 83.3827 238.996 82.3607 238.996H76.9257C75.9037 238.996 75.0693 238.161 75.0693 237.139V229.03C75.0693 228.008 75.9071 227.174 76.9257 227.174Z" fill="black"/>
<path fill-rule="evenodd" clip-rule="evenodd" d="M91.4409 194.753C95.1133 194.753 96.0214 202.179 96.0214 209.343V257.55C96.0214 264.715 95.1133 272.141 91.4409 272.141C81.814 272.141 81.814 194.753 91.4409 194.753Z" fill="#505050" stroke="black" stroke-width="10" stroke-miterlimit="22.9256" stroke-linecap="round" stroke-linejoin="round"/>
<path fill-rule="evenodd" clip-rule="evenodd" d="M91.4409 283.38C95.1133 283.38 96.0214 286.258 96.0214 289.033V307.714C96.0214 310.486 95.1133 313.368 91.4409 313.368C81.814 313.368 81.814 283.38 91.4409 283.38Z" fill="#505050" stroke="black" stroke-width="10" stroke-miterlimit="22.9256" stroke-linecap="round" stroke-linejoin="round"/>
<path fill-rule="evenodd" clip-rule="evenodd" d="M126.457 186.821C129.027 186.821 131.122 184.723 131.122 182.157C131.122 179.586 129.024 177.492 126.457 177.492C123.887 177.492 121.793 179.59 121.793 182.157C121.793 184.723 123.887 186.821 126.457 186.821Z" fill="black"/>
<path fill-rule="evenodd" clip-rule="evenodd" d="M76.9257 292.461H82.3607C83.386 292.461 84.2171 293.295 84.2171 294.317V302.427C84.2171 303.449 83.3827 304.283 82.3607 304.283H76.9257C75.9037 304.283 75.0693 303.445 75.0693 302.427V294.317C75.0693 293.295 75.9071 292.461 76.9257 292.461Z" fill="black"/>
<path fill-rule="evenodd" clip-rule="evenodd" d="M78.8958 343.664C81.4658 343.664 83.5601 341.569 83.5601 338.999C83.5601 336.429 81.4625 334.335 78.8958 334.335C76.3257 334.335 74.2314 336.432 74.2314 338.999C74.2281 341.569 76.3257 343.664 78.8958 343.664Z" fill="black"/>
<path fill-rule="evenodd" clip-rule="evenodd" d="M1343 407.659H3345.56L3303.42 441.502L3020.68 453.928H1343V407.659Z" fill="#505050" stroke="black" stroke-width="10" stroke-miterlimit="22.9256" stroke-linecap="round" stroke-linejoin="round"/>
<path d="M3361 368H1343V407.659H3361V368Z" fill="white" stroke="black" stroke-width="10" stroke-miterlimit="22.9256" stroke-linecap="round" stroke-linejoin="round"/>
<path fill-rule="evenodd" clip-rule="evenodd" d="M2282.26 407.659C2259.08 418.756 2243.2 441.41 2243.2 467.552C2243.2 478.875 2246.19 489.541 2251.45 498.899C2248.93 491.861 2247.55 484.308 2247.55 476.447C2247.55 438.721 2279.08 408.091 2318.13 407.668V407.659H2282.26Z" fill="black" stroke="black" stroke-width="10" stroke-miterlimit="22.9256" stroke-linecap="round" stroke-linejoin="round"/>
<path fill-rule="evenodd" clip-rule="evenodd" d="M2355.71 407.801C2378.89 418.898 2394.77 441.551 2394.77 467.693C2394.77 479.017 2391.79 489.682 2386.52 499.041C2389.04 492.003 2390.42 484.45 2390.42 476.589C2390.42 438.863 2358.89 408.233 2319.84 407.809V407.801H2355.71Z" fill="black" stroke="black" stroke-width="10" stroke-miterlimit="22.9256" stroke-linecap="round" stroke-linejoin="round"/>
<path d="M2318.96 539.031C2354.69 539.031 2383.65 511.125 2383.65 476.702C2383.65 442.279 2354.69 414.373 2318.96 414.373C2283.23 414.373 2254.26 442.279 2254.26 476.702C2254.26 511.125 2283.23 539.031 2318.96 539.031Z" fill="black"/>
<path d="M2345.66 502.458C2360.43 488.233 2360.43 465.17 2345.66 450.946C2330.9 436.721 2306.96 436.721 2292.19 450.946C2277.43 465.17 2277.43 488.233 2292.19 502.458C2306.96 516.682 2330.9 516.682 2345.66 502.458Z" fill="white"/>
<path fill-rule="evenodd" clip-rule="evenodd" d="M2318.95 509.965C2337.97 509.965 2353.48 495.022 2353.48 476.705C2353.48 458.384 2337.97 443.445 2318.95 443.445C2299.94 443.445 2284.43 458.387 2284.43 476.705C2284.43 495.022 2299.94 509.965 2318.95 509.965Z" stroke="black" stroke-width="10" stroke-miterlimit="22.9256" stroke-linecap="round" stroke-linejoin="round"/>
<path fill-rule="evenodd" clip-rule="evenodd" d="M2318.96 486.392C2324.49 486.392 2329.01 482.04 2329.01 476.705C2329.01 471.37 2324.49 467.017 2318.96 467.017C2313.42 467.017 2308.9 471.37 2308.9 476.705C2308.9 482.04 2313.42 486.392 2318.96 486.392Z" fill="black"/>
<path fill-rule="evenodd" clip-rule="evenodd" d="M2318.96 453.772C2322.08 453.772 2324.63 452.398 2324.63 450.718C2324.63 449.037 2322.08 447.667 2318.96 447.667C2315.83 447.667 2313.28 449.037 2313.28 450.718C2313.28 452.398 2315.83 453.772 2318.96 453.772Z" fill="black"/>
<path fill-rule="evenodd" clip-rule="evenodd" d="M2298.34 465.237C2296.77 467.85 2294.27 469.285 2292.76 468.443C2291.24 467.599 2291.28 464.797 2292.85 462.183C2294.42 459.569 2296.92 458.132 2298.43 458.977C2299.95 459.821 2299.91 462.623 2298.34 465.237Z" fill="black"/>
<path fill-rule="evenodd" clip-rule="evenodd" d="M2298.34 488.17C2299.91 490.783 2299.95 493.585 2298.43 494.43C2296.92 495.271 2294.42 493.837 2292.85 491.224C2291.28 488.61 2291.24 485.808 2292.76 484.964C2294.28 484.122 2296.77 485.556 2298.34 488.17Z" fill="black"/>
<path fill-rule="evenodd" clip-rule="evenodd" d="M2318.96 499.638C2322.09 499.638 2324.63 501.005 2324.63 502.689C2324.63 504.372 2322.09 505.743 2318.96 505.743C2315.82 505.743 2313.28 504.375 2313.28 502.689C2313.28 501.003 2315.82 499.638 2318.96 499.638Z" fill="black"/>
<path fill-rule="evenodd" clip-rule="evenodd" d="M2339.57 488.17C2341.14 485.556 2343.64 484.122 2345.15 484.964C2346.66 485.805 2346.62 488.61 2345.06 491.224C2343.49 493.837 2340.99 495.271 2339.48 494.43C2337.96 493.588 2338 490.786 2339.57 488.17Z" fill="black"/>
<path fill-rule="evenodd" clip-rule="evenodd" d="M2339.57 465.237C2338 462.623 2337.96 459.821 2339.48 458.977C2340.99 458.132 2343.49 459.569 2345.06 462.183C2346.62 464.797 2346.66 467.599 2345.15 468.443C2343.64 469.287 2341.14 467.85 2339.57 465.237Z" fill="black"/>
<path fill-rule="evenodd" clip-rule="evenodd" d="M2311.53 466.787C2312.94 466.787 2314.1 465.671 2314.1 464.306C2314.1 462.939 2312.94 461.826 2311.53 461.826C2310.11 461.826 2308.95 462.939 2308.95 464.306C2308.95 465.674 2310.11 466.787 2311.53 466.787Z" fill="black"/>
<path fill-rule="evenodd" clip-rule="evenodd" d="M2304.1 479.188C2305.52 479.188 2306.67 478.072 2306.67 476.707C2306.67 475.34 2305.52 474.227 2304.1 474.227C2302.68 474.227 2301.52 475.34 2301.52 476.707C2301.52 478.072 2302.68 479.188 2304.1 479.188Z" fill="black"/>
<path fill-rule="evenodd" clip-rule="evenodd" d="M2311.53 491.581C2312.94 491.581 2314.1 490.465 2314.1 489.1C2314.1 487.732 2312.94 486.619 2311.53 486.619C2310.11 486.619 2308.95 487.735 2308.95 489.1C2308.95 490.465 2310.11 491.581 2311.53 491.581Z" fill="black"/>
<path fill-rule="evenodd" clip-rule="evenodd" d="M2326.39 491.581C2327.8 491.581 2328.96 490.465 2328.96 489.1C2328.96 487.732 2327.8 486.619 2326.39 486.619C2324.97 486.619 2323.81 487.735 2323.81 489.1C2323.81 490.465 2324.97 491.581 2326.39 491.581Z" fill="black"/>
<path fill-rule="evenodd" clip-rule="evenodd" d="M2333.81 479.186C2335.23 479.186 2336.39 478.07 2336.39 476.705C2336.39 475.337 2335.23 474.224 2333.81 474.224C2332.39 474.224 2331.24 475.34 2331.24 476.705C2331.24 478.07 2332.39 479.186 2333.81 479.186Z" fill="black"/>
<path fill-rule="evenodd" clip-rule="evenodd" d="M2326.39 466.79C2327.8 466.79 2328.96 465.674 2328.96 464.309C2328.96 462.941 2327.8 461.828 2326.39 461.828C2324.97 461.828 2323.81 462.941 2323.81 464.309C2323.81 465.674 2324.97 466.79 2326.39 466.79Z" fill="black"/>
<path fill-rule="evenodd" clip-rule="evenodd" d="M2107.61 407.801C2084.43 418.898 2068.55 441.551 2068.55 467.693C2068.55 479.017 2071.54 489.682 2076.8 499.041C2074.28 492.003 2072.9 484.45 2072.9 476.589C2072.9 438.863 2104.43 408.233 2143.48 407.809V407.801H2107.61Z" fill="black" stroke="black" stroke-width="10" stroke-miterlimit="22.9256" stroke-linecap="round" stroke-linejoin="round"/>
<path fill-rule="evenodd" clip-rule="evenodd" d="M2181.06 407.943C2204.24 419.04 2220.12 441.693 2220.12 467.835C2220.12 479.159 2217.14 489.824 2211.87 499.183C2214.39 492.145 2215.77 484.592 2215.77 476.731C2215.77 439.005 2184.24 408.375 2145.19 407.952V407.943H2181.06Z" fill="black" stroke="black" stroke-width="10" stroke-miterlimit="22.9256" stroke-linecap="round" stroke-linejoin="round"/>
<path d="M2144.3 539.173C2180.03 539.173 2209 511.267 2209 476.844C2209 442.421 2180.03 414.515 2144.3 414.515C2108.57 414.515 2079.61 442.421 2079.61 476.844C2079.61 511.267 2108.57 539.173 2144.3 539.173Z" fill="black"/>
<path d="M2171.01 502.6C2185.77 488.375 2185.77 465.312 2171.01 451.088C2156.25 436.863 2132.31 436.863 2117.54 451.088C2102.78 465.312 2102.78 488.375 2117.54 502.6C2132.31 516.824 2156.25 516.824 2171.01 502.6Z" fill="white"/>
<path fill-rule="evenodd" clip-rule="evenodd" d="M2144.3 510.107C2163.32 510.107 2178.83 495.164 2178.83 476.847C2178.83 458.526 2163.32 443.586 2144.3 443.586C2125.29 443.586 2109.78 458.529 2109.78 476.847C2109.78 495.164 2125.29 510.107 2144.3 510.107Z" stroke="black" stroke-width="10" stroke-miterlimit="22.9256" stroke-linecap="round" stroke-linejoin="round"/>
<path fill-rule="evenodd" clip-rule="evenodd" d="M2144.3 486.534C2149.84 486.534 2154.36 482.182 2154.36 476.847C2154.36 471.512 2149.84 467.159 2144.3 467.159C2138.77 467.159 2134.25 471.512 2134.25 476.847C2134.25 482.182 2138.77 486.534 2144.3 486.534Z" fill="black"/>
<path fill-rule="evenodd" clip-rule="evenodd" d="M2144.3 453.914C2147.43 453.914 2149.98 452.54 2149.98 450.86C2149.98 449.179 2147.43 447.809 2144.3 447.809C2141.18 447.809 2138.63 449.179 2138.63 450.86C2138.63 452.54 2141.18 453.914 2144.3 453.914Z" fill="black"/>
<path fill-rule="evenodd" clip-rule="evenodd" d="M2123.69 465.379C2122.12 467.993 2119.62 469.427 2118.11 468.585C2116.59 467.741 2116.63 464.939 2118.2 462.325C2119.76 459.711 2122.27 458.274 2123.78 459.119C2125.3 459.963 2125.25 462.765 2123.69 465.379Z" fill="black"/>
<path fill-rule="evenodd" clip-rule="evenodd" d="M2123.69 488.312C2125.25 490.925 2125.29 493.727 2123.78 494.572C2122.27 495.413 2119.76 493.979 2118.2 491.365C2116.63 488.752 2116.59 485.95 2118.11 485.105C2119.62 484.264 2122.12 485.698 2123.69 488.312Z" fill="black"/>
<path fill-rule="evenodd" clip-rule="evenodd" d="M2144.3 499.78C2147.44 499.78 2149.98 501.147 2149.98 502.831C2149.98 504.514 2147.44 505.885 2144.3 505.885C2141.17 505.885 2138.63 504.517 2138.63 502.831C2138.63 501.145 2141.17 499.78 2144.3 499.78Z" fill="black"/>
<path fill-rule="evenodd" clip-rule="evenodd" d="M2164.92 488.312C2166.48 485.698 2168.98 484.264 2170.5 485.105C2172.01 485.947 2171.97 488.752 2170.41 491.365C2168.84 493.979 2166.34 495.413 2164.83 494.572C2163.31 493.73 2163.35 490.928 2164.92 488.312Z" fill="black"/>
<path fill-rule="evenodd" clip-rule="evenodd" d="M2164.92 465.379C2163.35 462.765 2163.31 459.963 2164.83 459.119C2166.34 458.274 2168.84 459.711 2170.41 462.325C2171.97 464.939 2172.01 467.741 2170.5 468.585C2168.98 469.43 2166.48 467.993 2164.92 465.379Z" fill="black"/>
<path fill-rule="evenodd" clip-rule="evenodd" d="M2136.87 466.929C2138.29 466.929 2139.45 465.813 2139.45 464.449C2139.45 463.081 2138.29 461.968 2136.87 461.968C2135.46 461.968 2134.3 463.081 2134.3 464.449C2134.3 465.816 2135.46 466.929 2136.87 466.929Z" fill="black"/>
<path fill-rule="evenodd" clip-rule="evenodd" d="M2129.45 479.33C2130.86 479.33 2132.02 478.214 2132.02 476.849C2132.02 475.482 2130.86 474.369 2129.45 474.369C2128.03 474.369 2126.87 475.482 2126.87 476.849C2126.87 478.214 2128.03 479.33 2129.45 479.33Z" fill="black"/>
<path fill-rule="evenodd" clip-rule="evenodd" d="M2136.87 491.723C2138.29 491.723 2139.45 490.607 2139.45 489.242C2139.45 487.874 2138.29 486.761 2136.87 486.761C2135.46 486.761 2134.3 487.877 2134.3 489.242C2134.3 490.607 2135.46 491.723 2136.87 491.723Z" fill="black"/>
<path fill-rule="evenodd" clip-rule="evenodd" d="M2151.73 491.723C2153.15 491.723 2154.31 490.607 2154.31 489.242C2154.31 487.874 2153.15 486.761 2151.73 486.761C2150.31 486.761 2149.16 487.877 2149.16 489.242C2149.16 490.607 2150.31 491.723 2151.73 491.723Z" fill="black"/>
<path fill-rule="evenodd" clip-rule="evenodd" d="M2159.16 479.327C2160.58 479.327 2161.73 478.212 2161.73 476.847C2161.73 475.479 2160.58 474.366 2159.16 474.366C2157.74 474.366 2156.58 475.482 2156.58 476.847C2156.58 478.212 2157.74 479.327 2159.16 479.327Z" fill="black"/>
<path fill-rule="evenodd" clip-rule="evenodd" d="M2151.73 466.932C2153.15 466.932 2154.31 465.816 2154.31 464.451C2154.31 463.083 2153.15 461.97 2151.73 461.97C2150.31 461.97 2149.16 463.083 2149.16 464.451C2149.16 465.816 2150.31 466.932 2151.73 466.932Z" fill="black"/>
<path fill-rule="evenodd" clip-rule="evenodd" d="M2451.52 407.801C2428.34 418.898 2412.46 441.551 2412.46 467.693C2412.46 479.017 2415.45 489.682 2420.71 499.041C2418.19 492.003 2416.81 484.45 2416.81 476.589C2416.81 438.863 2448.34 408.233 2487.39 407.809V407.801H2451.52Z" fill="black" stroke="black" stroke-width="10" stroke-miterlimit="22.9256" stroke-linecap="round" stroke-linejoin="round"/>
<path fill-rule="evenodd" clip-rule="evenodd" d="M2524.97 407.943C2548.15 419.04 2564.03 441.693 2564.03 467.835C2564.03 479.159 2561.05 489.824 2555.78 499.183C2558.3 492.145 2559.68 484.592 2559.68 476.731C2559.68 439.005 2528.15 408.375 2489.1 407.952V407.943H2524.97Z" fill="black" stroke="black" stroke-width="10" stroke-miterlimit="22.9256" stroke-linecap="round" stroke-linejoin="round"/>
<path d="M2488.22 539.173C2523.94 539.173 2552.91 511.267 2552.91 476.844C2552.91 442.421 2523.94 414.515 2488.22 414.515C2452.49 414.515 2423.52 442.421 2423.52 476.844C2423.52 511.267 2452.49 539.173 2488.22 539.173Z" fill="black"/>
<path d="M2514.92 502.6C2529.69 488.375 2529.69 465.312 2514.92 451.088C2500.16 436.863 2476.22 436.863 2461.45 451.088C2446.69 465.312 2446.69 488.375 2461.45 502.6C2476.22 516.824 2500.16 516.824 2514.92 502.6Z" fill="white"/>
<path fill-rule="evenodd" clip-rule="evenodd" d="M2488.21 510.107C2507.23 510.107 2522.74 495.164 2522.74 476.847C2522.74 458.526 2507.23 443.586 2488.21 443.586C2469.2 443.586 2453.69 458.529 2453.69 476.847C2453.69 495.164 2469.2 510.107 2488.21 510.107Z" stroke="black" stroke-width="10" stroke-miterlimit="22.9256" stroke-linecap="round" stroke-linejoin="round"/>
<path fill-rule="evenodd" clip-rule="evenodd" d="M2488.22 486.534C2493.75 486.534 2498.27 482.182 2498.27 476.847C2498.27 471.512 2493.75 467.159 2488.22 467.159C2482.68 467.159 2478.16 471.512 2478.16 476.847C2478.16 482.182 2482.68 486.534 2488.22 486.534Z" fill="black"/>
<path fill-rule="evenodd" clip-rule="evenodd" d="M2488.22 453.914C2491.34 453.914 2493.89 452.54 2493.89 450.86C2493.89 449.179 2491.34 447.809 2488.22 447.809C2485.09 447.809 2482.54 449.179 2482.54 450.86C2482.54 452.54 2485.09 453.914 2488.22 453.914Z" fill="black"/>
<path fill-rule="evenodd" clip-rule="evenodd" d="M2467.6 465.379C2466.03 467.993 2463.53 469.427 2462.02 468.585C2460.5 467.741 2460.54 464.939 2462.11 462.325C2463.68 459.711 2466.18 458.274 2467.69 459.119C2469.21 459.963 2469.17 462.765 2467.6 465.379Z" fill="black"/>
<path fill-rule="evenodd" clip-rule="evenodd" d="M2467.6 488.312C2469.17 490.925 2469.21 493.727 2467.69 494.572C2466.18 495.413 2463.68 493.979 2462.11 491.365C2460.54 488.752 2460.5 485.95 2462.02 485.105C2463.54 484.264 2466.03 485.698 2467.6 488.312Z" fill="black"/>
<path fill-rule="evenodd" clip-rule="evenodd" d="M2488.22 499.78C2491.35 499.78 2493.89 501.147 2493.89 502.831C2493.89 504.514 2491.35 505.885 2488.22 505.885C2485.08 505.885 2482.54 504.517 2482.54 502.831C2482.54 501.145 2485.08 499.78 2488.22 499.78Z" fill="black"/>
<path fill-rule="evenodd" clip-rule="evenodd" d="M2508.83 488.312C2510.4 485.698 2512.9 484.264 2514.41 485.105C2515.92 485.947 2515.88 488.752 2514.32 491.365C2512.75 493.979 2510.25 495.413 2508.74 494.572C2507.22 493.73 2507.26 490.928 2508.83 488.312Z" fill="black"/>
<path fill-rule="evenodd" clip-rule="evenodd" d="M2508.83 465.379C2507.26 462.765 2507.22 459.963 2508.74 459.119C2510.25 458.274 2512.75 459.711 2514.32 462.325C2515.88 464.939 2515.92 467.741 2514.41 468.585C2512.9 469.43 2510.4 467.993 2508.83 465.379Z" fill="black"/>
<path fill-rule="evenodd" clip-rule="evenodd" d="M2480.79 466.929C2482.2 466.929 2483.36 465.813 2483.36 464.449C2483.36 463.081 2482.2 461.968 2480.79 461.968C2479.37 461.968 2478.21 463.081 2478.21 464.449C2478.21 465.816 2479.37 466.929 2480.79 466.929Z" fill="black"/>
<path fill-rule="evenodd" clip-rule="evenodd" d="M2473.36 479.33C2474.77 479.33 2475.93 478.214 2475.93 476.849C2475.93 475.482 2474.77 474.369 2473.36 474.369C2471.94 474.369 2470.78 475.482 2470.78 476.849C2470.78 478.214 2471.94 479.33 2473.36 479.33Z" fill="black"/>
<path fill-rule="evenodd" clip-rule="evenodd" d="M2480.79 491.723C2482.2 491.723 2483.36 490.607 2483.36 489.242C2483.36 487.874 2482.2 486.761 2480.79 486.761C2479.37 486.761 2478.21 487.877 2478.21 489.242C2478.21 490.607 2479.37 491.723 2480.79 491.723Z" fill="black"/>
<path fill-rule="evenodd" clip-rule="evenodd" d="M2495.65 491.723C2497.06 491.723 2498.22 490.607 2498.22 489.242C2498.22 487.874 2497.06 486.761 2495.65 486.761C2494.23 486.761 2493.07 487.877 2493.07 489.242C2493.07 490.607 2494.23 491.723 2495.65 491.723Z" fill="black"/>
<path fill-rule="evenodd" clip-rule="evenodd" d="M2503.07 479.327C2504.49 479.327 2505.65 478.212 2505.65 476.847C2505.65 475.479 2504.49 474.366 2503.07 474.366C2501.65 474.366 2500.5 475.482 2500.5 476.847C2500.5 478.212 2501.65 479.327 2503.07 479.327Z" fill="black"/>
<path fill-rule="evenodd" clip-rule="evenodd" d="M2495.65 466.932C2497.06 466.932 2498.22 465.816 2498.22 464.451C2498.22 463.083 2497.06 461.97 2495.65 461.97C2494.23 461.97 2493.07 463.083 2493.07 464.451C2493.07 465.816 2494.23 466.932 2495.65 466.932Z" fill="black"/>
</svg>
