<svg width="1194" height="545" viewBox="0 0 1194 545" fill="none" xmlns="http://www.w3.org/2000/svg">
<path fill-rule="evenodd" clip-rule="evenodd" d="M299.897 95.0404C587.176 95.0404 887.626 95.0404 1174.91 95.0404C1169.89 67.2687 1164.88 39.497 1159.86 11.7254C1159.24 8.25644 1156.28 5.79102 1152.76 5.79102C906.432 5.79102 647.973 5.79102 401.229 5.79102C388.689 5.79102 377.901 10.5181 369.399 19.7329C346.229 44.8354 323.063 69.9379 299.897 95.0404Z" fill="white" stroke="black" stroke-width="10" stroke-miterlimit="22.9256" stroke-linecap="round" stroke-linejoin="round"/>
<path d="M1055.56 370.766H854.682V508.621H1055.56V370.766Z" fill="#2D2D2D"/>
<path d="M292.11 370.766H91.2285V508.621H292.11V370.766Z" fill="#2D2D2D"/>
<path fill-rule="evenodd" clip-rule="evenodd" d="M121.246 517.031L38.2357 517.036C35.6889 512.951 33.1421 508.87 30.5953 504.785C23.0109 499.014 15.4266 493.237 7.84732 487.466C5.99325 486.055 5 484.048 5 481.72C5 467.875 5 454.025 5 440.18C5 436.202 8.24462 432.962 12.2176 432.962H111.802C107.376 443.481 105.043 454.876 105.043 466.566C105.038 484.848 110.753 502.411 121.246 517.031Z" fill="#505050" stroke="black" stroke-width="10" stroke-miterlimit="22.9256" stroke-linecap="round" stroke-linejoin="round"/>
<path fill-rule="evenodd" clip-rule="evenodd" d="M111.797 432.972L15.6807 432.961C19.2003 411.664 22.7251 390.367 26.2448 369.069C27.1056 363.863 29.469 359.651 33.4675 356.202C75.0363 320.341 116.605 284.486 158.179 248.625L299.898 95.0454C591.567 95.0454 883.236 95.0454 1174.91 95.0454C1178.89 95.0454 1182.15 98.3055 1182.15 102.289C1182.15 212.515 1182.15 322.741 1182.15 432.966H1034.99C1030.69 422.738 1024.42 413.345 1016.38 405.312C1000.09 389.017 978.176 379.939 955.127 379.939C932.079 379.939 910.166 389.017 893.866 405.312C877.572 421.607 868.495 443.521 868.495 466.576C868.495 484.858 874.21 502.426 884.703 517.046H262.093C272.586 502.431 278.301 484.863 278.301 466.576C278.301 443.526 269.224 421.612 252.93 405.312C236.636 389.017 214.723 379.939 191.669 379.939C168.621 379.939 146.708 389.017 130.409 405.312C122.376 413.34 116.101 422.738 111.797 432.972Z" fill="white" stroke="black" stroke-width="10" stroke-miterlimit="22.9256" stroke-linecap="round" stroke-linejoin="round"/>
<path fill-rule="evenodd" clip-rule="evenodd" d="M183.72 248.625H470.137V115.258C470.137 114.759 470.071 114.275 469.954 113.816H308.12L183.72 248.625Z" fill="#C8C8C8" stroke="black" stroke-width="10" stroke-miterlimit="22.9256" stroke-linecap="round" stroke-linejoin="round"/>
<path fill-rule="evenodd" clip-rule="evenodd" d="M1182.15 432.962H1034.99C1039.42 443.481 1041.75 454.876 1041.75 466.566C1041.75 484.644 1036.16 502.024 1025.89 516.542L1155.63 509.803C1158.09 509.675 1160.15 508.437 1161.43 506.324C1170.74 490.915 1202.91 432.962 1182.15 432.962Z" fill="#505050" stroke="black" stroke-width="10" stroke-miterlimit="22.9256" stroke-linecap="round" stroke-linejoin="round"/>
<path fill-rule="evenodd" clip-rule="evenodd" d="M15.6807 432.961C18.3803 416.631 21.0799 400.3 23.7846 383.969C28.0021 383.969 32.2196 383.969 36.437 383.969C38.612 383.969 40.4253 385.543 40.7258 387.697C42.8448 402.785 44.9586 417.873 47.0776 432.961C36.6102 432.961 26.1429 432.961 15.6807 432.961Z" fill="#C8C8C8" stroke="black" stroke-width="10" stroke-miterlimit="22.9256" stroke-linecap="round" stroke-linejoin="round"/>
<path fill-rule="evenodd" clip-rule="evenodd" d="M470.137 248.625H183.72V348.098C183.72 351.256 186.272 353.838 189.43 353.874C200.091 353.996 209.926 354.654 221.667 357.888C269.353 371.02 304.382 414.705 304.382 466.571C304.382 468.206 304.382 469.836 304.382 471.471C304.382 474.655 306.974 477.247 310.158 477.247H464.366C467.55 477.247 470.142 474.655 470.142 471.471C470.137 397.182 470.137 322.904 470.137 248.625Z" fill="white" stroke="black" stroke-width="10" stroke-miterlimit="22.9256" stroke-linecap="round" stroke-linejoin="round"/>
<path fill-rule="evenodd" clip-rule="evenodd" d="M444.689 287.45H451.112C453.603 287.45 455.635 289.483 455.635 291.974V325.099C455.635 327.585 453.603 329.622 451.112 329.622H444.689C442.203 329.622 440.166 327.59 440.166 325.099V291.974C440.166 289.483 442.203 287.45 444.689 287.45Z" fill="black"/>
<path fill-rule="evenodd" clip-rule="evenodd" d="M138.126 318.111H146.505C149.841 318.111 152.571 320.841 152.571 324.178C152.571 327.514 149.841 330.239 146.505 330.239H138.126C134.79 330.239 132.06 327.509 132.06 324.178C132.06 320.841 134.79 318.111 138.126 318.111Z" fill="#F58220"/>
<path d="M1152.58 312.151H499.705C497.708 312.151 496.094 310.536 496.094 308.539C496.094 306.542 497.708 304.928 499.705 304.928H1152.58C1154.57 304.928 1156.19 306.542 1156.19 308.539C1156.19 310.536 1154.57 312.151 1152.58 312.151Z" fill="black"/>
<path fill-rule="evenodd" clip-rule="evenodd" d="M1182.15 364.195H1163.04C1160.17 364.195 1157.82 366.543 1157.82 369.421V432.957H1182.15V364.195Z" fill="#ED1C24" stroke="black" stroke-width="10" stroke-miterlimit="22.9256" stroke-linecap="round" stroke-linejoin="round"/>
<path fill-rule="evenodd" clip-rule="evenodd" d="M219.248 248.625H183.72L219.248 210.121V248.625Z" fill="black" stroke="black" stroke-width="10" stroke-miterlimit="22.9256" stroke-linecap="round" stroke-linejoin="round"/>
<path fill-rule="evenodd" clip-rule="evenodd" d="M191.675 544.176C234.421 544.176 269.281 509.314 269.281 466.566C269.281 423.818 234.421 388.956 191.675 388.956C148.93 388.956 114.069 423.824 114.069 466.566C114.064 509.314 148.93 544.176 191.675 544.176Z" fill="black"/>
<path fill-rule="evenodd" clip-rule="evenodd" d="M191.676 516.552C219.207 516.552 241.659 494.098 241.659 466.566C241.659 439.034 219.207 416.575 191.676 416.575C164.145 416.575 141.692 439.028 141.692 466.566C141.692 494.103 164.145 516.552 191.676 516.552Z" fill="white" stroke="black" stroke-width="10" stroke-miterlimit="22.9256"/>
<path fill-rule="evenodd" clip-rule="evenodd" d="M191.675 510.312C215.768 510.312 235.419 490.66 235.419 466.566C235.419 442.472 215.768 422.82 191.675 422.82C167.583 422.82 147.932 442.472 147.932 466.566C147.932 490.66 167.583 510.312 191.675 510.312Z" stroke="black" stroke-width="10" stroke-miterlimit="22.9256" stroke-linecap="round" stroke-linejoin="round"/>
<path fill-rule="evenodd" clip-rule="evenodd" d="M191.675 491.144C205.214 491.144 216.252 480.1 216.252 466.566C216.252 453.026 205.209 441.983 191.675 441.983C178.137 441.983 167.094 453.026 167.094 466.566C167.094 480.105 178.137 491.144 191.675 491.144Z" stroke="black" stroke-width="10" stroke-miterlimit="22.9256" stroke-linecap="round" stroke-linejoin="round"/>
<path fill-rule="evenodd" clip-rule="evenodd" d="M191.676 455.262C193.698 455.262 195.344 453.612 195.344 451.595C195.344 449.578 193.698 447.927 191.676 447.927C189.654 447.927 188.009 449.578 188.009 451.595C188.009 453.617 189.654 455.262 191.676 455.262Z" fill="black"/>
<path fill-rule="evenodd" clip-rule="evenodd" d="M177.537 465.536C179.559 465.536 181.204 463.891 181.204 461.869C181.204 459.852 179.559 458.201 177.537 458.201C175.514 458.201 173.869 459.852 173.869 461.869C173.869 463.891 175.519 465.536 177.537 465.536Z" fill="black"/>
<path fill-rule="evenodd" clip-rule="evenodd" d="M182.936 482.153C184.953 482.153 186.603 480.508 186.603 478.485C186.603 476.463 184.958 474.818 182.936 474.818C180.919 474.818 179.269 476.463 179.269 478.485C179.274 480.508 180.919 482.153 182.936 482.153Z" fill="black"/>
<path fill-rule="evenodd" clip-rule="evenodd" d="M200.413 482.153C202.43 482.153 204.08 480.508 204.08 478.485C204.08 476.463 202.435 474.818 200.413 474.818C198.39 474.818 196.745 476.463 196.745 478.485C196.745 480.508 198.39 482.153 200.413 482.153Z" fill="black"/>
<path fill-rule="evenodd" clip-rule="evenodd" d="M205.811 465.536C207.833 465.536 209.478 463.891 209.478 461.869C209.478 459.852 207.833 458.201 205.811 458.201C203.789 458.201 202.144 459.852 202.144 461.869C202.144 463.891 203.789 465.536 205.811 465.536Z" fill="black"/>
<path fill-rule="evenodd" clip-rule="evenodd" d="M191.674 437.297C194.42 437.297 196.661 435.056 196.661 432.31C196.661 429.559 194.42 427.323 191.674 427.323C188.929 427.323 186.688 429.565 186.688 432.31C186.682 435.056 188.924 437.297 191.674 437.297Z" fill="black"/>
<path fill-rule="evenodd" clip-rule="evenodd" d="M171.539 443.838C174.285 443.838 176.526 441.596 176.526 438.851C176.526 436.105 174.285 433.859 171.539 433.859C168.794 433.859 166.553 436.1 166.553 438.851C166.548 441.602 168.794 443.838 171.539 443.838Z" fill="black"/>
<path d="M159.096 460.968C161.85 460.968 164.083 458.736 164.083 455.982C164.083 453.227 161.85 450.995 159.096 450.995C156.342 450.995 154.109 453.227 154.109 455.982C154.109 458.736 156.342 460.968 159.096 460.968Z" fill="black"/>
<path fill-rule="evenodd" clip-rule="evenodd" d="M159.096 482.138C161.841 482.138 164.083 479.896 164.083 477.151C164.083 474.4 161.841 472.164 159.096 472.164C156.351 472.164 154.109 474.405 154.109 477.151C154.104 479.896 156.345 482.138 159.096 482.138Z" fill="black"/>
<path fill-rule="evenodd" clip-rule="evenodd" d="M171.539 499.269C174.285 499.269 176.526 497.028 176.526 494.282C176.526 491.536 174.285 489.29 171.539 489.29C168.794 489.29 166.553 491.531 166.553 494.282C166.553 497.033 168.794 499.269 171.539 499.269Z" fill="black"/>
<path fill-rule="evenodd" clip-rule="evenodd" d="M191.674 505.809C194.42 505.809 196.661 503.568 196.661 500.822C196.661 498.072 194.42 495.835 191.674 495.835C188.929 495.835 186.688 498.077 186.688 500.822C186.682 503.568 188.924 505.809 191.674 505.809Z" fill="black"/>
<path fill-rule="evenodd" clip-rule="evenodd" d="M211.81 499.269C214.555 499.269 216.796 497.028 216.796 494.282C216.796 491.536 214.555 489.29 211.81 489.29C209.064 489.29 206.823 491.531 206.823 494.282C206.823 497.033 209.059 499.269 211.81 499.269Z" fill="black"/>
<path fill-rule="evenodd" clip-rule="evenodd" d="M224.253 482.138C226.999 482.138 229.24 479.896 229.24 477.151C229.24 474.4 226.999 472.164 224.253 472.164C221.508 472.164 219.267 474.405 219.267 477.151C219.262 479.896 221.508 482.138 224.253 482.138Z" fill="black"/>
<path d="M224.253 460.968C227.007 460.968 229.24 458.736 229.24 455.982C229.24 453.227 227.007 450.995 224.253 450.995C221.499 450.995 219.267 453.227 219.267 455.982C219.267 458.736 221.499 460.968 224.253 460.968Z" fill="black"/>
<path fill-rule="evenodd" clip-rule="evenodd" d="M211.81 443.838C214.555 443.838 216.797 441.596 216.797 438.851C216.797 436.105 214.555 433.859 211.81 433.859C209.064 433.859 206.823 436.1 206.823 438.851C206.818 441.602 209.059 443.838 211.81 443.838Z" fill="black"/>
<path d="M191.676 474.191C195.887 474.191 199.301 470.777 199.301 466.565C199.301 462.354 195.887 458.94 191.676 458.94C187.465 458.94 184.051 462.354 184.051 466.565C184.051 470.777 187.465 474.191 191.676 474.191Z" fill="black"/>
<path fill-rule="evenodd" clip-rule="evenodd" d="M955.123 544.175C997.868 544.175 1032.73 509.313 1032.73 466.566C1032.73 423.818 997.863 388.956 955.123 388.956C912.377 388.956 877.517 423.823 877.517 466.566C877.517 509.313 912.377 544.175 955.123 544.175Z" fill="black"/>
<path fill-rule="evenodd" clip-rule="evenodd" d="M955.123 516.551C982.654 516.551 1005.11 494.098 1005.11 466.565C1005.11 439.033 982.654 416.574 955.123 416.574C927.592 416.574 905.14 439.028 905.14 466.565C905.14 494.103 927.592 516.551 955.123 516.551Z" fill="white" stroke="black" stroke-width="10" stroke-miterlimit="22.9256"/>
<path fill-rule="evenodd" clip-rule="evenodd" d="M955.123 510.311C979.215 510.311 998.866 490.659 998.866 466.565C998.866 442.471 979.215 422.819 955.123 422.819C931.03 422.819 911.379 442.471 911.379 466.565C911.379 490.659 931.03 510.311 955.123 510.311Z" stroke="black" stroke-width="10" stroke-miterlimit="22.9256" stroke-linecap="round" stroke-linejoin="round"/>
<path fill-rule="evenodd" clip-rule="evenodd" d="M955.123 491.143C968.661 491.143 979.699 480.1 979.699 466.565C979.699 453.026 968.656 441.982 955.123 441.982C941.584 441.982 930.541 453.026 930.541 466.565C930.541 480.105 941.584 491.143 955.123 491.143Z" stroke="black" stroke-width="10" stroke-miterlimit="22.9256" stroke-linecap="round" stroke-linejoin="round"/>
<path fill-rule="evenodd" clip-rule="evenodd" d="M955.122 455.262C957.14 455.262 958.79 453.612 958.79 451.595C958.79 449.578 957.145 447.927 955.122 447.927C953.1 447.927 951.455 449.578 951.455 451.595C951.455 453.617 953.1 455.262 955.122 455.262Z" fill="black"/>
<path fill-rule="evenodd" clip-rule="evenodd" d="M940.988 465.536C943.005 465.536 944.655 463.891 944.655 461.869C944.655 459.852 943.01 458.201 940.988 458.201C938.966 458.201 937.32 459.852 937.32 461.869C937.32 463.891 938.966 465.536 940.988 465.536Z" fill="black"/>
<path fill-rule="evenodd" clip-rule="evenodd" d="M946.387 482.153C948.404 482.153 950.054 480.508 950.054 478.485C950.054 476.463 948.409 474.818 946.387 474.818C944.37 474.818 942.72 476.463 942.72 478.485C942.72 480.508 944.365 482.153 946.387 482.153Z" fill="black"/>
<path fill-rule="evenodd" clip-rule="evenodd" d="M963.858 482.153C965.88 482.153 967.525 480.508 967.525 478.485C967.525 476.463 965.88 474.818 963.858 474.818C961.836 474.818 960.19 476.463 960.19 478.485C960.19 480.508 961.841 482.153 963.858 482.153Z" fill="black"/>
<path fill-rule="evenodd" clip-rule="evenodd" d="M969.256 465.536C971.273 465.536 972.924 463.891 972.924 461.869C972.924 459.852 971.278 458.201 969.256 458.201C967.234 458.201 965.589 459.852 965.589 461.869C965.589 463.891 967.239 465.536 969.256 465.536Z" fill="black"/>
<path fill-rule="evenodd" clip-rule="evenodd" d="M955.122 437.297C957.873 437.297 960.109 435.055 960.109 432.31C960.109 429.559 957.868 427.323 955.122 427.323C952.377 427.323 950.136 429.564 950.136 432.31C950.136 435.055 952.377 437.297 955.122 437.297Z" fill="black"/>
<path fill-rule="evenodd" clip-rule="evenodd" d="M934.988 443.837C937.738 443.837 939.974 441.596 939.974 438.85C939.974 436.105 937.733 433.858 934.988 433.858C932.242 433.858 930.001 436.1 930.001 438.85C930.001 441.601 932.242 443.837 934.988 443.837Z" fill="black"/>
<path fill-rule="evenodd" clip-rule="evenodd" d="M922.544 460.968C925.29 460.968 927.531 458.727 927.531 455.981C927.531 453.235 925.29 450.994 922.544 450.994C919.799 450.994 917.558 453.235 917.558 455.981C917.558 458.727 919.799 460.968 922.544 460.968Z" fill="black"/>
<path fill-rule="evenodd" clip-rule="evenodd" d="M922.544 482.137C925.29 482.137 927.531 479.896 927.531 477.15C927.531 474.4 925.29 472.164 922.544 472.164C919.799 472.164 917.558 474.405 917.558 477.15C917.558 479.896 919.799 482.137 922.544 482.137Z" fill="black"/>
<path fill-rule="evenodd" clip-rule="evenodd" d="M934.988 499.268C937.738 499.268 939.974 497.027 939.974 494.282C939.974 491.536 937.733 489.29 934.988 489.29C932.242 489.29 930.001 491.531 930.001 494.282C930.001 497.032 932.242 499.268 934.988 499.268Z" fill="black"/>
<path fill-rule="evenodd" clip-rule="evenodd" d="M955.122 505.809C957.873 505.809 960.109 503.567 960.109 500.822C960.109 498.071 957.868 495.835 955.122 495.835C952.377 495.835 950.136 498.076 950.136 500.822C950.136 503.567 952.377 505.809 955.122 505.809Z" fill="black"/>
<path fill-rule="evenodd" clip-rule="evenodd" d="M975.258 499.268C978.004 499.268 980.245 497.027 980.245 494.282C980.245 491.536 978.004 489.29 975.258 489.29C972.513 489.29 970.271 491.531 970.271 494.282C970.271 497.032 972.513 499.268 975.258 499.268Z" fill="black"/>
<path fill-rule="evenodd" clip-rule="evenodd" d="M987.701 482.137C990.452 482.137 992.688 479.896 992.688 477.15C992.688 474.4 990.447 472.164 987.701 472.164C984.956 472.164 982.715 474.405 982.715 477.15C982.715 479.896 984.956 482.137 987.701 482.137Z" fill="black"/>
<path fill-rule="evenodd" clip-rule="evenodd" d="M987.701 460.968C990.452 460.968 992.688 458.727 992.688 455.981C992.688 453.235 990.447 450.994 987.701 450.994C984.956 450.994 982.715 453.235 982.715 455.981C982.715 458.727 984.956 460.968 987.701 460.968Z" fill="black"/>
<path fill-rule="evenodd" clip-rule="evenodd" d="M975.258 443.837C978.004 443.837 980.245 441.596 980.245 438.85C980.245 436.105 978.004 433.858 975.258 433.858C972.513 433.858 970.271 436.1 970.271 438.85C970.271 441.601 972.513 443.837 975.258 443.837Z" fill="black"/>
<path fill-rule="evenodd" clip-rule="evenodd" d="M955.123 474.191C959.32 474.191 962.748 470.768 962.748 466.565C962.748 462.368 959.325 458.94 955.123 458.94C950.926 458.94 947.498 462.363 947.498 466.565C947.498 470.763 950.926 474.191 955.123 474.191Z" fill="black"/>
<path d="M470.131 113.812H308.114V248.62H470.131V113.812Z" fill="#C8C8C8" stroke="black" stroke-width="10" stroke-miterlimit="22.9256" stroke-linecap="round" stroke-linejoin="round"/>
<path fill-rule="evenodd" clip-rule="evenodd" d="M210.277 206.973C216.216 206.453 218.131 211.486 218.564 216.457L221.493 249.944C221.931 254.921 220.912 260.208 214.978 260.728C199.428 262.088 194.726 208.333 210.277 206.973Z" fill="#505050" stroke="black" stroke-width="10" stroke-miterlimit="22.9256" stroke-linecap="round" stroke-linejoin="round"/>
</svg>
