<svg width="2300" height="571" viewBox="0 0 2300 571" fill="none" xmlns="http://www.w3.org/2000/svg">
<path fill-rule="evenodd" clip-rule="evenodd" d="M1642.95 480C1626.7 472.836 1615.56 463.098 1608.98 451.076C1569.78 448.419 1248 434.924 1248 434.924C1248 427.54 1248 417.384 1248 410H1701C1687.84 412.067 1675.74 416.184 1665.91 422.047C1651.3 430.766 1643.16 442.488 1643.16 454.821C1643.16 463.855 1647.53 472.562 1655.6 479.998H1642.95V480Z" fill="#505050" stroke="black" stroke-width="10" stroke-miterlimit="22.9256" stroke-linecap="round" stroke-linejoin="round"/>
<path d="M2017 409H1689V507H2017V409Z" fill="#2D2D2D"/>
<path fill-rule="evenodd" clip-rule="evenodd" d="M1685.17 549.349C1723.27 549.349 1754.34 518.275 1754.34 480.174C1754.34 442.074 1723.27 411 1685.17 411C1647.07 411 1616 442.077 1616 480.174C1616 518.272 1647.07 549.349 1685.17 549.349Z" fill="black"/>
<path d="M1731.39 483.465C1733.21 457.946 1713.99 435.789 1688.47 433.976C1662.96 432.162 1640.8 451.378 1638.99 476.896C1637.17 502.414 1656.39 524.571 1681.91 526.385C1707.42 528.199 1729.58 508.983 1731.39 483.465Z" fill="white"/>
<path fill-rule="evenodd" clip-rule="evenodd" d="M1685.17 495.683C1693.71 495.683 1700.68 488.716 1700.68 480.174C1700.68 471.633 1693.71 464.666 1685.17 464.666C1676.63 464.666 1669.66 471.633 1669.66 480.174C1669.66 488.716 1676.63 495.683 1685.17 495.683Z" fill="black"/>
<path fill-rule="evenodd" clip-rule="evenodd" d="M1685.17 487.66C1689.29 487.66 1692.66 484.296 1692.66 480.171C1692.66 476.046 1689.29 472.685 1685.17 472.685C1681.04 472.685 1677.68 476.049 1677.68 480.171C1677.68 484.293 1681.05 487.66 1685.17 487.66Z" fill="white" stroke="black" stroke-width="10" stroke-miterlimit="22.9256" stroke-linecap="round" stroke-linejoin="round"/>
<path d="M1694.99 521.287C1717.68 515.862 1731.67 493.072 1726.25 470.385C1720.82 447.698 1698.03 433.705 1675.35 439.13C1652.66 444.556 1638.67 467.346 1644.09 490.033C1649.52 512.72 1672.31 526.713 1694.99 521.287Z" stroke="black" stroke-width="10" stroke-miterlimit="22.9256" stroke-linecap="round" stroke-linejoin="round"/>
<path d="M1685.17 450.136C1689.12 450.136 1692.32 448.346 1692.32 446.138C1692.32 443.93 1689.12 442.141 1685.17 442.141C1681.21 442.141 1678.01 443.93 1678.01 446.138C1678.01 448.346 1681.21 450.136 1685.17 450.136Z" fill="black"/>
<path fill-rule="evenodd" clip-rule="evenodd" d="M1659.15 465.155C1657.18 468.58 1654.02 470.46 1652.11 469.354C1650.2 468.251 1650.25 464.579 1652.23 461.157C1654.21 457.733 1657.36 455.853 1659.28 456.955C1661.18 458.061 1661.13 461.731 1659.15 465.155Z" fill="black"/>
<path fill-rule="evenodd" clip-rule="evenodd" d="M1659.15 495.193C1661.13 498.618 1661.18 502.287 1659.27 503.393C1657.36 504.496 1654.21 502.616 1652.23 499.195C1650.25 495.77 1650.2 492.101 1652.11 490.995C1654.02 489.889 1657.18 491.769 1659.15 495.193Z" fill="black"/>
<path fill-rule="evenodd" clip-rule="evenodd" d="M1685.17 510.212C1689.12 510.212 1692.32 512.002 1692.32 514.21C1692.32 516.418 1689.12 518.208 1685.17 518.208C1681.21 518.208 1678.01 516.418 1678.01 514.21C1678.01 512.002 1681.21 510.212 1685.17 510.212Z" fill="black"/>
<path fill-rule="evenodd" clip-rule="evenodd" d="M1711.18 495.193C1713.16 491.769 1716.31 489.889 1718.22 490.995C1720.13 492.097 1720.08 495.77 1718.1 499.195C1716.13 502.619 1712.97 504.499 1711.06 503.393C1709.15 502.287 1709.2 498.615 1711.18 495.193Z" fill="black"/>
<path fill-rule="evenodd" clip-rule="evenodd" d="M1711.18 465.155C1709.2 461.731 1709.15 458.061 1711.06 456.955C1712.98 455.853 1716.13 457.733 1718.11 461.157C1720.08 464.582 1720.13 468.251 1718.22 469.354C1716.31 470.46 1713.16 468.577 1711.18 465.155Z" fill="black"/>
<path fill-rule="evenodd" clip-rule="evenodd" d="M1674.61 464.756C1676.19 464.756 1677.48 463.466 1677.48 461.881C1677.48 460.296 1676.19 459.006 1674.61 459.006C1673.02 459.006 1671.73 460.296 1671.73 461.881C1671.73 463.466 1673.02 464.756 1674.61 464.756Z" fill="black"/>
<path fill-rule="evenodd" clip-rule="evenodd" d="M1664.05 483.053C1665.63 483.053 1666.93 481.763 1666.93 480.178C1666.93 478.593 1665.63 477.302 1664.05 477.302C1662.47 477.302 1661.18 478.593 1661.18 480.178C1661.17 481.759 1662.47 483.053 1664.05 483.053Z" fill="black"/>
<path fill-rule="evenodd" clip-rule="evenodd" d="M1674.61 501.339C1676.19 501.339 1677.48 500.049 1677.48 498.464C1677.48 496.879 1676.19 495.589 1674.61 495.589C1673.02 495.589 1671.73 496.879 1671.73 498.464C1671.73 500.049 1673.02 501.339 1674.61 501.339Z" fill="black"/>
<path d="M1695.73 501.339C1697.32 501.339 1698.6 500.052 1698.6 498.464C1698.6 496.876 1697.32 495.589 1695.73 495.589C1694.14 495.589 1692.85 496.876 1692.85 498.464C1692.85 500.052 1694.14 501.339 1695.73 501.339Z" fill="black"/>
<path fill-rule="evenodd" clip-rule="evenodd" d="M1706.29 483.046C1707.88 483.046 1709.17 481.756 1709.17 480.171C1709.17 478.586 1707.88 477.296 1706.29 477.296C1704.71 477.296 1703.42 478.586 1703.42 480.171C1703.41 481.756 1704.71 483.046 1706.29 483.046Z" fill="black"/>
<path fill-rule="evenodd" clip-rule="evenodd" d="M1695.73 464.76C1697.31 464.76 1698.6 463.466 1698.6 461.885C1698.6 460.303 1697.31 459.01 1695.73 459.01C1694.14 459.01 1692.85 460.3 1692.85 461.885C1692.85 463.47 1694.14 464.76 1695.73 464.76Z" fill="black"/>
<path d="M2024.38 548.625C2062.09 542.524 2087.72 507.004 2081.62 469.289C2075.52 431.574 2040 405.946 2002.29 412.047C1964.57 418.148 1938.95 453.668 1945.05 491.383C1951.15 529.098 1986.67 554.726 2024.38 548.625Z" fill="black"/>
<path fill-rule="evenodd" clip-rule="evenodd" d="M2013.27 520.756C2035.53 520.756 2053.69 502.597 2053.69 480.33C2053.69 458.062 2035.54 439.903 2013.27 439.903C1991.01 439.903 1972.84 458.062 1972.84 480.33C1972.84 502.597 1991.01 520.756 2013.27 520.756Z" fill="white"/>
<path fill-rule="evenodd" clip-rule="evenodd" d="M2013.27 517.247C2033.6 517.247 2050.18 500.663 2050.18 480.333C2050.18 460.003 2033.6 443.418 2013.27 443.418C1992.94 443.418 1976.36 460.003 1976.36 480.333C1976.36 500.663 1992.94 517.247 2013.27 517.247Z" stroke="black" stroke-width="10" stroke-miterlimit="22.9256" stroke-linecap="round" stroke-linejoin="round"/>
<path fill-rule="evenodd" clip-rule="evenodd" d="M2013.27 491.083C2019.19 491.083 2024.02 486.254 2024.02 480.33C2024.02 474.405 2019.19 469.58 2013.27 469.58C2007.35 469.58 2002.52 474.408 2002.52 480.33C2002.52 486.251 2007.35 491.083 2013.27 491.083Z" fill="black"/>
<path fill-rule="evenodd" clip-rule="evenodd" d="M2013.27 454.879C2016.61 454.879 2019.33 453.357 2019.33 451.491C2019.33 449.624 2016.61 448.103 2013.27 448.103C2009.93 448.103 2007.2 449.624 2007.2 451.491C2007.2 453.357 2009.93 454.879 2013.27 454.879Z" fill="black"/>
<path fill-rule="evenodd" clip-rule="evenodd" d="M1991.23 467.606C1989.55 470.508 1986.88 472.099 1985.26 471.164C1983.64 470.229 1983.69 467.12 1985.36 464.218C1987.03 461.316 1989.7 459.724 1991.33 460.659C1992.95 461.594 1992.9 464.704 1991.23 467.606Z" fill="black"/>
<path fill-rule="evenodd" clip-rule="evenodd" d="M1991.23 493.06C1992.9 495.962 1992.95 499.072 1991.32 500.007C1989.71 500.941 1987.03 499.35 1985.36 496.448C1983.68 493.546 1983.64 490.436 1985.26 489.501C1986.88 488.563 1989.55 490.158 1991.23 493.06Z" fill="black"/>
<path fill-rule="evenodd" clip-rule="evenodd" d="M2013.27 505.783C2016.62 505.783 2019.33 507.301 2019.33 509.171C2019.33 511.041 2016.62 512.559 2013.27 512.559C2009.92 512.559 2007.2 511.041 2007.2 509.171C2007.2 507.301 2009.92 505.783 2013.27 505.783Z" fill="black"/>
<path fill-rule="evenodd" clip-rule="evenodd" d="M2035.31 493.06C2036.99 490.158 2039.66 488.566 2041.28 489.501C2042.89 490.436 2042.85 493.546 2041.18 496.448C2039.5 499.35 2036.83 500.941 2035.21 500.006C2033.59 499.068 2033.64 495.959 2035.31 493.06Z" fill="black"/>
<path fill-rule="evenodd" clip-rule="evenodd" d="M2035.31 467.606C2033.64 464.704 2033.59 461.594 2035.21 460.659C2036.83 459.724 2039.51 461.316 2041.18 464.218C2042.85 467.12 2042.9 470.229 2041.28 471.164C2039.65 472.099 2036.98 470.508 2035.31 467.606Z" fill="black"/>
<path fill-rule="evenodd" clip-rule="evenodd" d="M2005.32 469.328C2006.84 469.328 2008.08 468.092 2008.08 466.574C2008.08 465.056 2006.84 463.819 2005.32 463.819C2003.81 463.819 2002.57 465.056 2002.57 466.574C2002.57 468.092 2003.81 469.328 2005.32 469.328Z" fill="black"/>
<path fill-rule="evenodd" clip-rule="evenodd" d="M1997.38 483.087C1998.9 483.087 2000.14 481.851 2000.14 480.333C2000.14 478.815 1998.9 477.578 1997.38 477.578C1995.87 477.578 1994.63 478.815 1994.63 480.333C1994.63 481.851 1995.87 483.087 1997.38 483.087Z" fill="black"/>
<path fill-rule="evenodd" clip-rule="evenodd" d="M2005.32 496.843C2006.84 496.843 2008.08 495.607 2008.08 494.089C2008.08 492.571 2006.84 491.334 2005.32 491.334C2003.81 491.334 2002.57 492.571 2002.57 494.089C2002.57 495.607 2003.81 496.843 2005.32 496.843Z" fill="black"/>
<path fill-rule="evenodd" clip-rule="evenodd" d="M2021.21 496.843C2022.73 496.843 2023.96 495.607 2023.96 494.089C2023.96 492.571 2022.73 491.334 2021.21 491.334C2019.69 491.334 2018.46 492.571 2018.46 494.089C2018.46 495.607 2019.7 496.843 2021.21 496.843Z" fill="black"/>
<path fill-rule="evenodd" clip-rule="evenodd" d="M2029.16 483.084C2030.67 483.084 2031.91 481.848 2031.91 480.33C2031.91 478.812 2030.67 477.575 2029.16 477.575C2027.64 477.575 2026.4 478.812 2026.4 480.33C2026.4 481.848 2027.64 483.084 2029.16 483.084Z" fill="black"/>
<path fill-rule="evenodd" clip-rule="evenodd" d="M2021.21 469.328C2022.73 469.328 2023.96 468.092 2023.96 466.574C2023.96 465.056 2022.73 463.819 2021.21 463.819C2019.69 463.819 2018.46 465.056 2018.46 466.574C2018.46 468.092 2019.7 469.328 2021.21 469.328Z" fill="black"/>
<path d="M325.012 403.63H170.952V513.348H325.012V403.63Z" fill="#2D2D2D"/>
<path d="M1104.44 403.63H795.295V513.348H1104.44V403.63Z" fill="#2D2D2D"/>
<path fill-rule="evenodd" clip-rule="evenodd" d="M1250.95 478.909H1243.24V453.398H1234.25V478.909V504.417H1250.95V478.909Z" fill="black"/>
<path fill-rule="evenodd" clip-rule="evenodd" d="M2236.7 475.511H2229V450H2220V475.511V501.019H2236.7V475.511Z" fill="black"/>
<path fill-rule="evenodd" clip-rule="evenodd" d="M855.807 407.577H267.057C279.709 410.908 291.343 417.543 300.793 426.989C314.843 441.04 322.667 459.93 322.667 479.804C322.667 494.361 318.468 508.392 310.701 520.375H812.16C804.393 508.388 800.194 494.361 800.194 479.804C800.194 459.93 808.021 441.04 822.068 426.989C831.517 417.543 843.155 410.911 855.807 407.577Z" fill="#505050" stroke="black" stroke-width="10" stroke-miterlimit="22.9256" stroke-linecap="round" stroke-linejoin="round"/>
<path fill-rule="evenodd" clip-rule="evenodd" d="M1099.74 520.378C1115.37 508.834 1126.08 493.141 1132.41 473.769C1170.09 469.487 1207.78 465.204 1245.46 460.921C1245.46 449.022 1245.46 419.476 1245.46 407.577H1043.94C1056.59 410.908 1068.23 417.543 1077.67 426.989C1091.72 441.04 1099.55 459.93 1099.55 479.804C1099.55 494.361 1095.35 508.392 1087.58 520.375H1099.74V520.378Z" fill="#505050" stroke="black" stroke-width="10" stroke-miterlimit="22.9256" stroke-linecap="round" stroke-linejoin="round"/>
<path fill-rule="evenodd" clip-rule="evenodd" d="M2081.81 521.801C2097.44 510.257 2108.14 494.564 2114.47 475.192C2152.16 470.909 2189.84 466.627 2227.52 462.344C2227.52 450.445 2227.52 420.899 2227.52 409H2026C2038.65 412.331 2050.29 418.966 2059.74 428.412C2073.79 442.463 2081.61 461.352 2081.61 481.227C2081.61 495.784 2077.41 509.814 2069.64 521.797H2081.81V521.801Z" fill="#505050" stroke="black" stroke-width="10" stroke-miterlimit="22.9256" stroke-linecap="round" stroke-linejoin="round"/>
<path d="M1343.12 5H318.1V407.577H1343.12V5Z" fill="white" stroke="black" stroke-width="10" stroke-miterlimit="22.9256" stroke-linecap="round" stroke-linejoin="round"/>
<path fill-rule="evenodd" clip-rule="evenodd" d="M185.263 520.378H29.5947C29.5947 458.653 29.5947 396.928 29.5947 335.203C55.4194 275.542 81.2407 215.881 107.062 156.22C108.185 153.626 110.6 152.038 113.429 152.038H318.099C318.049 247.628 318.15 311.99 318.099 407.58L298.571 424.858C284.782 412.155 266.825 405.117 247.984 405.117C228.113 405.117 209.222 412.942 195.175 426.993C181.125 441.043 173.298 459.933 173.298 479.808C173.294 494.364 177.496 508.391 185.263 520.378Z" fill="white" stroke="black" stroke-width="10" stroke-miterlimit="22.9256" stroke-linecap="round" stroke-linejoin="round"/>
<path fill-rule="evenodd" clip-rule="evenodd" d="M134.09 152.038C179.731 95.1214 241.373 65.9444 318.14 62.9788L318.1 152.038H134.09Z" fill="white" stroke="black" stroke-width="10" stroke-miterlimit="22.9256" stroke-linecap="round" stroke-linejoin="round"/>
<path fill-rule="evenodd" clip-rule="evenodd" d="M52.1658 460H29.5947V405.858H42.4551C47.803 405.858 52.1658 410.221 52.1658 415.569V460Z" fill="#C8C8C8" stroke="black" stroke-width="10" stroke-miterlimit="22.9256" stroke-linecap="round" stroke-linejoin="round"/>
<path fill-rule="evenodd" clip-rule="evenodd" d="M12.8911 460H52.166V520.378H12.8911C8.55179 520.378 5 516.826 5 512.486V467.895C5 463.552 8.55179 460 12.8911 460Z" fill="#505050" stroke="black" stroke-width="10" stroke-miterlimit="22.9256" stroke-linecap="round" stroke-linejoin="round"/>
<path fill-rule="evenodd" clip-rule="evenodd" d="M95.7966 182.247L103.45 182.223C104.897 182.217 106.141 182.887 106.938 184.093C107.736 185.303 107.856 186.71 107.283 188.037L47.736 325.609C46.8112 327.75 45.2363 329.255 43.0549 330.082L29.5947 335.199L95.7966 182.247Z" fill="#C8C8C8" stroke="black" stroke-width="10" stroke-miterlimit="22.9256" stroke-linecap="round" stroke-linejoin="round"/>
<path fill-rule="evenodd" clip-rule="evenodd" d="M62.6602 329.543L126.456 182.153H273.205V286.201L62.6602 329.543Z" fill="#C8C8C8" stroke="black" stroke-width="10" stroke-miterlimit="22.9256" stroke-linecap="round" stroke-linejoin="round"/>
<path fill-rule="evenodd" clip-rule="evenodd" d="M273.205 286.201L62.6602 329.543V460H150.217C159.401 414.403 199.682 380.066 247.983 380.066H273.205V286.201Z" fill="white" stroke="black" stroke-width="10" stroke-miterlimit="22.9256" stroke-linecap="round" stroke-linejoin="round"/>
<path fill-rule="evenodd" clip-rule="evenodd" d="M210.223 349.826H238.008C239.895 349.826 241.436 351.368 241.436 353.258V361.963C241.436 363.85 239.891 365.395 238.008 365.395H210.223C208.337 365.395 206.792 363.853 206.792 361.963V353.258C206.795 351.371 208.337 349.826 210.223 349.826Z" fill="black"/>
<path d="M158.604 408.234H80.4363C79.1228 408.234 78.0605 407.172 78.0605 405.858C78.0605 404.544 79.1228 403.482 80.4363 403.482H158.604C159.918 403.482 160.98 404.544 160.98 405.858C160.98 407.172 159.918 408.234 158.604 408.234Z" fill="black"/>
<path fill-rule="evenodd" clip-rule="evenodd" d="M296.621 405.875C299.771 405.875 302.344 404.025 302.344 401.76C302.344 399.495 299.774 397.645 296.621 397.645C293.468 397.645 290.901 399.495 290.901 401.76C290.901 404.025 293.471 405.875 296.621 405.875Z" fill="#F58220"/>
<path d="M143.995 502.403H68.8836C67.5701 502.403 66.5078 501.341 66.5078 500.027V494.424C66.5078 493.111 67.5701 492.049 68.8836 492.049C70.1971 492.049 71.2593 493.111 71.2593 494.424V497.651H141.62V494.424C141.62 493.111 142.682 492.049 143.995 492.049C145.309 492.049 146.371 493.111 146.371 494.424V500.027C146.371 501.338 145.305 502.403 143.995 502.403Z" fill="black"/>
<path fill-rule="evenodd" clip-rule="evenodd" d="M247.984 548.982C286.083 548.982 317.155 517.908 317.155 479.808C317.155 441.707 286.08 410.633 247.984 410.633C209.886 410.633 178.813 441.71 178.813 479.808C178.813 517.905 209.886 548.982 247.984 548.982Z" fill="black"/>
<path fill-rule="evenodd" clip-rule="evenodd" d="M247.984 526.125C273.494 526.125 294.303 505.319 294.303 479.804C294.303 454.293 273.494 433.484 247.984 433.484C222.475 433.484 201.666 454.293 201.666 479.804C201.666 505.319 222.471 526.125 247.984 526.125Z" fill="white"/>
<path fill-rule="evenodd" clip-rule="evenodd" d="M247.984 495.316C256.525 495.316 263.492 488.349 263.492 479.808C263.492 471.266 256.525 464.299 247.984 464.299C239.443 464.299 232.477 471.266 232.477 479.808C232.477 488.349 239.44 495.316 247.984 495.316Z" fill="black"/>
<path fill-rule="evenodd" clip-rule="evenodd" d="M247.984 487.294C252.109 487.294 255.473 483.929 255.473 479.804C255.473 475.679 252.109 472.318 247.984 472.318C243.859 472.318 240.498 475.683 240.498 479.804C240.498 483.926 243.859 487.294 247.984 487.294Z" fill="white" stroke="black" stroke-width="10" stroke-miterlimit="22.9256" stroke-linecap="round" stroke-linejoin="round"/>
<path d="M247.985 522.043C271.31 522.043 290.218 503.134 290.218 479.808C290.218 456.481 271.31 437.572 247.985 437.572C224.66 437.572 205.751 456.481 205.751 479.808C205.751 503.134 224.66 522.043 247.985 522.043Z" stroke="black" stroke-width="10" stroke-miterlimit="22.9256" stroke-linecap="round" stroke-linejoin="round"/>
<path fill-rule="evenodd" clip-rule="evenodd" d="M247.984 449.769C251.925 449.769 255.142 447.973 255.142 445.772C255.142 443.57 251.925 441.774 247.984 441.774C244.044 441.774 240.827 443.57 240.827 445.772C240.827 447.973 244.041 449.769 247.984 449.769Z" fill="black"/>
<path fill-rule="evenodd" clip-rule="evenodd" d="M221.969 464.789C219.992 468.213 216.839 470.093 214.929 468.987C213.019 467.885 213.069 464.212 215.046 460.791C217.023 457.366 220.176 455.486 222.086 456.589C224 457.694 223.946 461.364 221.969 464.789Z" fill="black"/>
<path fill-rule="evenodd" clip-rule="evenodd" d="M221.969 494.827C223.946 498.251 223.996 501.921 222.086 503.027C220.176 504.129 217.023 502.249 215.046 498.828C213.069 495.403 213.019 491.734 214.929 490.628C216.842 489.522 219.992 491.402 221.969 494.827Z" fill="black"/>
<path fill-rule="evenodd" clip-rule="evenodd" d="M247.982 509.846C251.935 509.846 255.139 511.635 255.139 513.843C255.139 516.052 251.935 517.841 247.982 517.841C244.028 517.841 240.824 516.052 240.824 513.843C240.824 511.635 244.031 509.846 247.982 509.846Z" fill="black"/>
<path fill-rule="evenodd" clip-rule="evenodd" d="M273.994 494.827C275.971 491.402 279.124 489.522 281.037 490.628C282.947 491.731 282.897 495.403 280.92 498.828C278.943 502.253 275.79 504.132 273.88 503.027C271.967 501.921 272.017 498.248 273.994 494.827Z" fill="black"/>
<path fill-rule="evenodd" clip-rule="evenodd" d="M273.993 464.789C272.016 461.364 271.966 457.694 273.876 456.589C275.786 455.486 278.939 457.366 280.916 460.791C282.893 464.215 282.943 467.885 281.034 468.987C279.124 470.093 275.97 468.21 273.993 464.789Z" fill="black"/>
<path fill-rule="evenodd" clip-rule="evenodd" d="M237.423 464.39C239.008 464.39 240.298 463.1 240.298 461.515C240.298 459.93 239.008 458.639 237.423 458.639C235.838 458.639 234.548 459.93 234.548 461.515C234.548 463.1 235.838 464.39 237.423 464.39Z" fill="black"/>
<path d="M226.86 482.683C228.448 482.683 229.735 481.396 229.735 479.808C229.735 478.22 228.448 476.933 226.86 476.933C225.273 476.933 223.985 478.22 223.985 479.808C223.985 481.396 225.273 482.683 226.86 482.683Z" fill="black"/>
<path fill-rule="evenodd" clip-rule="evenodd" d="M237.423 500.972C239.008 500.972 240.298 499.682 240.298 498.097C240.298 496.512 239.008 495.222 237.423 495.222C235.838 495.222 234.548 496.512 234.548 498.097C234.548 499.682 235.838 500.972 237.423 500.972Z" fill="black"/>
<path d="M258.543 500.972C260.131 500.972 261.418 499.685 261.418 498.097C261.418 496.509 260.131 495.222 258.543 495.222C256.955 495.222 255.668 496.509 255.668 498.097C255.668 499.685 256.955 500.972 258.543 500.972Z" fill="black"/>
<path fill-rule="evenodd" clip-rule="evenodd" d="M269.102 482.679C270.686 482.679 271.977 481.389 271.977 479.804C271.977 478.219 270.686 476.929 269.102 476.929C267.517 476.929 266.227 478.219 266.227 479.804C266.227 481.389 267.52 482.679 269.102 482.679Z" fill="black"/>
<path fill-rule="evenodd" clip-rule="evenodd" d="M258.543 464.393C260.128 464.393 261.418 463.1 261.418 461.518C261.418 459.936 260.128 458.643 258.543 458.643C256.958 458.643 255.668 459.933 255.668 461.518C255.668 463.103 256.958 464.393 258.543 464.393Z" fill="black"/>
<path d="M874.88 548.982C913.082 548.982 944.051 518.012 944.051 479.808C944.051 441.604 913.082 410.633 874.88 410.633C836.678 410.633 805.709 441.604 805.709 479.808C805.709 518.012 836.678 548.982 874.88 548.982Z" fill="black"/>
<path d="M874.88 520.234C897.206 520.234 915.304 502.134 915.304 479.808C915.304 457.481 897.206 439.381 874.88 439.381C852.554 439.381 834.456 457.481 834.456 479.808C834.456 502.134 852.554 520.234 874.88 520.234Z" fill="white"/>
<path fill-rule="evenodd" clip-rule="evenodd" d="M874.88 516.722C895.21 516.722 911.793 500.141 911.793 479.808C911.793 459.474 895.21 442.893 874.88 442.893C854.551 442.893 837.968 459.477 837.968 479.808C837.968 500.138 854.551 516.722 874.88 516.722Z" stroke="black" stroke-width="10" stroke-miterlimit="22.9256" stroke-linecap="round" stroke-linejoin="round"/>
<path fill-rule="evenodd" clip-rule="evenodd" d="M874.88 490.557C880.801 490.557 885.633 485.729 885.633 479.804C885.633 473.88 880.804 469.054 874.88 469.054C868.959 469.054 864.131 473.883 864.131 479.804C864.131 485.725 868.959 490.557 874.88 490.557Z" fill="black"/>
<path fill-rule="evenodd" clip-rule="evenodd" d="M874.879 454.354C878.22 454.354 880.944 452.832 880.944 450.966C880.944 449.099 878.22 447.578 874.879 447.578C871.539 447.578 868.814 449.099 868.814 450.966C868.814 452.832 871.539 454.354 874.879 454.354Z" fill="black"/>
<path fill-rule="evenodd" clip-rule="evenodd" d="M852.838 467.081C851.163 469.982 848.492 471.574 846.87 470.639C845.252 469.704 845.296 466.595 846.968 463.693C848.643 460.791 851.314 459.199 852.935 460.134C854.557 461.069 854.514 464.179 852.838 467.081Z" fill="black"/>
<path fill-rule="evenodd" clip-rule="evenodd" d="M852.838 492.535C854.513 495.437 854.557 498.546 852.935 499.481C851.313 500.416 848.643 498.821 846.967 495.923C845.292 493.021 845.248 489.911 846.87 488.976C848.492 488.038 851.162 489.633 852.838 492.535Z" fill="black"/>
<path fill-rule="evenodd" clip-rule="evenodd" d="M874.879 505.258C878.23 505.258 880.944 506.776 880.944 508.646C880.944 510.516 878.23 512.034 874.879 512.034C871.529 512.034 868.814 510.516 868.814 508.646C868.814 506.776 871.529 505.258 874.879 505.258Z" fill="black"/>
<path fill-rule="evenodd" clip-rule="evenodd" d="M896.921 492.535C898.597 489.633 901.267 488.041 902.889 488.976C904.508 489.911 904.464 493.021 902.792 495.923C901.117 498.825 898.446 500.416 896.824 499.481C895.202 498.543 895.246 495.433 896.921 492.535Z" fill="black"/>
<path fill-rule="evenodd" clip-rule="evenodd" d="M896.921 467.081C895.246 464.179 895.202 461.069 896.824 460.134C898.443 459.199 901.117 460.791 902.792 463.693C904.467 466.595 904.511 469.704 902.889 470.639C901.267 471.574 898.597 469.982 896.921 467.081Z" fill="black"/>
<path fill-rule="evenodd" clip-rule="evenodd" d="M866.939 468.803C868.457 468.803 869.693 467.566 869.693 466.048C869.693 464.53 868.457 463.294 866.939 463.294C865.421 463.294 864.185 464.53 864.185 466.048C864.185 467.566 865.421 468.803 866.939 468.803Z" fill="black"/>
<path fill-rule="evenodd" clip-rule="evenodd" d="M858.994 482.562C860.512 482.562 861.748 481.326 861.748 479.808C861.748 478.29 860.512 477.053 858.994 477.053C857.476 477.053 856.239 478.29 856.239 479.808C856.239 481.326 857.479 482.562 858.994 482.562Z" fill="black"/>
<path fill-rule="evenodd" clip-rule="evenodd" d="M866.939 496.318C868.457 496.318 869.693 495.081 869.693 493.563C869.693 492.045 868.457 490.809 866.939 490.809C865.421 490.809 864.185 492.045 864.185 493.563C864.185 495.081 865.421 496.318 866.939 496.318Z" fill="black"/>
<path fill-rule="evenodd" clip-rule="evenodd" d="M882.822 496.318C884.34 496.318 885.576 495.081 885.576 493.563C885.576 492.045 884.34 490.809 882.822 490.809C881.304 490.809 880.067 492.045 880.067 493.563C880.067 495.081 881.307 496.318 882.822 496.318Z" fill="black"/>
<path fill-rule="evenodd" clip-rule="evenodd" d="M890.766 482.559C892.284 482.559 893.521 481.322 893.521 479.804C893.521 478.286 892.284 477.05 890.766 477.05C889.248 477.05 888.012 478.286 888.012 479.804C888.012 481.322 889.248 482.559 890.766 482.559Z" fill="black"/>
<path fill-rule="evenodd" clip-rule="evenodd" d="M882.822 468.803C884.34 468.803 885.576 467.566 885.576 466.048C885.576 464.53 884.34 463.294 882.822 463.294C881.304 463.294 880.067 464.53 880.067 466.048C880.067 467.566 881.307 468.803 882.822 468.803Z" fill="black"/>
<path d="M1088.91 506.055C1103.44 470.72 1086.57 430.297 1051.24 415.768C1015.91 401.239 975.485 418.106 960.957 453.441C946.429 488.775 963.294 529.198 998.627 543.727C1033.96 558.256 1074.38 541.389 1088.91 506.055Z" fill="black"/>
<path fill-rule="evenodd" clip-rule="evenodd" d="M1024.86 520.23C1047.13 520.23 1065.29 502.071 1065.29 479.804C1065.29 457.537 1047.13 439.378 1024.86 439.378C1002.6 439.378 984.438 457.537 984.438 479.804C984.438 502.071 1002.6 520.23 1024.86 520.23Z" fill="white"/>
<path fill-rule="evenodd" clip-rule="evenodd" d="M1024.86 516.722C1045.2 516.722 1061.78 500.141 1061.78 479.808C1061.78 459.474 1045.19 442.893 1024.86 442.893C1004.53 442.893 987.95 459.477 987.95 479.808C987.95 500.138 1004.53 516.722 1024.86 516.722Z" stroke="black" stroke-width="10" stroke-miterlimit="22.9256" stroke-linecap="round" stroke-linejoin="round"/>
<path fill-rule="evenodd" clip-rule="evenodd" d="M1024.86 490.557C1030.78 490.557 1035.61 485.729 1035.61 479.804C1035.61 473.88 1030.78 469.054 1024.86 469.054C1018.94 469.054 1014.11 473.883 1014.11 479.804C1014.11 485.725 1018.94 490.557 1024.86 490.557Z" fill="black"/>
<path fill-rule="evenodd" clip-rule="evenodd" d="M1024.86 454.353C1028.2 454.353 1030.93 452.832 1030.93 450.966C1030.93 449.099 1028.2 447.578 1024.86 447.578C1021.52 447.578 1018.8 449.099 1018.8 450.966C1018.8 452.832 1021.52 454.353 1024.86 454.353Z" fill="black"/>
<path fill-rule="evenodd" clip-rule="evenodd" d="M1002.82 467.08C1001.14 469.982 998.472 471.574 996.85 470.639C995.232 469.704 995.275 466.594 996.947 463.692C998.623 460.79 1001.29 459.199 1002.91 460.134C1004.54 461.069 1004.49 464.178 1002.82 467.08Z" fill="black"/>
<path fill-rule="evenodd" clip-rule="evenodd" d="M1002.82 492.535C1004.49 495.437 1004.54 498.546 1002.91 499.481C1001.3 500.416 998.622 498.821 996.947 495.922C995.271 493.02 995.228 489.911 996.85 488.976C998.471 488.038 1001.15 489.633 1002.82 492.535Z" fill="black"/>
<path fill-rule="evenodd" clip-rule="evenodd" d="M1024.86 505.258C1028.21 505.258 1030.92 506.776 1030.92 508.646C1030.92 510.516 1028.21 512.034 1024.86 512.034C1021.51 512.034 1018.79 510.516 1018.79 508.646C1018.79 506.776 1021.51 505.258 1024.86 505.258Z" fill="black"/>
<path fill-rule="evenodd" clip-rule="evenodd" d="M1046.9 492.535C1048.58 489.633 1051.25 488.041 1052.87 488.976C1054.49 489.911 1054.45 493.02 1052.77 495.922C1051.1 498.824 1048.43 500.416 1046.81 499.481C1045.19 498.543 1045.23 495.433 1046.9 492.535Z" fill="black"/>
<path fill-rule="evenodd" clip-rule="evenodd" d="M1046.9 467.08C1045.23 464.178 1045.18 461.069 1046.8 460.134C1048.42 459.199 1051.1 460.79 1052.77 463.692C1054.44 466.594 1054.49 469.704 1052.87 470.639C1051.25 471.574 1048.58 469.982 1046.9 467.08Z" fill="black"/>
<path fill-rule="evenodd" clip-rule="evenodd" d="M1016.92 468.803C1018.44 468.803 1019.67 467.566 1019.67 466.048C1019.67 464.53 1018.44 463.294 1016.92 463.294C1015.4 463.294 1014.16 464.53 1014.16 466.048C1014.16 467.566 1015.4 468.803 1016.92 468.803Z" fill="black"/>
<path fill-rule="evenodd" clip-rule="evenodd" d="M1008.98 482.562C1010.5 482.562 1011.73 481.325 1011.73 479.807C1011.73 478.289 1010.5 477.053 1008.98 477.053C1007.46 477.053 1006.22 478.289 1006.22 479.807C1006.22 481.325 1007.46 482.562 1008.98 482.562Z" fill="black"/>
<path fill-rule="evenodd" clip-rule="evenodd" d="M1016.92 496.318C1018.44 496.318 1019.67 495.081 1019.67 493.563C1019.67 492.045 1018.44 490.809 1016.92 490.809C1015.4 490.809 1014.16 492.045 1014.16 493.563C1014.16 495.081 1015.4 496.318 1016.92 496.318Z" fill="black"/>
<path fill-rule="evenodd" clip-rule="evenodd" d="M1032.81 496.318C1034.32 496.318 1035.56 495.081 1035.56 493.563C1035.56 492.045 1034.32 490.809 1032.81 490.809C1031.29 490.809 1030.05 492.045 1030.05 493.563C1030.05 495.081 1031.29 496.318 1032.81 496.318Z" fill="black"/>
<path fill-rule="evenodd" clip-rule="evenodd" d="M1040.75 482.559C1042.26 482.559 1043.5 481.322 1043.5 479.804C1043.5 478.286 1042.26 477.05 1040.75 477.05C1039.23 477.05 1037.99 478.286 1037.99 479.804C1037.99 481.322 1039.23 482.559 1040.75 482.559Z" fill="black"/>
<path d="M1032.81 468.806C1034.33 468.806 1035.56 467.573 1035.56 466.052C1035.56 464.53 1034.33 463.297 1032.81 463.297C1031.28 463.297 1030.05 464.53 1030.05 466.052C1030.05 467.573 1031.28 468.806 1032.81 468.806Z" fill="black"/>
<path d="M78.8962 341.375C77.5827 341.375 76.5205 340.313 76.5205 338.999V187.444C76.5205 183.215 79.9584 179.777 84.1871 179.777H126.458C127.771 179.777 128.833 180.84 128.833 182.153C128.833 183.467 127.771 184.529 126.458 184.529H84.1871C82.6056 184.529 81.272 185.866 81.272 187.444V338.999C81.272 340.313 80.2063 341.375 78.8962 341.375Z" fill="black"/>
<path fill-rule="evenodd" clip-rule="evenodd" d="M76.9257 227.174H82.3607C83.386 227.174 84.2171 228.008 84.2171 229.03V237.139C84.2171 238.161 83.3827 238.996 82.3607 238.996H76.9257C75.9037 238.996 75.0693 238.161 75.0693 237.139V229.03C75.0693 228.008 75.9071 227.174 76.9257 227.174Z" fill="black"/>
<path fill-rule="evenodd" clip-rule="evenodd" d="M91.4409 194.753C95.1133 194.753 96.0214 202.179 96.0214 209.343V257.55C96.0214 264.715 95.1133 272.141 91.4409 272.141C81.814 272.141 81.814 194.753 91.4409 194.753Z" fill="#505050" stroke="black" stroke-width="10" stroke-miterlimit="22.9256" stroke-linecap="round" stroke-linejoin="round"/>
<path fill-rule="evenodd" clip-rule="evenodd" d="M91.4409 283.38C95.1133 283.38 96.0214 286.258 96.0214 289.033V307.714C96.0214 310.486 95.1133 313.368 91.4409 313.368C81.814 313.368 81.814 283.38 91.4409 283.38Z" fill="#505050" stroke="black" stroke-width="10" stroke-miterlimit="22.9256" stroke-linecap="round" stroke-linejoin="round"/>
<path fill-rule="evenodd" clip-rule="evenodd" d="M126.457 186.821C129.027 186.821 131.122 184.723 131.122 182.157C131.122 179.586 129.024 177.492 126.457 177.492C123.887 177.492 121.793 179.59 121.793 182.157C121.793 184.723 123.887 186.821 126.457 186.821Z" fill="black"/>
<path fill-rule="evenodd" clip-rule="evenodd" d="M76.9257 292.461H82.3607C83.386 292.461 84.2171 293.295 84.2171 294.317V302.427C84.2171 303.449 83.3827 304.283 82.3607 304.283H76.9257C75.9037 304.283 75.0693 303.445 75.0693 302.427V294.317C75.0693 293.295 75.9071 292.461 76.9257 292.461Z" fill="black"/>
<path fill-rule="evenodd" clip-rule="evenodd" d="M78.8958 343.664C81.4658 343.664 83.5601 341.569 83.5601 338.999C83.5601 336.429 81.4625 334.335 78.8958 334.335C76.3257 334.335 74.2314 336.432 74.2314 338.999C74.2281 341.569 76.3257 343.664 78.8958 343.664Z" fill="black"/>
<path d="M2294.22 6H1428V408.577H2294.22V6Z" fill="white" stroke="black" stroke-width="10" stroke-miterlimit="22.9256" stroke-linecap="round" stroke-linejoin="round"/>
</svg>
