<svg width="3000" height="2000" viewBox="0 0 3000 2000" fill="none" xmlns="http://www.w3.org/2000/svg">
<path fill-rule="evenodd" clip-rule="evenodd" d="M2643.93 1195.93L2601.93 1270.3H2073.34L2031.34 1195.93L2028.9 1158.08H2643.93V1195.93Z" fill="#2D2D2D"/>
<path d="M895.395 1154.36H815.891V1173.83H895.395V1154.36Z" fill="#505050" stroke="black" stroke-width="10" stroke-miterlimit="22.9256" stroke-linecap="round" stroke-linejoin="round"/>
<path fill-rule="evenodd" clip-rule="evenodd" d="M815.887 1154.36L749.41 1121.06C802.051 1121.06 909.227 1121.06 961.868 1121.06L895.392 1154.36C887.068 1154.36 824.21 1154.36 815.887 1154.36Z" fill="#505050" stroke="black" stroke-width="10" stroke-miterlimit="22.9256" stroke-linecap="round" stroke-linejoin="round"/>
<path d="M2771.65 610H689.426V1121.06H2771.65V610Z" fill="white" stroke="black" stroke-width="10" stroke-miterlimit="22.9256" stroke-linecap="round" stroke-linejoin="round"/>
<path fill-rule="evenodd" clip-rule="evenodd" d="M2706.45 1121.06H1218.17L1459.65 1195.93H2031.34L2039.23 1223.2C2044.14 1210.61 2051.65 1199.04 2061.44 1189.25C2080.04 1170.65 2105.04 1160.29 2131.35 1160.29C2157.66 1160.29 2182.67 1170.65 2201.27 1189.25C2211.06 1199.04 2218.56 1210.61 2223.48 1223.2H2245.51C2250.43 1210.6 2257.93 1199.04 2267.72 1189.25C2286.32 1170.65 2311.32 1160.29 2337.63 1160.29C2363.94 1160.29 2388.95 1170.65 2407.55 1189.25C2417.34 1199.04 2424.85 1210.61 2429.76 1223.2H2451.79C2456.7 1210.6 2464.21 1199.04 2474 1189.25C2492.6 1170.65 2517.6 1160.29 2543.91 1160.29C2570.22 1160.29 2595.23 1170.65 2613.83 1189.25C2623.62 1199.04 2631.12 1210.61 2636.04 1223.2L2643.92 1195.93H2706.45V1121.06Z" fill="#505050" stroke="black" stroke-width="10" stroke-miterlimit="22.9256" stroke-linecap="round" stroke-linejoin="round"/>
<path fill-rule="evenodd" clip-rule="evenodd" d="M2666.8 1195.93H2682.96V1233.06H2694.18V1270.2H2666.8V1233.06V1195.93Z" fill="black"/>
<path d="M1606.86 1121.06H1587.72V1267.38H1606.86V1121.06Z" fill="#939291" stroke="black" stroke-width="10" stroke-miterlimit="22.9256" stroke-linecap="round" stroke-linejoin="round"/>
<path d="M1916.02 1121.06H1896.88V1267.38H1916.02V1121.06Z" fill="#939291" stroke="black" stroke-width="10" stroke-miterlimit="22.9256" stroke-linecap="round" stroke-linejoin="round"/>
<path d="M1964.29 1255.52H1539.45V1286.99H1964.29V1255.52Z" fill="#939291" stroke="black" stroke-width="10" stroke-miterlimit="22.9256" stroke-linecap="round" stroke-linejoin="round"/>
<path d="M1964.29 1206.04H1539.45V1237.5H1964.29V1206.04Z" fill="#939291" stroke="black" stroke-width="10" stroke-miterlimit="22.9256" stroke-linecap="round" stroke-linejoin="round"/>
<path d="M2152.65 1348.3C2202.01 1336.6 2232.53 1287.1 2220.83 1237.74C2209.13 1188.38 2159.63 1157.85 2110.27 1169.56C2060.91 1181.26 2030.39 1230.76 2042.09 1280.12C2053.79 1329.48 2103.29 1360.01 2152.65 1348.3Z" fill="black"/>
<path d="M2173.08 1300.92C2196.14 1277.85 2196.14 1240.45 2173.08 1217.39C2150.01 1194.32 2112.62 1194.32 2089.55 1217.39C2066.49 1240.45 2066.49 1277.85 2089.55 1300.92C2112.62 1323.98 2150.01 1323.98 2173.08 1300.92Z" fill="white"/>
<path d="M2131.35 1312.27C2160.68 1312.27 2184.45 1288.49 2184.45 1259.17C2184.45 1229.84 2160.68 1206.06 2131.35 1206.06C2102.03 1206.06 2078.25 1229.84 2078.25 1259.17C2078.25 1288.49 2102.03 1312.27 2131.35 1312.27Z" stroke="black" stroke-width="10" stroke-miterlimit="22.9256"/>
<path fill-rule="evenodd" clip-rule="evenodd" d="M2131.35 1292.18C2149.53 1292.18 2164.36 1277.34 2164.36 1259.17C2164.36 1240.98 2149.53 1226.16 2131.35 1226.16C2113.17 1226.16 2098.34 1240.98 2098.34 1259.17C2098.34 1277.35 2113.17 1292.18 2131.35 1292.18Z" fill="black"/>
<path fill-rule="evenodd" clip-rule="evenodd" d="M2131.35 1274.6C2139.85 1274.6 2146.78 1267.66 2146.78 1259.17C2146.78 1250.67 2139.85 1243.73 2131.35 1243.73C2122.85 1243.73 2115.92 1250.66 2115.92 1259.17C2115.92 1267.67 2122.85 1274.6 2131.35 1274.6Z" fill="white"/>
<path fill-rule="evenodd" clip-rule="evenodd" d="M2131.35 1236.53C2133.1 1236.53 2134.54 1235.1 2134.54 1233.35C2134.54 1231.59 2133.11 1230.16 2131.35 1230.16C2129.6 1230.16 2128.17 1231.59 2128.17 1233.35C2128.17 1235.1 2129.6 1236.53 2131.35 1236.53Z" fill="white"/>
<path fill-rule="evenodd" clip-rule="evenodd" d="M2116.18 1241.46C2117.93 1241.46 2119.36 1240.03 2119.36 1238.28C2119.36 1236.52 2117.93 1235.09 2116.18 1235.09C2114.42 1235.09 2112.99 1236.52 2112.99 1238.28C2112.99 1240.03 2114.42 1241.46 2116.18 1241.46Z" fill="white"/>
<path fill-rule="evenodd" clip-rule="evenodd" d="M2106.8 1254.37C2108.55 1254.37 2109.98 1252.94 2109.98 1251.19C2109.98 1249.43 2108.55 1248 2106.8 1248C2105.04 1248 2103.61 1249.43 2103.61 1251.19C2103.61 1252.94 2105.04 1254.37 2106.8 1254.37Z" fill="white"/>
<path fill-rule="evenodd" clip-rule="evenodd" d="M2106.8 1270.32C2108.55 1270.32 2109.98 1268.89 2109.98 1267.14C2109.98 1265.39 2108.55 1263.96 2106.8 1263.96C2105.04 1263.96 2103.61 1265.39 2103.61 1267.14C2103.61 1268.89 2105.04 1270.32 2106.8 1270.32Z" fill="white"/>
<path fill-rule="evenodd" clip-rule="evenodd" d="M2116.18 1283.24C2117.93 1283.24 2119.36 1281.8 2119.36 1280.05C2119.36 1278.3 2117.93 1276.87 2116.18 1276.87C2114.42 1276.87 2112.99 1278.3 2112.99 1280.05C2112.99 1281.8 2114.42 1283.24 2116.18 1283.24Z" fill="white"/>
<path fill-rule="evenodd" clip-rule="evenodd" d="M2131.35 1288.17C2133.1 1288.17 2134.54 1286.74 2134.54 1284.98C2134.54 1283.23 2133.11 1281.8 2131.35 1281.8C2129.6 1281.8 2128.17 1283.23 2128.17 1284.98C2128.17 1286.74 2129.6 1288.17 2131.35 1288.17Z" fill="white"/>
<path fill-rule="evenodd" clip-rule="evenodd" d="M2146.53 1283.24C2148.28 1283.24 2149.71 1281.8 2149.71 1280.05C2149.71 1278.3 2148.28 1276.87 2146.53 1276.87C2144.77 1276.87 2143.34 1278.3 2143.34 1280.05C2143.34 1281.8 2144.77 1283.24 2146.53 1283.24Z" fill="white"/>
<path fill-rule="evenodd" clip-rule="evenodd" d="M2155.91 1270.32C2157.66 1270.32 2159.09 1268.89 2159.09 1267.14C2159.09 1265.39 2157.66 1263.96 2155.91 1263.96C2154.15 1263.96 2152.72 1265.39 2152.72 1267.14C2152.72 1268.89 2154.15 1270.32 2155.91 1270.32Z" fill="white"/>
<path fill-rule="evenodd" clip-rule="evenodd" d="M2155.91 1254.37C2157.66 1254.37 2159.09 1252.94 2159.09 1251.19C2159.09 1249.43 2157.66 1248 2155.91 1248C2154.15 1248 2152.72 1249.43 2152.72 1251.19C2152.72 1252.94 2154.15 1254.37 2155.91 1254.37Z" fill="white"/>
<path fill-rule="evenodd" clip-rule="evenodd" d="M2146.53 1241.46C2148.28 1241.46 2149.71 1240.03 2149.71 1238.28C2149.71 1236.52 2148.28 1235.09 2146.53 1235.09C2144.77 1235.09 2143.34 1236.52 2143.34 1238.28C2143.34 1240.03 2144.77 1241.46 2146.53 1241.46Z" fill="white"/>
<path fill-rule="evenodd" clip-rule="evenodd" d="M2131.35 1220.02C2134.14 1220.02 2136.41 1217.75 2136.41 1214.97C2136.41 1212.18 2134.14 1209.91 2131.35 1209.91C2128.57 1209.91 2126.3 1212.18 2126.3 1214.97C2126.3 1217.75 2128.57 1220.02 2131.35 1220.02Z" fill="black"/>
<path fill-rule="evenodd" clip-rule="evenodd" d="M2105.38 1228.46C2108.16 1228.46 2110.44 1226.19 2110.44 1223.41C2110.44 1220.62 2108.17 1218.35 2105.38 1218.35C2102.59 1218.35 2100.32 1220.62 2100.32 1223.41C2100.32 1226.19 2102.59 1228.46 2105.38 1228.46Z" fill="black"/>
<path fill-rule="evenodd" clip-rule="evenodd" d="M2089.32 1250.56C2092.11 1250.56 2094.38 1248.29 2094.38 1245.51C2094.38 1242.72 2092.11 1240.45 2089.32 1240.45C2086.53 1240.45 2084.26 1242.72 2084.26 1245.51C2084.26 1248.29 2086.53 1250.56 2089.32 1250.56Z" fill="black"/>
<path fill-rule="evenodd" clip-rule="evenodd" d="M2089.32 1277.88C2092.11 1277.88 2094.38 1275.61 2094.38 1272.82C2094.38 1270.04 2092.11 1267.76 2089.32 1267.76C2086.53 1267.76 2084.26 1270.04 2084.26 1272.82C2084.26 1275.61 2086.53 1277.88 2089.32 1277.88Z" fill="black"/>
<path fill-rule="evenodd" clip-rule="evenodd" d="M2105.38 1299.98C2108.16 1299.98 2110.44 1297.71 2110.44 1294.92C2110.44 1292.14 2108.17 1289.86 2105.38 1289.86C2102.59 1289.86 2100.32 1292.14 2100.32 1294.92C2100.32 1297.71 2102.59 1299.98 2105.38 1299.98Z" fill="black"/>
<path fill-rule="evenodd" clip-rule="evenodd" d="M2131.35 1308.42C2134.14 1308.42 2136.41 1306.15 2136.41 1303.36C2136.41 1300.57 2134.14 1298.31 2131.35 1298.31C2128.57 1298.31 2126.3 1300.58 2126.3 1303.36C2126.3 1306.15 2128.57 1308.42 2131.35 1308.42Z" fill="black"/>
<path fill-rule="evenodd" clip-rule="evenodd" d="M2157.33 1299.98C2160.12 1299.98 2162.39 1297.71 2162.39 1294.92C2162.39 1292.14 2160.12 1289.86 2157.33 1289.86C2154.55 1289.86 2152.27 1292.14 2152.27 1294.92C2152.28 1297.71 2154.55 1299.98 2157.33 1299.98Z" fill="black"/>
<path fill-rule="evenodd" clip-rule="evenodd" d="M2173.39 1277.88C2176.18 1277.88 2178.45 1275.61 2178.45 1272.82C2178.45 1270.04 2176.18 1267.76 2173.39 1267.76C2170.6 1267.76 2168.33 1270.04 2168.33 1272.82C2168.33 1275.61 2170.6 1277.88 2173.39 1277.88Z" fill="black"/>
<path fill-rule="evenodd" clip-rule="evenodd" d="M2173.39 1250.56C2176.18 1250.56 2178.45 1248.29 2178.45 1245.51C2178.45 1242.72 2176.18 1240.45 2173.39 1240.45C2170.6 1240.45 2168.33 1242.72 2168.33 1245.51C2168.33 1248.29 2170.6 1250.56 2173.39 1250.56Z" fill="black"/>
<path fill-rule="evenodd" clip-rule="evenodd" d="M2157.33 1228.46C2160.12 1228.46 2162.39 1226.19 2162.39 1223.41C2162.39 1220.62 2160.12 1218.35 2157.33 1218.35C2154.55 1218.35 2152.27 1220.62 2152.27 1223.41C2152.28 1226.19 2154.55 1228.46 2157.33 1228.46Z" fill="black"/>
<path d="M2359.13 1348.27C2408.42 1336.3 2438.67 1286.64 2426.7 1237.34C2414.73 1188.05 2365.06 1157.79 2315.77 1169.76C2266.48 1181.74 2236.23 1231.4 2248.2 1280.7C2260.17 1329.99 2309.83 1360.25 2359.13 1348.27Z" fill="black"/>
<path fill-rule="evenodd" clip-rule="evenodd" d="M2337.64 1318.23C2370.17 1318.23 2396.7 1291.69 2396.7 1259.17C2396.7 1226.63 2370.17 1200.1 2337.64 1200.1C2305.11 1200.1 2278.58 1226.63 2278.58 1259.17C2278.57 1291.69 2305.11 1318.23 2337.64 1318.23Z" fill="white"/>
<path fill-rule="evenodd" clip-rule="evenodd" d="M2337.64 1312.27C2366.88 1312.27 2390.74 1288.41 2390.74 1259.17C2390.74 1229.92 2366.88 1206.06 2337.64 1206.06C2308.39 1206.06 2284.54 1229.92 2284.54 1259.17C2284.54 1288.41 2308.39 1312.27 2337.64 1312.27Z" stroke="black" stroke-width="10" stroke-miterlimit="22.9256"/>
<path fill-rule="evenodd" clip-rule="evenodd" d="M2337.63 1292.18C2355.82 1292.18 2370.64 1277.35 2370.64 1259.17C2370.64 1240.98 2355.81 1226.16 2337.63 1226.16C2319.45 1226.16 2304.62 1240.98 2304.62 1259.17C2304.62 1277.35 2319.45 1292.18 2337.63 1292.18Z" fill="black"/>
<path fill-rule="evenodd" clip-rule="evenodd" d="M2337.63 1274.6C2346.13 1274.6 2353.06 1267.66 2353.06 1259.17C2353.06 1250.67 2346.13 1243.73 2337.63 1243.73C2329.14 1243.73 2322.2 1250.66 2322.2 1259.17C2322.2 1267.67 2329.14 1274.6 2337.63 1274.6Z" fill="white"/>
<path fill-rule="evenodd" clip-rule="evenodd" d="M2337.64 1236.53C2339.39 1236.53 2340.82 1235.1 2340.82 1233.35C2340.82 1231.59 2339.39 1230.16 2337.64 1230.16C2335.88 1230.16 2334.45 1231.59 2334.45 1233.35C2334.45 1235.1 2335.88 1236.53 2337.64 1236.53Z" fill="white"/>
<path fill-rule="evenodd" clip-rule="evenodd" d="M2322.46 1241.46C2324.22 1241.46 2325.65 1240.03 2325.65 1238.28C2325.65 1236.52 2324.22 1235.09 2322.46 1235.09C2320.71 1235.09 2319.28 1236.52 2319.28 1238.28C2319.28 1240.03 2320.71 1241.46 2322.46 1241.46Z" fill="white"/>
<path fill-rule="evenodd" clip-rule="evenodd" d="M2313.08 1254.37C2314.83 1254.37 2316.26 1252.94 2316.26 1251.19C2316.26 1249.43 2314.83 1248 2313.08 1248C2311.33 1248 2309.9 1249.43 2309.9 1251.19C2309.9 1252.94 2311.33 1254.37 2313.08 1254.37Z" fill="white"/>
<path d="M2313.08 1270.32C2314.84 1270.32 2316.26 1268.9 2316.26 1267.14C2316.26 1265.38 2314.84 1263.96 2313.08 1263.96C2311.32 1263.96 2309.9 1265.38 2309.9 1267.14C2309.9 1268.9 2311.32 1270.32 2313.08 1270.32Z" fill="white"/>
<path fill-rule="evenodd" clip-rule="evenodd" d="M2322.46 1283.24C2324.22 1283.24 2325.65 1281.81 2325.65 1280.05C2325.65 1278.3 2324.22 1276.87 2322.46 1276.87C2320.71 1276.87 2319.28 1278.3 2319.28 1280.05C2319.28 1281.81 2320.71 1283.24 2322.46 1283.24Z" fill="white"/>
<path fill-rule="evenodd" clip-rule="evenodd" d="M2337.64 1288.17C2339.39 1288.17 2340.82 1286.74 2340.82 1284.99C2340.82 1283.23 2339.39 1281.8 2337.64 1281.8C2335.88 1281.8 2334.45 1283.23 2334.45 1284.99C2334.45 1286.74 2335.88 1288.17 2337.64 1288.17Z" fill="white"/>
<path fill-rule="evenodd" clip-rule="evenodd" d="M2352.81 1283.24C2354.56 1283.24 2356 1281.81 2356 1280.05C2356 1278.3 2354.56 1276.87 2352.81 1276.87C2351.06 1276.87 2349.63 1278.3 2349.63 1280.05C2349.63 1281.81 2351.06 1283.24 2352.81 1283.24Z" fill="white"/>
<path fill-rule="evenodd" clip-rule="evenodd" d="M2362.19 1270.32C2363.94 1270.32 2365.37 1268.89 2365.37 1267.14C2365.37 1265.39 2363.94 1263.96 2362.19 1263.96C2360.44 1263.96 2359.01 1265.39 2359.01 1267.14C2359.01 1268.89 2360.44 1270.32 2362.19 1270.32Z" fill="white"/>
<path fill-rule="evenodd" clip-rule="evenodd" d="M2362.19 1254.37C2363.94 1254.37 2365.37 1252.94 2365.37 1251.19C2365.37 1249.43 2363.94 1248 2362.19 1248C2360.44 1248 2359.01 1249.43 2359.01 1251.19C2359.01 1252.94 2360.44 1254.37 2362.19 1254.37Z" fill="white"/>
<path fill-rule="evenodd" clip-rule="evenodd" d="M2352.81 1241.46C2354.56 1241.46 2356 1240.03 2356 1238.28C2356 1236.52 2354.56 1235.09 2352.81 1235.09C2351.06 1235.09 2349.63 1236.52 2349.63 1238.28C2349.63 1240.03 2351.06 1241.46 2352.81 1241.46Z" fill="white"/>
<path fill-rule="evenodd" clip-rule="evenodd" d="M2337.63 1220.02C2340.42 1220.02 2342.69 1217.75 2342.69 1214.97C2342.69 1212.18 2340.42 1209.91 2337.63 1209.91C2334.85 1209.91 2332.58 1212.18 2332.58 1214.97C2332.58 1217.75 2334.85 1220.02 2337.63 1220.02Z" fill="black"/>
<path fill-rule="evenodd" clip-rule="evenodd" d="M2311.66 1228.46C2314.44 1228.46 2316.72 1226.19 2316.72 1223.41C2316.72 1220.62 2314.45 1218.35 2311.66 1218.35C2308.87 1218.35 2306.6 1220.62 2306.6 1223.41C2306.6 1226.19 2308.87 1228.46 2311.66 1228.46Z" fill="black"/>
<path fill-rule="evenodd" clip-rule="evenodd" d="M2295.6 1250.56C2298.39 1250.56 2300.66 1248.29 2300.66 1245.51C2300.66 1242.72 2298.39 1240.45 2295.6 1240.45C2292.81 1240.45 2290.54 1242.72 2290.54 1245.51C2290.54 1248.29 2292.81 1250.56 2295.6 1250.56Z" fill="black"/>
<path fill-rule="evenodd" clip-rule="evenodd" d="M2295.6 1277.88C2298.39 1277.88 2300.66 1275.61 2300.66 1272.82C2300.66 1270.04 2298.39 1267.76 2295.6 1267.76C2292.81 1267.76 2290.54 1270.04 2290.54 1272.82C2290.54 1275.61 2292.81 1277.88 2295.6 1277.88Z" fill="black"/>
<path fill-rule="evenodd" clip-rule="evenodd" d="M2311.66 1299.98C2314.44 1299.98 2316.72 1297.71 2316.72 1294.92C2316.72 1292.14 2314.45 1289.86 2311.66 1289.86C2308.87 1289.86 2306.6 1292.14 2306.6 1294.92C2306.6 1297.71 2308.87 1299.98 2311.66 1299.98Z" fill="black"/>
<path fill-rule="evenodd" clip-rule="evenodd" d="M2337.63 1308.42C2340.42 1308.42 2342.69 1306.15 2342.69 1303.36C2342.69 1300.57 2340.42 1298.31 2337.63 1298.31C2334.85 1298.31 2332.58 1300.58 2332.58 1303.36C2332.58 1306.15 2334.85 1308.42 2337.63 1308.42Z" fill="black"/>
<path fill-rule="evenodd" clip-rule="evenodd" d="M2363.61 1299.98C2366.4 1299.98 2368.67 1297.71 2368.67 1294.92C2368.67 1292.14 2366.4 1289.86 2363.61 1289.86C2360.82 1289.86 2358.55 1292.14 2358.55 1294.92C2358.55 1297.71 2360.83 1299.98 2363.61 1299.98Z" fill="black"/>
<path fill-rule="evenodd" clip-rule="evenodd" d="M2379.67 1277.88C2382.46 1277.88 2384.73 1275.61 2384.73 1272.82C2384.73 1270.04 2382.46 1267.76 2379.67 1267.76C2376.88 1267.76 2374.61 1270.04 2374.61 1272.82C2374.61 1275.61 2376.88 1277.88 2379.67 1277.88Z" fill="black"/>
<path fill-rule="evenodd" clip-rule="evenodd" d="M2379.67 1250.56C2382.46 1250.56 2384.73 1248.29 2384.73 1245.51C2384.73 1242.72 2382.46 1240.45 2379.67 1240.45C2376.88 1240.45 2374.61 1242.72 2374.61 1245.51C2374.61 1248.29 2376.88 1250.56 2379.67 1250.56Z" fill="black"/>
<path fill-rule="evenodd" clip-rule="evenodd" d="M2363.61 1228.46C2366.4 1228.46 2368.67 1226.19 2368.67 1223.41C2368.67 1220.62 2366.4 1218.35 2363.61 1218.35C2360.82 1218.35 2358.55 1220.62 2358.55 1223.41C2358.55 1226.19 2360.83 1228.46 2363.61 1228.46Z" fill="black"/>
<path d="M2564.5 1348.7C2613.93 1337.3 2644.75 1287.98 2633.35 1238.55C2621.95 1189.12 2572.63 1158.29 2523.2 1169.7C2473.78 1181.1 2442.95 1230.42 2454.35 1279.85C2465.76 1329.28 2515.07 1360.11 2564.5 1348.7Z" fill="black"/>
<path d="M2558.9 1316.08C2590.47 1307.85 2609.38 1275.59 2601.14 1244.02C2592.91 1212.46 2560.65 1193.55 2529.09 1201.78C2497.53 1210.01 2478.62 1242.28 2486.85 1273.84C2495.08 1305.4 2527.34 1324.31 2558.9 1316.08Z" fill="white"/>
<path d="M2552.36 1311.52C2581.31 1306.85 2600.99 1279.59 2596.31 1250.63C2591.64 1221.68 2564.38 1202 2535.43 1206.67C2506.48 1211.35 2486.8 1238.61 2491.47 1267.56C2496.15 1296.52 2523.41 1316.2 2552.36 1311.52Z" stroke="black" stroke-width="10" stroke-miterlimit="22.9256"/>
<path fill-rule="evenodd" clip-rule="evenodd" d="M2543.92 1292.18C2562.1 1292.18 2576.93 1277.34 2576.93 1259.17C2576.93 1240.98 2562.1 1226.16 2543.92 1226.16C2525.74 1226.16 2510.91 1240.98 2510.91 1259.17C2510.91 1277.35 2525.74 1292.18 2543.92 1292.18Z" fill="black"/>
<path fill-rule="evenodd" clip-rule="evenodd" d="M2543.92 1274.6C2552.42 1274.6 2559.35 1267.66 2559.35 1259.17C2559.35 1250.67 2552.42 1243.73 2543.92 1243.73C2535.42 1243.73 2528.49 1250.66 2528.49 1259.17C2528.49 1267.67 2535.42 1274.6 2543.92 1274.6Z" fill="white"/>
<path fill-rule="evenodd" clip-rule="evenodd" d="M2543.92 1236.53C2545.67 1236.53 2547.1 1235.1 2547.1 1233.35C2547.1 1231.59 2545.67 1230.16 2543.92 1230.16C2542.17 1230.16 2540.73 1231.59 2540.73 1233.35C2540.73 1235.1 2542.16 1236.53 2543.92 1236.53Z" fill="white"/>
<path fill-rule="evenodd" clip-rule="evenodd" d="M2528.74 1241.46C2530.5 1241.46 2531.93 1240.03 2531.93 1238.28C2531.93 1236.52 2530.5 1235.09 2528.74 1235.09C2526.99 1235.09 2525.56 1236.52 2525.56 1238.28C2525.56 1240.03 2526.99 1241.46 2528.74 1241.46Z" fill="white"/>
<path fill-rule="evenodd" clip-rule="evenodd" d="M2519.36 1254.37C2521.12 1254.37 2522.55 1252.94 2522.55 1251.19C2522.55 1249.43 2521.12 1248 2519.36 1248C2517.61 1248 2516.18 1249.43 2516.18 1251.19C2516.18 1252.94 2517.61 1254.37 2519.36 1254.37Z" fill="white"/>
<path fill-rule="evenodd" clip-rule="evenodd" d="M2519.36 1270.32C2521.12 1270.32 2522.55 1268.89 2522.55 1267.14C2522.55 1265.39 2521.12 1263.96 2519.36 1263.96C2517.61 1263.96 2516.18 1265.39 2516.18 1267.14C2516.18 1268.89 2517.61 1270.32 2519.36 1270.32Z" fill="white"/>
<path fill-rule="evenodd" clip-rule="evenodd" d="M2528.74 1283.24C2530.5 1283.24 2531.93 1281.8 2531.93 1280.05C2531.93 1278.3 2530.5 1276.87 2528.74 1276.87C2526.99 1276.87 2525.56 1278.3 2525.56 1280.05C2525.56 1281.8 2526.99 1283.24 2528.74 1283.24Z" fill="white"/>
<path fill-rule="evenodd" clip-rule="evenodd" d="M2543.92 1288.17C2545.67 1288.17 2547.1 1286.74 2547.1 1284.98C2547.1 1283.23 2545.67 1281.8 2543.92 1281.8C2542.17 1281.8 2540.73 1283.23 2540.73 1284.98C2540.73 1286.74 2542.16 1288.17 2543.92 1288.17Z" fill="white"/>
<path fill-rule="evenodd" clip-rule="evenodd" d="M2559.09 1283.24C2560.84 1283.24 2562.27 1281.8 2562.27 1280.05C2562.27 1278.3 2560.84 1276.87 2559.09 1276.87C2557.33 1276.87 2555.9 1278.3 2555.9 1280.05C2555.91 1281.8 2557.34 1283.24 2559.09 1283.24Z" fill="white"/>
<path d="M2568.47 1270.32C2570.23 1270.32 2571.65 1268.9 2571.65 1267.14C2571.65 1265.38 2570.23 1263.96 2568.47 1263.96C2566.71 1263.96 2565.29 1265.38 2565.29 1267.14C2565.29 1268.9 2566.71 1270.32 2568.47 1270.32Z" fill="white"/>
<path fill-rule="evenodd" clip-rule="evenodd" d="M2568.47 1254.37C2570.22 1254.37 2571.65 1252.94 2571.65 1251.19C2571.65 1249.43 2570.22 1248 2568.47 1248C2566.72 1248 2565.29 1249.43 2565.29 1251.19C2565.29 1252.94 2566.72 1254.37 2568.47 1254.37Z" fill="white"/>
<path fill-rule="evenodd" clip-rule="evenodd" d="M2559.09 1241.46C2560.84 1241.46 2562.27 1240.03 2562.27 1238.28C2562.27 1236.52 2560.84 1235.09 2559.09 1235.09C2557.33 1235.09 2555.9 1236.52 2555.9 1238.28C2555.9 1240.03 2557.34 1241.46 2559.09 1241.46Z" fill="white"/>
<path fill-rule="evenodd" clip-rule="evenodd" d="M2543.92 1220.02C2546.7 1220.02 2548.97 1217.75 2548.97 1214.97C2548.97 1212.18 2546.7 1209.91 2543.92 1209.91C2541.13 1209.91 2538.86 1212.18 2538.86 1214.97C2538.86 1217.75 2541.13 1220.02 2543.92 1220.02Z" fill="black"/>
<path fill-rule="evenodd" clip-rule="evenodd" d="M2517.94 1228.46C2520.72 1228.46 2523 1226.19 2523 1223.41C2523 1220.62 2520.73 1218.35 2517.94 1218.35C2515.15 1218.35 2512.88 1220.62 2512.88 1223.41C2512.88 1226.19 2515.15 1228.46 2517.94 1228.46Z" fill="black"/>
<path fill-rule="evenodd" clip-rule="evenodd" d="M2501.88 1250.56C2504.67 1250.56 2506.94 1248.29 2506.94 1245.51C2506.94 1242.72 2504.67 1240.45 2501.88 1240.45C2499.09 1240.45 2496.82 1242.72 2496.82 1245.51C2496.82 1248.29 2499.09 1250.56 2501.88 1250.56Z" fill="black"/>
<path fill-rule="evenodd" clip-rule="evenodd" d="M2501.88 1277.88C2504.67 1277.88 2506.94 1275.61 2506.94 1272.82C2506.94 1270.04 2504.67 1267.76 2501.88 1267.76C2499.09 1267.76 2496.82 1270.04 2496.82 1272.82C2496.82 1275.61 2499.09 1277.88 2501.88 1277.88Z" fill="black"/>
<path fill-rule="evenodd" clip-rule="evenodd" d="M2517.94 1299.98C2520.72 1299.98 2523 1297.71 2523 1294.92C2523 1292.14 2520.73 1289.86 2517.94 1289.86C2515.15 1289.86 2512.88 1292.14 2512.88 1294.92C2512.88 1297.71 2515.15 1299.98 2517.94 1299.98Z" fill="black"/>
<path fill-rule="evenodd" clip-rule="evenodd" d="M2543.92 1308.42C2546.7 1308.42 2548.97 1306.15 2548.97 1303.36C2548.97 1300.57 2546.7 1298.31 2543.92 1298.31C2541.13 1298.31 2538.86 1300.58 2538.86 1303.36C2538.86 1306.15 2541.13 1308.42 2543.92 1308.42Z" fill="black"/>
<path fill-rule="evenodd" clip-rule="evenodd" d="M2569.89 1299.98C2572.68 1299.98 2574.95 1297.71 2574.95 1294.92C2574.95 1292.14 2572.68 1289.86 2569.89 1289.86C2567.1 1289.86 2564.84 1292.14 2564.84 1294.92C2564.84 1297.71 2567.11 1299.98 2569.89 1299.98Z" fill="black"/>
<path fill-rule="evenodd" clip-rule="evenodd" d="M2585.95 1277.88C2588.74 1277.88 2591.01 1275.61 2591.01 1272.82C2591.01 1270.04 2588.74 1267.76 2585.95 1267.76C2583.16 1267.76 2580.89 1270.04 2580.89 1272.82C2580.89 1275.61 2583.16 1277.88 2585.95 1277.88Z" fill="black"/>
<path fill-rule="evenodd" clip-rule="evenodd" d="M2585.95 1250.56C2588.74 1250.56 2591.01 1248.29 2591.01 1245.51C2591.01 1242.72 2588.74 1240.45 2585.95 1240.45C2583.16 1240.45 2580.89 1242.72 2580.89 1245.51C2580.89 1248.29 2583.16 1250.56 2585.95 1250.56Z" fill="black"/>
<path fill-rule="evenodd" clip-rule="evenodd" d="M2569.89 1228.46C2572.68 1228.46 2574.95 1226.19 2574.95 1223.41C2574.95 1220.62 2572.68 1218.35 2569.89 1218.35C2567.1 1218.35 2564.84 1220.62 2564.84 1223.41C2564.84 1226.19 2567.11 1228.46 2569.89 1228.46Z" fill="black"/>
<path d="M1505.86 1121.06H1465.61V1270.82H1505.86V1121.06Z" fill="#939291" stroke="black" stroke-width="10" stroke-miterlimit="22.9256" stroke-linecap="round" stroke-linejoin="round"/>
<path d="M1520.21 1270.82H1451.26V1286.99H1520.21V1270.82Z" fill="#939291" stroke="black" stroke-width="10" stroke-miterlimit="22.9256" stroke-linecap="round" stroke-linejoin="round"/>
<path fill-rule="evenodd" clip-rule="evenodd" d="M1175.64 1309.19V1215.27L1117.88 1155.18H1028.76L971 1215.27V1309.19H1157.27C1163.18 1309.4 1169.28 1309.43 1175.64 1309.19Z" fill="#2D2D2D"/>
<path fill-rule="evenodd" clip-rule="evenodd" d="M389.098 1293.17L602.296 1308.75V1161.41H389.098V1293.17Z" fill="#2D2D2D"/>
<path fill-rule="evenodd" clip-rule="evenodd" d="M577.952 1204.27H960.008C980.401 1162.25 1023.47 1133.28 1073.32 1133.28C1123.16 1133.28 1166.23 1162.25 1186.62 1204.27H1213.81V1223.07H1220.74V1250.44H1213.81L1206.02 1315.72H1154.43C1165.94 1299.25 1172.19 1279.6 1172.19 1259.17C1172.19 1232.85 1161.83 1207.85 1143.23 1189.25C1124.63 1170.65 1099.62 1160.28 1073.31 1160.28C1047 1160.28 1022 1170.65 1003.4 1189.25C984.798 1207.85 974.437 1232.85 974.437 1259.17C974.437 1279.6 980.686 1299.25 992.193 1315.72H576.816C588.323 1299.25 594.572 1279.6 594.572 1259.17C594.572 1239.41 588.735 1220.4 577.952 1204.27Z" fill="#505050" stroke="black" stroke-width="10" stroke-miterlimit="22.9256" stroke-linecap="round" stroke-linejoin="round"/>
<path fill-rule="evenodd" clip-rule="evenodd" d="M413.444 1204.27H237.975C232.483 1204.27 228 1208.75 228 1214.25V1264.45C228 1268.3 230.027 1271.6 233.465 1273.35L265.609 1289.65L265.606 1299.94H405.593C399.856 1287.27 396.821 1273.41 396.821 1259.17C396.824 1239.42 402.661 1220.4 413.444 1204.27Z" fill="#505050" stroke="black" stroke-width="10" stroke-miterlimit="22.9256" stroke-linecap="round" stroke-linejoin="round"/>
<path fill-rule="evenodd" clip-rule="evenodd" d="M635.86 1204.27H577.951C559.596 1176.82 528.855 1160.29 495.696 1160.29C469.385 1160.29 444.381 1170.65 425.781 1189.25C421.143 1193.88 417.022 1198.92 413.443 1204.27C386.597 1204.27 368.633 1204.27 368.633 1204.27C389.485 1156.07 436.952 1122.07 492.502 1120.81H635.857V1204.27H635.86Z" fill="#505050" stroke="black" stroke-width="10" stroke-miterlimit="22.9256" stroke-linecap="round" stroke-linejoin="round"/>
<path fill-rule="evenodd" clip-rule="evenodd" d="M368.623 1204.27C325.076 1204.27 281.526 1204.27 237.979 1204.27C237.979 1166.65 237.979 1129.03 237.979 1091.41C248.336 1021.25 258.693 951.086 269.051 880.93C266.303 880.93 263.552 880.93 260.804 880.93C260.804 852.319 274.697 828.34 305.477 825.113C422.756 812.818 540.044 800.523 657.326 788.232C657.326 899.176 657.326 1010.12 657.326 1121.06C603.448 1120.97 549.574 1120.87 495.699 1120.77C438.776 1120.77 389.891 1155.15 368.637 1204.27C368.63 1204.27 368.623 1204.27 368.623 1204.27Z" fill="white" stroke="black" stroke-width="10" stroke-miterlimit="22.9256" stroke-linecap="round" stroke-linejoin="round"/>
<path fill-rule="evenodd" clip-rule="evenodd" d="M237.975 1091.41L269.047 880.93H280.731C283.606 880.93 286.082 882.009 288.039 884.117C289.996 886.225 290.891 888.772 290.676 891.64L277.337 1072.16C276.72 1080.49 270.511 1087.07 262.234 1088.18L237.975 1091.41Z" fill="#C8C8C8" stroke="black" stroke-width="10" stroke-miterlimit="22.9256" stroke-linecap="round" stroke-linejoin="round"/>
<path fill-rule="evenodd" clip-rule="evenodd" d="M364.351 1025.18L336.851 1078.24L299.023 1083.28L313.291 890.169C313.677 884.948 318.002 880.93 323.24 880.93H608.129C611.084 880.93 613.631 882.076 615.591 884.288C617.555 886.5 618.386 889.167 618.031 892.102L606.775 985.344C606.226 989.921 602.761 993.426 598.19 994.036L364.351 1025.18Z" fill="#C8C8C8" stroke="black" stroke-width="10" stroke-miterlimit="22.9256" stroke-linecap="round" stroke-linejoin="round"/>
<path fill-rule="evenodd" clip-rule="evenodd" d="M506.551 880.927H608.131C611.089 880.927 613.633 882.073 615.593 884.285C617.556 886.496 618.387 889.163 618.032 892.099L606.777 985.34C606.227 989.918 602.763 993.423 598.192 994.033L506.551 1006.24V880.927Z" fill="#C8C8C8" stroke="black" stroke-width="10" stroke-miterlimit="22.9256" stroke-linecap="round" stroke-linejoin="round"/>
<path fill-rule="evenodd" clip-rule="evenodd" d="M299.023 1083.28V1204.27C305.172 1204.27 368.462 1204.35 368.637 1204.27C389.891 1155.15 438.776 1120.77 495.699 1120.77L506.549 1120.79V1006.24L364.351 1025.19L336.851 1078.24L299.023 1083.28Z" fill="white" stroke="black" stroke-width="10" stroke-miterlimit="22.9256" stroke-linecap="round" stroke-linejoin="round"/>
<path fill-rule="evenodd" clip-rule="evenodd" d="M375.059 817.818C469.146 807.956 563.237 798.094 657.328 788.229C657.328 744.589 657.328 700.946 657.328 657.306C541.711 674.553 424.677 735.226 375.059 817.818Z" fill="white" stroke="black" stroke-width="10" stroke-miterlimit="22.9256" stroke-linecap="round" stroke-linejoin="round"/>
<path d="M361.825 1240.32H305.833C304.519 1240.32 303.457 1239.26 303.457 1237.95V1225.17C303.457 1223.85 304.519 1222.79 305.833 1222.79C307.146 1222.79 308.209 1223.85 308.209 1225.17V1235.57H359.452V1225.17C359.452 1223.85 360.515 1222.79 361.828 1222.79C363.142 1222.79 364.204 1223.85 364.204 1225.17V1237.95C364.201 1239.26 363.138 1240.32 361.825 1240.32Z" fill="black"/>
<path d="M361.825 1285.52H305.833C304.519 1285.52 303.457 1284.46 303.457 1283.15V1270.36C303.457 1269.05 304.519 1267.99 305.833 1267.99C307.146 1267.99 308.209 1269.05 308.209 1270.36V1280.77H359.452V1270.36C359.452 1269.05 360.515 1267.99 361.828 1267.99C363.142 1267.99 364.204 1269.05 364.204 1270.36V1283.15C364.201 1284.46 363.138 1285.52 361.825 1285.52Z" fill="black"/>
<path d="M913.369 1173.83H797.91V1204.27H913.369V1173.83Z" fill="#505050" stroke="black" stroke-width="10" stroke-miterlimit="22.9256" stroke-linecap="round" stroke-linejoin="round"/>
<path fill-rule="evenodd" clip-rule="evenodd" d="M247.026 1232.38H260.221C261.491 1232.38 262.53 1233.42 262.53 1234.69V1241.62C262.53 1242.89 261.491 1243.93 260.221 1243.93H247.026C245.756 1243.93 244.717 1242.89 244.717 1241.62V1234.69C244.717 1233.42 245.756 1232.38 247.026 1232.38Z" fill="#F58220"/>
<path fill-rule="evenodd" clip-rule="evenodd" d="M506.548 1080.9V1041.64H488.484C483.414 1041.64 479.195 1045.38 478.582 1050.41L476.23 1069.71C475.871 1072.65 476.702 1075.32 478.662 1077.54C480.626 1079.75 483.173 1080.9 486.131 1080.9L506.548 1080.9Z" fill="black"/>
<path d="M583.385 1285.77C598.141 1237.24 570.762 1185.93 522.232 1171.18C473.701 1156.42 422.397 1183.8 407.641 1232.33C392.884 1280.87 420.264 1332.17 468.794 1346.93C517.324 1361.69 568.628 1334.31 583.385 1285.77Z" fill="black"/>
<path d="M510.331 1321.34C544.662 1313.17 565.867 1278.71 557.693 1244.38C549.52 1210.05 515.063 1188.84 480.732 1197.01C446.401 1205.19 425.196 1239.65 433.37 1273.98C441.543 1308.31 476 1329.52 510.331 1321.34Z" fill="white"/>
<path d="M509.329 1316.46C541.086 1309.02 560.799 1277.24 553.359 1245.48C545.919 1213.72 514.143 1194.01 482.385 1201.45C450.627 1208.89 430.914 1240.67 438.355 1272.43C445.795 1304.19 477.571 1323.9 509.329 1316.46Z" stroke="black" stroke-width="10" stroke-miterlimit="22.9256"/>
<path fill-rule="evenodd" clip-rule="evenodd" d="M495.698 1295.26C515.575 1295.26 531.786 1279.04 531.786 1259.17C531.786 1239.29 515.575 1223.08 495.698 1223.08C475.821 1223.08 459.609 1239.29 459.609 1259.17C459.609 1279.04 475.821 1295.26 495.698 1295.26Z" stroke="black" stroke-width="10" stroke-miterlimit="22.9256"/>
<path fill-rule="evenodd" clip-rule="evenodd" d="M495.697 1217.67C498.652 1217.67 501.058 1215.26 501.058 1212.31C501.058 1209.36 498.649 1206.95 495.697 1206.95C492.741 1206.95 490.332 1209.36 490.332 1212.31C490.332 1215.26 492.745 1217.67 495.697 1217.67Z" fill="black"/>
<path fill-rule="evenodd" clip-rule="evenodd" d="M468.158 1226.62C471.114 1226.62 473.519 1224.21 473.519 1221.26C473.519 1218.31 471.11 1215.9 468.158 1215.9C465.203 1215.9 462.797 1218.31 462.797 1221.26C462.797 1224.21 465.206 1226.62 468.158 1226.62Z" fill="black"/>
<path fill-rule="evenodd" clip-rule="evenodd" d="M451.134 1250.05C454.09 1250.05 456.499 1247.64 456.499 1244.69C456.499 1241.74 454.09 1239.33 451.134 1239.33C448.179 1239.33 445.77 1241.74 445.77 1244.69C445.773 1247.64 448.182 1250.05 451.134 1250.05Z" fill="black"/>
<path fill-rule="evenodd" clip-rule="evenodd" d="M451.134 1279.01C454.09 1279.01 456.499 1276.6 456.499 1273.65C456.499 1270.69 454.09 1268.28 451.134 1268.28C448.179 1268.28 445.77 1270.69 445.77 1273.65C445.77 1276.6 448.182 1279.01 451.134 1279.01Z" fill="black"/>
<path fill-rule="evenodd" clip-rule="evenodd" d="M468.158 1302.44C471.114 1302.44 473.519 1300.03 473.519 1297.07C473.519 1294.12 471.11 1291.71 468.158 1291.71C465.203 1291.71 462.797 1294.12 462.797 1297.07C462.797 1300.03 465.206 1302.44 468.158 1302.44Z" fill="black"/>
<path fill-rule="evenodd" clip-rule="evenodd" d="M495.697 1311.39C498.652 1311.39 501.058 1308.98 501.058 1306.02C501.058 1303.07 498.649 1300.66 495.697 1300.66C492.741 1300.66 490.332 1303.07 490.332 1306.02C490.332 1308.97 492.745 1311.39 495.697 1311.39Z" fill="black"/>
<path fill-rule="evenodd" clip-rule="evenodd" d="M523.236 1302.44C526.192 1302.44 528.598 1300.03 528.598 1297.07C528.598 1294.12 526.188 1291.71 523.236 1291.71C520.281 1291.71 517.875 1294.12 517.875 1297.07C517.875 1300.03 520.281 1302.44 523.236 1302.44Z" fill="black"/>
<path fill-rule="evenodd" clip-rule="evenodd" d="M540.259 1279.01C543.215 1279.01 545.62 1276.6 545.62 1273.65C545.62 1270.69 543.211 1268.28 540.259 1268.28C537.304 1268.28 534.895 1270.69 534.895 1273.65C534.895 1276.6 537.307 1279.01 540.259 1279.01Z" fill="black"/>
<path fill-rule="evenodd" clip-rule="evenodd" d="M540.259 1250.05C543.215 1250.05 545.62 1247.64 545.62 1244.69C545.62 1241.74 543.211 1239.33 540.259 1239.33C537.304 1239.33 534.895 1241.74 534.895 1244.69C534.898 1247.64 537.307 1250.05 540.259 1250.05Z" fill="black"/>
<path fill-rule="evenodd" clip-rule="evenodd" d="M523.236 1226.62C526.192 1226.62 528.598 1224.21 528.598 1221.26C528.598 1218.31 526.188 1215.9 523.236 1215.9C520.281 1215.9 517.875 1218.31 517.875 1221.26C517.872 1224.21 520.281 1226.62 523.236 1226.62Z" fill="black"/>
<path fill-rule="evenodd" clip-rule="evenodd" d="M495.694 1234.51C497.45 1234.51 498.881 1233.08 498.881 1231.32C498.881 1229.57 497.45 1228.14 495.694 1228.14C493.939 1228.14 492.508 1229.57 492.508 1231.32C492.508 1233.08 493.942 1234.51 495.694 1234.51Z" fill="black"/>
<path fill-rule="evenodd" clip-rule="evenodd" d="M479.331 1239.83C481.087 1239.83 482.518 1238.4 482.518 1236.64C482.518 1234.88 481.087 1233.45 479.331 1233.45C477.575 1233.45 476.145 1234.88 476.145 1236.64C476.145 1238.4 477.575 1239.83 479.331 1239.83Z" fill="black"/>
<path fill-rule="evenodd" clip-rule="evenodd" d="M469.214 1253.75C470.97 1253.75 472.401 1252.32 472.401 1250.56C472.401 1248.81 470.97 1247.38 469.214 1247.38C467.458 1247.38 466.027 1248.81 466.027 1250.56C466.027 1252.32 467.461 1253.75 469.214 1253.75Z" fill="black"/>
<path fill-rule="evenodd" clip-rule="evenodd" d="M469.214 1270.96C470.97 1270.96 472.401 1269.53 472.401 1267.77C472.401 1266.01 470.97 1264.58 469.214 1264.58C467.458 1264.58 466.027 1266.01 466.027 1267.77C466.027 1269.53 467.461 1270.96 469.214 1270.96Z" fill="black"/>
<path fill-rule="evenodd" clip-rule="evenodd" d="M479.331 1284.88C481.087 1284.88 482.518 1283.45 482.518 1281.69C482.518 1279.94 481.087 1278.51 479.331 1278.51C477.575 1278.51 476.145 1279.94 476.145 1281.69C476.145 1283.45 477.575 1284.88 479.331 1284.88Z" fill="black"/>
<path fill-rule="evenodd" clip-rule="evenodd" d="M495.694 1290.2C497.45 1290.2 498.881 1288.77 498.881 1287.01C498.881 1285.26 497.45 1283.83 495.694 1283.83C493.939 1283.83 492.508 1285.26 492.508 1287.01C492.508 1288.77 493.942 1290.2 495.694 1290.2Z" fill="black"/>
<path fill-rule="evenodd" clip-rule="evenodd" d="M512.062 1284.88C513.817 1284.88 515.248 1283.45 515.248 1281.69C515.248 1279.94 513.817 1278.51 512.062 1278.51C510.306 1278.51 508.875 1279.94 508.875 1281.69C508.878 1283.45 510.309 1284.88 512.062 1284.88Z" fill="black"/>
<path fill-rule="evenodd" clip-rule="evenodd" d="M522.179 1270.96C523.935 1270.96 525.365 1269.53 525.365 1267.77C525.365 1266.01 523.935 1264.58 522.179 1264.58C520.423 1264.58 518.992 1266.01 518.992 1267.77C518.989 1269.53 520.423 1270.96 522.179 1270.96Z" fill="black"/>
<path fill-rule="evenodd" clip-rule="evenodd" d="M522.179 1253.75C523.935 1253.75 525.365 1252.32 525.365 1250.56C525.365 1248.81 523.935 1247.38 522.179 1247.38C520.423 1247.38 518.992 1248.81 518.992 1250.56C518.989 1252.32 520.423 1253.75 522.179 1253.75Z" fill="black"/>
<path fill-rule="evenodd" clip-rule="evenodd" d="M512.062 1239.83C513.817 1239.83 515.248 1238.4 515.248 1236.64C515.248 1234.88 513.817 1233.45 512.062 1233.45C510.306 1233.45 508.875 1234.88 508.875 1236.64C508.875 1238.4 510.309 1239.83 512.062 1239.83Z" fill="black"/>
<path fill-rule="evenodd" clip-rule="evenodd" d="M495.695 1278.71C506.458 1278.71 515.233 1269.93 515.233 1259.17C515.233 1248.41 506.454 1239.63 495.695 1239.63C484.932 1239.63 476.156 1248.41 476.156 1259.17C476.156 1269.93 484.935 1278.71 495.695 1278.71Z" fill="black"/>
<path d="M1138.23 1324.09C1174.1 1288.22 1174.1 1230.07 1138.23 1194.2C1102.36 1158.32 1044.21 1158.32 1008.34 1194.2C972.468 1230.07 972.468 1288.22 1008.34 1324.09C1044.21 1359.97 1102.36 1359.97 1138.23 1324.09Z" fill="black"/>
<path d="M1115.04 1300.91C1138.11 1277.84 1138.11 1240.45 1115.04 1217.38C1091.98 1194.32 1054.58 1194.32 1031.52 1217.38C1008.46 1240.45 1008.46 1277.84 1031.52 1300.91C1054.58 1323.98 1091.98 1323.98 1115.04 1300.91Z" fill="white"/>
<path fill-rule="evenodd" clip-rule="evenodd" d="M1073.32 1312.27C1102.56 1312.27 1126.42 1288.41 1126.42 1259.17C1126.42 1229.92 1102.56 1206.06 1073.32 1206.06C1044.07 1206.06 1020.22 1229.92 1020.22 1259.17C1020.22 1288.41 1044.07 1312.27 1073.32 1312.27Z" stroke="black" stroke-width="10" stroke-miterlimit="22.9256"/>
<path fill-rule="evenodd" clip-rule="evenodd" d="M1073.31 1292.18C1091.49 1292.18 1106.32 1277.34 1106.32 1259.17C1106.32 1240.98 1091.49 1226.16 1073.31 1226.16C1055.13 1226.16 1040.3 1240.98 1040.3 1259.17C1040.3 1277.35 1055.13 1292.18 1073.31 1292.18Z" fill="black"/>
<path fill-rule="evenodd" clip-rule="evenodd" d="M1073.32 1274.6C1081.81 1274.6 1088.75 1267.66 1088.75 1259.17C1088.75 1250.67 1081.82 1243.73 1073.32 1243.73C1064.82 1243.73 1057.89 1250.66 1057.89 1259.17C1057.89 1267.67 1064.82 1274.6 1073.32 1274.6Z" fill="white"/>
<path fill-rule="evenodd" clip-rule="evenodd" d="M1073.32 1236.53C1075.07 1236.53 1076.5 1235.1 1076.5 1233.35C1076.5 1231.59 1075.07 1230.16 1073.32 1230.16C1071.56 1230.16 1070.13 1231.59 1070.13 1233.35C1070.13 1235.1 1071.56 1236.53 1073.32 1236.53Z" fill="white"/>
<path fill-rule="evenodd" clip-rule="evenodd" d="M1058.14 1241.46C1059.9 1241.46 1061.33 1240.03 1061.33 1238.28C1061.33 1236.52 1059.9 1235.09 1058.14 1235.09C1056.39 1235.09 1054.96 1236.52 1054.96 1238.28C1054.96 1240.03 1056.39 1241.46 1058.14 1241.46Z" fill="white"/>
<path fill-rule="evenodd" clip-rule="evenodd" d="M1048.76 1254.37C1050.52 1254.37 1051.95 1252.94 1051.95 1251.19C1051.95 1249.43 1050.52 1248 1048.76 1248C1047.01 1248 1045.58 1249.43 1045.58 1251.19C1045.58 1252.94 1047.01 1254.37 1048.76 1254.37Z" fill="white"/>
<path fill-rule="evenodd" clip-rule="evenodd" d="M1048.76 1270.32C1050.52 1270.32 1051.95 1268.89 1051.95 1267.14C1051.95 1265.39 1050.52 1263.96 1048.76 1263.96C1047.01 1263.96 1045.58 1265.39 1045.58 1267.14C1045.58 1268.89 1047.01 1270.32 1048.76 1270.32Z" fill="white"/>
<path fill-rule="evenodd" clip-rule="evenodd" d="M1058.14 1283.24C1059.9 1283.24 1061.33 1281.8 1061.33 1280.05C1061.33 1278.3 1059.9 1276.87 1058.14 1276.87C1056.39 1276.87 1054.96 1278.3 1054.96 1280.05C1054.96 1281.8 1056.39 1283.24 1058.14 1283.24Z" fill="white"/>
<path fill-rule="evenodd" clip-rule="evenodd" d="M1073.32 1288.17C1075.07 1288.17 1076.5 1286.74 1076.5 1284.98C1076.5 1283.23 1075.07 1281.8 1073.32 1281.8C1071.56 1281.8 1070.13 1283.23 1070.13 1284.98C1070.13 1286.74 1071.56 1288.17 1073.32 1288.17Z" fill="white"/>
<path fill-rule="evenodd" clip-rule="evenodd" d="M1088.49 1283.24C1090.24 1283.24 1091.68 1281.8 1091.68 1280.05C1091.68 1278.3 1090.24 1276.87 1088.49 1276.87C1086.74 1276.87 1085.31 1278.3 1085.31 1280.05C1085.31 1281.8 1086.74 1283.24 1088.49 1283.24Z" fill="white"/>
<path fill-rule="evenodd" clip-rule="evenodd" d="M1097.87 1270.32C1099.62 1270.32 1101.05 1268.89 1101.05 1267.14C1101.05 1265.39 1099.62 1263.96 1097.87 1263.96C1096.12 1263.96 1094.69 1265.39 1094.69 1267.14C1094.69 1268.89 1096.12 1270.32 1097.87 1270.32Z" fill="white"/>
<path fill-rule="evenodd" clip-rule="evenodd" d="M1097.87 1254.37C1099.62 1254.37 1101.05 1252.94 1101.05 1251.19C1101.05 1249.43 1099.62 1248 1097.87 1248C1096.12 1248 1094.69 1249.43 1094.69 1251.19C1094.69 1252.94 1096.12 1254.37 1097.87 1254.37Z" fill="white"/>
<path fill-rule="evenodd" clip-rule="evenodd" d="M1088.49 1241.46C1090.24 1241.46 1091.68 1240.03 1091.68 1238.28C1091.68 1236.52 1090.24 1235.09 1088.49 1235.09C1086.74 1235.09 1085.31 1236.52 1085.31 1238.28C1085.31 1240.03 1086.74 1241.46 1088.49 1241.46Z" fill="white"/>
<path fill-rule="evenodd" clip-rule="evenodd" d="M1073.31 1220.02C1076.1 1220.02 1078.37 1217.75 1078.37 1214.97C1078.37 1212.18 1076.1 1209.91 1073.31 1209.91C1070.53 1209.91 1068.25 1212.18 1068.25 1214.97C1068.26 1217.75 1070.53 1220.02 1073.31 1220.02Z" fill="black"/>
<path fill-rule="evenodd" clip-rule="evenodd" d="M1047.34 1228.46C1050.13 1228.46 1052.4 1226.19 1052.4 1223.41C1052.4 1220.62 1050.13 1218.35 1047.34 1218.35C1044.56 1218.35 1042.28 1220.62 1042.28 1223.41C1042.28 1226.19 1044.55 1228.46 1047.34 1228.46Z" fill="black"/>
<path fill-rule="evenodd" clip-rule="evenodd" d="M1031.28 1250.56C1034.07 1250.56 1036.34 1248.29 1036.34 1245.51C1036.34 1242.72 1034.07 1240.45 1031.28 1240.45C1028.49 1240.45 1026.22 1242.72 1026.22 1245.51C1026.22 1248.29 1028.49 1250.56 1031.28 1250.56Z" fill="black"/>
<path fill-rule="evenodd" clip-rule="evenodd" d="M1031.28 1277.88C1034.07 1277.88 1036.34 1275.61 1036.34 1272.82C1036.34 1270.04 1034.07 1267.76 1031.28 1267.76C1028.49 1267.76 1026.22 1270.04 1026.22 1272.82C1026.22 1275.61 1028.49 1277.88 1031.28 1277.88Z" fill="black"/>
<path fill-rule="evenodd" clip-rule="evenodd" d="M1047.34 1299.98C1050.13 1299.98 1052.4 1297.71 1052.4 1294.92C1052.4 1292.14 1050.13 1289.86 1047.34 1289.86C1044.56 1289.86 1042.28 1292.14 1042.28 1294.92C1042.28 1297.71 1044.55 1299.98 1047.34 1299.98Z" fill="black"/>
<path fill-rule="evenodd" clip-rule="evenodd" d="M1073.31 1308.42C1076.1 1308.42 1078.37 1306.15 1078.37 1303.36C1078.37 1300.57 1076.1 1298.31 1073.31 1298.31C1070.53 1298.31 1068.25 1300.58 1068.25 1303.36C1068.25 1306.15 1070.53 1308.42 1073.31 1308.42Z" fill="black"/>
<path fill-rule="evenodd" clip-rule="evenodd" d="M1099.29 1299.98C1102.08 1299.98 1104.35 1297.71 1104.35 1294.92C1104.35 1292.14 1102.08 1289.86 1099.29 1289.86C1096.51 1289.86 1094.23 1292.14 1094.23 1294.92C1094.23 1297.71 1096.51 1299.98 1099.29 1299.98Z" fill="black"/>
<path fill-rule="evenodd" clip-rule="evenodd" d="M1115.35 1277.88C1118.14 1277.88 1120.41 1275.61 1120.41 1272.82C1120.41 1270.04 1118.14 1267.76 1115.35 1267.76C1112.56 1267.76 1110.29 1270.04 1110.29 1272.82C1110.29 1275.61 1112.56 1277.88 1115.35 1277.88Z" fill="black"/>
<path fill-rule="evenodd" clip-rule="evenodd" d="M1115.35 1250.56C1118.14 1250.56 1120.41 1248.29 1120.41 1245.51C1120.41 1242.72 1118.14 1240.45 1115.35 1240.45C1112.56 1240.45 1110.29 1242.72 1110.29 1245.51C1110.29 1248.29 1112.56 1250.56 1115.35 1250.56Z" fill="black"/>
<path fill-rule="evenodd" clip-rule="evenodd" d="M1099.29 1228.46C1102.08 1228.46 1104.35 1226.19 1104.35 1223.41C1104.35 1220.62 1102.08 1218.35 1099.29 1218.35C1096.51 1218.35 1094.23 1220.62 1094.23 1223.41C1094.23 1226.19 1096.51 1228.46 1099.29 1228.46Z" fill="black"/>
<path fill-rule="evenodd" clip-rule="evenodd" d="M248.665 960.188H259.023C260.97 960.188 262.561 961.779 262.561 963.723V979.171C262.561 981.115 260.97 982.706 259.023 982.706H248.665C246.719 982.706 245.127 981.115 245.127 979.171V963.723C245.127 961.783 246.719 960.188 248.665 960.188Z" fill="black"/>
<path d="M288.586 872.02C291.93 872.02 294.641 869.309 294.641 865.965C294.641 862.621 291.93 859.91 288.586 859.91C285.242 859.91 282.531 862.621 282.531 865.965C282.531 869.309 285.242 872.02 288.586 872.02Z" fill="black"/>
<path fill-rule="evenodd" clip-rule="evenodd" d="M288.586 1081.68C291.924 1081.68 294.641 1078.96 294.641 1075.63C294.641 1072.29 291.92 1069.57 288.586 1069.57C285.252 1069.57 282.531 1072.29 282.531 1075.63C282.528 1078.96 285.249 1081.68 288.586 1081.68Z" fill="black"/>
<path d="M288.584 1079.31H262.492C255.622 1079.31 250.033 1073.72 250.033 1066.85V876.051C250.033 869.182 255.622 863.592 262.492 863.592H288.584C289.898 863.592 290.96 864.658 290.96 865.968C290.96 867.278 289.898 868.344 288.584 868.344H262.492C258.239 868.344 254.785 871.799 254.785 876.051V1066.85C254.785 1071.1 258.239 1074.56 262.492 1074.56H288.584C289.898 1074.56 290.96 1075.62 290.96 1076.93C290.96 1078.25 289.898 1079.31 288.584 1079.31Z" fill="black"/>
<path fill-rule="evenodd" clip-rule="evenodd" d="M271.253 900.467C264.994 900.467 259.877 905.584 259.877 911.843V1031.05C259.877 1037.31 264.997 1042.43 271.253 1042.43V900.467Z" fill="#505050" stroke="black" stroke-width="10" stroke-miterlimit="22.9256" stroke-linecap="round" stroke-linejoin="round"/>
</svg>
