<svg width="3000" height="2000" viewBox="0 0 3000 2000" fill="none" xmlns="http://www.w3.org/2000/svg">
<circle cx="1193.67" cy="1131.61" r="61" fill="white"/>
<circle cx="1193.67" cy="1131.61" r="61" fill="white"/>
<circle cx="1193.67" cy="1131.61" r="61" fill="white"/>
<circle cx="1193.67" cy="1131.61" r="61" fill="white"/>
<circle cx="1812.67" cy="1127.61" r="61" fill="white"/>
<circle cx="1812.67" cy="1127.61" r="61" fill="white"/>
<circle cx="1812.67" cy="1127.61" r="61" fill="white"/>
<circle cx="1812.67" cy="1127.61" r="61" fill="white"/>
<path d="M1269.34 1118.87H1329.45L1336.44 1153.11H1544.26L1547.99 1118.87H1742.76V1181.31H1269.34V1118.87Z" fill="#505050"/>
<path d="M1131.3 1116.94H1050.94L1081.81 1047.47L1290.6 982.83L1290.81 982.765L1290.98 982.617L1420.37 865.791L1508.47 834.063L1508.51 834.051L1508.76 833.985C1508.97 833.926 1509.3 833.84 1509.72 833.726C1510.56 833.5 1511.8 833.168 1513.4 832.746C1516.59 831.902 1521.19 830.696 1526.84 829.253C1538.13 826.366 1553.59 822.527 1570.27 818.718C1586.94 814.91 1604.83 811.133 1620.98 808.371C1637.14 805.605 1651.5 803.867 1661.14 804.108C1680.67 804.595 1754.95 803.719 1824.31 802.723C1859 802.225 1892.47 801.696 1917.26 801.292C1929.66 801.09 1939.89 800.919 1947.02 800.798C1950.59 800.738 1953.38 800.691 1955.28 800.658L1957.18 800.625L1960.76 1122.06H1885.51L1865.28 1080.69L1865.14 1080.4L1864.86 1080.25L1825.72 1058.81L1825.44 1058.66L1825.13 1058.7L1782.26 1063.36L1781.94 1063.39L1781.7 1063.6L1747.69 1093.89L1747.53 1094.03L1747.45 1094.22L1740.95 1108.13L1735.23 1116.94H1725.05H1545.66H1544.66V1117.94V1147.23H1336.78L1330.42 1117.73L1330.25 1116.94H1329.45H1267.18L1260.46 1102.15L1260.38 1101.98L1260.25 1101.85L1229.5 1071.56L1229.26 1071.32L1228.92 1071.28L1163.21 1063.36L1162.56 1063.28L1162.23 1063.85L1131.3 1116.94Z" fill="white" stroke="black" stroke-width="2"/>
<path d="M1422.17 887.749H1544.26V992.126H1310.8L1422.17 887.749Z" fill="#C8C8C8"/>
<path d="M1067.57 1072.27H1080.15V1117.01H1050.33L1067.57 1072.27Z" fill="#D9D9D9"/>
<mask id="path-7-inside-1_239_1431" fill="white">
<path d="M1618.17 799.608L1573.17 810.108L1519.67 824.108L1465.17 845.108C1441.67 852.108 1413.6 864.637 1411.86 865.258C1410.12 866.004 1407.76 867.495 1406.39 868.862C1405.15 870.104 1395.46 879.175 1384.89 888.991C1374.33 898.808 1360.91 911.358 1355.07 916.95C1349.23 922.541 1340.04 931.239 1334.57 936.334C1329.23 941.304 1319.66 950.375 1313.45 956.215C1283.5 984.671 1282.26 985.665 1276.67 987.156C1273.68 987.901 1266.48 989.889 1260.64 991.505C1250.45 994.487 1192.54 1010.39 1161.85 1018.84C1153.65 1021.08 1140.48 1024.68 1132.65 1026.92C1099.35 1036.24 1083.19 1040.59 1082.32 1040.59C1081.21 1040.59 1073.01 1048.42 1073.01 1049.41C1073.01 1050.03 1071.39 1054.01 1069.53 1058.23C1067.54 1062.58 1061.57 1076.87 1056.23 1089.92C1049.02 1107.31 1045.79 1113.9 1044.3 1113.9C1040.08 1113.9 1034.73 1116.63 1033.37 1119.62C1032.62 1121.36 1032 1129.43 1032 1138.63C1032 1152.92 1032.25 1154.9 1034.61 1157.89C1035.98 1159.63 1037.72 1161.12 1038.46 1161.12C1039.21 1161.12 1043.56 1162.24 1048.15 1163.6C1055.98 1165.96 1057.1 1166.71 1063.81 1174.79L1071.02 1183.48H1101.09C1127.06 1183.48 1131.28 1183.24 1131.9 1181.5C1132.28 1180.5 1131.78 1178.27 1130.66 1176.53C1128.8 1173.79 1128.8 1173.54 1130.79 1173.54C1131.9 1173.54 1136.87 1177.64 1141.84 1182.61C1156.51 1197.53 1173.28 1204.61 1194.16 1204.61C1215.03 1204.61 1231.81 1197.65 1246.72 1182.61C1255.42 1173.79 1261.13 1170.56 1258.15 1175.9C1257.53 1177.27 1256.91 1179.51 1256.91 1180.87V1183.48H1504.06C1726.23 1183.48 1751.21 1183.24 1751.95 1181.5C1752.33 1180.5 1751.83 1178.27 1750.71 1176.53C1746.61 1170.44 1751.83 1173.54 1760.9 1182.74C1775.31 1197.53 1792.09 1204.61 1812.84 1204.61C1833.96 1204.61 1849.87 1198.15 1864.91 1183.24C1874.35 1173.79 1878.2 1171.31 1876.34 1175.66C1875.84 1176.9 1875.34 1179.01 1875.22 1180.38C1875.09 1182.74 1875.96 1182.86 1896.96 1183.24L1918.96 1183.48L1924.55 1175.78C1927.53 1171.43 1931.13 1167.08 1932.38 1165.96C1933.74 1164.85 1940.7 1161.86 1948.03 1159.25C1955.37 1156.64 1962.2 1153.66 1963.19 1152.54C1965.18 1150.43 1967.67 1134.9 1967.67 1124.96C1967.67 1120.36 1967.05 1118.37 1965.18 1116.76C1962.7 1114.65 1962.7 1113.03 1962.7 949.754C1962.7 859.045 1958.67 805.608 1958.67 800.608C1956.43 794.892 1960.85 796.108 1803.67 796.108H1655.17L1618.17 799.608ZM1953.17 803.108C1954.91 803.854 1955.24 798.78 1955.24 917.074V1048.04H1950.15C1947.41 1048.04 1944.06 1048.66 1942.82 1049.29C1937.72 1052.02 1937.22 1055.13 1936.6 1085.32L1935.98 1114.52L1924.8 1114.89C1918.71 1115.14 1909.64 1114.89 1904.67 1114.52L1895.72 1113.65L1894.98 1108.68C1894.48 1105.95 1891.99 1099.49 1889.26 1094.27C1874.47 1064.57 1845.89 1046.92 1813.21 1046.8C1776.06 1046.8 1742.63 1071.4 1732.07 1106.69C1730.83 1110.67 1728.97 1114.15 1727.97 1114.52C1726.85 1114.77 1686.59 1115.02 1638.38 1114.77L1550.78 1114.52L1550.41 999.209L1550.16 884.021H1484.8H1419.44L1393.97 907.879C1339.66 958.825 1337.18 961.186 1335.19 960.192C1331.84 958.576 1324.38 959.322 1320.9 961.559C1316.92 964.168 1313.07 972.12 1312.08 980.073C1311.46 984.298 1310.21 986.783 1307.11 989.765C1304.75 992.002 1302.88 994.86 1302.88 996.102C1302.88 998.712 1307.85 1024.93 1318.42 1078.49C1322.14 1097.5 1324.75 1113.65 1324.26 1114.15C1323.63 1114.77 1313.2 1115.02 1301.02 1114.89L1278.9 1114.52L1276.17 1106.44C1270.2 1088.92 1262.87 1077.74 1249.83 1066.43C1234.17 1052.76 1216.28 1046.3 1194.16 1046.3C1169.68 1046.3 1151.66 1053.76 1134.39 1070.91C1123.33 1081.97 1117.86 1090.66 1112.89 1104.95L1109.54 1114.52H1095.5C1087.79 1114.65 1081.33 1114.27 1081.08 1113.78C1080.71 1113.4 1081.58 1105.57 1082.95 1096.38C1084.31 1087.18 1085.43 1078.49 1085.43 1076.87C1085.43 1073.27 1081.21 1069.17 1077.35 1069.17C1075.61 1069.17 1074.25 1068.67 1074.25 1068.05C1074.25 1065.44 1079.84 1053.39 1082.2 1050.9C1084.19 1048.79 1101.09 1043.69 1159.37 1027.54C1200.37 1016.23 1240.63 1005.17 1248.83 1002.81C1257.03 1000.58 1268.71 997.345 1274.68 995.73C1285.36 992.872 1285.98 992.499 1297.66 981.688C1304.37 975.6 1314.44 966.032 1320.28 960.44C1326.12 954.849 1339.54 942.298 1350.1 932.482C1360.66 922.666 1369.98 913.967 1370.6 913.098C1372.72 910.737 1407.76 878.554 1411.98 874.95L1416.21 871.595L1467.67 852.608L1522.17 831.608L1573.17 819.108L1618.17 808.108L1655.17 803.108H1806.38C1886.15 803.108 1952.05 802.736 1953.17 803.108ZM1542.7 941.801V992.126H1442.18H1341.65L1340.78 980.694C1339.91 969.635 1339.91 969.263 1342.77 966.902C1344.39 965.659 1350.23 960.192 1355.69 954.973C1361.16 949.754 1374.58 937.08 1385.52 926.89C1396.45 916.701 1409.37 904.648 1414.1 899.926L1422.79 891.477H1482.81H1542.7V941.801ZM1318.91 1002.56C1325.5 1009.65 1336.18 1009.9 1339.91 1003.19L1342.03 999.582H1442.43H1542.7V1072.77C1542.7 1138.38 1542.45 1145.96 1540.71 1146.7C1539.6 1147.08 1494.49 1147.45 1440.19 1147.45C1362.9 1147.45 1341.4 1147.08 1340.41 1145.83C1339.66 1145.09 1336.81 1132.29 1333.95 1117.63C1331.09 1102.96 1327.24 1082.83 1325.25 1072.89C1317.17 1032.39 1311.58 1002.81 1311.58 1001.32C1311.58 998.588 1315.93 999.333 1318.91 1002.56ZM1077.23 1078.49C1077.11 1079.11 1076.61 1082.83 1076.24 1086.56C1075.74 1090.29 1074.74 1097.87 1073.88 1103.34L1072.26 1113.28L1063.93 1113.65C1059.34 1113.9 1055.61 1113.65 1055.61 1113.28C1055.61 1112.91 1058.47 1105.82 1061.95 1097.37C1065.43 1089.05 1068.78 1080.97 1069.4 1079.36C1070.27 1077.12 1071.27 1076.5 1074 1076.87C1075.86 1077.12 1077.23 1077.74 1077.23 1078.49ZM1218.02 1081.59C1234.67 1089.79 1245.97 1105.33 1248.58 1123.22C1253.18 1155.03 1231.81 1182.61 1199.5 1186.59C1184.71 1188.45 1165.08 1181.12 1154.52 1169.82C1151.29 1166.34 1146.57 1159.25 1144.08 1154.04C1139.86 1144.96 1139.61 1143.85 1139.61 1132.04C1139.61 1122.1 1140.23 1118 1142.47 1112.41C1146.57 1101.85 1152.28 1094.14 1160.98 1087.56C1172.04 1079.11 1180.99 1076.5 1196.89 1076.99C1208.32 1077.37 1210.44 1077.86 1218.02 1081.59ZM1836.08 1081.22C1865.53 1095.14 1876.96 1129.93 1861.3 1158.63C1856.95 1166.71 1845.52 1177.27 1836.82 1181.37C1803.89 1197.03 1764.75 1176.4 1758.79 1140.12C1754.44 1113.65 1770.22 1087.43 1795.82 1078.98C1801.53 1077.12 1805.63 1076.75 1815.57 1076.99C1826.39 1077.37 1829.12 1077.99 1836.08 1081.22ZM1329.85 1136.76C1331.34 1144.22 1333.45 1151.18 1334.57 1152.3C1336.31 1154.04 1347.49 1154.28 1440.31 1154.66L1544.07 1154.9L1547.05 1151.92C1549.91 1148.94 1550.16 1147.95 1550.16 1135.64V1122.6H1639.38H1728.47L1728.59 1133.53C1728.72 1147.95 1731.82 1159.13 1740.03 1175.03C1740.27 1175.66 1634.16 1176.03 1504.31 1176.03C1374.33 1176.03 1268.09 1175.78 1268.09 1175.53C1268.09 1175.28 1269.46 1171.93 1271.2 1168.08C1275.55 1158.26 1279.27 1143.47 1280.14 1132.17L1280.89 1122.6C1280.89 1122.6 1294.98 1122.72 1304 1122.85C1313.03 1122.97 1327.11 1123.22 1327.11 1123.22L1329.85 1136.76Z"/>
</mask>
<path d="M1618.17 799.608L1573.17 810.108L1519.67 824.108L1465.17 845.108C1441.67 852.108 1413.6 864.637 1411.86 865.258C1410.12 866.004 1407.76 867.495 1406.39 868.862C1405.15 870.104 1395.46 879.175 1384.89 888.991C1374.33 898.808 1360.91 911.358 1355.07 916.95C1349.23 922.541 1340.04 931.239 1334.57 936.334C1329.23 941.304 1319.66 950.375 1313.45 956.215C1283.5 984.671 1282.26 985.665 1276.67 987.156C1273.68 987.901 1266.48 989.889 1260.64 991.505C1250.45 994.487 1192.54 1010.39 1161.85 1018.84C1153.65 1021.08 1140.48 1024.68 1132.65 1026.92C1099.35 1036.24 1083.19 1040.59 1082.32 1040.59C1081.21 1040.59 1073.01 1048.42 1073.01 1049.41C1073.01 1050.03 1071.39 1054.01 1069.53 1058.23C1067.54 1062.58 1061.57 1076.87 1056.23 1089.92C1049.02 1107.31 1045.79 1113.9 1044.3 1113.9C1040.08 1113.9 1034.73 1116.63 1033.37 1119.62C1032.62 1121.36 1032 1129.43 1032 1138.63C1032 1152.92 1032.25 1154.9 1034.61 1157.89C1035.98 1159.63 1037.72 1161.12 1038.46 1161.12C1039.21 1161.12 1043.56 1162.24 1048.15 1163.6C1055.98 1165.96 1057.1 1166.71 1063.81 1174.79L1071.02 1183.48H1101.09C1127.06 1183.48 1131.28 1183.24 1131.9 1181.5C1132.28 1180.5 1131.78 1178.27 1130.66 1176.53C1128.8 1173.79 1128.8 1173.54 1130.79 1173.54C1131.9 1173.54 1136.87 1177.64 1141.84 1182.61C1156.51 1197.53 1173.28 1204.61 1194.16 1204.61C1215.03 1204.61 1231.81 1197.65 1246.72 1182.61C1255.42 1173.79 1261.13 1170.56 1258.15 1175.9C1257.53 1177.27 1256.91 1179.51 1256.91 1180.87V1183.48H1504.06C1726.23 1183.48 1751.21 1183.24 1751.95 1181.5C1752.33 1180.5 1751.83 1178.27 1750.71 1176.53C1746.61 1170.44 1751.83 1173.54 1760.9 1182.74C1775.31 1197.53 1792.09 1204.61 1812.84 1204.61C1833.96 1204.61 1849.87 1198.15 1864.91 1183.24C1874.35 1173.79 1878.2 1171.31 1876.34 1175.66C1875.84 1176.9 1875.34 1179.01 1875.22 1180.38C1875.09 1182.74 1875.96 1182.86 1896.96 1183.24L1918.96 1183.48L1924.55 1175.78C1927.53 1171.43 1931.13 1167.08 1932.38 1165.96C1933.74 1164.85 1940.7 1161.86 1948.03 1159.25C1955.37 1156.64 1962.2 1153.66 1963.19 1152.54C1965.18 1150.43 1967.67 1134.9 1967.67 1124.96C1967.67 1120.36 1967.05 1118.37 1965.18 1116.76C1962.7 1114.65 1962.7 1113.03 1962.7 949.754C1962.7 859.045 1958.67 805.608 1958.67 800.608C1956.43 794.892 1960.85 796.108 1803.67 796.108H1655.17L1618.17 799.608ZM1953.17 803.108C1954.91 803.854 1955.24 798.78 1955.24 917.074V1048.04H1950.15C1947.41 1048.04 1944.06 1048.66 1942.82 1049.29C1937.72 1052.02 1937.22 1055.13 1936.6 1085.32L1935.98 1114.52L1924.8 1114.89C1918.71 1115.14 1909.64 1114.89 1904.67 1114.52L1895.72 1113.65L1894.98 1108.68C1894.48 1105.95 1891.99 1099.49 1889.26 1094.27C1874.47 1064.57 1845.89 1046.92 1813.21 1046.8C1776.06 1046.8 1742.63 1071.4 1732.07 1106.69C1730.83 1110.67 1728.97 1114.15 1727.97 1114.52C1726.85 1114.77 1686.59 1115.02 1638.38 1114.77L1550.78 1114.52L1550.41 999.209L1550.16 884.021H1484.8H1419.44L1393.97 907.879C1339.66 958.825 1337.18 961.186 1335.19 960.192C1331.84 958.576 1324.38 959.322 1320.9 961.559C1316.92 964.168 1313.07 972.12 1312.08 980.073C1311.46 984.298 1310.21 986.783 1307.11 989.765C1304.75 992.002 1302.88 994.86 1302.88 996.102C1302.88 998.712 1307.85 1024.93 1318.42 1078.49C1322.14 1097.5 1324.75 1113.65 1324.26 1114.15C1323.63 1114.77 1313.2 1115.02 1301.02 1114.89L1278.9 1114.52L1276.17 1106.44C1270.2 1088.92 1262.87 1077.74 1249.83 1066.43C1234.17 1052.76 1216.28 1046.3 1194.16 1046.3C1169.68 1046.3 1151.66 1053.76 1134.39 1070.91C1123.33 1081.97 1117.86 1090.66 1112.89 1104.95L1109.54 1114.52H1095.5C1087.79 1114.65 1081.33 1114.27 1081.08 1113.78C1080.71 1113.4 1081.58 1105.57 1082.95 1096.38C1084.31 1087.18 1085.43 1078.49 1085.43 1076.87C1085.43 1073.27 1081.21 1069.17 1077.35 1069.17C1075.61 1069.17 1074.25 1068.67 1074.25 1068.05C1074.25 1065.44 1079.84 1053.39 1082.2 1050.9C1084.19 1048.79 1101.09 1043.69 1159.37 1027.54C1200.37 1016.23 1240.63 1005.17 1248.83 1002.81C1257.03 1000.58 1268.71 997.345 1274.68 995.73C1285.36 992.872 1285.98 992.499 1297.66 981.688C1304.37 975.6 1314.44 966.032 1320.28 960.44C1326.12 954.849 1339.54 942.298 1350.1 932.482C1360.66 922.666 1369.98 913.967 1370.6 913.098C1372.72 910.737 1407.76 878.554 1411.98 874.95L1416.21 871.595L1467.67 852.608L1522.17 831.608L1573.17 819.108L1618.17 808.108L1655.17 803.108H1806.38C1886.15 803.108 1952.05 802.736 1953.17 803.108ZM1542.7 941.801V992.126H1442.18H1341.65L1340.78 980.694C1339.91 969.635 1339.91 969.263 1342.77 966.902C1344.39 965.659 1350.23 960.192 1355.69 954.973C1361.16 949.754 1374.58 937.08 1385.52 926.89C1396.45 916.701 1409.37 904.648 1414.1 899.926L1422.79 891.477H1482.81H1542.7V941.801ZM1318.91 1002.56C1325.5 1009.65 1336.18 1009.9 1339.91 1003.19L1342.03 999.582H1442.43H1542.7V1072.77C1542.7 1138.38 1542.45 1145.96 1540.71 1146.7C1539.6 1147.08 1494.49 1147.45 1440.19 1147.45C1362.9 1147.45 1341.4 1147.08 1340.41 1145.83C1339.66 1145.09 1336.81 1132.29 1333.95 1117.63C1331.09 1102.96 1327.24 1082.83 1325.25 1072.89C1317.17 1032.39 1311.58 1002.81 1311.58 1001.32C1311.58 998.588 1315.93 999.333 1318.91 1002.56ZM1077.23 1078.49C1077.11 1079.11 1076.61 1082.83 1076.24 1086.56C1075.74 1090.29 1074.74 1097.87 1073.88 1103.34L1072.26 1113.28L1063.93 1113.65C1059.34 1113.9 1055.61 1113.65 1055.61 1113.28C1055.61 1112.91 1058.47 1105.82 1061.95 1097.37C1065.43 1089.05 1068.78 1080.97 1069.4 1079.36C1070.27 1077.12 1071.27 1076.5 1074 1076.87C1075.86 1077.12 1077.23 1077.74 1077.23 1078.49ZM1218.02 1081.59C1234.67 1089.79 1245.97 1105.33 1248.58 1123.22C1253.18 1155.03 1231.81 1182.61 1199.5 1186.59C1184.71 1188.45 1165.08 1181.12 1154.52 1169.82C1151.29 1166.34 1146.57 1159.25 1144.08 1154.04C1139.86 1144.96 1139.61 1143.85 1139.61 1132.04C1139.61 1122.1 1140.23 1118 1142.47 1112.41C1146.57 1101.85 1152.28 1094.14 1160.98 1087.56C1172.04 1079.11 1180.99 1076.5 1196.89 1076.99C1208.32 1077.37 1210.44 1077.86 1218.02 1081.59ZM1836.08 1081.22C1865.53 1095.14 1876.96 1129.93 1861.3 1158.63C1856.95 1166.71 1845.52 1177.27 1836.82 1181.37C1803.89 1197.03 1764.75 1176.4 1758.79 1140.12C1754.44 1113.65 1770.22 1087.43 1795.82 1078.98C1801.53 1077.12 1805.63 1076.75 1815.57 1076.99C1826.39 1077.37 1829.12 1077.99 1836.08 1081.22ZM1329.85 1136.76C1331.34 1144.22 1333.45 1151.18 1334.57 1152.3C1336.31 1154.04 1347.49 1154.28 1440.31 1154.66L1544.07 1154.9L1547.05 1151.92C1549.91 1148.94 1550.16 1147.95 1550.16 1135.64V1122.6H1639.38H1728.47L1728.59 1133.53C1728.72 1147.95 1731.82 1159.13 1740.03 1175.03C1740.27 1175.66 1634.16 1176.03 1504.31 1176.03C1374.33 1176.03 1268.09 1175.78 1268.09 1175.53C1268.09 1175.28 1269.46 1171.93 1271.2 1168.08C1275.55 1158.26 1279.27 1143.47 1280.14 1132.17L1280.89 1122.6C1280.89 1122.6 1294.98 1122.72 1304 1122.85C1313.03 1122.97 1327.11 1123.22 1327.11 1123.22L1329.85 1136.76Z" fill="black" stroke="black" stroke-width="0.2" mask="url(#path-7-inside-1_239_1431)"/>
<path d="M1566.86 994.008L1566.86 994.008L1566.85 994.013C1566.61 994.5 1566.49 995.175 1566.49 995.854C1566.49 996.533 1566.61 997.208 1566.85 997.696L1566.86 997.695L1566.86 997.7C1566.89 997.78 1566.99 997.869 1567.22 997.958C1567.45 998.047 1567.79 998.132 1568.27 998.212C1569.23 998.372 1570.77 998.514 1573.1 998.637C1577.78 998.883 1585.67 999.058 1598.68 999.175C1624.71 999.408 1671.25 999.408 1753.57 999.283L1939.66 998.911V995.854V992.797L1753.57 992.425C1671.25 992.301 1624.71 992.301 1598.68 992.534C1585.67 992.65 1577.78 992.825 1573.1 993.071C1570.77 993.195 1569.23 993.336 1568.27 993.496C1567.79 993.576 1567.45 993.661 1567.22 993.75C1566.99 993.839 1566.89 993.928 1566.86 994.008Z" fill="black" stroke="black" stroke-width="0.1"/>
<path d="M1493.04 1018.07L1493.04 1018.07L1493.04 1018.07C1493.38 1018.72 1493.68 1019.2 1494.21 1019.56C1494.73 1019.92 1495.49 1020.15 1496.76 1020.3C1499.31 1020.59 1503.87 1020.53 1512.63 1020.41L1530.85 1020.04L1531.22 1014.74L1531.22 1014.74L1531.59 1009.57H1512.38H1493.04L1492.3 1012.52C1492.3 1012.52 1492.3 1012.52 1492.3 1012.52C1492.12 1013.32 1492.09 1014.37 1492.21 1015.39C1492.33 1016.41 1492.61 1017.39 1493.04 1018.07Z" fill="black" stroke="black" stroke-width="0.1"/>
<path d="M1175.91 1084.75C1171.01 1086.54 1164.86 1090.76 1159.94 1095.17C1157.48 1097.38 1155.33 1099.63 1153.79 1101.64C1153.02 1102.65 1152.41 1103.6 1151.99 1104.45C1151.57 1105.31 1151.34 1106.07 1151.34 1106.69C1151.34 1107.4 1151.46 1107.99 1151.83 1108.53C1152.21 1109.08 1152.83 1109.59 1153.84 1110.13C1155.87 1111.21 1159.44 1112.42 1165.59 1114.35C1170.32 1115.81 1174.03 1116.79 1176.95 1117.14C1179.87 1117.5 1181.98 1117.24 1183.51 1116.23C1185.03 1115.23 1185.97 1113.47 1186.53 1110.8C1187.1 1108.14 1187.27 1104.58 1187.27 1099.98C1187.27 1095.76 1187.18 1092.47 1186.89 1089.96C1186.59 1087.46 1186.1 1085.75 1185.3 1084.68C1184.5 1083.62 1183.4 1083.18 1181.87 1083.24C1180.34 1083.3 1178.39 1083.84 1175.91 1084.75Z" fill="black" stroke="black" stroke-width="0.1"/>
<path d="M1202.65 1113.88L1202.65 1113.88L1202.65 1113.88C1203.76 1116.15 1206.01 1117.3 1209.52 1117.33C1213.04 1117.36 1217.81 1116.28 1223.96 1114.1L1223.96 1114.1C1230.06 1111.99 1233.31 1110.81 1235.04 1109.77C1235.91 1109.25 1236.39 1108.77 1236.66 1108.24C1236.92 1107.7 1236.98 1107.1 1236.98 1106.32C1236.98 1105.85 1236.8 1105.26 1236.47 1104.58C1236.14 1103.89 1235.66 1103.12 1235.05 1102.29C1233.84 1100.62 1232.13 1098.71 1230.16 1096.79C1226.22 1092.94 1221.22 1089.03 1217 1086.86L1217 1086.86C1212.9 1084.74 1209.86 1083.54 1207.55 1083.15C1205.25 1082.76 1203.68 1083.2 1202.52 1084.36C1202.4 1084.48 1202.29 1084.68 1202.18 1084.96C1202.07 1085.24 1201.97 1085.59 1201.88 1086.01C1201.69 1086.85 1201.54 1087.94 1201.42 1089.21C1201.17 1091.76 1201.05 1095.01 1201.06 1098.32C1201.07 1101.64 1201.2 1105.02 1201.47 1107.82C1201.6 1109.23 1201.77 1110.49 1201.96 1111.52C1202.16 1112.56 1202.39 1113.37 1202.65 1113.88Z" fill="black" stroke="black" stroke-width="0.1"/>
<path d="M1190.48 1117.64L1190.48 1117.64C1189.92 1119.37 1190.11 1120.69 1190.89 1121.49C1191.66 1122.3 1193.04 1122.61 1194.9 1122.3L1194.9 1122.3L1194.9 1122.3C1196.01 1122.18 1196.74 1121.9 1197.2 1121.37C1197.65 1120.84 1197.84 1120.05 1197.84 1118.87C1197.84 1116.79 1196.31 1115.5 1194.62 1115.22C1192.93 1114.95 1191.09 1115.68 1190.48 1117.64Z" fill="black" stroke="black" stroke-width="0.1"/>
<path d="M1179.17 1125.72L1179.17 1125.72L1179.17 1125.72C1178.55 1127.26 1178.68 1128.64 1179.35 1129.64C1180.02 1130.63 1181.25 1131.25 1182.85 1131.25C1184.51 1131.25 1185.8 1130.45 1186.41 1129.35C1187.02 1128.25 1186.96 1126.84 1185.92 1125.61L1185.92 1125.61L1185.92 1125.61C1185 1124.44 1183.52 1123.89 1182.17 1123.92C1180.81 1123.95 1179.59 1124.57 1179.17 1125.72Z" fill="black" stroke="black" stroke-width="0.1"/>
<path d="M1203.14 1124.74L1203.14 1124.74L1203.13 1124.75C1203.02 1124.84 1202.91 1125 1202.8 1125.24C1202.7 1125.48 1202.61 1125.78 1202.53 1126.12C1202.38 1126.8 1202.28 1127.63 1202.28 1128.44C1202.28 1129.55 1202.47 1130.25 1202.92 1130.67C1203.37 1131.09 1204.1 1131.25 1205.22 1131.25C1207.26 1131.25 1208.89 1130.47 1209.74 1129.4C1210.17 1128.86 1210.41 1128.25 1210.41 1127.63C1210.41 1127 1210.17 1126.35 1209.65 1125.74L1209.65 1125.74L1209.65 1125.74C1208.85 1124.75 1207.56 1124.14 1206.3 1123.95C1205.03 1123.77 1203.81 1124.02 1203.14 1124.74Z" fill="black" stroke="black" stroke-width="0.1"/>
<path d="M1144.5 1127.71L1144.5 1127.71C1144.13 1128.85 1143.99 1130.47 1144.05 1132.4C1144.11 1134.32 1144.37 1136.54 1144.8 1138.87C1145.65 1143.52 1147.17 1148.61 1149.1 1152.65L1149.1 1152.65C1151.21 1157.24 1152.88 1160.28 1154.42 1162.17C1155.95 1164.06 1157.34 1164.8 1158.87 1164.8C1159.03 1164.8 1159.25 1164.72 1159.52 1164.56C1159.79 1164.4 1160.1 1164.17 1160.45 1163.87C1161.15 1163.27 1162 1162.42 1162.93 1161.37C1164.8 1159.29 1167.02 1156.47 1169.16 1153.52C1171.29 1150.58 1173.34 1147.52 1174.85 1144.95C1175.6 1143.67 1176.23 1142.51 1176.66 1141.55C1177.09 1140.59 1177.33 1139.84 1177.33 1139.37C1177.33 1138.36 1177.12 1137.45 1176.61 1136.59C1176.1 1135.74 1175.29 1134.94 1174.11 1134.13C1171.74 1132.52 1167.86 1130.91 1161.83 1128.86C1155.25 1126.62 1151.18 1125.47 1148.63 1125.32C1147.35 1125.24 1146.46 1125.41 1145.82 1125.81C1145.18 1126.21 1144.78 1126.84 1144.5 1127.71Z" fill="black" stroke="black" stroke-width="0.1"/>
<path d="M1225.86 1128.86C1220.64 1130.72 1216.92 1132.46 1214.5 1134.24C1212.09 1136.02 1210.98 1137.84 1210.98 1139.87C1210.98 1140.07 1211.04 1140.35 1211.16 1140.69C1211.28 1141.03 1211.46 1141.43 1211.68 1141.88C1212.13 1142.79 1212.78 1143.91 1213.56 1145.16C1215.13 1147.66 1217.24 1150.67 1219.44 1153.59C1221.64 1156.5 1223.91 1159.3 1225.81 1161.38C1226.75 1162.42 1227.6 1163.28 1228.29 1163.87C1228.64 1164.17 1228.95 1164.4 1229.2 1164.56C1229.47 1164.72 1229.67 1164.8 1229.82 1164.8C1230.54 1164.8 1231.31 1164.48 1232.11 1163.89C1232.92 1163.3 1233.75 1162.45 1234.58 1161.39C1236.26 1159.26 1237.93 1156.3 1239.41 1152.97C1242.35 1146.31 1244.49 1138.18 1244.18 1132.29C1244.09 1130.71 1244.01 1129.51 1243.89 1128.59C1243.77 1127.67 1243.61 1127.05 1243.35 1126.62C1243.1 1126.19 1242.74 1125.94 1242.23 1125.79C1241.71 1125.63 1241.03 1125.57 1240.13 1125.51C1239.64 1125.47 1238.87 1125.54 1237.89 1125.7C1236.92 1125.85 1235.74 1126.09 1234.45 1126.39C1231.85 1127 1228.78 1127.86 1225.86 1128.86Z" fill="black" stroke="black" stroke-width="0.1"/>
<path d="M1184.38 1144.18L1184.38 1144.18L1184.38 1144.18C1185.66 1145.53 1187.38 1145.63 1188.71 1144.92C1190.05 1144.21 1191 1142.71 1190.75 1140.87L1190.75 1140.87C1190.57 1139.34 1189.44 1138.3 1188.06 1137.93C1186.67 1137.56 1185.05 1137.87 1183.88 1139.04C1182.88 1140.03 1182.44 1140.73 1182.51 1141.46C1182.55 1141.83 1182.72 1142.22 1183.03 1142.66C1183.34 1143.1 1183.79 1143.59 1184.38 1144.18Z" fill="black" stroke="black" stroke-width="0.1"/>
<path d="M1204.19 1144.3L1204.19 1144.3C1205.13 1143.62 1205.64 1143.1 1205.79 1142.53C1205.94 1141.96 1205.73 1141.32 1205.17 1140.39C1204.31 1138.97 1203.2 1138.14 1202.07 1137.91C1200.94 1137.69 1199.77 1138.05 1198.79 1139.03C1197.87 1139.96 1197.48 1140.95 1197.48 1141.86C1197.47 1142.77 1197.86 1143.62 1198.5 1144.24C1199.77 1145.5 1202.04 1145.9 1204.19 1144.3Z" fill="black" stroke="black" stroke-width="0.1"/>
<path d="M1187.21 1181.07L1187.21 1181.07C1191.24 1181.88 1196.83 1181.76 1201.92 1181.01C1204.46 1180.64 1206.88 1180.11 1208.92 1179.47C1210.96 1178.82 1212.62 1178.07 1213.64 1177.23L1213.64 1177.23L1216.46 1175.02L1210.27 1166.12L1210.27 1166.12C1207.48 1162.05 1205.1 1158.82 1203.02 1156.34C1200.94 1153.87 1199.16 1152.15 1197.55 1151.09C1195.94 1150.04 1194.51 1149.66 1193.13 1149.85C1191.74 1150.04 1190.4 1150.81 1188.97 1152.08C1186.8 1154.07 1182.99 1159.1 1179.71 1163.96C1178.07 1166.39 1176.57 1168.77 1175.48 1170.72C1174.93 1171.69 1174.49 1172.55 1174.18 1173.24C1174.03 1173.59 1173.91 1173.9 1173.83 1174.16C1173.75 1174.42 1173.71 1174.63 1173.71 1174.79C1173.71 1175.49 1173.91 1176.12 1174.38 1176.69C1174.85 1177.26 1175.58 1177.79 1176.63 1178.28C1178.73 1179.27 1182.11 1180.14 1187.21 1181.07Z" fill="black" stroke="black" stroke-width="0.1"/>
<path d="M1794.34 1084.87L1794.34 1084.87C1788.89 1086.79 1782.31 1091.6 1777.43 1096.48C1775 1098.91 1772.99 1101.36 1771.76 1103.48C1771.14 1104.53 1770.73 1105.5 1770.55 1106.34C1770.37 1107.18 1770.43 1107.88 1770.76 1108.41C1770.85 1108.55 1771.01 1108.71 1771.24 1108.88C1771.47 1109.06 1771.77 1109.26 1772.13 1109.46C1772.84 1109.87 1773.78 1110.33 1774.89 1110.82C1777.11 1111.79 1779.98 1112.87 1782.99 1113.87C1785.99 1114.87 1789.13 1115.8 1791.86 1116.47C1794.59 1117.15 1796.91 1117.58 1798.3 1117.58C1799.92 1117.58 1801.2 1117.37 1802.23 1116.82C1803.25 1116.27 1804.02 1115.39 1804.59 1114.02C1805.17 1112.65 1805.54 1110.81 1805.77 1108.34C1806 1105.88 1806.08 1102.81 1806.08 1098.99C1806.08 1094.76 1806.02 1091.53 1805.76 1089.11C1805.5 1086.69 1805.03 1085.1 1804.24 1084.16C1803.46 1083.22 1802.34 1082.91 1800.74 1083.08C1799.13 1083.26 1797.05 1083.91 1794.34 1084.87Z" fill="black" stroke="black" stroke-width="0.1"/>
<path d="M1821.95 1083.74L1821.95 1083.74L1821.94 1083.74C1821.92 1083.76 1821.9 1083.8 1821.87 1083.87C1821.84 1083.94 1821.81 1084.03 1821.78 1084.15C1821.72 1084.39 1821.67 1084.72 1821.62 1085.14C1821.51 1085.97 1821.42 1087.12 1821.34 1088.52C1821.19 1091.32 1821.09 1095.07 1821.09 1099.11C1821.09 1104.3 1821.21 1108.26 1821.72 1111.16C1822.23 1114.07 1823.12 1115.9 1824.67 1116.87C1826.22 1117.84 1828.44 1117.94 1831.62 1117.34C1834.8 1116.74 1838.92 1115.44 1844.26 1113.6L1844.26 1113.6C1849.24 1111.93 1852.12 1110.84 1853.76 1109.88C1854.58 1109.4 1855.08 1108.95 1855.39 1108.49C1855.69 1108.02 1855.79 1107.52 1855.79 1106.94C1855.79 1105.62 1855.2 1104.04 1854.15 1102.32C1853.09 1100.6 1851.57 1098.74 1849.71 1096.88C1845.99 1093.16 1840.9 1089.4 1835.43 1086.61C1831.89 1084.81 1828.95 1083.66 1826.67 1083.18C1824.39 1082.7 1822.8 1082.89 1821.95 1083.74Z" fill="black" stroke="black" stroke-width="0.1"/>
<path d="M1813.46 1122.3L1813.46 1122.3C1814.7 1122.18 1815.49 1121.93 1815.97 1121.41C1816.46 1120.9 1816.64 1120.11 1816.64 1118.87C1816.64 1117.09 1815.6 1115.87 1814.26 1115.44C1812.91 1115.01 1811.25 1115.38 1810.02 1116.79C1808.92 1118.2 1808.86 1119.7 1809.53 1120.79C1810.2 1121.87 1811.61 1122.55 1813.46 1122.3Z" fill="black" stroke="black" stroke-width="0.1"/>
<path d="M1797.98 1125.72L1797.98 1125.72L1797.98 1125.72C1797.36 1127.26 1797.49 1128.64 1798.16 1129.64C1798.83 1130.63 1800.06 1131.25 1801.66 1131.25C1803.32 1131.25 1804.61 1130.45 1805.22 1129.35C1805.83 1128.25 1805.77 1126.84 1804.73 1125.61L1804.73 1125.61L1804.73 1125.61C1803.8 1124.44 1802.33 1123.89 1800.98 1123.92C1799.62 1123.95 1798.4 1124.57 1797.98 1125.72Z" fill="black" stroke="black" stroke-width="0.1"/>
<path d="M1821.59 1125.72L1821.59 1125.72L1821.59 1125.72C1820.97 1127.26 1821.1 1128.64 1821.77 1129.64C1822.44 1130.63 1823.66 1131.25 1825.27 1131.25C1826.93 1131.25 1828.22 1130.45 1828.83 1129.35C1829.44 1128.25 1829.38 1126.84 1828.34 1125.61L1828.34 1125.61L1828.33 1125.61C1827.41 1124.44 1825.94 1123.89 1824.59 1123.92C1823.23 1123.95 1822.01 1124.57 1821.59 1125.72Z" fill="black" stroke="black" stroke-width="0.1"/>
<path d="M1763.18 1128.2C1762.91 1129.37 1762.88 1131.13 1763.04 1133.22C1763.21 1135.31 1763.57 1137.73 1764.09 1140.23C1765.11 1145.23 1766.73 1150.54 1768.52 1154.14C1770.51 1158.05 1772.09 1160.72 1773.53 1162.41C1774.97 1164.09 1776.27 1164.8 1777.67 1164.8C1777.84 1164.8 1778.06 1164.72 1778.33 1164.56C1778.6 1164.4 1778.91 1164.17 1779.26 1163.87C1779.96 1163.27 1780.8 1162.42 1781.74 1161.37C1783.6 1159.28 1785.83 1156.46 1787.96 1153.51C1790.1 1150.56 1792.14 1147.48 1793.66 1144.9C1794.41 1143.61 1795.03 1142.44 1795.47 1141.47C1795.9 1140.5 1796.14 1139.73 1796.14 1139.25C1796.14 1137.22 1794.88 1135.37 1792.15 1133.57C1789.43 1131.78 1785.24 1130.04 1779.4 1128.24C1776.14 1127.24 1773.55 1126.5 1771.49 1126C1769.44 1125.5 1767.91 1125.26 1766.76 1125.26C1765.61 1125.26 1764.84 1125.5 1764.3 1125.99C1763.76 1126.48 1763.43 1127.21 1763.18 1128.2Z" fill="black" stroke="black" stroke-width="0.1"/>
<path d="M1844.29 1129.11L1844.29 1129.11C1838.02 1131.22 1834.05 1133.08 1831.96 1135.11C1830.92 1136.12 1830.35 1137.17 1830.19 1138.31C1830.03 1139.45 1830.28 1140.69 1830.9 1142.09C1832.39 1145.31 1836.3 1150.99 1840.11 1155.87C1842.01 1158.31 1843.88 1160.54 1845.41 1162.17C1846.18 1162.98 1846.86 1163.64 1847.41 1164.1C1847.69 1164.32 1847.93 1164.5 1848.14 1164.62C1848.34 1164.74 1848.51 1164.8 1848.63 1164.8C1849.26 1164.8 1850.04 1164.42 1850.91 1163.71C1851.79 1163 1852.74 1161.98 1853.73 1160.7C1855.7 1158.14 1857.78 1154.57 1859.52 1150.54L1859.52 1150.54C1861.5 1146.19 1862.37 1141.6 1862.49 1135.02L1862.62 1125.75L1858.94 1125.51C1857.95 1125.51 1855.81 1125.88 1853.16 1126.51C1850.5 1127.15 1847.34 1128.05 1844.29 1129.11Z" fill="black" stroke="black" stroke-width="0.1"/>
<path d="M1802.57 1139.89L1802.57 1139.89C1802.07 1140.82 1801.86 1141.53 1801.95 1142.18C1802.04 1142.83 1802.44 1143.44 1803.18 1144.18L1803.18 1144.18L1803.18 1144.18C1804.47 1145.53 1806.19 1145.63 1807.52 1144.92C1808.85 1144.21 1809.8 1142.71 1809.56 1140.87C1809.31 1139.03 1808 1137.96 1806.53 1137.76C1805.05 1137.56 1803.43 1138.23 1802.57 1139.89Z" fill="black" stroke="black" stroke-width="0.1"/>
<path d="M1818.46 1144.8L1818.46 1144.8L1818.46 1144.8C1819.93 1145.59 1821.62 1145.35 1822.86 1144.49C1824.11 1143.63 1824.9 1142.16 1824.6 1140.5C1824.48 1139.93 1824.05 1139.39 1823.45 1138.94C1822.84 1138.49 1822.07 1138.12 1821.25 1137.88C1820.43 1137.64 1819.57 1137.53 1818.81 1137.59C1818.06 1137.64 1817.4 1137.87 1816.98 1138.29C1816.19 1139.14 1815.97 1140.46 1816.25 1141.72C1816.52 1142.99 1817.29 1144.18 1818.46 1144.8Z" fill="black" stroke="black" stroke-width="0.1"/>
<path d="M1792.71 1175.41L1792.71 1175.41L1792.71 1175.41ZM1792.76 1175.4L1792.76 1175.4C1792.82 1175.89 1792.99 1176.32 1793.32 1176.71C1793.66 1177.1 1794.16 1177.47 1794.89 1177.83C1796.36 1178.56 1798.75 1179.27 1802.54 1180.21C1806.7 1181.2 1809.37 1181.73 1811.96 1181.83C1814.55 1181.94 1817.06 1181.63 1820.91 1180.95L1820.91 1180.95C1823.33 1180.58 1825.84 1179.96 1827.94 1179.27C1828.99 1178.93 1829.93 1178.58 1830.7 1178.23C1831.47 1177.88 1832.07 1177.54 1832.44 1177.23L1832.44 1177.23L1835.26 1175.02L1829.08 1166.12L1829.08 1166.12C1823.86 1158.47 1820.17 1153.85 1817.11 1151.56C1815.59 1150.41 1814.23 1149.85 1812.92 1149.78C1811.61 1149.71 1810.35 1150.14 1809.02 1150.97C1808.6 1151.23 1808.03 1151.77 1807.35 1152.52C1806.66 1153.27 1805.87 1154.23 1805.02 1155.33C1803.31 1157.52 1801.34 1160.28 1799.49 1163.06C1797.65 1165.83 1795.91 1168.61 1794.67 1170.86C1794.05 1171.98 1793.55 1172.97 1793.21 1173.75C1793.04 1174.14 1792.92 1174.48 1792.84 1174.76C1792.77 1175.04 1792.74 1175.26 1792.76 1175.4Z" fill="black" stroke="black" stroke-width="0.1"/>
</svg>
