<svg width="1190" height="560" viewBox="0 0 1190 560" fill="none" xmlns="http://www.w3.org/2000/svg">
<path d="M325.009 403.63H170.949V513.348H325.009V403.63Z" fill="#2D2D2D"/>
<path d="M960.731 403.63H806.671V513.348H960.731V403.63Z" fill="#2D2D2D"/>
<path fill-rule="evenodd" clip-rule="evenodd" d="M1109.79 478.909H1102.09V453.398H1093.09V478.909V504.417H1109.79V478.909Z" fill="black"/>
<path fill-rule="evenodd" clip-rule="evenodd" d="M958.587 520.378C974.215 508.834 984.921 493.141 991.254 473.769C1028.94 469.487 1066.62 465.204 1104.3 460.921C1104.3 449.022 1104.3 419.476 1104.3 407.577H902.776C915.429 410.908 927.066 417.543 936.512 426.989C950.562 441.04 958.386 459.93 958.386 479.804C958.386 494.361 954.188 508.392 946.42 520.375H958.587V520.378ZM864.627 407.577H267.054C279.706 410.908 291.344 417.543 300.793 426.989C314.843 441.04 322.667 459.93 322.667 479.804C322.667 494.361 318.469 508.392 310.701 520.375H820.983C813.216 508.388 809.017 494.361 809.017 479.804C809.017 459.93 816.841 441.04 830.891 426.989C840.34 417.543 851.978 410.911 864.627 407.577Z" fill="#505050" stroke="black" stroke-width="10" stroke-miterlimit="22.9256" stroke-linecap="round" stroke-linejoin="round"/>
<path d="M1184.32 5H318.097V407.577H1184.32V5Z" fill="white" stroke="black" stroke-width="10" stroke-miterlimit="22.9256" stroke-linecap="round" stroke-linejoin="round"/>
<path fill-rule="evenodd" clip-rule="evenodd" d="M185.26 520.378H29.5918C29.5918 458.653 29.5918 396.928 29.5918 335.203C55.4165 275.542 81.2378 215.881 107.063 156.22C108.185 153.626 110.601 152.038 113.429 152.038C120.352 152.038 127.278 152.038 134.197 152.038C134.338 151.857 157.579 138.456 159.422 138.456C216.098 138.456 261.421 138.456 318.097 138.456C318.046 234.046 318.147 311.99 318.097 407.58L298.565 424.858C284.776 412.155 266.822 405.118 247.977 405.118C228.104 405.118 209.215 412.942 195.165 426.993C181.115 441.043 173.291 459.933 173.291 479.808C173.295 494.364 177.493 508.391 185.26 520.378Z" fill="white" stroke="black" stroke-width="10" stroke-miterlimit="22.9256" stroke-linecap="round" stroke-linejoin="round"/>
<path fill-rule="evenodd" clip-rule="evenodd" d="M52.1629 460H29.5918V405.858H42.4522C47.8001 405.858 52.1629 410.221 52.1629 415.569V460Z" fill="#C8C8C8" stroke="black" stroke-width="10" stroke-miterlimit="22.9256" stroke-linecap="round" stroke-linejoin="round"/>
<path fill-rule="evenodd" clip-rule="evenodd" d="M12.8912 460H52.1627V520.378H12.8912C8.55186 520.378 5 516.826 5 512.486V467.895C5 463.552 8.55186 460 12.8912 460Z" fill="#505050" stroke="black" stroke-width="10" stroke-miterlimit="22.9256" stroke-linecap="round" stroke-linejoin="round"/>
<path fill-rule="evenodd" clip-rule="evenodd" d="M95.7971 182.247L103.45 182.223C104.898 182.217 106.141 182.887 106.939 184.093C107.736 185.303 107.857 186.71 107.284 188.037L47.7364 325.609C46.8083 327.75 45.2334 329.255 43.0554 330.082L29.5918 335.199L95.7971 182.247Z" fill="#C8C8C8" stroke="black" stroke-width="10" stroke-miterlimit="22.9256" stroke-linecap="round" stroke-linejoin="round"/>
<path fill-rule="evenodd" clip-rule="evenodd" d="M62.6611 329.543L126.457 182.153H273.206V286.201L62.6611 329.543Z" fill="#C8C8C8" stroke="black" stroke-width="10" stroke-miterlimit="22.9256" stroke-linecap="round" stroke-linejoin="round"/>
<path fill-rule="evenodd" clip-rule="evenodd" d="M273.203 286.201L62.6611 329.543V460H150.218C159.402 414.403 199.682 380.066 247.984 380.066H273.206L273.203 286.201Z" fill="white" stroke="black" stroke-width="10" stroke-miterlimit="22.9256" stroke-linecap="round" stroke-linejoin="round"/>
<path fill-rule="evenodd" clip-rule="evenodd" d="M210.224 349.826H238.005C239.892 349.826 241.437 351.368 241.437 353.258V361.963C241.437 363.85 239.892 365.395 238.005 365.395H210.224C208.337 365.395 206.796 363.853 206.796 361.963V353.258C206.796 351.371 208.337 349.826 210.224 349.826Z" fill="black"/>
<path d="M158.601 408.234H80.4333C79.1198 408.234 78.0576 407.172 78.0576 405.858C78.0576 404.544 79.1198 403.482 80.4333 403.482H158.601C159.915 403.482 160.977 404.544 160.977 405.858C160.977 407.172 159.915 408.234 158.601 408.234Z" fill="black"/>
<path fill-rule="evenodd" clip-rule="evenodd" d="M296.621 405.875C299.77 405.875 302.34 404.025 302.34 401.76C302.34 399.495 299.77 397.645 296.621 397.645C293.471 397.645 290.897 399.495 290.897 401.76C290.897 404.025 293.471 405.875 296.621 405.875Z" fill="#F58220"/>
<path d="M143.995 502.403H68.8835C67.57 502.403 66.5078 501.341 66.5078 500.027V494.424C66.5078 493.111 67.57 492.049 68.8835 492.049C70.1971 492.049 71.2593 493.111 71.2593 494.424V497.651H141.62V494.424C141.62 493.111 142.682 492.049 143.995 492.049C145.309 492.049 146.371 493.111 146.371 494.424V500.027C146.371 501.338 145.305 502.403 143.995 502.403Z" fill="black"/>
<path fill-rule="evenodd" clip-rule="evenodd" d="M247.984 548.982C286.083 548.982 317.155 517.908 317.155 479.808C317.155 441.707 286.083 410.633 247.984 410.633C209.886 410.633 178.813 441.71 178.813 479.808C178.81 517.905 209.886 548.982 247.984 548.982Z" fill="black"/>
<path d="M294.206 483.098C296.02 457.58 276.805 435.423 251.288 433.609C225.771 431.795 203.615 451.011 201.802 476.53C199.988 502.048 219.203 524.205 244.72 526.019C270.237 527.832 292.393 508.616 294.206 483.098Z" fill="white"/>
<path fill-rule="evenodd" clip-rule="evenodd" d="M247.984 495.316C256.525 495.316 263.492 488.349 263.492 479.808C263.492 471.266 256.525 464.299 247.984 464.299C239.443 464.299 232.477 471.266 232.477 479.808C232.473 488.349 239.44 495.316 247.984 495.316Z" fill="black"/>
<path fill-rule="evenodd" clip-rule="evenodd" d="M247.981 487.294C252.106 487.294 255.47 483.929 255.47 479.804C255.47 475.679 252.106 472.318 247.981 472.318C243.856 472.318 240.492 475.683 240.492 479.804C240.492 483.926 243.86 487.294 247.981 487.294Z" fill="white" stroke="black" stroke-width="10" stroke-miterlimit="22.9256" stroke-linecap="round" stroke-linejoin="round"/>
<path d="M257.807 520.921C280.493 515.495 294.486 492.705 289.06 470.018C283.635 447.331 260.846 433.338 238.16 438.764C215.475 444.189 201.482 466.979 206.908 489.666C212.333 512.353 235.122 526.346 257.807 520.921Z" stroke="black" stroke-width="10" stroke-miterlimit="22.9256" stroke-linecap="round" stroke-linejoin="round"/>
<path d="M247.981 449.769C251.933 449.769 255.138 447.98 255.138 445.772C255.138 443.564 251.933 441.774 247.981 441.774C244.028 441.774 240.823 443.564 240.823 445.772C240.823 447.98 244.028 449.769 247.981 449.769Z" fill="black"/>
<path fill-rule="evenodd" clip-rule="evenodd" d="M221.968 464.789C219.991 468.213 216.838 470.093 214.928 468.987C213.018 467.885 213.068 464.212 215.045 460.791C217.022 457.366 220.175 455.486 222.089 456.589C223.995 457.694 223.945 461.364 221.968 464.789Z" fill="black"/>
<path fill-rule="evenodd" clip-rule="evenodd" d="M221.968 494.827C223.945 498.251 223.996 501.921 222.086 503.027C220.172 504.129 217.019 502.249 215.042 498.828C213.065 495.403 213.015 491.734 214.925 490.628C216.838 489.522 219.991 491.402 221.968 494.827Z" fill="black"/>
<path fill-rule="evenodd" clip-rule="evenodd" d="M247.981 509.846C251.935 509.846 255.138 511.635 255.138 513.843C255.138 516.052 251.935 517.841 247.981 517.841C244.027 517.841 240.823 516.052 240.823 513.843C240.823 511.635 244.027 509.846 247.981 509.846Z" fill="black"/>
<path fill-rule="evenodd" clip-rule="evenodd" d="M273.993 494.827C275.97 491.402 279.123 489.522 281.033 490.628C282.943 491.731 282.893 495.403 280.916 498.828C278.939 502.253 275.786 504.132 273.872 503.027C271.966 501.921 272.016 498.248 273.993 494.827Z" fill="black"/>
<path fill-rule="evenodd" clip-rule="evenodd" d="M273.993 464.789C272.016 461.364 271.966 457.694 273.876 456.589C275.79 455.486 278.943 457.366 280.92 460.791C282.897 464.215 282.947 467.885 281.037 468.987C279.124 470.093 275.97 468.21 273.993 464.789Z" fill="black"/>
<path fill-rule="evenodd" clip-rule="evenodd" d="M237.423 464.39C239.008 464.39 240.298 463.1 240.298 461.515C240.298 459.93 239.008 458.639 237.423 458.639C235.838 458.639 234.548 459.93 234.548 461.515C234.548 463.1 235.838 464.39 237.423 464.39Z" fill="black"/>
<path fill-rule="evenodd" clip-rule="evenodd" d="M226.864 482.686C228.446 482.686 229.739 481.396 229.739 479.811C229.739 478.226 228.446 476.936 226.864 476.936C225.279 476.936 223.989 478.226 223.989 479.811C223.986 481.393 225.279 482.686 226.864 482.686Z" fill="black"/>
<path fill-rule="evenodd" clip-rule="evenodd" d="M237.423 500.972C239.008 500.972 240.298 499.682 240.298 498.097C240.298 496.512 239.008 495.222 237.423 495.222C235.838 495.222 234.548 496.512 234.548 498.097C234.548 499.682 235.838 500.972 237.423 500.972Z" fill="black"/>
<path d="M258.543 500.972C260.131 500.972 261.418 499.685 261.418 498.097C261.418 496.509 260.131 495.222 258.543 495.222C256.955 495.222 255.668 496.509 255.668 498.097C255.668 499.685 256.955 500.972 258.543 500.972Z" fill="black"/>
<path fill-rule="evenodd" clip-rule="evenodd" d="M269.104 482.679C270.689 482.679 271.98 481.389 271.98 479.804C271.98 478.219 270.689 476.929 269.104 476.929C267.52 476.929 266.229 478.219 266.229 479.804C266.226 481.389 267.52 482.679 269.104 482.679Z" fill="black"/>
<path fill-rule="evenodd" clip-rule="evenodd" d="M258.543 464.393C260.128 464.393 261.418 463.1 261.418 461.518C261.418 459.936 260.128 458.643 258.543 458.643C256.958 458.643 255.668 459.933 255.668 461.518C255.668 463.103 256.958 464.393 258.543 464.393Z" fill="black"/>
<path d="M894.812 548.1C932.525 541.998 958.152 506.478 952.051 468.763C945.95 431.049 910.432 405.421 872.719 411.522C835.006 417.623 809.379 453.143 815.48 490.858C821.581 528.573 857.099 554.201 894.812 548.1Z" fill="black"/>
<path fill-rule="evenodd" clip-rule="evenodd" d="M883.702 520.23C905.965 520.23 924.127 502.071 924.127 479.804C924.127 457.537 905.969 439.378 883.702 439.378C861.44 439.378 843.278 457.537 843.278 479.804C843.278 502.071 861.44 520.23 883.702 520.23Z" fill="white"/>
<path fill-rule="evenodd" clip-rule="evenodd" d="M883.703 516.722C904.035 516.722 920.615 500.138 920.615 479.808C920.615 459.477 904.035 442.893 883.703 442.893C863.37 442.893 846.79 459.477 846.79 479.808C846.79 500.138 863.373 516.722 883.703 516.722Z" stroke="black" stroke-width="10" stroke-miterlimit="22.9256" stroke-linecap="round" stroke-linejoin="round"/>
<path fill-rule="evenodd" clip-rule="evenodd" d="M883.702 490.557C889.623 490.557 894.452 485.729 894.452 479.804C894.452 473.88 889.623 469.054 883.702 469.054C877.782 469.054 872.953 473.883 872.953 479.804C872.953 485.725 877.782 490.557 883.702 490.557Z" fill="black"/>
<path fill-rule="evenodd" clip-rule="evenodd" d="M883.703 454.353C887.043 454.353 889.768 452.832 889.768 450.966C889.768 449.099 887.043 447.578 883.703 447.578C880.362 447.578 877.638 449.099 877.638 450.966C877.638 452.832 880.362 454.353 883.703 454.353Z" fill="black"/>
<path fill-rule="evenodd" clip-rule="evenodd" d="M861.661 467.08C859.986 469.982 857.316 471.574 855.694 470.639C854.075 469.704 854.119 466.594 855.791 463.692C857.466 460.79 860.137 459.199 861.759 460.134C863.38 461.069 863.337 464.178 861.661 467.08Z" fill="black"/>
<path fill-rule="evenodd" clip-rule="evenodd" d="M861.661 492.535C863.336 495.437 863.38 498.546 861.758 499.481C860.14 500.416 857.466 498.824 855.79 495.922C854.115 493.02 854.072 489.911 855.693 488.976C857.315 488.038 859.986 489.633 861.661 492.535Z" fill="black"/>
<path fill-rule="evenodd" clip-rule="evenodd" d="M883.703 505.258C887.053 505.258 889.768 506.776 889.768 508.646C889.768 510.516 887.05 512.034 883.703 512.034C880.352 512.034 877.638 510.516 877.638 508.646C877.638 506.776 880.352 505.258 883.703 505.258Z" fill="black"/>
<path fill-rule="evenodd" clip-rule="evenodd" d="M905.745 492.535C907.42 489.633 910.091 488.041 911.709 488.976C913.327 489.911 913.287 493.02 911.612 495.922C909.936 498.824 907.266 500.416 905.647 499.481C904.026 498.543 904.069 495.433 905.745 492.535Z" fill="black"/>
<path fill-rule="evenodd" clip-rule="evenodd" d="M905.745 467.08C904.069 464.178 904.026 461.069 905.647 460.134C907.266 459.199 909.94 460.79 911.612 463.692C913.287 466.594 913.331 469.704 911.709 470.639C910.087 471.574 907.417 469.982 905.745 467.08Z" fill="black"/>
<path fill-rule="evenodd" clip-rule="evenodd" d="M875.758 468.803C877.276 468.803 878.513 467.566 878.513 466.048C878.513 464.53 877.276 463.294 875.758 463.294C874.24 463.294 873.004 464.53 873.004 466.048C873.004 467.566 874.244 468.803 875.758 468.803Z" fill="black"/>
<path fill-rule="evenodd" clip-rule="evenodd" d="M867.817 482.562C869.335 482.562 870.571 481.326 870.571 479.808C870.571 478.29 869.335 477.053 867.817 477.053C866.299 477.053 865.062 478.29 865.062 479.808C865.062 481.326 866.299 482.562 867.817 482.562Z" fill="black"/>
<path fill-rule="evenodd" clip-rule="evenodd" d="M875.758 496.318C877.276 496.318 878.513 495.081 878.513 493.563C878.513 492.045 877.276 490.809 875.758 490.809C874.24 490.809 873.004 492.045 873.004 493.563C873.007 495.081 874.244 496.318 875.758 496.318Z" fill="black"/>
<path fill-rule="evenodd" clip-rule="evenodd" d="M891.644 496.318C893.162 496.318 894.398 495.081 894.398 493.563C894.398 492.045 893.162 490.809 891.644 490.809C890.126 490.809 888.89 492.045 888.89 493.563C888.89 495.081 890.129 496.318 891.644 496.318Z" fill="black"/>
<path fill-rule="evenodd" clip-rule="evenodd" d="M899.589 482.559C901.107 482.559 902.344 481.322 902.344 479.804C902.344 478.286 901.107 477.05 899.589 477.05C898.071 477.05 896.835 478.286 896.835 479.804C896.835 481.322 898.071 482.559 899.589 482.559Z" fill="black"/>
<path fill-rule="evenodd" clip-rule="evenodd" d="M891.644 468.803C893.162 468.803 894.398 467.566 894.398 466.048C894.398 464.53 893.162 463.294 891.644 463.294C890.126 463.294 888.89 464.53 888.89 466.048C888.89 467.566 890.129 468.803 891.644 468.803Z" fill="black"/>
<path d="M78.8923 341.375C77.5788 341.375 76.5166 340.313 76.5166 338.999V187.444C76.5166 183.215 79.9579 179.777 84.1866 179.777H126.454C127.767 179.777 128.829 180.84 128.829 182.153C128.829 183.467 127.767 184.529 126.454 184.529H84.1866C82.6017 184.529 81.268 185.866 81.268 187.444V338.999C81.268 340.313 80.2058 341.375 78.8923 341.375Z" fill="black"/>
<path fill-rule="evenodd" clip-rule="evenodd" d="M76.9247 227.174H82.3631C83.3884 227.174 84.2194 228.008 84.2194 229.03V237.139C84.2194 238.161 83.3851 238.996 82.3631 238.996H76.9247C75.9027 238.996 75.0684 238.161 75.0684 237.139V229.03C75.0684 228.008 75.9027 227.174 76.9247 227.174Z" fill="black"/>
<path fill-rule="evenodd" clip-rule="evenodd" d="M91.437 194.753C95.1094 194.753 96.0175 202.179 96.0175 209.343V257.55C96.0175 264.715 95.1094 272.141 91.437 272.141C81.8101 272.141 81.8101 194.753 91.437 194.753Z" fill="#505050" stroke="black" stroke-width="10" stroke-miterlimit="22.9256" stroke-linecap="round" stroke-linejoin="round"/>
<path fill-rule="evenodd" clip-rule="evenodd" d="M91.437 283.38C95.1094 283.38 96.0175 286.258 96.0175 289.033V307.714C96.0175 310.486 95.1094 313.368 91.437 313.368C81.8101 313.368 81.8101 283.38 91.437 283.38Z" fill="#505050" stroke="black" stroke-width="10" stroke-miterlimit="22.9256" stroke-linecap="round" stroke-linejoin="round"/>
<path fill-rule="evenodd" clip-rule="evenodd" d="M126.456 186.821C129.026 186.821 131.121 184.723 131.121 182.157C131.121 179.586 129.026 177.492 126.456 177.492C123.886 177.492 121.792 179.59 121.792 182.157C121.789 184.723 123.886 186.821 126.456 186.821Z" fill="black"/>
<path fill-rule="evenodd" clip-rule="evenodd" d="M76.9247 292.461H82.3631C83.3884 292.461 84.2194 293.295 84.2194 294.317V302.427C84.2194 303.449 83.3851 304.283 82.3631 304.283H76.9247C75.9027 304.283 75.0684 303.445 75.0684 302.427V294.317C75.0684 293.295 75.9027 292.461 76.9247 292.461Z" fill="black"/>
<path fill-rule="evenodd" clip-rule="evenodd" d="M78.8919 343.664C81.4619 343.664 83.5562 341.569 83.5562 338.999C83.5562 336.429 81.4586 334.335 78.8919 334.335C76.3218 334.335 74.2275 336.432 74.2275 338.999C74.2275 341.569 76.3252 343.664 78.8919 343.664Z" fill="black"/>
</svg>
