<svg width="936" height="428" viewBox="0 0 936 428" fill="none" xmlns="http://www.w3.org/2000/svg">
<circle cx="162" cy="355" r="61" fill="white"/>
<circle cx="162" cy="355" r="61" fill="white"/>
<circle cx="162" cy="355" r="61" fill="white"/>
<circle cx="162" cy="355" r="61" fill="white"/>
<circle cx="781" cy="351" r="61" fill="white"/>
<circle cx="781" cy="351" r="61" fill="white"/>
<circle cx="781" cy="351" r="61" fill="white"/>
<circle cx="781" cy="351" r="61" fill="white"/>
<path d="M237.667 342.262H297.777L304.767 376.503H512.589L516.317 342.262H711.092V404.702H237.667V342.262Z" fill="#505050"/>
<path d="M49.4157 270.036L258.636 205.267L388.176 88.3083H496.281L627.684 3.96777H926.37L930.098 346.455H853.213L832.711 304.518L793.569 283.084L750.7 287.743L716.684 318.031L710.16 332.01L704.103 341.33H693.385H513.987V371.618H304.301L297.777 341.33H234.871L227.882 325.953L197.128 295.665L131.426 287.743L100.206 341.33H17.7295L49.4157 270.036Z" fill="white"/>
<path d="M390.505 111.141H512.589V215.518H279.139L390.505 111.141Z" fill="#C8C8C8"/>
<path d="M35.902 295.665H48.4832V340.398H18.6611L35.902 295.665Z" fill="#D9D9D9"/>
<mask id="path-7-inside-1_185_1161" fill="white">
<path d="M617.525 6.39066C606.839 12.9764 604.727 14.4675 537.627 57.2124L490.285 87.5315H436.729C406.41 87.5315 381.931 88.0285 380.191 88.6498C378.452 89.3954 376.091 90.8865 374.724 92.2533C373.481 93.4959 363.789 102.567 353.227 112.383C342.665 122.2 329.245 134.75 323.405 140.341C317.565 145.933 308.37 154.631 302.903 159.726C297.56 164.696 287.992 173.767 281.779 179.607C251.832 208.062 250.59 209.056 244.998 210.548C242.016 211.293 234.809 213.281 228.969 214.897C218.78 217.879 160.875 233.784 130.183 242.233C121.982 244.47 108.811 248.074 100.982 250.31C67.6812 259.63 51.5275 263.979 50.6577 263.979C49.5394 263.979 41.3383 271.807 41.3383 272.801C41.3383 273.422 39.723 277.399 37.8591 281.623C35.871 285.972 29.9065 300.262 24.5634 313.309C17.3564 330.706 14.1257 337.291 12.6346 337.291C8.40981 337.291 3.0667 340.025 1.69985 343.007C0.954301 344.747 0.333008 352.824 0.333008 362.019C0.333008 376.308 0.581525 378.297 2.94244 381.279C4.30928 383.018 6.0489 384.51 6.79445 384.51C7.54 384.51 11.8891 385.628 16.4866 386.995C24.3149 389.356 25.4332 390.101 32.1432 398.178L39.3502 406.876H69.4208C95.3908 406.876 99.6156 406.628 100.237 404.888C100.61 403.894 100.113 401.657 98.9943 399.918C97.1304 397.184 97.1304 396.935 99.1186 396.935C100.237 396.935 105.207 401.036 110.178 406.006C124.84 420.917 141.615 428 162.49 428C183.366 428 200.141 421.042 215.052 406.006C223.75 397.184 229.466 393.953 226.484 399.296C225.862 400.663 225.241 402.9 225.241 404.267V406.876H472.391C694.566 406.876 719.542 406.628 720.287 404.888C720.66 403.894 720.163 401.657 719.044 399.918C714.944 393.829 720.163 396.935 729.234 406.13C743.648 420.917 760.423 428 781.174 428C802.298 428 818.203 421.539 833.238 406.628C842.682 397.184 846.534 394.699 844.67 399.048C844.173 400.29 843.676 402.403 843.552 403.77C843.427 406.13 844.297 406.255 865.297 406.628L887.291 406.876L892.882 399.172C895.865 394.823 899.468 390.474 900.711 389.356C902.077 388.237 909.036 385.255 916.367 382.646C923.698 380.036 930.533 377.054 931.527 375.936C933.515 373.823 936 358.291 936 348.35C936 343.753 935.379 341.765 933.515 340.149C931.03 338.037 931.03 336.421 931.03 173.146C931.03 82.4369 930.657 7.26047 930.284 6.14215C928.047 0.42627 931.899 0.550507 774.712 0.550507H626.969L617.525 6.39066ZM921.586 8.75156C923.326 9.49713 923.574 22.1715 923.574 140.466V271.434H918.48C915.746 271.434 912.391 272.055 911.148 272.677C906.054 275.41 905.557 278.517 904.935 308.712L904.314 337.913L893.131 338.285C887.042 338.534 877.971 338.285 873.001 337.913L864.054 337.043L863.309 332.072C862.812 329.339 860.327 322.877 857.593 317.658C842.806 287.961 814.227 270.316 781.547 270.192C744.393 270.192 710.968 294.795 700.406 330.084C699.163 334.061 697.299 337.54 696.305 337.913C695.187 338.161 654.927 338.41 606.715 338.161L519.112 337.913L518.74 222.601L518.491 107.413H453.131H387.771L362.298 131.271C307.997 182.217 305.512 184.577 303.524 183.583C300.169 181.968 292.713 182.714 289.234 184.95C285.258 187.56 281.406 195.512 280.412 203.465C279.791 207.69 278.548 210.175 275.441 213.157C273.081 215.394 271.217 218.252 271.217 219.494C271.217 222.104 276.187 248.322 286.749 301.878C290.477 320.889 293.086 337.043 292.589 337.54C291.968 338.161 281.53 338.41 269.353 338.285L247.235 337.913L244.501 329.836C238.537 312.315 231.205 301.132 218.158 289.824C202.502 276.156 184.608 269.695 162.49 269.695C138.012 269.695 119.994 277.15 102.722 294.298C91.663 305.357 86.1957 314.055 81.2253 328.345L77.8704 337.913H63.8291C56.1251 338.037 49.6637 337.664 49.4151 337.167C49.0424 336.794 49.9122 328.966 51.279 319.771C52.6459 310.576 53.7642 301.878 53.7642 300.262C53.7642 296.659 49.5394 292.558 45.6874 292.558C43.9478 292.558 42.5809 292.061 42.5809 291.44C42.5809 288.83 48.1726 276.777 50.5335 274.292C52.5216 272.18 69.4208 267.085 127.698 250.932C168.703 239.624 208.963 228.565 217.164 226.204C225.365 223.967 237.046 220.737 243.01 219.121C253.696 216.263 254.318 215.891 265.998 205.08C272.708 198.991 282.773 189.424 288.613 183.832C294.453 178.24 307.873 165.69 318.435 155.874C328.997 146.057 338.316 137.359 338.938 136.489C341.05 134.128 376.091 101.946 380.316 98.342L384.54 94.987H438.717H493.018L545.828 61.1887C574.905 42.6742 605.596 23.1656 614.046 17.6982L629.454 8.00604H774.588C854.362 8.00604 920.468 8.37878 921.586 8.75156ZM511.036 165.193V215.518H410.511H309.985L309.116 204.086C308.246 193.027 308.246 192.654 311.104 190.293C312.719 189.051 318.559 183.583 324.027 178.365C329.494 173.146 342.914 160.471 353.849 150.282C364.783 140.093 377.706 128.04 382.428 123.318L391.126 114.868H451.143H511.036V165.193ZM287.246 225.956C293.832 233.038 304.518 233.287 308.246 226.577L310.358 222.973H410.759H511.036V296.162C511.036 361.77 510.787 369.35 509.048 370.096C507.929 370.468 462.823 370.841 408.522 370.841C331.234 370.841 309.737 370.468 308.743 369.226C307.997 368.48 305.139 355.682 302.281 341.019C299.423 326.356 295.571 306.227 293.583 296.286C285.506 255.778 279.915 226.204 279.915 224.713C279.915 221.979 284.264 222.725 287.246 225.956ZM45.5631 301.878C45.4389 302.499 44.9418 306.227 44.5691 309.954C44.072 313.682 43.078 321.262 42.2081 326.729L40.5928 336.67L32.2675 337.043C27.6699 337.291 23.9421 337.043 23.9421 336.67C23.9421 336.297 26.8001 329.214 30.2793 320.765C33.7586 312.44 37.1135 304.363 37.7348 302.747C38.6046 300.511 39.5987 299.889 42.3324 300.262C44.1963 300.511 45.5631 301.132 45.5631 301.878ZM186.348 304.984C202.999 313.185 214.306 328.717 216.916 346.611C221.513 378.421 200.141 406.006 167.834 409.983C153.047 411.846 133.414 404.515 122.852 393.208C119.621 389.728 114.899 382.646 112.414 377.427C108.189 368.356 107.941 367.238 107.941 355.433C107.941 345.492 108.562 341.392 110.799 335.8C114.899 325.238 120.615 317.534 129.313 310.948C140.372 302.499 149.319 299.889 165.224 300.386C176.656 300.759 178.768 301.256 186.348 304.984ZM804.41 304.611C833.859 318.528 845.291 353.321 829.635 382.024C825.286 390.101 813.854 400.663 805.156 404.764C772.227 420.42 733.086 399.793 727.121 363.51C722.772 337.043 738.553 310.824 764.15 302.375C769.866 300.511 773.967 300.138 783.908 300.386C794.718 300.759 797.452 301.381 804.41 304.611ZM298.181 360.155C299.672 367.61 301.784 374.569 302.903 375.687C304.642 377.427 315.826 377.675 408.647 378.048L512.403 378.297L515.385 375.314C518.243 372.332 518.491 371.338 518.491 359.036V345.989H607.709H696.802L696.927 356.924C697.051 371.338 700.157 382.521 708.358 398.426C708.607 399.048 602.49 399.421 472.64 399.421C342.665 399.421 236.424 399.172 236.424 398.923C236.424 398.675 237.791 395.32 239.531 391.468C243.88 381.652 247.608 366.865 248.477 355.557L249.223 345.989C249.223 345.989 263.309 346.117 272.335 346.238C281.361 346.359 295.447 346.611 295.447 346.611L298.181 360.155Z"/>
</mask>
<path d="M617.525 6.39066C606.839 12.9764 604.727 14.4675 537.627 57.2124L490.285 87.5315H436.729C406.41 87.5315 381.931 88.0285 380.191 88.6498C378.452 89.3954 376.091 90.8865 374.724 92.2533C373.481 93.4959 363.789 102.567 353.227 112.383C342.665 122.2 329.245 134.75 323.405 140.341C317.565 145.933 308.37 154.631 302.903 159.726C297.56 164.696 287.992 173.767 281.779 179.607C251.832 208.062 250.59 209.056 244.998 210.548C242.016 211.293 234.809 213.281 228.969 214.897C218.78 217.879 160.875 233.784 130.183 242.233C121.982 244.47 108.811 248.074 100.982 250.31C67.6812 259.63 51.5275 263.979 50.6577 263.979C49.5394 263.979 41.3383 271.807 41.3383 272.801C41.3383 273.422 39.723 277.399 37.8591 281.623C35.871 285.972 29.9065 300.262 24.5634 313.309C17.3564 330.706 14.1257 337.291 12.6346 337.291C8.40981 337.291 3.0667 340.025 1.69985 343.007C0.954301 344.747 0.333008 352.824 0.333008 362.019C0.333008 376.308 0.581525 378.297 2.94244 381.279C4.30928 383.018 6.0489 384.51 6.79445 384.51C7.54 384.51 11.8891 385.628 16.4866 386.995C24.3149 389.356 25.4332 390.101 32.1432 398.178L39.3502 406.876H69.4208C95.3908 406.876 99.6156 406.628 100.237 404.888C100.61 403.894 100.113 401.657 98.9943 399.918C97.1304 397.184 97.1304 396.935 99.1186 396.935C100.237 396.935 105.207 401.036 110.178 406.006C124.84 420.917 141.615 428 162.49 428C183.366 428 200.141 421.042 215.052 406.006C223.75 397.184 229.466 393.953 226.484 399.296C225.862 400.663 225.241 402.9 225.241 404.267V406.876H472.391C694.566 406.876 719.542 406.628 720.287 404.888C720.66 403.894 720.163 401.657 719.044 399.918C714.944 393.829 720.163 396.935 729.234 406.13C743.648 420.917 760.423 428 781.174 428C802.298 428 818.203 421.539 833.238 406.628C842.682 397.184 846.534 394.699 844.67 399.048C844.173 400.29 843.676 402.403 843.552 403.77C843.427 406.13 844.297 406.255 865.297 406.628L887.291 406.876L892.882 399.172C895.865 394.823 899.468 390.474 900.711 389.356C902.077 388.237 909.036 385.255 916.367 382.646C923.698 380.036 930.533 377.054 931.527 375.936C933.515 373.823 936 358.291 936 348.35C936 343.753 935.379 341.765 933.515 340.149C931.03 338.037 931.03 336.421 931.03 173.146C931.03 82.4369 930.657 7.26047 930.284 6.14215C928.047 0.42627 931.899 0.550507 774.712 0.550507H626.969L617.525 6.39066ZM921.586 8.75156C923.326 9.49713 923.574 22.1715 923.574 140.466V271.434H918.48C915.746 271.434 912.391 272.055 911.148 272.677C906.054 275.41 905.557 278.517 904.935 308.712L904.314 337.913L893.131 338.285C887.042 338.534 877.971 338.285 873.001 337.913L864.054 337.043L863.309 332.072C862.812 329.339 860.327 322.877 857.593 317.658C842.806 287.961 814.227 270.316 781.547 270.192C744.393 270.192 710.968 294.795 700.406 330.084C699.163 334.061 697.299 337.54 696.305 337.913C695.187 338.161 654.927 338.41 606.715 338.161L519.112 337.913L518.74 222.601L518.491 107.413H453.131H387.771L362.298 131.271C307.997 182.217 305.512 184.577 303.524 183.583C300.169 181.968 292.713 182.714 289.234 184.95C285.258 187.56 281.406 195.512 280.412 203.465C279.791 207.69 278.548 210.175 275.441 213.157C273.081 215.394 271.217 218.252 271.217 219.494C271.217 222.104 276.187 248.322 286.749 301.878C290.477 320.889 293.086 337.043 292.589 337.54C291.968 338.161 281.53 338.41 269.353 338.285L247.235 337.913L244.501 329.836C238.537 312.315 231.205 301.132 218.158 289.824C202.502 276.156 184.608 269.695 162.49 269.695C138.012 269.695 119.994 277.15 102.722 294.298C91.663 305.357 86.1957 314.055 81.2253 328.345L77.8704 337.913H63.8291C56.1251 338.037 49.6637 337.664 49.4151 337.167C49.0424 336.794 49.9122 328.966 51.279 319.771C52.6459 310.576 53.7642 301.878 53.7642 300.262C53.7642 296.659 49.5394 292.558 45.6874 292.558C43.9478 292.558 42.5809 292.061 42.5809 291.44C42.5809 288.83 48.1726 276.777 50.5335 274.292C52.5216 272.18 69.4208 267.085 127.698 250.932C168.703 239.624 208.963 228.565 217.164 226.204C225.365 223.967 237.046 220.737 243.01 219.121C253.696 216.263 254.318 215.891 265.998 205.08C272.708 198.991 282.773 189.424 288.613 183.832C294.453 178.24 307.873 165.69 318.435 155.874C328.997 146.057 338.316 137.359 338.938 136.489C341.05 134.128 376.091 101.946 380.316 98.342L384.54 94.987H438.717H493.018L545.828 61.1887C574.905 42.6742 605.596 23.1656 614.046 17.6982L629.454 8.00604H774.588C854.362 8.00604 920.468 8.37878 921.586 8.75156ZM511.036 165.193V215.518H410.511H309.985L309.116 204.086C308.246 193.027 308.246 192.654 311.104 190.293C312.719 189.051 318.559 183.583 324.027 178.365C329.494 173.146 342.914 160.471 353.849 150.282C364.783 140.093 377.706 128.04 382.428 123.318L391.126 114.868H451.143H511.036V165.193ZM287.246 225.956C293.832 233.038 304.518 233.287 308.246 226.577L310.358 222.973H410.759H511.036V296.162C511.036 361.77 510.787 369.35 509.048 370.096C507.929 370.468 462.823 370.841 408.522 370.841C331.234 370.841 309.737 370.468 308.743 369.226C307.997 368.48 305.139 355.682 302.281 341.019C299.423 326.356 295.571 306.227 293.583 296.286C285.506 255.778 279.915 226.204 279.915 224.713C279.915 221.979 284.264 222.725 287.246 225.956ZM45.5631 301.878C45.4389 302.499 44.9418 306.227 44.5691 309.954C44.072 313.682 43.078 321.262 42.2081 326.729L40.5928 336.67L32.2675 337.043C27.6699 337.291 23.9421 337.043 23.9421 336.67C23.9421 336.297 26.8001 329.214 30.2793 320.765C33.7586 312.44 37.1135 304.363 37.7348 302.747C38.6046 300.511 39.5987 299.889 42.3324 300.262C44.1963 300.511 45.5631 301.132 45.5631 301.878ZM186.348 304.984C202.999 313.185 214.306 328.717 216.916 346.611C221.513 378.421 200.141 406.006 167.834 409.983C153.047 411.846 133.414 404.515 122.852 393.208C119.621 389.728 114.899 382.646 112.414 377.427C108.189 368.356 107.941 367.238 107.941 355.433C107.941 345.492 108.562 341.392 110.799 335.8C114.899 325.238 120.615 317.534 129.313 310.948C140.372 302.499 149.319 299.889 165.224 300.386C176.656 300.759 178.768 301.256 186.348 304.984ZM804.41 304.611C833.859 318.528 845.291 353.321 829.635 382.024C825.286 390.101 813.854 400.663 805.156 404.764C772.227 420.42 733.086 399.793 727.121 363.51C722.772 337.043 738.553 310.824 764.15 302.375C769.866 300.511 773.967 300.138 783.908 300.386C794.718 300.759 797.452 301.381 804.41 304.611ZM298.181 360.155C299.672 367.61 301.784 374.569 302.903 375.687C304.642 377.427 315.826 377.675 408.647 378.048L512.403 378.297L515.385 375.314C518.243 372.332 518.491 371.338 518.491 359.036V345.989H607.709H696.802L696.927 356.924C697.051 371.338 700.157 382.521 708.358 398.426C708.607 399.048 602.49 399.421 472.64 399.421C342.665 399.421 236.424 399.172 236.424 398.923C236.424 398.675 237.791 395.32 239.531 391.468C243.88 381.652 247.608 366.865 248.477 355.557L249.223 345.989C249.223 345.989 263.309 346.117 272.335 346.238C281.361 346.359 295.447 346.611 295.447 346.611L298.181 360.155Z" fill="black" stroke="black" stroke-width="0.2" mask="url(#path-7-inside-1_185_1161)"/>
<path d="M535.189 217.4L535.189 217.4L535.187 217.404C534.943 217.892 534.82 218.567 534.82 219.246C534.82 219.924 534.943 220.599 535.187 221.087L535.187 221.087L535.189 221.092C535.22 221.171 535.321 221.26 535.551 221.35C535.778 221.439 536.118 221.523 536.601 221.604C537.567 221.764 539.098 221.905 541.436 222.028C546.11 222.275 553.999 222.45 567.015 222.566C593.047 222.799 639.581 222.799 721.903 222.675L907.992 222.302V219.246V216.189L721.903 215.816C639.581 215.692 593.047 215.692 567.015 215.925C553.999 216.042 546.11 216.216 541.436 216.463C539.098 216.586 537.567 216.727 536.601 216.888C536.118 216.968 535.778 217.053 535.551 217.141C535.321 217.231 535.22 217.32 535.189 217.4Z" fill="black" stroke="black" stroke-width="0.1"/>
<path d="M461.374 241.461L461.375 241.461L461.377 241.465C461.718 242.116 462.016 242.596 462.541 242.951C463.067 243.307 463.826 243.543 465.097 243.69C467.64 243.985 472.202 243.923 480.964 243.799L499.184 243.427L499.554 238.129L499.554 238.129L499.923 232.964H480.717H461.371L460.635 235.907C460.635 235.908 460.635 235.908 460.635 235.908C460.451 236.709 460.419 237.758 460.543 238.779C460.667 239.801 460.945 240.786 461.374 241.461Z" fill="black" stroke="black" stroke-width="0.1"/>
<path d="M144.241 308.137C139.342 309.936 133.196 314.156 128.275 318.565C125.815 320.769 123.662 323.019 122.125 325.035C121.356 326.043 120.742 326.992 120.32 327.846C119.898 328.701 119.671 329.458 119.671 330.084C119.671 330.792 119.794 331.379 120.165 331.924C120.537 332.469 121.162 332.977 122.176 333.519C124.206 334.604 127.773 335.814 133.926 337.74C138.647 339.2 142.364 340.178 145.283 340.536C148.203 340.895 150.316 340.633 151.839 339.626C153.36 338.619 154.304 336.86 154.865 334.196C155.427 331.531 155.606 327.971 155.606 323.374C155.606 319.149 155.513 315.859 155.218 313.356C154.923 310.851 154.427 309.142 153.628 308.074C152.832 307.01 151.732 306.576 150.206 306.632C148.677 306.688 146.726 307.236 144.241 308.137Z" fill="black" stroke="black" stroke-width="0.1"/>
<path d="M170.984 337.269L170.984 337.269L170.985 337.27C172.092 339.545 174.337 340.69 177.852 340.721C181.369 340.752 186.146 339.667 192.296 337.493L192.296 337.493C198.387 335.38 201.643 334.201 203.377 333.164C204.242 332.646 204.723 332.167 204.989 331.629C205.255 331.091 205.31 330.487 205.31 329.712C205.31 329.241 205.133 328.651 204.802 327.968C204.471 327.285 203.988 326.513 203.382 325.68C202.168 324.013 200.462 322.104 198.49 320.18C194.547 316.33 189.55 312.419 185.331 310.248L185.331 310.248C181.231 308.136 178.193 306.927 175.887 306.54C173.583 306.154 172.017 306.588 170.851 307.753C170.734 307.87 170.621 308.071 170.513 308.351C170.406 308.63 170.305 308.983 170.212 309.402C170.027 310.24 169.872 311.334 169.749 312.606C169.503 315.149 169.382 318.397 169.39 321.713C169.398 325.028 169.534 328.408 169.8 331.216C169.933 332.619 170.098 333.879 170.296 334.916C170.494 335.953 170.724 336.763 170.984 337.269Z" fill="black" stroke="black" stroke-width="0.1"/>
<path d="M158.81 341.034L158.81 341.035C158.254 342.766 158.444 344.079 159.218 344.883C159.994 345.689 161.371 346.001 163.228 345.692L163.228 345.692L163.231 345.691C164.345 345.568 165.075 345.29 165.528 344.761C165.982 344.232 166.168 343.439 166.168 342.262C166.168 340.179 164.638 338.891 162.948 338.615C161.258 338.338 159.423 339.075 158.81 341.034Z" fill="black" stroke="black" stroke-width="0.1"/>
<path d="M147.503 349.113L147.503 349.113L147.502 349.114C146.886 350.656 147.011 352.036 147.683 353.029C148.356 354.022 149.581 354.637 151.183 354.637C152.845 354.637 154.132 353.838 154.743 352.737C155.354 351.638 155.295 350.231 154.252 349.004L154.252 349.004L154.251 349.003C153.33 347.836 151.855 347.282 150.501 347.313C149.146 347.344 147.928 347.959 147.503 349.113Z" fill="black" stroke="black" stroke-width="0.1"/>
<path d="M171.474 348.136L171.475 348.136L171.467 348.142C171.354 348.227 171.241 348.396 171.137 348.634C171.034 348.871 170.942 349.171 170.865 349.511C170.71 350.19 170.617 351.025 170.617 351.83C170.617 352.945 170.804 353.641 171.254 354.061C171.705 354.481 172.432 354.637 173.55 354.637C175.588 354.637 177.219 353.865 178.077 352.792C178.506 352.256 178.742 351.646 178.742 351.018C178.742 350.391 178.506 349.742 177.985 349.128L177.985 349.128L177.984 349.127C177.186 348.145 175.894 347.529 174.63 347.344C173.363 347.158 172.141 347.408 171.474 348.136Z" fill="black" stroke="black" stroke-width="0.1"/>
<path d="M112.835 351.099L112.835 351.099C112.465 352.241 112.325 353.865 112.385 355.789C112.445 357.712 112.705 359.93 113.131 362.258C113.985 366.915 115.506 372.005 117.43 376.038L117.43 376.039C119.542 380.636 121.218 383.676 122.751 385.565C124.283 387.453 125.668 388.187 127.201 388.187C127.366 388.187 127.585 388.109 127.855 387.95C128.123 387.793 128.435 387.561 128.785 387.263C129.484 386.666 130.328 385.808 131.262 384.765C133.131 382.68 135.355 379.858 137.49 376.916C139.625 373.973 141.67 370.911 143.182 368.344C143.937 367.061 144.559 365.902 144.992 364.944C145.426 363.984 145.666 363.234 145.666 362.764C145.666 361.747 145.45 360.84 144.941 359.986C144.431 359.132 143.626 358.33 142.441 357.525C140.071 355.914 136.194 354.3 130.167 352.25C123.58 350.013 119.517 348.866 116.962 348.711C115.686 348.633 114.793 348.804 114.151 349.204C113.511 349.604 113.112 350.236 112.835 351.099Z" fill="black" stroke="black" stroke-width="0.1"/>
<path d="M194.193 352.25C188.976 354.113 185.254 355.851 182.837 357.632C180.421 359.413 179.316 361.233 179.316 363.261C179.316 363.463 179.377 363.737 179.496 364.078C179.615 364.418 179.79 364.821 180.015 365.276C180.464 366.186 181.109 367.304 181.892 368.553C183.458 371.05 185.573 374.066 187.771 376.977C189.968 379.889 192.246 382.695 194.138 384.773C195.084 385.812 195.932 386.668 196.625 387.264C196.971 387.562 197.277 387.794 197.537 387.951C197.798 388.109 198.004 388.187 198.153 388.187C198.868 388.187 199.64 387.869 200.445 387.282C201.249 386.695 202.082 385.842 202.917 384.78C204.587 382.654 206.263 379.695 207.737 376.366C210.687 369.706 212.827 361.576 212.517 355.685C212.424 354.1 212.346 352.898 212.226 351.982C212.106 351.065 211.944 350.44 211.685 350.007C211.429 349.577 211.075 349.331 210.561 349.177C210.043 349.021 209.365 348.959 208.463 348.897C207.972 348.867 207.2 348.936 206.224 349.089C205.249 349.242 204.074 349.479 202.777 349.781C200.185 350.387 197.112 351.256 194.193 352.25Z" fill="black" stroke="black" stroke-width="0.1"/>
<path d="M152.709 367.575L152.709 367.575L152.71 367.576C153.998 368.925 155.713 369.017 157.046 368.312C158.38 367.606 159.331 366.104 159.086 364.262L159.086 364.261C158.902 362.732 157.771 361.69 156.389 361.322C155.006 360.953 153.379 361.26 152.212 362.427C151.217 363.422 150.769 364.121 150.844 364.856C150.882 365.225 151.052 365.609 151.362 366.05C151.672 366.491 152.12 366.985 152.709 367.575Z" fill="black" stroke="black" stroke-width="0.1"/>
<path d="M172.525 367.694L172.526 367.694C173.458 367.01 173.972 366.491 174.122 365.92C174.272 365.351 174.065 364.715 173.506 363.784C172.642 362.363 171.534 361.536 170.402 361.306C169.271 361.077 168.107 361.443 167.123 362.426C166.199 363.35 165.81 364.34 165.808 365.253C165.806 366.166 166.192 367.008 166.828 367.636C168.099 368.892 170.37 369.295 172.525 367.694Z" fill="black" stroke="black" stroke-width="0.1"/>
<path d="M155.54 404.466L155.541 404.466C159.572 405.272 165.157 405.149 170.249 404.404C172.794 404.031 175.215 403.504 177.254 402.86C179.295 402.216 180.949 401.457 181.967 400.625L181.968 400.624L184.789 398.416L178.603 389.509L178.602 389.508C175.807 385.439 173.432 382.21 171.352 379.735C169.272 377.259 167.489 375.539 165.88 374.487C164.271 373.435 162.839 373.052 161.456 373.244C160.072 373.436 158.73 374.206 157.305 375.476C155.135 377.46 151.317 382.487 148.04 387.349C146.402 389.779 144.9 392.166 143.807 394.108C143.261 395.079 142.818 395.938 142.511 396.635C142.358 396.984 142.239 397.291 142.159 397.551C142.078 397.812 142.037 398.023 142.037 398.178C142.037 398.882 142.243 399.507 142.71 400.08C143.177 400.655 143.907 401.179 144.96 401.674C147.066 402.665 150.446 403.534 155.54 404.466Z" fill="black" stroke="black" stroke-width="0.1"/>
<path d="M762.677 308.262L762.677 308.262C757.219 310.184 750.639 314.994 745.765 319.868C743.328 322.305 741.32 324.756 740.092 326.867C739.478 327.923 739.06 328.891 738.881 329.729C738.701 330.567 738.761 331.269 739.093 331.797C739.182 331.937 739.344 332.098 739.575 332.277C739.807 332.455 740.104 332.648 740.46 332.854C741.172 333.265 742.115 333.725 743.224 334.211C745.441 335.183 748.317 336.258 751.322 337.259C754.326 338.261 757.459 339.189 760.189 339.866C762.921 340.543 765.245 340.969 766.636 340.969C768.248 340.969 769.536 340.76 770.562 340.212C771.586 339.665 772.356 338.778 772.927 337.412C773.499 336.044 773.871 334.198 774.1 331.736C774.329 329.274 774.415 326.201 774.415 322.38C774.415 318.155 774.352 314.919 774.091 312.501C773.829 310.081 773.367 308.491 772.578 307.548C771.793 306.61 770.675 306.304 769.07 306.476C767.464 306.648 765.38 307.299 762.677 308.262Z" fill="black" stroke="black" stroke-width="0.1"/>
<path d="M790.28 307.132L790.281 307.132L790.275 307.136C790.255 307.151 790.229 307.189 790.199 307.261C790.171 307.331 790.142 307.426 790.113 307.546C790.056 307.785 790.001 308.117 789.949 308.531C789.844 309.361 789.751 310.517 789.673 311.914C789.518 314.709 789.425 318.467 789.425 322.504C789.425 327.692 789.542 331.649 790.049 334.553C790.557 337.457 791.455 339.295 793.005 340.262C794.557 341.23 796.777 341.334 799.955 340.733C803.131 340.132 807.252 338.828 812.595 336.995L812.595 336.995C817.567 335.317 820.451 334.231 822.092 333.272C822.912 332.792 823.417 332.346 823.718 331.878C824.018 331.411 824.117 330.917 824.117 330.333C824.117 329.01 823.533 327.428 822.478 325.707C821.425 323.987 819.905 322.134 818.043 320.272C814.319 316.548 809.229 312.792 803.766 309.999C800.227 308.198 797.28 307.051 795.003 306.57C792.722 306.089 791.13 306.281 790.28 307.132Z" fill="black" stroke="black" stroke-width="0.1"/>
<path d="M781.789 345.691L781.791 345.691C783.032 345.567 783.823 345.32 784.307 344.806C784.79 344.293 784.977 343.502 784.977 342.262C784.977 340.482 783.935 339.259 782.588 338.83C781.242 338.402 779.585 338.767 778.355 340.181C777.248 341.596 777.192 343.095 777.862 344.177C778.533 345.26 779.941 345.938 781.789 345.691Z" fill="black" stroke="black" stroke-width="0.1"/>
<path d="M766.31 349.113L766.31 349.113L766.31 349.114C765.693 350.656 765.819 352.036 766.491 353.029C767.163 354.022 768.389 354.637 769.991 354.637C771.652 354.637 772.939 353.838 773.551 352.737C774.162 351.638 774.103 350.231 773.059 349.004L773.059 349.004L773.058 349.003C772.138 347.836 770.663 347.282 769.309 347.313C767.954 347.344 766.735 347.959 766.31 349.113Z" fill="black" stroke="black" stroke-width="0.1"/>
<path d="M789.919 349.113L789.919 349.113L789.918 349.114C789.302 350.656 789.427 352.036 790.1 353.029C790.772 354.022 791.997 354.637 793.599 354.637C795.261 354.637 796.548 353.838 797.159 352.737C797.77 351.638 797.711 350.231 796.668 349.004L796.668 349.004L796.667 349.003C795.746 347.836 794.271 347.282 792.917 347.313C791.562 347.344 790.344 347.959 789.919 349.113Z" fill="black" stroke="black" stroke-width="0.1"/>
<path d="M731.519 351.593C731.241 352.765 731.21 354.522 731.377 356.613C731.543 358.704 731.908 361.125 732.42 363.624C733.445 368.623 735.059 373.93 736.858 377.529C738.846 381.442 740.428 384.109 741.868 385.797C743.308 387.484 744.6 388.187 746.009 388.187C746.174 388.187 746.393 388.109 746.662 387.95C746.93 387.793 747.243 387.561 747.592 387.262C748.291 386.666 749.136 385.807 750.07 384.764C751.938 382.676 754.162 379.851 756.297 376.9C758.432 373.95 760.478 370.876 761.989 368.292C762.745 367 763.367 365.831 763.799 364.861C764.233 363.889 764.473 363.125 764.473 362.64C764.473 360.614 763.216 358.764 760.488 356.966C757.761 355.168 753.573 353.43 747.733 351.629C744.472 350.635 741.887 349.89 739.829 349.393C737.77 348.896 736.24 348.649 735.089 348.649C733.939 348.649 733.173 348.896 732.632 349.382C732.09 349.868 731.767 350.602 731.519 351.593Z" fill="black" stroke="black" stroke-width="0.1"/>
<path d="M812.628 352.498L812.627 352.498C806.351 354.611 802.386 356.472 800.298 358.498C799.255 359.509 798.684 360.56 798.524 361.701C798.365 362.844 798.618 364.085 799.237 365.477C800.725 368.702 804.636 374.383 808.441 379.26C810.343 381.698 812.218 383.933 813.748 385.559C814.514 386.372 815.192 387.031 815.744 387.487C816.02 387.715 816.264 387.891 816.47 388.01C816.678 388.129 816.842 388.187 816.96 388.187C817.595 388.187 818.376 387.808 819.249 387.101C820.12 386.396 821.077 385.37 822.062 384.091C824.031 381.532 826.111 377.963 827.849 373.928L827.849 373.927C829.834 369.586 830.703 364.996 830.827 358.414L830.951 349.143L827.272 348.897C826.284 348.898 824.147 349.269 821.492 349.906C818.837 350.542 815.67 351.442 812.628 352.498Z" fill="black" stroke="black" stroke-width="0.1"/>
<path d="M770.905 363.284L770.904 363.285C770.409 364.214 770.197 364.917 770.288 365.569C770.379 366.22 770.774 366.832 771.517 367.575L771.517 367.575L771.518 367.576C772.805 368.925 774.52 369.017 775.854 368.312C777.188 367.606 778.139 366.104 777.893 364.262C777.648 362.422 776.331 361.351 774.861 361.152C773.39 360.953 771.764 361.627 770.905 363.284Z" fill="black" stroke="black" stroke-width="0.1"/>
<path d="M786.789 368.187L786.789 368.187L786.79 368.188C788.262 368.985 789.95 368.741 791.195 367.88C792.44 367.019 793.236 365.547 792.93 363.892C792.809 363.319 792.384 362.785 791.78 362.333C791.176 361.881 790.397 361.514 789.579 361.275C788.76 361.035 787.904 360.924 787.146 360.979C786.388 361.035 785.734 361.258 785.311 361.681C784.518 362.535 784.301 363.852 784.578 365.115C784.855 366.377 785.624 367.574 786.789 368.187Z" fill="black" stroke="black" stroke-width="0.1"/>
<path d="M761.094 398.792L761.094 398.793C761.155 399.282 761.323 399.707 761.656 400.101C761.989 400.496 762.492 400.861 763.226 401.224C764.696 401.952 767.083 402.665 770.873 403.597C775.035 404.591 777.703 405.118 780.291 405.227C782.88 405.335 785.391 405.025 789.243 404.342L789.244 404.342C791.664 403.97 794.178 403.349 796.272 402.666C797.319 402.325 798.261 401.968 799.034 401.62C799.807 401.271 800.408 400.931 800.776 400.625L800.777 400.624L803.597 398.417L797.411 389.509L797.411 389.508C792.192 381.866 788.499 377.244 785.447 374.951C783.922 373.805 782.561 373.244 781.252 373.175C779.943 373.105 778.679 373.528 777.349 374.363C776.936 374.623 776.365 375.16 775.682 375.911C774.999 376.66 774.207 377.619 773.351 378.718C771.639 380.916 769.675 383.676 767.827 386.448C765.98 389.22 764.248 392.003 763.003 394.248C762.38 395.37 761.879 396.357 761.546 397.141C761.379 397.532 761.254 397.872 761.178 398.152C761.1 398.433 761.073 398.648 761.094 398.792Z" fill="black" stroke="black" stroke-width="0.1"/>
</svg>
