<svg width="3000" height="2000" viewBox="0 0 3000 2000" fill="none" xmlns="http://www.w3.org/2000/svg">
<path d="M1144.39 1116.25H974.381V1234.91H1144.39V1116.25Z" fill="#2D2D2D"/>
<path fill-rule="evenodd" clip-rule="evenodd" d="M987.825 1241.16H932.57L914 1220.64V1181.97C914 1177.83 917.374 1174.46 921.513 1174.46H984.561C980.835 1183.82 978.875 1193.9 978.875 1204.23C978.875 1217.24 981.988 1229.86 987.825 1241.16Z" fill="#505050" stroke="black" stroke-width="9" stroke-miterlimit="22.9256" stroke-linecap="round" stroke-linejoin="round"/>
<path fill-rule="evenodd" clip-rule="evenodd" d="M1305.84 1174.46H1134.22C1130.21 1164.39 1124.17 1155.14 1116.32 1147.29C1101.18 1132.14 1080.81 1123.7 1059.39 1123.7C1037.96 1123.7 1017.6 1132.14 1002.45 1147.29C994.607 1155.14 988.562 1164.39 984.558 1174.46H926.244C931.11 1150.6 935.972 1126.75 940.837 1102.9C941.939 1097.49 945.283 1093.33 950.33 1091.09C994.634 1071.44 1038.94 1051.79 1083.25 1032.14C1110.3 991.82 1137.35 951.505 1164.39 911.186C1166.41 908.183 1169.51 906.528 1173.13 906.528C1217.37 906.528 1261.6 906.528 1305.84 906.528C1305.84 995.838 1305.84 1085.15 1305.84 1174.46Z" fill="white" stroke="black" stroke-width="9" stroke-miterlimit="22.9256" stroke-linecap="round" stroke-linejoin="round"/>
<path fill-rule="evenodd" clip-rule="evenodd" d="M1276.6 1032.14V923.055C1238.94 923.055 1214 923.055 1176.33 923.055L1103.15 1032.14H1276.6Z" fill="#C8C8C8" stroke="black" stroke-width="9" stroke-miterlimit="22.9256" stroke-linecap="round" stroke-linejoin="round"/>
<path fill-rule="evenodd" clip-rule="evenodd" d="M1305.84 1174.46H1134.22C1137.94 1183.82 1139.91 1193.9 1139.91 1204.23C1139.91 1217.24 1136.79 1229.86 1130.96 1241.16H1305.84V1174.46Z" fill="#505050" stroke="black" stroke-width="9" stroke-miterlimit="22.9256" stroke-linecap="round" stroke-linejoin="round"/>
<path d="M1479.54 1121.9H1305.84V1241.16H1479.54V1121.9Z" fill="#505050" stroke="black" stroke-width="9" stroke-miterlimit="22.9256" stroke-linecap="round" stroke-linejoin="round"/>
<path fill-rule="evenodd" clip-rule="evenodd" d="M1479.54 1121.9C1647.66 1121.9 1805.02 1121.9 1967.65 1121.9V1164.83L1916.61 1165.92L1895.71 1204.22C1775.73 1204.22 1638.47 1204.22 1479.54 1204.22V1121.9Z" fill="#505050" stroke="black" stroke-width="9" stroke-miterlimit="22.9256" stroke-linecap="round" stroke-linejoin="round"/>
<path d="M2035 710H1306V1122H2035V710Z" fill="white" stroke="black" stroke-width="9" stroke-miterlimit="22.9256" stroke-linecap="round" stroke-linejoin="round"/>
<path fill-rule="evenodd" clip-rule="evenodd" d="M1276.6 1032.14H1103.15L1103.28 1113.49C1128.21 1125.57 1147.4 1147.62 1155.69 1174.45L1276.6 1174.46L1276.6 1032.14Z" fill="white" stroke="black" stroke-width="9" stroke-miterlimit="22.9256" stroke-linecap="round" stroke-linejoin="round"/>
<path d="M2086.68 1108H2035V1125.31H2086.68V1108Z" fill="#2D2D2D"/>
<path fill-rule="evenodd" clip-rule="evenodd" d="M1251.57 1083.62H1260.71C1263.01 1083.62 1264.89 1085.49 1264.89 1087.79V1119.19C1264.89 1121.49 1263.01 1123.37 1260.71 1123.37H1251.57C1249.27 1123.37 1247.4 1121.49 1247.4 1119.19V1087.79C1247.4 1085.49 1249.27 1083.62 1251.57 1083.62Z" fill="black"/>
<path fill-rule="evenodd" clip-rule="evenodd" d="M992.15 1106.64H1003.47C1004.81 1106.64 1005.91 1107.74 1005.91 1109.07V1114.88C1005.91 1116.21 1004.81 1117.31 1003.47 1117.31H992.15C990.813 1117.31 989.721 1116.21 989.721 1114.88V1109.07C989.721 1107.74 990.816 1106.64 992.15 1106.64Z" fill="#F58220"/>
<path fill-rule="evenodd" clip-rule="evenodd" d="M926.244 1174.46L934.142 1135.72H945.33C947.418 1135.72 949.144 1137.32 949.311 1139.4L952.086 1174.45H926.244V1174.46Z" fill="#C8C8C8" stroke="black" stroke-width="9" stroke-miterlimit="22.9256" stroke-linecap="round" stroke-linejoin="round"/>
<path fill-rule="evenodd" clip-rule="evenodd" d="M1291.22 961.38C1292.94 961.38 1294.34 962.784 1294.34 964.5V1099.37C1294.34 1101.09 1292.94 1102.49 1291.22 1102.49C1289.5 1102.49 1288.1 1101.09 1288.1 1099.37V964.5C1288.1 962.787 1289.5 961.38 1291.22 961.38Z" fill="#C8C8C8"/>
<path d="M1059.39 1278.78C1100.56 1278.78 1133.94 1245.4 1133.94 1204.23C1133.94 1163.05 1100.56 1129.67 1059.39 1129.67C1018.22 1129.67 984.844 1163.05 984.844 1204.23C984.844 1245.4 1018.22 1278.78 1059.39 1278.78Z" fill="black"/>
<path d="M1059.39 1252.13C1085.85 1252.13 1107.3 1230.68 1107.3 1204.23C1107.3 1177.77 1085.85 1156.32 1059.39 1156.32C1032.94 1156.32 1011.49 1177.77 1011.49 1204.23C1011.49 1230.68 1032.94 1252.13 1059.39 1252.13Z" fill="white"/>
<path fill-rule="evenodd" clip-rule="evenodd" d="M1059.39 1246.15C1082.48 1246.15 1101.31 1227.32 1101.31 1204.23C1101.31 1181.13 1082.48 1162.3 1059.39 1162.3C1036.3 1162.3 1017.47 1181.13 1017.47 1204.23C1017.47 1227.32 1036.3 1246.15 1059.39 1246.15Z" stroke="black" stroke-width="9" stroke-miterlimit="22.9256"/>
<path fill-rule="evenodd" clip-rule="evenodd" d="M1059.38 1227.63C1072.28 1227.63 1082.79 1217.11 1082.79 1204.22C1082.79 1191.32 1072.27 1180.8 1059.38 1180.8C1046.48 1180.8 1035.97 1191.32 1035.97 1204.22C1035.97 1217.11 1046.48 1227.63 1059.38 1227.63Z" fill="black"/>
<path fill-rule="evenodd" clip-rule="evenodd" d="M1042.57 1174.86C1046.19 1172.77 1049.69 1172.04 1050.37 1173.23C1051.06 1174.42 1048.68 1177.08 1045.05 1179.17C1041.43 1181.26 1037.94 1181.99 1037.25 1180.8C1036.56 1179.61 1038.95 1176.95 1042.57 1174.86Z" fill="black"/>
<path fill-rule="evenodd" clip-rule="evenodd" d="M1025.82 1203.87C1025.82 1199.69 1026.93 1196.3 1028.31 1196.3C1029.68 1196.3 1030.8 1199.69 1030.8 1203.87C1030.8 1208.06 1029.68 1211.45 1028.31 1211.45C1026.93 1211.45 1025.82 1208.06 1025.82 1203.87Z" fill="black"/>
<path fill-rule="evenodd" clip-rule="evenodd" d="M1042.2 1233C1038.58 1230.91 1036.2 1228.25 1036.89 1227.05C1037.57 1225.86 1041.06 1226.59 1044.69 1228.68C1048.31 1230.78 1050.69 1233.44 1050.01 1234.63C1049.32 1235.82 1045.83 1235.09 1042.2 1233Z" fill="black"/>
<path fill-rule="evenodd" clip-rule="evenodd" d="M1075.77 1233.21C1072.15 1235.3 1068.65 1236.03 1067.97 1234.84C1067.28 1233.65 1069.66 1230.99 1073.28 1228.9C1076.91 1226.81 1080.4 1226.07 1081.09 1227.27C1081.77 1228.46 1079.39 1231.12 1075.77 1233.21Z" fill="black"/>
<path fill-rule="evenodd" clip-rule="evenodd" d="M1092.73 1204.25C1092.73 1208.43 1091.62 1211.82 1090.24 1211.82C1088.87 1211.82 1087.75 1208.43 1087.75 1204.25C1087.75 1200.06 1088.87 1196.67 1090.24 1196.67C1091.62 1196.67 1092.73 1200.06 1092.73 1204.25Z" fill="black"/>
<path fill-rule="evenodd" clip-rule="evenodd" d="M1076.14 1175.07C1079.76 1177.16 1082.14 1179.82 1081.45 1181.01C1080.77 1182.2 1077.27 1181.47 1073.65 1179.38C1070.02 1177.29 1067.64 1174.63 1068.33 1173.44C1069.02 1172.25 1072.51 1172.98 1076.14 1175.07Z" fill="black"/>
<path fill-rule="evenodd" clip-rule="evenodd" d="M1046.48 1198.04C1045.43 1198.65 1044.08 1198.29 1043.48 1197.24C1042.87 1196.18 1043.23 1194.84 1044.28 1194.23C1045.33 1193.62 1046.68 1193.98 1047.29 1195.03C1047.9 1196.09 1047.53 1197.43 1046.48 1198.04Z" fill="white"/>
<path fill-rule="evenodd" clip-rule="evenodd" d="M1046.48 1214.21C1045.43 1214.81 1044.08 1214.45 1043.48 1213.4C1042.87 1212.35 1043.23 1211 1044.28 1210.4C1045.33 1209.79 1046.68 1210.15 1047.29 1211.2C1047.9 1212.25 1047.53 1213.6 1046.48 1214.21Z" fill="white"/>
<path fill-rule="evenodd" clip-rule="evenodd" d="M1060.48 1222.28C1059.43 1222.89 1058.08 1222.53 1057.47 1221.48C1056.87 1220.42 1057.22 1219.08 1058.28 1218.47C1059.33 1217.86 1060.68 1218.22 1061.28 1219.28C1061.89 1220.33 1061.53 1221.67 1060.48 1222.28Z" fill="white"/>
<path fill-rule="evenodd" clip-rule="evenodd" d="M1074.47 1214.2C1073.42 1214.81 1072.08 1214.45 1071.47 1213.4C1070.86 1212.35 1071.22 1211 1072.27 1210.39C1073.33 1209.79 1074.67 1210.14 1075.28 1211.2C1075.89 1212.25 1075.53 1213.6 1074.47 1214.2Z" fill="white"/>
<path fill-rule="evenodd" clip-rule="evenodd" d="M1074.47 1198.04C1073.42 1198.65 1072.07 1198.29 1071.47 1197.24C1070.86 1196.18 1071.22 1194.84 1072.27 1194.23C1073.32 1193.62 1074.67 1193.98 1075.28 1195.03C1075.89 1196.09 1075.52 1197.43 1074.47 1198.04Z" fill="white"/>
<path fill-rule="evenodd" clip-rule="evenodd" d="M1060.48 1189.96C1059.43 1190.57 1058.08 1190.21 1057.47 1189.16C1056.87 1188.1 1057.22 1186.76 1058.28 1186.15C1059.33 1185.54 1060.68 1185.9 1061.28 1186.95C1061.89 1188.01 1061.53 1189.35 1060.48 1189.96Z" fill="white"/>
<path d="M1788.36 1277.75C1829 1271.17 1856.61 1232.89 1850.03 1192.24C1843.45 1151.6 1805.17 1123.98 1764.53 1130.56C1723.89 1137.14 1696.28 1175.43 1702.86 1216.07C1709.44 1256.72 1747.72 1284.33 1788.36 1277.75Z" fill="black"/>
<path fill-rule="evenodd" clip-rule="evenodd" d="M1776.51 1252.13C1802.9 1252.13 1824.42 1230.61 1824.42 1204.23C1824.42 1177.84 1802.9 1156.32 1776.51 1156.32C1750.13 1156.32 1728.61 1177.84 1728.61 1204.23C1728.61 1230.61 1750.13 1252.13 1776.51 1252.13Z" fill="white"/>
<path fill-rule="evenodd" clip-rule="evenodd" d="M1776.51 1246.15C1799.6 1246.15 1818.44 1227.32 1818.44 1204.23C1818.44 1181.13 1799.6 1162.3 1776.51 1162.3C1753.42 1162.3 1734.59 1181.13 1734.59 1204.23C1734.59 1227.32 1753.43 1246.15 1776.51 1246.15Z" stroke="black" stroke-width="9" stroke-miterlimit="22.9256"/>
<path d="M1776.51 1222.71C1786.72 1222.71 1795 1214.44 1795 1204.23C1795 1194.02 1786.72 1185.74 1776.51 1185.74C1766.3 1185.74 1758.03 1194.02 1758.03 1204.23C1758.03 1214.44 1766.3 1222.71 1776.51 1222.71Z" fill="black"/>
<path fill-rule="evenodd" clip-rule="evenodd" d="M1767.31 1200.18C1766.26 1200.79 1764.91 1200.43 1764.3 1199.38C1763.7 1198.32 1764.05 1196.98 1765.11 1196.37C1766.16 1195.76 1767.5 1196.12 1768.11 1197.18C1768.72 1198.23 1768.36 1199.57 1767.31 1200.18Z" fill="white"/>
<path fill-rule="evenodd" clip-rule="evenodd" d="M1767.31 1212.08C1766.26 1212.69 1764.91 1212.33 1764.3 1211.28C1763.7 1210.23 1764.05 1208.88 1765.11 1208.27C1766.16 1207.67 1767.51 1208.03 1768.11 1209.08C1768.72 1210.13 1768.36 1211.47 1767.31 1212.08Z" fill="white"/>
<path fill-rule="evenodd" clip-rule="evenodd" d="M1777.61 1218.03C1776.56 1218.64 1775.21 1218.28 1774.61 1217.23C1774 1216.18 1774.36 1214.83 1775.41 1214.22C1776.46 1213.62 1777.81 1213.97 1778.42 1215.03C1779.03 1216.08 1778.66 1217.43 1777.61 1218.03Z" fill="white"/>
<path fill-rule="evenodd" clip-rule="evenodd" d="M1787.92 1212.08C1786.87 1212.69 1785.52 1212.33 1784.91 1211.28C1784.31 1210.23 1784.67 1208.88 1785.72 1208.27C1786.77 1207.67 1788.11 1208.03 1788.72 1209.08C1789.33 1210.13 1788.97 1211.47 1787.92 1212.08Z" fill="white"/>
<path fill-rule="evenodd" clip-rule="evenodd" d="M1787.92 1200.18C1786.87 1200.79 1785.52 1200.43 1784.91 1199.38C1784.31 1198.32 1784.67 1196.98 1785.72 1196.37C1786.77 1195.76 1788.12 1196.12 1788.72 1197.18C1789.33 1198.23 1788.97 1199.57 1787.92 1200.18Z" fill="white"/>
<path fill-rule="evenodd" clip-rule="evenodd" d="M1777.61 1194.23C1776.56 1194.84 1775.21 1194.48 1774.61 1193.43C1774 1192.38 1774.36 1191.03 1775.41 1190.42C1776.46 1189.82 1777.81 1190.18 1778.42 1191.23C1779.03 1192.28 1778.67 1193.62 1777.61 1194.23Z" fill="white"/>
<path fill-rule="evenodd" clip-rule="evenodd" d="M1759.34 1174.23C1763.04 1172.1 1766.61 1171.35 1767.31 1172.57C1768.01 1173.78 1765.58 1176.5 1761.88 1178.64C1758.17 1180.78 1754.61 1181.52 1753.91 1180.31C1753.21 1179.09 1755.63 1176.37 1759.34 1174.23Z" fill="black"/>
<path fill-rule="evenodd" clip-rule="evenodd" d="M1742.22 1203.87C1742.22 1199.6 1743.36 1196.14 1744.77 1196.14C1746.17 1196.14 1747.31 1199.6 1747.31 1203.87C1747.31 1208.15 1746.17 1211.61 1744.77 1211.61C1743.36 1211.61 1742.22 1208.15 1742.22 1203.87Z" fill="black"/>
<path fill-rule="evenodd" clip-rule="evenodd" d="M1758.96 1233.62C1755.26 1231.48 1752.83 1228.76 1753.53 1227.55C1754.23 1226.33 1757.8 1227.08 1761.5 1229.22C1765.2 1231.36 1767.63 1234.07 1766.93 1235.29C1766.23 1236.5 1762.66 1235.76 1758.96 1233.62Z" fill="black"/>
<path fill-rule="evenodd" clip-rule="evenodd" d="M1793.25 1233.84C1789.54 1235.97 1785.98 1236.72 1785.28 1235.5C1784.57 1234.29 1787 1231.57 1790.71 1229.43C1794.41 1227.29 1797.98 1226.55 1798.68 1227.76C1799.38 1228.98 1796.95 1231.7 1793.25 1233.84Z" fill="black"/>
<path fill-rule="evenodd" clip-rule="evenodd" d="M1810.58 1204.25C1810.58 1208.53 1809.44 1211.99 1808.04 1211.99C1806.63 1211.99 1805.49 1208.53 1805.49 1204.25C1805.49 1199.97 1806.63 1196.51 1808.04 1196.51C1809.44 1196.51 1810.58 1199.98 1810.58 1204.25Z" fill="black"/>
<path fill-rule="evenodd" clip-rule="evenodd" d="M1793.62 1174.45C1797.32 1176.59 1799.75 1179.3 1799.05 1180.52C1798.35 1181.74 1794.78 1180.99 1791.08 1178.85C1787.38 1176.71 1784.95 1174 1785.65 1172.78C1786.35 1171.57 1789.92 1172.31 1793.62 1174.45Z" fill="black"/>
<path fill-rule="evenodd" clip-rule="evenodd" d="M1818.81 1121.91C1845.54 1135.19 1863.84 1162.29 1863.84 1193.58C1863.84 1207.13 1860.41 1219.89 1854.34 1231.09C1857.25 1222.67 1858.83 1213.64 1858.83 1204.23C1858.83 1159.08 1822.49 1122.42 1777.46 1121.92V1121.91H1818.81Z" fill="black" stroke="black" stroke-width="9" stroke-miterlimit="22.9256" stroke-linecap="round" stroke-linejoin="round"/>
<path fill-rule="evenodd" clip-rule="evenodd" d="M1734 1121.91C1707.28 1135.19 1688.97 1162.29 1688.97 1193.58C1688.97 1207.13 1692.41 1219.89 1698.48 1231.09C1695.57 1222.67 1693.99 1213.64 1693.99 1204.23C1693.99 1159.08 1730.33 1122.42 1775.36 1121.92V1121.91H1734Z" fill="black" stroke="black" stroke-width="9" stroke-miterlimit="22.9256" stroke-linecap="round" stroke-linejoin="round"/>
<path d="M1152.26 1049.48C1150.95 1049.48 1149.88 1048.42 1149.88 1047.11V928.349C1149.88 924.12 1153.32 920.682 1157.55 920.682H1176.33C1177.64 920.682 1178.71 921.744 1178.71 923.058C1178.71 924.372 1177.64 925.434 1176.33 925.434H1157.55C1155.94 925.434 1154.63 926.744 1154.63 928.349V1047.11C1154.63 1048.42 1153.57 1049.48 1152.26 1049.48Z" fill="black"/>
<path fill-rule="evenodd" clip-rule="evenodd" d="M1150.3 961.755H1155.73C1156.76 961.755 1157.59 962.589 1157.59 963.612V971.721C1157.59 972.743 1156.76 973.577 1155.73 973.577H1150.3C1149.27 973.577 1148.44 972.743 1148.44 971.721V963.612C1148.44 962.589 1149.27 961.755 1150.3 961.755Z" fill="black"/>
<path fill-rule="evenodd" clip-rule="evenodd" d="M1164.81 929.334C1168.48 929.334 1169.39 936.76 1169.39 943.925V992.132C1169.39 999.296 1168.48 1006.72 1164.81 1006.72C1155.18 1006.72 1155.18 929.334 1164.81 929.334Z" fill="#505050" stroke="black" stroke-width="9" stroke-miterlimit="22.9256" stroke-linecap="round" stroke-linejoin="round"/>
<path fill-rule="evenodd" clip-rule="evenodd" d="M1164.81 1013.55C1168.48 1013.55 1169.39 1016.43 1169.39 1019.2V1037.88C1169.39 1040.66 1168.48 1043.54 1164.81 1043.54C1155.18 1043.54 1155.18 1013.55 1164.81 1013.55Z" fill="#505050" stroke="black" stroke-width="9" stroke-miterlimit="22.9256" stroke-linecap="round" stroke-linejoin="round"/>
<path fill-rule="evenodd" clip-rule="evenodd" d="M1176.33 927.719C1178.9 927.719 1180.99 925.622 1180.99 923.055C1180.99 920.484 1178.9 918.39 1176.33 918.39C1173.76 918.39 1171.67 920.488 1171.67 923.055C1171.67 925.625 1173.76 927.719 1176.33 927.719Z" fill="black"/>
<path fill-rule="evenodd" clip-rule="evenodd" d="M1150.3 1022.63H1155.73C1156.76 1022.63 1157.59 1023.47 1157.59 1024.49V1032.6C1157.59 1033.62 1156.76 1034.45 1155.73 1034.45H1150.3C1149.27 1034.45 1148.44 1033.62 1148.44 1032.6V1024.49C1148.44 1023.47 1149.27 1022.63 1150.3 1022.63Z" fill="black"/>
<path fill-rule="evenodd" clip-rule="evenodd" d="M1152.26 1051.78C1154.83 1051.78 1156.93 1049.68 1156.93 1047.11C1156.93 1044.54 1154.83 1042.45 1152.26 1042.45C1149.69 1042.45 1147.6 1044.54 1147.6 1047.11C1147.59 1049.68 1149.69 1051.78 1152.26 1051.78Z" fill="black"/>
<path fill-rule="evenodd" clip-rule="evenodd" d="M1148.49 872.06L1155.35 826.063L1159.35 801.854C1159.35 801.854 1162.2 787.328 1169.63 780.671C1177.06 774.013 1185.63 770.987 1185.63 770.987C1198.2 765.54 1268.27 767.257 1273.93 767.257H1306V895.959H1192.46C1188.69 895.955 1142.78 898.084 1148.49 872.06Z" fill="white" stroke="black" stroke-width="10" stroke-miterlimit="22.9256" stroke-linecap="round" stroke-linejoin="round"/>
</svg>
