<svg width="3000" height="2000" viewBox="0 0 3000 2000" fill="none" xmlns="http://www.w3.org/2000/svg">
<path fill-rule="evenodd" clip-rule="evenodd" d="M1897.95 1205C1881.7 1197.84 1870.56 1188.1 1863.98 1176.08C1824.78 1173.42 1503 1159.92 1503 1159.92C1503 1152.54 1503 1142.38 1503 1135H1956C1942.84 1137.07 1930.74 1141.18 1920.91 1147.05C1906.3 1155.77 1898.16 1167.49 1898.16 1179.82C1898.16 1188.85 1902.53 1197.56 1910.6 1205H1897.95V1205Z" fill="#505050" stroke="black" stroke-width="10" stroke-miterlimit="22.9256" stroke-linecap="round" stroke-linejoin="round"/>
<path d="M2272 1134H1944V1232H2272V1134Z" fill="#2D2D2D"/>
<path fill-rule="evenodd" clip-rule="evenodd" d="M1940.17 1274.35C1978.27 1274.35 2009.34 1243.28 2009.34 1205.17C2009.34 1167.07 1978.27 1136 1940.17 1136C1902.07 1136 1871 1167.08 1871 1205.17C1871 1243.27 1902.07 1274.35 1940.17 1274.35Z" fill="black"/>
<path d="M1986.39 1208.46C1988.21 1182.95 1968.99 1160.79 1943.47 1158.98C1917.96 1157.16 1895.8 1176.38 1893.99 1201.9C1892.17 1227.41 1911.39 1249.57 1936.91 1251.39C1962.42 1253.2 1984.58 1233.98 1986.39 1208.46Z" fill="white"/>
<path fill-rule="evenodd" clip-rule="evenodd" d="M1940.17 1220.68C1948.71 1220.68 1955.68 1213.72 1955.68 1205.17C1955.68 1196.63 1948.71 1189.67 1940.17 1189.67C1931.63 1189.67 1924.66 1196.63 1924.66 1205.17C1924.66 1213.72 1931.63 1220.68 1940.17 1220.68Z" fill="black"/>
<path fill-rule="evenodd" clip-rule="evenodd" d="M1940.17 1212.66C1944.29 1212.66 1947.66 1209.3 1947.66 1205.17C1947.66 1201.05 1944.29 1197.68 1940.17 1197.68C1936.04 1197.68 1932.68 1201.05 1932.68 1205.17C1932.68 1209.29 1936.05 1212.66 1940.17 1212.66Z" fill="white" stroke="black" stroke-width="10" stroke-miterlimit="22.9256" stroke-linecap="round" stroke-linejoin="round"/>
<path d="M1949.99 1246.29C1972.68 1240.86 1986.67 1218.07 1981.25 1195.38C1975.82 1172.7 1953.03 1158.7 1930.35 1164.13C1907.66 1169.56 1893.67 1192.35 1899.09 1215.03C1904.52 1237.72 1927.31 1251.71 1949.99 1246.29Z" stroke="black" stroke-width="10" stroke-miterlimit="22.9256" stroke-linecap="round" stroke-linejoin="round"/>
<path d="M1940.17 1175.14C1944.12 1175.14 1947.32 1173.35 1947.32 1171.14C1947.32 1168.93 1944.12 1167.14 1940.17 1167.14C1936.21 1167.14 1933.01 1168.93 1933.01 1171.14C1933.01 1173.35 1936.21 1175.14 1940.17 1175.14Z" fill="black"/>
<path fill-rule="evenodd" clip-rule="evenodd" d="M1914.15 1190.16C1912.18 1193.58 1909.02 1195.46 1907.11 1194.35C1905.2 1193.25 1905.25 1189.58 1907.23 1186.16C1909.21 1182.73 1912.36 1180.85 1914.28 1181.96C1916.18 1183.06 1916.13 1186.73 1914.15 1190.16Z" fill="black"/>
<path fill-rule="evenodd" clip-rule="evenodd" d="M1914.15 1220.19C1916.13 1223.62 1916.18 1227.29 1914.27 1228.39C1912.36 1229.5 1909.2 1227.62 1907.23 1224.19C1905.25 1220.77 1905.2 1217.1 1907.11 1215.99C1909.02 1214.89 1912.18 1216.77 1914.15 1220.19Z" fill="black"/>
<path fill-rule="evenodd" clip-rule="evenodd" d="M1940.17 1235.21C1944.12 1235.21 1947.32 1237 1947.32 1239.21C1947.32 1241.42 1944.12 1243.21 1940.17 1243.21C1936.21 1243.21 1933.01 1241.42 1933.01 1239.21C1933.01 1237 1936.21 1235.21 1940.17 1235.21Z" fill="black"/>
<path fill-rule="evenodd" clip-rule="evenodd" d="M1966.18 1220.19C1968.15 1216.77 1971.31 1214.89 1973.22 1215.99C1975.13 1217.1 1975.08 1220.77 1973.1 1224.19C1971.12 1227.62 1967.97 1229.5 1966.06 1228.39C1964.15 1227.29 1964.2 1223.61 1966.18 1220.19Z" fill="black"/>
<path fill-rule="evenodd" clip-rule="evenodd" d="M1966.18 1190.16C1964.2 1186.73 1964.15 1183.06 1966.06 1181.96C1967.97 1180.85 1971.13 1182.73 1973.1 1186.16C1975.08 1189.58 1975.13 1193.25 1973.22 1194.35C1971.31 1195.46 1968.15 1193.58 1966.18 1190.16Z" fill="black"/>
<path fill-rule="evenodd" clip-rule="evenodd" d="M1929.61 1189.76C1931.19 1189.76 1932.48 1188.47 1932.48 1186.88C1932.48 1185.3 1931.19 1184.01 1929.61 1184.01C1928.02 1184.01 1926.73 1185.3 1926.73 1186.88C1926.73 1188.47 1928.02 1189.76 1929.61 1189.76Z" fill="black"/>
<path fill-rule="evenodd" clip-rule="evenodd" d="M1919.05 1208.05C1920.63 1208.05 1921.93 1206.76 1921.93 1205.18C1921.93 1203.59 1920.63 1202.3 1919.05 1202.3C1917.47 1202.3 1916.18 1203.59 1916.18 1205.18C1916.17 1206.76 1917.47 1208.05 1919.05 1208.05Z" fill="black"/>
<path fill-rule="evenodd" clip-rule="evenodd" d="M1929.61 1226.34C1931.19 1226.34 1932.48 1225.05 1932.48 1223.46C1932.48 1221.88 1931.19 1220.59 1929.61 1220.59C1928.02 1220.59 1926.73 1221.88 1926.73 1223.46C1926.73 1225.05 1928.02 1226.34 1929.61 1226.34Z" fill="black"/>
<path d="M1950.73 1226.34C1952.32 1226.34 1953.61 1225.05 1953.61 1223.46C1953.61 1221.88 1952.32 1220.59 1950.73 1220.59C1949.14 1220.59 1947.86 1221.88 1947.86 1223.46C1947.86 1225.05 1949.14 1226.34 1950.73 1226.34Z" fill="black"/>
<path fill-rule="evenodd" clip-rule="evenodd" d="M1961.29 1208.05C1962.87 1208.05 1964.16 1206.76 1964.16 1205.17C1964.16 1203.59 1962.87 1202.3 1961.29 1202.3C1959.7 1202.3 1958.41 1203.59 1958.41 1205.17C1958.41 1206.76 1959.7 1208.05 1961.29 1208.05Z" fill="black"/>
<path fill-rule="evenodd" clip-rule="evenodd" d="M1950.73 1189.76C1952.32 1189.76 1953.61 1188.47 1953.61 1186.88C1953.61 1185.3 1952.32 1184.01 1950.73 1184.01C1949.15 1184.01 1947.86 1185.3 1947.86 1186.88C1947.86 1188.47 1949.15 1189.76 1950.73 1189.76Z" fill="black"/>
<path d="M2279.38 1273.62C2317.09 1267.52 2342.72 1232 2336.62 1194.29C2330.52 1156.57 2295 1130.95 2257.29 1137.05C2219.57 1143.15 2193.95 1178.67 2200.05 1216.38C2206.15 1254.1 2241.67 1279.73 2279.38 1273.62Z" fill="black"/>
<path fill-rule="evenodd" clip-rule="evenodd" d="M2268.27 1245.76C2290.53 1245.76 2308.69 1227.6 2308.69 1205.33C2308.69 1183.06 2290.53 1164.9 2268.27 1164.9C2246.01 1164.9 2227.84 1183.06 2227.84 1205.33C2227.84 1227.6 2246.01 1245.76 2268.27 1245.76Z" fill="white"/>
<path fill-rule="evenodd" clip-rule="evenodd" d="M2268.27 1242.25C2288.6 1242.25 2305.18 1225.66 2305.18 1205.33C2305.18 1185 2288.6 1168.42 2268.27 1168.42C2247.94 1168.42 2231.36 1185 2231.36 1205.33C2231.36 1225.66 2247.94 1242.25 2268.27 1242.25Z" stroke="black" stroke-width="10" stroke-miterlimit="22.9256" stroke-linecap="round" stroke-linejoin="round"/>
<path fill-rule="evenodd" clip-rule="evenodd" d="M2268.27 1216.08C2274.19 1216.08 2279.02 1211.25 2279.02 1205.33C2279.02 1199.41 2274.19 1194.58 2268.27 1194.58C2262.35 1194.58 2257.52 1199.41 2257.52 1205.33C2257.52 1211.25 2262.35 1216.08 2268.27 1216.08Z" fill="black"/>
<path fill-rule="evenodd" clip-rule="evenodd" d="M2268.27 1179.88C2271.61 1179.88 2274.33 1178.36 2274.33 1176.49C2274.33 1174.62 2271.61 1173.1 2268.27 1173.1C2264.93 1173.1 2262.2 1174.62 2262.2 1176.49C2262.2 1178.36 2264.93 1179.88 2268.27 1179.88Z" fill="black"/>
<path fill-rule="evenodd" clip-rule="evenodd" d="M2246.23 1192.61C2244.55 1195.51 2241.88 1197.1 2240.26 1196.16C2238.64 1195.23 2238.69 1192.12 2240.36 1189.22C2242.03 1186.32 2244.7 1184.72 2246.33 1185.66C2247.95 1186.59 2247.9 1189.7 2246.23 1192.61Z" fill="black"/>
<path fill-rule="evenodd" clip-rule="evenodd" d="M2246.23 1218.06C2247.9 1220.96 2247.95 1224.07 2246.32 1225.01C2244.71 1225.94 2242.03 1224.35 2240.36 1221.45C2238.68 1218.55 2238.64 1215.44 2240.26 1214.5C2241.88 1213.56 2244.55 1215.16 2246.23 1218.06Z" fill="black"/>
<path fill-rule="evenodd" clip-rule="evenodd" d="M2268.27 1230.78C2271.62 1230.78 2274.33 1232.3 2274.33 1234.17C2274.33 1236.04 2271.62 1237.56 2268.27 1237.56C2264.92 1237.56 2262.2 1236.04 2262.2 1234.17C2262.2 1232.3 2264.92 1230.78 2268.27 1230.78Z" fill="black"/>
<path fill-rule="evenodd" clip-rule="evenodd" d="M2290.31 1218.06C2291.98 1215.16 2294.66 1213.57 2296.27 1214.5C2297.89 1215.44 2297.85 1218.55 2296.18 1221.45C2294.5 1224.35 2291.83 1225.94 2290.21 1225.01C2288.59 1224.07 2288.63 1220.96 2290.31 1218.06Z" fill="black"/>
<path fill-rule="evenodd" clip-rule="evenodd" d="M2290.31 1192.61C2288.63 1189.7 2288.59 1186.59 2290.21 1185.66C2291.83 1184.72 2294.5 1186.32 2296.18 1189.22C2297.85 1192.12 2297.9 1195.23 2296.27 1196.16C2294.65 1197.1 2291.98 1195.51 2290.31 1192.61Z" fill="black"/>
<path fill-rule="evenodd" clip-rule="evenodd" d="M2260.32 1194.33C2261.84 1194.33 2263.08 1193.09 2263.08 1191.57C2263.08 1190.06 2261.84 1188.82 2260.32 1188.82C2258.81 1188.82 2257.57 1190.06 2257.57 1191.57C2257.57 1193.09 2258.81 1194.33 2260.32 1194.33Z" fill="black"/>
<path fill-rule="evenodd" clip-rule="evenodd" d="M2252.38 1208.09C2253.9 1208.09 2255.14 1206.85 2255.14 1205.33C2255.14 1203.81 2253.9 1202.58 2252.38 1202.58C2250.87 1202.58 2249.63 1203.81 2249.63 1205.33C2249.63 1206.85 2250.87 1208.09 2252.38 1208.09Z" fill="black"/>
<path fill-rule="evenodd" clip-rule="evenodd" d="M2260.32 1221.84C2261.84 1221.84 2263.08 1220.61 2263.08 1219.09C2263.08 1217.57 2261.84 1216.33 2260.32 1216.33C2258.81 1216.33 2257.57 1217.57 2257.57 1219.09C2257.57 1220.61 2258.81 1221.84 2260.32 1221.84Z" fill="black"/>
<path fill-rule="evenodd" clip-rule="evenodd" d="M2276.21 1221.84C2277.73 1221.84 2278.97 1220.61 2278.97 1219.09C2278.97 1217.57 2277.73 1216.33 2276.21 1216.33C2274.69 1216.33 2273.46 1217.57 2273.46 1219.09C2273.46 1220.61 2274.7 1221.84 2276.21 1221.84Z" fill="black"/>
<path fill-rule="evenodd" clip-rule="evenodd" d="M2284.16 1208.08C2285.67 1208.08 2286.91 1206.85 2286.91 1205.33C2286.91 1203.81 2285.67 1202.58 2284.16 1202.58C2282.64 1202.58 2281.4 1203.81 2281.4 1205.33C2281.4 1206.85 2282.64 1208.08 2284.16 1208.08Z" fill="black"/>
<path fill-rule="evenodd" clip-rule="evenodd" d="M2276.21 1194.33C2277.73 1194.33 2278.97 1193.09 2278.97 1191.57C2278.97 1190.06 2277.73 1188.82 2276.21 1188.82C2274.69 1188.82 2273.46 1190.06 2273.46 1191.57C2273.46 1193.09 2274.7 1194.33 2276.21 1194.33Z" fill="black"/>
<path fill-rule="evenodd" clip-rule="evenodd" d="M2491.7 1200.51H2484V1175H2475V1200.51V1226.02H2491.7V1200.51Z" fill="black"/>
<path fill-rule="evenodd" clip-rule="evenodd" d="M2336.81 1246.8C2352.44 1235.26 2363.14 1219.56 2369.47 1200.19C2407.16 1195.91 2444.84 1191.63 2482.52 1187.34C2482.52 1175.44 2482.52 1145.9 2482.52 1134H2281C2293.65 1137.33 2305.29 1143.97 2314.74 1153.41C2328.79 1167.46 2336.61 1186.35 2336.61 1206.23C2336.61 1220.78 2332.41 1234.81 2324.64 1246.8H2336.81V1246.8Z" fill="#505050" stroke="black" stroke-width="10" stroke-miterlimit="22.9256" stroke-linecap="round" stroke-linejoin="round"/>
<path d="M2549.22 731H1683V1133.58H2549.22V731Z" fill="white" stroke="black" stroke-width="10" stroke-miterlimit="22.9256" stroke-linecap="round" stroke-linejoin="round"/>
<path d="M680.396 1116.25H510.383V1234.91H680.396V1116.25Z" fill="#2D2D2D"/>
<path fill-rule="evenodd" clip-rule="evenodd" d="M523.825 1241.16H468.57L450 1220.64V1181.97C450 1177.83 453.374 1174.46 457.513 1174.46H520.561C516.835 1183.82 514.875 1193.9 514.875 1204.23C514.875 1217.24 517.988 1229.86 523.825 1241.16Z" fill="#505050" stroke="black" stroke-width="9" stroke-miterlimit="22.9256" stroke-linecap="round" stroke-linejoin="round"/>
<path fill-rule="evenodd" clip-rule="evenodd" d="M841.842 1174.46H670.217C666.213 1164.39 660.168 1155.14 652.32 1147.29C637.175 1132.14 616.812 1123.7 595.387 1123.7C573.962 1123.7 553.602 1132.14 538.453 1147.29C530.605 1155.14 524.561 1164.39 520.556 1174.46H462.242C467.108 1150.6 471.97 1126.75 476.835 1102.9C477.937 1097.49 481.281 1093.33 486.328 1091.09C530.632 1071.44 574.94 1051.79 619.248 1032.14C646.295 991.82 673.343 951.505 700.391 911.186C702.405 908.183 705.511 906.528 709.123 906.528C753.364 906.528 797.601 906.528 841.842 906.528C841.842 995.838 841.842 1085.15 841.842 1174.46Z" fill="white" stroke="black" stroke-width="9" stroke-miterlimit="22.9256" stroke-linecap="round" stroke-linejoin="round"/>
<path fill-rule="evenodd" clip-rule="evenodd" d="M812.596 1032.14V923.055C774.933 923.055 749.993 923.055 712.33 923.055L639.148 1032.14H812.596Z" fill="#C8C8C8" stroke="black" stroke-width="9" stroke-miterlimit="22.9256" stroke-linecap="round" stroke-linejoin="round"/>
<path fill-rule="evenodd" clip-rule="evenodd" d="M841.842 1174.46H670.217C673.943 1183.82 675.903 1193.9 675.903 1204.23C675.903 1217.24 672.79 1229.86 666.953 1241.16H841.842V1174.46Z" fill="#505050" stroke="black" stroke-width="9" stroke-miterlimit="22.9256" stroke-linecap="round" stroke-linejoin="round"/>
<path d="M1015.54 1121.9H841.844V1241.16H1015.54V1121.9Z" fill="#505050" stroke="black" stroke-width="9" stroke-miterlimit="22.9256" stroke-linecap="round" stroke-linejoin="round"/>
<path fill-rule="evenodd" clip-rule="evenodd" d="M1015.54 1121.9C1183.66 1121.9 1341.02 1121.9 1503.65 1121.9V1164.83L1452.61 1165.92L1431.71 1204.22C1311.73 1204.22 1174.47 1204.22 1015.54 1204.22V1121.9Z" fill="#505050" stroke="black" stroke-width="9" stroke-miterlimit="22.9256" stroke-linecap="round" stroke-linejoin="round"/>
<path d="M1571 710H842V1122H1571V710Z" fill="white" stroke="black" stroke-width="9" stroke-miterlimit="22.9256" stroke-linecap="round" stroke-linejoin="round"/>
<path fill-rule="evenodd" clip-rule="evenodd" d="M812.596 1032.14H639.148L639.282 1113.49C664.206 1125.57 683.399 1147.62 691.686 1174.45L812.6 1174.46L812.596 1032.14Z" fill="white" stroke="black" stroke-width="9" stroke-miterlimit="22.9256" stroke-linecap="round" stroke-linejoin="round"/>
<path d="M1622.68 1108H1571V1125.31H1622.68V1108Z" fill="#2D2D2D"/>
<path fill-rule="evenodd" clip-rule="evenodd" d="M787.57 1083.62H796.715C799.01 1083.62 800.886 1085.49 800.886 1087.79V1119.19C800.886 1121.49 799.01 1123.37 796.715 1123.37H787.57C785.275 1123.37 783.398 1121.49 783.398 1119.19V1087.79C783.398 1085.49 785.275 1083.62 787.57 1083.62Z" fill="black"/>
<path fill-rule="evenodd" clip-rule="evenodd" d="M528.152 1106.64H539.474C540.811 1106.64 541.907 1107.74 541.907 1109.07V1114.88C541.907 1116.21 540.811 1117.31 539.474 1117.31H528.152C526.815 1117.31 525.723 1116.21 525.723 1114.88V1109.07C525.723 1107.74 526.818 1106.64 528.152 1106.64Z" fill="#F58220"/>
<path fill-rule="evenodd" clip-rule="evenodd" d="M462.242 1174.46L470.14 1135.72H481.328C483.416 1135.72 485.142 1137.32 485.309 1139.4L488.084 1174.45H462.242V1174.46Z" fill="#C8C8C8" stroke="black" stroke-width="9" stroke-miterlimit="22.9256" stroke-linecap="round" stroke-linejoin="round"/>
<path fill-rule="evenodd" clip-rule="evenodd" d="M827.221 961.38C828.936 961.38 830.344 962.784 830.344 964.5V1099.37C830.344 1101.09 828.94 1102.49 827.221 1102.49C825.502 1102.49 824.098 1101.09 824.098 1099.37V964.5C824.098 962.787 825.502 961.38 827.221 961.38Z" fill="#C8C8C8"/>
<path d="M595.393 1278.78C636.565 1278.78 669.941 1245.4 669.941 1204.23C669.941 1163.05 636.565 1129.67 595.393 1129.67C554.22 1129.67 520.844 1163.05 520.844 1204.23C520.844 1245.4 554.22 1278.78 595.393 1278.78Z" fill="black"/>
<path d="M595.391 1252.13C621.848 1252.13 643.295 1230.68 643.295 1204.23C643.295 1177.77 621.848 1156.32 595.391 1156.32C568.935 1156.32 547.488 1177.77 547.488 1204.23C547.488 1230.68 568.935 1252.13 595.391 1252.13Z" fill="white"/>
<path fill-rule="evenodd" clip-rule="evenodd" d="M595.391 1246.15C618.481 1246.15 637.313 1227.32 637.313 1204.23C637.313 1181.13 618.481 1162.3 595.391 1162.3C572.3 1162.3 553.469 1181.13 553.469 1204.23C553.469 1227.32 572.3 1246.15 595.391 1246.15Z" stroke="black" stroke-width="9" stroke-miterlimit="22.9256"/>
<path fill-rule="evenodd" clip-rule="evenodd" d="M595.381 1227.63C608.278 1227.63 618.793 1217.11 618.793 1204.22C618.793 1191.32 608.275 1180.8 595.381 1180.8C582.484 1180.8 571.969 1191.32 571.969 1204.22C571.969 1217.11 582.484 1227.63 595.381 1227.63Z" fill="black"/>
<path fill-rule="evenodd" clip-rule="evenodd" d="M578.569 1174.86C582.194 1172.77 585.686 1172.04 586.373 1173.23C587.059 1174.42 584.68 1177.08 581.055 1179.17C577.433 1181.26 573.938 1181.99 573.251 1180.8C572.564 1179.61 574.946 1176.95 578.569 1174.86Z" fill="black"/>
<path fill-rule="evenodd" clip-rule="evenodd" d="M561.816 1203.87C561.816 1199.69 562.932 1196.3 564.306 1196.3C565.68 1196.3 566.796 1199.69 566.796 1203.87C566.796 1208.06 565.68 1211.45 564.306 1211.45C562.929 1211.45 561.816 1208.06 561.816 1203.87Z" fill="black"/>
<path fill-rule="evenodd" clip-rule="evenodd" d="M578.201 1233C574.576 1230.91 572.197 1228.25 572.884 1227.05C573.571 1225.86 577.062 1226.59 580.688 1228.68C584.31 1230.78 586.692 1233.44 586.006 1234.63C585.319 1235.82 581.827 1235.09 578.201 1233Z" fill="black"/>
<path fill-rule="evenodd" clip-rule="evenodd" d="M611.766 1233.21C608.144 1235.3 604.649 1236.03 603.962 1234.84C603.275 1233.65 605.654 1230.99 609.28 1228.9C612.902 1226.81 616.397 1226.07 617.084 1227.27C617.771 1228.46 615.388 1231.12 611.766 1233.21Z" fill="black"/>
<path fill-rule="evenodd" clip-rule="evenodd" d="M628.733 1204.25C628.733 1208.43 627.617 1211.82 626.244 1211.82C624.87 1211.82 623.754 1208.43 623.754 1204.25C623.754 1200.06 624.87 1196.67 626.244 1196.67C627.617 1196.67 628.733 1200.06 628.733 1204.25Z" fill="black"/>
<path fill-rule="evenodd" clip-rule="evenodd" d="M612.133 1175.07C615.755 1177.16 618.138 1179.82 617.451 1181.01C616.764 1182.2 613.269 1181.47 609.647 1179.38C606.021 1177.29 603.642 1174.63 604.329 1173.44C605.016 1172.25 608.511 1172.98 612.133 1175.07Z" fill="black"/>
<path fill-rule="evenodd" clip-rule="evenodd" d="M582.48 1198.04C581.428 1198.65 580.081 1198.29 579.475 1197.24C578.868 1196.18 579.227 1194.84 580.279 1194.23C581.331 1193.62 582.678 1193.98 583.284 1195.03C583.894 1196.09 583.532 1197.43 582.48 1198.04Z" fill="white"/>
<path fill-rule="evenodd" clip-rule="evenodd" d="M582.48 1214.21C581.428 1214.81 580.081 1214.45 579.475 1213.4C578.868 1212.35 579.227 1211 580.279 1210.4C581.331 1209.79 582.678 1210.15 583.284 1211.2C583.894 1212.25 583.532 1213.6 582.48 1214.21Z" fill="white"/>
<path fill-rule="evenodd" clip-rule="evenodd" d="M596.476 1222.28C595.424 1222.89 594.077 1222.53 593.471 1221.48C592.864 1220.42 593.223 1219.08 594.275 1218.47C595.327 1217.86 596.674 1218.22 597.281 1219.28C597.887 1220.33 597.529 1221.67 596.476 1222.28Z" fill="white"/>
<path fill-rule="evenodd" clip-rule="evenodd" d="M610.472 1214.2C609.42 1214.81 608.073 1214.45 607.467 1213.4C606.86 1212.35 607.219 1211 608.271 1210.39C609.323 1209.79 610.67 1210.14 611.277 1211.2C611.883 1212.25 611.525 1213.6 610.472 1214.2Z" fill="white"/>
<path fill-rule="evenodd" clip-rule="evenodd" d="M610.469 1198.04C609.416 1198.65 608.069 1198.29 607.463 1197.24C606.856 1196.18 607.215 1194.84 608.267 1194.23C609.319 1193.62 610.666 1193.98 611.273 1195.03C611.883 1196.09 611.521 1197.43 610.469 1198.04Z" fill="white"/>
<path fill-rule="evenodd" clip-rule="evenodd" d="M596.476 1189.96C595.424 1190.57 594.077 1190.21 593.471 1189.16C592.864 1188.1 593.223 1186.76 594.275 1186.15C595.327 1185.54 596.674 1185.9 597.281 1186.95C597.89 1188.01 597.529 1189.35 596.476 1189.96Z" fill="white"/>
<path d="M1324.36 1277.75C1365 1271.17 1392.61 1232.89 1386.03 1192.24C1379.45 1151.6 1341.17 1123.98 1300.53 1130.56C1259.89 1137.14 1232.28 1175.43 1238.85 1216.07C1245.43 1256.72 1283.71 1284.33 1324.36 1277.75Z" fill="black"/>
<path fill-rule="evenodd" clip-rule="evenodd" d="M1312.51 1252.13C1338.9 1252.13 1360.42 1230.61 1360.42 1204.23C1360.42 1177.84 1338.9 1156.32 1312.51 1156.32C1286.13 1156.32 1264.61 1177.84 1264.61 1204.23C1264.61 1230.61 1286.13 1252.13 1312.51 1252.13Z" fill="white"/>
<path fill-rule="evenodd" clip-rule="evenodd" d="M1312.51 1246.15C1335.6 1246.15 1354.43 1227.32 1354.43 1204.23C1354.43 1181.13 1335.6 1162.3 1312.51 1162.3C1289.42 1162.3 1270.59 1181.13 1270.59 1204.23C1270.59 1227.32 1289.42 1246.15 1312.51 1246.15Z" stroke="black" stroke-width="9" stroke-miterlimit="22.9256"/>
<path d="M1312.51 1222.71C1322.72 1222.71 1331 1214.44 1331 1204.23C1331 1194.02 1322.72 1185.74 1312.51 1185.74C1302.3 1185.74 1294.02 1194.02 1294.02 1204.23C1294.02 1214.44 1302.3 1222.71 1312.51 1222.71Z" fill="black"/>
<path fill-rule="evenodd" clip-rule="evenodd" d="M1303.3 1200.18C1302.25 1200.79 1300.91 1200.43 1300.3 1199.38C1299.69 1198.32 1300.05 1196.98 1301.1 1196.37C1302.16 1195.76 1303.5 1196.12 1304.11 1197.18C1304.72 1198.23 1304.36 1199.57 1303.3 1200.18Z" fill="white"/>
<path fill-rule="evenodd" clip-rule="evenodd" d="M1303.3 1212.08C1302.25 1212.69 1300.91 1212.33 1300.3 1211.28C1299.69 1210.23 1300.05 1208.88 1301.1 1208.27C1302.16 1207.67 1303.5 1208.03 1304.11 1209.08C1304.72 1210.13 1304.36 1211.47 1303.3 1212.08Z" fill="white"/>
<path fill-rule="evenodd" clip-rule="evenodd" d="M1313.61 1218.03C1312.56 1218.64 1311.21 1218.28 1310.6 1217.23C1310 1216.18 1310.36 1214.83 1311.41 1214.22C1312.46 1213.62 1313.8 1213.97 1314.41 1215.03C1315.02 1216.08 1314.66 1217.43 1313.61 1218.03Z" fill="white"/>
<path fill-rule="evenodd" clip-rule="evenodd" d="M1323.92 1212.08C1322.86 1212.69 1321.52 1212.33 1320.91 1211.28C1320.3 1210.23 1320.67 1208.88 1321.72 1208.27C1322.77 1207.67 1324.11 1208.03 1324.72 1209.08C1325.33 1210.13 1324.97 1211.47 1323.92 1212.08Z" fill="white"/>
<path fill-rule="evenodd" clip-rule="evenodd" d="M1323.91 1200.18C1322.86 1200.79 1321.51 1200.43 1320.91 1199.38C1320.3 1198.32 1320.66 1196.98 1321.71 1196.37C1322.76 1195.76 1324.11 1196.12 1324.72 1197.18C1325.32 1198.23 1324.97 1199.57 1323.91 1200.18Z" fill="white"/>
<path fill-rule="evenodd" clip-rule="evenodd" d="M1313.61 1194.23C1312.56 1194.84 1311.21 1194.48 1310.6 1193.43C1310 1192.38 1310.36 1191.03 1311.41 1190.42C1312.46 1189.82 1313.81 1190.18 1314.41 1191.23C1315.02 1192.28 1314.66 1193.62 1313.61 1194.23Z" fill="white"/>
<path fill-rule="evenodd" clip-rule="evenodd" d="M1295.34 1174.23C1299.04 1172.1 1302.61 1171.35 1303.31 1172.57C1304.01 1173.78 1301.58 1176.5 1297.88 1178.64C1294.17 1180.78 1290.61 1181.52 1289.91 1180.31C1289.21 1179.09 1291.63 1176.37 1295.34 1174.23Z" fill="black"/>
<path fill-rule="evenodd" clip-rule="evenodd" d="M1278.22 1203.87C1278.22 1199.6 1279.36 1196.14 1280.77 1196.14C1282.17 1196.14 1283.31 1199.6 1283.31 1203.87C1283.31 1208.15 1282.17 1211.61 1280.77 1211.61C1279.36 1211.61 1278.22 1208.15 1278.22 1203.87Z" fill="black"/>
<path fill-rule="evenodd" clip-rule="evenodd" d="M1294.96 1233.62C1291.26 1231.48 1288.83 1228.76 1289.53 1227.55C1290.23 1226.33 1293.8 1227.08 1297.5 1229.22C1301.2 1231.36 1303.63 1234.07 1302.93 1235.29C1302.23 1236.5 1298.66 1235.76 1294.96 1233.62Z" fill="black"/>
<path fill-rule="evenodd" clip-rule="evenodd" d="M1329.25 1233.84C1325.54 1235.97 1321.97 1236.72 1321.27 1235.5C1320.57 1234.29 1323 1231.57 1326.71 1229.43C1330.41 1227.29 1333.98 1226.55 1334.68 1227.76C1335.38 1228.98 1332.94 1231.7 1329.25 1233.84Z" fill="black"/>
<path fill-rule="evenodd" clip-rule="evenodd" d="M1346.57 1204.25C1346.57 1208.53 1345.43 1211.99 1344.03 1211.99C1342.63 1211.99 1341.49 1208.53 1341.49 1204.25C1341.49 1199.97 1342.63 1196.51 1344.03 1196.51C1345.44 1196.51 1346.57 1199.98 1346.57 1204.25Z" fill="black"/>
<path fill-rule="evenodd" clip-rule="evenodd" d="M1329.62 1174.45C1333.32 1176.59 1335.75 1179.3 1335.05 1180.52C1334.35 1181.74 1330.78 1180.99 1327.08 1178.85C1323.38 1176.71 1320.95 1174 1321.65 1172.78C1322.35 1171.57 1325.92 1172.31 1329.62 1174.45Z" fill="black"/>
<path fill-rule="evenodd" clip-rule="evenodd" d="M1354.81 1121.91C1381.54 1135.19 1399.84 1162.29 1399.84 1193.58C1399.84 1207.13 1396.41 1219.89 1390.34 1231.09C1393.25 1222.67 1394.83 1213.64 1394.83 1204.23C1394.83 1159.08 1358.49 1122.42 1313.46 1121.92V1121.91H1354.81Z" fill="black" stroke="black" stroke-width="9" stroke-miterlimit="22.9256" stroke-linecap="round" stroke-linejoin="round"/>
<path fill-rule="evenodd" clip-rule="evenodd" d="M1270 1121.91C1243.28 1135.19 1224.97 1162.29 1224.97 1193.58C1224.97 1207.13 1228.41 1219.89 1234.48 1231.09C1231.57 1222.67 1229.99 1213.64 1229.99 1204.23C1229.99 1159.08 1266.33 1122.42 1311.36 1121.92V1121.91H1270Z" fill="black" stroke="black" stroke-width="9" stroke-miterlimit="22.9256" stroke-linecap="round" stroke-linejoin="round"/>
<path d="M688.259 1049.48C686.945 1049.48 685.883 1048.42 685.883 1047.11V928.349C685.883 924.12 689.324 920.682 693.553 920.682H712.331C713.644 920.682 714.706 921.744 714.706 923.058C714.706 924.372 713.644 925.434 712.331 925.434H693.553C691.944 925.434 690.634 926.744 690.634 928.349V1047.11C690.634 1048.42 689.569 1049.48 688.259 1049.48Z" fill="black"/>
<path fill-rule="evenodd" clip-rule="evenodd" d="M686.294 961.755H691.732C692.758 961.755 693.589 962.589 693.589 963.612V971.721C693.589 972.743 692.754 973.577 691.732 973.577H686.294C685.272 973.577 684.438 972.743 684.438 971.721V963.612C684.438 962.589 685.272 961.755 686.294 961.755Z" fill="black"/>
<path fill-rule="evenodd" clip-rule="evenodd" d="M700.806 929.334C704.482 929.334 705.387 936.76 705.387 943.925V992.132C705.387 999.296 704.479 1006.72 700.806 1006.72C691.179 1006.72 691.179 929.334 700.806 929.334Z" fill="#505050" stroke="black" stroke-width="9" stroke-miterlimit="22.9256" stroke-linecap="round" stroke-linejoin="round"/>
<path fill-rule="evenodd" clip-rule="evenodd" d="M700.806 1013.55C704.482 1013.55 705.387 1016.43 705.387 1019.2V1037.88C705.387 1040.66 704.479 1043.54 700.806 1043.54C691.179 1043.54 691.179 1013.55 700.806 1013.55Z" fill="#505050" stroke="black" stroke-width="9" stroke-miterlimit="22.9256" stroke-linecap="round" stroke-linejoin="round"/>
<path fill-rule="evenodd" clip-rule="evenodd" d="M712.332 927.719C714.902 927.719 716.997 925.622 716.997 923.055C716.997 920.484 714.902 918.39 712.332 918.39C709.762 918.39 707.668 920.488 707.668 923.055C707.668 925.625 709.766 927.719 712.332 927.719Z" fill="black"/>
<path fill-rule="evenodd" clip-rule="evenodd" d="M686.294 1022.63H691.732C692.758 1022.63 693.589 1023.47 693.589 1024.49V1032.6C693.589 1033.62 692.754 1034.45 691.732 1034.45H686.294C685.272 1034.45 684.438 1033.62 684.438 1032.6V1024.49C684.438 1023.47 685.272 1022.63 686.294 1022.63Z" fill="black"/>
<path fill-rule="evenodd" clip-rule="evenodd" d="M688.262 1051.78C690.832 1051.78 692.926 1049.68 692.926 1047.11C692.926 1044.54 690.832 1042.45 688.262 1042.45C685.692 1042.45 683.598 1044.54 683.598 1047.11C683.594 1049.68 685.692 1051.78 688.262 1051.78Z" fill="black"/>
<path fill-rule="evenodd" clip-rule="evenodd" d="M684.492 872.06L691.348 826.063L695.347 801.854C695.347 801.854 698.203 787.328 705.63 780.671C713.058 774.013 721.628 770.987 721.628 770.987C734.197 765.54 804.274 767.257 809.926 767.257H842V895.959H728.459C724.692 895.955 678.778 898.084 684.492 872.06Z" fill="white" stroke="black" stroke-width="10" stroke-miterlimit="22.9256" stroke-linecap="round" stroke-linejoin="round"/>
</svg>
