<svg width="3000" height="2000" viewBox="0 0 3000 2000" fill="none" xmlns="http://www.w3.org/2000/svg">
<path d="M461.394 1116.25H291.381V1234.91H461.394V1116.25Z" fill="#2D2D2D"/>
<path fill-rule="evenodd" clip-rule="evenodd" d="M304.825 1241.16H249.57L231 1220.64V1181.97C231 1177.83 234.374 1174.46 238.513 1174.46H301.561C297.835 1183.82 295.875 1193.9 295.875 1204.23C295.875 1217.24 298.988 1229.86 304.825 1241.16Z" fill="#505050" stroke="black" stroke-width="9" stroke-miterlimit="22.9256" stroke-linecap="round" stroke-linejoin="round"/>
<path fill-rule="evenodd" clip-rule="evenodd" d="M622.844 1174.46H451.219C447.215 1164.39 441.17 1155.14 433.322 1147.29C418.177 1132.14 397.814 1123.7 376.389 1123.7C354.964 1123.7 334.604 1132.14 319.455 1147.29C311.607 1155.14 305.562 1164.39 301.558 1174.46H243.244C248.11 1150.6 252.972 1126.75 257.837 1102.9C258.939 1097.49 262.283 1093.33 267.33 1091.09C311.634 1071.44 355.942 1051.79 400.25 1032.14C427.297 991.82 454.345 951.505 481.393 911.186C483.407 908.183 486.513 906.528 490.125 906.528C534.366 906.528 578.603 906.528 622.844 906.528C622.844 995.838 622.844 1085.15 622.844 1174.46Z" fill="white" stroke="black" stroke-width="9" stroke-miterlimit="22.9256" stroke-linecap="round" stroke-linejoin="round"/>
<path fill-rule="evenodd" clip-rule="evenodd" d="M593.598 1032.14V923.055C555.935 923.055 530.995 923.055 493.332 923.055L420.15 1032.14H593.598Z" fill="#C8C8C8" stroke="black" stroke-width="9" stroke-miterlimit="22.9256" stroke-linecap="round" stroke-linejoin="round"/>
<path fill-rule="evenodd" clip-rule="evenodd" d="M622.844 1174.46H451.219C454.945 1183.82 456.905 1193.9 456.905 1204.23C456.905 1217.24 453.792 1229.86 447.955 1241.16H622.844V1174.46Z" fill="#505050" stroke="black" stroke-width="9" stroke-miterlimit="22.9256" stroke-linecap="round" stroke-linejoin="round"/>
<path d="M796.543 1121.9H622.844V1241.16H796.543V1121.9Z" fill="#505050" stroke="black" stroke-width="9" stroke-miterlimit="22.9256" stroke-linecap="round" stroke-linejoin="round"/>
<path fill-rule="evenodd" clip-rule="evenodd" d="M796.539 1121.9C964.659 1121.9 1122.02 1121.9 1284.65 1121.9V1164.83L1233.61 1165.92L1212.71 1204.22C1092.73 1204.22 955.468 1204.22 796.539 1204.22V1121.9Z" fill="#505050" stroke="black" stroke-width="9" stroke-miterlimit="22.9256" stroke-linecap="round" stroke-linejoin="round"/>
<path d="M1352 710H623V1122H1352V710Z" fill="white" stroke="black" stroke-width="9" stroke-miterlimit="22.9256" stroke-linecap="round" stroke-linejoin="round"/>
<path fill-rule="evenodd" clip-rule="evenodd" d="M593.598 1032.14H420.15L420.284 1113.49C445.208 1125.57 464.401 1147.62 472.688 1174.45L593.602 1174.46L593.598 1032.14Z" fill="white" stroke="black" stroke-width="9" stroke-miterlimit="22.9256" stroke-linecap="round" stroke-linejoin="round"/>
<path d="M1384 1147H1285V1164H1384V1147Z" fill="#2D2D2D"/>
<path fill-rule="evenodd" clip-rule="evenodd" d="M568.57 1083.62H577.715C580.01 1083.62 581.886 1085.49 581.886 1087.79V1119.19C581.886 1121.49 580.01 1123.37 577.715 1123.37H568.57C566.275 1123.37 564.398 1121.49 564.398 1119.19V1087.79C564.398 1085.49 566.275 1083.62 568.57 1083.62Z" fill="black"/>
<path fill-rule="evenodd" clip-rule="evenodd" d="M309.15 1106.64H320.472C321.809 1106.64 322.905 1107.74 322.905 1109.07V1114.88C322.905 1116.21 321.809 1117.31 320.472 1117.31H309.15C307.813 1117.31 306.721 1116.21 306.721 1114.88V1109.07C306.721 1107.74 307.816 1106.64 309.15 1106.64Z" fill="#F58220"/>
<path fill-rule="evenodd" clip-rule="evenodd" d="M243.244 1174.46L251.142 1135.72H262.33C264.418 1135.72 266.144 1137.32 266.311 1139.4L269.086 1174.45H243.244V1174.46Z" fill="#C8C8C8" stroke="black" stroke-width="9" stroke-miterlimit="22.9256" stroke-linecap="round" stroke-linejoin="round"/>
<path fill-rule="evenodd" clip-rule="evenodd" d="M608.221 961.38C609.936 961.38 611.344 962.784 611.344 964.5V1099.37C611.344 1101.09 609.94 1102.49 608.221 1102.49C606.502 1102.49 605.098 1101.09 605.098 1099.37V964.5C605.098 962.787 606.502 961.38 608.221 961.38Z" fill="#C8C8C8"/>
<path d="M376.393 1278.78C417.565 1278.78 450.941 1245.4 450.941 1204.23C450.941 1163.05 417.565 1129.67 376.393 1129.67C335.22 1129.67 301.844 1163.05 301.844 1204.23C301.844 1245.4 335.22 1278.78 376.393 1278.78Z" fill="black"/>
<path d="M376.393 1252.13C402.85 1252.13 424.297 1230.68 424.297 1204.23C424.297 1177.77 402.85 1156.32 376.393 1156.32C349.937 1156.32 328.49 1177.77 328.49 1204.23C328.49 1230.68 349.937 1252.13 376.393 1252.13Z" fill="white"/>
<path fill-rule="evenodd" clip-rule="evenodd" d="M376.393 1246.15C399.483 1246.15 418.315 1227.32 418.315 1204.23C418.315 1181.13 399.483 1162.3 376.393 1162.3C353.302 1162.3 334.471 1181.13 334.471 1204.23C334.471 1227.32 353.302 1246.15 376.393 1246.15Z" stroke="black" stroke-width="9" stroke-miterlimit="22.9256"/>
<path fill-rule="evenodd" clip-rule="evenodd" d="M376.379 1227.63C389.276 1227.63 399.791 1217.11 399.791 1204.22C399.791 1191.32 389.273 1180.8 376.379 1180.8C363.482 1180.8 352.967 1191.32 352.967 1204.22C352.967 1217.11 363.482 1227.63 376.379 1227.63Z" fill="black"/>
<path fill-rule="evenodd" clip-rule="evenodd" d="M359.569 1174.86C363.194 1172.77 366.686 1172.04 367.373 1173.23C368.059 1174.42 365.68 1177.08 362.055 1179.17C358.433 1181.26 354.938 1181.99 354.251 1180.8C353.564 1179.61 355.946 1176.95 359.569 1174.86Z" fill="black"/>
<path fill-rule="evenodd" clip-rule="evenodd" d="M342.818 1203.87C342.818 1199.69 343.934 1196.3 345.308 1196.3C346.682 1196.3 347.798 1199.69 347.798 1203.87C347.798 1208.06 346.682 1211.45 345.308 1211.45C343.931 1211.45 342.818 1208.06 342.818 1203.87Z" fill="black"/>
<path fill-rule="evenodd" clip-rule="evenodd" d="M359.203 1233C355.578 1230.91 353.199 1228.25 353.886 1227.05C354.573 1225.86 358.064 1226.59 361.69 1228.68C365.312 1230.78 367.694 1233.44 367.007 1234.63C366.321 1235.82 362.829 1235.09 359.203 1233Z" fill="black"/>
<path fill-rule="evenodd" clip-rule="evenodd" d="M392.77 1233.21C389.148 1235.3 385.653 1236.03 384.966 1234.84C384.279 1233.65 386.658 1230.99 390.284 1228.9C393.906 1226.81 397.401 1226.07 398.088 1227.27C398.774 1228.46 396.392 1231.12 392.77 1233.21Z" fill="black"/>
<path fill-rule="evenodd" clip-rule="evenodd" d="M409.733 1204.25C409.733 1208.43 408.617 1211.82 407.244 1211.82C405.87 1211.82 404.754 1208.43 404.754 1204.25C404.754 1200.06 405.87 1196.67 407.244 1196.67C408.617 1196.67 409.733 1200.06 409.733 1204.25Z" fill="black"/>
<path fill-rule="evenodd" clip-rule="evenodd" d="M393.135 1175.07C396.757 1177.16 399.14 1179.82 398.453 1181.01C397.766 1182.2 394.271 1181.47 390.649 1179.38C387.023 1177.29 384.644 1174.63 385.331 1173.44C386.018 1172.25 389.513 1172.98 393.135 1175.07Z" fill="black"/>
<path fill-rule="evenodd" clip-rule="evenodd" d="M363.482 1198.04C362.43 1198.65 361.083 1198.29 360.477 1197.24C359.87 1196.18 360.229 1194.84 361.281 1194.23C362.333 1193.62 363.68 1193.98 364.286 1195.03C364.896 1196.09 364.534 1197.43 363.482 1198.04Z" fill="white"/>
<path fill-rule="evenodd" clip-rule="evenodd" d="M363.482 1214.2C362.43 1214.81 361.083 1214.45 360.477 1213.4C359.87 1212.35 360.229 1211 361.281 1210.39C362.333 1209.79 363.68 1210.15 364.286 1211.2C364.896 1212.25 364.534 1213.6 363.482 1214.2Z" fill="white"/>
<path fill-rule="evenodd" clip-rule="evenodd" d="M377.478 1222.28C376.426 1222.89 375.079 1222.53 374.473 1221.48C373.866 1220.42 374.225 1219.08 375.277 1218.47C376.329 1217.86 377.676 1218.22 378.283 1219.27C378.889 1220.33 378.53 1221.67 377.478 1222.28Z" fill="white"/>
<path fill-rule="evenodd" clip-rule="evenodd" d="M391.474 1214.2C390.422 1214.81 389.075 1214.45 388.469 1213.4C387.862 1212.35 388.221 1211 389.273 1210.39C390.325 1209.78 391.672 1210.14 392.279 1211.2C392.885 1212.25 392.527 1213.59 391.474 1214.2Z" fill="white"/>
<path fill-rule="evenodd" clip-rule="evenodd" d="M391.472 1198.04C390.42 1198.65 389.073 1198.29 388.467 1197.24C387.86 1196.18 388.219 1194.84 389.271 1194.23C390.323 1193.62 391.67 1193.98 392.277 1195.03C392.886 1196.09 392.525 1197.43 391.472 1198.04Z" fill="white"/>
<path fill-rule="evenodd" clip-rule="evenodd" d="M377.478 1189.96C376.426 1190.57 375.079 1190.21 374.473 1189.16C373.866 1188.1 374.225 1186.76 375.277 1186.15C376.329 1185.54 377.676 1185.9 378.283 1186.95C378.892 1188.01 378.53 1189.35 377.478 1189.96Z" fill="white"/>
<path d="M1105.36 1277.75C1146 1271.17 1173.61 1232.89 1167.03 1192.24C1160.45 1151.6 1122.17 1123.98 1081.53 1130.56C1040.89 1137.14 1013.28 1175.43 1019.86 1216.07C1026.44 1256.72 1064.72 1284.33 1105.36 1277.75Z" fill="black"/>
<path fill-rule="evenodd" clip-rule="evenodd" d="M1093.51 1252.13C1119.9 1252.13 1141.42 1230.61 1141.42 1204.23C1141.42 1177.84 1119.9 1156.32 1093.51 1156.32C1067.13 1156.32 1045.61 1177.84 1045.61 1204.23C1045.61 1230.61 1067.13 1252.13 1093.51 1252.13Z" fill="white"/>
<path fill-rule="evenodd" clip-rule="evenodd" d="M1093.51 1246.15C1116.6 1246.15 1135.44 1227.32 1135.44 1204.23C1135.44 1181.13 1116.6 1162.3 1093.51 1162.3C1070.42 1162.3 1051.59 1181.13 1051.59 1204.23C1051.59 1227.32 1070.43 1246.15 1093.51 1246.15Z" stroke="black" stroke-width="9" stroke-miterlimit="22.9256"/>
<path d="M1093.51 1222.71C1103.72 1222.71 1112 1214.44 1112 1204.23C1112 1194.02 1103.72 1185.74 1093.51 1185.74C1083.3 1185.74 1075.03 1194.02 1075.03 1204.23C1075.03 1214.44 1083.3 1222.71 1093.51 1222.71Z" fill="black"/>
<path fill-rule="evenodd" clip-rule="evenodd" d="M1084.31 1200.18C1083.26 1200.79 1081.91 1200.43 1081.3 1199.38C1080.7 1198.32 1081.05 1196.98 1082.11 1196.37C1083.16 1195.76 1084.5 1196.12 1085.11 1197.18C1085.72 1198.23 1085.36 1199.57 1084.31 1200.18Z" fill="white"/>
<path fill-rule="evenodd" clip-rule="evenodd" d="M1084.31 1212.08C1083.26 1212.69 1081.91 1212.33 1081.3 1211.28C1080.7 1210.23 1081.05 1208.88 1082.11 1208.27C1083.16 1207.67 1084.51 1208.03 1085.11 1209.08C1085.72 1210.13 1085.36 1211.47 1084.31 1212.08Z" fill="white"/>
<path fill-rule="evenodd" clip-rule="evenodd" d="M1094.61 1218.03C1093.56 1218.64 1092.21 1218.28 1091.61 1217.23C1091 1216.18 1091.36 1214.83 1092.41 1214.22C1093.46 1213.62 1094.81 1213.97 1095.42 1215.03C1096.03 1216.08 1095.66 1217.43 1094.61 1218.03Z" fill="white"/>
<path fill-rule="evenodd" clip-rule="evenodd" d="M1104.92 1212.08C1103.87 1212.69 1102.52 1212.33 1101.91 1211.28C1101.31 1210.23 1101.67 1208.88 1102.72 1208.27C1103.77 1207.67 1105.11 1208.03 1105.72 1209.08C1106.33 1210.13 1105.97 1211.47 1104.92 1212.08Z" fill="white"/>
<path fill-rule="evenodd" clip-rule="evenodd" d="M1104.92 1200.18C1103.87 1200.79 1102.52 1200.43 1101.91 1199.38C1101.31 1198.32 1101.67 1196.98 1102.72 1196.37C1103.77 1195.76 1105.12 1196.12 1105.72 1197.18C1106.33 1198.23 1105.97 1199.57 1104.92 1200.18Z" fill="white"/>
<path fill-rule="evenodd" clip-rule="evenodd" d="M1094.61 1194.23C1093.56 1194.84 1092.21 1194.48 1091.61 1193.43C1091 1192.38 1091.36 1191.03 1092.41 1190.42C1093.46 1189.82 1094.81 1190.18 1095.42 1191.23C1096.03 1192.28 1095.67 1193.62 1094.61 1194.23Z" fill="white"/>
<path fill-rule="evenodd" clip-rule="evenodd" d="M1076.34 1174.23C1080.04 1172.1 1083.61 1171.35 1084.31 1172.57C1085.01 1173.78 1082.58 1176.5 1078.88 1178.64C1075.17 1180.78 1071.61 1181.52 1070.91 1180.31C1070.21 1179.09 1072.63 1176.37 1076.34 1174.23Z" fill="black"/>
<path fill-rule="evenodd" clip-rule="evenodd" d="M1059.22 1203.87C1059.22 1199.6 1060.36 1196.14 1061.77 1196.14C1063.17 1196.14 1064.31 1199.6 1064.31 1203.87C1064.31 1208.15 1063.17 1211.61 1061.77 1211.61C1060.36 1211.61 1059.22 1208.15 1059.22 1203.87Z" fill="black"/>
<path fill-rule="evenodd" clip-rule="evenodd" d="M1075.96 1233.62C1072.26 1231.48 1069.83 1228.76 1070.53 1227.55C1071.23 1226.33 1074.8 1227.08 1078.5 1229.22C1082.2 1231.36 1084.63 1234.07 1083.93 1235.29C1083.23 1236.5 1079.66 1235.76 1075.96 1233.62Z" fill="black"/>
<path fill-rule="evenodd" clip-rule="evenodd" d="M1110.25 1233.83C1106.54 1235.97 1102.98 1236.72 1102.28 1235.5C1101.57 1234.29 1104 1231.57 1107.71 1229.43C1111.41 1227.29 1114.98 1226.55 1115.68 1227.76C1116.38 1228.98 1113.95 1231.7 1110.25 1233.83Z" fill="black"/>
<path fill-rule="evenodd" clip-rule="evenodd" d="M1127.58 1204.25C1127.58 1208.53 1126.44 1211.99 1125.04 1211.99C1123.63 1211.99 1122.49 1208.53 1122.49 1204.25C1122.49 1199.97 1123.63 1196.51 1125.04 1196.51C1126.44 1196.51 1127.58 1199.98 1127.58 1204.25Z" fill="black"/>
<path fill-rule="evenodd" clip-rule="evenodd" d="M1110.62 1174.45C1114.32 1176.59 1116.75 1179.3 1116.05 1180.52C1115.35 1181.74 1111.78 1180.99 1108.08 1178.85C1104.38 1176.71 1101.95 1174 1102.65 1172.78C1103.35 1171.57 1106.92 1172.31 1110.62 1174.45Z" fill="black"/>
<path fill-rule="evenodd" clip-rule="evenodd" d="M1135.81 1121.91C1162.54 1135.19 1180.84 1162.29 1180.84 1193.58C1180.84 1207.13 1177.41 1219.89 1171.34 1231.09C1174.25 1222.67 1175.83 1213.64 1175.83 1204.23C1175.83 1159.08 1139.49 1122.42 1094.46 1121.92V1121.91H1135.81Z" fill="black" stroke="black" stroke-width="9" stroke-miterlimit="22.9256" stroke-linecap="round" stroke-linejoin="round"/>
<path fill-rule="evenodd" clip-rule="evenodd" d="M1051 1121.91C1024.28 1135.19 1005.97 1162.29 1005.97 1193.58C1005.97 1207.13 1009.41 1219.89 1015.48 1231.09C1012.57 1222.67 1010.99 1213.64 1010.99 1204.23C1010.99 1159.08 1047.33 1122.42 1092.36 1121.92V1121.91H1051Z" fill="black" stroke="black" stroke-width="9" stroke-miterlimit="22.9256" stroke-linecap="round" stroke-linejoin="round"/>
<path d="M469.259 1049.48C467.945 1049.48 466.883 1048.42 466.883 1047.11V928.349C466.883 924.12 470.324 920.682 474.553 920.682H493.331C494.644 920.682 495.706 921.745 495.706 923.058C495.706 924.372 494.644 925.434 493.331 925.434H474.553C472.944 925.434 471.634 926.744 471.634 928.349V1047.11C471.634 1048.42 470.569 1049.48 469.259 1049.48Z" fill="black"/>
<path fill-rule="evenodd" clip-rule="evenodd" d="M467.296 961.755H472.734C473.759 961.755 474.59 962.59 474.59 963.612V971.721C474.59 972.743 473.756 973.578 472.734 973.578H467.296C466.274 973.578 465.439 972.743 465.439 971.721V963.612C465.439 962.59 466.274 961.755 467.296 961.755Z" fill="black"/>
<path fill-rule="evenodd" clip-rule="evenodd" d="M481.808 929.335C485.484 929.335 486.389 936.76 486.389 943.925V992.132C486.389 999.296 485.481 1006.72 481.808 1006.72C472.181 1006.72 472.181 929.335 481.808 929.335Z" fill="#505050" stroke="black" stroke-width="9" stroke-miterlimit="22.9256" stroke-linecap="round" stroke-linejoin="round"/>
<path fill-rule="evenodd" clip-rule="evenodd" d="M481.808 1013.55C485.484 1013.55 486.389 1016.43 486.389 1019.2V1037.88C486.389 1040.66 485.481 1043.54 481.808 1043.54C472.181 1043.54 472.181 1013.55 481.808 1013.55Z" fill="#505050" stroke="black" stroke-width="9" stroke-miterlimit="22.9256" stroke-linecap="round" stroke-linejoin="round"/>
<path fill-rule="evenodd" clip-rule="evenodd" d="M493.33 927.719C495.9 927.719 497.995 925.622 497.995 923.055C497.995 920.485 495.9 918.39 493.33 918.39C490.76 918.39 488.666 920.488 488.666 923.055C488.666 925.625 490.764 927.719 493.33 927.719Z" fill="black"/>
<path fill-rule="evenodd" clip-rule="evenodd" d="M467.296 1022.63H472.734C473.759 1022.63 474.59 1023.47 474.59 1024.49V1032.6C474.59 1033.62 473.756 1034.45 472.734 1034.45H467.296C466.274 1034.45 465.439 1033.62 465.439 1032.6V1024.49C465.439 1023.47 466.274 1022.63 467.296 1022.63Z" fill="black"/>
<path fill-rule="evenodd" clip-rule="evenodd" d="M469.262 1051.78C471.832 1051.78 473.926 1049.68 473.926 1047.11C473.926 1044.54 471.832 1042.45 469.262 1042.45C466.692 1042.45 464.598 1044.54 464.598 1047.11C464.594 1049.68 466.692 1051.78 469.262 1051.78Z" fill="black"/>
<path fill-rule="evenodd" clip-rule="evenodd" d="M465.492 872.06L472.348 826.063L476.347 801.854C476.347 801.854 479.203 787.328 486.63 780.671C494.058 774.013 502.628 770.987 502.628 770.987C515.197 765.54 585.274 767.257 590.926 767.257H623V895.959H509.459C505.692 895.955 459.778 898.084 465.492 872.06Z" fill="white" stroke="black" stroke-width="10" stroke-miterlimit="22.9256" stroke-linecap="round" stroke-linejoin="round"/>
<path fill-rule="evenodd" clip-rule="evenodd" d="M1384 1155H2757L2728.11 1188.65L2534.25 1201H1384V1155Z" fill="#505050" stroke="black" stroke-width="10" stroke-miterlimit="22.9256" stroke-linecap="round" stroke-linejoin="round"/>
<path d="M2768 1115H1384V1155H2768V1115Z" fill="white" stroke="black" stroke-width="10" stroke-miterlimit="22.9256" stroke-linecap="round" stroke-linejoin="round"/>
<path fill-rule="evenodd" clip-rule="evenodd" d="M2041.71 1155C2018.53 1166.1 2002.65 1188.75 2002.65 1214.89C2002.65 1226.22 2005.63 1236.88 2010.9 1246.24C2008.37 1239.2 2007 1231.65 2007 1223.79C2007 1186.06 2038.53 1155.43 2077.58 1155.01V1155H2041.71Z" fill="black" stroke="black" stroke-width="10" stroke-miterlimit="22.9256" stroke-linecap="round" stroke-linejoin="round"/>
<path fill-rule="evenodd" clip-rule="evenodd" d="M2115.16 1155.14C2138.34 1166.24 2154.22 1188.89 2154.22 1215.03C2154.22 1226.36 2151.23 1237.02 2145.97 1246.38C2148.49 1239.34 2149.87 1231.79 2149.87 1223.93C2149.87 1186.2 2118.34 1155.57 2079.29 1155.15V1155.14H2115.16Z" fill="black" stroke="black" stroke-width="10" stroke-miterlimit="22.9256" stroke-linecap="round" stroke-linejoin="round"/>
<path d="M2078.4 1286.37C2114.13 1286.37 2143.1 1258.47 2143.1 1224.04C2143.1 1189.62 2114.13 1161.71 2078.4 1161.71C2042.67 1161.71 2013.71 1189.62 2013.71 1224.04C2013.71 1258.47 2042.67 1286.37 2078.4 1286.37Z" fill="black"/>
<path d="M2105.11 1249.8C2119.87 1235.57 2119.87 1212.51 2105.11 1198.29C2090.34 1184.06 2066.41 1184.06 2051.64 1198.29C2036.88 1212.51 2036.88 1235.57 2051.64 1249.8C2066.41 1264.02 2090.34 1264.02 2105.11 1249.8Z" fill="white"/>
<path fill-rule="evenodd" clip-rule="evenodd" d="M2078.4 1257.31C2097.42 1257.31 2112.93 1242.36 2112.93 1224.05C2112.93 1205.73 2097.42 1190.79 2078.4 1190.79C2059.39 1190.79 2043.88 1205.73 2043.88 1224.05C2043.88 1242.36 2059.39 1257.31 2078.4 1257.31Z" stroke="black" stroke-width="10" stroke-miterlimit="22.9256" stroke-linecap="round" stroke-linejoin="round"/>
<path fill-rule="evenodd" clip-rule="evenodd" d="M2078.4 1233.73C2083.94 1233.73 2088.46 1229.38 2088.46 1224.05C2088.46 1218.71 2083.94 1214.36 2078.4 1214.36C2072.87 1214.36 2068.35 1218.71 2068.35 1224.05C2068.35 1229.38 2072.87 1233.73 2078.4 1233.73Z" fill="black"/>
<path fill-rule="evenodd" clip-rule="evenodd" d="M2078.4 1201.11C2081.53 1201.11 2084.07 1199.74 2084.07 1198.06C2084.07 1196.38 2081.53 1195.01 2078.4 1195.01C2075.28 1195.01 2072.73 1196.38 2072.73 1198.06C2072.73 1199.74 2075.28 1201.11 2078.4 1201.11Z" fill="black"/>
<path fill-rule="evenodd" clip-rule="evenodd" d="M2057.79 1212.58C2056.22 1215.19 2053.72 1216.63 2052.21 1215.78C2050.69 1214.94 2050.73 1212.14 2052.3 1209.52C2053.86 1206.91 2056.36 1205.47 2057.88 1206.32C2059.4 1207.16 2059.35 1209.96 2057.79 1212.58Z" fill="black"/>
<path fill-rule="evenodd" clip-rule="evenodd" d="M2057.79 1235.51C2059.35 1238.12 2059.39 1240.93 2057.88 1241.77C2056.36 1242.61 2053.86 1241.18 2052.3 1238.56C2050.73 1235.95 2050.69 1233.15 2052.21 1232.3C2053.72 1231.46 2056.22 1232.9 2057.79 1235.51Z" fill="black"/>
<path fill-rule="evenodd" clip-rule="evenodd" d="M2078.4 1246.98C2081.53 1246.98 2084.07 1248.35 2084.07 1250.03C2084.07 1251.71 2081.53 1253.08 2078.4 1253.08C2075.27 1253.08 2072.73 1251.72 2072.73 1250.03C2072.73 1248.34 2075.27 1246.98 2078.4 1246.98Z" fill="black"/>
<path fill-rule="evenodd" clip-rule="evenodd" d="M2099.02 1235.51C2100.58 1232.9 2103.08 1231.46 2104.6 1232.3C2106.11 1233.15 2106.07 1235.95 2104.51 1238.56C2102.94 1241.18 2100.44 1242.61 2098.92 1241.77C2097.41 1240.93 2097.45 1238.13 2099.02 1235.51Z" fill="black"/>
<path fill-rule="evenodd" clip-rule="evenodd" d="M2099.02 1212.58C2097.45 1209.96 2097.41 1207.16 2098.92 1206.32C2100.44 1205.47 2102.94 1206.91 2104.51 1209.52C2106.07 1212.14 2106.11 1214.94 2104.6 1215.78C2103.08 1216.63 2100.58 1215.19 2099.02 1212.58Z" fill="black"/>
<path fill-rule="evenodd" clip-rule="evenodd" d="M2070.98 1214.13C2072.39 1214.13 2073.55 1213.01 2073.55 1211.65C2073.55 1210.28 2072.39 1209.17 2070.98 1209.17C2069.56 1209.17 2068.4 1210.28 2068.4 1211.65C2068.4 1213.01 2069.56 1214.13 2070.98 1214.13Z" fill="black"/>
<path fill-rule="evenodd" clip-rule="evenodd" d="M2063.55 1226.53C2064.96 1226.53 2066.12 1225.41 2066.12 1224.05C2066.12 1222.68 2064.96 1221.57 2063.55 1221.57C2062.13 1221.57 2060.97 1222.68 2060.97 1224.05C2060.97 1225.41 2062.13 1226.53 2063.55 1226.53Z" fill="black"/>
<path fill-rule="evenodd" clip-rule="evenodd" d="M2070.98 1238.92C2072.39 1238.92 2073.55 1237.81 2073.55 1236.44C2073.55 1235.07 2072.39 1233.96 2070.98 1233.96C2069.56 1233.96 2068.4 1235.08 2068.4 1236.44C2068.4 1237.81 2069.56 1238.92 2070.98 1238.92Z" fill="black"/>
<path fill-rule="evenodd" clip-rule="evenodd" d="M2085.83 1238.92C2087.25 1238.92 2088.41 1237.81 2088.41 1236.44C2088.41 1235.07 2087.25 1233.96 2085.83 1233.96C2084.41 1233.96 2083.26 1235.08 2083.26 1236.44C2083.26 1237.81 2084.41 1238.92 2085.83 1238.92Z" fill="black"/>
<path fill-rule="evenodd" clip-rule="evenodd" d="M2093.26 1226.53C2094.68 1226.53 2095.83 1225.41 2095.83 1224.05C2095.83 1222.68 2094.68 1221.56 2093.26 1221.56C2091.84 1221.56 2090.68 1222.68 2090.68 1224.05C2090.68 1225.41 2091.84 1226.53 2093.26 1226.53Z" fill="black"/>
<path fill-rule="evenodd" clip-rule="evenodd" d="M2085.83 1214.13C2087.25 1214.13 2088.41 1213.01 2088.41 1211.65C2088.41 1210.28 2087.25 1209.17 2085.83 1209.17C2084.41 1209.17 2083.26 1210.28 2083.26 1211.65C2083.26 1213.01 2084.41 1214.13 2085.83 1214.13Z" fill="black"/>
<path fill-rule="evenodd" clip-rule="evenodd" d="M1867.06 1155.14C1843.88 1166.24 1828 1188.89 1828 1215.03C1828 1226.36 1830.98 1237.02 1836.24 1246.38C1833.72 1239.34 1832.35 1231.79 1832.35 1223.93C1832.35 1186.2 1863.88 1155.57 1902.93 1155.15V1155.14H1867.06Z" fill="black" stroke="black" stroke-width="10" stroke-miterlimit="22.9256" stroke-linecap="round" stroke-linejoin="round"/>
<path fill-rule="evenodd" clip-rule="evenodd" d="M1940.51 1155.28C1963.69 1166.38 1979.57 1189.03 1979.57 1215.18C1979.57 1226.5 1976.58 1237.17 1971.32 1246.52C1973.84 1239.49 1975.22 1231.93 1975.22 1224.07C1975.22 1186.35 1943.69 1155.72 1904.64 1155.29V1155.28H1940.51Z" fill="black" stroke="black" stroke-width="10" stroke-miterlimit="22.9256" stroke-linecap="round" stroke-linejoin="round"/>
<path d="M1903.75 1286.51C1939.48 1286.51 1968.45 1258.61 1968.45 1224.18C1968.45 1189.76 1939.48 1161.86 1903.75 1161.86C1868.02 1161.86 1839.06 1189.76 1839.06 1224.18C1839.06 1258.61 1868.02 1286.51 1903.75 1286.51Z" fill="black"/>
<path d="M1930.46 1249.94C1945.22 1235.72 1945.22 1212.65 1930.46 1198.43C1915.69 1184.2 1891.76 1184.2 1876.99 1198.43C1862.23 1212.65 1862.23 1235.72 1876.99 1249.94C1891.76 1264.17 1915.69 1264.17 1930.46 1249.94Z" fill="white"/>
<path fill-rule="evenodd" clip-rule="evenodd" d="M1903.75 1257.45C1922.77 1257.45 1938.28 1242.51 1938.28 1224.19C1938.28 1205.87 1922.77 1190.93 1903.75 1190.93C1884.74 1190.93 1869.23 1205.87 1869.23 1224.19C1869.23 1242.51 1884.74 1257.45 1903.75 1257.45Z" stroke="black" stroke-width="10" stroke-miterlimit="22.9256" stroke-linecap="round" stroke-linejoin="round"/>
<path fill-rule="evenodd" clip-rule="evenodd" d="M1903.75 1233.88C1909.29 1233.88 1913.81 1229.52 1913.81 1224.19C1913.81 1218.85 1909.29 1214.5 1903.75 1214.5C1898.21 1214.5 1893.7 1218.85 1893.7 1224.19C1893.7 1229.52 1898.21 1233.88 1903.75 1233.88Z" fill="black"/>
<path fill-rule="evenodd" clip-rule="evenodd" d="M1903.75 1201.25C1906.87 1201.25 1909.42 1199.88 1909.42 1198.2C1909.42 1196.52 1906.87 1195.15 1903.75 1195.15C1900.63 1195.15 1898.08 1196.52 1898.08 1198.2C1898.08 1199.88 1900.63 1201.25 1903.75 1201.25Z" fill="black"/>
<path fill-rule="evenodd" clip-rule="evenodd" d="M1883.14 1212.72C1881.57 1215.33 1879.07 1216.77 1877.56 1215.93C1876.04 1215.08 1876.08 1212.28 1877.65 1209.67C1879.21 1207.05 1881.71 1205.62 1883.23 1206.46C1884.75 1207.3 1884.7 1210.11 1883.14 1212.72Z" fill="black"/>
<path fill-rule="evenodd" clip-rule="evenodd" d="M1883.14 1235.65C1884.7 1238.27 1884.74 1241.07 1883.23 1241.91C1881.71 1242.75 1879.21 1241.32 1877.65 1238.71C1876.08 1236.09 1876.04 1233.29 1877.56 1232.45C1879.07 1231.6 1881.57 1233.04 1883.14 1235.65Z" fill="black"/>
<path fill-rule="evenodd" clip-rule="evenodd" d="M1903.75 1247.12C1906.88 1247.12 1909.42 1248.49 1909.42 1250.17C1909.42 1251.86 1906.88 1253.23 1903.75 1253.23C1900.62 1253.23 1898.08 1251.86 1898.08 1250.17C1898.08 1248.49 1900.62 1247.12 1903.75 1247.12Z" fill="black"/>
<path fill-rule="evenodd" clip-rule="evenodd" d="M1924.37 1235.65C1925.93 1233.04 1928.43 1231.6 1929.95 1232.45C1931.46 1233.29 1931.42 1236.09 1929.85 1238.71C1928.29 1241.32 1925.79 1242.75 1924.27 1241.91C1922.76 1241.07 1922.8 1238.27 1924.37 1235.65Z" fill="black"/>
<path fill-rule="evenodd" clip-rule="evenodd" d="M1924.37 1212.72C1922.8 1210.11 1922.76 1207.3 1924.27 1206.46C1925.79 1205.62 1928.29 1207.05 1929.85 1209.67C1931.42 1212.28 1931.46 1215.08 1929.95 1215.93C1928.43 1216.77 1925.93 1215.33 1924.37 1212.72Z" fill="black"/>
<path fill-rule="evenodd" clip-rule="evenodd" d="M1896.32 1214.27C1897.74 1214.27 1898.9 1213.15 1898.9 1211.79C1898.9 1210.42 1897.74 1209.31 1896.32 1209.31C1894.91 1209.31 1893.75 1210.42 1893.75 1211.79C1893.75 1213.16 1894.91 1214.27 1896.32 1214.27Z" fill="black"/>
<path fill-rule="evenodd" clip-rule="evenodd" d="M1888.9 1226.67C1890.31 1226.67 1891.47 1225.56 1891.47 1224.19C1891.47 1222.82 1890.31 1221.71 1888.9 1221.71C1887.48 1221.71 1886.32 1222.82 1886.32 1224.19C1886.32 1225.56 1887.48 1226.67 1888.9 1226.67Z" fill="black"/>
<path fill-rule="evenodd" clip-rule="evenodd" d="M1896.32 1239.06C1897.74 1239.06 1898.9 1237.95 1898.9 1236.58C1898.9 1235.22 1897.74 1234.1 1896.32 1234.1C1894.91 1234.1 1893.75 1235.22 1893.75 1236.58C1893.75 1237.95 1894.91 1239.06 1896.32 1239.06Z" fill="black"/>
<path fill-rule="evenodd" clip-rule="evenodd" d="M1911.18 1239.06C1912.6 1239.06 1913.76 1237.95 1913.76 1236.58C1913.76 1235.22 1912.6 1234.1 1911.18 1234.1C1909.76 1234.1 1908.61 1235.22 1908.61 1236.58C1908.61 1237.95 1909.76 1239.06 1911.18 1239.06Z" fill="black"/>
<path fill-rule="evenodd" clip-rule="evenodd" d="M1918.61 1226.67C1920.02 1226.67 1921.18 1225.55 1921.18 1224.19C1921.18 1222.82 1920.02 1221.71 1918.61 1221.71C1917.19 1221.71 1916.03 1222.82 1916.03 1224.19C1916.03 1225.55 1917.19 1226.67 1918.61 1226.67Z" fill="black"/>
<path fill-rule="evenodd" clip-rule="evenodd" d="M1911.18 1214.27C1912.6 1214.27 1913.76 1213.16 1913.76 1211.79C1913.76 1210.42 1912.6 1209.31 1911.18 1209.31C1909.76 1209.31 1908.61 1210.42 1908.61 1211.79C1908.61 1213.16 1909.76 1214.27 1911.18 1214.27Z" fill="black"/>
<path fill-rule="evenodd" clip-rule="evenodd" d="M2210.97 1155.14C2187.79 1166.24 2171.91 1188.89 2171.91 1215.03C2171.91 1226.36 2174.89 1237.02 2180.16 1246.38C2177.63 1239.34 2176.26 1231.79 2176.26 1223.93C2176.26 1186.2 2207.79 1155.57 2246.84 1155.15V1155.14H2210.97Z" fill="black" stroke="black" stroke-width="10" stroke-miterlimit="22.9256" stroke-linecap="round" stroke-linejoin="round"/>
<path fill-rule="evenodd" clip-rule="evenodd" d="M2284.42 1155.28C2307.6 1166.38 2323.48 1189.03 2323.48 1215.18C2323.48 1226.5 2320.49 1237.17 2315.23 1246.52C2317.75 1239.49 2319.13 1231.93 2319.13 1224.07C2319.13 1186.35 2287.6 1155.72 2248.55 1155.29V1155.28H2284.42Z" fill="black" stroke="black" stroke-width="10" stroke-miterlimit="22.9256" stroke-linecap="round" stroke-linejoin="round"/>
<path d="M2247.66 1286.51C2283.39 1286.51 2312.36 1258.61 2312.36 1224.18C2312.36 1189.76 2283.39 1161.86 2247.66 1161.86C2211.93 1161.86 2182.97 1189.76 2182.97 1224.18C2182.97 1258.61 2211.93 1286.51 2247.66 1286.51Z" fill="black"/>
<path d="M2274.37 1249.94C2289.13 1235.72 2289.13 1212.65 2274.37 1198.43C2259.6 1184.2 2235.67 1184.2 2220.9 1198.43C2206.14 1212.65 2206.14 1235.72 2220.9 1249.94C2235.67 1264.17 2259.6 1264.17 2274.37 1249.94Z" fill="white"/>
<path fill-rule="evenodd" clip-rule="evenodd" d="M2247.66 1257.45C2266.68 1257.45 2282.19 1242.51 2282.19 1224.19C2282.19 1205.87 2266.68 1190.93 2247.66 1190.93C2228.65 1190.93 2213.14 1205.87 2213.14 1224.19C2213.14 1242.51 2228.65 1257.45 2247.66 1257.45Z" stroke="black" stroke-width="10" stroke-miterlimit="22.9256" stroke-linecap="round" stroke-linejoin="round"/>
<path fill-rule="evenodd" clip-rule="evenodd" d="M2247.66 1233.88C2253.2 1233.88 2257.72 1229.52 2257.72 1224.19C2257.72 1218.85 2253.2 1214.5 2247.66 1214.5C2242.13 1214.5 2237.61 1218.85 2237.61 1224.19C2237.61 1229.52 2242.13 1233.88 2247.66 1233.88Z" fill="black"/>
<path fill-rule="evenodd" clip-rule="evenodd" d="M2247.66 1201.25C2250.79 1201.25 2253.34 1199.88 2253.34 1198.2C2253.34 1196.52 2250.79 1195.15 2247.66 1195.15C2244.54 1195.15 2241.99 1196.52 2241.99 1198.2C2241.99 1199.88 2244.54 1201.25 2247.66 1201.25Z" fill="black"/>
<path fill-rule="evenodd" clip-rule="evenodd" d="M2227.05 1212.72C2225.48 1215.33 2222.98 1216.77 2221.47 1215.93C2219.95 1215.08 2219.99 1212.28 2221.56 1209.67C2223.13 1207.05 2225.63 1205.62 2227.14 1206.46C2228.66 1207.3 2228.61 1210.11 2227.05 1212.72Z" fill="black"/>
<path fill-rule="evenodd" clip-rule="evenodd" d="M2227.05 1235.65C2228.61 1238.27 2228.65 1241.07 2227.14 1241.91C2225.63 1242.75 2223.13 1241.32 2221.56 1238.71C2219.99 1236.09 2219.95 1233.29 2221.47 1232.45C2222.98 1231.6 2225.48 1233.04 2227.05 1235.65Z" fill="black"/>
<path fill-rule="evenodd" clip-rule="evenodd" d="M2247.66 1247.12C2250.8 1247.12 2253.34 1248.49 2253.34 1250.17C2253.34 1251.86 2250.8 1253.23 2247.66 1253.23C2244.53 1253.23 2241.99 1251.86 2241.99 1250.17C2241.99 1248.49 2244.53 1247.12 2247.66 1247.12Z" fill="black"/>
<path fill-rule="evenodd" clip-rule="evenodd" d="M2268.28 1235.65C2269.84 1233.04 2272.34 1231.6 2273.86 1232.45C2275.37 1233.29 2275.33 1236.09 2273.77 1238.71C2272.2 1241.32 2269.7 1242.75 2268.19 1241.91C2266.67 1241.07 2266.71 1238.27 2268.28 1235.65Z" fill="black"/>
<path fill-rule="evenodd" clip-rule="evenodd" d="M2268.28 1212.72C2266.71 1210.11 2266.67 1207.3 2268.19 1206.46C2269.7 1205.62 2272.2 1207.05 2273.77 1209.67C2275.33 1212.28 2275.37 1215.08 2273.86 1215.93C2272.34 1216.77 2269.84 1215.33 2268.28 1212.72Z" fill="black"/>
<path fill-rule="evenodd" clip-rule="evenodd" d="M2240.24 1214.27C2241.65 1214.27 2242.81 1213.15 2242.81 1211.79C2242.81 1210.42 2241.65 1209.31 2240.24 1209.31C2238.82 1209.31 2237.66 1210.42 2237.66 1211.79C2237.66 1213.16 2238.82 1214.27 2240.24 1214.27Z" fill="black"/>
<path fill-rule="evenodd" clip-rule="evenodd" d="M2232.81 1226.67C2234.22 1226.67 2235.38 1225.56 2235.38 1224.19C2235.38 1222.82 2234.22 1221.71 2232.81 1221.71C2231.39 1221.71 2230.23 1222.82 2230.23 1224.19C2230.23 1225.56 2231.39 1226.67 2232.81 1226.67Z" fill="black"/>
<path fill-rule="evenodd" clip-rule="evenodd" d="M2240.24 1239.06C2241.65 1239.06 2242.81 1237.95 2242.81 1236.58C2242.81 1235.22 2241.65 1234.1 2240.24 1234.1C2238.82 1234.1 2237.66 1235.22 2237.66 1236.58C2237.66 1237.95 2238.82 1239.06 2240.24 1239.06Z" fill="black"/>
<path fill-rule="evenodd" clip-rule="evenodd" d="M2255.09 1239.06C2256.51 1239.06 2257.67 1237.95 2257.67 1236.58C2257.67 1235.22 2256.51 1234.1 2255.09 1234.1C2253.67 1234.1 2252.52 1235.22 2252.52 1236.58C2252.52 1237.95 2253.67 1239.06 2255.09 1239.06Z" fill="black"/>
<path fill-rule="evenodd" clip-rule="evenodd" d="M2262.52 1226.67C2263.93 1226.67 2265.09 1225.55 2265.09 1224.19C2265.09 1222.82 2263.93 1221.71 2262.52 1221.71C2261.1 1221.71 2259.94 1222.82 2259.94 1224.19C2259.94 1225.55 2261.1 1226.67 2262.52 1226.67Z" fill="black"/>
<path fill-rule="evenodd" clip-rule="evenodd" d="M2255.09 1214.27C2256.51 1214.27 2257.67 1213.16 2257.67 1211.79C2257.67 1210.42 2256.51 1209.31 2255.09 1209.31C2253.67 1209.31 2252.52 1210.42 2252.52 1211.79C2252.52 1213.16 2253.67 1214.27 2255.09 1214.27Z" fill="black"/>
</svg>
