<svg width="3000" height="2000" viewBox="0 0 3000 2000" fill="none" xmlns="http://www.w3.org/2000/svg">
<path d="M1425.68 1170H1374V1187.31H1425.68V1170Z" fill="#2D2D2D"/>
<path fill-rule="evenodd" clip-rule="evenodd" d="M484.898 820.249C772.177 820.249 1072.63 820.249 1359.91 820.249C1354.89 792.478 1349.88 764.706 1344.86 736.934C1344.24 733.465 1341.28 731 1337.76 731C1091.43 731 832.974 731 586.23 731C573.69 731 562.902 735.727 554.4 744.942C531.23 770.044 508.064 795.147 484.898 820.249Z" fill="white" stroke="black" stroke-width="10" stroke-miterlimit="22.9256" stroke-linecap="round" stroke-linejoin="round"/>
<path d="M1240.56 1095.97H1039.68V1233.83H1240.56V1095.97Z" fill="#2D2D2D"/>
<path d="M477.11 1095.97H276.229V1233.83H477.11V1095.97Z" fill="#2D2D2D"/>
<path fill-rule="evenodd" clip-rule="evenodd" d="M306.246 1242.24L223.236 1242.24C220.689 1238.16 218.142 1234.08 215.595 1229.99C208.011 1224.22 200.427 1218.45 192.847 1212.68C190.993 1211.26 190 1209.26 190 1206.93C190 1193.08 190 1179.23 190 1165.39C190 1161.41 193.245 1158.17 197.218 1158.17H296.802C292.376 1168.69 290.043 1180.08 290.043 1191.77C290.038 1210.06 295.753 1227.62 306.246 1242.24Z" fill="#505050" stroke="black" stroke-width="10" stroke-miterlimit="22.9256" stroke-linecap="round" stroke-linejoin="round"/>
<path fill-rule="evenodd" clip-rule="evenodd" d="M296.798 1158.18L200.682 1158.17C204.201 1136.87 207.726 1115.58 211.246 1094.28C212.107 1089.07 214.47 1084.86 218.468 1081.41C260.037 1045.55 301.606 1009.69 343.18 973.834L484.899 820.254C776.568 820.254 1068.24 820.254 1359.91 820.254C1363.89 820.254 1367.15 823.514 1367.15 827.498C1367.15 937.724 1367.15 1047.95 1367.15 1158.18H1220C1215.69 1147.95 1209.42 1138.55 1201.38 1130.52C1185.09 1114.23 1163.18 1105.15 1140.13 1105.15C1117.08 1105.15 1095.17 1114.23 1078.87 1130.52C1062.57 1146.82 1053.5 1168.73 1053.5 1191.78C1053.5 1210.07 1059.21 1227.64 1069.7 1242.25H447.094C457.587 1227.64 463.302 1210.07 463.302 1191.78C463.302 1168.73 454.225 1146.82 437.931 1130.52C421.636 1114.23 399.724 1105.15 376.67 1105.15C353.622 1105.15 331.709 1114.23 315.41 1130.52C307.377 1138.55 301.102 1147.95 296.798 1158.18Z" fill="white" stroke="black" stroke-width="10" stroke-miterlimit="22.9256" stroke-linecap="round" stroke-linejoin="round"/>
<path fill-rule="evenodd" clip-rule="evenodd" d="M368.719 973.834H655.136V840.467C655.136 839.968 655.07 839.484 654.953 839.026H493.119L368.719 973.834Z" fill="#C8C8C8" stroke="black" stroke-width="10" stroke-miterlimit="22.9256" stroke-linecap="round" stroke-linejoin="round"/>
<path fill-rule="evenodd" clip-rule="evenodd" d="M1367.15 1158.17H1219.99C1224.42 1168.69 1226.75 1180.08 1226.75 1191.77C1226.75 1209.85 1221.16 1227.23 1210.89 1241.75L1340.63 1235.01C1343.09 1234.88 1345.16 1233.65 1346.43 1231.53C1355.74 1216.12 1387.91 1158.17 1367.15 1158.17Z" fill="#505050" stroke="black" stroke-width="10" stroke-miterlimit="22.9256" stroke-linecap="round" stroke-linejoin="round"/>
<path fill-rule="evenodd" clip-rule="evenodd" d="M200.682 1158.17C203.381 1141.84 206.081 1125.51 208.786 1109.18C213.003 1109.18 217.221 1109.18 221.438 1109.18C223.613 1109.18 225.426 1110.75 225.727 1112.91C227.846 1127.99 229.96 1143.08 232.079 1158.17C221.611 1158.17 211.144 1158.17 200.682 1158.17Z" fill="#C8C8C8" stroke="black" stroke-width="10" stroke-miterlimit="22.9256" stroke-linecap="round" stroke-linejoin="round"/>
<path fill-rule="evenodd" clip-rule="evenodd" d="M655.136 973.834H368.719V1073.31C368.719 1076.47 371.271 1079.05 374.429 1079.08C385.09 1079.21 394.925 1079.86 406.666 1083.1C454.352 1096.23 489.381 1139.91 489.381 1191.78C489.381 1193.41 489.381 1195.04 489.381 1196.68C489.381 1199.86 491.973 1202.46 495.157 1202.46H649.365C652.549 1202.46 655.141 1199.86 655.141 1196.68C655.136 1122.39 655.136 1048.11 655.136 973.834Z" fill="white" stroke="black" stroke-width="10" stroke-miterlimit="22.9256" stroke-linecap="round" stroke-linejoin="round"/>
<path fill-rule="evenodd" clip-rule="evenodd" d="M629.691 1012.66H636.114C638.605 1012.66 640.637 1014.69 640.637 1017.18V1050.31C640.637 1052.79 638.605 1054.83 636.114 1054.83H629.691C627.205 1054.83 625.168 1052.8 625.168 1050.31V1017.18C625.168 1014.69 627.205 1012.66 629.691 1012.66Z" fill="black"/>
<path fill-rule="evenodd" clip-rule="evenodd" d="M323.125 1043.32H331.504C334.84 1043.32 337.57 1046.05 337.57 1049.39C337.57 1052.72 334.84 1055.45 331.504 1055.45H323.125C319.789 1055.45 317.059 1052.72 317.059 1049.39C317.059 1046.05 319.789 1043.32 323.125 1043.32Z" fill="#F58220"/>
<path d="M1337.58 1037.36H684.705C682.708 1037.36 681.094 1035.74 681.094 1033.75C681.094 1031.75 682.708 1030.14 684.705 1030.14H1337.58C1339.57 1030.14 1341.19 1031.75 1341.19 1033.75C1341.19 1035.74 1339.57 1037.36 1337.58 1037.36Z" fill="black"/>
<path fill-rule="evenodd" clip-rule="evenodd" d="M1367.15 1089.4H1348.04C1345.16 1089.4 1342.82 1091.75 1342.82 1094.63V1158.17H1367.15V1089.4Z" fill="#ED1C24" stroke="black" stroke-width="10" stroke-miterlimit="22.9256" stroke-linecap="round" stroke-linejoin="round"/>
<path fill-rule="evenodd" clip-rule="evenodd" d="M404.247 973.834H368.719L404.247 935.33V973.834Z" fill="black" stroke="black" stroke-width="10" stroke-miterlimit="22.9256" stroke-linecap="round" stroke-linejoin="round"/>
<path fill-rule="evenodd" clip-rule="evenodd" d="M376.674 1269.38C419.42 1269.38 454.28 1234.52 454.28 1191.77C454.28 1149.03 419.42 1114.16 376.674 1114.16C333.929 1114.16 299.068 1149.03 299.068 1191.77C299.063 1234.52 333.929 1269.38 376.674 1269.38Z" fill="black"/>
<path fill-rule="evenodd" clip-rule="evenodd" d="M376.675 1241.76C404.206 1241.76 426.658 1219.31 426.658 1191.77C426.658 1164.24 404.206 1141.78 376.675 1141.78C349.144 1141.78 326.691 1164.24 326.691 1191.77C326.691 1219.31 349.144 1241.76 376.675 1241.76Z" fill="white" stroke="black" stroke-width="10" stroke-miterlimit="22.9256"/>
<path fill-rule="evenodd" clip-rule="evenodd" d="M376.673 1235.52C400.766 1235.52 420.417 1215.87 420.417 1191.77C420.417 1167.68 400.766 1148.03 376.673 1148.03C352.581 1148.03 332.93 1167.68 332.93 1191.77C332.93 1215.87 352.581 1235.52 376.673 1235.52Z" stroke="black" stroke-width="10" stroke-miterlimit="22.9256" stroke-linecap="round" stroke-linejoin="round"/>
<path fill-rule="evenodd" clip-rule="evenodd" d="M376.675 1216.35C390.214 1216.35 401.252 1205.31 401.252 1191.77C401.252 1178.24 390.209 1167.19 376.675 1167.19C363.137 1167.19 352.094 1178.24 352.094 1191.77C352.094 1205.31 363.137 1216.35 376.675 1216.35Z" stroke="black" stroke-width="10" stroke-miterlimit="22.9256" stroke-linecap="round" stroke-linejoin="round"/>
<path fill-rule="evenodd" clip-rule="evenodd" d="M376.675 1180.47C378.697 1180.47 380.343 1178.82 380.343 1176.8C380.343 1174.79 378.697 1173.14 376.675 1173.14C374.653 1173.14 373.008 1174.79 373.008 1176.8C373.008 1178.83 374.653 1180.47 376.675 1180.47Z" fill="black"/>
<path fill-rule="evenodd" clip-rule="evenodd" d="M362.535 1190.75C364.557 1190.75 366.202 1189.1 366.202 1187.08C366.202 1185.06 364.557 1183.41 362.535 1183.41C360.512 1183.41 358.867 1185.06 358.867 1187.08C358.867 1189.1 360.518 1190.75 362.535 1190.75Z" fill="black"/>
<path fill-rule="evenodd" clip-rule="evenodd" d="M367.933 1207.36C369.95 1207.36 371.6 1205.72 371.6 1203.69C371.6 1201.67 369.955 1200.03 367.933 1200.03C365.916 1200.03 364.266 1201.67 364.266 1203.69C364.271 1205.72 365.916 1207.36 367.933 1207.36Z" fill="black"/>
<path fill-rule="evenodd" clip-rule="evenodd" d="M385.41 1207.36C387.427 1207.36 389.077 1205.72 389.077 1203.69C389.077 1201.67 387.432 1200.03 385.41 1200.03C383.387 1200.03 381.742 1201.67 381.742 1203.69C381.742 1205.72 383.387 1207.36 385.41 1207.36Z" fill="black"/>
<path fill-rule="evenodd" clip-rule="evenodd" d="M390.808 1190.75C392.83 1190.75 394.475 1189.1 394.475 1187.08C394.475 1185.06 392.83 1183.41 390.808 1183.41C388.786 1183.41 387.141 1185.06 387.141 1187.08C387.141 1189.1 388.786 1190.75 390.808 1190.75Z" fill="black"/>
<path fill-rule="evenodd" clip-rule="evenodd" d="M376.674 1162.51C379.42 1162.51 381.661 1160.26 381.661 1157.52C381.661 1154.77 379.42 1152.53 376.674 1152.53C373.929 1152.53 371.688 1154.77 371.688 1157.52C371.682 1160.26 373.924 1162.51 376.674 1162.51Z" fill="black"/>
<path fill-rule="evenodd" clip-rule="evenodd" d="M356.537 1169.05C359.283 1169.05 361.524 1166.8 361.524 1164.06C361.524 1161.31 359.283 1159.07 356.537 1159.07C353.792 1159.07 351.551 1161.31 351.551 1164.06C351.546 1166.81 353.792 1169.05 356.537 1169.05Z" fill="black"/>
<path d="M344.096 1186.18C346.85 1186.18 349.083 1183.94 349.083 1181.19C349.083 1178.44 346.85 1176.2 344.096 1176.2C341.342 1176.2 339.109 1178.44 339.109 1181.19C339.109 1183.94 341.342 1186.18 344.096 1186.18Z" fill="black"/>
<path fill-rule="evenodd" clip-rule="evenodd" d="M344.096 1207.35C346.841 1207.35 349.083 1205.11 349.083 1202.36C349.083 1199.61 346.841 1197.37 344.096 1197.37C341.351 1197.37 339.109 1199.61 339.109 1202.36C339.104 1205.11 341.345 1207.35 344.096 1207.35Z" fill="black"/>
<path fill-rule="evenodd" clip-rule="evenodd" d="M356.537 1224.48C359.283 1224.48 361.524 1222.24 361.524 1219.49C361.524 1216.74 359.283 1214.5 356.537 1214.5C353.792 1214.5 351.551 1216.74 351.551 1219.49C351.551 1222.24 353.792 1224.48 356.537 1224.48Z" fill="black"/>
<path fill-rule="evenodd" clip-rule="evenodd" d="M376.674 1231.02C379.42 1231.02 381.661 1228.78 381.661 1226.03C381.661 1223.28 379.42 1221.04 376.674 1221.04C373.929 1221.04 371.688 1223.29 371.688 1226.03C371.682 1228.78 373.924 1231.02 376.674 1231.02Z" fill="black"/>
<path fill-rule="evenodd" clip-rule="evenodd" d="M396.811 1224.48C399.556 1224.48 401.797 1222.24 401.797 1219.49C401.797 1216.74 399.556 1214.5 396.811 1214.5C394.065 1214.5 391.824 1216.74 391.824 1219.49C391.824 1222.24 394.06 1224.48 396.811 1224.48Z" fill="black"/>
<path fill-rule="evenodd" clip-rule="evenodd" d="M409.252 1207.35C411.998 1207.35 414.239 1205.11 414.239 1202.36C414.239 1199.61 411.998 1197.37 409.252 1197.37C406.507 1197.37 404.266 1199.61 404.266 1202.36C404.261 1205.11 406.507 1207.35 409.252 1207.35Z" fill="black"/>
<path d="M409.252 1186.18C412.006 1186.18 414.239 1183.94 414.239 1181.19C414.239 1178.44 412.006 1176.2 409.252 1176.2C406.498 1176.2 404.266 1178.44 404.266 1181.19C404.266 1183.94 406.498 1186.18 409.252 1186.18Z" fill="black"/>
<path fill-rule="evenodd" clip-rule="evenodd" d="M396.811 1169.05C399.556 1169.05 401.797 1166.8 401.797 1164.06C401.797 1161.31 399.556 1159.07 396.811 1159.07C394.065 1159.07 391.824 1161.31 391.824 1164.06C391.819 1166.81 394.06 1169.05 396.811 1169.05Z" fill="black"/>
<path d="M376.676 1199.4C380.887 1199.4 384.301 1195.99 384.301 1191.77C384.301 1187.56 380.887 1184.15 376.676 1184.15C372.465 1184.15 369.051 1187.56 369.051 1191.77C369.051 1195.99 372.465 1199.4 376.676 1199.4Z" fill="black"/>
<path fill-rule="evenodd" clip-rule="evenodd" d="M1140.12 1269.38C1182.87 1269.38 1217.73 1234.52 1217.73 1191.77C1217.73 1149.03 1182.86 1114.16 1140.12 1114.16C1097.38 1114.16 1062.52 1149.03 1062.52 1191.77C1062.52 1234.52 1097.38 1269.38 1140.12 1269.38Z" fill="black"/>
<path fill-rule="evenodd" clip-rule="evenodd" d="M1140.12 1241.76C1167.65 1241.76 1190.11 1219.31 1190.11 1191.77C1190.11 1164.24 1167.65 1141.78 1140.12 1141.78C1112.59 1141.78 1090.14 1164.24 1090.14 1191.77C1090.14 1219.31 1112.59 1241.76 1140.12 1241.76Z" fill="white" stroke="black" stroke-width="10" stroke-miterlimit="22.9256"/>
<path fill-rule="evenodd" clip-rule="evenodd" d="M1140.12 1235.52C1164.22 1235.52 1183.87 1215.87 1183.87 1191.77C1183.87 1167.68 1164.22 1148.03 1140.12 1148.03C1116.03 1148.03 1096.38 1167.68 1096.38 1191.77C1096.38 1215.87 1116.03 1235.52 1140.12 1235.52Z" stroke="black" stroke-width="10" stroke-miterlimit="22.9256" stroke-linecap="round" stroke-linejoin="round"/>
<path fill-rule="evenodd" clip-rule="evenodd" d="M1140.12 1216.35C1153.66 1216.35 1164.7 1205.31 1164.7 1191.77C1164.7 1178.24 1153.65 1167.19 1140.12 1167.19C1126.58 1167.19 1115.54 1178.24 1115.54 1191.77C1115.54 1205.31 1126.58 1216.35 1140.12 1216.35Z" stroke="black" stroke-width="10" stroke-miterlimit="22.9256" stroke-linecap="round" stroke-linejoin="round"/>
<path fill-rule="evenodd" clip-rule="evenodd" d="M1140.12 1180.47C1142.14 1180.47 1143.79 1178.82 1143.79 1176.8C1143.79 1174.79 1142.15 1173.14 1140.12 1173.14C1138.1 1173.14 1136.46 1174.79 1136.46 1176.8C1136.46 1178.83 1138.1 1180.47 1140.12 1180.47Z" fill="black"/>
<path fill-rule="evenodd" clip-rule="evenodd" d="M1125.99 1190.75C1128 1190.75 1129.66 1189.1 1129.66 1187.08C1129.66 1185.06 1128.01 1183.41 1125.99 1183.41C1123.97 1183.41 1122.32 1185.06 1122.32 1187.08C1122.32 1189.1 1123.97 1190.75 1125.99 1190.75Z" fill="black"/>
<path fill-rule="evenodd" clip-rule="evenodd" d="M1131.39 1207.36C1133.4 1207.36 1135.05 1205.72 1135.05 1203.69C1135.05 1201.67 1133.41 1200.03 1131.39 1200.03C1129.37 1200.03 1127.72 1201.67 1127.72 1203.69C1127.72 1205.72 1129.36 1207.36 1131.39 1207.36Z" fill="black"/>
<path fill-rule="evenodd" clip-rule="evenodd" d="M1148.86 1207.36C1150.88 1207.36 1152.53 1205.72 1152.53 1203.69C1152.53 1201.67 1150.88 1200.03 1148.86 1200.03C1146.84 1200.03 1145.19 1201.67 1145.19 1203.69C1145.19 1205.72 1146.84 1207.36 1148.86 1207.36Z" fill="black"/>
<path fill-rule="evenodd" clip-rule="evenodd" d="M1154.26 1190.75C1156.27 1190.75 1157.92 1189.1 1157.92 1187.08C1157.92 1185.06 1156.28 1183.41 1154.26 1183.41C1152.24 1183.41 1150.59 1185.06 1150.59 1187.08C1150.59 1189.1 1152.24 1190.75 1154.26 1190.75Z" fill="black"/>
<path fill-rule="evenodd" clip-rule="evenodd" d="M1140.12 1162.51C1142.87 1162.51 1145.11 1160.26 1145.11 1157.52C1145.11 1154.77 1142.87 1152.53 1140.12 1152.53C1137.38 1152.53 1135.14 1154.77 1135.14 1157.52C1135.14 1160.26 1137.38 1162.51 1140.12 1162.51Z" fill="black"/>
<path fill-rule="evenodd" clip-rule="evenodd" d="M1119.99 1169.05C1122.74 1169.05 1124.97 1166.8 1124.97 1164.06C1124.97 1161.31 1122.73 1159.07 1119.99 1159.07C1117.24 1159.07 1115 1161.31 1115 1164.06C1115 1166.81 1117.24 1169.05 1119.99 1169.05Z" fill="black"/>
<path fill-rule="evenodd" clip-rule="evenodd" d="M1107.55 1186.18C1110.29 1186.18 1112.53 1183.94 1112.53 1181.19C1112.53 1178.44 1110.29 1176.2 1107.55 1176.2C1104.8 1176.2 1102.56 1178.44 1102.56 1181.19C1102.56 1183.94 1104.8 1186.18 1107.55 1186.18Z" fill="black"/>
<path fill-rule="evenodd" clip-rule="evenodd" d="M1107.55 1207.35C1110.29 1207.35 1112.53 1205.11 1112.53 1202.36C1112.53 1199.61 1110.29 1197.37 1107.55 1197.37C1104.8 1197.37 1102.56 1199.61 1102.56 1202.36C1102.56 1205.11 1104.8 1207.35 1107.55 1207.35Z" fill="black"/>
<path fill-rule="evenodd" clip-rule="evenodd" d="M1119.99 1224.48C1122.74 1224.48 1124.97 1222.24 1124.97 1219.49C1124.97 1216.74 1122.73 1214.5 1119.99 1214.5C1117.24 1214.5 1115 1216.74 1115 1219.49C1115 1222.24 1117.24 1224.48 1119.99 1224.48Z" fill="black"/>
<path fill-rule="evenodd" clip-rule="evenodd" d="M1140.12 1231.02C1142.87 1231.02 1145.11 1228.78 1145.11 1226.03C1145.11 1223.28 1142.87 1221.04 1140.12 1221.04C1137.38 1221.04 1135.14 1223.29 1135.14 1226.03C1135.14 1228.78 1137.38 1231.02 1140.12 1231.02Z" fill="black"/>
<path fill-rule="evenodd" clip-rule="evenodd" d="M1160.26 1224.48C1163.01 1224.48 1165.25 1222.24 1165.25 1219.49C1165.25 1216.74 1163.01 1214.5 1160.26 1214.5C1157.51 1214.5 1155.27 1216.74 1155.27 1219.49C1155.27 1222.24 1157.51 1224.48 1160.26 1224.48Z" fill="black"/>
<path fill-rule="evenodd" clip-rule="evenodd" d="M1172.7 1207.35C1175.45 1207.35 1177.69 1205.11 1177.69 1202.36C1177.69 1199.61 1175.45 1197.37 1172.7 1197.37C1169.96 1197.37 1167.71 1199.61 1167.71 1202.36C1167.71 1205.11 1169.96 1207.35 1172.7 1207.35Z" fill="black"/>
<path fill-rule="evenodd" clip-rule="evenodd" d="M1172.7 1186.18C1175.45 1186.18 1177.69 1183.94 1177.69 1181.19C1177.69 1178.44 1175.45 1176.2 1172.7 1176.2C1169.96 1176.2 1167.71 1178.44 1167.71 1181.19C1167.71 1183.94 1169.96 1186.18 1172.7 1186.18Z" fill="black"/>
<path fill-rule="evenodd" clip-rule="evenodd" d="M1160.26 1169.05C1163.01 1169.05 1165.25 1166.8 1165.25 1164.06C1165.25 1161.31 1163.01 1159.07 1160.26 1159.07C1157.51 1159.07 1155.27 1161.31 1155.27 1164.06C1155.27 1166.81 1157.51 1169.05 1160.26 1169.05Z" fill="black"/>
<path fill-rule="evenodd" clip-rule="evenodd" d="M1140.12 1199.4C1144.32 1199.4 1147.75 1195.98 1147.75 1191.77C1147.75 1187.58 1144.32 1184.15 1140.12 1184.15C1135.92 1184.15 1132.5 1187.57 1132.5 1191.77C1132.5 1195.97 1135.92 1199.4 1140.12 1199.4Z" fill="black"/>
<path d="M655.13 839.02H493.113V973.829H655.13V839.02Z" fill="#C8C8C8" stroke="black" stroke-width="10" stroke-miterlimit="22.9256" stroke-linecap="round" stroke-linejoin="round"/>
<path fill-rule="evenodd" clip-rule="evenodd" d="M395.278 932.182C401.217 931.662 403.132 936.695 403.565 941.667L406.494 975.154C406.932 980.13 405.913 985.418 399.979 985.937C384.429 987.297 379.727 933.542 395.278 932.182Z" fill="#505050" stroke="black" stroke-width="10" stroke-miterlimit="22.9256" stroke-linecap="round" stroke-linejoin="round"/>
<path fill-rule="evenodd" clip-rule="evenodd" d="M1426 1137H2799L2770.11 1170.65L2576.25 1183H1426V1137Z" fill="#505050" stroke="black" stroke-width="10" stroke-miterlimit="22.9256" stroke-linecap="round" stroke-linejoin="round"/>
<path d="M2810 1097H1426V1137H2810V1097Z" fill="white" stroke="black" stroke-width="10" stroke-miterlimit="22.9256" stroke-linecap="round" stroke-linejoin="round"/>
<path fill-rule="evenodd" clip-rule="evenodd" d="M2083.71 1137C2060.53 1148.1 2044.65 1170.75 2044.65 1196.89C2044.65 1208.22 2047.63 1218.88 2052.89 1228.24C2050.37 1221.2 2049 1213.65 2049 1205.79C2049 1168.06 2080.52 1137.43 2119.58 1137.01V1137H2083.71Z" fill="black" stroke="black" stroke-width="10" stroke-miterlimit="22.9256" stroke-linecap="round" stroke-linejoin="round"/>
<path fill-rule="evenodd" clip-rule="evenodd" d="M2157.15 1137.14C2180.33 1148.24 2196.21 1170.89 2196.21 1197.03C2196.21 1208.36 2193.23 1219.02 2187.97 1228.38C2190.49 1221.34 2191.86 1213.79 2191.86 1205.93C2191.86 1168.2 2160.34 1137.57 2121.28 1137.15V1137.14H2157.15Z" fill="black" stroke="black" stroke-width="10" stroke-miterlimit="22.9256" stroke-linecap="round" stroke-linejoin="round"/>
<path d="M2120.4 1268.37C2156.13 1268.37 2185.09 1240.47 2185.09 1206.04C2185.09 1171.62 2156.13 1143.71 2120.4 1143.71C2084.67 1143.71 2055.71 1171.62 2055.71 1206.04C2055.71 1240.47 2084.67 1268.37 2120.4 1268.37Z" fill="black"/>
<path d="M2147.11 1231.8C2161.87 1217.57 2161.87 1194.51 2147.11 1180.29C2132.34 1166.06 2108.4 1166.06 2093.64 1180.29C2078.88 1194.51 2078.88 1217.57 2093.64 1231.8C2108.4 1246.02 2132.34 1246.02 2147.11 1231.8Z" fill="white"/>
<path fill-rule="evenodd" clip-rule="evenodd" d="M2120.4 1239.31C2139.42 1239.31 2154.92 1224.36 2154.92 1206.05C2154.92 1187.73 2139.41 1172.79 2120.4 1172.79C2101.39 1172.79 2085.88 1187.73 2085.88 1206.05C2085.88 1224.36 2101.39 1239.31 2120.4 1239.31Z" stroke="black" stroke-width="10" stroke-miterlimit="22.9256" stroke-linecap="round" stroke-linejoin="round"/>
<path fill-rule="evenodd" clip-rule="evenodd" d="M2120.4 1215.73C2125.94 1215.73 2130.45 1211.38 2130.45 1206.05C2130.45 1200.71 2125.94 1196.36 2120.4 1196.36C2114.86 1196.36 2110.34 1200.71 2110.34 1206.05C2110.34 1211.38 2114.86 1215.73 2120.4 1215.73Z" fill="black"/>
<path fill-rule="evenodd" clip-rule="evenodd" d="M2120.4 1183.11C2123.52 1183.11 2126.07 1181.74 2126.07 1180.06C2126.07 1178.38 2123.52 1177.01 2120.4 1177.01C2117.28 1177.01 2114.73 1178.38 2114.73 1180.06C2114.73 1181.74 2117.28 1183.11 2120.4 1183.11Z" fill="black"/>
<path fill-rule="evenodd" clip-rule="evenodd" d="M2099.78 1194.58C2098.22 1197.19 2095.72 1198.63 2094.2 1197.78C2092.69 1196.94 2092.73 1194.14 2094.3 1191.52C2095.86 1188.91 2098.36 1187.47 2099.88 1188.32C2101.39 1189.16 2101.35 1191.96 2099.78 1194.58Z" fill="black"/>
<path fill-rule="evenodd" clip-rule="evenodd" d="M2099.78 1217.51C2101.35 1220.12 2101.39 1222.93 2099.88 1223.77C2098.36 1224.61 2095.86 1223.18 2094.3 1220.56C2092.73 1217.95 2092.69 1215.15 2094.2 1214.3C2095.72 1213.46 2098.22 1214.9 2099.78 1217.51Z" fill="black"/>
<path fill-rule="evenodd" clip-rule="evenodd" d="M2120.4 1228.98C2123.53 1228.98 2126.07 1230.35 2126.07 1232.03C2126.07 1233.71 2123.53 1235.08 2120.4 1235.08C2117.27 1235.08 2114.73 1233.72 2114.73 1232.03C2114.73 1230.34 2117.26 1228.98 2120.4 1228.98Z" fill="black"/>
<path fill-rule="evenodd" clip-rule="evenodd" d="M2141.01 1217.51C2142.58 1214.9 2145.08 1213.46 2146.6 1214.3C2148.11 1215.15 2148.07 1217.95 2146.5 1220.56C2144.94 1223.18 2142.44 1224.61 2140.92 1223.77C2139.41 1222.93 2139.45 1220.13 2141.01 1217.51Z" fill="black"/>
<path fill-rule="evenodd" clip-rule="evenodd" d="M2141.01 1194.58C2139.45 1191.96 2139.41 1189.16 2140.92 1188.32C2142.44 1187.47 2144.94 1188.91 2146.5 1191.52C2148.07 1194.14 2148.11 1196.94 2146.6 1197.78C2145.08 1198.63 2142.58 1197.19 2141.01 1194.58Z" fill="black"/>
<path fill-rule="evenodd" clip-rule="evenodd" d="M2112.97 1196.13C2114.39 1196.13 2115.55 1195.01 2115.55 1193.65C2115.55 1192.28 2114.39 1191.17 2112.97 1191.17C2111.55 1191.17 2110.4 1192.28 2110.4 1193.65C2110.4 1195.01 2111.55 1196.13 2112.97 1196.13Z" fill="black"/>
<path fill-rule="evenodd" clip-rule="evenodd" d="M2105.54 1208.53C2106.96 1208.53 2108.12 1207.41 2108.12 1206.05C2108.12 1204.68 2106.96 1203.57 2105.54 1203.57C2104.12 1203.57 2102.97 1204.68 2102.97 1206.05C2102.97 1207.41 2104.12 1208.53 2105.54 1208.53Z" fill="black"/>
<path fill-rule="evenodd" clip-rule="evenodd" d="M2112.97 1220.92C2114.39 1220.92 2115.55 1219.81 2115.55 1218.44C2115.55 1217.07 2114.39 1215.96 2112.97 1215.96C2111.55 1215.96 2110.4 1217.08 2110.4 1218.44C2110.4 1219.81 2111.55 1220.92 2112.97 1220.92Z" fill="black"/>
<path fill-rule="evenodd" clip-rule="evenodd" d="M2127.83 1220.92C2129.25 1220.92 2130.4 1219.81 2130.4 1218.44C2130.4 1217.07 2129.25 1215.96 2127.83 1215.96C2126.41 1215.96 2125.25 1217.08 2125.25 1218.44C2125.25 1219.81 2126.41 1220.92 2127.83 1220.92Z" fill="black"/>
<path fill-rule="evenodd" clip-rule="evenodd" d="M2135.26 1208.53C2136.68 1208.53 2137.83 1207.41 2137.83 1206.05C2137.83 1204.68 2136.68 1203.56 2135.26 1203.56C2133.84 1203.56 2132.68 1204.68 2132.68 1206.05C2132.68 1207.41 2133.84 1208.53 2135.26 1208.53Z" fill="black"/>
<path fill-rule="evenodd" clip-rule="evenodd" d="M2127.83 1196.13C2129.25 1196.13 2130.4 1195.01 2130.4 1193.65C2130.4 1192.28 2129.25 1191.17 2127.83 1191.17C2126.41 1191.17 2125.25 1192.28 2125.25 1193.65C2125.25 1195.01 2126.41 1196.13 2127.83 1196.13Z" fill="black"/>
<path fill-rule="evenodd" clip-rule="evenodd" d="M1909.06 1137.14C1885.88 1148.24 1870 1170.89 1870 1197.03C1870 1208.36 1872.98 1219.02 1878.24 1228.38C1875.72 1221.34 1874.35 1213.79 1874.35 1205.93C1874.35 1168.2 1905.88 1137.57 1944.93 1137.15V1137.14H1909.06Z" fill="black" stroke="black" stroke-width="10" stroke-miterlimit="22.9256" stroke-linecap="round" stroke-linejoin="round"/>
<path fill-rule="evenodd" clip-rule="evenodd" d="M1982.51 1137.28C2005.69 1148.38 2021.57 1171.03 2021.57 1197.18C2021.57 1208.5 2018.58 1219.17 2013.32 1228.52C2015.84 1221.49 2017.22 1213.93 2017.22 1206.07C2017.22 1168.35 1985.69 1137.72 1946.64 1137.29V1137.28H1982.51Z" fill="black" stroke="black" stroke-width="10" stroke-miterlimit="22.9256" stroke-linecap="round" stroke-linejoin="round"/>
<path d="M1945.75 1268.51C1981.48 1268.51 2010.45 1240.61 2010.45 1206.18C2010.45 1171.76 1981.48 1143.86 1945.75 1143.86C1910.02 1143.86 1881.06 1171.76 1881.06 1206.18C1881.06 1240.61 1910.02 1268.51 1945.75 1268.51Z" fill="black"/>
<path d="M1972.46 1231.94C1987.22 1217.72 1987.22 1194.65 1972.46 1180.43C1957.69 1166.2 1933.76 1166.2 1918.99 1180.43C1904.23 1194.65 1904.23 1217.72 1918.99 1231.94C1933.76 1246.17 1957.69 1246.17 1972.46 1231.94Z" fill="white"/>
<path fill-rule="evenodd" clip-rule="evenodd" d="M1945.75 1239.45C1964.77 1239.45 1980.28 1224.51 1980.28 1206.19C1980.28 1187.87 1964.77 1172.93 1945.75 1172.93C1926.74 1172.93 1911.23 1187.87 1911.23 1206.19C1911.23 1224.51 1926.74 1239.45 1945.75 1239.45Z" stroke="black" stroke-width="10" stroke-miterlimit="22.9256" stroke-linecap="round" stroke-linejoin="round"/>
<path fill-rule="evenodd" clip-rule="evenodd" d="M1945.75 1215.88C1951.29 1215.88 1955.81 1211.52 1955.81 1206.19C1955.81 1200.85 1951.29 1196.5 1945.75 1196.5C1940.21 1196.5 1935.7 1200.85 1935.7 1206.19C1935.7 1211.52 1940.21 1215.88 1945.75 1215.88Z" fill="black"/>
<path fill-rule="evenodd" clip-rule="evenodd" d="M1945.75 1183.25C1948.87 1183.25 1951.42 1181.88 1951.42 1180.2C1951.42 1178.52 1948.87 1177.15 1945.75 1177.15C1942.63 1177.15 1940.08 1178.52 1940.08 1180.2C1940.08 1181.88 1942.63 1183.25 1945.75 1183.25Z" fill="black"/>
<path fill-rule="evenodd" clip-rule="evenodd" d="M1925.14 1194.72C1923.57 1197.33 1921.07 1198.77 1919.56 1197.93C1918.04 1197.08 1918.08 1194.28 1919.65 1191.67C1921.21 1189.05 1923.71 1187.62 1925.23 1188.46C1926.75 1189.3 1926.7 1192.11 1925.14 1194.72Z" fill="black"/>
<path fill-rule="evenodd" clip-rule="evenodd" d="M1925.14 1217.65C1926.7 1220.27 1926.74 1223.07 1925.23 1223.91C1923.71 1224.75 1921.21 1223.32 1919.65 1220.71C1918.08 1218.09 1918.04 1215.29 1919.56 1214.45C1921.07 1213.6 1923.57 1215.04 1925.14 1217.65Z" fill="black"/>
<path fill-rule="evenodd" clip-rule="evenodd" d="M1945.75 1229.12C1948.88 1229.12 1951.42 1230.49 1951.42 1232.17C1951.42 1233.86 1948.88 1235.23 1945.75 1235.23C1942.62 1235.23 1940.08 1233.86 1940.08 1232.17C1940.08 1230.49 1942.62 1229.12 1945.75 1229.12Z" fill="black"/>
<path fill-rule="evenodd" clip-rule="evenodd" d="M1966.37 1217.65C1967.93 1215.04 1970.43 1213.6 1971.95 1214.45C1973.46 1215.29 1973.42 1218.09 1971.85 1220.71C1970.29 1223.32 1967.79 1224.75 1966.27 1223.91C1964.76 1223.07 1964.8 1220.27 1966.37 1217.65Z" fill="black"/>
<path fill-rule="evenodd" clip-rule="evenodd" d="M1966.37 1194.72C1964.8 1192.11 1964.76 1189.3 1966.27 1188.46C1967.79 1187.62 1970.29 1189.05 1971.85 1191.67C1973.42 1194.28 1973.46 1197.08 1971.95 1197.93C1970.43 1198.77 1967.93 1197.33 1966.37 1194.72Z" fill="black"/>
<path fill-rule="evenodd" clip-rule="evenodd" d="M1938.32 1196.27C1939.74 1196.27 1940.9 1195.15 1940.9 1193.79C1940.9 1192.42 1939.74 1191.31 1938.32 1191.31C1936.91 1191.31 1935.75 1192.42 1935.75 1193.79C1935.75 1195.16 1936.91 1196.27 1938.32 1196.27Z" fill="black"/>
<path fill-rule="evenodd" clip-rule="evenodd" d="M1930.9 1208.67C1932.31 1208.67 1933.47 1207.56 1933.47 1206.19C1933.47 1204.82 1932.31 1203.71 1930.9 1203.71C1929.48 1203.71 1928.32 1204.82 1928.32 1206.19C1928.32 1207.56 1929.48 1208.67 1930.9 1208.67Z" fill="black"/>
<path fill-rule="evenodd" clip-rule="evenodd" d="M1938.32 1221.06C1939.74 1221.06 1940.9 1219.95 1940.9 1218.58C1940.9 1217.22 1939.74 1216.1 1938.32 1216.1C1936.91 1216.1 1935.75 1217.22 1935.75 1218.58C1935.75 1219.95 1936.91 1221.06 1938.32 1221.06Z" fill="black"/>
<path fill-rule="evenodd" clip-rule="evenodd" d="M1953.18 1221.06C1954.6 1221.06 1955.76 1219.95 1955.76 1218.58C1955.76 1217.22 1954.6 1216.1 1953.18 1216.1C1951.76 1216.1 1950.61 1217.22 1950.61 1218.58C1950.61 1219.95 1951.76 1221.06 1953.18 1221.06Z" fill="black"/>
<path fill-rule="evenodd" clip-rule="evenodd" d="M1960.61 1208.67C1962.03 1208.67 1963.18 1207.55 1963.18 1206.19C1963.18 1204.82 1962.03 1203.71 1960.61 1203.71C1959.19 1203.71 1958.04 1204.82 1958.04 1206.19C1958.04 1207.55 1959.19 1208.67 1960.61 1208.67Z" fill="black"/>
<path fill-rule="evenodd" clip-rule="evenodd" d="M1953.18 1196.27C1954.6 1196.27 1955.76 1195.16 1955.76 1193.79C1955.76 1192.42 1954.6 1191.31 1953.18 1191.31C1951.76 1191.31 1950.61 1192.42 1950.61 1193.79C1950.61 1195.16 1951.76 1196.27 1953.18 1196.27Z" fill="black"/>
<path fill-rule="evenodd" clip-rule="evenodd" d="M2252.97 1137.14C2229.79 1148.24 2213.91 1170.89 2213.91 1197.03C2213.91 1208.36 2216.89 1219.02 2222.16 1228.38C2219.63 1221.34 2218.26 1213.79 2218.26 1205.93C2218.26 1168.2 2249.79 1137.57 2288.84 1137.15V1137.14H2252.97Z" fill="black" stroke="black" stroke-width="10" stroke-miterlimit="22.9256" stroke-linecap="round" stroke-linejoin="round"/>
<path fill-rule="evenodd" clip-rule="evenodd" d="M2326.42 1137.28C2349.6 1148.38 2365.48 1171.03 2365.48 1197.18C2365.48 1208.5 2362.49 1219.17 2357.23 1228.52C2359.75 1221.49 2361.13 1213.93 2361.13 1206.07C2361.13 1168.35 2329.6 1137.72 2290.55 1137.29V1137.28H2326.42Z" fill="black" stroke="black" stroke-width="10" stroke-miterlimit="22.9256" stroke-linecap="round" stroke-linejoin="round"/>
<path d="M2289.66 1268.51C2325.39 1268.51 2354.36 1240.61 2354.36 1206.18C2354.36 1171.76 2325.39 1143.86 2289.66 1143.86C2253.93 1143.86 2224.97 1171.76 2224.97 1206.18C2224.97 1240.61 2253.93 1268.51 2289.66 1268.51Z" fill="black"/>
<path d="M2316.37 1231.94C2331.13 1217.72 2331.13 1194.65 2316.37 1180.43C2301.6 1166.2 2277.67 1166.2 2262.9 1180.43C2248.14 1194.65 2248.14 1217.72 2262.9 1231.94C2277.67 1246.17 2301.6 1246.17 2316.37 1231.94Z" fill="white"/>
<path fill-rule="evenodd" clip-rule="evenodd" d="M2289.66 1239.45C2308.68 1239.45 2324.19 1224.51 2324.19 1206.19C2324.19 1187.87 2308.68 1172.93 2289.66 1172.93C2270.65 1172.93 2255.14 1187.87 2255.14 1206.19C2255.14 1224.51 2270.65 1239.45 2289.66 1239.45Z" stroke="black" stroke-width="10" stroke-miterlimit="22.9256" stroke-linecap="round" stroke-linejoin="round"/>
<path fill-rule="evenodd" clip-rule="evenodd" d="M2289.66 1215.88C2295.2 1215.88 2299.72 1211.52 2299.72 1206.19C2299.72 1200.85 2295.2 1196.5 2289.66 1196.5C2284.13 1196.5 2279.61 1200.85 2279.61 1206.19C2279.61 1211.52 2284.13 1215.88 2289.66 1215.88Z" fill="black"/>
<path fill-rule="evenodd" clip-rule="evenodd" d="M2289.66 1183.25C2292.78 1183.25 2295.33 1181.88 2295.33 1180.2C2295.33 1178.52 2292.78 1177.15 2289.66 1177.15C2286.54 1177.15 2283.99 1178.52 2283.99 1180.2C2283.99 1181.88 2286.54 1183.25 2289.66 1183.25Z" fill="black"/>
<path fill-rule="evenodd" clip-rule="evenodd" d="M2269.05 1194.72C2267.48 1197.33 2264.98 1198.77 2263.47 1197.93C2261.95 1197.08 2261.99 1194.28 2263.56 1191.67C2265.12 1189.05 2267.62 1187.62 2269.14 1188.46C2270.66 1189.3 2270.61 1192.11 2269.05 1194.72Z" fill="black"/>
<path fill-rule="evenodd" clip-rule="evenodd" d="M2269.05 1217.65C2270.61 1220.27 2270.65 1223.07 2269.14 1223.91C2267.62 1224.75 2265.12 1223.32 2263.56 1220.71C2261.99 1218.09 2261.95 1215.29 2263.47 1214.45C2264.98 1213.6 2267.48 1215.04 2269.05 1217.65Z" fill="black"/>
<path fill-rule="evenodd" clip-rule="evenodd" d="M2289.66 1229.12C2292.79 1229.12 2295.33 1230.49 2295.33 1232.17C2295.33 1233.86 2292.79 1235.23 2289.66 1235.23C2286.53 1235.23 2283.99 1233.86 2283.99 1232.17C2283.99 1230.49 2286.53 1229.12 2289.66 1229.12Z" fill="black"/>
<path fill-rule="evenodd" clip-rule="evenodd" d="M2310.28 1217.65C2311.84 1215.04 2314.34 1213.6 2315.86 1214.45C2317.37 1215.29 2317.33 1218.09 2315.76 1220.71C2314.2 1223.32 2311.7 1224.75 2310.18 1223.91C2308.67 1223.07 2308.71 1220.27 2310.28 1217.65Z" fill="black"/>
<path fill-rule="evenodd" clip-rule="evenodd" d="M2310.28 1194.72C2308.71 1192.11 2308.67 1189.3 2310.18 1188.46C2311.7 1187.62 2314.2 1189.05 2315.76 1191.67C2317.33 1194.28 2317.37 1197.08 2315.86 1197.93C2314.34 1198.77 2311.84 1197.33 2310.28 1194.72Z" fill="black"/>
<path fill-rule="evenodd" clip-rule="evenodd" d="M2282.24 1196.27C2283.65 1196.27 2284.81 1195.15 2284.81 1193.79C2284.81 1192.42 2283.65 1191.31 2282.24 1191.31C2280.82 1191.31 2279.66 1192.42 2279.66 1193.79C2279.66 1195.16 2280.82 1196.27 2282.24 1196.27Z" fill="black"/>
<path fill-rule="evenodd" clip-rule="evenodd" d="M2274.81 1208.67C2276.22 1208.67 2277.38 1207.56 2277.38 1206.19C2277.38 1204.82 2276.22 1203.71 2274.81 1203.71C2273.39 1203.71 2272.23 1204.82 2272.23 1206.19C2272.23 1207.56 2273.39 1208.67 2274.81 1208.67Z" fill="black"/>
<path fill-rule="evenodd" clip-rule="evenodd" d="M2282.24 1221.06C2283.65 1221.06 2284.81 1219.95 2284.81 1218.58C2284.81 1217.22 2283.65 1216.1 2282.24 1216.1C2280.82 1216.1 2279.66 1217.22 2279.66 1218.58C2279.66 1219.95 2280.82 1221.06 2282.24 1221.06Z" fill="black"/>
<path fill-rule="evenodd" clip-rule="evenodd" d="M2297.09 1221.06C2298.51 1221.06 2299.67 1219.95 2299.67 1218.58C2299.67 1217.22 2298.51 1216.1 2297.09 1216.1C2295.67 1216.1 2294.52 1217.22 2294.52 1218.58C2294.52 1219.95 2295.67 1221.06 2297.09 1221.06Z" fill="black"/>
<path fill-rule="evenodd" clip-rule="evenodd" d="M2304.52 1208.67C2305.94 1208.67 2307.1 1207.55 2307.1 1206.19C2307.1 1204.82 2305.94 1203.71 2304.52 1203.71C2303.1 1203.71 2301.95 1204.82 2301.95 1206.19C2301.95 1207.55 2303.1 1208.67 2304.52 1208.67Z" fill="black"/>
<path fill-rule="evenodd" clip-rule="evenodd" d="M2297.09 1196.27C2298.51 1196.27 2299.67 1195.16 2299.67 1193.79C2299.67 1192.42 2298.51 1191.31 2297.09 1191.31C2295.67 1191.31 2294.52 1192.42 2294.52 1193.79C2294.52 1195.16 2295.67 1196.27 2297.09 1196.27Z" fill="black"/>
</svg>
