<svg width="3000" height="2000" viewBox="0 0 3000 2000" fill="none" xmlns="http://www.w3.org/2000/svg">
<path d="M1923.66 1115.63H1619.23V1225.35H1923.66V1115.63Z" fill="#2D2D2D"/>
<path d="M1267.54 1128H963.107V1237.72H1267.54V1128Z" fill="#2D2D2D"/>
<path fill-rule="evenodd" clip-rule="evenodd" d="M2067.93 1190.91H2060.35V1165.4H2051.49V1190.91V1216.42H2067.93V1190.91Z" fill="black"/>
<path fill-rule="evenodd" clip-rule="evenodd" d="M1678.82 1119.58H1099.06C1111.52 1122.91 1122.97 1129.54 1132.28 1138.99C1146.11 1153.04 1153.82 1171.93 1153.82 1191.8C1153.82 1206.36 1149.68 1220.39 1142.03 1232.37H1635.84C1628.19 1220.39 1624.06 1206.36 1624.06 1191.8C1624.06 1171.93 1631.76 1153.04 1645.6 1138.99C1654.9 1129.54 1666.36 1122.91 1678.82 1119.58Z" fill="#505050" stroke="black" stroke-width="10" stroke-miterlimit="22.9256" stroke-linecap="round" stroke-linejoin="round"/>
<path fill-rule="evenodd" clip-rule="evenodd" d="M1919.03 1232.38C1934.42 1220.83 1944.97 1205.14 1951.2 1185.77C1988.31 1181.49 2025.42 1177.2 2062.53 1172.92C2062.53 1161.02 2062.53 1131.48 2062.53 1119.58H1864.08C1876.54 1122.91 1888 1129.54 1897.3 1138.99C1911.13 1153.04 1918.84 1171.93 1918.84 1191.8C1918.84 1206.36 1914.7 1220.39 1907.06 1232.37H1919.03V1232.38Z" fill="#505050" stroke="black" stroke-width="10" stroke-miterlimit="22.9256" stroke-linecap="round" stroke-linejoin="round"/>
<path d="M2158.7 717H1149.32V1119.58H2158.7V717Z" fill="white" stroke="black" stroke-width="10" stroke-miterlimit="22.9256" stroke-linecap="round" stroke-linejoin="round"/>
<path fill-rule="evenodd" clip-rule="evenodd" d="M1018.51 1232.38H865.219C865.219 1170.65 865.219 1108.93 865.219 1047.2C890.649 987.542 916.076 927.881 941.504 868.22C942.609 865.626 944.988 864.038 947.773 864.038H1149.32C1149.27 959.628 1149.37 1023.99 1149.32 1119.58L1130.09 1136.86C1116.51 1124.15 1098.83 1117.12 1080.27 1117.12C1060.71 1117.12 1042.1 1124.94 1028.27 1138.99C1014.44 1153.04 1006.73 1171.93 1006.73 1191.81C1006.72 1206.36 1010.86 1220.39 1018.51 1232.38Z" fill="white" stroke="black" stroke-width="10" stroke-miterlimit="22.9256" stroke-linecap="round" stroke-linejoin="round"/>
<path fill-rule="evenodd" clip-rule="evenodd" d="M968.119 864.038C1013.06 807.121 1073.76 777.944 1149.36 774.979L1149.32 864.038H968.119Z" fill="white" stroke="black" stroke-width="10" stroke-miterlimit="22.9256" stroke-linecap="round" stroke-linejoin="round"/>
<path fill-rule="evenodd" clip-rule="evenodd" d="M887.445 1172H865.219V1117.86H877.883C883.149 1117.86 887.445 1122.22 887.445 1127.57V1172Z" fill="#C8C8C8" stroke="black" stroke-width="10" stroke-miterlimit="22.9256" stroke-linecap="round" stroke-linejoin="round"/>
<path fill-rule="evenodd" clip-rule="evenodd" d="M848.771 1172H887.446V1232.38H848.771C844.498 1232.38 841 1228.83 841 1224.49V1179.89C841 1175.55 844.498 1172 848.771 1172Z" fill="#505050" stroke="black" stroke-width="10" stroke-miterlimit="22.9256" stroke-linecap="round" stroke-linejoin="round"/>
<path fill-rule="evenodd" clip-rule="evenodd" d="M930.41 894.247L937.947 894.224C939.372 894.217 940.596 894.887 941.382 896.094C942.167 897.303 942.286 898.711 941.721 900.038L883.083 1037.61C882.172 1039.75 880.622 1041.25 878.473 1042.08L865.219 1047.2L930.41 894.247Z" fill="#C8C8C8" stroke="black" stroke-width="10" stroke-miterlimit="22.9256" stroke-linecap="round" stroke-linejoin="round"/>
<path fill-rule="evenodd" clip-rule="evenodd" d="M897.779 1041.54L960.602 894.153H1105.11V998.201L897.779 1041.54Z" fill="#C8C8C8" stroke="black" stroke-width="10" stroke-miterlimit="22.9256" stroke-linecap="round" stroke-linejoin="round"/>
<path fill-rule="evenodd" clip-rule="evenodd" d="M1105.11 998.201L897.779 1041.54V1172H984C993.044 1126.4 1032.71 1092.07 1080.27 1092.07H1105.11V998.201Z" fill="white" stroke="black" stroke-width="10" stroke-miterlimit="22.9256" stroke-linecap="round" stroke-linejoin="round"/>
<path fill-rule="evenodd" clip-rule="evenodd" d="M1043.09 1061.83H1070.45C1072.31 1061.83 1073.83 1063.37 1073.83 1065.26V1073.96C1073.83 1075.85 1072.31 1077.39 1070.45 1077.39H1043.09C1041.23 1077.39 1039.71 1075.85 1039.71 1073.96V1065.26C1039.72 1063.37 1041.23 1061.83 1043.09 1061.83Z" fill="black"/>
<path d="M992.259 1120.23H915.285C913.991 1120.23 912.945 1119.17 912.945 1117.86C912.945 1116.54 913.991 1115.48 915.285 1115.48H992.259C993.553 1115.48 994.599 1116.54 994.599 1117.86C994.599 1119.17 993.553 1120.23 992.259 1120.23Z" fill="black"/>
<path fill-rule="evenodd" clip-rule="evenodd" d="M1128.17 1117.87C1131.27 1117.87 1133.81 1116.02 1133.81 1113.76C1133.81 1111.49 1131.27 1109.64 1128.17 1109.64C1125.06 1109.64 1122.54 1111.49 1122.54 1113.76C1122.54 1116.02 1125.07 1117.87 1128.17 1117.87Z" fill="#F58220"/>
<path d="M977.873 1214.4H903.908C902.614 1214.4 901.568 1213.34 901.568 1212.03V1206.42C901.568 1205.11 902.614 1204.05 903.908 1204.05C905.201 1204.05 906.247 1205.11 906.247 1206.42V1209.65H975.534V1206.42C975.534 1205.11 976.58 1204.05 977.873 1204.05C979.167 1204.05 980.213 1205.11 980.213 1206.42V1212.03C980.213 1213.34 979.163 1214.4 977.873 1214.4Z" fill="black"/>
<path fill-rule="evenodd" clip-rule="evenodd" d="M1080.28 1260.98C1117.79 1260.98 1148.39 1229.91 1148.39 1191.81C1148.39 1153.71 1117.79 1122.63 1080.28 1122.63C1042.76 1122.63 1012.16 1153.71 1012.16 1191.81C1012.16 1229.9 1042.76 1260.98 1080.28 1260.98Z" fill="black"/>
<path fill-rule="evenodd" clip-rule="evenodd" d="M1080.28 1238.13C1105.4 1238.13 1125.89 1217.32 1125.89 1191.8C1125.89 1166.29 1105.4 1145.48 1080.28 1145.48C1055.15 1145.48 1034.66 1166.29 1034.66 1191.8C1034.66 1217.32 1055.15 1238.13 1080.28 1238.13Z" fill="white"/>
<path fill-rule="evenodd" clip-rule="evenodd" d="M1080.27 1207.32C1088.69 1207.32 1095.55 1200.35 1095.55 1191.81C1095.55 1183.27 1088.69 1176.3 1080.27 1176.3C1071.86 1176.3 1065 1183.27 1065 1191.81C1065 1200.35 1071.86 1207.32 1080.27 1207.32Z" fill="black"/>
<path fill-rule="evenodd" clip-rule="evenodd" d="M1080.28 1199.29C1084.34 1199.29 1087.65 1195.93 1087.65 1191.8C1087.65 1187.68 1084.34 1184.32 1080.28 1184.32C1076.21 1184.32 1072.9 1187.68 1072.9 1191.8C1072.9 1195.93 1076.21 1199.29 1080.28 1199.29Z" fill="white" stroke="black" stroke-width="10" stroke-miterlimit="22.9256" stroke-linecap="round" stroke-linejoin="round"/>
<path d="M1080.27 1234.04C1103.24 1234.04 1121.86 1215.13 1121.86 1191.81C1121.86 1168.48 1103.24 1149.57 1080.27 1149.57C1057.31 1149.57 1038.69 1168.48 1038.69 1191.81C1038.69 1215.13 1057.31 1234.04 1080.27 1234.04Z" stroke="black" stroke-width="10" stroke-miterlimit="22.9256" stroke-linecap="round" stroke-linejoin="round"/>
<path fill-rule="evenodd" clip-rule="evenodd" d="M1080.27 1161.77C1084.16 1161.77 1087.32 1159.97 1087.32 1157.77C1087.32 1155.57 1084.16 1153.77 1080.27 1153.77C1076.39 1153.77 1073.23 1155.57 1073.23 1157.77C1073.23 1159.97 1076.39 1161.77 1080.27 1161.77Z" fill="black"/>
<path fill-rule="evenodd" clip-rule="evenodd" d="M1054.66 1176.79C1052.71 1180.21 1049.6 1182.09 1047.72 1180.99C1045.84 1179.89 1045.89 1176.21 1047.84 1172.79C1049.79 1169.37 1052.89 1167.49 1054.77 1168.59C1056.66 1169.69 1056.6 1173.36 1054.66 1176.79Z" fill="black"/>
<path fill-rule="evenodd" clip-rule="evenodd" d="M1054.66 1206.83C1056.6 1210.25 1056.65 1213.92 1054.77 1215.03C1052.89 1216.13 1049.79 1214.25 1047.84 1210.83C1045.89 1207.4 1045.84 1203.73 1047.72 1202.63C1049.61 1201.52 1052.71 1203.4 1054.66 1206.83Z" fill="black"/>
<path fill-rule="evenodd" clip-rule="evenodd" d="M1080.27 1221.85C1084.17 1221.85 1087.32 1223.64 1087.32 1225.84C1087.32 1228.05 1084.17 1229.84 1080.27 1229.84C1076.38 1229.84 1073.22 1228.05 1073.22 1225.84C1073.22 1223.64 1076.38 1221.85 1080.27 1221.85Z" fill="black"/>
<path fill-rule="evenodd" clip-rule="evenodd" d="M1105.89 1206.83C1107.83 1203.4 1110.94 1201.52 1112.82 1202.63C1114.7 1203.73 1114.66 1207.4 1112.71 1210.83C1110.76 1214.25 1107.66 1216.13 1105.78 1215.03C1103.89 1213.92 1103.94 1210.25 1105.89 1206.83Z" fill="black"/>
<path fill-rule="evenodd" clip-rule="evenodd" d="M1105.89 1176.79C1103.94 1173.36 1103.89 1169.69 1105.77 1168.59C1107.65 1167.49 1110.76 1169.37 1112.7 1172.79C1114.65 1176.22 1114.7 1179.89 1112.82 1180.99C1110.94 1182.09 1107.83 1180.21 1105.89 1176.79Z" fill="black"/>
<path fill-rule="evenodd" clip-rule="evenodd" d="M1069.87 1176.39C1071.43 1176.39 1072.71 1175.1 1072.71 1173.51C1072.71 1171.93 1071.43 1170.64 1069.87 1170.64C1068.31 1170.64 1067.04 1171.93 1067.04 1173.51C1067.04 1175.1 1068.31 1176.39 1069.87 1176.39Z" fill="black"/>
<path d="M1059.47 1194.68C1061.04 1194.68 1062.3 1193.4 1062.3 1191.81C1062.3 1190.22 1061.04 1188.93 1059.47 1188.93C1057.91 1188.93 1056.64 1190.22 1056.64 1191.81C1056.64 1193.4 1057.91 1194.68 1059.47 1194.68Z" fill="black"/>
<path fill-rule="evenodd" clip-rule="evenodd" d="M1069.87 1212.97C1071.43 1212.97 1072.71 1211.68 1072.71 1210.1C1072.71 1208.51 1071.43 1207.22 1069.87 1207.22C1068.31 1207.22 1067.04 1208.51 1067.04 1210.1C1067.04 1211.68 1068.31 1212.97 1069.87 1212.97Z" fill="black"/>
<path d="M1090.67 1212.97C1092.24 1212.97 1093.5 1211.69 1093.5 1210.1C1093.5 1208.51 1092.24 1207.22 1090.67 1207.22C1089.11 1207.22 1087.84 1208.51 1087.84 1210.1C1087.84 1211.69 1089.11 1212.97 1090.67 1212.97Z" fill="black"/>
<path fill-rule="evenodd" clip-rule="evenodd" d="M1101.07 1194.68C1102.63 1194.68 1103.9 1193.39 1103.9 1191.8C1103.9 1190.22 1102.63 1188.93 1101.07 1188.93C1099.51 1188.93 1098.24 1190.22 1098.24 1191.8C1098.24 1193.39 1099.51 1194.68 1101.07 1194.68Z" fill="black"/>
<path fill-rule="evenodd" clip-rule="evenodd" d="M1090.67 1176.39C1092.23 1176.39 1093.5 1175.1 1093.5 1173.52C1093.5 1171.94 1092.23 1170.64 1090.67 1170.64C1089.11 1170.64 1087.84 1171.93 1087.84 1173.52C1087.84 1175.1 1089.11 1176.39 1090.67 1176.39Z" fill="black"/>
<path d="M1697.6 1260.98C1735.22 1260.98 1765.72 1230.01 1765.72 1191.81C1765.72 1153.6 1735.22 1122.63 1697.6 1122.63C1659.98 1122.63 1629.49 1153.6 1629.49 1191.81C1629.49 1230.01 1659.98 1260.98 1697.6 1260.98Z" fill="black"/>
<path d="M1697.6 1232.23C1719.59 1232.23 1737.41 1214.13 1737.41 1191.81C1737.41 1169.48 1719.59 1151.38 1697.6 1151.38C1675.62 1151.38 1657.8 1169.48 1657.8 1191.81C1657.8 1214.13 1675.62 1232.23 1697.6 1232.23Z" fill="white"/>
<path fill-rule="evenodd" clip-rule="evenodd" d="M1697.6 1228.72C1717.62 1228.72 1733.95 1212.14 1733.95 1191.81C1733.95 1171.47 1717.62 1154.89 1697.6 1154.89C1677.58 1154.89 1661.25 1171.48 1661.25 1191.81C1661.25 1212.14 1677.58 1228.72 1697.6 1228.72Z" stroke="black" stroke-width="10" stroke-miterlimit="22.9256" stroke-linecap="round" stroke-linejoin="round"/>
<path fill-rule="evenodd" clip-rule="evenodd" d="M1697.6 1202.56C1703.43 1202.56 1708.19 1197.73 1708.19 1191.8C1708.19 1185.88 1703.44 1181.05 1697.6 1181.05C1691.77 1181.05 1687.02 1185.88 1687.02 1191.8C1687.02 1197.73 1691.77 1202.56 1697.6 1202.56Z" fill="black"/>
<path fill-rule="evenodd" clip-rule="evenodd" d="M1697.6 1166.35C1700.89 1166.35 1703.58 1164.83 1703.58 1162.97C1703.58 1161.1 1700.89 1159.58 1697.6 1159.58C1694.31 1159.58 1691.63 1161.1 1691.63 1162.97C1691.63 1164.83 1694.31 1166.35 1697.6 1166.35Z" fill="black"/>
<path fill-rule="evenodd" clip-rule="evenodd" d="M1675.9 1179.08C1674.25 1181.98 1671.62 1183.57 1670.02 1182.64C1668.43 1181.7 1668.47 1178.59 1670.12 1175.69C1671.77 1172.79 1674.4 1171.2 1675.99 1172.13C1677.59 1173.07 1677.55 1176.18 1675.9 1179.08Z" fill="black"/>
<path fill-rule="evenodd" clip-rule="evenodd" d="M1675.9 1204.53C1677.55 1207.44 1677.59 1210.55 1675.99 1211.48C1674.4 1212.42 1671.77 1210.82 1670.12 1207.92C1668.47 1205.02 1668.42 1201.91 1670.02 1200.98C1671.62 1200.04 1674.25 1201.63 1675.9 1204.53Z" fill="black"/>
<path fill-rule="evenodd" clip-rule="evenodd" d="M1697.6 1217.26C1700.9 1217.26 1703.58 1218.78 1703.58 1220.65C1703.58 1222.52 1700.9 1224.03 1697.6 1224.03C1694.3 1224.03 1691.63 1222.52 1691.63 1220.65C1691.63 1218.78 1694.3 1217.26 1697.6 1217.26Z" fill="black"/>
<path fill-rule="evenodd" clip-rule="evenodd" d="M1719.31 1204.53C1720.96 1201.63 1723.59 1200.04 1725.19 1200.98C1726.78 1201.91 1726.74 1205.02 1725.09 1207.92C1723.44 1210.82 1720.81 1212.42 1719.21 1211.48C1717.62 1210.54 1717.66 1207.43 1719.31 1204.53Z" fill="black"/>
<path fill-rule="evenodd" clip-rule="evenodd" d="M1719.31 1179.08C1717.66 1176.18 1717.62 1173.07 1719.21 1172.13C1720.81 1171.2 1723.44 1172.79 1725.09 1175.69C1726.74 1178.59 1726.78 1181.7 1725.19 1182.64C1723.59 1183.57 1720.96 1181.98 1719.31 1179.08Z" fill="black"/>
<path fill-rule="evenodd" clip-rule="evenodd" d="M1689.78 1180.8C1691.28 1180.8 1692.5 1179.57 1692.5 1178.05C1692.5 1176.53 1691.28 1175.29 1689.78 1175.29C1688.29 1175.29 1687.07 1176.53 1687.07 1178.05C1687.07 1179.57 1688.29 1180.8 1689.78 1180.8Z" fill="black"/>
<path fill-rule="evenodd" clip-rule="evenodd" d="M1681.96 1194.56C1683.46 1194.56 1684.67 1193.33 1684.67 1191.81C1684.67 1190.29 1683.46 1189.05 1681.96 1189.05C1680.47 1189.05 1679.25 1190.29 1679.25 1191.81C1679.25 1193.33 1680.47 1194.56 1681.96 1194.56Z" fill="black"/>
<path fill-rule="evenodd" clip-rule="evenodd" d="M1689.78 1208.32C1691.28 1208.32 1692.5 1207.08 1692.5 1205.56C1692.5 1204.05 1691.28 1202.81 1689.78 1202.81C1688.29 1202.81 1687.07 1204.05 1687.07 1205.56C1687.07 1207.08 1688.29 1208.32 1689.78 1208.32Z" fill="black"/>
<path fill-rule="evenodd" clip-rule="evenodd" d="M1705.43 1208.32C1706.92 1208.32 1708.14 1207.08 1708.14 1205.56C1708.14 1204.05 1706.92 1202.81 1705.43 1202.81C1703.93 1202.81 1702.71 1204.05 1702.71 1205.56C1702.71 1207.08 1703.93 1208.32 1705.43 1208.32Z" fill="black"/>
<path fill-rule="evenodd" clip-rule="evenodd" d="M1713.25 1194.56C1714.74 1194.56 1715.96 1193.32 1715.96 1191.8C1715.96 1190.29 1714.74 1189.05 1713.25 1189.05C1711.75 1189.05 1710.54 1190.29 1710.54 1191.8C1710.54 1193.32 1711.75 1194.56 1713.25 1194.56Z" fill="black"/>
<path fill-rule="evenodd" clip-rule="evenodd" d="M1705.43 1180.8C1706.92 1180.8 1708.14 1179.57 1708.14 1178.05C1708.14 1176.53 1706.92 1175.29 1705.43 1175.29C1703.93 1175.29 1702.71 1176.53 1702.71 1178.05C1702.71 1179.57 1703.93 1180.8 1705.43 1180.8Z" fill="black"/>
<path d="M1908.36 1218.05C1922.67 1182.72 1906.06 1142.3 1871.27 1127.77C1836.48 1113.24 1796.67 1130.11 1782.37 1165.44C1768.06 1200.78 1784.67 1241.2 1819.46 1255.73C1854.25 1270.26 1894.06 1253.39 1908.36 1218.05Z" fill="black"/>
<path fill-rule="evenodd" clip-rule="evenodd" d="M1845.3 1232.23C1867.22 1232.23 1885.1 1214.07 1885.1 1191.8C1885.1 1169.54 1867.22 1151.38 1845.3 1151.38C1823.37 1151.38 1805.49 1169.54 1805.49 1191.8C1805.49 1214.07 1823.37 1232.23 1845.3 1232.23Z" fill="white"/>
<path fill-rule="evenodd" clip-rule="evenodd" d="M1845.29 1228.72C1865.32 1228.72 1881.64 1212.14 1881.64 1191.81C1881.64 1171.47 1865.31 1154.89 1845.29 1154.89C1825.27 1154.89 1808.95 1171.48 1808.95 1191.81C1808.95 1212.14 1825.27 1228.72 1845.29 1228.72Z" stroke="black" stroke-width="10" stroke-miterlimit="22.9256" stroke-linecap="round" stroke-linejoin="round"/>
<path fill-rule="evenodd" clip-rule="evenodd" d="M1845.3 1202.56C1851.13 1202.56 1855.88 1197.73 1855.88 1191.8C1855.88 1185.88 1851.13 1181.05 1845.3 1181.05C1839.47 1181.05 1834.71 1185.88 1834.71 1191.8C1834.71 1197.72 1839.46 1202.56 1845.3 1202.56Z" fill="black"/>
<path fill-rule="evenodd" clip-rule="evenodd" d="M1845.29 1166.35C1848.58 1166.35 1851.27 1164.83 1851.27 1162.97C1851.27 1161.1 1848.58 1159.58 1845.29 1159.58C1842 1159.58 1839.32 1161.1 1839.32 1162.97C1839.32 1164.83 1842 1166.35 1845.29 1166.35Z" fill="black"/>
<path fill-rule="evenodd" clip-rule="evenodd" d="M1823.59 1179.08C1821.94 1181.98 1819.31 1183.57 1817.71 1182.64C1816.12 1181.7 1816.16 1178.59 1817.8 1175.69C1819.45 1172.79 1822.08 1171.2 1823.68 1172.13C1825.28 1173.07 1825.24 1176.18 1823.59 1179.08Z" fill="black"/>
<path fill-rule="evenodd" clip-rule="evenodd" d="M1823.59 1204.53C1825.24 1207.44 1825.28 1210.55 1823.68 1211.48C1822.09 1212.42 1819.45 1210.82 1817.81 1207.92C1816.16 1205.02 1816.11 1201.91 1817.71 1200.98C1819.31 1200.04 1821.94 1201.63 1823.59 1204.53Z" fill="black"/>
<path fill-rule="evenodd" clip-rule="evenodd" d="M1845.29 1217.26C1848.59 1217.26 1851.26 1218.78 1851.26 1220.65C1851.26 1222.52 1848.59 1224.03 1845.29 1224.03C1841.99 1224.03 1839.32 1222.52 1839.32 1220.65C1839.32 1218.78 1841.99 1217.26 1845.29 1217.26Z" fill="black"/>
<path fill-rule="evenodd" clip-rule="evenodd" d="M1867 1204.53C1868.65 1201.63 1871.28 1200.04 1872.87 1200.98C1874.47 1201.91 1874.43 1205.02 1872.78 1207.92C1871.13 1210.82 1868.5 1212.42 1866.9 1211.48C1865.31 1210.54 1865.35 1207.43 1867 1204.53Z" fill="black"/>
<path fill-rule="evenodd" clip-rule="evenodd" d="M1867 1179.08C1865.35 1176.18 1865.3 1173.07 1866.9 1172.13C1868.49 1171.2 1871.13 1172.79 1872.77 1175.69C1874.42 1178.59 1874.47 1181.7 1872.87 1182.64C1871.28 1183.57 1868.65 1181.98 1867 1179.08Z" fill="black"/>
<path fill-rule="evenodd" clip-rule="evenodd" d="M1837.47 1180.8C1838.97 1180.8 1840.18 1179.57 1840.18 1178.05C1840.18 1176.53 1838.97 1175.29 1837.47 1175.29C1835.98 1175.29 1834.76 1176.53 1834.76 1178.05C1834.76 1179.57 1835.98 1180.8 1837.47 1180.8Z" fill="black"/>
<path fill-rule="evenodd" clip-rule="evenodd" d="M1829.65 1194.56C1831.15 1194.56 1832.36 1193.33 1832.36 1191.81C1832.36 1190.29 1831.15 1189.05 1829.65 1189.05C1828.16 1189.05 1826.94 1190.29 1826.94 1191.81C1826.94 1193.33 1828.16 1194.56 1829.65 1194.56Z" fill="black"/>
<path fill-rule="evenodd" clip-rule="evenodd" d="M1837.47 1208.32C1838.97 1208.32 1840.18 1207.08 1840.18 1205.56C1840.18 1204.05 1838.97 1202.81 1837.47 1202.81C1835.98 1202.81 1834.76 1204.05 1834.76 1205.56C1834.76 1207.08 1835.98 1208.32 1837.47 1208.32Z" fill="black"/>
<path fill-rule="evenodd" clip-rule="evenodd" d="M1853.12 1208.32C1854.61 1208.32 1855.83 1207.08 1855.83 1205.56C1855.83 1204.05 1854.61 1202.81 1853.12 1202.81C1851.62 1202.81 1850.4 1204.05 1850.4 1205.56C1850.4 1207.08 1851.62 1208.32 1853.12 1208.32Z" fill="black"/>
<path fill-rule="evenodd" clip-rule="evenodd" d="M1860.94 1194.56C1862.43 1194.56 1863.65 1193.32 1863.65 1191.8C1863.65 1190.29 1862.43 1189.05 1860.94 1189.05C1859.44 1189.05 1858.22 1190.29 1858.22 1191.8C1858.22 1193.32 1859.44 1194.56 1860.94 1194.56Z" fill="black"/>
<path d="M1853.12 1180.81C1854.61 1180.81 1855.83 1179.57 1855.83 1178.05C1855.83 1176.53 1854.61 1175.3 1853.12 1175.3C1851.62 1175.3 1850.4 1176.53 1850.4 1178.05C1850.4 1179.57 1851.62 1180.81 1853.12 1180.81Z" fill="black"/>
<path d="M913.767 1053.38C912.474 1053.38 911.428 1052.31 911.428 1051V899.444C911.428 895.215 914.813 891.777 918.977 891.777H960.603C961.896 891.777 962.942 892.84 962.942 894.153C962.942 895.467 961.896 896.529 960.603 896.529H918.977C917.42 896.529 916.107 897.866 916.107 899.444V1051C916.107 1052.31 915.057 1053.38 913.767 1053.38Z" fill="black"/>
<path fill-rule="evenodd" clip-rule="evenodd" d="M911.826 939.174H917.178C918.188 939.174 919.006 940.008 919.006 941.03V949.14C919.006 950.162 918.185 950.996 917.178 950.996H911.826C910.82 950.996 909.998 950.162 909.998 949.14V941.03C909.998 940.008 910.823 939.174 911.826 939.174Z" fill="black"/>
<path fill-rule="evenodd" clip-rule="evenodd" d="M926.122 906.753C929.738 906.753 930.632 914.179 930.632 921.343V969.55C930.632 976.715 929.738 984.141 926.122 984.141C916.642 984.141 916.642 906.753 926.122 906.753Z" fill="#505050" stroke="black" stroke-width="10" stroke-miterlimit="22.9256" stroke-linecap="round" stroke-linejoin="round"/>
<path fill-rule="evenodd" clip-rule="evenodd" d="M926.122 995.38C929.738 995.38 930.632 998.258 930.632 1001.03V1019.71C930.632 1022.49 929.738 1025.37 926.122 1025.37C916.642 1025.37 916.642 995.38 926.122 995.38Z" fill="#505050" stroke="black" stroke-width="10" stroke-miterlimit="22.9256" stroke-linecap="round" stroke-linejoin="round"/>
<path fill-rule="evenodd" clip-rule="evenodd" d="M960.603 898.821C963.134 898.821 965.196 896.724 965.196 894.157C965.196 891.587 963.13 889.492 960.603 889.492C958.072 889.492 956.01 891.59 956.01 894.157C956.01 896.724 958.072 898.821 960.603 898.821Z" fill="black"/>
<path fill-rule="evenodd" clip-rule="evenodd" d="M911.826 1004.46H917.178C918.188 1004.46 919.006 1005.3 919.006 1006.32V1014.43C919.006 1015.45 918.185 1016.28 917.178 1016.28H911.826C910.82 1016.28 909.998 1015.45 909.998 1014.43V1006.32C909.998 1005.3 910.823 1004.46 911.826 1004.46Z" fill="black"/>
<path fill-rule="evenodd" clip-rule="evenodd" d="M913.767 1055.66C916.298 1055.66 918.36 1053.57 918.36 1051C918.36 1048.43 916.295 1046.33 913.767 1046.33C911.236 1046.33 909.174 1048.43 909.174 1051C909.171 1053.57 911.236 1055.66 913.767 1055.66Z" fill="black"/>
</svg>
