<svg width="3000" height="2000" viewBox="0 0 3000 2000" fill="none" xmlns="http://www.w3.org/2000/svg">
<path fill-rule="evenodd" clip-rule="evenodd" d="M1202.9 820.249C1490.18 820.249 1790.63 820.249 2077.91 820.249C2072.89 792.478 2067.88 764.706 2062.86 736.934C2062.24 733.465 2059.28 731 2055.76 731C1809.43 731 1550.97 731 1304.23 731C1291.69 731 1280.9 735.727 1272.4 744.942C1249.23 770.044 1226.06 795.147 1202.9 820.249Z" fill="white" stroke="black" stroke-width="10" stroke-miterlimit="22.9256" stroke-linecap="round" stroke-linejoin="round"/>
<path d="M1958.56 1095.97H1757.68V1233.83H1958.56V1095.97Z" fill="#2D2D2D"/>
<path d="M1195.11 1095.97H994.23V1233.83H1195.11V1095.97Z" fill="#2D2D2D"/>
<path fill-rule="evenodd" clip-rule="evenodd" d="M1024.25 1242.24L941.236 1242.24C938.689 1238.16 936.142 1234.08 933.595 1229.99C926.011 1224.22 918.427 1218.45 910.847 1212.68C908.993 1211.26 908 1209.26 908 1206.93C908 1193.08 908 1179.23 908 1165.39C908 1161.41 911.245 1158.17 915.218 1158.17H1014.8C1010.38 1168.69 1008.04 1180.08 1008.04 1191.78C1008.04 1210.06 1013.75 1227.62 1024.25 1242.24Z" fill="#505050" stroke="black" stroke-width="10" stroke-miterlimit="22.9256" stroke-linecap="round" stroke-linejoin="round"/>
<path fill-rule="evenodd" clip-rule="evenodd" d="M1014.8 1158.18L918.68 1158.17C922.199 1136.87 925.724 1115.58 929.244 1094.28C930.105 1089.07 932.468 1084.86 936.467 1081.41C978.035 1045.55 1019.6 1009.69 1061.18 973.834L1202.9 820.254C1494.57 820.254 1786.24 820.254 2077.91 820.254C2081.89 820.254 2085.15 823.514 2085.15 827.498C2085.15 937.724 2085.15 1047.95 2085.15 1158.18H1937.99C1933.69 1147.95 1927.41 1138.55 1919.38 1130.52C1903.09 1114.23 1881.17 1105.15 1858.13 1105.15C1835.08 1105.15 1813.16 1114.23 1796.87 1130.52C1780.57 1146.82 1771.49 1168.73 1771.49 1191.78C1771.49 1210.07 1777.21 1227.64 1787.7 1242.25H1165.09C1175.59 1227.64 1181.3 1210.07 1181.3 1191.78C1181.3 1168.74 1172.22 1146.82 1155.93 1130.52C1139.63 1114.23 1117.72 1105.15 1094.67 1105.15C1071.62 1105.15 1049.71 1114.23 1033.41 1130.52C1025.38 1138.55 1019.1 1147.95 1014.8 1158.18Z" fill="white" stroke="black" stroke-width="10" stroke-miterlimit="22.9256" stroke-linecap="round" stroke-linejoin="round"/>
<path fill-rule="evenodd" clip-rule="evenodd" d="M1086.72 973.834H1373.14V840.467C1373.14 839.968 1373.07 839.484 1372.95 839.026H1211.12L1086.72 973.834Z" fill="#C8C8C8" stroke="black" stroke-width="10" stroke-miterlimit="22.9256" stroke-linecap="round" stroke-linejoin="round"/>
<path fill-rule="evenodd" clip-rule="evenodd" d="M2085.15 1158.17H1937.99C1942.42 1168.69 1944.75 1180.08 1944.75 1191.78C1944.75 1209.85 1939.16 1227.23 1928.89 1241.75L2058.63 1235.01C2061.09 1234.88 2063.16 1233.65 2064.43 1231.53C2073.74 1216.12 2105.91 1158.17 2085.15 1158.17Z" fill="#505050" stroke="black" stroke-width="10" stroke-miterlimit="22.9256" stroke-linecap="round" stroke-linejoin="round"/>
<path fill-rule="evenodd" clip-rule="evenodd" d="M918.68 1158.17C921.379 1141.84 924.079 1125.51 926.784 1109.18C931.001 1109.18 935.219 1109.18 939.436 1109.18C941.611 1109.18 943.424 1110.75 943.725 1112.91C945.844 1127.99 947.958 1143.08 950.077 1158.17C939.609 1158.17 929.142 1158.17 918.68 1158.17Z" fill="#C8C8C8" stroke="black" stroke-width="10" stroke-miterlimit="22.9256" stroke-linecap="round" stroke-linejoin="round"/>
<path fill-rule="evenodd" clip-rule="evenodd" d="M1373.14 973.834H1086.72V1073.31C1086.72 1076.47 1089.27 1079.05 1092.43 1079.08C1103.09 1079.21 1112.93 1079.86 1124.67 1083.1C1172.35 1096.23 1207.38 1139.91 1207.38 1191.78C1207.38 1193.41 1207.38 1195.04 1207.38 1196.68C1207.38 1199.86 1209.97 1202.46 1213.16 1202.46H1367.37C1370.55 1202.46 1373.14 1199.86 1373.14 1196.68C1373.14 1122.39 1373.14 1048.11 1373.14 973.834Z" fill="white" stroke="black" stroke-width="10" stroke-miterlimit="22.9256" stroke-linecap="round" stroke-linejoin="round"/>
<path fill-rule="evenodd" clip-rule="evenodd" d="M1347.69 1012.66H1354.11C1356.6 1012.66 1358.64 1014.69 1358.64 1017.18V1050.31C1358.64 1052.79 1356.6 1054.83 1354.11 1054.83H1347.69C1345.21 1054.83 1343.17 1052.8 1343.17 1050.31V1017.18C1343.17 1014.69 1345.21 1012.66 1347.69 1012.66Z" fill="black"/>
<path fill-rule="evenodd" clip-rule="evenodd" d="M1041.13 1043.32H1049.5C1052.84 1043.32 1055.57 1046.05 1055.57 1049.39C1055.57 1052.72 1052.84 1055.45 1049.5 1055.45H1041.13C1037.79 1055.45 1035.06 1052.72 1035.06 1049.39C1035.06 1046.05 1037.79 1043.32 1041.13 1043.32Z" fill="#F58220"/>
<path d="M2055.58 1037.36H1402.71C1400.71 1037.36 1399.09 1035.75 1399.09 1033.75C1399.09 1031.75 1400.71 1030.14 1402.71 1030.14H2055.58C2057.57 1030.14 2059.19 1031.75 2059.19 1033.75C2059.19 1035.75 2057.57 1037.36 2055.58 1037.36Z" fill="black"/>
<path fill-rule="evenodd" clip-rule="evenodd" d="M2085.15 1089.4H2066.04C2063.16 1089.4 2060.82 1091.75 2060.82 1094.63V1158.17H2085.15V1089.4Z" fill="#ED1C24" stroke="black" stroke-width="10" stroke-miterlimit="22.9256" stroke-linecap="round" stroke-linejoin="round"/>
<path fill-rule="evenodd" clip-rule="evenodd" d="M1122.25 973.834H1086.72L1122.25 935.33V973.834Z" fill="black" stroke="black" stroke-width="10" stroke-miterlimit="22.9256" stroke-linecap="round" stroke-linejoin="round"/>
<path fill-rule="evenodd" clip-rule="evenodd" d="M1094.68 1269.38C1137.42 1269.38 1172.28 1234.52 1172.28 1191.78C1172.28 1149.03 1137.42 1114.17 1094.68 1114.17C1051.93 1114.17 1017.07 1149.03 1017.07 1191.78C1017.07 1234.52 1051.93 1269.38 1094.68 1269.38Z" fill="black"/>
<path fill-rule="evenodd" clip-rule="evenodd" d="M1094.67 1241.76C1122.21 1241.76 1144.66 1219.31 1144.66 1191.77C1144.66 1164.24 1122.21 1141.78 1094.67 1141.78C1067.14 1141.78 1044.69 1164.24 1044.69 1191.77C1044.69 1219.31 1067.14 1241.76 1094.67 1241.76Z" fill="white" stroke="black" stroke-width="10" stroke-miterlimit="22.9256"/>
<path fill-rule="evenodd" clip-rule="evenodd" d="M1094.68 1235.52C1118.77 1235.52 1138.42 1215.87 1138.42 1191.77C1138.42 1167.68 1118.77 1148.03 1094.68 1148.03C1070.58 1148.03 1050.93 1167.68 1050.93 1191.77C1050.93 1215.87 1070.58 1235.52 1094.68 1235.52Z" stroke="black" stroke-width="10" stroke-miterlimit="22.9256" stroke-linecap="round" stroke-linejoin="round"/>
<path fill-rule="evenodd" clip-rule="evenodd" d="M1094.68 1216.35C1108.21 1216.35 1119.25 1205.31 1119.25 1191.77C1119.25 1178.24 1108.21 1167.19 1094.68 1167.19C1081.14 1167.19 1070.09 1178.24 1070.09 1191.77C1070.09 1205.31 1081.14 1216.35 1094.68 1216.35Z" stroke="black" stroke-width="10" stroke-miterlimit="22.9256" stroke-linecap="round" stroke-linejoin="round"/>
<path fill-rule="evenodd" clip-rule="evenodd" d="M1094.68 1180.47C1096.7 1180.47 1098.35 1178.82 1098.35 1176.8C1098.35 1174.79 1096.7 1173.14 1094.68 1173.14C1092.66 1173.14 1091.01 1174.79 1091.01 1176.8C1091.01 1178.83 1092.66 1180.47 1094.68 1180.47Z" fill="black"/>
<path fill-rule="evenodd" clip-rule="evenodd" d="M1080.54 1190.75C1082.56 1190.75 1084.21 1189.1 1084.21 1187.08C1084.21 1185.06 1082.56 1183.41 1080.54 1183.41C1078.52 1183.41 1076.87 1185.06 1076.87 1187.08C1076.87 1189.1 1078.52 1190.75 1080.54 1190.75Z" fill="black"/>
<path fill-rule="evenodd" clip-rule="evenodd" d="M1085.94 1207.36C1087.95 1207.36 1089.6 1205.72 1089.6 1203.69C1089.6 1201.67 1087.96 1200.03 1085.94 1200.03C1083.92 1200.03 1082.27 1201.67 1082.27 1203.69C1082.27 1205.72 1083.92 1207.36 1085.94 1207.36Z" fill="black"/>
<path fill-rule="evenodd" clip-rule="evenodd" d="M1103.41 1207.36C1105.43 1207.36 1107.08 1205.72 1107.08 1203.69C1107.08 1201.67 1105.44 1200.03 1103.41 1200.03C1101.39 1200.03 1099.75 1201.67 1099.75 1203.69C1099.75 1205.72 1101.39 1207.36 1103.41 1207.36Z" fill="black"/>
<path fill-rule="evenodd" clip-rule="evenodd" d="M1108.81 1190.75C1110.83 1190.75 1112.48 1189.1 1112.48 1187.08C1112.48 1185.06 1110.83 1183.41 1108.81 1183.41C1106.79 1183.41 1105.14 1185.06 1105.14 1187.08C1105.14 1189.1 1106.79 1190.75 1108.81 1190.75Z" fill="black"/>
<path fill-rule="evenodd" clip-rule="evenodd" d="M1094.67 1162.51C1097.42 1162.51 1099.66 1160.26 1099.66 1157.52C1099.66 1154.77 1097.42 1152.53 1094.67 1152.53C1091.93 1152.53 1089.69 1154.77 1089.69 1157.52C1089.68 1160.26 1091.92 1162.51 1094.67 1162.51Z" fill="black"/>
<path fill-rule="evenodd" clip-rule="evenodd" d="M1074.54 1169.05C1077.28 1169.05 1079.52 1166.8 1079.52 1164.06C1079.52 1161.31 1077.28 1159.07 1074.54 1159.07C1071.79 1159.07 1069.55 1161.31 1069.55 1164.06C1069.55 1166.81 1071.79 1169.05 1074.54 1169.05Z" fill="black"/>
<path d="M1062.1 1186.18C1064.85 1186.18 1067.08 1183.94 1067.08 1181.19C1067.08 1178.44 1064.85 1176.2 1062.1 1176.2C1059.34 1176.2 1057.11 1178.44 1057.11 1181.19C1057.11 1183.94 1059.34 1186.18 1062.1 1186.18Z" fill="black"/>
<path fill-rule="evenodd" clip-rule="evenodd" d="M1062.1 1207.35C1064.84 1207.35 1067.08 1205.11 1067.08 1202.36C1067.08 1199.61 1064.84 1197.37 1062.1 1197.37C1059.35 1197.37 1057.11 1199.61 1057.11 1202.36C1057.1 1205.11 1059.35 1207.35 1062.1 1207.35Z" fill="black"/>
<path fill-rule="evenodd" clip-rule="evenodd" d="M1074.54 1224.48C1077.28 1224.48 1079.52 1222.24 1079.52 1219.49C1079.52 1216.74 1077.28 1214.5 1074.54 1214.5C1071.79 1214.5 1069.55 1216.74 1069.55 1219.49C1069.55 1222.24 1071.79 1224.48 1074.54 1224.48Z" fill="black"/>
<path fill-rule="evenodd" clip-rule="evenodd" d="M1094.67 1231.02C1097.42 1231.02 1099.66 1228.78 1099.66 1226.03C1099.66 1223.28 1097.42 1221.04 1094.67 1221.04C1091.93 1221.04 1089.69 1223.29 1089.69 1226.03C1089.68 1228.78 1091.92 1231.02 1094.67 1231.02Z" fill="black"/>
<path fill-rule="evenodd" clip-rule="evenodd" d="M1114.81 1224.48C1117.56 1224.48 1119.8 1222.24 1119.8 1219.49C1119.8 1216.74 1117.56 1214.5 1114.81 1214.5C1112.07 1214.5 1109.82 1216.74 1109.82 1219.49C1109.82 1222.24 1112.06 1224.48 1114.81 1224.48Z" fill="black"/>
<path fill-rule="evenodd" clip-rule="evenodd" d="M1127.25 1207.35C1130 1207.35 1132.24 1205.11 1132.24 1202.36C1132.24 1199.61 1130 1197.37 1127.25 1197.37C1124.51 1197.37 1122.27 1199.61 1122.27 1202.36C1122.26 1205.11 1124.51 1207.35 1127.25 1207.35Z" fill="black"/>
<path d="M1127.25 1186.18C1130.01 1186.18 1132.24 1183.94 1132.24 1181.19C1132.24 1178.44 1130.01 1176.2 1127.25 1176.2C1124.5 1176.2 1122.27 1178.44 1122.27 1181.19C1122.27 1183.94 1124.5 1186.18 1127.25 1186.18Z" fill="black"/>
<path fill-rule="evenodd" clip-rule="evenodd" d="M1114.81 1169.05C1117.56 1169.05 1119.8 1166.8 1119.8 1164.06C1119.8 1161.31 1117.56 1159.07 1114.81 1159.07C1112.07 1159.07 1109.82 1161.31 1109.82 1164.06C1109.82 1166.81 1112.06 1169.05 1114.81 1169.05Z" fill="black"/>
<path d="M1094.68 1199.4C1098.89 1199.4 1102.3 1195.99 1102.3 1191.77C1102.3 1187.56 1098.89 1184.15 1094.68 1184.15C1090.46 1184.15 1087.05 1187.56 1087.05 1191.77C1087.05 1195.99 1090.46 1199.4 1094.68 1199.4Z" fill="black"/>
<path fill-rule="evenodd" clip-rule="evenodd" d="M1858.12 1269.38C1900.87 1269.38 1935.73 1234.52 1935.73 1191.77C1935.73 1149.03 1900.86 1114.16 1858.12 1114.16C1815.38 1114.16 1780.52 1149.03 1780.52 1191.77C1780.52 1234.52 1815.38 1269.38 1858.12 1269.38Z" fill="black"/>
<path fill-rule="evenodd" clip-rule="evenodd" d="M1858.12 1241.76C1885.65 1241.76 1908.11 1219.31 1908.11 1191.77C1908.11 1164.24 1885.65 1141.78 1858.12 1141.78C1830.59 1141.78 1808.14 1164.24 1808.14 1191.77C1808.14 1219.31 1830.59 1241.76 1858.12 1241.76Z" fill="white" stroke="black" stroke-width="10" stroke-miterlimit="22.9256"/>
<path fill-rule="evenodd" clip-rule="evenodd" d="M1858.12 1235.52C1882.22 1235.52 1901.87 1215.87 1901.87 1191.77C1901.87 1167.68 1882.22 1148.03 1858.12 1148.03C1834.03 1148.03 1814.38 1167.68 1814.38 1191.77C1814.38 1215.87 1834.03 1235.52 1858.12 1235.52Z" stroke="black" stroke-width="10" stroke-miterlimit="22.9256" stroke-linecap="round" stroke-linejoin="round"/>
<path fill-rule="evenodd" clip-rule="evenodd" d="M1858.12 1216.35C1871.66 1216.35 1882.7 1205.31 1882.7 1191.77C1882.7 1178.24 1871.65 1167.19 1858.12 1167.19C1844.58 1167.19 1833.54 1178.24 1833.54 1191.77C1833.54 1205.31 1844.58 1216.35 1858.12 1216.35Z" stroke="black" stroke-width="10" stroke-miterlimit="22.9256" stroke-linecap="round" stroke-linejoin="round"/>
<path fill-rule="evenodd" clip-rule="evenodd" d="M1858.12 1180.47C1860.14 1180.47 1861.79 1178.82 1861.79 1176.8C1861.79 1174.79 1860.15 1173.14 1858.12 1173.14C1856.1 1173.14 1854.46 1174.79 1854.46 1176.8C1854.46 1178.83 1856.1 1180.47 1858.12 1180.47Z" fill="black"/>
<path fill-rule="evenodd" clip-rule="evenodd" d="M1843.99 1190.75C1846 1190.75 1847.66 1189.1 1847.66 1187.08C1847.66 1185.06 1846.01 1183.41 1843.99 1183.41C1841.97 1183.41 1840.32 1185.06 1840.32 1187.08C1840.32 1189.1 1841.97 1190.75 1843.99 1190.75Z" fill="black"/>
<path fill-rule="evenodd" clip-rule="evenodd" d="M1849.39 1207.36C1851.4 1207.36 1853.05 1205.72 1853.05 1203.69C1853.05 1201.67 1851.41 1200.03 1849.39 1200.03C1847.37 1200.03 1845.72 1201.67 1845.72 1203.69C1845.72 1205.72 1847.36 1207.36 1849.39 1207.36Z" fill="black"/>
<path fill-rule="evenodd" clip-rule="evenodd" d="M1866.86 1207.36C1868.88 1207.36 1870.53 1205.72 1870.53 1203.69C1870.53 1201.67 1868.88 1200.03 1866.86 1200.03C1864.84 1200.03 1863.19 1201.67 1863.19 1203.69C1863.19 1205.72 1864.84 1207.36 1866.86 1207.36Z" fill="black"/>
<path fill-rule="evenodd" clip-rule="evenodd" d="M1872.26 1190.75C1874.27 1190.75 1875.92 1189.1 1875.92 1187.08C1875.92 1185.06 1874.28 1183.41 1872.26 1183.41C1870.24 1183.41 1868.59 1185.06 1868.59 1187.08C1868.59 1189.1 1870.24 1190.75 1872.26 1190.75Z" fill="black"/>
<path fill-rule="evenodd" clip-rule="evenodd" d="M1858.12 1162.51C1860.87 1162.51 1863.11 1160.26 1863.11 1157.52C1863.11 1154.77 1860.87 1152.53 1858.12 1152.53C1855.38 1152.53 1853.14 1154.77 1853.14 1157.52C1853.14 1160.26 1855.38 1162.51 1858.12 1162.51Z" fill="black"/>
<path fill-rule="evenodd" clip-rule="evenodd" d="M1837.99 1169.05C1840.74 1169.05 1842.97 1166.8 1842.97 1164.06C1842.97 1161.31 1840.73 1159.07 1837.99 1159.07C1835.24 1159.07 1833 1161.31 1833 1164.06C1833 1166.81 1835.24 1169.05 1837.99 1169.05Z" fill="black"/>
<path fill-rule="evenodd" clip-rule="evenodd" d="M1825.55 1186.18C1828.29 1186.18 1830.53 1183.94 1830.53 1181.19C1830.53 1178.44 1828.29 1176.2 1825.55 1176.2C1822.8 1176.2 1820.56 1178.44 1820.56 1181.19C1820.56 1183.94 1822.8 1186.18 1825.55 1186.18Z" fill="black"/>
<path fill-rule="evenodd" clip-rule="evenodd" d="M1825.55 1207.35C1828.29 1207.35 1830.53 1205.1 1830.53 1202.36C1830.53 1199.61 1828.29 1197.37 1825.55 1197.37C1822.8 1197.37 1820.56 1199.61 1820.56 1202.36C1820.56 1205.1 1822.8 1207.35 1825.55 1207.35Z" fill="black"/>
<path fill-rule="evenodd" clip-rule="evenodd" d="M1837.99 1224.48C1840.74 1224.48 1842.97 1222.24 1842.97 1219.49C1842.97 1216.74 1840.73 1214.5 1837.99 1214.5C1835.24 1214.5 1833 1216.74 1833 1219.49C1833 1222.24 1835.24 1224.48 1837.99 1224.48Z" fill="black"/>
<path fill-rule="evenodd" clip-rule="evenodd" d="M1858.12 1231.02C1860.87 1231.02 1863.11 1228.78 1863.11 1226.03C1863.11 1223.28 1860.87 1221.04 1858.12 1221.04C1855.38 1221.04 1853.14 1223.29 1853.14 1226.03C1853.14 1228.78 1855.38 1231.02 1858.12 1231.02Z" fill="black"/>
<path fill-rule="evenodd" clip-rule="evenodd" d="M1878.26 1224.48C1881.01 1224.48 1883.25 1222.24 1883.25 1219.49C1883.25 1216.74 1881.01 1214.5 1878.26 1214.5C1875.51 1214.5 1873.27 1216.74 1873.27 1219.49C1873.27 1222.24 1875.51 1224.48 1878.26 1224.48Z" fill="black"/>
<path fill-rule="evenodd" clip-rule="evenodd" d="M1890.7 1207.35C1893.45 1207.35 1895.69 1205.1 1895.69 1202.36C1895.69 1199.61 1893.45 1197.37 1890.7 1197.37C1887.96 1197.37 1885.71 1199.61 1885.71 1202.36C1885.71 1205.1 1887.96 1207.35 1890.7 1207.35Z" fill="black"/>
<path fill-rule="evenodd" clip-rule="evenodd" d="M1890.7 1186.18C1893.45 1186.18 1895.69 1183.94 1895.69 1181.19C1895.69 1178.44 1893.45 1176.2 1890.7 1176.2C1887.96 1176.2 1885.71 1178.44 1885.71 1181.19C1885.71 1183.94 1887.96 1186.18 1890.7 1186.18Z" fill="black"/>
<path fill-rule="evenodd" clip-rule="evenodd" d="M1878.26 1169.05C1881.01 1169.05 1883.25 1166.8 1883.25 1164.06C1883.25 1161.31 1881.01 1159.07 1878.26 1159.07C1875.51 1159.07 1873.27 1161.31 1873.27 1164.06C1873.27 1166.81 1875.51 1169.05 1878.26 1169.05Z" fill="black"/>
<path fill-rule="evenodd" clip-rule="evenodd" d="M1858.12 1199.4C1862.32 1199.4 1865.75 1195.98 1865.75 1191.77C1865.75 1187.58 1862.32 1184.15 1858.12 1184.15C1853.92 1184.15 1850.5 1187.57 1850.5 1191.77C1850.5 1195.97 1853.92 1199.4 1858.12 1199.4Z" fill="black"/>
<path d="M1373.13 839.02H1211.11V973.829H1373.13V839.02Z" fill="#C8C8C8" stroke="black" stroke-width="10" stroke-miterlimit="22.9256" stroke-linecap="round" stroke-linejoin="round"/>
<path fill-rule="evenodd" clip-rule="evenodd" d="M1113.28 932.182C1119.22 931.662 1121.13 936.695 1121.57 941.667L1124.49 975.154C1124.93 980.13 1123.91 985.418 1117.98 985.937C1102.43 987.297 1097.73 933.542 1113.28 932.182Z" fill="#505050" stroke="black" stroke-width="10" stroke-miterlimit="22.9256" stroke-linecap="round" stroke-linejoin="round"/>
</svg>
