<svg width="2554" height="785" viewBox="0 0 2554 785" fill="none" xmlns="http://www.w3.org/2000/svg">
<path fill-rule="evenodd" clip-rule="evenodd" d="M2420.93 590.929L2378.93 665.298H1850.34L1808.35 590.929L1805.9 553.077H2420.93V590.929Z" fill="#2D2D2D"/>
<path d="M672.394 549.364H592.89V568.826H672.394V549.364Z" fill="#505050" stroke="black" stroke-width="10" stroke-miterlimit="22.9256" stroke-linecap="round" stroke-linejoin="round"/>
<path fill-rule="evenodd" clip-rule="evenodd" d="M592.89 549.364L526.413 516.062C579.054 516.062 686.23 516.062 738.871 516.062L672.394 549.364C664.071 549.364 601.213 549.364 592.89 549.364Z" fill="#505050" stroke="black" stroke-width="10" stroke-miterlimit="22.9256" stroke-linecap="round" stroke-linejoin="round"/>
<path d="M2548.65 5H466.427V516.058H2548.65V5Z" fill="white" stroke="black" stroke-width="10" stroke-miterlimit="22.9256" stroke-linecap="round" stroke-linejoin="round"/>
<path fill-rule="evenodd" clip-rule="evenodd" d="M2483.46 516.058H995.175L1236.65 590.93H1808.35L1816.23 618.2C1821.15 605.607 1828.65 594.039 1838.44 584.251C1857.04 565.65 1882.04 555.289 1908.35 555.289C1934.67 555.289 1959.67 565.65 1978.27 584.251C1988.06 594.042 1995.57 605.607 2000.48 618.2H2022.51C2027.43 605.603 2034.93 594.039 2044.72 584.251C2063.32 565.65 2088.33 555.289 2114.64 555.289C2140.95 555.289 2165.95 565.65 2184.55 584.251C2194.34 594.042 2201.85 605.607 2206.76 618.2H2228.79C2233.71 605.603 2241.21 594.039 2251 584.251C2269.6 565.65 2294.61 555.289 2320.92 555.289C2347.23 555.289 2372.23 565.65 2390.83 584.251C2400.62 594.042 2408.13 605.607 2413.04 618.2L2420.93 590.93H2483.46V516.058Z" fill="#505050" stroke="black" stroke-width="10" stroke-miterlimit="22.9256" stroke-linecap="round" stroke-linejoin="round"/>
<path fill-rule="evenodd" clip-rule="evenodd" d="M2443.8 590.929H2459.96V628.065H2471.18V665.2H2443.8V628.065V590.929Z" fill="black"/>
<path d="M1383.85 516.058H1364.72V662.383H1383.85V516.058Z" fill="#939291" stroke="black" stroke-width="10" stroke-miterlimit="22.9256" stroke-linecap="round" stroke-linejoin="round"/>
<path d="M1693.02 516.058H1673.88V662.383H1693.02V516.058Z" fill="#939291" stroke="black" stroke-width="10" stroke-miterlimit="22.9256" stroke-linecap="round" stroke-linejoin="round"/>
<path d="M1741.29 650.52H1316.45V681.986H1741.29V650.52Z" fill="#939291" stroke="black" stroke-width="10" stroke-miterlimit="22.9256" stroke-linecap="round" stroke-linejoin="round"/>
<path d="M1741.29 601.036H1316.45V632.502H1741.29V601.036Z" fill="#939291" stroke="black" stroke-width="10" stroke-miterlimit="22.9256" stroke-linecap="round" stroke-linejoin="round"/>
<path d="M1929.65 743.303C1979.01 731.6 2009.53 682.099 1997.83 632.739C1986.13 583.379 1936.63 552.852 1887.27 564.556C1837.92 576.259 1807.39 625.76 1819.09 675.12C1830.8 724.48 1880.3 755.006 1929.65 743.303Z" fill="black"/>
<path d="M1950.08 695.918C1973.14 672.852 1973.14 635.455 1950.08 612.389C1927.01 589.323 1889.62 589.323 1866.55 612.389C1843.49 635.455 1843.49 672.852 1866.55 695.918C1889.62 718.984 1927.01 718.984 1950.08 695.918Z" fill="white"/>
<path d="M1908.35 707.269C1937.68 707.269 1961.45 683.494 1961.45 654.166C1961.45 624.838 1937.68 601.063 1908.35 601.063C1879.03 601.063 1855.25 624.838 1855.25 654.166C1855.25 683.494 1879.03 707.269 1908.35 707.269Z" stroke="black" stroke-width="10" stroke-miterlimit="22.9256"/>
<path fill-rule="evenodd" clip-rule="evenodd" d="M1908.35 687.176C1926.54 687.176 1941.36 672.345 1941.36 654.166C1941.36 635.983 1926.53 621.155 1908.35 621.155C1890.18 621.155 1875.35 635.983 1875.35 654.166C1875.35 672.348 1890.17 687.176 1908.35 687.176Z" fill="black"/>
<path fill-rule="evenodd" clip-rule="evenodd" d="M1908.35 669.597C1916.85 669.597 1923.78 662.664 1923.78 654.166C1923.78 645.668 1916.86 638.734 1908.35 638.734C1899.86 638.734 1892.92 645.664 1892.92 654.166C1892.92 662.667 1899.86 669.597 1908.35 669.597Z" fill="white"/>
<path fill-rule="evenodd" clip-rule="evenodd" d="M1908.35 631.53C1910.11 631.53 1911.54 630.099 1911.54 628.347C1911.54 626.594 1910.11 625.163 1908.35 625.163C1906.6 625.163 1905.17 626.594 1905.17 628.347C1905.17 630.099 1906.6 631.53 1908.35 631.53Z" fill="white"/>
<path fill-rule="evenodd" clip-rule="evenodd" d="M1893.18 636.459C1894.93 636.459 1896.37 635.028 1896.37 633.276C1896.37 631.523 1894.93 630.092 1893.18 630.092C1891.43 630.092 1890 631.523 1890 633.276C1890 635.028 1891.43 636.459 1893.18 636.459Z" fill="white"/>
<path fill-rule="evenodd" clip-rule="evenodd" d="M1883.8 649.37C1885.55 649.37 1886.98 647.94 1886.98 646.187C1886.98 644.435 1885.55 643.003 1883.8 643.003C1882.05 643.003 1880.62 644.435 1880.62 646.187C1880.62 647.94 1882.05 649.37 1883.8 649.37Z" fill="white"/>
<path fill-rule="evenodd" clip-rule="evenodd" d="M1883.8 665.324C1885.55 665.324 1886.98 663.894 1886.98 662.141C1886.98 660.388 1885.55 658.958 1883.8 658.958C1882.05 658.958 1880.62 660.388 1880.62 662.141C1880.62 663.894 1882.05 665.324 1883.8 665.324Z" fill="white"/>
<path fill-rule="evenodd" clip-rule="evenodd" d="M1893.18 678.236C1894.93 678.236 1896.37 676.805 1896.37 675.052C1896.37 673.3 1894.93 671.869 1893.18 671.869C1891.43 671.869 1890 673.3 1890 675.052C1890 676.805 1891.43 678.236 1893.18 678.236Z" fill="white"/>
<path fill-rule="evenodd" clip-rule="evenodd" d="M1908.35 683.169C1910.11 683.169 1911.54 681.737 1911.54 679.985C1911.54 678.232 1910.11 676.802 1908.35 676.802C1906.6 676.802 1905.17 678.232 1905.17 679.985C1905.17 681.737 1906.6 683.169 1908.35 683.169Z" fill="white"/>
<path fill-rule="evenodd" clip-rule="evenodd" d="M1923.53 678.236C1925.28 678.236 1926.71 676.805 1926.71 675.052C1926.71 673.3 1925.28 671.869 1923.53 671.869C1921.77 671.869 1920.34 673.3 1920.34 675.052C1920.34 676.805 1921.77 678.236 1923.53 678.236Z" fill="white"/>
<path fill-rule="evenodd" clip-rule="evenodd" d="M1932.91 665.324C1934.66 665.324 1936.09 663.894 1936.09 662.141C1936.09 660.388 1934.66 658.958 1932.91 658.958C1931.16 658.958 1929.73 660.388 1929.73 662.141C1929.73 663.894 1931.16 665.324 1932.91 665.324Z" fill="white"/>
<path fill-rule="evenodd" clip-rule="evenodd" d="M1932.91 649.37C1934.66 649.37 1936.09 647.94 1936.09 646.187C1936.09 644.435 1934.66 643.003 1932.91 643.003C1931.16 643.003 1929.73 644.435 1929.73 646.187C1929.73 647.94 1931.16 649.37 1932.91 649.37Z" fill="white"/>
<path fill-rule="evenodd" clip-rule="evenodd" d="M1923.53 636.459C1925.28 636.459 1926.71 635.028 1926.71 633.276C1926.71 631.523 1925.28 630.092 1923.53 630.092C1921.77 630.092 1920.34 631.523 1920.34 633.276C1920.34 635.028 1921.77 636.459 1923.53 636.459Z" fill="white"/>
<path fill-rule="evenodd" clip-rule="evenodd" d="M1908.36 615.023C1911.14 615.023 1913.41 612.751 1913.41 609.966C1913.41 607.181 1911.14 604.906 1908.36 604.906C1905.57 604.906 1903.3 607.178 1903.3 609.966C1903.3 612.751 1905.57 615.023 1908.36 615.023Z" fill="black"/>
<path fill-rule="evenodd" clip-rule="evenodd" d="M1882.38 623.464C1885.16 623.464 1887.44 621.192 1887.44 618.407C1887.44 615.623 1885.17 613.351 1882.38 613.351C1879.59 613.351 1877.32 615.623 1877.32 618.407C1877.32 621.192 1879.59 623.464 1882.38 623.464Z" fill="black"/>
<path fill-rule="evenodd" clip-rule="evenodd" d="M1866.32 645.564C1869.11 645.564 1871.38 643.292 1871.38 640.507C1871.38 637.722 1869.11 635.451 1866.32 635.451C1863.53 635.451 1861.26 637.722 1861.26 640.507C1861.26 643.292 1863.53 645.564 1866.32 645.564Z" fill="black"/>
<path fill-rule="evenodd" clip-rule="evenodd" d="M1866.32 672.878C1869.11 672.878 1871.38 670.606 1871.38 667.821C1871.38 665.036 1869.11 662.765 1866.32 662.765C1863.53 662.765 1861.26 665.036 1861.26 667.821C1861.26 670.606 1863.53 672.878 1866.32 672.878Z" fill="black"/>
<path fill-rule="evenodd" clip-rule="evenodd" d="M1882.38 694.977C1885.16 694.977 1887.44 692.706 1887.44 689.921C1887.44 687.136 1885.17 684.864 1882.38 684.864C1879.59 684.864 1877.32 687.136 1877.32 689.921C1877.32 692.706 1879.59 694.977 1882.38 694.977Z" fill="black"/>
<path fill-rule="evenodd" clip-rule="evenodd" d="M1908.36 703.422C1911.14 703.422 1913.41 701.15 1913.41 698.362C1913.41 695.574 1911.14 693.305 1908.36 693.305C1905.57 693.305 1903.3 695.577 1903.3 698.362C1903.3 701.146 1905.57 703.422 1908.36 703.422Z" fill="black"/>
<path fill-rule="evenodd" clip-rule="evenodd" d="M1934.33 694.977C1937.12 694.977 1939.39 692.706 1939.39 689.921C1939.39 687.136 1937.12 684.864 1934.33 684.864C1931.55 684.864 1929.27 687.136 1929.27 689.921C1929.28 692.706 1931.55 694.977 1934.33 694.977Z" fill="black"/>
<path fill-rule="evenodd" clip-rule="evenodd" d="M1950.39 672.878C1953.18 672.878 1955.45 670.606 1955.45 667.821C1955.45 665.036 1953.18 662.765 1950.39 662.765C1947.6 662.765 1945.33 665.036 1945.33 667.821C1945.33 670.606 1947.6 672.878 1950.39 672.878Z" fill="black"/>
<path fill-rule="evenodd" clip-rule="evenodd" d="M1950.39 645.564C1953.18 645.564 1955.45 643.292 1955.45 640.507C1955.45 637.722 1953.18 635.451 1950.39 635.451C1947.6 635.451 1945.33 637.722 1945.33 640.507C1945.33 643.292 1947.6 645.564 1950.39 645.564Z" fill="black"/>
<path fill-rule="evenodd" clip-rule="evenodd" d="M1934.33 623.464C1937.12 623.464 1939.39 621.192 1939.39 618.407C1939.39 615.623 1937.12 613.351 1934.33 613.351C1931.55 613.351 1929.27 615.623 1929.27 618.407C1929.28 621.192 1931.55 623.464 1934.33 623.464Z" fill="black"/>
<path d="M2136.13 743.273C2185.42 731.301 2215.67 681.635 2203.7 632.341C2191.73 583.047 2142.07 552.792 2092.78 564.764C2043.48 576.736 2013.23 626.402 2025.2 675.696C2037.17 724.99 2086.84 755.245 2136.13 743.273Z" fill="black"/>
<path fill-rule="evenodd" clip-rule="evenodd" d="M2114.64 713.227C2147.17 713.227 2173.7 686.694 2173.7 654.166C2173.7 621.634 2147.17 595.101 2114.64 595.101C2082.11 595.101 2055.58 621.634 2055.58 654.166C2055.58 686.694 2082.11 713.227 2114.64 713.227Z" fill="white"/>
<path fill-rule="evenodd" clip-rule="evenodd" d="M2114.64 707.269C2143.89 707.269 2167.74 683.413 2167.74 654.166C2167.74 624.918 2143.88 601.063 2114.64 601.063C2085.39 601.063 2061.54 624.918 2061.54 654.166C2061.54 683.413 2085.39 707.269 2114.64 707.269Z" stroke="black" stroke-width="10" stroke-miterlimit="22.9256"/>
<path fill-rule="evenodd" clip-rule="evenodd" d="M2114.64 687.176C2132.82 687.176 2147.65 672.345 2147.65 654.166C2147.65 635.983 2132.81 621.156 2114.64 621.156C2096.46 621.156 2081.63 635.983 2081.63 654.166C2081.63 672.348 2096.46 687.176 2114.64 687.176Z" fill="black"/>
<path fill-rule="evenodd" clip-rule="evenodd" d="M2114.64 669.597C2123.13 669.597 2130.07 662.664 2130.07 654.166C2130.07 645.668 2123.14 638.735 2114.64 638.735C2106.14 638.735 2099.21 645.664 2099.21 654.166C2099.21 662.667 2106.14 669.597 2114.64 669.597Z" fill="white"/>
<path fill-rule="evenodd" clip-rule="evenodd" d="M2114.64 631.53C2116.39 631.53 2117.82 630.099 2117.82 628.347C2117.82 626.594 2116.39 625.163 2114.64 625.163C2112.88 625.163 2111.45 626.594 2111.45 628.347C2111.45 630.099 2112.88 631.53 2114.64 631.53Z" fill="white"/>
<path fill-rule="evenodd" clip-rule="evenodd" d="M2099.46 636.459C2101.22 636.459 2102.65 635.028 2102.65 633.276C2102.65 631.523 2101.22 630.093 2099.46 630.093C2097.71 630.093 2096.28 631.523 2096.28 633.276C2096.28 635.028 2097.71 636.459 2099.46 636.459Z" fill="white"/>
<path fill-rule="evenodd" clip-rule="evenodd" d="M2090.08 649.37C2091.83 649.37 2093.26 647.94 2093.26 646.187C2093.26 644.435 2091.83 643.004 2090.08 643.004C2088.33 643.004 2086.9 644.435 2086.9 646.187C2086.9 647.94 2088.33 649.37 2090.08 649.37Z" fill="white"/>
<path d="M2090.08 665.324C2091.84 665.324 2093.26 663.899 2093.26 662.141C2093.26 660.383 2091.84 658.958 2090.08 658.958C2088.32 658.958 2086.9 660.383 2086.9 662.141C2086.9 663.899 2088.32 665.324 2090.08 665.324Z" fill="white"/>
<path fill-rule="evenodd" clip-rule="evenodd" d="M2099.46 678.236C2101.22 678.236 2102.65 676.805 2102.65 675.053C2102.65 673.3 2101.22 671.869 2099.46 671.869C2097.71 671.869 2096.28 673.3 2096.28 675.053C2096.28 676.805 2097.71 678.236 2099.46 678.236Z" fill="white"/>
<path fill-rule="evenodd" clip-rule="evenodd" d="M2114.64 683.169C2116.39 683.169 2117.82 681.738 2117.82 679.985C2117.82 678.232 2116.39 676.802 2114.64 676.802C2112.88 676.802 2111.45 678.232 2111.45 679.985C2111.45 681.738 2112.88 683.169 2114.64 683.169Z" fill="white"/>
<path fill-rule="evenodd" clip-rule="evenodd" d="M2129.81 678.236C2131.56 678.236 2133 676.805 2133 675.053C2133 673.3 2131.56 671.869 2129.81 671.869C2128.06 671.869 2126.63 673.3 2126.63 675.053C2126.63 676.805 2128.06 678.236 2129.81 678.236Z" fill="white"/>
<path fill-rule="evenodd" clip-rule="evenodd" d="M2139.19 665.324C2140.94 665.324 2142.37 663.894 2142.37 662.141C2142.37 660.389 2140.94 658.958 2139.19 658.958C2137.44 658.958 2136.01 660.389 2136.01 662.141C2136.01 663.894 2137.44 665.324 2139.19 665.324Z" fill="white"/>
<path fill-rule="evenodd" clip-rule="evenodd" d="M2139.19 649.37C2140.94 649.37 2142.37 647.94 2142.37 646.187C2142.37 644.435 2140.94 643.004 2139.19 643.004C2137.44 643.004 2136.01 644.435 2136.01 646.187C2136.01 647.94 2137.44 649.37 2139.19 649.37Z" fill="white"/>
<path fill-rule="evenodd" clip-rule="evenodd" d="M2129.81 636.459C2131.56 636.459 2133 635.028 2133 633.276C2133 631.523 2131.56 630.093 2129.81 630.093C2128.06 630.093 2126.63 631.523 2126.63 633.276C2126.63 635.028 2128.06 636.459 2129.81 636.459Z" fill="white"/>
<path fill-rule="evenodd" clip-rule="evenodd" d="M2114.64 615.023C2117.42 615.023 2119.7 612.751 2119.7 609.966C2119.7 607.181 2117.42 604.906 2114.64 604.906C2111.85 604.906 2109.58 607.178 2109.58 609.966C2109.58 612.751 2111.85 615.023 2114.64 615.023Z" fill="black"/>
<path fill-rule="evenodd" clip-rule="evenodd" d="M2088.66 623.464C2091.44 623.464 2093.72 621.192 2093.72 618.407C2093.72 615.623 2091.45 613.351 2088.66 613.351C2085.87 613.351 2083.6 615.623 2083.6 618.407C2083.6 621.192 2085.87 623.464 2088.66 623.464Z" fill="black"/>
<path fill-rule="evenodd" clip-rule="evenodd" d="M2072.6 645.564C2075.39 645.564 2077.66 643.292 2077.66 640.507C2077.66 637.722 2075.39 635.451 2072.6 635.451C2069.81 635.451 2067.54 637.722 2067.54 640.507C2067.54 643.292 2069.82 645.564 2072.6 645.564Z" fill="black"/>
<path fill-rule="evenodd" clip-rule="evenodd" d="M2072.6 672.878C2075.39 672.878 2077.66 670.606 2077.66 667.821C2077.66 665.036 2075.39 662.765 2072.6 662.765C2069.81 662.765 2067.54 665.036 2067.54 667.821C2067.54 670.606 2069.82 672.878 2072.6 672.878Z" fill="black"/>
<path fill-rule="evenodd" clip-rule="evenodd" d="M2088.66 694.977C2091.44 694.977 2093.72 692.706 2093.72 689.921C2093.72 687.136 2091.45 684.864 2088.66 684.864C2085.87 684.864 2083.6 687.136 2083.6 689.921C2083.6 692.706 2085.87 694.977 2088.66 694.977Z" fill="black"/>
<path fill-rule="evenodd" clip-rule="evenodd" d="M2114.64 703.422C2117.42 703.422 2119.7 701.15 2119.7 698.362C2119.7 695.574 2117.42 693.305 2114.64 693.305C2111.85 693.305 2109.58 695.577 2109.58 698.362C2109.58 701.146 2111.85 703.422 2114.64 703.422Z" fill="black"/>
<path fill-rule="evenodd" clip-rule="evenodd" d="M2140.61 694.977C2143.4 694.977 2145.67 692.706 2145.67 689.921C2145.67 687.136 2143.4 684.864 2140.61 684.864C2137.82 684.864 2135.55 687.136 2135.55 689.921C2135.56 692.706 2137.83 694.977 2140.61 694.977Z" fill="black"/>
<path fill-rule="evenodd" clip-rule="evenodd" d="M2156.67 672.878C2159.46 672.878 2161.73 670.606 2161.73 667.821C2161.73 665.036 2159.46 662.765 2156.67 662.765C2153.89 662.765 2151.61 665.036 2151.61 667.821C2151.61 670.606 2153.89 672.878 2156.67 672.878Z" fill="black"/>
<path fill-rule="evenodd" clip-rule="evenodd" d="M2156.67 645.564C2159.46 645.564 2161.73 643.292 2161.73 640.507C2161.73 637.722 2159.46 635.451 2156.67 635.451C2153.89 635.451 2151.61 637.722 2151.61 640.507C2151.61 643.292 2153.89 645.564 2156.67 645.564Z" fill="black"/>
<path fill-rule="evenodd" clip-rule="evenodd" d="M2140.61 623.464C2143.4 623.464 2145.67 621.192 2145.67 618.407C2145.67 615.623 2143.4 613.351 2140.61 613.351C2137.82 613.351 2135.55 615.623 2135.55 618.407C2135.56 621.192 2137.83 623.464 2140.61 623.464Z" fill="black"/>
<path d="M2341.5 743.702C2390.93 732.298 2421.76 682.981 2410.35 633.55C2398.95 584.12 2349.63 553.293 2300.21 564.697C2250.78 576.101 2219.95 625.417 2231.36 674.848C2242.76 724.279 2292.07 755.106 2341.5 743.702Z" fill="black"/>
<path d="M2335.9 711.082C2367.47 702.848 2386.38 670.587 2378.14 639.023C2369.91 607.46 2337.65 588.547 2306.09 596.78C2274.53 605.014 2255.62 637.276 2263.85 668.839C2272.08 700.402 2304.34 719.315 2335.9 711.082Z" fill="white"/>
<path d="M2329.36 706.522C2358.31 701.847 2377.99 674.586 2373.32 645.633C2368.64 616.681 2341.38 597 2312.43 601.675C2283.48 606.35 2263.8 633.61 2268.48 662.563C2273.15 691.515 2300.41 711.196 2329.36 706.522Z" stroke="black" stroke-width="10" stroke-miterlimit="22.9256"/>
<path fill-rule="evenodd" clip-rule="evenodd" d="M2320.92 687.176C2339.1 687.176 2353.93 672.345 2353.93 654.166C2353.93 635.983 2339.1 621.156 2320.92 621.156C2302.74 621.156 2287.91 635.983 2287.91 654.166C2287.91 672.348 2302.74 687.176 2320.92 687.176Z" fill="black"/>
<path fill-rule="evenodd" clip-rule="evenodd" d="M2320.92 669.597C2329.42 669.597 2336.35 662.664 2336.35 654.166C2336.35 645.668 2329.42 638.735 2320.92 638.735C2312.42 638.735 2305.49 645.665 2305.49 654.166C2305.49 662.667 2312.42 669.597 2320.92 669.597Z" fill="white"/>
<path fill-rule="evenodd" clip-rule="evenodd" d="M2320.92 631.53C2322.67 631.53 2324.1 630.099 2324.1 628.347C2324.1 626.594 2322.67 625.163 2320.92 625.163C2319.17 625.163 2317.74 626.594 2317.74 628.347C2317.73 630.099 2319.16 631.53 2320.92 631.53Z" fill="white"/>
<path fill-rule="evenodd" clip-rule="evenodd" d="M2305.74 636.459C2307.5 636.459 2308.93 635.028 2308.93 633.276C2308.93 631.523 2307.5 630.093 2305.74 630.093C2303.99 630.093 2302.56 631.523 2302.56 633.276C2302.56 635.028 2303.99 636.459 2305.74 636.459Z" fill="white"/>
<path fill-rule="evenodd" clip-rule="evenodd" d="M2296.36 649.371C2298.12 649.371 2299.55 647.94 2299.55 646.187C2299.55 644.435 2298.12 643.004 2296.36 643.004C2294.61 643.004 2293.18 644.435 2293.18 646.187C2293.18 647.94 2294.61 649.371 2296.36 649.371Z" fill="white"/>
<path fill-rule="evenodd" clip-rule="evenodd" d="M2296.36 665.325C2298.12 665.325 2299.55 663.894 2299.55 662.141C2299.55 660.389 2298.12 658.958 2296.36 658.958C2294.61 658.958 2293.18 660.389 2293.18 662.141C2293.18 663.894 2294.61 665.325 2296.36 665.325Z" fill="white"/>
<path fill-rule="evenodd" clip-rule="evenodd" d="M2305.74 678.236C2307.5 678.236 2308.93 676.805 2308.93 675.053C2308.93 673.3 2307.5 671.869 2305.74 671.869C2303.99 671.869 2302.56 673.3 2302.56 675.053C2302.56 676.805 2303.99 678.236 2305.74 678.236Z" fill="white"/>
<path fill-rule="evenodd" clip-rule="evenodd" d="M2320.92 683.169C2322.67 683.169 2324.1 681.738 2324.1 679.985C2324.1 678.233 2322.67 676.802 2320.92 676.802C2319.17 676.802 2317.74 678.233 2317.74 679.985C2317.74 681.738 2319.16 683.169 2320.92 683.169Z" fill="white"/>
<path fill-rule="evenodd" clip-rule="evenodd" d="M2336.09 678.236C2337.84 678.236 2339.28 676.805 2339.28 675.053C2339.28 673.3 2337.84 671.869 2336.09 671.869C2334.34 671.869 2332.91 673.3 2332.91 675.053C2332.91 676.805 2334.34 678.236 2336.09 678.236Z" fill="white"/>
<path d="M2345.47 665.325C2347.23 665.325 2348.65 663.899 2348.65 662.141C2348.65 660.383 2347.23 658.958 2345.47 658.958C2343.71 658.958 2342.29 660.383 2342.29 662.141C2342.29 663.899 2343.71 665.325 2345.47 665.325Z" fill="white"/>
<path fill-rule="evenodd" clip-rule="evenodd" d="M2345.47 649.371C2347.22 649.371 2348.65 647.94 2348.65 646.187C2348.65 644.435 2347.22 643.004 2345.47 643.004C2343.72 643.004 2342.29 644.435 2342.29 646.187C2342.29 647.94 2343.72 649.371 2345.47 649.371Z" fill="white"/>
<path fill-rule="evenodd" clip-rule="evenodd" d="M2336.09 636.459C2337.84 636.459 2339.28 635.028 2339.28 633.276C2339.28 631.523 2337.84 630.093 2336.09 630.093C2334.34 630.093 2332.91 631.523 2332.91 633.276C2332.91 635.028 2334.34 636.459 2336.09 636.459Z" fill="white"/>
<path fill-rule="evenodd" clip-rule="evenodd" d="M2320.92 615.023C2323.7 615.023 2325.98 612.751 2325.98 609.966C2325.98 607.182 2323.71 604.907 2320.92 604.907C2318.14 604.907 2315.86 607.178 2315.86 609.966C2315.86 612.751 2318.13 615.023 2320.92 615.023Z" fill="black"/>
<path fill-rule="evenodd" clip-rule="evenodd" d="M2294.94 623.464C2297.73 623.464 2300 621.192 2300 618.407C2300 615.623 2297.73 613.351 2294.94 613.351C2292.16 613.351 2289.88 615.623 2289.88 618.407C2289.88 621.192 2292.15 623.464 2294.94 623.464Z" fill="black"/>
<path fill-rule="evenodd" clip-rule="evenodd" d="M2278.88 645.564C2281.67 645.564 2283.94 643.292 2283.94 640.507C2283.94 637.722 2281.67 635.451 2278.88 635.451C2276.1 635.451 2273.82 637.722 2273.82 640.507C2273.82 643.292 2276.1 645.564 2278.88 645.564Z" fill="black"/>
<path fill-rule="evenodd" clip-rule="evenodd" d="M2278.88 672.878C2281.67 672.878 2283.94 670.606 2283.94 667.821C2283.94 665.036 2281.67 662.765 2278.88 662.765C2276.1 662.765 2273.82 665.036 2273.82 667.821C2273.82 670.606 2276.1 672.878 2278.88 672.878Z" fill="black"/>
<path fill-rule="evenodd" clip-rule="evenodd" d="M2294.94 694.977C2297.73 694.977 2300 692.706 2300 689.921C2300 687.136 2297.73 684.864 2294.94 684.864C2292.16 684.864 2289.88 687.136 2289.88 689.921C2289.88 692.706 2292.15 694.977 2294.94 694.977Z" fill="black"/>
<path fill-rule="evenodd" clip-rule="evenodd" d="M2320.92 703.422C2323.7 703.422 2325.98 701.15 2325.98 698.362C2325.98 695.574 2323.71 693.306 2320.92 693.306C2318.14 693.306 2315.86 695.577 2315.86 698.362C2315.86 701.147 2318.13 703.422 2320.92 703.422Z" fill="black"/>
<path fill-rule="evenodd" clip-rule="evenodd" d="M2346.9 694.977C2349.68 694.977 2351.96 692.706 2351.96 689.921C2351.96 687.136 2349.68 684.864 2346.9 684.864C2344.11 684.864 2341.84 687.136 2341.84 689.921C2341.84 692.706 2344.11 694.977 2346.9 694.977Z" fill="black"/>
<path fill-rule="evenodd" clip-rule="evenodd" d="M2362.95 672.878C2365.74 672.878 2368.01 670.606 2368.01 667.821C2368.01 665.036 2365.74 662.765 2362.95 662.765C2360.16 662.765 2357.89 665.036 2357.89 667.821C2357.89 670.606 2360.16 672.878 2362.95 672.878Z" fill="black"/>
<path fill-rule="evenodd" clip-rule="evenodd" d="M2362.95 645.564C2365.74 645.564 2368.01 643.292 2368.01 640.507C2368.01 637.722 2365.74 635.451 2362.95 635.451C2360.16 635.451 2357.89 637.722 2357.89 640.507C2357.89 643.292 2360.16 645.564 2362.95 645.564Z" fill="black"/>
<path fill-rule="evenodd" clip-rule="evenodd" d="M2346.9 623.464C2349.68 623.464 2351.96 621.192 2351.96 618.407C2351.96 615.623 2349.68 613.351 2346.9 613.351C2344.11 613.351 2341.84 615.623 2341.84 618.407C2341.84 621.192 2344.11 623.464 2346.9 623.464Z" fill="black"/>
<path d="M1282.86 516.058H1242.62V665.821H1282.86V516.058Z" fill="#939291" stroke="black" stroke-width="10" stroke-miterlimit="22.9256" stroke-linecap="round" stroke-linejoin="round"/>
<path d="M1297.21 665.821H1228.26V681.989H1297.21V665.821Z" fill="#939291" stroke="black" stroke-width="10" stroke-miterlimit="22.9256" stroke-linecap="round" stroke-linejoin="round"/>
<path fill-rule="evenodd" clip-rule="evenodd" d="M952.64 704.189V610.271L894.878 550.182H805.76L747.999 610.271V704.189H934.271C940.178 704.404 946.283 704.427 952.64 704.189Z" fill="#2D2D2D"/>
<path fill-rule="evenodd" clip-rule="evenodd" d="M166.097 688.168L379.295 703.75V556.414H166.097V688.168Z" fill="#2D2D2D"/>
<path fill-rule="evenodd" clip-rule="evenodd" d="M354.952 599.273H737.008C757.401 557.252 800.473 528.283 850.316 528.283C900.159 528.283 943.231 557.252 963.624 599.273H990.809V618.066H997.738V645.44H990.809L983.018 710.72H931.432C942.939 694.25 949.188 674.604 949.188 654.166C949.188 627.854 938.831 602.849 920.227 584.248C901.627 565.646 876.623 555.285 850.313 555.285C824.002 555.285 798.998 565.646 780.398 584.248C761.798 602.849 751.437 627.854 751.437 654.166C751.437 674.604 757.686 694.247 769.193 710.72H353.816C365.323 694.25 371.572 674.604 371.572 654.166C371.572 634.415 365.735 615.398 354.952 599.273Z" fill="#505050" stroke="black" stroke-width="10" stroke-miterlimit="22.9256" stroke-linecap="round" stroke-linejoin="round"/>
<path fill-rule="evenodd" clip-rule="evenodd" d="M190.444 599.273H14.9754C9.48339 599.273 5 603.753 5 609.249V659.45C5 663.304 7.02724 666.604 10.4652 668.347L42.6095 684.646L42.6061 694.944H182.593C176.856 682.274 173.821 668.414 173.821 654.169C173.824 634.415 179.661 615.398 190.444 599.273Z" fill="#505050" stroke="black" stroke-width="10" stroke-miterlimit="22.9256" stroke-linecap="round" stroke-linejoin="round"/>
<path fill-rule="evenodd" clip-rule="evenodd" d="M412.861 599.273H354.952C336.596 571.815 305.856 555.289 272.697 555.289C246.386 555.289 221.382 565.65 202.782 584.251C198.144 588.885 194.023 593.919 190.444 599.273C163.597 599.273 145.634 599.266 145.634 599.266C166.486 551.069 213.953 517.074 269.503 515.814H412.858V599.273H412.861Z" fill="#505050" stroke="black" stroke-width="10" stroke-miterlimit="22.9256" stroke-linecap="round" stroke-linejoin="round"/>
<path fill-rule="evenodd" clip-rule="evenodd" d="M145.623 599.273C102.076 599.273 58.5256 599.273 14.9785 599.273C14.9785 561.652 14.9785 524.03 14.9785 486.409C25.3359 416.249 35.6932 346.086 46.0506 275.93C43.3029 275.93 40.5519 275.93 37.8042 275.93C37.8042 247.319 51.6967 223.34 82.4772 220.113C199.756 207.818 317.044 195.523 434.326 183.232C434.326 294.176 434.326 405.117 434.326 516.062C380.448 515.968 326.574 515.871 272.699 515.774C215.776 515.774 166.891 550.148 145.637 599.266C145.63 599.266 145.623 599.273 145.623 599.273Z" fill="white" stroke="black" stroke-width="10" stroke-miterlimit="22.9256" stroke-linecap="round" stroke-linejoin="round"/>
<path fill-rule="evenodd" clip-rule="evenodd" d="M14.9756 486.409L46.0476 275.93H57.7319C60.6069 275.93 63.0832 277.009 65.04 279.117C66.9969 281.225 67.8916 283.772 67.6771 286.64L54.3375 467.158C53.721 475.488 47.5119 482.073 39.2354 483.175L14.9756 486.409Z" fill="#C8C8C8" stroke="black" stroke-width="10" stroke-miterlimit="22.9256" stroke-linecap="round" stroke-linejoin="round"/>
<path fill-rule="evenodd" clip-rule="evenodd" d="M141.351 420.184L113.851 473.239L76.0234 478.279L90.2912 285.169C90.6765 279.948 95.0024 275.93 100.24 275.93H385.129C388.084 275.93 390.631 277.076 392.591 279.288C394.555 281.5 395.386 284.167 395.031 287.102L383.775 380.344C383.226 384.921 379.761 388.426 375.19 389.036L141.351 420.184Z" fill="#C8C8C8" stroke="black" stroke-width="10" stroke-miterlimit="22.9256" stroke-linecap="round" stroke-linejoin="round"/>
<path fill-rule="evenodd" clip-rule="evenodd" d="M283.55 275.927H385.13C388.088 275.927 390.632 277.073 392.592 279.285C394.555 281.497 395.386 284.164 395.031 287.099L383.776 380.34C383.226 384.918 379.762 388.423 375.191 389.033L283.55 401.24V275.927Z" fill="#C8C8C8" stroke="black" stroke-width="10" stroke-miterlimit="22.9256" stroke-linecap="round" stroke-linejoin="round"/>
<path fill-rule="evenodd" clip-rule="evenodd" d="M76.0234 478.279V599.273C82.1722 599.273 145.462 599.354 145.637 599.267C166.891 550.148 215.776 515.774 272.699 515.774L283.549 515.794V401.244L141.351 420.187L113.851 473.243L76.0234 478.279Z" fill="white" stroke="black" stroke-width="10" stroke-miterlimit="22.9256" stroke-linecap="round" stroke-linejoin="round"/>
<path fill-rule="evenodd" clip-rule="evenodd" d="M152.057 212.818C246.144 202.956 340.235 193.094 434.326 183.229C434.326 139.589 434.326 95.9458 434.326 52.3059C318.709 69.5534 201.675 130.226 152.057 212.818Z" fill="white" stroke="black" stroke-width="10" stroke-miterlimit="22.9256" stroke-linecap="round" stroke-linejoin="round"/>
<path d="M138.825 635.323H82.8328C81.5192 635.323 80.457 634.261 80.457 632.947V620.167C80.457 618.853 81.5192 617.791 82.8328 617.791C84.1463 617.791 85.2085 618.853 85.2085 620.167V630.572H136.452V620.167C136.452 618.853 137.515 617.791 138.828 617.791C140.142 617.791 141.204 618.853 141.204 620.167V632.947C141.201 634.261 140.138 635.323 138.825 635.323Z" fill="black"/>
<path d="M138.825 680.521H82.8328C81.5192 680.521 80.457 679.459 80.457 678.146V665.365C80.457 664.051 81.5192 662.989 82.8328 662.989C84.1463 662.989 85.2085 664.051 85.2085 665.365V675.77H136.452V665.365C136.452 664.051 137.515 662.989 138.828 662.989C140.142 662.989 141.204 664.051 141.204 665.365V678.146C141.201 679.456 140.138 680.521 138.825 680.521Z" fill="black"/>
<path d="M690.368 568.826H574.909V599.273H690.368V568.826Z" fill="#505050" stroke="black" stroke-width="10" stroke-miterlimit="22.9256" stroke-linecap="round" stroke-linejoin="round"/>
<path fill-rule="evenodd" clip-rule="evenodd" d="M24.0255 627.378H37.221C38.4909 627.378 39.5297 628.417 39.5297 629.687V636.617C39.5297 637.89 38.4909 638.926 37.221 638.926H24.0255C22.7555 638.926 21.7168 637.887 21.7168 636.617V629.687C21.7168 628.417 22.7555 627.378 24.0255 627.378Z" fill="#F58220"/>
<path fill-rule="evenodd" clip-rule="evenodd" d="M283.55 475.9V436.644H265.486C260.416 436.644 256.197 440.38 255.584 445.41L253.232 464.715C252.873 467.654 253.704 470.317 255.664 472.536C257.628 474.751 260.175 475.897 263.133 475.897L283.55 475.9Z" fill="black"/>
<path d="M360.384 680.774C375.14 632.242 347.761 580.935 299.231 566.178C250.7 551.42 199.396 578.801 184.64 627.334C169.883 675.867 197.263 727.173 245.793 741.931C294.323 756.688 345.627 729.307 360.384 680.774Z" fill="black"/>
<path d="M287.329 716.344C321.66 708.17 342.865 673.712 334.691 639.379C326.518 605.046 292.061 583.841 257.73 592.014C223.399 600.188 202.194 634.646 210.368 668.979C218.541 703.312 252.998 724.518 287.329 716.344Z" fill="white"/>
<path d="M286.326 711.462C318.083 704.021 337.796 672.243 330.356 640.484C322.916 608.725 291.14 589.011 259.382 596.452C227.624 603.892 207.911 635.67 215.352 667.429C222.792 699.189 254.568 718.903 286.326 711.462Z" stroke="black" stroke-width="10" stroke-miterlimit="22.9256"/>
<path fill-rule="evenodd" clip-rule="evenodd" d="M272.696 690.256C292.573 690.256 308.784 674.044 308.784 654.166C308.784 634.288 292.573 618.079 272.696 618.079C252.819 618.079 236.607 634.291 236.607 654.166C236.607 674.044 252.819 690.256 272.696 690.256Z" stroke="black" stroke-width="10" stroke-miterlimit="22.9256"/>
<path fill-rule="evenodd" clip-rule="evenodd" d="M272.696 612.674C275.651 612.674 278.057 610.264 278.057 607.312C278.057 604.36 275.648 601.951 272.696 601.951C269.74 601.951 267.331 604.36 267.331 607.312C267.331 610.264 269.744 612.674 272.696 612.674Z" fill="black"/>
<path fill-rule="evenodd" clip-rule="evenodd" d="M245.155 621.621C248.111 621.621 250.517 619.212 250.517 616.259C250.517 613.307 248.107 610.898 245.155 610.898C242.2 610.898 239.794 613.307 239.794 616.259C239.794 619.215 242.203 621.621 245.155 621.621Z" fill="black"/>
<path fill-rule="evenodd" clip-rule="evenodd" d="M228.133 645.051C231.089 645.051 233.498 642.642 233.498 639.69C233.498 636.737 231.089 634.328 228.133 634.328C225.178 634.328 222.769 636.737 222.769 639.69C222.772 642.642 225.181 645.051 228.133 645.051Z" fill="black"/>
<path fill-rule="evenodd" clip-rule="evenodd" d="M228.133 674.007C231.089 674.007 233.498 671.598 233.498 668.645C233.498 665.693 231.089 663.284 228.133 663.284C225.178 663.284 222.769 665.693 222.769 668.645C222.769 671.598 225.181 674.007 228.133 674.007Z" fill="black"/>
<path fill-rule="evenodd" clip-rule="evenodd" d="M245.155 697.437C248.111 697.437 250.517 695.028 250.517 692.075C250.517 689.123 248.107 686.714 245.155 686.714C242.2 686.714 239.794 689.123 239.794 692.075C239.794 695.028 242.203 697.437 245.155 697.437Z" fill="black"/>
<path fill-rule="evenodd" clip-rule="evenodd" d="M272.696 706.387C275.651 706.387 278.057 703.978 278.057 701.023C278.057 698.067 275.648 695.661 272.696 695.661C269.74 695.661 267.331 698.07 267.331 701.023C267.331 703.975 269.744 706.387 272.696 706.387Z" fill="black"/>
<path fill-rule="evenodd" clip-rule="evenodd" d="M300.236 697.437C303.192 697.437 305.598 695.028 305.598 692.075C305.598 689.123 303.188 686.714 300.236 686.714C297.281 686.714 294.875 689.123 294.875 692.075C294.875 695.028 297.281 697.437 300.236 697.437Z" fill="black"/>
<path fill-rule="evenodd" clip-rule="evenodd" d="M317.258 674.007C320.214 674.007 322.62 671.598 322.62 668.645C322.62 665.693 320.21 663.284 317.258 663.284C314.303 663.284 311.894 665.693 311.894 668.645C311.894 671.598 314.306 674.007 317.258 674.007Z" fill="black"/>
<path fill-rule="evenodd" clip-rule="evenodd" d="M317.258 645.051C320.214 645.051 322.62 642.642 322.62 639.69C322.62 636.737 320.21 634.328 317.258 634.328C314.303 634.328 311.894 636.737 311.894 639.69C311.897 642.642 314.306 645.051 317.258 645.051Z" fill="black"/>
<path fill-rule="evenodd" clip-rule="evenodd" d="M300.236 621.621C303.192 621.621 305.598 619.212 305.598 616.259C305.598 613.307 303.188 610.898 300.236 610.898C297.281 610.898 294.875 613.307 294.875 616.259C294.872 619.215 297.281 621.621 300.236 621.621Z" fill="black"/>
<path fill-rule="evenodd" clip-rule="evenodd" d="M272.695 629.509C274.451 629.509 275.882 628.078 275.882 626.323C275.882 624.567 274.451 623.136 272.695 623.136C270.94 623.136 269.509 624.567 269.509 626.323C269.509 628.078 270.943 629.509 272.695 629.509Z" fill="black"/>
<path fill-rule="evenodd" clip-rule="evenodd" d="M256.33 634.827C258.086 634.827 259.517 633.396 259.517 631.64C259.517 629.884 258.086 628.454 256.33 628.454C254.574 628.454 253.144 629.884 253.144 631.64C253.144 633.396 254.574 634.827 256.33 634.827Z" fill="black"/>
<path fill-rule="evenodd" clip-rule="evenodd" d="M246.214 648.751C247.97 648.751 249.401 647.32 249.401 645.564C249.401 643.808 247.97 642.377 246.214 642.377C244.458 642.377 243.027 643.808 243.027 645.564C243.027 647.32 244.461 648.751 246.214 648.751Z" fill="black"/>
<path fill-rule="evenodd" clip-rule="evenodd" d="M246.214 665.958C247.97 665.958 249.401 664.527 249.401 662.771C249.401 661.015 247.97 659.584 246.214 659.584C244.458 659.584 243.027 661.015 243.027 662.771C243.027 664.527 244.461 665.958 246.214 665.958Z" fill="black"/>
<path fill-rule="evenodd" clip-rule="evenodd" d="M256.33 679.881C258.086 679.881 259.517 678.45 259.517 676.695C259.517 674.939 258.086 673.508 256.33 673.508C254.574 673.508 253.144 674.939 253.144 676.695C253.144 678.45 254.574 679.881 256.33 679.881Z" fill="black"/>
<path fill-rule="evenodd" clip-rule="evenodd" d="M272.695 685.199C274.451 685.199 275.882 683.768 275.882 682.012C275.882 680.256 274.451 678.826 272.695 678.826C270.94 678.826 269.509 680.256 269.509 682.012C269.509 683.768 270.943 685.199 272.695 685.199Z" fill="black"/>
<path fill-rule="evenodd" clip-rule="evenodd" d="M289.061 679.881C290.816 679.881 292.247 678.45 292.247 676.695C292.247 674.939 290.816 673.508 289.061 673.508C287.305 673.508 285.874 674.939 285.874 676.695C285.877 678.45 287.308 679.881 289.061 679.881Z" fill="black"/>
<path fill-rule="evenodd" clip-rule="evenodd" d="M299.18 665.958C300.936 665.958 302.366 664.527 302.366 662.771C302.366 661.015 300.936 659.584 299.18 659.584C297.424 659.584 295.993 661.015 295.993 662.771C295.99 664.527 297.424 665.958 299.18 665.958Z" fill="black"/>
<path fill-rule="evenodd" clip-rule="evenodd" d="M299.18 648.751C300.936 648.751 302.366 647.32 302.366 645.564C302.366 643.808 300.936 642.377 299.18 642.377C297.424 642.377 295.993 643.808 295.993 645.564C295.99 647.32 297.424 648.751 299.18 648.751Z" fill="black"/>
<path fill-rule="evenodd" clip-rule="evenodd" d="M289.061 634.827C290.816 634.827 292.247 633.396 292.247 631.64C292.247 629.884 290.816 628.454 289.061 628.454C287.305 628.454 285.874 629.884 285.874 631.64C285.874 633.396 287.308 634.827 289.061 634.827Z" fill="black"/>
<path fill-rule="evenodd" clip-rule="evenodd" d="M272.696 673.709C283.459 673.709 292.234 664.929 292.234 654.169C292.234 643.406 283.455 634.63 272.696 634.63C261.933 634.63 253.157 643.406 253.157 654.169C253.157 664.929 261.936 673.709 272.696 673.709Z" fill="black"/>
<path d="M915.23 719.095C951.099 683.224 951.099 625.066 915.23 589.195C879.361 553.325 821.206 553.325 785.337 589.195C749.468 625.066 749.468 683.224 785.337 719.095C821.206 754.966 879.361 754.966 915.23 719.095Z" fill="black"/>
<path d="M892.046 695.911C915.11 672.845 915.11 635.448 892.046 612.382C868.981 589.316 831.586 589.316 808.521 612.382C785.456 635.448 785.456 672.845 808.521 695.911C831.586 718.976 868.981 718.976 892.046 695.911Z" fill="white"/>
<path fill-rule="evenodd" clip-rule="evenodd" d="M850.319 707.269C879.565 707.269 903.419 683.413 903.419 654.166C903.419 624.918 879.565 601.063 850.319 601.063C821.073 601.063 797.219 624.918 797.219 654.166C797.215 683.413 821.07 707.269 850.319 707.269Z" stroke="black" stroke-width="10" stroke-miterlimit="22.9256"/>
<path fill-rule="evenodd" clip-rule="evenodd" d="M850.315 687.176C868.497 687.176 883.324 672.345 883.324 654.166C883.324 635.983 868.497 621.155 850.315 621.155C832.134 621.155 817.307 635.983 817.307 654.166C817.307 672.348 832.134 687.176 850.315 687.176Z" fill="black"/>
<path fill-rule="evenodd" clip-rule="evenodd" d="M850.318 669.597C858.816 669.597 865.749 662.664 865.749 654.166C865.749 645.668 858.819 638.735 850.318 638.735C841.82 638.735 834.888 645.664 834.888 654.166C834.888 662.667 841.817 669.597 850.318 669.597Z" fill="white"/>
<path fill-rule="evenodd" clip-rule="evenodd" d="M850.315 631.53C852.071 631.53 853.502 630.099 853.502 628.347C853.502 626.594 852.071 625.163 850.315 625.163C848.563 625.163 847.132 626.594 847.132 628.347C847.132 630.099 848.563 631.53 850.315 631.53Z" fill="white"/>
<path fill-rule="evenodd" clip-rule="evenodd" d="M835.143 636.459C836.898 636.459 838.329 635.028 838.329 633.276C838.329 631.523 836.898 630.093 835.143 630.093C833.387 630.093 831.956 631.523 831.956 633.276C831.956 635.028 833.387 636.459 835.143 636.459Z" fill="white"/>
<path fill-rule="evenodd" clip-rule="evenodd" d="M825.764 649.37C827.516 649.37 828.947 647.94 828.947 646.187C828.947 644.435 827.516 643.004 825.764 643.004C824.011 643.004 822.577 644.435 822.577 646.187C822.577 647.94 824.008 649.37 825.764 649.37Z" fill="white"/>
<path fill-rule="evenodd" clip-rule="evenodd" d="M825.764 665.324C827.516 665.324 828.947 663.894 828.947 662.141C828.947 660.389 827.516 658.958 825.764 658.958C824.011 658.958 822.577 660.389 822.577 662.141C822.577 663.894 824.008 665.324 825.764 665.324Z" fill="white"/>
<path fill-rule="evenodd" clip-rule="evenodd" d="M835.143 678.236C836.898 678.236 838.329 676.805 838.329 675.053C838.329 673.3 836.898 671.869 835.143 671.869C833.387 671.869 831.956 673.3 831.956 675.053C831.956 676.805 833.387 678.236 835.143 678.236Z" fill="white"/>
<path fill-rule="evenodd" clip-rule="evenodd" d="M850.315 683.169C852.071 683.169 853.502 681.738 853.502 679.985C853.502 678.232 852.071 676.802 850.315 676.802C848.563 676.802 847.132 678.232 847.132 679.985C847.132 681.738 848.563 683.169 850.315 683.169Z" fill="white"/>
<path fill-rule="evenodd" clip-rule="evenodd" d="M865.491 678.236C867.243 678.236 868.674 676.805 868.674 675.053C868.674 673.3 867.243 671.869 865.491 671.869C863.738 671.869 862.308 673.3 862.308 675.053C862.308 676.805 863.738 678.236 865.491 678.236Z" fill="white"/>
<path fill-rule="evenodd" clip-rule="evenodd" d="M874.87 665.324C876.622 665.324 878.053 663.894 878.053 662.141C878.053 660.389 876.622 658.958 874.87 658.958C873.117 658.958 871.687 660.389 871.687 662.141C871.687 663.894 873.117 665.324 874.87 665.324Z" fill="white"/>
<path fill-rule="evenodd" clip-rule="evenodd" d="M874.87 649.37C876.622 649.37 878.053 647.94 878.053 646.187C878.053 644.435 876.622 643.004 874.87 643.004C873.117 643.004 871.687 644.435 871.687 646.187C871.687 647.94 873.117 649.37 874.87 649.37Z" fill="white"/>
<path fill-rule="evenodd" clip-rule="evenodd" d="M865.491 636.459C867.243 636.459 868.674 635.028 868.674 633.276C868.674 631.523 867.243 630.093 865.491 630.093C863.738 630.093 862.308 631.523 862.308 633.276C862.308 635.028 863.738 636.459 865.491 636.459Z" fill="white"/>
<path fill-rule="evenodd" clip-rule="evenodd" d="M850.315 615.023C853.099 615.023 855.374 612.751 855.374 609.966C855.374 607.181 853.102 604.906 850.315 604.906C847.527 604.906 845.255 607.178 845.255 609.966C845.258 612.751 847.53 615.023 850.315 615.023Z" fill="black"/>
<path fill-rule="evenodd" clip-rule="evenodd" d="M824.339 623.464C827.124 623.464 829.395 621.192 829.395 618.407C829.395 615.623 827.124 613.351 824.339 613.351C821.555 613.351 819.279 615.623 819.279 618.407C819.279 621.192 821.551 623.464 824.339 623.464Z" fill="black"/>
<path fill-rule="evenodd" clip-rule="evenodd" d="M808.282 645.564C811.07 645.564 813.342 643.292 813.342 640.507C813.342 637.722 811.07 635.451 808.282 635.451C805.495 635.451 803.223 637.722 803.223 640.507C803.223 643.292 805.495 645.564 808.282 645.564Z" fill="black"/>
<path fill-rule="evenodd" clip-rule="evenodd" d="M808.282 672.878C811.07 672.878 813.342 670.606 813.342 667.821C813.342 665.036 811.07 662.765 808.282 662.765C805.495 662.765 803.223 665.036 803.223 667.821C803.223 670.606 805.495 672.878 808.282 672.878Z" fill="black"/>
<path fill-rule="evenodd" clip-rule="evenodd" d="M824.339 694.977C827.124 694.977 829.395 692.706 829.395 689.921C829.395 687.136 827.124 684.864 824.339 684.864C821.555 684.864 819.279 687.136 819.279 689.921C819.279 692.706 821.551 694.977 824.339 694.977Z" fill="black"/>
<path fill-rule="evenodd" clip-rule="evenodd" d="M850.315 703.422C853.099 703.422 855.374 701.15 855.374 698.362C855.374 695.574 853.102 693.305 850.315 693.305C847.527 693.305 845.255 695.577 845.255 698.362C845.255 701.146 847.53 703.422 850.315 703.422Z" fill="black"/>
<path fill-rule="evenodd" clip-rule="evenodd" d="M876.294 694.977C879.079 694.977 881.354 692.706 881.354 689.921C881.354 687.136 879.082 684.864 876.294 684.864C873.51 684.864 871.234 687.136 871.234 689.921C871.234 692.706 873.51 694.977 876.294 694.977Z" fill="black"/>
<path fill-rule="evenodd" clip-rule="evenodd" d="M892.351 672.878C895.139 672.878 897.411 670.606 897.411 667.821C897.411 665.036 895.139 662.765 892.351 662.765C889.563 662.765 887.291 665.036 887.291 667.821C887.291 670.606 889.563 672.878 892.351 672.878Z" fill="black"/>
<path fill-rule="evenodd" clip-rule="evenodd" d="M892.351 645.564C895.139 645.564 897.411 643.292 897.411 640.507C897.411 637.722 895.139 635.451 892.351 635.451C889.563 635.451 887.291 637.722 887.291 640.507C887.291 643.292 889.563 645.564 892.351 645.564Z" fill="black"/>
<path fill-rule="evenodd" clip-rule="evenodd" d="M876.294 623.464C879.079 623.464 881.354 621.192 881.354 618.407C881.354 615.623 879.082 613.351 876.294 613.351C873.51 613.351 871.234 615.623 871.234 618.407C871.234 621.192 873.51 623.464 876.294 623.464Z" fill="black"/>
<path fill-rule="evenodd" clip-rule="evenodd" d="M25.6644 355.188H36.0218C37.9686 355.188 39.5602 356.779 39.5602 358.723V374.171C39.5602 376.115 37.9686 377.706 36.0218 377.706H25.6644C23.7176 377.706 22.126 376.115 22.126 374.171V358.723C22.126 356.783 23.7176 355.188 25.6644 355.188Z" fill="black"/>
<path d="M65.5862 267.02C68.9302 267.02 71.6411 264.309 71.6411 260.965C71.6411 257.621 68.9302 254.91 65.5862 254.91C62.2421 254.91 59.5312 257.621 59.5312 260.965C59.5312 264.309 62.2421 267.02 65.5862 267.02Z" fill="black"/>
<path fill-rule="evenodd" clip-rule="evenodd" d="M65.5862 476.684C68.9236 476.684 71.6411 473.963 71.6411 470.629C71.6411 467.292 68.9202 464.574 65.5862 464.574C62.2521 464.574 59.5313 467.295 59.5313 470.629C59.5279 473.963 62.2488 476.684 65.5862 476.684Z" fill="black"/>
<path d="M65.5823 474.309H39.4896C32.6204 474.309 27.0312 468.719 27.0312 461.85V271.051C27.0312 264.182 32.6204 258.592 39.4896 258.592H65.5823C66.8958 258.592 67.958 259.658 67.958 260.968C67.958 262.278 66.8958 263.344 65.5823 263.344H39.4896C35.2374 263.344 31.7827 266.799 31.7827 271.051V461.85C31.7827 466.099 35.2374 469.557 39.4896 469.557H65.5823C66.8958 469.557 67.958 470.619 67.958 471.933C67.958 473.246 66.8958 474.309 65.5823 474.309Z" fill="black"/>
<path fill-rule="evenodd" clip-rule="evenodd" d="M48.252 295.467C41.9927 295.467 36.876 300.584 36.876 306.843V426.054C36.876 432.314 41.996 437.431 48.252 437.431V295.467Z" fill="#505050" stroke="black" stroke-width="10" stroke-miterlimit="22.9256" stroke-linecap="round" stroke-linejoin="round"/>
</svg>
