<svg width="1406" height="534" viewBox="0 0 1406 534" fill="none" xmlns="http://www.w3.org/2000/svg">
<path d="M235.398 371.249H65.3848V489.914H235.398V371.249Z" fill="#2D2D2D"/>
<path fill-rule="evenodd" clip-rule="evenodd" d="M78.8285 496.16H23.5735L5 475.642V436.972C5 432.833 8.37428 429.459 12.5125 429.459H75.5614C71.8353 438.825 69.8751 448.905 69.8751 459.229C69.8785 472.241 72.9914 484.861 78.8285 496.16Z" fill="#505050" stroke="black" stroke-width="10" stroke-miterlimit="22.9256" stroke-linecap="round" stroke-linejoin="round"/>
<path fill-rule="evenodd" clip-rule="evenodd" d="M396.847 429.455H225.222C221.218 419.386 215.173 410.137 207.326 402.289C192.18 387.143 171.817 378.705 150.392 378.705C128.967 378.705 108.607 387.139 93.4583 402.289C85.6107 410.137 79.5658 419.386 75.5616 429.455H17.2441C22.1095 405.603 26.9748 381.751 31.8369 357.899C32.9393 352.493 36.2868 348.328 41.3297 346.093C85.6341 326.443 129.942 306.789 174.25 287.139C201.297 246.82 228.345 206.505 255.393 166.186C257.407 163.183 260.513 161.528 264.125 161.528C308.366 161.528 352.603 161.528 396.844 161.528C396.847 250.838 396.847 340.145 396.847 429.455Z" fill="white" stroke="black" stroke-width="10" stroke-miterlimit="22.9256" stroke-linecap="round" stroke-linejoin="round"/>
<path fill-rule="evenodd" clip-rule="evenodd" d="M367.601 287.139V178.055C329.938 178.055 304.998 178.055 267.335 178.055L194.153 287.139H367.601Z" fill="#C8C8C8" stroke="black" stroke-width="10" stroke-miterlimit="22.9256" stroke-linecap="round" stroke-linejoin="round"/>
<path fill-rule="evenodd" clip-rule="evenodd" d="M396.847 429.456H225.222C228.948 438.822 230.908 448.901 230.908 459.226C230.908 472.237 227.795 484.861 221.958 496.16H396.847V429.456Z" fill="#505050" stroke="black" stroke-width="10" stroke-miterlimit="22.9256" stroke-linecap="round" stroke-linejoin="round"/>
<path d="M570.547 376.902H396.848V496.157H570.547V376.902Z" fill="#505050" stroke="black" stroke-width="10" stroke-miterlimit="22.9256" stroke-linecap="round" stroke-linejoin="round"/>
<path fill-rule="evenodd" clip-rule="evenodd" d="M570.543 376.902C738.667 376.902 1151.88 376.902 1314.51 376.902V419.832L1263.46 420.924L1242.56 459.222C1048.6 459.222 801.749 459.222 570.543 459.222V376.902Z" fill="#505050" stroke="black" stroke-width="10" stroke-miterlimit="22.9256" stroke-linecap="round" stroke-linejoin="round"/>
<path d="M1353.39 5H396.848V376.906H1353.39V5Z" fill="white" stroke="black" stroke-width="10" stroke-miterlimit="22.9256" stroke-linecap="round" stroke-linejoin="round"/>
<path fill-rule="evenodd" clip-rule="evenodd" d="M367.601 287.139H194.153L194.287 368.491C219.211 380.571 238.404 402.618 246.687 429.452L367.598 429.456L367.601 287.139Z" fill="white" stroke="black" stroke-width="10" stroke-miterlimit="22.9256" stroke-linecap="round" stroke-linejoin="round"/>
<path d="M1405.06 359.594H1353.38V376.905H1405.06V359.594Z" fill="#2D2D2D"/>
<path fill-rule="evenodd" clip-rule="evenodd" d="M342.574 338.617H351.722C354.017 338.617 355.894 340.494 355.894 342.789V374.195C355.894 376.49 354.017 378.37 351.722 378.37H342.574C340.279 378.37 338.402 376.49 338.402 374.195V342.789C338.402 340.494 340.279 338.617 342.574 338.617Z" fill="black"/>
<path fill-rule="evenodd" clip-rule="evenodd" d="M83.1579 361.642H94.4803C95.8172 361.642 96.9096 362.738 96.9096 364.075V369.875C96.9096 371.212 95.8139 372.308 94.4803 372.308H83.1579C81.8209 372.308 80.7285 371.212 80.7285 369.875V364.075C80.7252 362.738 81.8209 361.642 83.1579 361.642Z" fill="#F58220"/>
<path fill-rule="evenodd" clip-rule="evenodd" d="M17.2471 429.456L25.145 390.725H36.3333C38.4209 390.725 40.1465 392.32 40.3141 394.401L43.0885 429.452H17.2471V429.456Z" fill="#C8C8C8" stroke="black" stroke-width="10" stroke-miterlimit="22.9256" stroke-linecap="round" stroke-linejoin="round"/>
<path fill-rule="evenodd" clip-rule="evenodd" d="M382.225 216.38C383.94 216.38 385.348 217.784 385.348 219.5V354.37C385.348 356.089 383.944 357.493 382.225 357.493C380.506 357.493 379.102 356.089 379.102 354.37V219.5C379.102 217.787 380.506 216.38 382.225 216.38Z" fill="#C8C8C8"/>
<path d="M150.392 533.779C191.564 533.779 224.94 500.4 224.94 459.226C224.94 418.051 191.564 384.673 150.392 384.673C109.219 384.673 75.8428 418.051 75.8428 459.226C75.8428 500.4 109.219 533.779 150.392 533.779Z" fill="black"/>
<path d="M150.392 507.131C176.848 507.131 198.295 485.683 198.295 459.226C198.295 432.768 176.848 411.32 150.392 411.32C123.935 411.32 102.488 432.768 102.488 459.226C102.488 485.683 123.935 507.131 150.392 507.131Z" fill="white"/>
<path fill-rule="evenodd" clip-rule="evenodd" d="M150.392 501.15C173.482 501.15 192.314 482.317 192.314 459.226C192.314 436.134 173.482 417.302 150.392 417.302C127.301 417.302 108.47 436.134 108.47 459.226C108.473 482.317 127.305 501.15 150.392 501.15Z" stroke="black" stroke-width="10" stroke-miterlimit="22.9256"/>
<path fill-rule="evenodd" clip-rule="evenodd" d="M150.382 482.629C163.276 482.629 173.794 472.11 173.794 459.216C173.794 446.321 163.276 435.802 150.382 435.802C137.488 435.802 126.97 446.321 126.97 459.216C126.97 472.11 137.485 482.629 150.382 482.629Z" fill="black"/>
<path fill-rule="evenodd" clip-rule="evenodd" d="M133.571 429.858C137.197 427.767 140.689 427.036 141.376 428.226C142.062 429.416 139.683 432.076 136.058 434.167C132.432 436.261 128.941 436.992 128.254 435.802C127.57 434.613 129.949 431.952 133.571 429.858Z" fill="black"/>
<path fill-rule="evenodd" clip-rule="evenodd" d="M116.82 458.874C116.82 454.689 117.936 451.297 119.31 451.297C120.684 451.297 121.796 454.689 121.796 458.874C121.796 463.059 120.684 466.45 119.31 466.45C117.936 466.45 116.82 463.059 116.82 458.874Z" fill="black"/>
<path fill-rule="evenodd" clip-rule="evenodd" d="M133.205 487.997C129.58 485.906 127.201 483.246 127.888 482.053C128.575 480.863 132.069 481.594 135.692 483.685C139.314 485.776 141.696 488.436 141.006 489.629C140.323 490.822 136.831 490.092 133.205 487.997Z" fill="black"/>
<path fill-rule="evenodd" clip-rule="evenodd" d="M166.771 488.209C163.149 490.3 159.654 491.034 158.967 489.841C158.28 488.651 160.659 485.99 164.285 483.899C167.91 481.808 171.402 481.074 172.089 482.267C172.775 483.457 170.396 486.118 166.771 488.209Z" fill="black"/>
<path fill-rule="evenodd" clip-rule="evenodd" d="M183.736 459.246C183.736 463.431 182.623 466.822 181.249 466.822C179.876 466.822 178.76 463.431 178.76 459.246C178.76 455.061 179.872 451.669 181.249 451.669C182.623 451.669 183.736 455.061 183.736 459.246Z" fill="black"/>
<path fill-rule="evenodd" clip-rule="evenodd" d="M167.136 430.069C170.762 432.163 173.141 434.824 172.454 436.014C171.767 437.203 168.272 436.473 164.65 434.382C161.024 432.287 158.645 429.63 159.332 428.437C160.019 427.247 163.514 427.978 167.136 430.069Z" fill="black"/>
<path fill-rule="evenodd" clip-rule="evenodd" d="M137.484 453.04C136.432 453.646 135.085 453.288 134.479 452.236C133.872 451.184 134.231 449.837 135.283 449.23C136.335 448.623 137.682 448.982 138.288 450.034C138.898 451.086 138.536 452.433 137.484 453.04Z" fill="white"/>
<path fill-rule="evenodd" clip-rule="evenodd" d="M137.484 469.205C136.432 469.812 135.085 469.453 134.479 468.401C133.872 467.349 134.231 466.002 135.283 465.395C136.335 464.789 137.682 465.147 138.288 466.199C138.898 467.251 138.54 468.595 137.484 469.205Z" fill="white"/>
<path fill-rule="evenodd" clip-rule="evenodd" d="M151.48 477.281C150.428 477.887 149.081 477.529 148.475 476.477C147.868 475.424 148.227 474.077 149.279 473.471C150.331 472.864 151.678 473.223 152.284 474.275C152.894 475.327 152.532 476.674 151.48 477.281Z" fill="white"/>
<path fill-rule="evenodd" clip-rule="evenodd" d="M165.477 469.202C164.425 469.808 163.078 469.45 162.471 468.397C161.861 467.345 162.223 465.998 163.275 465.392C164.328 464.785 165.675 465.144 166.281 466.196C166.891 467.248 166.529 468.595 165.477 469.202Z" fill="white"/>
<path fill-rule="evenodd" clip-rule="evenodd" d="M165.476 453.04C164.424 453.646 163.077 453.288 162.471 452.236C161.864 451.184 162.223 449.837 163.275 449.23C164.327 448.623 165.674 448.982 166.281 450.034C166.887 451.086 166.529 452.433 165.476 453.04Z" fill="white"/>
<path fill-rule="evenodd" clip-rule="evenodd" d="M151.48 444.961C150.428 445.567 149.081 445.209 148.474 444.156C147.868 443.104 148.227 441.757 149.282 441.151C150.334 440.544 151.681 440.903 152.288 441.955C152.894 443.007 152.532 444.354 151.48 444.961Z" fill="white"/>
<path fill-rule="evenodd" clip-rule="evenodd" d="M294.064 136.834L356.815 43.2949C359.573 39.1866 363.828 36.918 368.774 36.918H396.844V143.245H297.479C294.182 143.241 292.221 139.572 294.064 136.834Z" fill="white" stroke="black" stroke-width="10" stroke-miterlimit="22.9256" stroke-linecap="round" stroke-linejoin="round"/>
<path fill-rule="evenodd" clip-rule="evenodd" d="M964.665 533.782C1005.73 533.782 1039.22 500.292 1039.22 459.226C1039.22 418.159 1005.73 384.67 964.665 384.67C923.604 384.67 890.116 418.159 890.116 459.226C890.116 500.292 923.604 533.782 964.665 533.782Z" fill="black"/>
<path fill-rule="evenodd" clip-rule="evenodd" d="M964.665 507.131C991.049 507.131 1012.57 485.611 1012.57 459.226C1012.57 432.84 991.049 411.32 964.665 411.32C938.28 411.32 916.762 432.84 916.762 459.226C916.765 485.611 938.284 507.131 964.665 507.131Z" fill="white"/>
<path fill-rule="evenodd" clip-rule="evenodd" d="M964.665 501.15C987.756 501.15 1006.59 482.317 1006.59 459.226C1006.59 436.134 987.756 417.302 964.665 417.302C941.575 417.302 922.743 436.134 922.743 459.226C922.747 482.317 941.578 501.15 964.665 501.15Z" stroke="black" stroke-width="10" stroke-miterlimit="22.9256"/>
<path fill-rule="evenodd" clip-rule="evenodd" d="M964.665 477.713C974.848 477.713 983.152 469.409 983.152 459.226C983.152 449.042 974.848 440.739 964.665 440.739C954.482 440.739 946.179 449.042 946.179 459.226C946.182 469.406 954.485 477.713 964.665 477.713Z" fill="black"/>
<path fill-rule="evenodd" clip-rule="evenodd" d="M955.461 455.181C954.409 455.788 953.062 455.429 952.455 454.377C951.849 453.325 952.207 451.977 953.259 451.371C954.311 450.764 955.659 451.123 956.265 452.175C956.875 453.227 956.513 454.574 955.461 455.181Z" fill="white"/>
<path fill-rule="evenodd" clip-rule="evenodd" d="M955.461 467.084C954.409 467.69 953.062 467.328 952.455 466.28C951.849 465.227 952.207 463.88 953.259 463.274C954.311 462.667 955.659 463.026 956.265 464.078C956.875 465.13 956.513 466.474 955.461 467.084Z" fill="white"/>
<path fill-rule="evenodd" clip-rule="evenodd" d="M965.764 473.032C964.712 473.638 963.365 473.28 962.759 472.227C962.152 471.175 962.511 469.828 963.563 469.222C964.615 468.615 965.962 468.974 966.569 470.026C967.179 471.078 966.817 472.425 965.764 473.032Z" fill="white"/>
<path fill-rule="evenodd" clip-rule="evenodd" d="M976.071 467.084C975.019 467.69 973.672 467.332 973.065 466.28C972.459 465.227 972.817 463.88 973.87 463.274C974.922 462.667 976.269 463.026 976.875 464.078C977.482 465.13 977.123 466.474 976.071 467.084Z" fill="white"/>
<path fill-rule="evenodd" clip-rule="evenodd" d="M976.071 455.181C975.019 455.788 973.672 455.426 973.065 454.377C972.459 453.325 972.817 451.977 973.87 451.371C974.922 450.764 976.269 451.123 976.875 452.175C977.485 453.227 977.123 454.574 976.071 455.181Z" fill="white"/>
<path fill-rule="evenodd" clip-rule="evenodd" d="M965.767 449.233C964.715 449.84 963.368 449.481 962.762 448.429C962.155 447.377 962.514 446.03 963.566 445.423C964.618 444.817 965.965 445.175 966.572 446.227C967.178 447.28 966.82 448.623 965.767 449.233Z" fill="white"/>
<path fill-rule="evenodd" clip-rule="evenodd" d="M947.489 429.234C951.192 427.097 954.761 426.349 955.461 427.566C956.161 428.782 953.732 431.5 950.029 433.638C946.327 435.776 942.758 436.523 942.058 435.306C941.357 434.09 943.787 431.372 947.489 429.234Z" fill="black"/>
<path fill-rule="evenodd" clip-rule="evenodd" d="M930.38 458.874C930.38 454.598 931.519 451.136 932.923 451.136C934.327 451.136 935.466 454.601 935.466 458.874C935.466 463.15 934.327 466.611 932.923 466.611C931.516 466.611 930.38 463.146 930.38 458.874Z" fill="black"/>
<path fill-rule="evenodd" clip-rule="evenodd" d="M947.117 488.621C943.415 486.483 940.985 483.765 941.686 482.549C942.386 481.332 945.955 482.079 949.657 484.217C953.36 486.355 955.789 489.07 955.089 490.286C954.385 491.502 950.817 490.755 947.117 488.621Z" fill="black"/>
<path fill-rule="evenodd" clip-rule="evenodd" d="M981.399 488.835C977.697 490.973 974.128 491.72 973.428 490.504C972.728 489.288 975.157 486.57 978.859 484.432C982.562 482.294 986.131 481.547 986.831 482.763C987.531 483.979 985.102 486.697 981.399 488.835Z" fill="black"/>
<path fill-rule="evenodd" clip-rule="evenodd" d="M998.727 459.249C998.727 463.525 997.587 466.987 996.183 466.987C994.779 466.987 993.644 463.525 993.644 459.249C993.644 454.973 994.779 451.512 996.183 451.512C997.591 451.512 998.727 454.977 998.727 459.249Z" fill="black"/>
<path fill-rule="evenodd" clip-rule="evenodd" d="M981.774 429.449C985.477 431.587 987.906 434.305 987.206 435.521C986.506 436.737 982.937 435.99 979.234 433.852C975.532 431.714 973.103 428.997 973.803 427.78C974.503 426.567 978.072 427.314 981.774 429.449Z" fill="black"/>
<path fill-rule="evenodd" clip-rule="evenodd" d="M922.16 376.906C895.434 390.185 877.129 417.295 877.129 448.58C877.129 462.131 880.567 474.895 886.632 486.094C883.727 477.673 882.142 468.635 882.142 459.226C882.142 414.078 918.488 377.422 963.513 376.916V376.906H922.16Z" fill="black" stroke="black" stroke-width="10" stroke-miterlimit="22.9256" stroke-linecap="round" stroke-linejoin="round"/>
<path fill-rule="evenodd" clip-rule="evenodd" d="M1123.47 533.782C1164.53 533.782 1198.02 500.292 1198.02 459.226C1198.02 418.159 1164.53 384.67 1123.47 384.67C1082.41 384.67 1048.92 418.159 1048.92 459.226C1048.92 500.292 1082.41 533.782 1123.47 533.782Z" fill="black"/>
<path fill-rule="evenodd" clip-rule="evenodd" d="M1123.47 507.131C1149.85 507.131 1171.37 485.611 1171.37 459.226C1171.37 432.84 1149.85 411.32 1123.47 411.32C1097.09 411.32 1075.57 432.84 1075.57 459.226C1075.57 485.611 1097.09 507.131 1123.47 507.131Z" fill="white"/>
<path fill-rule="evenodd" clip-rule="evenodd" d="M1123.47 501.15C1146.56 501.15 1165.39 482.317 1165.39 459.226C1165.39 436.134 1146.56 417.302 1123.47 417.302C1100.38 417.302 1081.55 436.134 1081.55 459.226C1081.55 482.317 1100.38 501.15 1123.47 501.15Z" stroke="black" stroke-width="10" stroke-miterlimit="22.9256"/>
<path fill-rule="evenodd" clip-rule="evenodd" d="M1123.47 477.713C1133.65 477.713 1141.96 469.409 1141.96 459.226C1141.96 449.042 1133.65 440.739 1123.47 440.739C1113.29 440.739 1104.98 449.042 1104.98 459.226C1104.98 469.406 1113.29 477.713 1123.47 477.713Z" fill="black"/>
<path fill-rule="evenodd" clip-rule="evenodd" d="M1114.27 455.181C1113.21 455.788 1111.87 455.429 1111.26 454.377C1110.65 453.325 1111.01 451.977 1112.06 451.371C1113.12 450.764 1114.46 451.123 1115.07 452.175C1115.68 453.227 1115.32 454.574 1114.27 455.181Z" fill="white"/>
<path fill-rule="evenodd" clip-rule="evenodd" d="M1114.27 467.084C1113.21 467.69 1111.87 467.328 1111.26 466.28C1110.65 465.227 1111.01 463.88 1112.06 463.274C1113.12 462.667 1114.46 463.026 1115.07 464.078C1115.68 465.13 1115.32 466.474 1114.27 467.084Z" fill="white"/>
<path fill-rule="evenodd" clip-rule="evenodd" d="M1124.57 473.032C1123.52 473.638 1122.17 473.28 1121.56 472.227C1120.96 471.175 1121.32 469.828 1122.37 469.222C1123.42 468.615 1124.77 468.974 1125.37 470.026C1125.98 471.078 1125.62 472.425 1124.57 473.032Z" fill="white"/>
<path fill-rule="evenodd" clip-rule="evenodd" d="M1134.88 467.084C1133.82 467.69 1132.48 467.332 1131.87 466.28C1131.26 465.227 1131.62 463.88 1132.68 463.274C1133.73 462.667 1135.07 463.026 1135.68 464.078C1136.29 465.13 1135.93 466.474 1134.88 467.084Z" fill="white"/>
<path fill-rule="evenodd" clip-rule="evenodd" d="M1134.88 455.181C1133.82 455.788 1132.48 455.426 1131.87 454.377C1131.26 453.325 1131.63 451.977 1132.68 451.371C1133.73 450.764 1135.07 451.123 1135.68 452.175C1136.29 453.227 1135.93 454.574 1134.88 455.181Z" fill="white"/>
<path fill-rule="evenodd" clip-rule="evenodd" d="M1124.57 449.233C1123.52 449.84 1122.17 449.481 1121.57 448.429C1120.96 447.377 1121.32 446.03 1122.37 445.423C1123.42 444.817 1124.77 445.175 1125.38 446.227C1125.98 447.28 1125.63 448.623 1124.57 449.233Z" fill="white"/>
<path fill-rule="evenodd" clip-rule="evenodd" d="M1106.3 429.234C1110 427.097 1113.57 426.349 1114.27 427.566C1114.97 428.782 1112.54 431.5 1108.83 433.638C1105.13 435.776 1101.56 436.523 1100.86 435.306C1100.16 434.09 1102.59 431.372 1106.3 429.234Z" fill="black"/>
<path fill-rule="evenodd" clip-rule="evenodd" d="M1089.19 458.874C1089.19 454.598 1090.32 451.136 1091.73 451.136C1093.13 451.136 1094.27 454.601 1094.27 458.874C1094.27 463.15 1093.13 466.611 1091.73 466.611C1090.32 466.611 1089.19 463.146 1089.19 458.874Z" fill="black"/>
<path fill-rule="evenodd" clip-rule="evenodd" d="M1105.92 488.621C1102.22 486.483 1099.79 483.765 1100.49 482.549C1101.19 481.332 1104.76 482.079 1108.46 484.217C1112.17 486.355 1114.59 489.07 1113.89 490.286C1113.19 491.502 1109.62 490.755 1105.92 488.621Z" fill="black"/>
<path fill-rule="evenodd" clip-rule="evenodd" d="M1140.21 488.835C1136.5 490.973 1132.93 491.72 1132.23 490.504C1131.53 489.288 1133.96 486.57 1137.67 484.432C1141.37 482.294 1144.94 481.547 1145.64 482.763C1146.34 483.979 1143.91 486.697 1140.21 488.835Z" fill="black"/>
<path fill-rule="evenodd" clip-rule="evenodd" d="M1157.54 459.249C1157.54 463.525 1156.4 466.987 1154.99 466.987C1153.59 466.987 1152.45 463.525 1152.45 459.249C1152.45 454.973 1153.59 451.512 1154.99 451.512C1156.4 451.512 1157.54 454.977 1157.54 459.249Z" fill="black"/>
<path fill-rule="evenodd" clip-rule="evenodd" d="M1140.58 429.449C1144.28 431.587 1146.71 434.305 1146.01 435.521C1145.31 436.737 1141.74 435.99 1138.04 433.852C1134.34 431.714 1131.91 428.997 1132.61 427.78C1133.31 426.567 1136.88 427.314 1140.58 429.449Z" fill="black"/>
<path fill-rule="evenodd" clip-rule="evenodd" d="M1165.77 376.906C1192.49 390.185 1210.8 417.295 1210.8 448.58C1210.8 462.131 1207.37 474.895 1201.3 486.094C1204.21 477.673 1205.79 468.635 1205.79 459.226C1205.79 414.078 1169.44 377.422 1124.42 376.916V376.906H1165.77Z" fill="black" stroke="black" stroke-width="10" stroke-miterlimit="22.9256" stroke-linecap="round" stroke-linejoin="round"/>
<path d="M243.262 304.484C241.949 304.484 240.887 303.422 240.887 302.108V183.349C240.887 179.12 244.328 175.682 248.557 175.682H267.335C268.648 175.682 269.71 176.744 269.71 178.058C269.71 179.372 268.648 180.434 267.335 180.434H248.557C246.948 180.434 245.638 181.744 245.638 183.349V302.108C245.638 303.422 244.576 304.484 243.262 304.484Z" fill="black"/>
<path fill-rule="evenodd" clip-rule="evenodd" d="M241.3 216.755H246.738C247.763 216.755 248.594 217.589 248.594 218.612V226.721C248.594 227.743 247.76 228.577 246.738 228.577H241.3C240.278 228.577 239.443 227.743 239.443 226.721V218.612C239.443 217.589 240.278 216.755 241.3 216.755Z" fill="black"/>
<path fill-rule="evenodd" clip-rule="evenodd" d="M255.812 184.334C259.488 184.334 260.393 191.76 260.393 198.925V247.132C260.393 254.296 259.484 261.722 255.812 261.722C246.185 261.722 246.185 184.334 255.812 184.334Z" fill="#505050" stroke="black" stroke-width="10" stroke-miterlimit="22.9256" stroke-linecap="round" stroke-linejoin="round"/>
<path fill-rule="evenodd" clip-rule="evenodd" d="M255.812 268.548C259.488 268.548 260.393 271.427 260.393 274.201V292.883C260.393 295.658 259.484 298.536 255.812 298.536C246.185 298.536 246.185 268.548 255.812 268.548Z" fill="#505050" stroke="black" stroke-width="10" stroke-miterlimit="22.9256" stroke-linecap="round" stroke-linejoin="round"/>
<path fill-rule="evenodd" clip-rule="evenodd" d="M267.335 182.719C269.905 182.719 272 180.622 272 178.055C272 175.484 269.902 173.39 267.335 173.39C264.765 173.39 262.671 175.488 262.671 178.055C262.671 180.625 264.768 182.719 267.335 182.719Z" fill="black"/>
<path fill-rule="evenodd" clip-rule="evenodd" d="M241.3 277.633H246.738C247.763 277.633 248.594 278.467 248.594 279.489V287.598C248.594 288.62 247.76 289.455 246.738 289.455H241.3C240.278 289.455 239.443 288.62 239.443 287.598V279.489C239.443 278.467 240.278 277.633 241.3 277.633Z" fill="black"/>
<path fill-rule="evenodd" clip-rule="evenodd" d="M243.263 306.776C245.833 306.776 247.927 304.678 247.927 302.111C247.927 299.541 245.83 297.447 243.263 297.447C240.693 297.447 238.599 299.544 238.599 302.111C238.599 304.678 240.696 306.776 243.263 306.776Z" fill="black"/>
</svg>
