<svg width="1159" height="545" viewBox="0 0 1159 545" fill="none" xmlns="http://www.w3.org/2000/svg">
<path d="M235.395 371.249H65.3818V489.914H235.395V371.249Z" fill="#2D2D2D"/>
<path fill-rule="evenodd" clip-rule="evenodd" d="M78.8251 496.16H23.5702L5 475.642V436.972C5 432.833 8.37427 429.459 12.5125 429.459H75.5614C71.8353 438.825 69.875 448.905 69.875 459.229C69.875 472.241 72.9879 484.861 78.8251 496.16Z" fill="#505050" stroke="black" stroke-width="9" stroke-miterlimit="22.9256" stroke-linecap="round" stroke-linejoin="round"/>
<path fill-rule="evenodd" clip-rule="evenodd" d="M396.844 429.455H225.219C221.215 419.386 215.17 410.137 207.322 402.289C192.177 387.143 171.814 378.705 150.389 378.705C128.964 378.705 108.604 387.139 93.455 402.289C85.6074 410.137 79.5625 419.386 75.5583 429.455H17.2441C22.1095 405.603 26.9715 381.751 31.8369 357.899C32.9393 352.493 36.2834 348.328 41.3298 346.093C85.6342 326.443 129.942 306.789 174.25 287.139C201.297 246.82 228.345 206.505 255.393 166.186C257.407 163.183 260.513 161.528 264.125 161.528C308.366 161.528 352.603 161.528 396.844 161.528C396.844 250.838 396.844 340.145 396.844 429.455Z" fill="white" stroke="black" stroke-width="9" stroke-miterlimit="22.9256" stroke-linecap="round" stroke-linejoin="round"/>
<path fill-rule="evenodd" clip-rule="evenodd" d="M367.597 287.139V178.055C329.934 178.055 304.994 178.055 267.331 178.055L194.149 287.139H367.597Z" fill="#C8C8C8" stroke="black" stroke-width="9" stroke-miterlimit="22.9256" stroke-linecap="round" stroke-linejoin="round"/>
<path fill-rule="evenodd" clip-rule="evenodd" d="M396.844 429.456H225.219C228.945 438.822 230.905 448.901 230.905 459.226C230.905 472.237 227.792 484.861 221.955 496.16H396.844V429.456Z" fill="#505050" stroke="black" stroke-width="9" stroke-miterlimit="22.9256" stroke-linecap="round" stroke-linejoin="round"/>
<path d="M570.543 376.902H396.844V496.157H570.543V376.902Z" fill="#505050" stroke="black" stroke-width="9" stroke-miterlimit="22.9256" stroke-linecap="round" stroke-linejoin="round"/>
<path fill-rule="evenodd" clip-rule="evenodd" d="M570.54 376.902C738.66 376.902 896.024 376.902 1058.66 376.902V419.832L1007.61 420.924L986.711 459.222C866.728 459.222 729.469 459.222 570.54 459.222V376.902Z" fill="#505050" stroke="black" stroke-width="9" stroke-miterlimit="22.9256" stroke-linecap="round" stroke-linejoin="round"/>
<path d="M1106.35 5H396.841V376.906H1106.35V5Z" fill="white" stroke="black" stroke-width="9" stroke-miterlimit="22.9256" stroke-linecap="round" stroke-linejoin="round"/>
<path fill-rule="evenodd" clip-rule="evenodd" d="M367.597 287.139H194.149L194.283 368.491C219.207 380.571 238.4 402.618 246.687 429.452L367.601 429.456L367.597 287.139Z" fill="white" stroke="black" stroke-width="9" stroke-miterlimit="22.9256" stroke-linecap="round" stroke-linejoin="round"/>
<path d="M1158.03 359.594H1106.35V376.905H1158.03V359.594Z" fill="#2D2D2D"/>
<path fill-rule="evenodd" clip-rule="evenodd" d="M342.57 338.617H351.715C354.01 338.617 355.886 340.494 355.886 342.789V374.195C355.886 376.49 354.01 378.37 351.715 378.37H342.57C340.275 378.37 338.398 376.49 338.398 374.195V342.789C338.398 340.494 340.275 338.617 342.57 338.617Z" fill="black"/>
<path fill-rule="evenodd" clip-rule="evenodd" d="M83.151 361.642H94.4734C95.8104 361.642 96.9061 362.738 96.9061 364.075V369.875C96.9061 371.212 95.8104 372.308 94.4734 372.308H83.151C81.8141 372.308 80.7217 371.212 80.7217 369.875V364.075C80.7217 362.738 81.8174 361.642 83.151 361.642Z" fill="#F58220"/>
<path fill-rule="evenodd" clip-rule="evenodd" d="M17.2441 429.456L25.142 390.725H36.3304C38.4179 390.725 40.1436 392.32 40.3111 394.401L43.0856 429.452H17.2441V429.456Z" fill="#C8C8C8" stroke="black" stroke-width="9" stroke-miterlimit="22.9256" stroke-linecap="round" stroke-linejoin="round"/>
<path fill-rule="evenodd" clip-rule="evenodd" d="M382.221 216.38C383.936 216.38 385.344 217.784 385.344 219.5V354.37C385.344 356.089 383.94 357.493 382.221 357.493C380.502 357.493 379.098 356.089 379.098 354.37V219.5C379.098 217.787 380.502 216.38 382.221 216.38Z" fill="#C8C8C8"/>
<path d="M150.392 533.779C191.564 533.779 224.94 500.4 224.94 459.226C224.94 418.051 191.564 384.673 150.392 384.673C109.219 384.673 75.8428 418.051 75.8428 459.226C75.8428 500.4 109.219 533.779 150.392 533.779Z" fill="black"/>
<path d="M150.391 507.131C176.848 507.131 198.295 485.683 198.295 459.226C198.295 432.768 176.848 411.32 150.391 411.32C123.935 411.32 102.488 432.768 102.488 459.226C102.488 485.683 123.935 507.131 150.391 507.131Z" fill="white"/>
<path fill-rule="evenodd" clip-rule="evenodd" d="M150.392 501.15C173.482 501.15 192.314 482.317 192.314 459.226C192.314 436.134 173.482 417.302 150.392 417.302C127.301 417.302 108.47 436.134 108.47 459.226C108.47 482.317 127.301 501.15 150.392 501.15Z" stroke="black" stroke-width="9" stroke-miterlimit="22.9256"/>
<path fill-rule="evenodd" clip-rule="evenodd" d="M150.378 482.629C163.275 482.629 173.79 472.11 173.79 459.216C173.79 446.321 163.272 435.802 150.378 435.802C137.481 435.802 126.966 446.321 126.966 459.216C126.966 472.11 137.481 482.629 150.378 482.629Z" fill="black"/>
<path fill-rule="evenodd" clip-rule="evenodd" d="M133.568 429.858C137.193 427.767 140.685 427.036 141.372 428.226C142.059 429.416 139.679 432.076 136.054 434.167C132.432 436.261 128.937 436.992 128.25 435.802C127.563 434.613 129.945 431.952 133.568 429.858Z" fill="black"/>
<path fill-rule="evenodd" clip-rule="evenodd" d="M116.816 458.874C116.816 454.689 117.932 451.297 119.306 451.297C120.68 451.297 121.796 454.689 121.796 458.874C121.796 463.059 120.68 466.45 119.306 466.45C117.929 466.45 116.816 463.059 116.816 458.874Z" fill="black"/>
<path fill-rule="evenodd" clip-rule="evenodd" d="M133.201 487.997C129.576 485.906 127.197 483.246 127.884 482.053C128.571 480.863 132.062 481.594 135.688 483.685C139.31 485.776 141.692 488.436 141.006 489.629C140.319 490.822 136.827 490.092 133.201 487.997Z" fill="black"/>
<path fill-rule="evenodd" clip-rule="evenodd" d="M166.767 488.209C163.145 490.3 159.65 491.034 158.963 489.841C158.276 488.651 160.655 485.99 164.281 483.899C167.903 481.808 171.398 481.074 172.085 482.267C172.772 483.457 170.389 486.118 166.767 488.209Z" fill="black"/>
<path fill-rule="evenodd" clip-rule="evenodd" d="M183.732 459.246C183.732 463.431 182.616 466.822 181.243 466.822C179.869 466.822 178.753 463.431 178.753 459.246C178.753 455.061 179.869 451.669 181.243 451.669C182.616 451.669 183.732 455.061 183.732 459.246Z" fill="black"/>
<path fill-rule="evenodd" clip-rule="evenodd" d="M167.132 430.069C170.754 432.163 173.137 434.824 172.45 436.014C171.763 437.203 168.268 436.473 164.646 434.382C161.02 432.287 158.641 429.63 159.328 428.437C160.015 427.247 163.51 427.978 167.132 430.069Z" fill="black"/>
<path fill-rule="evenodd" clip-rule="evenodd" d="M137.481 453.04C136.429 453.646 135.082 453.288 134.476 452.236C133.869 451.184 134.228 449.837 135.28 449.23C136.332 448.623 137.679 448.982 138.285 450.034C138.895 451.086 138.533 452.433 137.481 453.04Z" fill="white"/>
<path fill-rule="evenodd" clip-rule="evenodd" d="M137.481 469.205C136.429 469.812 135.082 469.453 134.476 468.401C133.869 467.349 134.228 466.002 135.28 465.395C136.332 464.789 137.679 465.147 138.285 466.199C138.895 467.251 138.533 468.595 137.481 469.205Z" fill="white"/>
<path fill-rule="evenodd" clip-rule="evenodd" d="M151.477 477.281C150.425 477.887 149.078 477.529 148.472 476.477C147.865 475.424 148.224 474.077 149.276 473.471C150.328 472.864 151.675 473.223 152.282 474.275C152.888 475.327 152.53 476.674 151.477 477.281Z" fill="white"/>
<path fill-rule="evenodd" clip-rule="evenodd" d="M165.474 469.202C164.422 469.808 163.075 469.45 162.469 468.397C161.862 467.345 162.221 465.998 163.273 465.392C164.325 464.785 165.672 465.144 166.279 466.196C166.885 467.248 166.527 468.595 165.474 469.202Z" fill="white"/>
<path fill-rule="evenodd" clip-rule="evenodd" d="M165.47 453.04C164.418 453.646 163.071 453.288 162.465 452.236C161.858 451.184 162.217 449.837 163.269 449.23C164.321 448.623 165.668 448.982 166.275 450.034C166.885 451.086 166.523 452.433 165.47 453.04Z" fill="white"/>
<path fill-rule="evenodd" clip-rule="evenodd" d="M151.477 444.961C150.425 445.567 149.078 445.209 148.472 444.156C147.865 443.104 148.224 441.757 149.276 441.151C150.328 440.544 151.675 440.903 152.282 441.955C152.891 443.007 152.53 444.354 151.477 444.961Z" fill="white"/>
<path d="M879.356 532.751C919.997 526.172 947.61 487.888 941.03 447.244C934.451 406.599 896.171 378.983 855.529 385.563C814.888 392.142 787.276 430.426 793.856 471.071C800.435 511.716 838.715 539.331 879.356 532.751Z" fill="black"/>
<path fill-rule="evenodd" clip-rule="evenodd" d="M867.512 507.131C893.896 507.131 915.415 485.611 915.415 459.226C915.415 432.84 893.896 411.32 867.512 411.32C841.127 411.32 819.608 432.84 819.608 459.226C819.608 485.611 841.131 507.131 867.512 507.131Z" fill="white"/>
<path fill-rule="evenodd" clip-rule="evenodd" d="M867.512 501.15C890.602 501.15 909.434 482.317 909.434 459.226C909.434 436.134 890.602 417.302 867.512 417.302C844.421 417.302 825.59 436.134 825.59 459.226C825.59 482.317 844.425 501.15 867.512 501.15Z" stroke="black" stroke-width="9" stroke-miterlimit="22.9256"/>
<path d="M867.512 477.713C877.722 477.713 885.998 469.436 885.998 459.226C885.998 449.015 877.722 440.738 867.512 440.738C857.302 440.738 849.025 449.015 849.025 459.226C849.025 469.436 857.302 477.713 867.512 477.713Z" fill="black"/>
<path fill-rule="evenodd" clip-rule="evenodd" d="M858.307 455.181C857.255 455.788 855.912 455.429 855.302 454.377C854.695 453.325 855.054 451.977 856.106 451.371C857.158 450.764 858.502 451.123 859.112 452.175C859.718 453.227 859.36 454.574 858.307 455.181Z" fill="white"/>
<path fill-rule="evenodd" clip-rule="evenodd" d="M858.307 467.084C857.255 467.69 855.908 467.328 855.302 466.28C854.695 465.227 855.054 463.88 856.106 463.274C857.158 462.667 858.505 463.026 859.112 464.078C859.721 465.13 859.36 466.474 858.307 467.084Z" fill="white"/>
<path fill-rule="evenodd" clip-rule="evenodd" d="M868.611 473.032C867.559 473.638 866.212 473.28 865.605 472.227C864.999 471.175 865.358 469.828 866.41 469.222C867.462 468.615 868.806 468.974 869.415 470.026C870.025 471.078 869.663 472.425 868.611 473.032Z" fill="white"/>
<path fill-rule="evenodd" clip-rule="evenodd" d="M878.918 467.084C877.866 467.69 876.519 467.332 875.912 466.28C875.306 465.227 875.668 463.88 876.717 463.274C877.769 462.667 879.112 463.026 879.722 464.078C880.329 465.13 879.97 466.474 878.918 467.084Z" fill="white"/>
<path fill-rule="evenodd" clip-rule="evenodd" d="M878.918 455.181C877.866 455.788 876.519 455.426 875.912 454.377C875.306 453.325 875.664 451.977 876.716 451.371C877.768 450.764 879.115 451.123 879.722 452.175C880.328 453.227 879.97 454.574 878.918 455.181Z" fill="white"/>
<path fill-rule="evenodd" clip-rule="evenodd" d="M868.611 449.233C867.559 449.84 866.212 449.481 865.605 448.429C864.999 447.377 865.358 446.03 866.41 445.423C867.462 444.817 868.809 445.175 869.415 446.227C870.025 447.28 869.667 448.623 868.611 449.233Z" fill="white"/>
<path fill-rule="evenodd" clip-rule="evenodd" d="M850.335 429.234C854.038 427.097 857.606 426.349 858.307 427.566C859.007 428.782 856.578 431.5 852.875 433.638C849.172 435.776 845.604 436.523 844.903 435.306C844.203 434.09 846.632 431.372 850.335 429.234Z" fill="black"/>
<path fill-rule="evenodd" clip-rule="evenodd" d="M833.223 458.874C833.223 454.598 834.362 451.136 835.766 451.136C837.17 451.136 838.309 454.601 838.309 458.874C838.309 463.15 837.17 466.611 835.766 466.611C834.362 466.611 833.223 463.146 833.223 458.874Z" fill="black"/>
<path fill-rule="evenodd" clip-rule="evenodd" d="M849.96 488.621C846.257 486.483 843.828 483.765 844.528 482.549C845.229 481.332 848.797 482.079 852.5 484.217C856.203 486.355 858.632 489.07 857.932 490.286C857.231 491.502 853.663 490.755 849.96 488.621Z" fill="black"/>
<path fill-rule="evenodd" clip-rule="evenodd" d="M884.245 488.835C880.542 490.973 876.974 491.72 876.274 490.504C875.57 489.288 878.003 486.57 881.705 484.432C885.408 482.294 888.976 481.547 889.677 482.763C890.377 483.979 887.944 486.697 884.245 488.835Z" fill="black"/>
<path fill-rule="evenodd" clip-rule="evenodd" d="M901.572 459.249C901.572 463.525 900.433 466.987 899.033 466.987C897.629 466.987 896.489 463.525 896.489 459.249C896.489 454.973 897.629 451.512 899.033 451.512C900.437 451.512 901.572 454.977 901.572 459.249Z" fill="black"/>
<path fill-rule="evenodd" clip-rule="evenodd" d="M884.617 429.449C888.32 431.587 890.749 434.305 890.049 435.521C889.345 436.737 885.777 435.99 882.077 433.852C878.375 431.714 875.945 428.997 876.646 427.78C877.349 426.567 880.915 427.314 884.617 429.449Z" fill="black"/>
<path fill-rule="evenodd" clip-rule="evenodd" d="M909.812 376.906C936.538 390.185 954.844 417.295 954.844 448.58C954.844 462.131 951.406 474.895 945.341 486.094C948.249 477.673 949.831 468.635 949.831 459.226C949.831 414.078 913.485 377.422 868.46 376.916V376.906H909.812Z" fill="black" stroke="black" stroke-width="9" stroke-miterlimit="22.9256" stroke-linecap="round" stroke-linejoin="round"/>
<path fill-rule="evenodd" clip-rule="evenodd" d="M825.003 376.906C798.28 390.185 779.972 417.295 779.972 448.58C779.972 462.131 783.41 474.895 789.475 486.094C786.566 477.673 784.984 468.635 784.984 459.226C784.984 414.078 821.331 377.422 866.356 376.916V376.906H825.003Z" fill="black" stroke="black" stroke-width="9" stroke-miterlimit="22.9256" stroke-linecap="round" stroke-linejoin="round"/>
<path d="M243.26 304.484C241.946 304.484 240.884 303.422 240.884 302.108V183.349C240.884 179.12 244.325 175.682 248.554 175.682H267.332C268.645 175.682 269.707 176.744 269.707 178.058C269.707 179.372 268.645 180.434 267.332 180.434H248.554C246.945 180.434 245.635 181.744 245.635 183.349V302.108C245.635 303.422 244.57 304.484 243.26 304.484Z" fill="black"/>
<path fill-rule="evenodd" clip-rule="evenodd" d="M241.296 216.755H246.734C247.759 216.755 248.59 217.589 248.59 218.612V226.721C248.59 227.743 247.756 228.577 246.734 228.577H241.296C240.274 228.577 239.439 227.743 239.439 226.721V218.612C239.439 217.589 240.274 216.755 241.296 216.755Z" fill="black"/>
<path fill-rule="evenodd" clip-rule="evenodd" d="M255.808 184.334C259.484 184.334 260.389 191.76 260.389 198.925V247.132C260.389 254.296 259.481 261.722 255.808 261.722C246.181 261.722 246.181 184.334 255.808 184.334Z" fill="#505050" stroke="black" stroke-width="9" stroke-miterlimit="22.9256" stroke-linecap="round" stroke-linejoin="round"/>
<path fill-rule="evenodd" clip-rule="evenodd" d="M255.808 268.548C259.484 268.548 260.389 271.427 260.389 274.201V292.883C260.389 295.658 259.481 298.536 255.808 298.536C246.181 298.536 246.181 268.548 255.808 268.548Z" fill="#505050" stroke="black" stroke-width="9" stroke-miterlimit="22.9256" stroke-linecap="round" stroke-linejoin="round"/>
<path fill-rule="evenodd" clip-rule="evenodd" d="M267.332 182.719C269.902 182.719 271.997 180.622 271.997 178.055C271.997 175.484 269.902 173.39 267.332 173.39C264.762 173.39 262.668 175.488 262.668 178.055C262.668 180.625 264.766 182.719 267.332 182.719Z" fill="black"/>
<path fill-rule="evenodd" clip-rule="evenodd" d="M241.296 277.633H246.734C247.759 277.633 248.59 278.467 248.59 279.489V287.598C248.59 288.62 247.756 289.455 246.734 289.455H241.296C240.274 289.455 239.439 288.62 239.439 287.598V279.489C239.439 278.467 240.274 277.633 241.296 277.633Z" fill="black"/>
<path fill-rule="evenodd" clip-rule="evenodd" d="M243.263 306.776C245.833 306.776 247.927 304.678 247.927 302.111C247.927 299.541 245.833 297.447 243.263 297.447C240.693 297.447 238.599 299.544 238.599 302.111C238.595 304.678 240.693 306.776 243.263 306.776Z" fill="black"/>
</svg>
