<svg width="3000" height="2000" viewBox="0 0 3000 2000" fill="none" xmlns="http://www.w3.org/2000/svg">
<path fill-rule="evenodd" clip-rule="evenodd" d="M679.898 810.249C967.177 810.249 1267.63 810.249 1554.91 810.249C1549.89 782.478 1544.88 754.706 1539.86 726.934C1539.24 723.465 1536.28 721 1532.76 721C1286.43 721 1027.97 721 781.23 721C768.69 721 757.902 725.727 749.4 734.942C726.23 760.044 703.064 785.147 679.898 810.249Z" fill="white" stroke="black" stroke-width="10" stroke-miterlimit="22.9256" stroke-linecap="round" stroke-linejoin="round"/>
<path d="M1435.56 1085.97H1234.68V1223.83H1435.56V1085.97Z" fill="#2D2D2D"/>
<path d="M672.111 1085.97H471.23V1223.83H672.111V1085.97Z" fill="#2D2D2D"/>
<path fill-rule="evenodd" clip-rule="evenodd" d="M501.246 1232.24L418.236 1232.24C415.689 1228.16 413.142 1224.08 410.595 1219.99C403.011 1214.22 395.427 1208.45 387.847 1202.68C385.993 1201.26 385 1199.26 385 1196.93C385 1183.08 385 1169.23 385 1155.39C385 1151.41 388.245 1148.17 392.218 1148.17H491.802C487.376 1158.69 485.043 1170.08 485.043 1181.78C485.038 1200.06 490.753 1217.62 501.246 1232.24Z" fill="#505050" stroke="black" stroke-width="10" stroke-miterlimit="22.9256" stroke-linecap="round" stroke-linejoin="round"/>
<path fill-rule="evenodd" clip-rule="evenodd" d="M491.796 1148.18L395.68 1148.17C399.199 1126.87 402.724 1105.58 406.244 1084.28C407.105 1079.07 409.468 1074.86 413.467 1071.41C455.035 1035.55 496.604 999.695 538.178 963.834L679.897 810.254C971.566 810.254 1263.24 810.254 1554.91 810.254C1558.89 810.254 1562.15 813.514 1562.15 817.498C1562.15 927.724 1562.15 1037.95 1562.15 1148.18H1414.99C1410.69 1137.95 1404.41 1128.55 1396.38 1120.52C1380.09 1104.23 1358.17 1095.15 1335.13 1095.15C1312.08 1095.15 1290.17 1104.23 1273.87 1120.52C1257.57 1136.82 1248.49 1158.73 1248.49 1181.78C1248.49 1200.07 1254.21 1217.64 1264.7 1232.25H642.092C652.585 1217.64 658.3 1200.07 658.3 1181.78C658.3 1158.74 649.223 1136.82 632.929 1120.52C616.635 1104.23 594.722 1095.15 571.668 1095.15C548.62 1095.15 526.707 1104.23 510.408 1120.52C502.375 1128.55 496.1 1137.95 491.796 1148.18Z" fill="white" stroke="black" stroke-width="10" stroke-miterlimit="22.9256" stroke-linecap="round" stroke-linejoin="round"/>
<path fill-rule="evenodd" clip-rule="evenodd" d="M563.719 963.834H850.136V830.467C850.136 829.968 850.07 829.484 849.953 829.025H688.119L563.719 963.834Z" fill="#C8C8C8" stroke="black" stroke-width="10" stroke-miterlimit="22.9256" stroke-linecap="round" stroke-linejoin="round"/>
<path fill-rule="evenodd" clip-rule="evenodd" d="M1562.15 1148.17H1414.99C1419.42 1158.69 1421.75 1170.08 1421.75 1181.78C1421.75 1199.85 1416.16 1217.23 1405.89 1231.75L1535.63 1225.01C1538.09 1224.88 1540.16 1223.65 1541.43 1221.53C1550.74 1206.12 1582.91 1148.17 1562.15 1148.17Z" fill="#505050" stroke="black" stroke-width="10" stroke-miterlimit="22.9256" stroke-linecap="round" stroke-linejoin="round"/>
<path fill-rule="evenodd" clip-rule="evenodd" d="M395.68 1148.17C398.379 1131.84 401.079 1115.51 403.784 1099.18C408.001 1099.18 412.219 1099.18 416.436 1099.18C418.611 1099.18 420.424 1100.75 420.725 1102.91C422.844 1117.99 424.958 1133.08 427.077 1148.17C416.609 1148.17 406.142 1148.17 395.68 1148.17Z" fill="#C8C8C8" stroke="black" stroke-width="10" stroke-miterlimit="22.9256" stroke-linecap="round" stroke-linejoin="round"/>
<path fill-rule="evenodd" clip-rule="evenodd" d="M850.136 963.834H563.719V1063.31C563.719 1066.46 566.271 1069.05 569.429 1069.08C580.09 1069.21 589.925 1069.86 601.666 1073.1C649.352 1086.23 684.381 1129.91 684.381 1181.78C684.381 1183.41 684.381 1185.04 684.381 1186.68C684.381 1189.86 686.973 1192.46 690.157 1192.46H844.365C847.549 1192.46 850.141 1189.86 850.141 1186.68C850.136 1112.39 850.136 1038.11 850.136 963.834Z" fill="white" stroke="black" stroke-width="10" stroke-miterlimit="22.9256" stroke-linecap="round" stroke-linejoin="round"/>
<path fill-rule="evenodd" clip-rule="evenodd" d="M824.691 1002.66H831.114C833.605 1002.66 835.637 1004.69 835.637 1007.18V1040.31C835.637 1042.79 833.605 1044.83 831.114 1044.83H824.691C822.205 1044.83 820.168 1042.8 820.168 1040.31V1007.18C820.168 1004.69 822.205 1002.66 824.691 1002.66Z" fill="black"/>
<path fill-rule="evenodd" clip-rule="evenodd" d="M518.125 1033.32H526.504C529.84 1033.32 532.57 1036.05 532.57 1039.39C532.57 1042.72 529.84 1045.45 526.504 1045.45H518.125C514.789 1045.45 512.059 1042.72 512.059 1039.39C512.059 1036.05 514.789 1033.32 518.125 1033.32Z" fill="#F58220"/>
<path d="M1532.58 1027.36H879.705C877.708 1027.36 876.094 1025.75 876.094 1023.75C876.094 1021.75 877.708 1020.14 879.705 1020.14H1532.58C1534.57 1020.14 1536.19 1021.75 1536.19 1023.75C1536.19 1025.75 1534.57 1027.36 1532.58 1027.36Z" fill="black"/>
<path fill-rule="evenodd" clip-rule="evenodd" d="M1562.15 1079.4H1543.04C1540.16 1079.4 1537.82 1081.75 1537.82 1084.63V1148.17H1562.15V1079.4Z" fill="#ED1C24" stroke="black" stroke-width="10" stroke-miterlimit="22.9256" stroke-linecap="round" stroke-linejoin="round"/>
<path fill-rule="evenodd" clip-rule="evenodd" d="M599.247 963.834H563.719L599.247 925.33V963.834Z" fill="black" stroke="black" stroke-width="10" stroke-miterlimit="22.9256" stroke-linecap="round" stroke-linejoin="round"/>
<path fill-rule="evenodd" clip-rule="evenodd" d="M571.676 1259.38C614.422 1259.38 649.282 1224.52 649.282 1181.78C649.282 1139.03 614.422 1104.17 571.676 1104.17C528.931 1104.17 494.07 1139.03 494.07 1181.78C494.065 1224.52 528.931 1259.38 571.676 1259.38Z" fill="black"/>
<path fill-rule="evenodd" clip-rule="evenodd" d="M571.675 1231.76C599.206 1231.76 621.658 1209.31 621.658 1181.77C621.658 1154.24 599.206 1131.78 571.675 1131.78C544.144 1131.78 521.691 1154.24 521.691 1181.77C521.691 1209.31 544.144 1231.76 571.675 1231.76Z" fill="white" stroke="black" stroke-width="10" stroke-miterlimit="22.9256"/>
<path fill-rule="evenodd" clip-rule="evenodd" d="M571.677 1225.52C595.77 1225.52 615.421 1205.87 615.421 1181.77C615.421 1157.68 595.77 1138.03 571.677 1138.03C547.585 1138.03 527.934 1157.68 527.934 1181.77C527.934 1205.87 547.585 1225.52 571.677 1225.52Z" stroke="black" stroke-width="10" stroke-miterlimit="22.9256" stroke-linecap="round" stroke-linejoin="round"/>
<path fill-rule="evenodd" clip-rule="evenodd" d="M571.675 1206.35C585.214 1206.35 596.252 1195.31 596.252 1181.77C596.252 1168.24 585.209 1157.19 571.675 1157.19C558.137 1157.19 547.094 1168.24 547.094 1181.77C547.094 1195.31 558.137 1206.35 571.675 1206.35Z" stroke="black" stroke-width="10" stroke-miterlimit="22.9256" stroke-linecap="round" stroke-linejoin="round"/>
<path fill-rule="evenodd" clip-rule="evenodd" d="M571.679 1170.47C573.701 1170.47 575.346 1168.82 575.346 1166.8C575.346 1164.79 573.701 1163.14 571.679 1163.14C569.657 1163.14 568.012 1164.79 568.012 1166.8C568.012 1168.83 569.657 1170.47 571.679 1170.47Z" fill="black"/>
<path fill-rule="evenodd" clip-rule="evenodd" d="M557.538 1180.75C559.561 1180.75 561.206 1179.1 561.206 1177.08C561.206 1175.06 559.561 1173.41 557.538 1173.41C555.516 1173.41 553.871 1175.06 553.871 1177.08C553.871 1179.1 555.521 1180.75 557.538 1180.75Z" fill="black"/>
<path fill-rule="evenodd" clip-rule="evenodd" d="M562.937 1197.36C564.954 1197.36 566.604 1195.72 566.604 1193.69C566.604 1191.67 564.959 1190.03 562.937 1190.03C560.92 1190.03 559.27 1191.67 559.27 1193.69C559.275 1195.72 560.92 1197.36 562.937 1197.36Z" fill="black"/>
<path fill-rule="evenodd" clip-rule="evenodd" d="M580.413 1197.36C582.431 1197.36 584.081 1195.72 584.081 1193.69C584.081 1191.67 582.436 1190.03 580.413 1190.03C578.391 1190.03 576.746 1191.67 576.746 1193.69C576.746 1195.72 578.391 1197.36 580.413 1197.36Z" fill="black"/>
<path fill-rule="evenodd" clip-rule="evenodd" d="M585.812 1180.75C587.834 1180.75 589.479 1179.1 589.479 1177.08C589.479 1175.06 587.834 1173.41 585.812 1173.41C583.79 1173.41 582.145 1175.06 582.145 1177.08C582.145 1179.1 583.79 1180.75 585.812 1180.75Z" fill="black"/>
<path fill-rule="evenodd" clip-rule="evenodd" d="M571.674 1152.51C574.42 1152.51 576.661 1150.26 576.661 1147.52C576.661 1144.77 574.42 1142.53 571.674 1142.53C568.929 1142.53 566.688 1144.77 566.688 1147.52C566.682 1150.26 568.924 1152.51 571.674 1152.51Z" fill="black"/>
<path fill-rule="evenodd" clip-rule="evenodd" d="M551.537 1159.05C554.283 1159.05 556.524 1156.81 556.524 1154.06C556.524 1151.31 554.283 1149.07 551.537 1149.07C548.792 1149.07 546.551 1151.31 546.551 1154.06C546.546 1156.81 548.792 1159.05 551.537 1159.05Z" fill="black"/>
<path d="M539.096 1176.18C541.85 1176.18 544.083 1173.94 544.083 1171.19C544.083 1168.44 541.85 1166.2 539.096 1166.2C536.342 1166.2 534.109 1168.44 534.109 1171.19C534.109 1173.94 536.342 1176.18 539.096 1176.18Z" fill="black"/>
<path fill-rule="evenodd" clip-rule="evenodd" d="M539.096 1197.35C541.841 1197.35 544.083 1195.11 544.083 1192.36C544.083 1189.61 541.841 1187.37 539.096 1187.37C536.351 1187.37 534.109 1189.61 534.109 1192.36C534.104 1195.11 536.345 1197.35 539.096 1197.35Z" fill="black"/>
<path fill-rule="evenodd" clip-rule="evenodd" d="M551.537 1214.48C554.283 1214.48 556.524 1212.24 556.524 1209.49C556.524 1206.75 554.283 1204.5 551.537 1204.5C548.792 1204.5 546.551 1206.74 546.551 1209.49C546.551 1212.24 548.792 1214.48 551.537 1214.48Z" fill="black"/>
<path fill-rule="evenodd" clip-rule="evenodd" d="M571.674 1221.02C574.42 1221.02 576.661 1218.78 576.661 1216.03C576.661 1213.28 574.42 1211.04 571.674 1211.04C568.929 1211.04 566.688 1213.29 566.688 1216.03C566.682 1218.78 568.924 1221.02 571.674 1221.02Z" fill="black"/>
<path fill-rule="evenodd" clip-rule="evenodd" d="M591.811 1214.48C594.556 1214.48 596.797 1212.24 596.797 1209.49C596.797 1206.75 594.556 1204.5 591.811 1204.5C589.065 1204.5 586.824 1206.74 586.824 1209.49C586.824 1212.24 589.06 1214.48 591.811 1214.48Z" fill="black"/>
<path fill-rule="evenodd" clip-rule="evenodd" d="M604.252 1197.35C606.998 1197.35 609.239 1195.11 609.239 1192.36C609.239 1189.61 606.998 1187.37 604.252 1187.37C601.507 1187.37 599.266 1189.61 599.266 1192.36C599.261 1195.11 601.507 1197.35 604.252 1197.35Z" fill="black"/>
<path d="M604.252 1176.18C607.006 1176.18 609.239 1173.94 609.239 1171.19C609.239 1168.44 607.006 1166.2 604.252 1166.2C601.498 1166.2 599.266 1168.44 599.266 1171.19C599.266 1173.94 601.498 1176.18 604.252 1176.18Z" fill="black"/>
<path fill-rule="evenodd" clip-rule="evenodd" d="M591.811 1159.05C594.556 1159.05 596.797 1156.81 596.797 1154.06C596.797 1151.31 594.556 1149.07 591.811 1149.07C589.065 1149.07 586.824 1151.31 586.824 1154.06C586.819 1156.81 589.06 1159.05 591.811 1159.05Z" fill="black"/>
<path d="M571.676 1189.4C575.887 1189.4 579.301 1185.99 579.301 1181.77C579.301 1177.56 575.887 1174.15 571.676 1174.15C567.465 1174.15 564.051 1177.56 564.051 1181.77C564.051 1185.99 567.465 1189.4 571.676 1189.4Z" fill="black"/>
<path fill-rule="evenodd" clip-rule="evenodd" d="M1335.12 1259.38C1377.87 1259.38 1412.73 1224.52 1412.73 1181.77C1412.73 1139.03 1377.86 1104.16 1335.12 1104.16C1292.38 1104.16 1257.52 1139.03 1257.52 1181.77C1257.52 1224.52 1292.38 1259.38 1335.12 1259.38Z" fill="black"/>
<path fill-rule="evenodd" clip-rule="evenodd" d="M1335.12 1231.76C1362.65 1231.76 1385.11 1209.31 1385.11 1181.77C1385.11 1154.24 1362.65 1131.78 1335.12 1131.78C1307.59 1131.78 1285.14 1154.24 1285.14 1181.77C1285.14 1209.31 1307.59 1231.76 1335.12 1231.76Z" fill="white" stroke="black" stroke-width="10" stroke-miterlimit="22.9256"/>
<path fill-rule="evenodd" clip-rule="evenodd" d="M1335.12 1225.52C1359.22 1225.52 1378.87 1205.87 1378.87 1181.77C1378.87 1157.68 1359.22 1138.03 1335.12 1138.03C1311.03 1138.03 1291.38 1157.68 1291.38 1181.77C1291.38 1205.87 1311.03 1225.52 1335.12 1225.52Z" stroke="black" stroke-width="10" stroke-miterlimit="22.9256" stroke-linecap="round" stroke-linejoin="round"/>
<path fill-rule="evenodd" clip-rule="evenodd" d="M1335.12 1206.35C1348.66 1206.35 1359.7 1195.31 1359.7 1181.77C1359.7 1168.23 1348.65 1157.19 1335.12 1157.19C1321.58 1157.19 1310.54 1168.23 1310.54 1181.77C1310.54 1195.31 1321.58 1206.35 1335.12 1206.35Z" stroke="black" stroke-width="10" stroke-miterlimit="22.9256" stroke-linecap="round" stroke-linejoin="round"/>
<path fill-rule="evenodd" clip-rule="evenodd" d="M1335.12 1170.47C1337.14 1170.47 1338.79 1168.82 1338.79 1166.8C1338.79 1164.79 1337.15 1163.14 1335.12 1163.14C1333.1 1163.14 1331.46 1164.79 1331.46 1166.8C1331.46 1168.83 1333.1 1170.47 1335.12 1170.47Z" fill="black"/>
<path fill-rule="evenodd" clip-rule="evenodd" d="M1320.99 1180.75C1323 1180.75 1324.66 1179.1 1324.66 1177.08C1324.66 1175.06 1323.01 1173.41 1320.99 1173.41C1318.97 1173.41 1317.32 1175.06 1317.32 1177.08C1317.32 1179.1 1318.97 1180.75 1320.99 1180.75Z" fill="black"/>
<path fill-rule="evenodd" clip-rule="evenodd" d="M1326.39 1197.36C1328.4 1197.36 1330.05 1195.72 1330.05 1193.69C1330.05 1191.67 1328.41 1190.03 1326.39 1190.03C1324.37 1190.03 1322.72 1191.67 1322.72 1193.69C1322.72 1195.72 1324.36 1197.36 1326.39 1197.36Z" fill="black"/>
<path fill-rule="evenodd" clip-rule="evenodd" d="M1343.86 1197.36C1345.88 1197.36 1347.53 1195.72 1347.53 1193.69C1347.53 1191.67 1345.88 1190.03 1343.86 1190.03C1341.84 1190.03 1340.19 1191.67 1340.19 1193.69C1340.19 1195.72 1341.84 1197.36 1343.86 1197.36Z" fill="black"/>
<path fill-rule="evenodd" clip-rule="evenodd" d="M1349.26 1180.75C1351.27 1180.75 1352.92 1179.1 1352.92 1177.08C1352.92 1175.06 1351.28 1173.41 1349.26 1173.41C1347.24 1173.41 1345.59 1175.06 1345.59 1177.08C1345.59 1179.1 1347.24 1180.75 1349.26 1180.75Z" fill="black"/>
<path fill-rule="evenodd" clip-rule="evenodd" d="M1335.12 1152.51C1337.87 1152.51 1340.11 1150.26 1340.11 1147.52C1340.11 1144.77 1337.87 1142.53 1335.12 1142.53C1332.38 1142.53 1330.14 1144.77 1330.14 1147.52C1330.14 1150.26 1332.38 1152.51 1335.12 1152.51Z" fill="black"/>
<path fill-rule="evenodd" clip-rule="evenodd" d="M1314.99 1159.05C1317.74 1159.05 1319.97 1156.8 1319.97 1154.06C1319.97 1151.31 1317.73 1149.07 1314.99 1149.07C1312.24 1149.07 1310 1151.31 1310 1154.06C1310 1156.81 1312.24 1159.05 1314.99 1159.05Z" fill="black"/>
<path fill-rule="evenodd" clip-rule="evenodd" d="M1302.55 1176.18C1305.29 1176.18 1307.53 1173.94 1307.53 1171.19C1307.53 1168.44 1305.29 1166.2 1302.55 1166.2C1299.8 1166.2 1297.56 1168.44 1297.56 1171.19C1297.56 1173.94 1299.8 1176.18 1302.55 1176.18Z" fill="black"/>
<path fill-rule="evenodd" clip-rule="evenodd" d="M1302.55 1197.35C1305.29 1197.35 1307.53 1195.1 1307.53 1192.36C1307.53 1189.61 1305.29 1187.37 1302.55 1187.37C1299.8 1187.37 1297.56 1189.61 1297.56 1192.36C1297.56 1195.1 1299.8 1197.35 1302.55 1197.35Z" fill="black"/>
<path fill-rule="evenodd" clip-rule="evenodd" d="M1314.99 1214.48C1317.74 1214.48 1319.97 1212.24 1319.97 1209.49C1319.97 1206.74 1317.73 1204.5 1314.99 1204.5C1312.24 1204.5 1310 1206.74 1310 1209.49C1310 1212.24 1312.24 1214.48 1314.99 1214.48Z" fill="black"/>
<path fill-rule="evenodd" clip-rule="evenodd" d="M1335.12 1221.02C1337.87 1221.02 1340.11 1218.78 1340.11 1216.03C1340.11 1213.28 1337.87 1211.04 1335.12 1211.04C1332.38 1211.04 1330.14 1213.29 1330.14 1216.03C1330.14 1218.78 1332.38 1221.02 1335.12 1221.02Z" fill="black"/>
<path fill-rule="evenodd" clip-rule="evenodd" d="M1355.26 1214.48C1358.01 1214.48 1360.25 1212.24 1360.25 1209.49C1360.25 1206.74 1358.01 1204.5 1355.26 1204.5C1352.51 1204.5 1350.27 1206.74 1350.27 1209.49C1350.27 1212.24 1352.51 1214.48 1355.26 1214.48Z" fill="black"/>
<path fill-rule="evenodd" clip-rule="evenodd" d="M1367.7 1197.35C1370.45 1197.35 1372.69 1195.1 1372.69 1192.36C1372.69 1189.61 1370.45 1187.37 1367.7 1187.37C1364.96 1187.37 1362.71 1189.61 1362.71 1192.36C1362.71 1195.1 1364.96 1197.35 1367.7 1197.35Z" fill="black"/>
<path fill-rule="evenodd" clip-rule="evenodd" d="M1367.7 1176.18C1370.45 1176.18 1372.69 1173.94 1372.69 1171.19C1372.69 1168.44 1370.45 1166.2 1367.7 1166.2C1364.96 1166.2 1362.71 1168.44 1362.71 1171.19C1362.71 1173.94 1364.96 1176.18 1367.7 1176.18Z" fill="black"/>
<path fill-rule="evenodd" clip-rule="evenodd" d="M1355.26 1159.05C1358.01 1159.05 1360.25 1156.8 1360.25 1154.06C1360.25 1151.31 1358.01 1149.07 1355.26 1149.07C1352.51 1149.07 1350.27 1151.31 1350.27 1154.06C1350.27 1156.81 1352.51 1159.05 1355.26 1159.05Z" fill="black"/>
<path fill-rule="evenodd" clip-rule="evenodd" d="M1335.12 1189.4C1339.32 1189.4 1342.75 1185.98 1342.75 1181.77C1342.75 1177.58 1339.32 1174.15 1335.12 1174.15C1330.92 1174.15 1327.5 1177.57 1327.5 1181.77C1327.5 1185.97 1330.92 1189.4 1335.12 1189.4Z" fill="black"/>
<path d="M850.13 829.021H688.113V963.829H850.13V829.021Z" fill="#C8C8C8" stroke="black" stroke-width="10" stroke-miterlimit="22.9256" stroke-linecap="round" stroke-linejoin="round"/>
<path fill-rule="evenodd" clip-rule="evenodd" d="M590.278 922.182C596.217 921.662 598.132 926.695 598.565 931.666L601.494 965.153C601.932 970.13 600.913 975.417 594.979 975.937C579.429 977.297 574.727 923.542 590.278 922.182Z" fill="#505050" stroke="black" stroke-width="10" stroke-miterlimit="22.9256" stroke-linecap="round" stroke-linejoin="round"/>
<path fill-rule="evenodd" clip-rule="evenodd" d="M1963.95 1200C1947.7 1192.84 1936.56 1183.1 1929.98 1171.08C1890.78 1168.42 1569 1154.92 1569 1154.92C1569 1147.54 1569 1137.38 1569 1130H2022C2008.84 1132.07 1996.74 1136.18 1986.91 1142.05C1972.3 1150.77 1964.16 1162.49 1964.16 1174.82C1964.16 1183.85 1968.53 1192.56 1976.6 1200H1963.95V1200Z" fill="#505050" stroke="black" stroke-width="10" stroke-miterlimit="22.9256" stroke-linecap="round" stroke-linejoin="round"/>
<path d="M2338 1129H2010V1227H2338V1129Z" fill="#2D2D2D"/>
<path fill-rule="evenodd" clip-rule="evenodd" d="M2006.17 1269.35C2044.27 1269.35 2075.34 1238.28 2075.34 1200.17C2075.34 1162.07 2044.27 1131 2006.17 1131C1968.07 1131 1937 1162.08 1937 1200.17C1937 1238.27 1968.07 1269.35 2006.17 1269.35Z" fill="black"/>
<path d="M2052.39 1203.46C2054.21 1177.95 2034.99 1155.79 2009.47 1153.98C1983.96 1152.16 1961.8 1171.38 1959.99 1196.9C1958.17 1222.41 1977.39 1244.57 2002.91 1246.39C2028.42 1248.2 2050.58 1228.98 2052.39 1203.46Z" fill="white"/>
<path fill-rule="evenodd" clip-rule="evenodd" d="M2006.17 1215.68C2014.71 1215.68 2021.68 1208.72 2021.68 1200.17C2021.68 1191.63 2014.71 1184.67 2006.17 1184.67C1997.63 1184.67 1990.66 1191.63 1990.66 1200.17C1990.66 1208.72 1997.63 1215.68 2006.17 1215.68Z" fill="black"/>
<path fill-rule="evenodd" clip-rule="evenodd" d="M2006.17 1207.66C2010.29 1207.66 2013.66 1204.3 2013.66 1200.17C2013.66 1196.05 2010.29 1192.69 2006.17 1192.69C2002.04 1192.69 1998.68 1196.05 1998.68 1200.17C1998.68 1204.29 2002.05 1207.66 2006.17 1207.66Z" fill="white" stroke="black" stroke-width="10" stroke-miterlimit="22.9256" stroke-linecap="round" stroke-linejoin="round"/>
<path d="M2015.99 1241.29C2038.68 1235.86 2052.67 1213.07 2047.25 1190.38C2041.82 1167.7 2019.03 1153.7 1996.35 1159.13C1973.66 1164.56 1959.67 1187.35 1965.09 1210.03C1970.52 1232.72 1993.31 1246.71 2015.99 1241.29Z" stroke="black" stroke-width="10" stroke-miterlimit="22.9256" stroke-linecap="round" stroke-linejoin="round"/>
<path d="M2006.17 1170.14C2010.12 1170.14 2013.32 1168.35 2013.32 1166.14C2013.32 1163.93 2010.12 1162.14 2006.17 1162.14C2002.21 1162.14 1999.01 1163.93 1999.01 1166.14C1999.01 1168.35 2002.21 1170.14 2006.17 1170.14Z" fill="black"/>
<path fill-rule="evenodd" clip-rule="evenodd" d="M1980.15 1185.16C1978.18 1188.58 1975.02 1190.46 1973.11 1189.35C1971.2 1188.25 1971.25 1184.58 1973.23 1181.16C1975.21 1177.73 1978.36 1175.85 1980.28 1176.96C1982.18 1178.06 1982.13 1181.73 1980.15 1185.16Z" fill="black"/>
<path fill-rule="evenodd" clip-rule="evenodd" d="M1980.15 1215.19C1982.13 1218.62 1982.18 1222.29 1980.27 1223.39C1978.36 1224.5 1975.2 1222.62 1973.23 1219.19C1971.25 1215.77 1971.2 1212.1 1973.11 1210.99C1975.02 1209.89 1978.18 1211.77 1980.15 1215.19Z" fill="black"/>
<path fill-rule="evenodd" clip-rule="evenodd" d="M2006.17 1230.21C2010.12 1230.21 2013.32 1232 2013.32 1234.21C2013.32 1236.42 2010.12 1238.21 2006.17 1238.21C2002.21 1238.21 1999.01 1236.42 1999.01 1234.21C1999.01 1232 2002.21 1230.21 2006.17 1230.21Z" fill="black"/>
<path fill-rule="evenodd" clip-rule="evenodd" d="M2032.18 1215.19C2034.15 1211.77 2037.31 1209.89 2039.22 1210.99C2041.13 1212.1 2041.08 1215.77 2039.1 1219.19C2037.12 1222.62 2033.97 1224.5 2032.06 1223.39C2030.15 1222.29 2030.2 1218.61 2032.18 1215.19Z" fill="black"/>
<path fill-rule="evenodd" clip-rule="evenodd" d="M2032.18 1185.16C2030.2 1181.73 2030.15 1178.06 2032.06 1176.96C2033.97 1175.85 2037.13 1177.73 2039.1 1181.16C2041.08 1184.58 2041.13 1188.25 2039.22 1189.35C2037.31 1190.46 2034.15 1188.58 2032.18 1185.16Z" fill="black"/>
<path fill-rule="evenodd" clip-rule="evenodd" d="M1995.61 1184.76C1997.19 1184.76 1998.48 1183.47 1998.48 1181.88C1998.48 1180.3 1997.19 1179.01 1995.61 1179.01C1994.02 1179.01 1992.73 1180.3 1992.73 1181.88C1992.73 1183.47 1994.02 1184.76 1995.61 1184.76Z" fill="black"/>
<path fill-rule="evenodd" clip-rule="evenodd" d="M1985.05 1203.05C1986.63 1203.05 1987.93 1201.76 1987.93 1200.18C1987.93 1198.59 1986.63 1197.3 1985.05 1197.3C1983.47 1197.3 1982.18 1198.59 1982.18 1200.18C1982.17 1201.76 1983.47 1203.05 1985.05 1203.05Z" fill="black"/>
<path fill-rule="evenodd" clip-rule="evenodd" d="M1995.61 1221.34C1997.19 1221.34 1998.48 1220.05 1998.48 1218.46C1998.48 1216.88 1997.19 1215.59 1995.61 1215.59C1994.02 1215.59 1992.73 1216.88 1992.73 1218.46C1992.73 1220.05 1994.02 1221.34 1995.61 1221.34Z" fill="black"/>
<path d="M2016.73 1221.34C2018.32 1221.34 2019.61 1220.05 2019.61 1218.46C2019.61 1216.88 2018.32 1215.59 2016.73 1215.59C2015.14 1215.59 2013.86 1216.88 2013.86 1218.46C2013.86 1220.05 2015.14 1221.34 2016.73 1221.34Z" fill="black"/>
<path fill-rule="evenodd" clip-rule="evenodd" d="M2027.29 1203.05C2028.87 1203.05 2030.16 1201.76 2030.16 1200.17C2030.16 1198.59 2028.87 1197.3 2027.29 1197.3C2025.7 1197.3 2024.41 1198.59 2024.41 1200.17C2024.41 1201.76 2025.7 1203.05 2027.29 1203.05Z" fill="black"/>
<path fill-rule="evenodd" clip-rule="evenodd" d="M2016.73 1184.76C2018.32 1184.76 2019.61 1183.47 2019.61 1181.88C2019.61 1180.3 2018.32 1179.01 2016.73 1179.01C2015.15 1179.01 2013.86 1180.3 2013.86 1181.88C2013.86 1183.47 2015.15 1184.76 2016.73 1184.76Z" fill="black"/>
<path d="M2345.38 1268.62C2383.09 1262.52 2408.72 1227 2402.62 1189.29C2396.52 1151.57 2361 1125.95 2323.29 1132.05C2285.57 1138.15 2259.95 1173.67 2266.05 1211.38C2272.15 1249.1 2307.67 1274.73 2345.38 1268.62Z" fill="black"/>
<path fill-rule="evenodd" clip-rule="evenodd" d="M2334.27 1240.76C2356.53 1240.76 2374.69 1222.6 2374.69 1200.33C2374.69 1178.06 2356.53 1159.9 2334.27 1159.9C2312.01 1159.9 2293.84 1178.06 2293.84 1200.33C2293.84 1222.6 2312.01 1240.76 2334.27 1240.76Z" fill="white"/>
<path fill-rule="evenodd" clip-rule="evenodd" d="M2334.27 1237.25C2354.6 1237.25 2371.18 1220.66 2371.18 1200.33C2371.18 1180 2354.6 1163.42 2334.27 1163.42C2313.94 1163.42 2297.36 1180 2297.36 1200.33C2297.36 1220.66 2313.94 1237.25 2334.27 1237.25Z" stroke="black" stroke-width="10" stroke-miterlimit="22.9256" stroke-linecap="round" stroke-linejoin="round"/>
<path fill-rule="evenodd" clip-rule="evenodd" d="M2334.27 1211.08C2340.19 1211.08 2345.02 1206.25 2345.02 1200.33C2345.02 1194.41 2340.19 1189.58 2334.27 1189.58C2328.35 1189.58 2323.52 1194.41 2323.52 1200.33C2323.52 1206.25 2328.35 1211.08 2334.27 1211.08Z" fill="black"/>
<path fill-rule="evenodd" clip-rule="evenodd" d="M2334.27 1174.88C2337.61 1174.88 2340.33 1173.36 2340.33 1171.49C2340.33 1169.62 2337.61 1168.1 2334.27 1168.1C2330.93 1168.1 2328.2 1169.62 2328.2 1171.49C2328.2 1173.36 2330.93 1174.88 2334.27 1174.88Z" fill="black"/>
<path fill-rule="evenodd" clip-rule="evenodd" d="M2312.23 1187.61C2310.55 1190.51 2307.88 1192.1 2306.26 1191.16C2304.64 1190.23 2304.69 1187.12 2306.36 1184.22C2308.03 1181.32 2310.7 1179.72 2312.33 1180.66C2313.95 1181.59 2313.9 1184.7 2312.23 1187.61Z" fill="black"/>
<path fill-rule="evenodd" clip-rule="evenodd" d="M2312.23 1213.06C2313.9 1215.96 2313.95 1219.07 2312.32 1220.01C2310.71 1220.94 2308.03 1219.35 2306.36 1216.45C2304.68 1213.55 2304.64 1210.44 2306.26 1209.5C2307.88 1208.56 2310.55 1210.16 2312.23 1213.06Z" fill="black"/>
<path fill-rule="evenodd" clip-rule="evenodd" d="M2334.27 1225.78C2337.62 1225.78 2340.33 1227.3 2340.33 1229.17C2340.33 1231.04 2337.62 1232.56 2334.27 1232.56C2330.92 1232.56 2328.2 1231.04 2328.2 1229.17C2328.2 1227.3 2330.92 1225.78 2334.27 1225.78Z" fill="black"/>
<path fill-rule="evenodd" clip-rule="evenodd" d="M2356.31 1213.06C2357.98 1210.16 2360.66 1208.57 2362.27 1209.5C2363.89 1210.44 2363.85 1213.55 2362.18 1216.45C2360.5 1219.35 2357.83 1220.94 2356.21 1220.01C2354.59 1219.07 2354.63 1215.96 2356.31 1213.06Z" fill="black"/>
<path fill-rule="evenodd" clip-rule="evenodd" d="M2356.31 1187.61C2354.63 1184.7 2354.59 1181.59 2356.21 1180.66C2357.83 1179.72 2360.5 1181.32 2362.18 1184.22C2363.85 1187.12 2363.9 1190.23 2362.27 1191.16C2360.65 1192.1 2357.98 1190.51 2356.31 1187.61Z" fill="black"/>
<path fill-rule="evenodd" clip-rule="evenodd" d="M2326.32 1189.33C2327.84 1189.33 2329.08 1188.09 2329.08 1186.57C2329.08 1185.06 2327.84 1183.82 2326.32 1183.82C2324.81 1183.82 2323.57 1185.06 2323.57 1186.57C2323.57 1188.09 2324.81 1189.33 2326.32 1189.33Z" fill="black"/>
<path fill-rule="evenodd" clip-rule="evenodd" d="M2318.38 1203.09C2319.9 1203.09 2321.14 1201.85 2321.14 1200.33C2321.14 1198.82 2319.9 1197.58 2318.38 1197.58C2316.87 1197.58 2315.63 1198.82 2315.63 1200.33C2315.63 1201.85 2316.87 1203.09 2318.38 1203.09Z" fill="black"/>
<path fill-rule="evenodd" clip-rule="evenodd" d="M2326.32 1216.84C2327.84 1216.84 2329.08 1215.61 2329.08 1214.09C2329.08 1212.57 2327.84 1211.33 2326.32 1211.33C2324.81 1211.33 2323.57 1212.57 2323.57 1214.09C2323.57 1215.61 2324.81 1216.84 2326.32 1216.84Z" fill="black"/>
<path fill-rule="evenodd" clip-rule="evenodd" d="M2342.21 1216.84C2343.73 1216.84 2344.97 1215.61 2344.97 1214.09C2344.97 1212.57 2343.73 1211.33 2342.21 1211.33C2340.69 1211.33 2339.46 1212.57 2339.46 1214.09C2339.46 1215.61 2340.7 1216.84 2342.21 1216.84Z" fill="black"/>
<path fill-rule="evenodd" clip-rule="evenodd" d="M2350.16 1203.08C2351.67 1203.08 2352.91 1201.85 2352.91 1200.33C2352.91 1198.81 2351.67 1197.58 2350.16 1197.58C2348.64 1197.58 2347.4 1198.81 2347.4 1200.33C2347.4 1201.85 2348.64 1203.08 2350.16 1203.08Z" fill="black"/>
<path fill-rule="evenodd" clip-rule="evenodd" d="M2342.21 1189.33C2343.73 1189.33 2344.97 1188.09 2344.97 1186.57C2344.97 1185.06 2343.73 1183.82 2342.21 1183.82C2340.69 1183.82 2339.46 1185.06 2339.46 1186.57C2339.46 1188.09 2340.7 1189.33 2342.21 1189.33Z" fill="black"/>
<path fill-rule="evenodd" clip-rule="evenodd" d="M2557.7 1195.51H2550V1170H2541V1195.51V1221.02H2557.7V1195.51Z" fill="black"/>
<path fill-rule="evenodd" clip-rule="evenodd" d="M2402.81 1241.8C2418.44 1230.26 2429.14 1214.56 2435.47 1195.19C2473.16 1190.91 2510.84 1186.63 2548.52 1182.34C2548.52 1170.44 2548.52 1140.9 2548.52 1129H2347C2359.65 1132.33 2371.29 1138.97 2380.74 1148.41C2394.79 1162.46 2402.61 1181.35 2402.61 1201.23C2402.61 1215.78 2398.41 1229.81 2390.64 1241.8H2402.81V1241.8Z" fill="#505050" stroke="black" stroke-width="10" stroke-miterlimit="22.9256" stroke-linecap="round" stroke-linejoin="round"/>
<path d="M2615.22 726H1749V1128.58H2615.22V726Z" fill="white" stroke="black" stroke-width="10" stroke-miterlimit="22.9256" stroke-linecap="round" stroke-linejoin="round"/>
</svg>
