<svg width="3000" height="2000" viewBox="0 0 3000 2000" fill="none" xmlns="http://www.w3.org/2000/svg">
<path fill-rule="evenodd" clip-rule="evenodd" d="M1992.95 1192C1976.7 1184.84 1965.56 1175.1 1958.98 1163.08C1919.78 1160.42 1598 1146.92 1598 1146.92C1598 1139.54 1598 1129.38 1598 1122H2051C2037.84 1124.07 2025.74 1128.18 2015.91 1134.05C2001.3 1142.77 1993.16 1154.49 1993.16 1166.82C1993.16 1175.85 1997.53 1184.56 2005.6 1192H1992.95V1192Z" fill="#505050" stroke="black" stroke-width="10" stroke-miterlimit="22.9256" stroke-linecap="round" stroke-linejoin="round"/>
<path d="M2367 1121H2039V1219H2367V1121Z" fill="#2D2D2D"/>
<path fill-rule="evenodd" clip-rule="evenodd" d="M2035.17 1261.35C2073.27 1261.35 2104.34 1230.28 2104.34 1192.17C2104.34 1154.07 2073.27 1123 2035.17 1123C1997.07 1123 1966 1154.08 1966 1192.17C1966 1230.27 1997.07 1261.35 2035.17 1261.35Z" fill="black"/>
<path d="M2081.39 1195.46C2083.21 1169.95 2063.99 1147.79 2038.48 1145.98C2012.96 1144.16 1990.8 1163.38 1988.99 1188.9C1987.18 1214.41 2006.39 1236.57 2031.91 1238.39C2057.42 1240.2 2079.58 1220.98 2081.39 1195.46Z" fill="white"/>
<path fill-rule="evenodd" clip-rule="evenodd" d="M2035.17 1207.68C2043.71 1207.68 2050.68 1200.72 2050.68 1192.17C2050.68 1183.63 2043.71 1176.67 2035.17 1176.67C2026.63 1176.67 2019.66 1183.63 2019.66 1192.17C2019.66 1200.72 2026.63 1207.68 2035.17 1207.68Z" fill="black"/>
<path fill-rule="evenodd" clip-rule="evenodd" d="M2035.17 1199.66C2039.29 1199.66 2042.66 1196.3 2042.66 1192.17C2042.66 1188.05 2039.29 1184.69 2035.17 1184.69C2031.04 1184.69 2027.68 1188.05 2027.68 1192.17C2027.68 1196.29 2031.05 1199.66 2035.17 1199.66Z" fill="white" stroke="black" stroke-width="10" stroke-miterlimit="22.9256" stroke-linecap="round" stroke-linejoin="round"/>
<path d="M2044.99 1233.29C2067.68 1227.86 2081.67 1205.07 2076.25 1182.38C2070.82 1159.7 2048.03 1145.7 2025.35 1151.13C2002.66 1156.56 1988.67 1179.35 1994.1 1202.03C1999.52 1224.72 2022.31 1238.71 2044.99 1233.29Z" stroke="black" stroke-width="10" stroke-miterlimit="22.9256" stroke-linecap="round" stroke-linejoin="round"/>
<path d="M2035.17 1162.14C2039.12 1162.14 2042.33 1160.35 2042.33 1158.14C2042.33 1155.93 2039.12 1154.14 2035.17 1154.14C2031.22 1154.14 2028.01 1155.93 2028.01 1158.14C2028.01 1160.35 2031.22 1162.14 2035.17 1162.14Z" fill="black"/>
<path fill-rule="evenodd" clip-rule="evenodd" d="M2009.16 1177.16C2007.18 1180.58 2004.03 1182.46 2002.12 1181.35C2000.21 1180.25 2000.26 1176.58 2002.23 1173.16C2004.21 1169.73 2007.36 1167.85 2009.28 1168.96C2011.18 1170.06 2011.13 1173.73 2009.16 1177.16Z" fill="black"/>
<path fill-rule="evenodd" clip-rule="evenodd" d="M2009.16 1207.19C2011.13 1210.62 2011.18 1214.29 2009.27 1215.39C2007.36 1216.5 2004.21 1214.62 2002.23 1211.19C2000.25 1207.77 2000.2 1204.1 2002.11 1202.99C2004.03 1201.89 2007.18 1203.77 2009.16 1207.19Z" fill="black"/>
<path fill-rule="evenodd" clip-rule="evenodd" d="M2035.17 1222.21C2039.12 1222.21 2042.33 1224 2042.33 1226.21C2042.33 1228.42 2039.12 1230.21 2035.17 1230.21C2031.22 1230.21 2028.01 1228.42 2028.01 1226.21C2028.01 1224 2031.22 1222.21 2035.17 1222.21Z" fill="black"/>
<path fill-rule="evenodd" clip-rule="evenodd" d="M2061.18 1207.19C2063.16 1203.77 2066.31 1201.89 2068.22 1202.99C2070.13 1204.1 2070.08 1207.77 2068.1 1211.19C2066.13 1214.62 2062.97 1216.5 2061.06 1215.39C2059.15 1214.29 2059.2 1210.61 2061.18 1207.19Z" fill="black"/>
<path fill-rule="evenodd" clip-rule="evenodd" d="M2061.18 1177.16C2059.2 1173.73 2059.15 1170.06 2061.06 1168.96C2062.98 1167.85 2066.13 1169.73 2068.11 1173.16C2070.08 1176.58 2070.13 1180.25 2068.22 1181.35C2066.31 1182.46 2063.16 1180.58 2061.18 1177.16Z" fill="black"/>
<path fill-rule="evenodd" clip-rule="evenodd" d="M2024.61 1176.76C2026.19 1176.76 2027.48 1175.47 2027.48 1173.88C2027.48 1172.3 2026.19 1171.01 2024.61 1171.01C2023.02 1171.01 2021.73 1172.3 2021.73 1173.88C2021.73 1175.47 2023.02 1176.76 2024.61 1176.76Z" fill="black"/>
<path fill-rule="evenodd" clip-rule="evenodd" d="M2014.05 1195.05C2015.63 1195.05 2016.93 1193.76 2016.93 1192.18C2016.93 1190.59 2015.63 1189.3 2014.05 1189.3C2012.47 1189.3 2011.18 1190.59 2011.18 1192.18C2011.17 1193.76 2012.47 1195.05 2014.05 1195.05Z" fill="black"/>
<path fill-rule="evenodd" clip-rule="evenodd" d="M2024.61 1213.34C2026.19 1213.34 2027.48 1212.05 2027.48 1210.46C2027.48 1208.88 2026.19 1207.59 2024.61 1207.59C2023.02 1207.59 2021.73 1208.88 2021.73 1210.46C2021.73 1212.05 2023.02 1213.34 2024.61 1213.34Z" fill="black"/>
<path d="M2045.73 1213.34C2047.32 1213.34 2048.6 1212.05 2048.6 1210.46C2048.6 1208.88 2047.32 1207.59 2045.73 1207.59C2044.14 1207.59 2042.85 1208.88 2042.85 1210.46C2042.85 1212.05 2044.14 1213.34 2045.73 1213.34Z" fill="black"/>
<path fill-rule="evenodd" clip-rule="evenodd" d="M2056.29 1195.05C2057.88 1195.05 2059.17 1193.76 2059.17 1192.17C2059.17 1190.59 2057.88 1189.3 2056.29 1189.3C2054.71 1189.3 2053.42 1190.59 2053.42 1192.17C2053.41 1193.76 2054.71 1195.05 2056.29 1195.05Z" fill="black"/>
<path fill-rule="evenodd" clip-rule="evenodd" d="M2045.73 1176.76C2047.31 1176.76 2048.6 1175.47 2048.6 1173.88C2048.6 1172.3 2047.31 1171.01 2045.73 1171.01C2044.14 1171.01 2042.85 1172.3 2042.85 1173.88C2042.85 1175.47 2044.14 1176.76 2045.73 1176.76Z" fill="black"/>
<path d="M2374.38 1260.62C2412.09 1254.52 2437.72 1219 2431.62 1181.29C2425.52 1143.57 2390 1117.95 2352.29 1124.05C2314.57 1130.15 2288.95 1165.67 2295.05 1203.38C2301.15 1241.1 2336.67 1266.73 2374.38 1260.62Z" fill="black"/>
<path fill-rule="evenodd" clip-rule="evenodd" d="M2363.27 1232.76C2385.53 1232.76 2403.69 1214.6 2403.69 1192.33C2403.69 1170.06 2385.54 1151.9 2363.27 1151.9C2341.01 1151.9 2322.85 1170.06 2322.85 1192.33C2322.85 1214.6 2341.01 1232.76 2363.27 1232.76Z" fill="white"/>
<path fill-rule="evenodd" clip-rule="evenodd" d="M2363.27 1229.25C2383.6 1229.25 2400.18 1212.66 2400.18 1192.33C2400.18 1172 2383.6 1155.42 2363.27 1155.42C2342.94 1155.42 2326.36 1172 2326.36 1192.33C2326.36 1212.66 2342.94 1229.25 2363.27 1229.25Z" stroke="black" stroke-width="10" stroke-miterlimit="22.9256" stroke-linecap="round" stroke-linejoin="round"/>
<path fill-rule="evenodd" clip-rule="evenodd" d="M2363.27 1203.08C2369.19 1203.08 2374.02 1198.25 2374.02 1192.33C2374.02 1186.41 2369.19 1181.58 2363.27 1181.58C2357.35 1181.58 2352.52 1186.41 2352.52 1192.33C2352.52 1198.25 2357.35 1203.08 2363.27 1203.08Z" fill="black"/>
<path fill-rule="evenodd" clip-rule="evenodd" d="M2363.27 1166.88C2366.61 1166.88 2369.33 1165.36 2369.33 1163.49C2369.33 1161.62 2366.61 1160.1 2363.27 1160.1C2359.93 1160.1 2357.21 1161.62 2357.21 1163.49C2357.21 1165.36 2359.93 1166.88 2363.27 1166.88Z" fill="black"/>
<path fill-rule="evenodd" clip-rule="evenodd" d="M2341.23 1179.61C2339.55 1182.51 2336.88 1184.1 2335.26 1183.16C2333.64 1182.23 2333.69 1179.12 2335.36 1176.22C2337.03 1173.32 2339.7 1171.72 2341.33 1172.66C2342.95 1173.59 2342.9 1176.7 2341.23 1179.61Z" fill="black"/>
<path fill-rule="evenodd" clip-rule="evenodd" d="M2341.23 1205.06C2342.9 1207.96 2342.95 1211.07 2341.33 1212.01C2339.71 1212.94 2337.03 1211.35 2335.36 1208.45C2333.68 1205.55 2333.64 1202.44 2335.26 1201.5C2336.88 1200.56 2339.55 1202.16 2341.23 1205.06Z" fill="black"/>
<path fill-rule="evenodd" clip-rule="evenodd" d="M2363.27 1217.78C2366.62 1217.78 2369.33 1219.3 2369.33 1221.17C2369.33 1223.04 2366.62 1224.56 2363.27 1224.56C2359.92 1224.56 2357.21 1223.04 2357.21 1221.17C2357.21 1219.3 2359.92 1217.78 2363.27 1217.78Z" fill="black"/>
<path fill-rule="evenodd" clip-rule="evenodd" d="M2385.31 1205.06C2386.99 1202.16 2389.66 1200.57 2391.28 1201.5C2392.89 1202.44 2392.85 1205.55 2391.18 1208.45C2389.5 1211.35 2386.83 1212.94 2385.21 1212.01C2383.59 1211.07 2383.64 1207.96 2385.31 1205.06Z" fill="black"/>
<path fill-rule="evenodd" clip-rule="evenodd" d="M2385.31 1179.61C2383.64 1176.7 2383.59 1173.59 2385.21 1172.66C2386.83 1171.72 2389.51 1173.32 2391.18 1176.22C2392.85 1179.12 2392.9 1182.23 2391.28 1183.16C2389.65 1184.1 2386.98 1182.51 2385.31 1179.61Z" fill="black"/>
<path fill-rule="evenodd" clip-rule="evenodd" d="M2355.32 1181.33C2356.84 1181.33 2358.08 1180.09 2358.08 1178.57C2358.08 1177.06 2356.84 1175.82 2355.32 1175.82C2353.81 1175.82 2352.57 1177.06 2352.57 1178.57C2352.57 1180.09 2353.81 1181.33 2355.32 1181.33Z" fill="black"/>
<path fill-rule="evenodd" clip-rule="evenodd" d="M2347.38 1195.09C2348.9 1195.09 2350.14 1193.85 2350.14 1192.33C2350.14 1190.82 2348.9 1189.58 2347.38 1189.58C2345.87 1189.58 2344.63 1190.82 2344.63 1192.33C2344.63 1193.85 2345.87 1195.09 2347.38 1195.09Z" fill="black"/>
<path fill-rule="evenodd" clip-rule="evenodd" d="M2355.32 1208.84C2356.84 1208.84 2358.08 1207.61 2358.08 1206.09C2358.08 1204.57 2356.84 1203.33 2355.32 1203.33C2353.81 1203.33 2352.57 1204.57 2352.57 1206.09C2352.57 1207.61 2353.81 1208.84 2355.32 1208.84Z" fill="black"/>
<path fill-rule="evenodd" clip-rule="evenodd" d="M2371.21 1208.84C2372.73 1208.84 2373.97 1207.61 2373.97 1206.09C2373.97 1204.57 2372.73 1203.33 2371.21 1203.33C2369.69 1203.33 2368.46 1204.57 2368.46 1206.09C2368.46 1207.61 2369.7 1208.84 2371.21 1208.84Z" fill="black"/>
<path fill-rule="evenodd" clip-rule="evenodd" d="M2379.15 1195.08C2380.67 1195.08 2381.91 1193.85 2381.91 1192.33C2381.91 1190.81 2380.67 1189.58 2379.15 1189.58C2377.64 1189.58 2376.4 1190.81 2376.4 1192.33C2376.4 1193.85 2377.64 1195.08 2379.15 1195.08Z" fill="black"/>
<path fill-rule="evenodd" clip-rule="evenodd" d="M2371.21 1181.33C2372.73 1181.33 2373.97 1180.09 2373.97 1178.57C2373.97 1177.06 2372.73 1175.82 2371.21 1175.82C2369.69 1175.82 2368.46 1177.06 2368.46 1178.57C2368.46 1180.09 2369.7 1181.33 2371.21 1181.33Z" fill="black"/>
<path d="M675.013 1115.63H520.953V1225.35H675.013V1115.63Z" fill="#2D2D2D"/>
<path d="M1454.44 1115.63H1145.29V1225.35H1454.44V1115.63Z" fill="#2D2D2D"/>
<path fill-rule="evenodd" clip-rule="evenodd" d="M1600.95 1190.91H1593.24V1165.4H1584.25V1190.91V1216.42H1600.95V1190.91Z" fill="black"/>
<path fill-rule="evenodd" clip-rule="evenodd" d="M2586.7 1187.51H2579V1162H2570V1187.51V1213.02H2586.7V1187.51Z" fill="black"/>
<path fill-rule="evenodd" clip-rule="evenodd" d="M1205.81 1119.58H617.057C629.709 1122.91 641.343 1129.54 650.793 1138.99C664.843 1153.04 672.667 1171.93 672.667 1191.8C672.667 1206.36 668.468 1220.39 660.701 1232.37H1162.16C1154.39 1220.39 1150.19 1206.36 1150.19 1191.8C1150.19 1171.93 1158.02 1153.04 1172.07 1138.99C1181.52 1129.54 1193.15 1122.91 1205.81 1119.58Z" fill="#505050" stroke="black" stroke-width="10" stroke-miterlimit="22.9256" stroke-linecap="round" stroke-linejoin="round"/>
<path fill-rule="evenodd" clip-rule="evenodd" d="M1449.74 1232.38C1465.37 1220.83 1476.08 1205.14 1482.41 1185.77C1520.09 1181.49 1557.78 1177.2 1595.46 1172.92C1595.46 1161.02 1595.46 1131.48 1595.46 1119.58H1393.94C1406.59 1122.91 1418.23 1129.54 1427.67 1138.99C1441.72 1153.04 1449.55 1171.93 1449.55 1191.8C1449.55 1206.36 1445.35 1220.39 1437.58 1232.37H1449.74V1232.38Z" fill="#505050" stroke="black" stroke-width="10" stroke-miterlimit="22.9256" stroke-linecap="round" stroke-linejoin="round"/>
<path fill-rule="evenodd" clip-rule="evenodd" d="M2431.81 1233.8C2447.44 1222.26 2458.14 1206.56 2464.47 1187.19C2502.16 1182.91 2539.84 1178.63 2577.52 1174.34C2577.52 1162.44 2577.52 1132.9 2577.52 1121H2376C2388.65 1124.33 2400.29 1130.97 2409.74 1140.41C2423.79 1154.46 2431.61 1173.35 2431.61 1193.23C2431.61 1207.78 2427.41 1221.81 2419.64 1233.8H2431.81V1233.8Z" fill="#505050" stroke="black" stroke-width="10" stroke-miterlimit="22.9256" stroke-linecap="round" stroke-linejoin="round"/>
<path d="M1693.12 717H668.1V1119.58H1693.12V717Z" fill="white" stroke="black" stroke-width="10" stroke-miterlimit="22.9256" stroke-linecap="round" stroke-linejoin="round"/>
<path fill-rule="evenodd" clip-rule="evenodd" d="M535.264 1232.38H379.596C379.596 1170.65 379.596 1108.93 379.596 1047.2C405.42 987.542 431.242 927.881 457.063 868.22C458.186 865.626 460.601 864.038 463.43 864.038H668.1C668.05 959.628 668.151 1023.99 668.1 1119.58L648.572 1136.86C634.783 1124.15 616.826 1117.12 597.985 1117.12C578.114 1117.12 559.223 1124.94 545.176 1138.99C531.126 1153.04 523.298 1171.93 523.298 1191.81C523.295 1206.36 527.497 1220.39 535.264 1232.38Z" fill="white" stroke="black" stroke-width="10" stroke-miterlimit="22.9256" stroke-linecap="round" stroke-linejoin="round"/>
<path fill-rule="evenodd" clip-rule="evenodd" d="M484.09 864.038C529.731 807.121 591.373 777.944 668.14 774.979L668.1 864.038H484.09Z" fill="white" stroke="black" stroke-width="10" stroke-miterlimit="22.9256" stroke-linecap="round" stroke-linejoin="round"/>
<path fill-rule="evenodd" clip-rule="evenodd" d="M402.167 1172H379.596V1117.86H392.456C397.804 1117.86 402.167 1122.22 402.167 1127.57V1172Z" fill="#C8C8C8" stroke="black" stroke-width="10" stroke-miterlimit="22.9256" stroke-linecap="round" stroke-linejoin="round"/>
<path fill-rule="evenodd" clip-rule="evenodd" d="M362.891 1172H402.166V1232.38H362.891C358.552 1232.38 355 1228.83 355 1224.49V1179.89C355 1175.55 358.552 1172 362.891 1172Z" fill="#505050" stroke="black" stroke-width="10" stroke-miterlimit="22.9256" stroke-linecap="round" stroke-linejoin="round"/>
<path fill-rule="evenodd" clip-rule="evenodd" d="M445.798 894.247L453.451 894.224C454.898 894.217 456.142 894.887 456.939 896.094C457.737 897.303 457.857 898.711 457.284 900.038L397.737 1037.61C396.812 1039.75 395.237 1041.25 393.056 1042.08L379.596 1047.2L445.798 894.247Z" fill="#C8C8C8" stroke="black" stroke-width="10" stroke-miterlimit="22.9256" stroke-linecap="round" stroke-linejoin="round"/>
<path fill-rule="evenodd" clip-rule="evenodd" d="M412.66 1041.54L476.456 894.153H623.205V998.201L412.66 1041.54Z" fill="#C8C8C8" stroke="black" stroke-width="10" stroke-miterlimit="22.9256" stroke-linecap="round" stroke-linejoin="round"/>
<path fill-rule="evenodd" clip-rule="evenodd" d="M623.205 998.201L412.66 1041.54V1172H500.217C509.401 1126.4 549.682 1092.07 597.983 1092.07H623.205V998.201Z" fill="white" stroke="black" stroke-width="10" stroke-miterlimit="22.9256" stroke-linecap="round" stroke-linejoin="round"/>
<path fill-rule="evenodd" clip-rule="evenodd" d="M560.224 1061.83H588.009C589.896 1061.83 591.437 1063.37 591.437 1065.26V1073.96C591.437 1075.85 589.892 1077.39 588.009 1077.39H560.224C558.338 1077.39 556.793 1075.85 556.793 1073.96V1065.26C556.796 1063.37 558.338 1061.83 560.224 1061.83Z" fill="black"/>
<path d="M508.604 1120.23H430.436C429.123 1120.23 428.061 1119.17 428.061 1117.86C428.061 1116.54 429.123 1115.48 430.436 1115.48H508.604C509.918 1115.48 510.98 1116.54 510.98 1117.86C510.98 1119.17 509.918 1120.23 508.604 1120.23Z" fill="black"/>
<path fill-rule="evenodd" clip-rule="evenodd" d="M646.62 1117.87C649.77 1117.87 652.343 1116.02 652.343 1113.76C652.343 1111.49 649.773 1109.64 646.62 1109.64C643.467 1109.64 640.9 1111.49 640.9 1113.76C640.9 1116.02 643.47 1117.87 646.62 1117.87Z" fill="#F58220"/>
<path d="M493.995 1214.4H418.884C417.57 1214.4 416.508 1213.34 416.508 1212.03V1206.42C416.508 1205.11 417.57 1204.05 418.884 1204.05C420.197 1204.05 421.259 1205.11 421.259 1206.42V1209.65H491.62V1206.42C491.62 1205.11 492.682 1204.05 493.995 1204.05C495.309 1204.05 496.371 1205.11 496.371 1206.42V1212.03C496.371 1213.34 495.305 1214.4 493.995 1214.4Z" fill="black"/>
<path fill-rule="evenodd" clip-rule="evenodd" d="M597.983 1260.98C636.082 1260.98 667.154 1229.91 667.154 1191.81C667.154 1153.71 636.079 1122.63 597.983 1122.63C559.885 1122.63 528.812 1153.71 528.812 1191.81C528.813 1229.9 559.885 1260.98 597.983 1260.98Z" fill="black"/>
<path fill-rule="evenodd" clip-rule="evenodd" d="M597.984 1238.13C623.494 1238.13 644.303 1217.32 644.303 1191.8C644.303 1166.29 623.494 1145.48 597.984 1145.48C572.475 1145.48 551.666 1166.29 551.666 1191.8C551.666 1217.32 572.471 1238.13 597.984 1238.13Z" fill="white"/>
<path fill-rule="evenodd" clip-rule="evenodd" d="M597.984 1207.32C606.525 1207.32 613.492 1200.35 613.492 1191.81C613.492 1183.27 606.525 1176.3 597.984 1176.3C589.443 1176.3 582.477 1183.27 582.477 1191.81C582.477 1200.35 589.44 1207.32 597.984 1207.32Z" fill="black"/>
<path fill-rule="evenodd" clip-rule="evenodd" d="M597.984 1199.29C602.109 1199.29 605.473 1195.93 605.473 1191.8C605.473 1187.68 602.109 1184.32 597.984 1184.32C593.859 1184.32 590.498 1187.68 590.498 1191.8C590.498 1195.93 593.859 1199.29 597.984 1199.29Z" fill="white" stroke="black" stroke-width="10" stroke-miterlimit="22.9256" stroke-linecap="round" stroke-linejoin="round"/>
<path d="M597.984 1234.04C621.309 1234.04 640.217 1215.13 640.217 1191.81C640.217 1168.48 621.309 1149.57 597.984 1149.57C574.659 1149.57 555.75 1168.48 555.75 1191.81C555.75 1215.13 574.659 1234.04 597.984 1234.04Z" stroke="black" stroke-width="10" stroke-miterlimit="22.9256" stroke-linecap="round" stroke-linejoin="round"/>
<path fill-rule="evenodd" clip-rule="evenodd" d="M597.983 1161.77C601.924 1161.77 605.141 1159.97 605.141 1157.77C605.141 1155.57 601.924 1153.77 597.983 1153.77C594.043 1153.77 590.826 1155.57 590.826 1157.77C590.826 1159.97 594.04 1161.77 597.983 1161.77Z" fill="black"/>
<path fill-rule="evenodd" clip-rule="evenodd" d="M571.967 1176.79C569.99 1180.21 566.837 1182.09 564.927 1180.99C563.017 1179.89 563.067 1176.21 565.044 1172.79C567.021 1169.37 570.174 1167.49 572.084 1168.59C573.998 1169.69 573.944 1173.36 571.967 1176.79Z" fill="black"/>
<path fill-rule="evenodd" clip-rule="evenodd" d="M571.967 1206.83C573.944 1210.25 573.994 1213.92 572.084 1215.03C570.174 1216.13 567.021 1214.25 565.044 1210.83C563.067 1207.4 563.017 1203.73 564.927 1202.63C566.84 1201.52 569.99 1203.4 571.967 1206.83Z" fill="black"/>
<path fill-rule="evenodd" clip-rule="evenodd" d="M597.98 1221.85C601.934 1221.85 605.137 1223.64 605.137 1225.84C605.137 1228.05 601.934 1229.84 597.98 1229.84C594.026 1229.84 590.822 1228.05 590.822 1225.84C590.822 1223.64 594.029 1221.85 597.98 1221.85Z" fill="black"/>
<path fill-rule="evenodd" clip-rule="evenodd" d="M623.991 1206.83C625.968 1203.4 629.121 1201.52 631.035 1202.63C632.945 1203.73 632.894 1207.4 630.917 1210.83C628.94 1214.25 625.787 1216.13 623.877 1215.03C621.964 1213.92 622.014 1210.25 623.991 1206.83Z" fill="black"/>
<path fill-rule="evenodd" clip-rule="evenodd" d="M623.991 1176.79C622.015 1173.36 621.964 1169.69 623.874 1168.59C625.784 1167.49 628.937 1169.37 630.914 1172.79C632.891 1176.22 632.942 1179.89 631.032 1180.99C629.122 1182.09 625.968 1180.21 623.991 1176.79Z" fill="black"/>
<path fill-rule="evenodd" clip-rule="evenodd" d="M587.422 1176.39C589.007 1176.39 590.297 1175.1 590.297 1173.51C590.297 1171.93 589.007 1170.64 587.422 1170.64C585.837 1170.64 584.547 1171.93 584.547 1173.51C584.547 1175.1 585.837 1176.39 587.422 1176.39Z" fill="black"/>
<path d="M576.859 1194.68C578.447 1194.68 579.734 1193.4 579.734 1191.81C579.734 1190.22 578.447 1188.93 576.859 1188.93C575.272 1188.93 573.984 1190.22 573.984 1191.81C573.984 1193.4 575.272 1194.68 576.859 1194.68Z" fill="black"/>
<path fill-rule="evenodd" clip-rule="evenodd" d="M587.422 1212.97C589.007 1212.97 590.297 1211.68 590.297 1210.1C590.297 1208.51 589.007 1207.22 587.422 1207.22C585.837 1207.22 584.547 1208.51 584.547 1210.1C584.547 1211.68 585.837 1212.97 587.422 1212.97Z" fill="black"/>
<path d="M608.541 1212.97C610.129 1212.97 611.416 1211.69 611.416 1210.1C611.416 1208.51 610.129 1207.22 608.541 1207.22C606.953 1207.22 605.666 1208.51 605.666 1210.1C605.666 1211.69 606.953 1212.97 608.541 1212.97Z" fill="black"/>
<path fill-rule="evenodd" clip-rule="evenodd" d="M619.1 1194.68C620.685 1194.68 621.975 1193.39 621.975 1191.8C621.975 1190.22 620.685 1188.93 619.1 1188.93C617.515 1188.93 616.225 1190.22 616.225 1191.8C616.225 1193.39 617.518 1194.68 619.1 1194.68Z" fill="black"/>
<path fill-rule="evenodd" clip-rule="evenodd" d="M608.541 1176.39C610.126 1176.39 611.416 1175.1 611.416 1173.52C611.416 1171.94 610.126 1170.64 608.541 1170.64C606.956 1170.64 605.666 1171.93 605.666 1173.52C605.666 1175.1 606.956 1176.39 608.541 1176.39Z" fill="black"/>
<path d="M1224.88 1260.98C1263.08 1260.98 1294.05 1230.01 1294.05 1191.81C1294.05 1153.6 1263.08 1122.63 1224.88 1122.63C1186.68 1122.63 1155.71 1153.6 1155.71 1191.81C1155.71 1230.01 1186.68 1260.98 1224.88 1260.98Z" fill="black"/>
<path d="M1224.88 1232.23C1247.2 1232.23 1265.3 1214.13 1265.3 1191.81C1265.3 1169.48 1247.2 1151.38 1224.88 1151.38C1202.55 1151.38 1184.46 1169.48 1184.46 1191.81C1184.46 1214.13 1202.55 1232.23 1224.88 1232.23Z" fill="white"/>
<path fill-rule="evenodd" clip-rule="evenodd" d="M1224.88 1228.72C1245.21 1228.72 1261.79 1212.14 1261.79 1191.81C1261.79 1171.47 1245.21 1154.89 1224.88 1154.89C1204.55 1154.89 1187.97 1171.48 1187.97 1191.81C1187.97 1212.14 1204.55 1228.72 1224.88 1228.72Z" stroke="black" stroke-width="10" stroke-miterlimit="22.9256" stroke-linecap="round" stroke-linejoin="round"/>
<path fill-rule="evenodd" clip-rule="evenodd" d="M1224.88 1202.56C1230.8 1202.56 1235.63 1197.73 1235.63 1191.8C1235.63 1185.88 1230.8 1181.05 1224.88 1181.05C1218.96 1181.05 1214.13 1185.88 1214.13 1191.8C1214.13 1197.73 1218.96 1202.56 1224.88 1202.56Z" fill="black"/>
<path fill-rule="evenodd" clip-rule="evenodd" d="M1224.88 1166.35C1228.22 1166.35 1230.94 1164.83 1230.94 1162.97C1230.94 1161.1 1228.22 1159.58 1224.88 1159.58C1221.54 1159.58 1218.81 1161.1 1218.81 1162.97C1218.81 1164.83 1221.54 1166.35 1224.88 1166.35Z" fill="black"/>
<path fill-rule="evenodd" clip-rule="evenodd" d="M1202.84 1179.08C1201.16 1181.98 1198.49 1183.57 1196.87 1182.64C1195.25 1181.7 1195.29 1178.59 1196.97 1175.69C1198.64 1172.79 1201.31 1171.2 1202.93 1172.13C1204.56 1173.07 1204.51 1176.18 1202.84 1179.08Z" fill="black"/>
<path fill-rule="evenodd" clip-rule="evenodd" d="M1202.84 1204.53C1204.51 1207.44 1204.56 1210.55 1202.94 1211.48C1201.31 1212.42 1198.64 1210.82 1196.97 1207.92C1195.29 1205.02 1195.25 1201.91 1196.87 1200.98C1198.49 1200.04 1201.16 1201.63 1202.84 1204.53Z" fill="black"/>
<path fill-rule="evenodd" clip-rule="evenodd" d="M1224.88 1217.26C1228.23 1217.26 1230.94 1218.78 1230.94 1220.65C1230.94 1222.52 1228.23 1224.03 1224.88 1224.03C1221.53 1224.03 1218.81 1222.52 1218.81 1220.65C1218.81 1218.78 1221.53 1217.26 1224.88 1217.26Z" fill="black"/>
<path fill-rule="evenodd" clip-rule="evenodd" d="M1246.92 1204.53C1248.6 1201.63 1251.27 1200.04 1252.89 1200.98C1254.51 1201.91 1254.46 1205.02 1252.79 1207.92C1251.12 1210.82 1248.44 1212.42 1246.82 1211.48C1245.2 1210.54 1245.24 1207.43 1246.92 1204.53Z" fill="black"/>
<path fill-rule="evenodd" clip-rule="evenodd" d="M1246.92 1179.08C1245.24 1176.18 1245.2 1173.07 1246.82 1172.13C1248.44 1171.2 1251.12 1172.79 1252.79 1175.69C1254.47 1178.59 1254.51 1181.7 1252.89 1182.64C1251.27 1183.57 1248.6 1181.98 1246.92 1179.08Z" fill="black"/>
<path fill-rule="evenodd" clip-rule="evenodd" d="M1216.94 1180.8C1218.46 1180.8 1219.69 1179.57 1219.69 1178.05C1219.69 1176.53 1218.46 1175.29 1216.94 1175.29C1215.42 1175.29 1214.19 1176.53 1214.19 1178.05C1214.19 1179.57 1215.42 1180.8 1216.94 1180.8Z" fill="black"/>
<path fill-rule="evenodd" clip-rule="evenodd" d="M1208.99 1194.56C1210.51 1194.56 1211.75 1193.33 1211.75 1191.81C1211.75 1190.29 1210.51 1189.05 1208.99 1189.05C1207.48 1189.05 1206.24 1190.29 1206.24 1191.81C1206.24 1193.33 1207.48 1194.56 1208.99 1194.56Z" fill="black"/>
<path fill-rule="evenodd" clip-rule="evenodd" d="M1216.94 1208.32C1218.46 1208.32 1219.69 1207.08 1219.69 1205.56C1219.69 1204.05 1218.46 1202.81 1216.94 1202.81C1215.42 1202.81 1214.19 1204.05 1214.19 1205.56C1214.19 1207.08 1215.42 1208.32 1216.94 1208.32Z" fill="black"/>
<path fill-rule="evenodd" clip-rule="evenodd" d="M1232.82 1208.32C1234.34 1208.32 1235.58 1207.08 1235.58 1205.56C1235.58 1204.05 1234.34 1202.81 1232.82 1202.81C1231.3 1202.81 1230.07 1204.05 1230.07 1205.56C1230.07 1207.08 1231.31 1208.32 1232.82 1208.32Z" fill="black"/>
<path fill-rule="evenodd" clip-rule="evenodd" d="M1240.77 1194.56C1242.28 1194.56 1243.52 1193.32 1243.52 1191.8C1243.52 1190.29 1242.28 1189.05 1240.77 1189.05C1239.25 1189.05 1238.01 1190.29 1238.01 1191.8C1238.01 1193.32 1239.25 1194.56 1240.77 1194.56Z" fill="black"/>
<path fill-rule="evenodd" clip-rule="evenodd" d="M1232.82 1180.8C1234.34 1180.8 1235.58 1179.57 1235.58 1178.05C1235.58 1176.53 1234.34 1175.29 1232.82 1175.29C1231.3 1175.29 1230.07 1176.53 1230.07 1178.05C1230.07 1179.57 1231.31 1180.8 1232.82 1180.8Z" fill="black"/>
<path d="M1438.91 1218.06C1453.44 1182.72 1436.57 1142.3 1401.24 1127.77C1365.9 1113.24 1325.48 1130.11 1310.96 1165.44C1296.43 1200.78 1313.29 1241.2 1348.63 1255.73C1383.96 1270.26 1424.38 1253.39 1438.91 1218.06Z" fill="black"/>
<path fill-rule="evenodd" clip-rule="evenodd" d="M1374.86 1232.23C1397.12 1232.23 1415.29 1214.07 1415.29 1191.8C1415.29 1169.54 1397.13 1151.38 1374.86 1151.38C1352.6 1151.38 1334.44 1169.54 1334.44 1191.8C1334.44 1214.07 1352.6 1232.23 1374.86 1232.23Z" fill="white"/>
<path fill-rule="evenodd" clip-rule="evenodd" d="M1374.86 1228.72C1395.19 1228.72 1411.77 1212.14 1411.77 1191.81C1411.77 1171.47 1395.19 1154.89 1374.86 1154.89C1354.53 1154.89 1337.95 1171.48 1337.95 1191.81C1337.95 1212.14 1354.53 1228.72 1374.86 1228.72Z" stroke="black" stroke-width="10" stroke-miterlimit="22.9256" stroke-linecap="round" stroke-linejoin="round"/>
<path fill-rule="evenodd" clip-rule="evenodd" d="M1374.86 1202.56C1380.78 1202.56 1385.61 1197.73 1385.61 1191.8C1385.61 1185.88 1380.78 1181.05 1374.86 1181.05C1368.94 1181.05 1364.11 1185.88 1364.11 1191.8C1364.11 1197.73 1368.94 1202.56 1374.86 1202.56Z" fill="black"/>
<path fill-rule="evenodd" clip-rule="evenodd" d="M1374.86 1166.35C1378.2 1166.35 1380.93 1164.83 1380.93 1162.97C1380.93 1161.1 1378.2 1159.58 1374.86 1159.58C1371.52 1159.58 1368.8 1161.1 1368.8 1162.97C1368.8 1164.83 1371.52 1166.35 1374.86 1166.35Z" fill="black"/>
<path fill-rule="evenodd" clip-rule="evenodd" d="M1352.82 1179.08C1351.14 1181.98 1348.47 1183.57 1346.85 1182.64C1345.23 1181.7 1345.27 1178.6 1346.95 1175.69C1348.62 1172.79 1351.29 1171.2 1352.91 1172.13C1354.53 1173.07 1354.49 1176.18 1352.82 1179.08Z" fill="black"/>
<path fill-rule="evenodd" clip-rule="evenodd" d="M1352.82 1204.53C1354.49 1207.44 1354.54 1210.55 1352.91 1211.48C1351.3 1212.42 1348.62 1210.82 1346.95 1207.92C1345.27 1205.02 1345.23 1201.91 1346.85 1200.98C1348.47 1200.04 1351.14 1201.63 1352.82 1204.53Z" fill="black"/>
<path fill-rule="evenodd" clip-rule="evenodd" d="M1374.86 1217.26C1378.21 1217.26 1380.92 1218.78 1380.92 1220.65C1380.92 1222.52 1378.21 1224.03 1374.86 1224.03C1371.51 1224.03 1368.79 1222.52 1368.79 1220.65C1368.79 1218.78 1371.51 1217.26 1374.86 1217.26Z" fill="black"/>
<path fill-rule="evenodd" clip-rule="evenodd" d="M1396.9 1204.54C1398.57 1201.63 1401.25 1200.04 1402.87 1200.98C1404.49 1201.91 1404.45 1205.02 1402.77 1207.92C1401.09 1210.82 1398.42 1212.42 1396.81 1211.48C1395.18 1210.54 1395.22 1207.43 1396.9 1204.54Z" fill="black"/>
<path fill-rule="evenodd" clip-rule="evenodd" d="M1396.9 1179.08C1395.22 1176.18 1395.18 1173.07 1396.8 1172.13C1398.42 1171.2 1401.09 1172.79 1402.77 1175.69C1404.44 1178.6 1404.48 1181.7 1402.86 1182.64C1401.24 1183.57 1398.57 1181.98 1396.9 1179.08Z" fill="black"/>
<path fill-rule="evenodd" clip-rule="evenodd" d="M1366.92 1180.8C1368.43 1180.8 1369.67 1179.57 1369.67 1178.05C1369.67 1176.53 1368.43 1175.29 1366.92 1175.29C1365.4 1175.29 1364.16 1176.53 1364.16 1178.05C1364.16 1179.57 1365.4 1180.8 1366.92 1180.8Z" fill="black"/>
<path fill-rule="evenodd" clip-rule="evenodd" d="M1358.98 1194.56C1360.49 1194.56 1361.73 1193.33 1361.73 1191.81C1361.73 1190.29 1360.49 1189.05 1358.98 1189.05C1357.46 1189.05 1356.22 1190.29 1356.22 1191.81C1356.22 1193.33 1357.46 1194.56 1358.98 1194.56Z" fill="black"/>
<path fill-rule="evenodd" clip-rule="evenodd" d="M1366.92 1208.32C1368.43 1208.32 1369.67 1207.08 1369.67 1205.56C1369.67 1204.05 1368.43 1202.81 1366.92 1202.81C1365.4 1202.81 1364.16 1204.05 1364.16 1205.56C1364.16 1207.08 1365.4 1208.32 1366.92 1208.32Z" fill="black"/>
<path fill-rule="evenodd" clip-rule="evenodd" d="M1382.8 1208.32C1384.32 1208.32 1385.56 1207.08 1385.56 1205.56C1385.56 1204.05 1384.32 1202.81 1382.8 1202.81C1381.29 1202.81 1380.05 1204.05 1380.05 1205.56C1380.05 1207.08 1381.29 1208.32 1382.8 1208.32Z" fill="black"/>
<path fill-rule="evenodd" clip-rule="evenodd" d="M1390.74 1194.56C1392.26 1194.56 1393.5 1193.32 1393.5 1191.8C1393.5 1190.29 1392.26 1189.05 1390.74 1189.05C1389.23 1189.05 1387.99 1190.29 1387.99 1191.8C1387.99 1193.32 1389.23 1194.56 1390.74 1194.56Z" fill="black"/>
<path d="M1382.8 1180.81C1384.32 1180.81 1385.56 1179.57 1385.56 1178.05C1385.56 1176.53 1384.32 1175.3 1382.8 1175.3C1381.28 1175.3 1380.05 1176.53 1380.05 1178.05C1380.05 1179.57 1381.28 1180.81 1382.8 1180.81Z" fill="black"/>
<path d="M428.895 1053.38C427.582 1053.38 426.52 1052.31 426.52 1051V899.444C426.52 895.215 429.957 891.777 434.186 891.777H476.457C477.77 891.777 478.832 892.84 478.832 894.153C478.832 895.467 477.77 896.529 476.457 896.529H434.186C432.605 896.529 431.271 897.866 431.271 899.444V1051C431.271 1052.31 430.205 1053.38 428.895 1053.38Z" fill="black"/>
<path fill-rule="evenodd" clip-rule="evenodd" d="M426.925 939.174H432.36C433.385 939.174 434.216 940.008 434.216 941.03V949.14C434.216 950.162 433.382 950.996 432.36 950.996H426.925C425.903 950.996 425.068 950.162 425.068 949.14V941.03C425.068 940.008 425.906 939.174 426.925 939.174Z" fill="black"/>
<path fill-rule="evenodd" clip-rule="evenodd" d="M441.441 906.753C445.113 906.753 446.021 914.179 446.021 921.343V969.55C446.021 976.715 445.113 984.141 441.441 984.141C431.814 984.141 431.814 906.753 441.441 906.753Z" fill="#505050" stroke="black" stroke-width="10" stroke-miterlimit="22.9256" stroke-linecap="round" stroke-linejoin="round"/>
<path fill-rule="evenodd" clip-rule="evenodd" d="M441.441 995.38C445.113 995.38 446.021 998.258 446.021 1001.03V1019.71C446.021 1022.49 445.113 1025.37 441.441 1025.37C431.814 1025.37 431.814 995.38 441.441 995.38Z" fill="#505050" stroke="black" stroke-width="10" stroke-miterlimit="22.9256" stroke-linecap="round" stroke-linejoin="round"/>
<path fill-rule="evenodd" clip-rule="evenodd" d="M476.455 898.821C479.025 898.821 481.12 896.724 481.12 894.157C481.12 891.587 479.022 889.492 476.455 889.492C473.885 889.492 471.791 891.59 471.791 894.157C471.791 896.724 473.885 898.821 476.455 898.821Z" fill="black"/>
<path fill-rule="evenodd" clip-rule="evenodd" d="M426.925 1004.46H432.36C433.385 1004.46 434.216 1005.3 434.216 1006.32V1014.43C434.216 1015.45 433.382 1016.28 432.36 1016.28H426.925C425.903 1016.28 425.068 1015.45 425.068 1014.43V1006.32C425.068 1005.3 425.906 1004.46 426.925 1004.46Z" fill="black"/>
<path fill-rule="evenodd" clip-rule="evenodd" d="M428.895 1055.66C431.465 1055.66 433.559 1053.57 433.559 1051C433.559 1048.43 431.462 1046.33 428.895 1046.33C426.325 1046.33 424.23 1048.43 424.23 1051C424.227 1053.57 426.325 1055.66 428.895 1055.66Z" fill="black"/>
<path d="M2644.22 718H1778V1120.58H2644.22V718Z" fill="white" stroke="black" stroke-width="10" stroke-miterlimit="22.9256" stroke-linecap="round" stroke-linejoin="round"/>
</svg>
