<svg width="3000" height="2000" viewBox="0 0 3000 2000" fill="none" xmlns="http://www.w3.org/2000/svg">
<path d="M1961.06 1050.72H1760.18V1188.58H1961.06V1050.72Z" fill="#2D2D2D"/>
<path d="M1197.61 1050.72H996.73V1188.58H1197.61V1050.72Z" fill="#2D2D2D"/>
<path fill-rule="evenodd" clip-rule="evenodd" d="M1026.75 1196.99L943.737 1196.99C941.19 1192.91 938.643 1188.83 936.097 1184.74C928.512 1178.97 920.928 1173.19 913.349 1167.42C911.495 1166.01 905 1156.07 905 1153.75C905 1139.9 905 1134.59 905 1120.75C905 1116.77 909.374 1078.75 913.347 1078.75L989.501 1068.75L1020.5 1105.75C1016.08 1116.26 1010.54 1134.83 1010.54 1146.52C1010.54 1164.8 1016.25 1182.37 1026.75 1196.99Z" fill="#505050" stroke="black" stroke-width="10" stroke-miterlimit="22.9256" stroke-linecap="round" stroke-linejoin="round"/>
<path fill-rule="evenodd" clip-rule="evenodd" d="M1020.5 1107.25L989.5 1071.25L934 1038.25C935.5 1028.25 931.349 1032.22 942 1014.25C950 1000.75 970.502 984.194 974.5 980.746C1016 952.246 1020.5 945.246 1069.5 919.746C1089.83 918.849 1193.5 777.746 1218.5 777.746C1243.5 777.746 1788.74 775 2080.41 775C2084.39 775 2087.65 778.26 2087.65 782.243C2087.65 892.469 2087.65 1002.7 2087.65 1112.92H1940.5C1936.19 1102.69 1929.92 1093.3 1921.88 1085.27C1905.59 1068.97 1883.68 1059.89 1860.63 1059.89C1837.58 1059.89 1815.67 1068.97 1799.37 1085.27C1783.07 1101.56 1774 1123.48 1774 1146.53C1774 1164.81 1779.71 1182.38 1790.2 1197H1167.59C1178.09 1182.39 1183.8 1164.82 1183.8 1146.53C1183.8 1123.48 1174.73 1101.57 1158.43 1085.27C1142.14 1068.97 1120.22 1059.89 1097.17 1059.89C1074.12 1059.89 1052.21 1068.97 1035.91 1085.27C1030.93 1090.25 1026 1096.75 1020.5 1107.25Z" fill="white" stroke="black" stroke-width="10" stroke-miterlimit="22.9256" stroke-linecap="round" stroke-linejoin="round"/>
<path fill-rule="evenodd" clip-rule="evenodd" d="M1089.22 928.58H1375.64V795.213C1375.64 794.714 1375.57 794.23 1375.45 793.771H1213.62L1089.22 928.58Z" fill="#C8C8C8" stroke="black" stroke-width="10" stroke-miterlimit="22.9256" stroke-linecap="round" stroke-linejoin="round"/>
<path fill-rule="evenodd" clip-rule="evenodd" d="M2087.65 1112.92H1940.49C1944.92 1123.44 1947.25 1134.83 1947.25 1146.52C1947.25 1164.6 1941.66 1181.98 1931.39 1196.5L2061.13 1189.76C2063.59 1189.63 2065.66 1188.39 2066.93 1186.28C2076.24 1170.87 2108.41 1112.92 2087.65 1112.92Z" fill="#505050" stroke="black" stroke-width="10" stroke-miterlimit="22.9256" stroke-linecap="round" stroke-linejoin="round"/>
<path fill-rule="evenodd" clip-rule="evenodd" d="M1006.02 1035.27L945.912 1039.94L934.57 1064.18L942.087 1073.72L988.578 1069.43C994.553 1058.73 1006.02 1035.27 1006.02 1035.27Z" fill="#C8C8C8" stroke="black" stroke-width="10" stroke-miterlimit="22.9256" stroke-linecap="round" stroke-linejoin="round"/>
<path fill-rule="evenodd" clip-rule="evenodd" d="M944.918 1040.46L934.418 1062.46L938.418 1071.46L909.918 1076.96L930.918 1030.46L944.918 1040.46Z" fill="#262525" stroke="black" stroke-width="4" stroke-miterlimit="22.9256" stroke-linecap="round" stroke-linejoin="round"/>
<path fill-rule="evenodd" clip-rule="evenodd" d="M1375.64 928.58H1089.22V1028.05C1089.22 1031.21 1091.77 1033.79 1094.93 1033.83C1105.59 1033.95 1115.43 1034.61 1127.17 1037.84C1174.85 1050.97 1209.88 1094.66 1209.88 1146.53C1209.88 1148.16 1209.88 1149.79 1209.88 1151.43C1209.88 1154.61 1212.48 1157.2 1215.66 1157.2H1369.87C1373.05 1157.2 1375.64 1154.61 1375.64 1151.43C1375.64 1077.14 1375.64 1002.86 1375.64 928.58Z" fill="white" stroke="black" stroke-width="10" stroke-miterlimit="22.9256" stroke-linecap="round" stroke-linejoin="round"/>
<path fill-rule="evenodd" clip-rule="evenodd" d="M1350.19 967.405H1356.61C1359.1 967.405 1361.14 969.437 1361.14 971.928V1005.05C1361.14 1007.54 1359.1 1009.58 1356.61 1009.58H1350.19C1347.71 1009.58 1345.67 1007.54 1345.67 1005.05V971.928C1345.67 969.437 1347.71 967.405 1350.19 967.405Z" fill="black"/>
<path fill-rule="evenodd" clip-rule="evenodd" d="M1043.63 998.065H1052.01C1055.34 998.065 1058.07 1000.8 1058.07 1004.13C1058.07 1007.47 1055.34 1010.19 1052.01 1010.19H1043.63C1040.29 1010.19 1037.56 1007.46 1037.56 1004.13C1037.56 1000.8 1040.29 998.065 1043.63 998.065Z" fill="#F58220"/>
<path d="M2058.08 992.105H1405.21C1403.21 992.105 1401.6 990.491 1401.6 988.494C1401.6 986.497 1403.21 984.882 1405.21 984.882H2058.08C2060.07 984.882 2061.69 986.497 2061.69 988.494C2061.69 990.491 2060.07 992.105 2058.08 992.105Z" fill="black"/>
<path fill-rule="evenodd" clip-rule="evenodd" d="M2087.65 1044.15H2068.54C2065.67 1044.15 2063.32 1046.5 2063.32 1049.38V1112.91H2087.65V1044.15Z" fill="#ED1C24" stroke="black" stroke-width="10" stroke-miterlimit="22.9256" stroke-linecap="round" stroke-linejoin="round"/>
<path fill-rule="evenodd" clip-rule="evenodd" d="M1124.75 928.58H1089.22L1124.75 890.075V928.58Z" fill="black" stroke="black" stroke-width="10" stroke-miterlimit="22.9256" stroke-linecap="round" stroke-linejoin="round"/>
<path fill-rule="evenodd" clip-rule="evenodd" d="M1097.18 1224.13C1139.92 1224.13 1174.78 1189.27 1174.78 1146.52C1174.78 1103.77 1139.92 1068.91 1097.18 1068.91C1054.43 1068.91 1019.57 1103.78 1019.57 1146.52C1019.57 1189.27 1054.43 1224.13 1097.18 1224.13Z" fill="black"/>
<path fill-rule="evenodd" clip-rule="evenodd" d="M1097.18 1196.51C1124.71 1196.51 1147.16 1174.05 1147.16 1146.52C1147.16 1118.99 1124.71 1096.53 1097.18 1096.53C1069.65 1096.53 1047.19 1118.98 1047.19 1146.52C1047.19 1174.06 1069.65 1196.51 1097.18 1196.51Z" fill="white" stroke="black" stroke-width="10" stroke-miterlimit="22.9256"/>
<path fill-rule="evenodd" clip-rule="evenodd" d="M1097.18 1190.27C1121.27 1190.27 1140.92 1170.61 1140.92 1146.52C1140.92 1122.43 1121.27 1102.77 1097.18 1102.77C1073.08 1102.77 1053.43 1122.43 1053.43 1146.52C1053.43 1170.61 1073.08 1190.27 1097.18 1190.27Z" stroke="black" stroke-width="10" stroke-miterlimit="22.9256" stroke-linecap="round" stroke-linejoin="round"/>
<path fill-rule="evenodd" clip-rule="evenodd" d="M1097.18 1171.1C1110.71 1171.1 1121.75 1160.05 1121.75 1146.52C1121.75 1132.98 1110.71 1121.94 1097.18 1121.94C1083.64 1121.94 1072.59 1132.98 1072.59 1146.52C1072.59 1160.06 1083.64 1171.1 1097.18 1171.1Z" stroke="black" stroke-width="10" stroke-miterlimit="22.9256" stroke-linecap="round" stroke-linejoin="round"/>
<path fill-rule="evenodd" clip-rule="evenodd" d="M1097.18 1135.22C1099.2 1135.22 1100.84 1133.57 1100.84 1131.55C1100.84 1129.53 1099.2 1127.88 1097.18 1127.88C1095.16 1127.88 1093.51 1129.53 1093.51 1131.55C1093.51 1133.57 1095.16 1135.22 1097.18 1135.22Z" fill="black"/>
<path fill-rule="evenodd" clip-rule="evenodd" d="M1083.04 1145.49C1085.06 1145.49 1086.7 1143.85 1086.7 1141.82C1086.7 1139.81 1085.06 1138.16 1083.04 1138.16C1081.01 1138.16 1079.37 1139.81 1079.37 1141.82C1079.37 1143.85 1081.02 1145.49 1083.04 1145.49Z" fill="black"/>
<path fill-rule="evenodd" clip-rule="evenodd" d="M1088.43 1162.11C1090.45 1162.11 1092.1 1160.46 1092.1 1158.44C1092.1 1156.42 1090.46 1154.77 1088.43 1154.77C1086.42 1154.77 1084.77 1156.42 1084.77 1158.44C1084.77 1160.46 1086.42 1162.11 1088.43 1162.11Z" fill="black"/>
<path fill-rule="evenodd" clip-rule="evenodd" d="M1105.91 1162.11C1107.93 1162.11 1109.58 1160.46 1109.58 1158.44C1109.58 1156.42 1107.93 1154.77 1105.91 1154.77C1103.89 1154.77 1102.24 1156.42 1102.24 1158.44C1102.24 1160.46 1103.89 1162.11 1105.91 1162.11Z" fill="black"/>
<path fill-rule="evenodd" clip-rule="evenodd" d="M1111.31 1145.49C1113.33 1145.49 1114.98 1143.85 1114.98 1141.82C1114.98 1139.81 1113.33 1138.16 1111.31 1138.16C1109.29 1138.16 1107.64 1139.81 1107.64 1141.82C1107.64 1143.85 1109.29 1145.49 1111.31 1145.49Z" fill="black"/>
<path fill-rule="evenodd" clip-rule="evenodd" d="M1097.18 1117.25C1099.92 1117.25 1102.16 1115.01 1102.16 1112.26C1102.16 1109.51 1099.92 1107.28 1097.18 1107.28C1094.43 1107.28 1092.19 1109.52 1092.19 1112.26C1092.18 1115.01 1094.43 1117.25 1097.18 1117.25Z" fill="black"/>
<path fill-rule="evenodd" clip-rule="evenodd" d="M1077.04 1123.79C1079.79 1123.79 1082.03 1121.55 1082.03 1118.81C1082.03 1116.06 1079.79 1113.81 1077.04 1113.81C1074.3 1113.81 1072.05 1116.05 1072.05 1118.81C1072.05 1121.56 1074.3 1123.79 1077.04 1123.79Z" fill="black"/>
<path d="M1064.6 1140.92C1067.35 1140.92 1069.58 1138.69 1069.58 1135.94C1069.58 1133.18 1067.35 1130.95 1064.6 1130.95C1061.84 1130.95 1059.61 1133.18 1059.61 1135.94C1059.61 1138.69 1061.84 1140.92 1064.6 1140.92Z" fill="black"/>
<path fill-rule="evenodd" clip-rule="evenodd" d="M1064.6 1162.09C1067.34 1162.09 1069.58 1159.85 1069.58 1157.11C1069.58 1154.35 1067.34 1152.12 1064.6 1152.12C1061.85 1152.12 1059.61 1154.36 1059.61 1157.11C1059.61 1159.85 1061.85 1162.09 1064.6 1162.09Z" fill="black"/>
<path fill-rule="evenodd" clip-rule="evenodd" d="M1077.04 1179.22C1079.79 1179.22 1082.03 1176.98 1082.03 1174.24C1082.03 1171.49 1079.79 1169.24 1077.04 1169.24C1074.3 1169.24 1072.05 1171.49 1072.05 1174.24C1072.05 1176.99 1074.3 1179.22 1077.04 1179.22Z" fill="black"/>
<path fill-rule="evenodd" clip-rule="evenodd" d="M1097.18 1185.76C1099.92 1185.76 1102.16 1183.52 1102.16 1180.78C1102.16 1178.03 1099.92 1175.79 1097.18 1175.79C1094.43 1175.79 1092.19 1178.03 1092.19 1180.78C1092.18 1183.52 1094.43 1185.76 1097.18 1185.76Z" fill="black"/>
<path fill-rule="evenodd" clip-rule="evenodd" d="M1117.31 1179.22C1120.06 1179.22 1122.3 1176.98 1122.3 1174.24C1122.3 1171.49 1120.06 1169.24 1117.31 1169.24C1114.57 1169.24 1112.32 1171.49 1112.32 1174.24C1112.32 1176.99 1114.56 1179.22 1117.31 1179.22Z" fill="black"/>
<path fill-rule="evenodd" clip-rule="evenodd" d="M1129.75 1162.09C1132.5 1162.09 1134.74 1159.85 1134.74 1157.11C1134.74 1154.35 1132.5 1152.12 1129.75 1152.12C1127.01 1152.12 1124.77 1154.36 1124.77 1157.11C1124.76 1159.85 1127.01 1162.09 1129.75 1162.09Z" fill="black"/>
<path d="M1129.75 1140.92C1132.51 1140.92 1134.74 1138.69 1134.74 1135.94C1134.74 1133.18 1132.51 1130.95 1129.75 1130.95C1127 1130.95 1124.77 1133.18 1124.77 1135.94C1124.77 1138.69 1127 1140.92 1129.75 1140.92Z" fill="black"/>
<path fill-rule="evenodd" clip-rule="evenodd" d="M1117.31 1123.79C1120.06 1123.79 1122.3 1121.55 1122.3 1118.81C1122.3 1116.06 1120.06 1113.81 1117.31 1113.81C1114.57 1113.81 1112.32 1116.05 1112.32 1118.81C1112.32 1121.56 1114.56 1123.79 1117.31 1123.79Z" fill="black"/>
<path d="M1097.18 1154.15C1101.39 1154.15 1104.8 1150.73 1104.8 1146.52C1104.8 1142.31 1101.39 1138.89 1097.18 1138.89C1092.96 1138.89 1089.55 1142.31 1089.55 1146.52C1089.55 1150.73 1092.96 1154.15 1097.18 1154.15Z" fill="black"/>
<path fill-rule="evenodd" clip-rule="evenodd" d="M1860.62 1224.13C1903.37 1224.13 1938.23 1189.27 1938.23 1146.52C1938.23 1103.77 1903.36 1068.91 1860.62 1068.91C1817.88 1068.91 1783.02 1103.78 1783.02 1146.52C1783.02 1189.27 1817.88 1224.13 1860.62 1224.13Z" fill="black"/>
<path fill-rule="evenodd" clip-rule="evenodd" d="M1860.62 1196.51C1888.15 1196.51 1910.61 1174.05 1910.61 1146.52C1910.61 1118.99 1888.15 1096.53 1860.62 1096.53C1833.09 1096.53 1810.64 1118.98 1810.64 1146.52C1810.64 1174.06 1833.09 1196.51 1860.62 1196.51Z" fill="white" stroke="black" stroke-width="10" stroke-miterlimit="22.9256"/>
<path fill-rule="evenodd" clip-rule="evenodd" d="M1860.62 1190.27C1884.72 1190.27 1904.37 1170.61 1904.37 1146.52C1904.37 1122.43 1884.72 1102.77 1860.62 1102.77C1836.53 1102.77 1816.88 1122.43 1816.88 1146.52C1816.88 1170.61 1836.53 1190.27 1860.62 1190.27Z" stroke="black" stroke-width="10" stroke-miterlimit="22.9256" stroke-linecap="round" stroke-linejoin="round"/>
<path fill-rule="evenodd" clip-rule="evenodd" d="M1860.62 1171.1C1874.16 1171.1 1885.2 1160.05 1885.2 1146.52C1885.2 1132.98 1874.16 1121.94 1860.62 1121.94C1847.08 1121.94 1836.04 1132.98 1836.04 1146.52C1836.04 1160.06 1847.08 1171.1 1860.62 1171.1Z" stroke="black" stroke-width="10" stroke-miterlimit="22.9256" stroke-linecap="round" stroke-linejoin="round"/>
<path fill-rule="evenodd" clip-rule="evenodd" d="M1860.62 1135.22C1862.64 1135.22 1864.29 1133.57 1864.29 1131.55C1864.29 1129.53 1862.64 1127.88 1860.62 1127.88C1858.6 1127.88 1856.96 1129.53 1856.96 1131.55C1856.96 1133.57 1858.6 1135.22 1860.62 1135.22Z" fill="black"/>
<path fill-rule="evenodd" clip-rule="evenodd" d="M1846.49 1145.49C1848.5 1145.49 1850.16 1143.85 1850.16 1141.82C1850.16 1139.81 1848.51 1138.16 1846.49 1138.16C1844.47 1138.16 1842.82 1139.81 1842.82 1141.82C1842.82 1143.85 1844.47 1145.49 1846.49 1145.49Z" fill="black"/>
<path fill-rule="evenodd" clip-rule="evenodd" d="M1851.89 1162.11C1853.9 1162.11 1855.55 1160.46 1855.55 1158.44C1855.55 1156.42 1853.91 1154.77 1851.89 1154.77C1849.87 1154.77 1848.22 1156.42 1848.22 1158.44C1848.22 1160.46 1849.86 1162.11 1851.89 1162.11Z" fill="black"/>
<path fill-rule="evenodd" clip-rule="evenodd" d="M1869.36 1162.11C1871.38 1162.11 1873.02 1160.46 1873.02 1158.44C1873.02 1156.42 1871.38 1154.77 1869.36 1154.77C1867.33 1154.77 1865.69 1156.42 1865.69 1158.44C1865.69 1160.46 1867.34 1162.11 1869.36 1162.11Z" fill="black"/>
<path fill-rule="evenodd" clip-rule="evenodd" d="M1874.76 1145.49C1876.77 1145.49 1878.42 1143.85 1878.42 1141.82C1878.42 1139.81 1876.78 1138.16 1874.76 1138.16C1872.74 1138.16 1871.09 1139.81 1871.09 1141.82C1871.09 1143.85 1872.74 1145.49 1874.76 1145.49Z" fill="black"/>
<path fill-rule="evenodd" clip-rule="evenodd" d="M1860.62 1117.25C1863.37 1117.25 1865.61 1115.01 1865.61 1112.26C1865.61 1109.51 1863.37 1107.28 1860.62 1107.28C1857.88 1107.28 1855.64 1109.52 1855.64 1112.26C1855.64 1115.01 1857.88 1117.25 1860.62 1117.25Z" fill="black"/>
<path fill-rule="evenodd" clip-rule="evenodd" d="M1840.49 1123.79C1843.24 1123.79 1845.48 1121.55 1845.48 1118.81C1845.48 1116.06 1843.23 1113.81 1840.49 1113.81C1837.74 1113.81 1835.5 1116.05 1835.5 1118.81C1835.5 1121.56 1837.74 1123.79 1840.49 1123.79Z" fill="black"/>
<path fill-rule="evenodd" clip-rule="evenodd" d="M1828.05 1140.92C1830.79 1140.92 1833.03 1138.68 1833.03 1135.94C1833.03 1133.19 1830.79 1130.95 1828.05 1130.95C1825.3 1130.95 1823.06 1133.19 1823.06 1135.94C1823.06 1138.68 1825.3 1140.92 1828.05 1140.92Z" fill="black"/>
<path fill-rule="evenodd" clip-rule="evenodd" d="M1828.05 1162.09C1830.79 1162.09 1833.03 1159.85 1833.03 1157.11C1833.03 1154.35 1830.79 1152.12 1828.05 1152.12C1825.3 1152.12 1823.06 1154.36 1823.06 1157.11C1823.06 1159.85 1825.3 1162.09 1828.05 1162.09Z" fill="black"/>
<path fill-rule="evenodd" clip-rule="evenodd" d="M1840.49 1179.22C1843.24 1179.22 1845.48 1176.98 1845.48 1174.24C1845.48 1171.49 1843.23 1169.24 1840.49 1169.24C1837.74 1169.24 1835.5 1171.49 1835.5 1174.24C1835.5 1176.99 1837.74 1179.22 1840.49 1179.22Z" fill="black"/>
<path fill-rule="evenodd" clip-rule="evenodd" d="M1860.62 1185.76C1863.37 1185.76 1865.61 1183.52 1865.61 1180.78C1865.61 1178.03 1863.37 1175.79 1860.62 1175.79C1857.88 1175.79 1855.64 1178.03 1855.64 1180.78C1855.64 1183.52 1857.88 1185.76 1860.62 1185.76Z" fill="black"/>
<path fill-rule="evenodd" clip-rule="evenodd" d="M1880.76 1179.22C1883.51 1179.22 1885.75 1176.98 1885.75 1174.24C1885.75 1171.49 1883.51 1169.24 1880.76 1169.24C1878.01 1169.24 1875.77 1171.49 1875.77 1174.24C1875.77 1176.99 1878.01 1179.22 1880.76 1179.22Z" fill="black"/>
<path fill-rule="evenodd" clip-rule="evenodd" d="M1893.2 1162.09C1895.95 1162.09 1898.19 1159.85 1898.19 1157.11C1898.19 1154.35 1895.95 1152.12 1893.2 1152.12C1890.46 1152.12 1888.21 1154.36 1888.21 1157.11C1888.21 1159.85 1890.46 1162.09 1893.2 1162.09Z" fill="black"/>
<path fill-rule="evenodd" clip-rule="evenodd" d="M1893.2 1140.92C1895.95 1140.92 1898.19 1138.68 1898.19 1135.94C1898.19 1133.19 1895.95 1130.95 1893.2 1130.95C1890.46 1130.95 1888.21 1133.19 1888.21 1135.94C1888.21 1138.68 1890.46 1140.92 1893.2 1140.92Z" fill="black"/>
<path fill-rule="evenodd" clip-rule="evenodd" d="M1880.76 1123.79C1883.51 1123.79 1885.75 1121.55 1885.75 1118.81C1885.75 1116.06 1883.51 1113.81 1880.76 1113.81C1878.01 1113.81 1875.77 1116.05 1875.77 1118.81C1875.77 1121.56 1878.01 1123.79 1880.76 1123.79Z" fill="black"/>
<path fill-rule="evenodd" clip-rule="evenodd" d="M1860.62 1154.15C1864.82 1154.15 1868.25 1150.72 1868.25 1146.52C1868.25 1142.32 1864.83 1138.89 1860.62 1138.89C1856.43 1138.89 1853 1142.32 1853 1146.52C1853 1150.72 1856.43 1154.15 1860.62 1154.15Z" fill="black"/>
<path d="M1375.63 793.766H1213.62V928.575H1375.63V793.766Z" fill="#C8C8C8" stroke="black" stroke-width="10" stroke-miterlimit="22.9256" stroke-linecap="round" stroke-linejoin="round"/>
<path d="M2046.5 793.746H1410.5V928.746H2046.5V793.746Z" fill="#343434" stroke="black" stroke-width="10" stroke-miterlimit="22.9256" stroke-linecap="round" stroke-linejoin="round"/>
<path fill-rule="evenodd" clip-rule="evenodd" d="M1115.78 886.927C1121.72 886.408 1123.63 891.441 1124.07 896.412L1126.99 929.899C1127.43 934.876 1126.41 940.163 1120.48 940.683C1104.93 942.043 1100.23 888.288 1115.78 886.927Z" fill="#505050" stroke="black" stroke-width="10" stroke-miterlimit="22.9256" stroke-linecap="round" stroke-linejoin="round"/>
</svg>
