<svg width="100%" height="100%" id="svg" viewBox="0 0 1440 500" xmlns="http://www.w3.org/2000/svg" class="transition duration-300 ease-in-out delay-150"><defs><linearGradient id="gradient" x1="0%" y1="49%" x2="100%" y2="51%"><stop offset="5%" stop-color="#fae277"></stop><stop offset="95%" stop-color="#92d669"></stop></linearGradient></defs><path d="M 0,600 C 0,600 0,150 0,150 C 89.61722488038276,167.27272727272725 179.23444976076553,184.54545454545453 277,180 C 374.76555023923447,175.45454545454547 480.67942583732054,149.09090909090907 585,138 C 689.3205741626795,126.90909090909092 792.0478468899523,131.0909090909091 890,126 C 987.9521531100477,120.9090909090909 1081.1291866028707,106.54545454545456 1172,109 C 1262.8708133971293,111.45454545454544 1351.4354066985647,130.72727272727272 1440,150 C 1440,150 1440,600 1440,600 Z" stroke="none" stroke-width="0" fill="url(#gradient)" fill-opacity="0.4" class="transition-all duration-300 ease-in-out delay-150 path-0"></path><defs><linearGradient id="gradient" x1="0%" y1="49%" x2="100%" y2="51%"><stop offset="5%" stop-color="#fae277"></stop><stop offset="95%" stop-color="#92d669"></stop></linearGradient></defs><path d="M 0,600 C 0,600 0,300 0,300 C 95.99043062200957,282.3062200956938 191.98086124401914,264.6124401913876 285,272 C 378.01913875598086,279.3875598086124 468.06698564593296,311.85645933014354 554,319 C 639.933014354067,326.14354066985646 721.7511961722489,307.9617224880383 830,293 C 938.2488038277511,278.0382775119617 1072.9282296650717,266.29665071770336 1179,268 C 1285.0717703349283,269.70334928229664 1362.5358851674641,284.8516746411483 1440,300 C 1440,300 1440,600 1440,600 Z" stroke="none" stroke-width="0" fill="url(#gradient)" fill-opacity="0.53" class="transition-all duration-300 ease-in-out delay-150 path-1"></path><defs><linearGradient id="gradient" x1="0%" y1="49%" x2="100%" y2="51%"><stop offset="5%" stop-color="#fae277"></stop><stop offset="95%" stop-color="#92d669"></stop></linearGradient></defs><path d="M 0,600 C 0,600 0,450 0,450 C 85.03349282296651,483.21531100478467 170.06698564593302,516.4306220095693 258,503 C 345.933014354067,489.5693779904306 436.76555023923447,429.49282296650716 534,415 C 631.2344497607655,400.50717703349284 734.870813397129,431.5980861244019 852,452 C 969.129186602871,472.4019138755981 1099.751196172249,482.1148325358852 1200,480 C 1300.248803827751,477.8851674641148 1370.1244019138755,463.9425837320574 1440,450 C 1440,450 1440,600 1440,600 Z" stroke="none" stroke-width="0" fill="url(#gradient)" fill-opacity="1" class="transition-all duration-300 ease-in-out delay-150 path-2"></path></svg>
