<svg width="1920" height="1080" viewBox="0 0 1920 1080" fill="none" xmlns="http://www.w3.org/2000/svg">
<g clip-path="url(#clip0_175_4)">
<rect width="1920" height="1080" fill="white"/>
<rect width="1920" height="1080" fill="#D9D9D9"/>
<path d="M191.299 333.039L197.717 281.171C204.161 229.102 248.4 190 300.866 190H313.368C348.455 190 379.984 211.427 392.9 244.05C403.837 271.672 428.324 291.642 457.582 296.8L464.876 298.086C523.366 308.397 559.602 367.618 542.16 424.391L536.159 443.925C528.292 469.528 511.869 491.652 489.637 506.592L478.648 513.976C429.885 546.746 366.737 548.96 315.798 519.687L271.883 494.451C214.994 461.759 183.24 398.156 191.299 333.039Z" fill="#66C367"/>
<path d="M1034.68 137.335L1036.46 127.439C1043.84 86.3808 1079.56 56.5 1121.28 56.5H1197C1217.71 56.5 1238.16 51.7766 1256.78 42.6888L1308.82 17.2914C1363.69 -9.49152 1428.98 23.4293 1440.07 83.4738C1447.69 124.702 1426.57 165.885 1388.64 183.751L1329.32 211.694C1315.93 218 1305.4 229.107 1299.82 242.811C1282.17 286.162 1223.48 292.669 1196.76 254.239L1195.56 252.516C1182.38 233.555 1159.5 223.82 1136.7 227.47L1124.97 229.347C1071.22 237.95 1025.06 190.912 1034.68 137.335Z" fill="#66C367"/>
<path d="M1219.14 307.536L1198.43 321.704C1175.1 337.667 1143.53 333.739 1124.82 312.545C1117.1 303.807 1106.85 297.693 1095.5 295.056L1075.78 290.479C1042.1 282.656 1023.11 246.853 1035.53 214.58C1040.7 201.147 1050.77 190.172 1063.71 183.862L1088.75 171.65C1092.21 169.96 1095.52 167.966 1098.63 165.692C1131 142.052 1176.83 152.886 1195.19 188.518L1205.56 208.649C1209.11 215.529 1214.2 221.49 1220.45 226.062C1248.23 246.402 1247.56 288.096 1219.14 307.536Z" fill="#FAE277"/>
<path d="M581.987 461.857L601.529 499.107C608.506 512.407 610.482 527.768 607.098 542.401C598.062 581.478 555.191 602.165 518.978 584.924L456.021 554.951C450.659 552.397 445.036 550.432 439.251 549.089L410.784 542.479C377.099 534.656 358.112 498.853 370.534 466.58C375.704 453.147 385.77 442.172 398.706 435.862L421.8 424.599C426.56 422.277 431.105 419.539 435.381 416.416C470.127 391.04 517.996 393.911 549.46 423.257L560.141 433.219C568.983 441.467 576.369 451.149 581.987 461.857Z" fill="#FAE277"/>
<path d="M625.125 1112.85L649.377 1093.1C658.302 1085.83 665.156 1076.34 669.251 1065.58L685.049 1024.08C689.961 1011.17 697.547 999.453 707.311 989.689L728.566 968.434C755.26 941.74 798.586 941.893 825.092 968.774C839.288 983.171 846.343 1003.14 844.342 1023.26L842.974 1037.01C840.136 1065.54 824.881 1091.38 801.267 1107.64L717.297 1165.47C712.45 1168.81 708.018 1172.72 704.097 1177.11L695.603 1186.62C683.736 1199.9 665.814 1206.06 648.288 1202.87C605.304 1195.06 591.251 1140.44 625.125 1112.85Z" fill="#92D669"/>
<path d="M625.125 48.8494L649.377 29.0964C658.302 21.827 665.156 12.3365 669.251 1.57881L685.049 -39.9248C689.961 -52.8288 697.547 -64.5474 707.311 -74.3106L728.566 -95.566C755.26 -122.26 798.586 -122.107 825.092 -95.2261C839.288 -80.8285 846.343 -60.8612 844.342 -40.7411L842.974 -26.9868C840.136 1.54466 824.881 27.3796 801.267 43.6427L717.297 101.475C712.45 104.813 708.018 108.718 704.097 113.107L695.603 122.616C683.736 135.9 665.814 142.057 648.288 138.871C605.304 131.055 591.251 76.4405 625.125 48.8494Z" fill="#92D669"/>
<path d="M1337.16 599.622L1344.31 575.123C1360.64 519.23 1424.26 492.53 1475.59 520.037L1584.18 578.239C1590.47 581.613 1597.23 584.037 1604.24 585.432L1645.7 593.69C1689.17 602.348 1702.97 657.684 1668.65 685.733C1647.3 703.176 1643.1 734.165 1659.04 756.657L1674.57 778.583C1680.32 786.705 1684.54 795.816 1687 805.461L1688.3 810.586C1704.66 874.694 1661 938.592 1595.33 946.663L1589.69 947.357C1525.9 955.197 1468.1 909.134 1461.52 845.203L1451.6 748.94C1448.37 717.562 1424.35 692.327 1393.17 687.546C1351.76 681.196 1325.41 639.836 1337.16 599.622Z" fill="#F6CF1A"/>
</g>
<defs>
<clipPath id="clip0_175_4">
<rect width="1920" height="1080" fill="white"/>
</clipPath>
</defs>
</svg>
