<?xml version="1.0" encoding="utf-8"?>
<svg viewBox="0 0 500 500" xmlns="http://www.w3.org/2000/svg">
  <g id="Layer1000" transform="matrix(2.658209, 0, 0, 2.658209, -843.195557, -158.142838)" style="">
    <path d="m 481.2428,215.1343 c -7.5839,8.6035 -16.7299,15.8 -26.9902,21.1454 -23.0838,12.024 -52.1612,13.6648 -76.4369,4.3872 -11.2295,-4.2937 -21.4222,-10.6932 -30.0872,-18.7138 -18.6228,-17.2403 -29.9691,-43.2342 -29.9691,-68.5529 0,-51.5807 41.816,-93.3968 93.3992,-93.3968 51.582,0 93.3981,41.8161 93.3981,93.3968 0,8.0723 -1.0258,15.9059 -2.9519,23.3742 -3.3074,12.8395 -11.7363,28.5768 -20.362,38.3599 z" style="fill: rgb(146, 214, 105); fill-rule: evenodd;" id="path6"/>
    <path d="m 504.0519,158.9766 c -0.1941,0.005 -0.3735,-0.6761 -0.4137,-0.8284 -0.0221,-0.0834 -0.0925,-0.3635 -0.1108,-0.9109 -0.0197,-0.6037 0.0508,-0.7154 0.0279,-1.0765 -0.0366,-0.5713 -0.2545,-0.9497 -0.3589,-1.1873 -0.4691,-1.0628 0.1744,-1.9237 0.2207,-3.5614 0.0531,-1.8725 -0.7127,-3.4181 -0.828,-3.3957 -0.0581,0.0109 0.0137,0.4284 0.0549,1.4633 0.0224,0.5557 0.0128,0.7149 0,2.4294 -0.0192,2.6228 0.011,1.2043 0,2.8987 -0.007,1.0285 -0.0169,1.4166 0.1104,2.0153 0.1849,0.8674 0.3661,0.7987 0.5249,1.5182 0.1391,0.633 0.038,0.8586 -0.1932,3.3957 -0.0545,0.5918 -0.0809,0.8911 -0.0833,1.0491 -0.015,1.2454 0.2751,1.5292 0.1383,2.3196 -0.1401,0.8092 -0.4646,0.6243 -0.5799,1.4349 -0.0962,0.6769 0.1108,0.9383 0,2.0711 -0.0174,0.1771 -0.0339,0.2912 0,0.3035 0.1117,0.0398 0.6142,-1.0555 1.0261,-2.0148 0.4321,-2.9862 0.7227,-6.017 0.8661,-9.0868 -0.1282,0.6641 -0.2372,1.1589 -0.4015,1.163 z m -2.8987,-22.9697 c -0.2077,0.0156 -0.3638,1.1813 -0.2484,2.2638 0.1533,1.438 0.7918,2.7865 1.021,2.7334 0.2596,-0.0605 0.0261,-1.9068 -0.1103,-2.7334 -0.0347,-0.2137 -0.3822,-2.2849 -0.6623,-2.2638 z M 468.1347,94.8443 c -0.3636,0.1538 -0.9137,0.0445 -1.1045,-0.2764 -0.3053,-0.514 0.6091,-1.0737 0.497,-1.9874 -0.1378,-1.1199 -1.6669,-1.5503 -1.4907,-2.1535 0.082,-0.2815 0.4847,-0.432 0.7726,-0.4416 0.9113,-0.0317 1.7283,1.3084 1.9329,2.4289 0.1428,0.7827 0.1085,2.1261 -0.6073,2.43 z m -16.9096,7.2606 c -0.0366,0.2801 -0.5662,0.3986 -0.7245,0.4348 -0.481,0.1085 -0.7753,0.005 -1.8432,-0.2073 -0.9465,-0.1876 -1.2023,-0.2032 -1.4701,-0.0618 -0.0636,0.0339 -0.4087,0.2155 -0.5172,0.5794 -0.2133,0.7118 0.6912,1.4043 0.476,1.6775 -0.1209,0.1528 -0.4852,0.0375 -0.5383,0.0206 -0.6681,-0.2118 -0.7987,-1.1132 -0.8077,-1.1804 -0.0107,-0.0805 -0.0523,-0.4481 0.1244,-0.8693 0.0476,-0.1139 0.2531,-0.6049 0.6833,-0.8077 0.439,-0.207 0.6848,0.0878 1.9668,0.3523 0.9113,0.1873 1.3749,0.2756 1.7598,0.0203 0.2344,-0.1552 0.3868,-0.3978 0.6006,-0.3516 0.1661,0.0353 0.3113,0.2321 0.2901,0.3932 z m -20.1677,0.7245 c -0.0746,0.006 -0.2669,0.0147 -0.7452,-0.124 -0.476,-0.1378 -0.7135,-0.207 -0.7246,-0.3314 -0.0123,-0.141 0.2691,-0.298 0.4967,-0.352 0.3227,-0.0764 0.5941,0.0408 0.9318,0.1863 0.2422,0.1044 0.6221,0.2687 0.6006,0.4143 -0.0239,0.1634 -0.5356,0.205 -0.5593,0.2068 z m 0.1455,2.5678 c -0.0449,0.2243 -0.3172,0.3793 -0.5388,0.3931 -0.3249,0.0206 -0.6385,-0.2568 -0.6622,-0.5177 -0.0248,-0.2627 0.2622,-0.3236 0.2687,-0.6001 0.0105,-0.4096 -0.6097,-0.5642 -0.5796,-0.9524 0.0161,-0.2064 0.2088,-0.3973 0.3109,-0.373 0.103,0.0246 0.0938,0.2654 0.1447,0.497 0.1944,0.8844 1.1465,1.0981 1.0563,1.5531 z m -2.257,0 c -0.1007,0.0631 -0.258,0.0709 -0.373,0 -0.2124,-0.1309 -0.1186,-0.4326 -0.2073,-1.2011 -0.0596,-0.5158 -0.1282,-0.6133 -0.0413,-0.8074 0.1677,-0.3726 0.656,-0.5354 0.7246,-0.4554 0.0755,0.087 -0.4092,0.3923 -0.3726,0.8486 0.0261,0.3204 0.2779,0.3447 0.3933,0.7869 0.0659,0.252 0.0997,0.6873 -0.1237,0.8284 z m -2.0912,11.1396 c -0.0997,0.2357 -0.5374,0.3259 -1.4083,0.4966 -1.3613,0.2673 -1.8112,0.1478 -2.0085,0.0828 -0.0956,-0.0311 -0.3844,-0.1322 -0.7039,-0.3515 -0.4765,-0.3273 -0.4659,-0.5359 -0.7662,-0.7662 -0.7722,-0.5923 -1.7933,0.0608 -2.257,-0.5177 -0.0796,-0.0993 -0.1959,-0.3011 -0.2691,-0.5387 -0.0635,-0.2059 -0.0563,-0.3135 -0.0829,-0.5588 -0.0842,-0.7795 -0.3006,-0.9919 -0.145,-1.201 0.1236,-0.1662 0.3071,-0.0962 0.4142,-0.2898 0.0691,-0.1245 0.0303,-0.2201 0,-0.5176 -0.0215,-0.2161 -0.0233,-0.3891 -0.0215,-0.5219 -0.0595,-0.008 -0.1043,-0.0255 -0.1236,-0.0581 -0.0486,-0.0833 0.0604,-0.2553 0.1039,-0.2484 0.032,0.006 0.0215,0.1106 0.0197,0.3065 0.3634,0.0477 1.3488,-0.3167 1.326,-0.4929 -0.0156,-0.1213 -0.4971,-0.043 -1.18,-0.3932 -0.2769,-0.1418 -0.4353,-0.2764 -0.4971,-0.3314 -0.2673,-0.2379 -0.3616,-0.4434 -0.497,-0.6417 -0.249,-0.3643 -0.3502,-0.2814 -1.1178,-0.9318 -0.4472,-0.379 -0.3089,-0.319 -0.9941,-0.9319 -0.1977,-0.1766 -0.4073,-0.3593 -0.6422,-0.6622 -0.1606,-0.2084 -0.2412,-0.3127 -0.2892,-0.4349 -0.2285,-0.5767 0.1712,-1.0801 -0.0416,-1.2632 -0.1172,-0.1008 -0.2436,0.0475 -0.5177,-0.0206 -0.373,-0.0926 -0.7067,-0.5067 -0.6834,-0.8697 0.0115,-0.1822 0.1011,-0.1749 0.352,-0.6421 0.2412,-0.4496 0.1996,-0.5338 0.373,-0.704 0.1382,-0.136 0.2988,-0.201 0.6206,-0.331 0.3828,-0.1546 0.4436,-0.1148 0.6834,-0.2484 0.212,-0.1186 0.1538,-0.1438 0.4971,-0.3937 0.4275,-0.3112 0.5195,-0.2732 0.7039,-0.497 0.0952,-0.115 0.1347,-0.2033 0.2692,-0.2893 0.1538,-0.0998 0.3075,-0.1163 0.3937,-0.1246 0.9602,-0.0924 1.7598,0.0206 1.7598,0.0206 0.281,0.0399 0.421,0.0596 0.5588,0.104 0.2459,0.0782 0.8065,0.2572 0.9942,0.7034 0.1331,0.3176 -0.0563,0.4505 0.1034,0.7667 0.1199,0.2366 0.3616,0.4271 0.6211,0.4966 0.4174,0.1112 0.6267,-0.1597 0.8697,-0.0206 0.2929,0.1671 0.3775,0.7813 0.1656,0.9524 -0.2352,0.1905 -0.8371,-0.1687 -1.2838,-0.4351 -0.7579,-0.4523 -1.0235,-0.8492 -1.3663,-0.7447 -0.1264,0.038 -0.1001,0.0943 -0.4146,0.3931 -0.4486,0.4271 -0.6161,0.4202 -0.8487,0.704 -0.0846,0.103 -0.3881,0.4733 -0.3519,0.8485 0.0448,0.4688 0.5817,0.5653 1.5736,1.2839 1.0234,0.7415 1.6367,1.1855 1.7603,1.8633 0.0279,0.156 0.0576,0.472 0.2892,0.7662 0.1928,0.2445 0.5021,0.4453 0.601,0.373 0.0532,-0.0393 0.0193,-0.141 0,-0.3107 -0.0339,-0.2966 -0.0288,-0.8592 0.1863,-0.9731 0.2078,-0.1108 0.5859,0.2128 0.7246,0.3314 0.3931,0.3359 0.3209,0.5341 0.6622,0.7455 0.2893,0.1781 0.4445,0.1003 0.6216,0.31 0.1497,0.1785 0.2294,0.4599 0.1241,0.5803 -0.0645,0.0742 -0.1835,0.0664 -0.2691,0.0618 -0.6747,-0.0366 -1.0624,-0.0582 -1.3667,0.0622 -0.0362,0.0147 -0.3406,0.1402 -0.5177,0.4559 -0.1547,0.276 -0.207,0.6889 -0.0413,0.8069 0.1392,0.0994 0.3031,-0.103 0.704,-0.103 0.298,-4e-4 0.6783,0.1113 0.7246,0.31 0.0288,0.1226 -0.0728,0.2622 -0.2279,0.4764 -0.1447,0.2004 -0.2161,0.2279 -0.207,0.2902 0.027,0.172 0.5932,0.0411 0.9942,0.2897 0.5103,0.3167 0.2394,0.9324 0.7245,2.0702 0.3634,0.8518 0.7598,1.0802 0.6216,1.4084 z m -18.7943,-7.1709 c -0.3862,0.3309 -1.7392,0.9383 -2.126,0.6623 -0.3863,-0.276 -1.5457,0.4417 -1.6835,0.3314 -0.1382,-0.1108 -1.6293,-0.0828 -1.7117,-0.4692 -0.0829,-0.3867 -1.1045,-0.1936 -1.132,-0.5524 -0.0279,-0.3589 -1.546,0.0829 -1.6564,-0.5241 -0.1103,-0.6078 -2.6781,-0.0559 -3.7275,0.7177 -1.0486,0.7726 -2.5948,0.7452 -3.2296,0.5241 -0.6348,-0.2207 -2.5951,-1.6835 -2.2913,-1.8771 0.3035,-0.1932 0,-1.0216 0.4417,-1.1594 0.4412,-0.1382 0.6074,-0.6078 0.5241,-0.9112 -0.0829,-0.304 0,-0.4142 0.4142,-0.6348 0.4142,-0.2211 0,-0.5521 0.1657,-0.9113 0.1656,-0.3589 0.5245,0.1382 0.7456,-0.1103 0.2207,-0.2486 0.1927,-0.1383 0.4966,-0.2761 0.3039,-0.1382 0,-0.4695 0,-0.9666 0,-0.4972 0.131,-0.8948 0.6349,-0.5795 0.6627,0.4142 0.6352,-0.3034 1.2427,-0.5245 0.6073,-0.2207 0.4416,0 0.7455,0.3314 0.3034,0.3314 0.4138,0.3868 1.132,0.3587 0.7176,-0.0273 2.3186,-0.0552 2.9261,-0.3866 0.6073,-0.331 0.4695,-0.2756 1.5735,-0.6075 1.1045,-0.3308 1.0766,-0.1651 1.9878,-0.4691 0.9113,-0.3035 1.5736,0.0554 1.2148,0.2207 -0.3589,0.1661 -1.7392,0.7455 -1.4354,1.0769 0.3035,0.3309 0.0275,0.1104 -0.3589,0.4142 -0.3867,0.3035 -0.6627,0.773 -2.4573,0.7451 -1.7942,-0.0273 -0.6069,-0.193 -1.9879,-0.6348 -1.3803,-0.4422 -1.3249,0.1103 -1.3525,0.7731 -0.0278,0.6628 0.276,1.5736 1.4359,1.2147 1.1593,-0.3587 0.8558,-0.1382 1.1868,-0.7455 0.3313,-0.6075 0.9937,0.1657 2.0707,-0.0829 1.0764,-0.2481 0.1657,0.3868 1.8495,0.9937 1.6839,0.6078 0.9663,0.6352 2.209,1.6294 1.2421,0.9937 1.1592,0.2481 2.1529,0.9108 0.9942,0.6624 0.3868,1.1873 0,1.5187 z m -12.5337,84.424 c -0.2902,-0.4971 -0.5795,-1.4078 -0.5795,-1.4078 l -0.9117,-1.5741 -0.4138,-1.408 -0.3314,-1.5324 c 0,0 0.1661,-0.6622 0,-1.6564 0,0 0.5799,0.6624 0.7452,1.2423 0.1662,0.5803 0.0833,1.6152 0.0833,2.4021 0,0.7867 -0.0833,0.9524 0.9937,1.201 1.077,0.2485 0.4142,0.3314 0.7456,1.3662 0.3314,1.0353 0.497,0.5799 0.6622,2.1951 0.1657,1.6153 -0.7039,-0.3314 -0.9936,-0.828 z m 2.1535,-12.8931 1.104,-0.9387 c 0,0 1.1873,0.0279 1.6289,0.3039 0,0 0.4143,0.7731 1.353,0.7452 0.9388,-0.0275 -0.773,0.4142 -0.9662,1.5735 -0.1932,1.1599 -0.2765,0.2211 -0.6628,0.6354 -0.3863,0.4137 -0.0829,0.3862 0.0828,0.7451 0.1653,0.3589 0,0.3868 -0.2205,0.7735 -0.2211,0.3859 -0.3589,0.1652 -1.4079,0.1103 -0.979,-0.0517 -0.8528,0.3049 -0.8312,0.3529 l 0.003,0.006 c 0,0 -0.001,-0.002 -0.003,-0.006 l -0.743,-1.5956 -0.2484,-1.4358 z m 5.0754,18.9806 c -0.2484,0.5795 -0.9021,-0.0829 -0.3221,0.8281 0.5798,0.9107 0.9569,0.7867 0.9569,1.3661 0,0.58 -0.2046,1.8638 -0.7844,0.7044 -0.5804,-1.1598 -0.0476,-0.3313 -0.562,-1.8221 -0.5141,-1.4911 -0.5544,-0.3317 -0.5544,-2.1535 0,-1.8221 0.0412,-1.4495 -0.2485,-2.0701 -0.2897,-0.6216 -0.3076,-0.6216 -0.3076,-0.6216 0.9108,-0.0417 1.2655,0.6216 1.2655,0.6216 v 1.0348 0.8284 c 0,0 0.8052,0.704 0.5566,1.2839 z m 97.4737,-62.2967 c 0,0 -0.2911,-1.5462 -0.2357,-2.485 0.0554,-0.9383 0.773,-2.9261 -0.6074,-6.2943 -1.38,-3.3683 -2.1947,-4.3345 -2.3604,-5.6595 -0.1653,-1.3251 -0.6207,-0.6628 -2.0702,-3.1889 -1.4496,-2.5261 -0.8701,-2.5261 -0.7039,-3.4648 0.1653,-0.9386 -0.3314,-0.3862 -0.8284,-0.828 -0.4971,-0.4416 -0.5521,-0.3862 -0.5521,-0.1657 0,0.2211 -0.3318,0.4971 -0.497,0.3868 -0.1657,-0.1108 -0.6628,-1.2701 -0.6628,-1.2701 l -0.6069,-0.6628 c -0.6079,-0.6622 -0.8838,-0.4971 -0.5525,-1.049 0.3314,-0.552 0.0554,-0.331 0,-0.8834 -0.0554,-0.5519 -0.3313,-1.1044 -0.3313,-1.601 0,-0.4971 0.6073,0.7726 0.9387,1.2148 0.3309,0.4416 0.4417,0.8278 0.9942,1.7113 0.1487,0.239 -0.1662,-1.6011 -0.1662,-1.6011 l 0.4416,0.1652 c 0.4422,0.1662 0.3868,1.0491 0.8286,1.7123 0.4416,0.6623 0.497,0.9937 0.9383,1.3246 0.4421,0.3319 0.2763,0.0554 0.2763,-0.2756 0,-0.3313 0,-0.7734 -0.4416,-1.546 -0.4422,-0.7731 -0.5525,-0.8839 -1.3251,-2.7609 -0.773,-1.8775 -0.1107,-1.7667 -2.2089,-5.2458 -2.098,-3.478 -5.4109,-8.0611 -7.6194,-10.1597 -2.2088,-2.098 -2.0432,-1.7663 -3.2026,-2.926 -1.1592,-1.1598 -3.3682,-3.0918 -4.8036,-4.5831 -1.4357,-1.4907 -1.3254,-1.2697 -0.6073,-1.049 0.7178,0.2211 2.3742,0.4971 -0.9941,-1.8217 -3.3682,-2.3191 -9.8489,-7.4193 -10.0352,-7.7301 -0.1863,-0.3108 -0.601,-0.0211 -1.1181,-0.4349 -0.5177,-0.4146 -1.5947,-0.8077 -2.4638,-0.973 -0.8702,-0.1661 -2.2987,-0.9525 -2.3404,-1.0148 -0.0411,-0.0622 -1.2211,-0.1863 -3.7059,-0.0416 -2.4849,0.1447 0.5381,0.3314 1.2838,0.5593 0.7451,0.2275 0.1863,0.5177 -0.5177,0.5383 -0.7039,0.0205 -1.3255,-0.3936 -1.9255,-0.5589 -0.6005,-0.1657 -2.3403,-0.4558 -2.3403,-0.4558 0,0 -1.78,-0.58 -2.5462,-0.8074 -0.7662,-0.2279 -0.7662,-0.0623 -1.0769,0.0205 -0.3103,0.0833 0.1657,0.2902 0,0.3525 -0.1658,0.0613 -0.6006,-0.0416 -1.0972,-0.0623 -0.4971,-0.021 0.1236,-0.2902 0,-0.3318 -0.1244,-0.0412 -1.8019,-0.0207 -3.0236,-0.0828 -1.2216,-0.0619 -1.0348,-0.2481 -1.6564,-0.683 -0.6207,-0.4348 -0.5383,0.2481 -0.2897,0.5795 0.2485,0.3318 0.1657,0.4348 -0.9937,0.4559 -1.1598,0.0206 -0.4559,-0.104 -0.2897,-0.228 0.1651,-0.1244 0.2897,-0.2484 0.4348,-0.8284 0.1446,-0.5794 -0.3524,-0.6828 -0.4971,-0.7456 -0.1447,-0.0613 -0.3725,-0.1858 -1.0971,-0.2687 -0.725,-0.0828 -1.574,-0.1451 -2.4025,-0.1451 -0.828,0 -1.9667,-0.6 -2.878,-0.6417 -0.9108,-0.0416 -0.2485,0.1863 -0.2485,0.2486 0,0.0623 -0.0413,0.1652 -1.4702,0.7039 -1.4285,0.5383 -0.5588,-0.0622 -1.2418,0 -0.6838,0.0622 -1.8431,0.4138 -1.8431,0.4138 0,0 0.373,0.601 0.9524,0.9735 0.58,0.373 -0.3102,0.145 -1.0971,0.145 -0.7872,0 -0.6627,0.0203 -1.6358,0.3196 -0.9731,0.2993 1.1594,0.26 2.2775,1.0055 1.1183,0.7453 -0.7661,0.1859 -1.8632,-0.3935 -1.0977,-0.58 -1.2427,-0.1246 -1.2427,-0.1246 l -0.7663,0.2903 1.3874,0.6622 0.0827,0.4349 -1.1592,-0.3726 c 0,0 -0.5177,-0.2481 -1.408,-0.6829 -0.8907,-0.4349 0.6417,0.7868 0.6417,0.7868 l 0.8079,0.9524 0.8692,0.4761 1.0357,0.0829 1.76,0.5381 1.2009,1.2011 c 0,0 -1.4285,-0.4764 -1.9465,-0.7662 -0.5177,-0.2897 -0.704,-0.4142 -0.9713,-0.3932 -0.2669,0.0206 -0.3748,0.124 -0.3538,0.3932 0.0206,0.2691 0.3107,0.5177 0.352,0.8907 0.0416,0.3721 -0.58,0.5172 -0.58,0.5172 l -1.0971,0.0206 c 0,0 -0.4554,-0.4137 -0.2902,-0.6623 0.1657,-0.2485 0.828,-0.3931 0.828,-0.3931 0,0 0.0623,-0.2074 -0.103,-0.8907 -0.1657,-0.6834 -0.1862,-0.1657 -1.3048,-0.9114 -1.1178,-0.7451 -1.1388,-0.9107 -1.1388,-0.9107 l -0.6152,-0.8074 c -0.6151,-0.8074 -0.5854,-0.1657 -1.8281,-0.725 -1.2422,-0.5585 -0.5798,0.0621 -0.6834,0.6631 -0.1034,0.6 -0.5381,0.6207 -0.0827,1.1594 0.4554,0.5383 0.0827,0.3108 0.3107,0.497 0.228,0.1859 0.9941,0.3516 1.8844,0.6417 0.8903,0.2897 0.0412,0.4344 -0.1451,0.4967 -0.1863,0.0622 -2.1324,-0.6001 -2.1324,-0.6001 0,0 -1.2633,-0.4559 -2.4016,-0.6421 -1.1392,-0.1863 -0.2902,-0.0623 -1.3878,-0.1447 -1.0971,-0.0832 -0.4971,-0.1039 -1.3045,-0.2073 -0.8074,-0.1035 0.1447,0.3725 0.6834,0.5177 0.5383,0.145 1.3457,0.2691 1.3457,0.2691 l 0.1039,0.4554 -0.725,0.4353 c -0.7246,0.4343 -0.476,0 -0.7452,-0.6216 -0.2695,-0.6211 -1.1182,0.5176 -1.1182,0.5176 0,0 -0.1245,0 -1.346,0.1246 -1.2217,0.124 -0.3727,-0.0417 -0.5594,-0.58 -0.1863,-0.5387 -0.1446,-0.0622 -0.3931,0.0829 -0.2486,0.1451 -0.6001,0.1451 -1.3046,0.1862 -0.7038,0.0417 -0.1656,0.0207 -1.4491,0.5796 -1.2838,0.5593 -0.4141,0.5387 -0.4141,0.5387 0,0 -0.0623,0.1863 -0.2902,0.476 -0.2275,0.2897 -0.5172,0.1038 -1.8633,-0.2486 -1.3457,-0.3514 0.2691,-0.3308 0.2691,-0.3308 0,0 0.4554,-0.3109 0.601,-0.6834 0.1446,-0.3726 -1.3877,-0.1658 -1.3877,-0.1658 l -0.8903,0.476 c 0,0 0.269,0.8079 0.352,1.2011 0.0829,0.3936 0.0829,0.6216 -1.0144,0.0412 -1.0975,-0.5794 -0.8284,0.2074 -0.9941,0.3937 -0.1657,0.1867 -0.7245,0.373 -0.8901,0.6421 -0.1657,0.2691 0.5381,0.9524 0.5381,0.9524 0,0 -0.6627,0.0829 -1.201,0.0206 -0.5387,-0.0622 -0.5588,-0.4554 -1.3667,-0.7456 -0.8074,-0.2897 -0.5382,0.1452 -0.3725,0.4143 0.1657,0.2691 0.7451,0.476 1.0142,0.6623 0.2696,0.1867 -0.1235,0.228 -0.8279,0.228 -0.704,0 -0.5589,-0.1452 -0.952,-0.2897 -0.3942,-0.1452 -0.5594,-0.2693 -0.6427,-0.4972 -0.0823,-0.2275 -0.3098,-0.2485 -0.3098,-0.6829 0,-0.4352 0.2686,-0.145 -0.1245,-0.6422 -0.3932,-0.497 -0.4765,-0.2695 -1.1182,-0.4558 -0.6422,-0.1859 -0.2275,-0.248 -0.0206,-0.5173 0.2068,-0.2694 1.201,0.6423 1.8844,0.8286 0.6828,0.1858 0.9731,0.1651 1.4907,0.1651 0.5177,0 0.7245,0 1.4079,-0.0622 0.6833,-0.0618 0.6006,-0.1029 1.0353,-0.4971 0.4348,-0.3931 0.2275,-0.3515 0.2691,-0.4554 0.0413,-0.1034 -0.5177,-0.6211 -0.5177,-0.6211 0,0 -1.0558,-0.4554 -1.7185,-0.621 -0.6624,-0.1657 -1.3046,-0.6006 -2.2781,-0.6629 -0.973,-0.0621 -0.7451,-0.1445 -1.3663,-0.2068 -0.6211,-0.0623 -0.3931,-0.0829 -0.8074,-0.2897 -0.4141,-0.2073 0.0207,-0.3104 -0.2694,-0.4559 -0.2894,-0.1447 -1.2217,0.2696 -1.035,-0.2068 0.1863,-0.4761 -0.373,0.124 -0.5798,0.124 -0.207,0 -0.4761,-0.2893 -1.18,-0.3516 -0.704,-0.0622 -0.3319,0.0829 -0.8285,0.1446 -0.4971,0.0623 -0.8696,0.1451 -1.2216,0.2898 -0.352,0.1455 -0.5383,0.2279 -0.932,0.1863 -0.3931,-0.0408 -0.3931,0.6216 -0.8695,0.5593 -0.476,-0.0623 -0.0829,-0.228 -0.4137,-0.3726 -0.3315,-0.1451 -0.3732,-0.0205 -0.456,0 -0.0823,0.0211 -0.3309,0.5173 -0.7246,0.5794 -0.3935,0.0623 -0.1034,-0.0411 -0.4965,0 -0.3936,0.0418 -0.1039,0.1863 -0.3109,0.3731 -0.2068,0.1862 -0.3935,0 -0.497,-0.0829 -0.1034,-0.0827 -0.476,-0.0622 -0.6215,0 -0.1446,0.0623 -0.5173,0.104 -0.807,0.1864 -0.2902,0.0827 -0.373,0.1656 -1.6358,0.6623 -1.2628,0.497 0.1241,0.1661 0.5382,0.0416 0.4143,-0.124 0.7657,-0.124 0.7657,-0.124 0,0 1.1599,-0.3315 1.3874,-0.3315 0.2279,0 -0.1652,0.2486 -0.5584,0.3937 -0.3941,0.1446 -0.1245,0.0407 -0.5594,0.2893 -0.4347,0.2486 0,0 -0.6417,0.3107 -0.6421,0.3109 -1.0352,0.601 -1.9255,1.3667 -0.8907,0.7663 -0.7456,0.373 -0.9524,0.6006 -0.2074,0.228 -1.0976,0.4348 -2.1741,1.1594 -1.077,0.7245 0.2892,-0.0413 0.7862,-0.0413 0.4972,0 -1.0971,0.3937 -0.9318,0.5588 0.1661,0.1658 -0.3931,0.2486 -0.4967,-0.1861 -0.1034,-0.4344 -0.3103,0.1445 -0.5176,-0.083 -0.2074,-0.2279 -0.4971,0.2275 -0.4971,0.4349 0,0.2069 -0.3931,-0.0618 -0.7657,0.2069 -0.373,0.269 -0.4554,0.1039 -0.5798,0.4352 -0.1242,0.331 -0.6212,-0.145 -0.6212,0.2486 0,0.3932 -0.7868,0.2485 -0.7868,0.2485 0,0 -0.601,0.3515 -0.8902,0.5378 -0.2902,0.1868 -0.2486,0.7662 -0.2486,0.7662 0,0 -0.2073,0.2901 -0.6004,0.4142 -0.3937,0.1245 -0.0623,0.1452 0.1244,0.2898 0.1858,0.1451 0.1447,0.1661 0.1237,0.3108 -0.0207,0.1446 -0.2899,0.1446 -0.683,0.1863 -0.3931,0.0416 -0.1451,0.2897 0.2486,0.373 0.3931,0.0824 0.2274,0.0824 0.0411,0.3515 -0.1867,0.269 -0.2691,0.0622 -0.5588,0.4146 -0.2902,0.3516 0.4829,0.4825 0.4829,0.4825 0,0 0.3862,0.3318 1.2701,0.3588 0.8834,0.028 0.8005,-0.5241 1.1318,-0.8829 0.331,-0.3588 0.5521,-0.1382 0.9389,-0.2485 0.3862,-0.1103 0.3034,-0.3035 0.5519,-0.6075 0.2486,-0.3038 0.1657,0.2486 0.3589,0.5246 0.1935,0.276 0.0829,0.1932 -0.0828,0.5246 -0.1657,0.3309 -0.1657,0.4142 -0.1657,0.7177 0,0.3038 0.1107,0.4691 0.1936,0.9941 0.0824,0.524 0.1378,0.4691 0.1103,0.7451 -0.0279,0.276 -0.2211,0.1378 -0.525,0.1657 -0.3035,0.0279 0,0.3867 0,1.077 0,0.6897 0.3593,0 0.9941,-0.0279 0.6348,-0.0279 0.3314,0 0.58,-0.2486 0.2484,-0.2485 0,-0.1478 0.1102,-0.5896 0.1103,-0.442 0.8005,0.0454 0.8005,0.0454 h 1.2697 c 0.6633,0 0.5666,-0.8046 0.553,-1.136 -0.0143,-0.331 0.3171,-0.5053 0.4411,-0.9475 0.1246,-0.4416 0.1383,-0.1771 0.428,-0.5633 0.2901,-0.3864 0.1382,-0.0884 0.3451,-0.1438 0.2069,-0.0549 0.5867,-0.4655 0.752,-0.5685 0.1661,-0.1038 0.1661,-0.1053 0.5181,-0.167 0.352,-0.0623 0,-0.3735 0,-0.3735 0,0 0.1452,-0.1245 0.2897,-0.2284 0.1447,-0.1035 0.207,-0.1863 0.2902,-0.3932 0.0824,-0.2074 -0.2073,-0.4147 -0.2073,-0.4147 l -0.5799,-0.4141 0.1656,-0.7869 c 0,0 0.6216,-0.8074 0.7663,-0.8692 0.1451,-0.0623 0.2691,-0.145 0.9525,-0.6421 0.6829,-0.4966 0.6627,-0.3315 1.1181,-0.4555 0.4555,-0.1244 1.0143,-0.4348 1.0143,-0.4348 0,0 0.7245,-0.2073 0.8907,-0.3313 0.1657,-0.1246 -0.0828,-0.3937 -0.1244,-0.58 -0.0418,-0.1863 0.2901,-0.2274 0.4347,-0.3313 0.1451,-0.1031 0.2485,0.0599 0.5383,-0.2505 0.2901,-0.3107 0.4147,0.4527 0.4147,0.4527 h 1.1799 l 0.5177,0.044 c 0,0 0.0829,0.3223 -0.0623,0.4257 -0.1451,0.1039 -1.4079,0.4407 -1.4079,0.4407 0,0 -1.0559,0.8724 -1.6975,1.0175 -0.6422,0.1446 -0.601,0.2916 -0.8908,0.5602 -0.2897,0.2692 0,0.8184 0,0.8184 0,0 -0.2485,0.4096 -0.4764,0.8445 -0.2275,0.4348 0.3387,0.6604 0.5314,0.7571 0.1936,0.0961 1.4083,0.178 1.4083,0.178 0,0 0.4829,-0.0279 1.1868,-0.0421 0.704,-0.0137 0.3181,-0.0559 1.0084,-0.2764 0.6897,-0.2211 1.8217,-0.3868 1.8217,-0.3868 0,0 0.8421,0.2211 1.3529,0.5108 0.5103,0.2897 -0.7593,0.3314 -0.9388,0.3314 -0.1794,0 -0.8559,0.3451 -0.8559,0.3451 0,0 -0.3868,0.0137 -0.8005,0 -0.4141,-0.0138 -0.6352,-0.1246 -1.2976,-0.1246 -0.6627,0 -0.7456,0.1108 -1.1872,0.2349 -0.4413,0.1245 -0.5108,0.2485 -0.7457,0.552 -0.2343,0.3039 0.2142,0.7318 0.5456,0.9387 0.3314,0.2073 0,0.1657 -0.1039,0.352 -0.1029,0.1867 -0.0824,0.2691 -0.5795,0.7661 -0.4965,0.4972 -0.2274,-0.0416 -0.5588,-0.2691 -0.3313,-0.2279 -0.5593,-0.497 -1.0563,-0.497 -0.4971,0 -0.9526,0.9937 -1.0766,1.077 -0.1245,0.0828 -0.1652,0.4554 -0.1652,0.4554 0,0 -0.3942,0.5177 -0.3942,0.9314 0,0.4147 0.0491,0.5525 0.0491,0.5525 0,0 -0.1108,0.221 -0.4147,0.2417 -0.3034,0.0201 -0.6074,0.1175 -0.6074,0.1175 0,0 -0.2206,0.4138 -0.2481,0.5242 -0.0274,0.1103 -0.1382,0.0279 -0.4692,0.0552 -0.3317,0.0276 -0.7735,-0.0552 -0.8559,-0.1102 -0.0833,-0.0554 0.1378,-0.4971 -0.5524,-0.58 -0.6902,-0.0828 -1.104,0.58 -1.9324,0.7453 -0.8284,0.166 -2.0501,0.5665 -2.1947,0.5665 -0.1451,0 -0.1862,-0.1867 -0.3935,-0.5386 -0.207,-0.352 -0.352,-0.2691 -0.4143,-0.2486 -0.0618,0.0206 -0.2486,0 -0.7246,0.124 -0.4764,0.1246 -0.1657,0.0623 -0.8696,0.3936 -0.704,0.331 -0.2692,0.0618 -0.4555,0.0618 -0.1862,0 -0.1445,0 -0.6622,-0.2485 -0.5182,-0.2485 -0.1456,-0.103 -0.2696,-0.2893 -0.1246,-0.1867 -0.3107,-0.3936 -0.3107,-0.3936 0,0 -0.4761,-0.021 -0.6624,0 -0.1863,0.0206 -0.0829,0.1452 -0.145,0.4344 -0.0619,0.2902 -0.228,0.2902 -0.6212,0.5799 -0.3932,0.2902 -0.3932,0.1657 -1.1388,0.3936 -0.7451,0.2275 -0.5798,0.3731 -0.5798,0.3731 0,0 -0.1241,-0.104 -0.5177,-0.2074 -0.3932,-0.1039 -0.4137,0.021 -0.7869,0.1034 -0.3725,0.0829 -0.6211,0.2276 -1.1592,0.5594 -0.5383,0.3313 -0.0829,0.1863 -0.352,0.6829 -0.2693,0.4971 -0.4971,0.3314 -1.1183,0.6834 -0.6211,0.3518 -1.3251,0.9318 -1.8015,0.9935 -0.476,0.0628 -0.4554,0.104 -0.952,0.1456 -0.4971,0.0408 -0.601,0.8487 -0.601,0.8487 0,0 -0.2485,0.4141 -0.5177,0.6622 -0.2685,0.2486 -0.5378,-0.0408 -0.7451,0 -0.2073,0.0416 -0.4348,0.1456 -0.5177,0.3315 -0.0827,0.1862 0,0.1862 -0.2068,0.6211 -0.2073,0.4352 -0.1245,-0.0202 -0.3731,-0.0619 -0.2485,-0.0412 -0.5588,-0.0205 -0.6206,-0.1867 -0.0622,-0.1652 0.0618,-0.1652 0.0824,-0.3725 0.0206,-0.207 -0.2069,-0.0413 -0.5794,0.1038 -0.373,0.1446 -0.1452,0.5173 -0.2486,0.937 -0.1039,0.4197 -0.1932,0.4297 -0.9387,0.4567 -0.7456,0.028 -0.3589,-0.0824 -0.3589,-0.3034 0,-0.2207 -0.1931,-0.1378 -0.4142,-0.1378 -0.2211,0 -0.828,0.2485 -1.0765,0.3035 -0.2486,0.0553 -0.6354,0.6627 -0.6354,0.6627 0,0 0.5521,0.3035 0.9389,0.3035 0.3867,0 0.3588,0.4422 0.4141,0.5519 0.055,0.1108 0.055,0.5804 0.055,0.5804 0,0 -0.1378,0.4691 -0.0275,0.7452 0.1103,0.276 0.58,0.4971 0.276,0.7455 -0.3035,0.2481 -0.0554,0.2761 -0.0554,0.7453 0,0.4695 -0.2206,-0.4143 -0.4687,-0.1657 -0.2485,0.2484 -0.0279,0.2763 -0.1381,0.8833 -0.1104,0.6074 -0.1104,0.4705 -0.1937,1.1054 -0.0824,0.6352 -1.2697,1.547 -1.2697,1.547 h -0.7039 c -0.1656,0 -0.6216,-0.2563 -1.3255,-0.3391 -0.704,-0.0829 0,-0.1177 -1.4491,-0.3246 -1.4495,-0.2077 -1.9466,-0.007 -1.9466,-0.007 l -0.9937,0.6792 c 0,0 -0.704,0.9406 -1.0766,1.272 -0.373,0.3314 -0.2901,0.8632 -0.497,1.6088 -0.2068,0.7457 -0.373,0.7424 -0.6215,1.364 -0.2482,0.6206 -0.2069,0.5364 -1.3663,1.7787 -1.1594,1.2421 0.0416,1.076 -0.6211,1.7388 -0.6627,0.6627 0.3726,1.1177 1.2427,1.1588 0.8691,0.0417 0.5378,0.5383 0.6623,1.2835 0.124,0.7456 0.5794,0.2902 1.0765,-0.0413 0.497,-0.3314 0.373,-0.2073 0.6216,-0.2073 0.2481,0 0.4965,0.2069 0.9936,0.3313 0.4971,0.1242 0.7039,0 0.828,-0.4137 0.1245,-0.4142 0.5387,-0.0833 0.5387,-0.0833 0,0 0.704,-0.0828 0.7869,-0.6211 0.0823,-0.5383 0.2068,-0.2897 0.2901,-0.4143 0.0824,-0.124 1.1593,-0.2897 1.1593,-0.2897 0,0 0.4138,-0.3308 0.4138,-0.8279 0,-0.4971 0.2486,-0.2902 0.7868,-0.6216 0.5388,-0.3309 -0.0412,-1.0348 0,-1.4496 0.0416,-0.4137 0.2074,-0.0824 0.5388,-0.2068 0.3308,-0.124 0.124,-0.0851 0.124,-0.0851 l 0.0411,0.0389 h 0.9525 c 0.8697,0 0.3315,-1.1983 0.3315,-1.1983 0,0 0,-0.3094 0.0828,-0.5991 0.0829,-0.2903 0.5383,-0.2175 0.6623,-0.2999 0.1244,-0.0828 0.2901,-0.1084 0.7868,-0.1084 0.497,0 0.6627,-0.3648 0.6627,-0.3648 0,0 0.2897,-0.4723 0.4143,-0.638 0.124,-0.1653 0.6627,-0.3392 0.6627,-0.3392 0,0 0.1653,-0.4184 0.2897,-0.6252 0.124,-0.2079 0.0416,-0.3337 0.124,-0.8308 0.0829,-0.497 0.0417,-0.2911 0.2897,-0.4568 0.2486,-0.1651 0.2486,-0.1244 0.7457,-0.497 0.497,-0.3726 0,-4e-4 0.4554,-0.0422 0.4559,-0.0411 0.7456,0.3315 0.7456,0.3315 0,0 0.4143,0.124 1.1594,0.3314 0.7456,0.2073 0.497,0.2068 0.7873,-0.0829 0.2897,-0.2901 0.6828,-0.4554 0.8898,-0.704 0.2073,-0.2485 0.166,-0.0622 0.6214,-0.3524 0.4554,-0.2897 0.1447,-0.0618 0.3726,-0.3515 0.2275,-0.2902 0.1245,-0.1662 0.8078,-0.2279 0.683,-0.0623 0.6417,-0.352 0.8693,-0.0623 0.228,0.2902 0.3936,0.3931 0.8078,0.4765 0.4137,0.0828 0.0623,0.3725 0.0623,0.7039 0,0.3314 0.0407,0.497 0.269,1.0971 0.2276,0.6006 0.4349,0.6833 0.9526,0.9113 0.5172,0.228 0.2892,0.2691 0.7245,1.0348 0.4349,0.7663 0.5589,0.2693 1.3044,0.3319 0.7453,0.0623 0.3937,0.7451 0.8697,0.8692 0.4764,0.1245 0.352,0.1868 0.352,0.4971 0,0.3108 0,0.5176 0.6004,0.4558 0.6001,-0.0622 0.6213,1.0665 0.6213,1.18 0,0.114 0.1756,0.6834 -0.1864,0.9003 -0.3625,0.2179 -0.3936,0.2486 -0.5277,0.5181 -0.1346,0.2692 -0.2179,0.1552 -0.2697,0.3415 -0.0516,0.1867 0.1452,0.2691 0.342,0.2274 0.1963,-0.0407 0.3414,-0.2892 0.7039,-0.4237 0.3621,-0.1346 0.4244,-0.4454 0.4244,-0.4454 0,0 0.1414,-0.228 0.7212,-0.4764 0.5796,-0.2481 0.3035,-0.3035 0.3035,-0.3035 l -0.2485,-0.8005 c 0,0 -0.248,-0.3589 -0.4691,-0.6354 -0.2211,-0.2756 0.3039,-0.6073 0.3039,-0.6073 l 1.0212,0.0833 c 0,0 0.2484,0.3035 0.5244,0.5519 0.2765,0.2486 0.3867,0.331 0.5526,0.331 0.1656,0 0.4141,-0.3035 0.4141,-0.3035 0,0 0,-0.1936 -0.9667,-1.2148 -0.9662,-1.021 -0.4411,-0.3034 -0.8833,-0.5519 -0.4417,-0.2486 -0.9937,-0.552 -0.9937,-0.552 0,0 -0.0554,-0.2485 0,-0.6353 0.0549,-0.3867 -0.6073,0.0279 -0.6073,0.0279 0,0 -0.3868,-0.0279 -0.6075,-0.1382 -0.2211,-0.1104 -0.5244,-0.4417 -0.5244,-0.4417 0,0 -0.2486,-0.276 -0.6354,-0.5798 -0.3862,-0.304 0,-0.2211 0,-0.4143 0,-0.1932 0.0279,-0.2486 0.0279,-0.6348 0,-0.3864 -0.1935,-0.3314 -0.6352,-0.58 -0.4418,-0.2481 -0.7177,-0.6622 -0.5383,-1.1319 0.1798,-0.4691 0.4559,-0.4137 0,-0.9383 -0.4554,-0.5249 0.4279,-0.2486 1.3942,-0.1932 0.9666,0.055 0.0549,0.5242 0.3593,0.9383 0.3034,0.4143 0.2756,-0.3038 0.828,-0.5794 0.5519,-0.2765 0.276,-0.1657 0.3587,0.2756 0.0829,0.4416 0.1383,0.5799 0.2211,1.2427 0.0824,0.6622 0.3864,0.5798 1.2423,0.7451 0.8559,0.1656 0.4971,0.3319 0.9383,0.801 0.442,0.4692 0.7181,0.3314 1.049,0.6622 0.3313,0.3314 0.2765,0.2211 0.9388,0.6354 0.6627,0.4137 0.2765,0.3862 0.5249,0.6069 0.2486,0.2211 -0.0279,0.3318 -0.2484,0.6352 -0.2211,0.3035 0.0824,0.3035 -0.4972,0.6075 -0.5798,0.3034 -0.2484,0.8284 -0.1103,0.6348 0.1378,-0.1932 0.5521,-0.1383 0.331,0.1382 -0.2207,0.2759 0.1657,0.3038 0.4695,0.7177 0.304,0.4142 0.0275,0.2206 0.3314,0.6074 0.3035,0.3867 0.1932,0.3313 0.2761,0.6073 0.0824,0.2761 0.1103,0.2761 0.4416,0.7731 0.3314,0.4971 0.5246,0.276 0.6898,0.3035 0.1662,0.0274 0.3593,0 0.7735,-0.0829 0.4137,-0.0828 0.8005,0.1657 0.8005,0.1657 0,0 0.6354,0.0279 0.8005,0.1656 0.1657,0.1383 0.6354,0.9943 0.6354,0.9943 0,0 0.4137,0.1656 0.4137,-0.1932 0,-0.3589 -0.0828,-0.3319 0.0275,-0.5804 0.1107,-0.248 0.3868,-0.1653 0.3593,-0.4417 -0.0279,-0.2755 -0.3039,-0.6344 -0.3039,-0.6344 0,0 -0.3864,-0.525 -0.6628,-1.0215 -0.2755,-0.4971 -0.8279,-0.6075 -0.9657,-1.2427 -0.1383,-0.6349 0.524,-0.4971 0.4691,-0.3035 -0.0554,0.1932 0.2485,0.6069 0.8006,0.4695 0.5519,-0.1381 0.3313,-0.2763 0.1381,-0.6631 -0.1935,-0.3863 0.4138,0.0828 0.6903,-0.2486 0.2755,-0.3308 0.3034,-0.1102 0.6348,-0.0269 0.331,0.0829 0.331,-0.1657 0.5524,-0.3008 0.2207,-0.1354 0.7727,0.2454 0.7727,0.2454 0,0 0.4142,0.1383 0.773,0.3309 0.3588,0.1936 0.3588,0.1661 0.6902,0.1382 0.3314,-0.0275 0.5521,-0.1103 1.1873,-0.5245 0.6348,-0.4142 0.1653,-0.0274 0.8834,0 0.7177,0.0275 0.7177,0 1.5461,0 0.8281,0 0.4692,0.3039 0.3589,0.3593 -0.1104,0.0549 -0.1937,-0.028 -0.6902,0 -0.4971,0.027 -0.0833,0.7291 -0.1103,1.0014 -0.028,0.2732 -1.0221,0.6221 -1.0221,0.6221 h -1.6285 c -0.9662,0 -0.5246,-0.6464 -0.8006,-0.536 -0.2764,0.1103 -0.3867,-0.0609 -0.8559,0.4362 -0.4695,0.4971 0.0829,0.2041 0.6349,0.232 0.552,0.0275 0.3592,0.005 0.3313,0.2816 -0.0279,0.2759 -0.0279,0.2375 0.2207,0.4581 0.2485,0.2206 0.1107,0.174 0.0279,0.4499 -0.0829,0.276 -0.7731,0.1835 -0.7731,0.1835 0,0 -0.552,0.244 -0.3588,0.5475 0.1931,0.3035 0.6628,0.0526 1.4084,0.2188 0.7446,0.1651 0.1789,0.9442 0.1166,1.2962 -0.0617,0.3519 0.1452,0.4339 0.8702,0.4339 0.7245,0 0.5382,0.103 0.7868,0.4554 0.248,0.352 0.3103,-0.0833 0.7451,0.124 0.4348,0.2073 0,0.6211 0.476,0.6211 0.4764,0 0.6838,0.0206 1.3671,0.1035 0.683,0.0828 0.2276,-0.2073 0.3104,-0.7452 0.0829,-0.5387 0.5589,-0.4764 1.3873,-0.0205 0.828,0.4554 1.0555,0.8485 1.2834,0.9108 0.2284,0.0623 1.0354,-0.0207 1.3045,-0.0207 0.2696,0 1.0563,-0.5593 1.8637,-0.9734 0.8074,-0.4139 0.4348,0 1.1388,0.2278 0.7043,0.2276 0.2897,-0.2484 0.7456,-0.4348 0.4554,-0.1863 0,0.5177 0.0411,0.932 0.0413,0.4137 -0.0411,0.3102 -0.1657,0.6828 -0.124,0.373 -0.1445,0.4554 0.207,0.4971 0.3524,0.0416 -0.2274,0.5593 0,1.1594 0.2279,0.6009 -0.1447,0.5176 -0.3104,0.973 -0.1656,0.4559 -0.828,1.5534 -0.849,2.4021 -0.0206,0.849 -0.5593,1.9461 -0.8902,2.2569 -0.3315,0.3108 -0.5176,0.1446 -1.7187,0.2696 -1.2006,0.1236 -1.1593,-0.0627 -1.4697,0.0206 -0.3112,0.0824 -0.4764,-0.0623 -0.4764,-0.4554 0,-0.3936 -0.4766,0.1235 -0.9942,-0.1245 -0.5177,-0.2485 -0.3314,0.0829 -1.0142,0.0829 -0.6834,0 -0.0623,0.3107 -0.4559,0.3107 -0.3932,0 -0.1858,0 -0.9315,0.497 -0.7456,0.4962 -0.373,0.0408 -1.9466,-0.166 -1.5736,-0.207 -0.5799,0.0827 -1.9878,-0.4138 -1.4079,-0.4972 -0.9937,-0.3319 -2.4016,-0.3319 -1.4078,0 -0.2069,-0.0412 -0.3309,-0.7451 -0.1245,-0.704 0,0 -0.6215,-0.2486 -0.6211,-0.2484 -0.7456,0.0417 -2.0291,-0.0827 -1.2838,-0.1241 -0.2073,-0.1657 -0.2897,-0.4143 -0.0833,-0.2486 -0.1245,-0.331 -0.5803,-0.5794 -0.4554,-0.2486 -0.5795,0 -1.5732,0 -0.9937,0 -0.7867,0.1656 -1.698,0.5794 -0.9113,0.4143 -0.8281,0.9941 -0.7451,1.4907 0.0823,0.4971 0.1651,0.8701 0.124,1.4079 -0.0417,0.5388 -1.2834,1.0358 -2.6507,0.3319 -1.3662,-0.704 -1.4907,-1.0765 -2.1947,-1.0765 -0.7038,0 -1.5319,-0.7873 -1.7392,-1.3256 -0.2069,-0.5382 -0.6211,-0.7455 -0.6627,-0.9108 -0.0413,-0.1662 -1.9878,-0.373 -1.9878,-0.373 l -2.112,-0.3726 c 0,0 -0.3725,-0.1245 -0.9108,-0.3314 -0.5383,-0.2068 -0.621,-0.4141 -1.201,-1.4495 -0.5798,-1.0349 0.704,-1.0349 0.704,-1.0349 0,0 0.1657,-0.2898 1.1594,-1.2011 0.9941,-0.9112 -0.2486,-0.5381 -0.5795,-1.2421 -0.3313,-0.704 0.4142,-0.4971 0.9936,-1.0354 0.58,-0.5387 -0.2897,-0.4141 -0.8279,-0.1657 -0.5387,0.2486 -0.3313,0.2211 -0.5387,-0.3176 -0.2069,-0.5383 -1.1177,0.5108 -1.1177,0.5108 h -1.408 c 0,0 -1.077,-0.2205 -2.1946,0.3176 -1.1186,0.5383 -0.9526,-0.007 -1.4496,-0.2969 -0.497,-0.2894 -1.5324,0.3071 -3.8928,0.3487 -2.3603,0.0411 -3.5609,1.8719 -4.4172,2.1205 -0.856,0.2486 -1.1045,0.1492 -1.3801,-0.1821 -0.2764,-0.3314 -1.2976,0.1021 -1.2976,0.1021 0,0 -1.077,0.0512 -1.1043,-0.915 -0.0279,-0.9662 -1.0491,0.2192 -1.2977,1.5992 -0.2485,1.3804 -1.8774,2.0143 -3.2575,2.6799 -1.3808,0.6654 -2.4226,3.9513 -2.7334,5.297 -0.3108,1.3461 -1.9878,3.0226 -2.8986,3.1472 -0.9113,0.124 -1.5942,1.2628 -1.8427,2.0701 -0.2485,0.8078 -0.601,0.6421 -1.0975,1.4702 -0.4972,0.8284 -1.1806,2.4015 -1.5324,2.7957 -0.352,0.3931 -0.3104,0.3098 -0.4143,0.7451 -0.1034,0.4347 -0.3726,1.3873 -1.1177,3.0021 -0.7457,1.6152 -0.601,2.5055 -0.5387,3.0442 0.0622,0.5377 0.4141,1.4078 -0.0417,1.4902 -0.4554,0.0829 -0.0617,0.6006 0.0833,1.8849 0.1447,1.2834 -0.0623,3.706 -0.145,4.1202 -0.0829,0.4138 -0.1241,1.1388 -0.1452,1.7389 -0.0205,0.6009 -1.0971,1.1186 -0.6622,1.9255 0.4347,0.8079 0.7661,1.3461 0.4759,1.781 -0.2897,0.4347 0,1.4078 0,1.4078 0,0 0.124,0.4349 0.2279,0.9526 0.1036,0.5176 0.4138,0.7661 0.6624,0.6004 0.2486,-0.1657 0.2902,0.1246 0.2073,0.4764 -0.0828,0.3516 -0.0828,0.4972 0.145,0.911 0.2276,0.4141 0.3104,0.1446 0.5177,0.373 0.207,0.2274 0.0203,0.3931 0.4349,0.8696 0.4138,0.4761 0.3931,0.8898 0.7863,1.0972 0.3936,0.2073 0.4148,0.8696 0.5969,1.3044 0.1831,0.4348 0.0869,0.3107 0.0247,0.7867 -0.0623,0.4766 0,0.2903 0.124,0.7663 0.1245,0.4764 0.2897,0.5588 0.6627,0.8902 0.3726,0.3313 -0.1244,0.5177 0.4972,0.7873 0.6206,0.2687 0.3102,0.1863 0.5588,0.6623 0.2481,0.4764 0.3103,0.3725 1.0353,0.9108 0.7245,0.5387 0.7662,0.8078 1.2422,1.8226 0.4766,1.0142 1.7393,1.3039 2.257,1.6148 0.5177,0.3107 0.3937,-0.228 0.4764,-0.3936 0.0824,-0.1657 0.4967,-0.352 0.4967,-0.352 0,0 0.2073,-0.4554 0.5798,-0.4967 0.3732,-0.0416 0.58,-0.145 1.132,-0.2833 0.5519,-0.1377 0.9387,0.0554 1.6564,0.1937 0.7177,0.1377 0.4417,0.0273 0.8006,0.0548 0.3587,0.0275 0.2205,0.0275 0.8279,0.3314 0.6078,0.304 0.2764,0.0829 0.6353,0.0554 0.3589,-0.0279 0.2486,-0.2211 0.4138,-0.5245 0.1662,-0.3039 0.3043,-0.1108 0.6632,-0.3039 0.3589,-0.1932 0.3035,-0.1932 0.7726,-0.5246 0.4696,-0.3313 0.6903,-0.2205 1.049,-0.2073 0.3589,0.0142 0.5799,-0.0686 0.6353,-0.4275 0.0549,-0.3589 0.2966,-0.2069 0.4417,-0.373 0.1447,-0.1653 0.2486,-0.124 0.6,-0.103 0.3526,0.0206 0.5594,-0.1246 0.5594,-0.1246 0,0 0.2902,-0.0416 0.5799,-0.0416 0.2897,0 0.5383,0.2276 0.5383,-0.1657 0,-0.3931 0.4142,-0.2068 0.2691,0 -0.1447,0.2073 0.352,0 0.58,0 0.2274,0 0.2484,0 1.0348,0.6417 0.7868,0.6422 0.4764,0.6633 0.601,0.8496 0.1235,0.1863 0.2274,0.3931 0.4965,0.2274 0.2692,-0.1652 -0.0828,0.4143 0,0.7663 0.0829,0.352 0,0.1657 0.1658,0.4764 0.1657,0.3103 0.3107,0.331 0.6421,0.6417 0.331,0.3107 0.3726,0.2691 0.6417,0.1657 0.2691,-0.1034 0.4348,0 0.7245,-0.0828 0.2902,-0.0829 0.1863,-0.2898 0.4765,0 0.2898,0.2901 0.1516,-0.2555 0.2898,-0.3936 0.1381,-0.1378 0.1656,0.1381 0.773,0.1106 0.6069,-0.0279 0.3034,-0.2484 0.3034,-0.5249 0,-0.2756 0.3314,0.4422 0.6903,0.5524 0.3588,0.1103 0.4142,0.4143 0.3313,0.6628 -0.0827,0.248 0.4692,0.3309 0.9662,0.3309 0.4972,0 0.2765,0.58 0.6075,0.8284 0.3313,0.2486 0.2211,0.1657 0.1382,0.5795 -0.0828,0.4146 0.0829,1.1873 -0.1657,1.6015 -0.2486,0.4143 0.0554,0.3314 -0.0549,0.9113 -0.1108,0.5795 0.0549,0.7727 0.0824,1.7668 0.0279,0.9937 -0.4212,2.4775 -0.7109,2.8918 -0.2897,0.4141 0.4348,0.2274 0.7246,0.5175 0.2897,0.2899 0.3935,0.3109 0.9112,0.8697 0.5177,0.5589 0.4143,1.2423 0.8074,1.2628 0.3936,0.0206 0.704,0.1456 0.704,0.5799 0,0.4348 0.3936,0.4348 1.0976,1.1388 0.7039,0.704 1.0354,1.1186 1.5324,1.8226 0.4971,0.704 0.0411,0.5795 0.7039,1.3662 0.6623,0.7868 1.2423,2.1119 1.7804,2.9404 0.5383,0.8279 1.1594,1.3251 0.5383,1.9878 -0.621,0.6622 0.0829,0.497 1.0816,1.4078 0.9987,0.9109 1.4857,3.0644 1.0719,3.7683 -0.4141,0.704 -0.9941,0.9937 -1.0605,2.1947 -0.0668,1.201 0.191,2.4021 0.0253,3.0644 -0.1658,0.6631 0.5382,1.6981 0.5382,1.6981 0,0 0.1662,0.7038 0.87,1.8637 0.704,1.1594 3.3958,3.7683 4.5135,4.7207 1.1181,0.9526 0.8284,2.1531 1.6564,3.4369 0.8285,1.2844 1.9051,2.7335 2.7751,3.8101 0.8692,1.0768 0.9932,0.7038 1.6559,1.3662 0.6629,0.6632 3.1477,3.4374 3.4374,3.8928 0.2898,0.4554 -0.497,0.4146 0,0.9524 0.4967,0.5387 0.6211,0.9113 1.0765,0.7873 0.4554,-0.124 0.2486,0.0828 0.8286,0.3772 0.5794,0.2947 0.4137,0.0782 0.9108,-0.212 0.497,-0.2892 0.3724,-0.0412 1.0764,0.1662 0.704,0.2068 0.1662,-0.3314 0.58,-0.6216 0.4143,-0.2898 0.3725,0 0.704,0.0829 0.3313,0.0833 0.4141,0.0833 0.6622,0.1762 0.2486,0.0929 0.2073,-0.0106 0.8702,-0.0518 0.6622,-0.0411 0,0 0.4141,0.0412 0.4138,0.0417 0.2481,-0.0412 0.3314,-0.2485 0.0824,-0.2069 0.5795,-0.2069 0.5795,-0.2069 l 1.2422,-0.4553 c 0,0 0.373,-0.4143 0.7867,-1.0767 0.4143,-0.6627 0.276,-0.8421 0.9662,-0.9803 0.6908,-0.1383 0.1246,-0.3589 0.3182,-0.7319 0.1926,-0.3726 0.3172,-0.5937 0.6073,-1.2423 0.2893,-0.6489 0.3447,-0.7726 0.883,-0.8142 0.5382,-0.0417 0.1867,-0.2901 0.1085,-0.6416 -0.0784,-0.3525 0.1606,-0.5593 0.5753,-1.201 0.4137,-0.6423 -0.0761,-0.4212 -0.021,-1.1668 0.0554,-0.7451 0,0 -0.4143,-0.4417 -0.4143,-0.4416 0.2211,-0.6623 0.2211,-0.6623 l 0.7177,-0.5519 1.601,-0.304 0.4696,-0.3035 c 0,0 0.1657,-0.5249 0.0829,-0.7734 -0.0829,-0.2486 -0.1108,-0.7177 -0.1108,-0.7177 0,0 0.1657,-0.5521 0.1657,-0.8005 0,-0.2486 -0.0549,-0.3589 -0.276,-0.6624 -0.2211,-0.3044 0,-0.2211 0.0828,-0.7456 0.0829,-0.5244 -0.5525,-1.2701 -0.7176,-1.8495 -0.1657,-0.5799 0,-0.2765 0.4416,-0.6632 0.4417,-0.3859 0.2207,-0.3584 0.524,-0.6624 0.304,-0.3034 0.5525,-0.524 1.1878,-0.9108 0.6349,-0.3867 -0.5799,0.1382 0.2898,-0.6902 0.8696,-0.8284 0.2069,-0.3314 1.3663,-0.9941 1.1598,-0.6623 1.4911,-0.5383 1.4911,-0.5383 l 0.9521,-0.7456 0.9113,-0.7039 0.2897,-1.0349 0.6211,-0.5382 c 0,0 0.0411,-0.3314 -0.1662,-1.0359 -0.2068,-0.7038 -0.373,-1.1177 -0.2901,-3.851 0.0824,-2.7334 -10e-4,-0.6624 -0.2499,-1.7394 -0.2486,-1.0764 -0.002,0 -0.748,-0.5794 -0.7456,-0.5799 0.0779,-1.077 -0.005,-1.8226 -0.0824,-0.7451 -0.59,-1.8216 -0.59,-1.8216 0,0 -0.1941,-0.7456 0.1373,-1.2423 0.3314,-0.497 -1.4574,-0.3318 -1.4574,-0.3318 v -1.9874 -0.9937 l 1.4532,-1.0719 c 0,0 0.8281,-1.0714 0.9108,-1.6514 0.0829,-0.5794 0.2633,-0.4032 1.0084,-1.1488 0.7451,-0.7457 0.0366,0.0206 0.2019,-0.4761 0.1657,-0.497 1.1529,-0.4558 1.1529,-0.4558 0,0 0.8586,-0.248 1.3558,-1.6564 0,0 1.5456,-2.1536 3.0364,-3.4785 1.4911,-1.3256 2.8194,-1.905 7.126,-6.8743 4.3074,-4.9693 4.1706,-9.6351 4.1157,-11.0156 -0.0554,-1.3805 -1.2144,0.0554 -1.7115,0.4422 -0.497,0.3858 -1.7661,0.0549 -3.202,0.2754 -1.4354,0.2216 -2.9257,0.5525 -2.9257,0.5525 0,0 -1.7671,0.2761 -2.8162,0.2761 -1.0491,0 -1.601,-0.7732 -1.601,-2.6502 0,-1.8775 -2.9815,-3.6442 -2.9815,-3.6442 l -3.8099,-2.5398 c 0,0 -0.4967,-1.5462 -0.8835,-3.1477 -0.3867,-1.6011 -0.4416,-1.6011 -1.9329,-2.7054 -1.4907,-1.104 -1.4353,-1.9326 -1.3799,-3.6993 0.0554,-1.7667 -0.6211,-2.0848 -1.1181,-2.4986 -0.4972,-0.4137 -1.6148,-1.4495 -1.7394,-1.9878 -0.124,-0.5383 -0.0829,-0.4554 0.2481,-0.994 0.3319,-0.5378 -0.8275,-1.5732 -0.8275,-1.5732 0,0 -0.7044,-0.9526 -1.201,-2.278 -0.4971,-1.3251 -0.4554,-0.8692 -1.3255,-3.0228 -0.8697,-2.1534 -1.5737,-2.1946 -2.0703,-3.1471 -0.4971,-0.9525 2.9404,3.6027 2.9404,2.7741 0,-0.8279 0.5377,-1.6564 1.0348,-2.5255 0.497,-0.8701 -0.1657,1.2834 -0.4554,2.2771 -0.2902,0.9941 0.9108,1.0353 0.9108,1.0353 l 2.3609,2.3192 c 0,0 0.1652,1.4907 1.8633,3.5613 1.698,2.0707 1.2422,1.4496 2.0294,2.9404 0.7864,1.4907 0.0824,1.325 1.035,2.8991 0.9524,1.5731 1.7808,1.4078 2.7333,3.0638 0.952,1.6569 1.3663,2.6506 2.2776,3.8516 0.9113,1.201 0.6211,1.408 0.6211,2.029 0,0.6211 0.124,2.3192 0.3726,2.8986 0.2485,0.58 1.0769,2.9404 2.526,3.1472 1.4496,0.2073 1.1182,-1.1594 2.278,-1.2834 1.1594,-0.1244 1.1177,0 2.1535,-0.5798 1.0349,-0.5796 0.9109,-0.5389 1.6147,-0.4972 0.704,0.0416 0.7869,-0.2068 2.0702,-1.5319 1.284,-1.325 0.7869,-0.5383 3.2305,-0.7044 2.4433,-0.1652 1.1731,-1.4491 1.1731,-1.4491 0,0 0.4417,-0.9383 2.2089,-1.8221 1.7667,-0.8834 0.9383,0 1.9874,-0.7177 1.049,-0.7181 0.0558,-0.8834 0.7181,-1.0491 0.6624,-0.1661 0.9937,0 1.4908,-1.104 0.497,-1.1049 0.773,-0.497 1.9324,-0.6077 1.1594,-0.1104 -0.0554,-0.4418 -0.2206,-1.8771 -0.1657,-1.4359 0,-1.1044 1.049,-0.6628 1.0491,0.4413 0.1653,-0.7181 0.7726,-2.2642 0.6075,-1.5457 0.6632,-2.0981 0.3314,-2.5394 -0.3314,-0.4416 -1.8221,-1.0491 -1.8221,-1.0491 0,0 -1.1044,-0.7181 -2.5398,-1.4357 -1.4353,-0.7183 -0.4417,-0.4418 -0.828,-1.104 -0.3868,-0.6632 -0.3319,-0.6632 -0.5524,-1.8775 -0.2206,-1.2148 -0.3868,0.276 -0.9937,0.773 -0.6074,0.4971 -0.6628,0.6627 -1.1044,1.3251 -0.4418,0.6623 0,0.6623 -0.7726,1.2143 -0.7736,0.5524 -0.7736,0.3318 -1.6016,0.1662 -0.8284,-0.1662 -0.9387,0.2759 -1.7118,0.3308 -0.7726,0.0554 -0.6073,-0.497 -0.9941,-1.3251 -0.3858,-0.8279 -2.2085,-1.7667 -2.2085,-1.7667 l -0.0824,-1.4632 -1.2151,-1.0212 c -1.2148,-1.022 -0.8281,-1.546 -0.8281,-1.546 l -1.4632,-0.7732 c 0,0 -0.828,-0.3313 -2.3467,-1.2421 -1.5182,-0.9114 0,-0.6628 0.4967,-1.077 0.497,-0.4138 0.5803,-0.0554 1.7397,0.0554 1.1594,0.1102 0.7176,-0.1937 0.8284,-0.9389 0.1103,-0.7455 0.4967,0.58 1.7667,0.3589 1.2702,-0.2211 0.1653,0.1657 0.7732,1.0491 0.6073,0.8833 1.4902,2.5397 3.0088,3.0369 1.5183,0.4971 1.353,1.049 1.353,1.049 0,0 0.3589,0.3867 1.5183,0.6623 1.1593,0.2765 1.0216,0.1382 3.009,-0.2481 1.9878,-0.3863 1.3533,0.1932 2.4024,1.7119 1.0491,1.5181 0.5794,0.2754 4.058,0.9387 0.6344,0.1204 1.0596,0.1899 1.3383,0.2265 -0.0243,0.0389 0.002,0.1053 0.1251,0.2147 0.7451,0.6628 1.1318,-0.2486 1.1318,-0.2486 0,0 0.276,0.2765 0.4692,0.2765 0.1936,0 1.4078,-0.6073 2.5402,-0.6627 1.1319,-0.0549 2.5951,-0.58 3.4232,0 0.8284,0.5799 0.6348,1.0495 1.325,0.8559 0.6903,-0.1932 0.5525,0.7176 1.0491,1.877 0.4971,1.1599 1.353,0.2486 1.353,0.2486 0,0 0.0828,0.6352 0.3589,0.9387 0.2763,0.3034 1.1592,0.7456 2.098,0.6353 0.9387,-0.1103 0.58,0.1103 0.3314,0.3309 -0.2486,0.2211 -0.6627,0.6902 -1.4079,0.4696 -0.7452,-0.221 0.1377,1.0491 1.7117,2.4849 1.5732,1.4353 1.4075,0.331 2.512,0.1378 1.1044,-0.1936 0.2765,-1.4354 0.4692,-2.3741 0.1931,-0.9388 0.6078,1.1314 0.4146,2.2913 -0.1936,1.1592 0.4417,1.4353 0.828,2.4843 0.3863,1.0491 0.0274,1.8496 1.3525,5.66 1.3256,3.8099 4.0311,12.3407 4.9698,13.9142 0.9387,1.5731 1.0211,0.9937 1.601,0.1932 0.5794,-0.8005 1.1873,-0.7176 1.1873,-0.7176 0,0 0,-0.6079 0.1378,-0.9667 0.1381,-0.3589 0.1657,-0.5795 0.9388,-1.1873 0.773,-0.6075 0.1103,-0.4413 0.1103,-0.4413 0,0 -0.0275,-0.2759 -0.1103,-1.3254 -0.0829,-1.0491 0.2484,-1.104 0.2484,-1.104 l 0.2486,-1.3256 c 0,0 -0.0833,-1.1867 0.1103,-2.6775 0.1932,-1.4913 -0.1936,-2.0432 -0.1657,-2.7334 0.0279,-0.6903 0.1382,-0.4692 0.6353,-0.4692 0.4971,0 0.4138,-0.552 0.5795,-0.9388 0.1657,-0.3868 0.3035,0.1383 0.5244,0 0.2207,-0.1382 0.6349,-0.4137 0.6908,-0.9387 0.0549,-0.524 0.6069,-1.0545 0.6069,-1.0545 0,0 0.4142,-1.2094 0.6903,-1.7338 0.2759,-0.5245 0.4416,-0.6348 0.8559,-1.0216 0.4141,-0.3864 0.8558,-0.552 0.8279,-1.104 -0.0274,-0.552 0,-0.221 0.304,-0.221 0.3034,0 0.4416,0.0273 0.6069,-0.0554 0.1661,-0.0824 0.8009,-1.0213 0.8009,-1.0213 0,0 0.0829,-0.4691 0.0829,-1.1043 0,-0.6349 0.0828,-0.3035 0.3035,-0.7732 0.2211,-0.4691 0.166,-0.3308 0.3587,-0.9662 0.1937,-0.6348 0.5525,0.4692 0.5525,0.4692 l 0.6628,0.1662 0.1103,0.3967 0.2484,0.5072 h 0.911 l 0.4137,-0.9492 c 0,0 -0.1099,-0.8331 -0.2207,-1.1369 -0.1102,-0.3035 0.6354,-0.9828 0.6354,-0.9828 l 0.5794,0.5996 c 0,0 0.4697,1.0033 0.4417,2.0249 -0.027,1.0211 0.6074,0.1154 0.6074,0.1154 0,0 0.0828,0.3469 0,0.6787 -0.0824,0.3315 0.8838,0.8225 0.8838,0.8225 l 0.4971,0.6595 0.4966,0.606 c 0,0 0,0.3859 -0.1383,1.1589 -0.1378,0.7726 0.028,0.8276 0.304,0.4688 0.276,-0.3589 0.4138,-0.5795 0.4138,-0.2486 0,0.3314 0.6632,2.2639 0.6632,2.2639 0,0 -0.028,1.6014 -0.0554,2.4843 -0.0279,0.8839 0.1657,0.552 0.3589,0.6628 0.193,0.1107 0.6348,0.4696 0.7455,0.4417 0.1104,-0.0275 0.1932,-0.6073 0.6902,-1.3251 0.4967,-0.7181 0.5521,-0.497 0.6623,-1.27 0.1103,-0.7726 0.7457,0.5244 1.0765,1.4082 0.3314,0.883 0.6765,2.1943 0.9667,4.0998 0.2892,1.9048 0.3727,2.5255 0.1652,4.3893 -0.2068,1.8637 -0.5798,4.0996 -0.6622,5.7149 -0.0829,1.6148 0.9524,2.7742 1.0765,3.3129 0.1245,0.5383 0.0412,1.6564 0,2.3604 -0.0417,0.704 0.2486,2.3608 0.2486,2.3608 0,0 -0.1241,1.532 -0.1241,2.1531 0,0.621 0.4138,1.1597 0.7451,1.7804 0.3314,0.6216 0.6628,0.4147 0.9525,0.0833 0.2897,-0.3319 0.2073,-0.5387 -0.1657,-2.1123 -0.3726,-1.5735 -0.0828,-0.704 0.4143,-2.5678 0.497,-1.8632 -0.0279,-2.9402 -0.3864,-3.6849 -0.3587,-0.7457 -0.5803,-0.8838 -1.0495,-1.049 -0.4691,-0.1662 -0.276,-0.8564 -0.1378,-1.9055 0.1378,-1.049 -0.2211,-0.9383 0,-2.0152 0.2211,-1.0766 -0.1382,-0.2207 -0.4141,0.0549 -0.2765,0.2765 -0.1653,0.0554 -0.3589,-0.7451 -0.1932,-0.8005 0.0824,-1.0766 0.1378,-1.7119 0.0558,-0.6348 0.1661,-0.7451 0.7455,-2.678 0.58,-1.9324 0,-0.4966 0.0275,-1.0766 0.0279,-0.5798 0.276,-1.1873 0.4692,-1.4907 0.1935,-0.3034 0.2216,0.3034 0.2216,0.7456 0,0.4418 -0.0281,0.5799 0.193,0.8285 0.2207,0.2481 0.9937,0.1373 1.1594,0.4691 0.1657,0.3314 0.4691,1.2422 0.4691,1.2422 0,0 0.1382,0.5795 0.2211,1.3251 0.0829,0.7451 0.2486,0.8284 0.6897,1.2701 0.4422,0.4417 0.1384,0.8829 0.1384,0.8829 l -0.3035,0.9667 c 0,0 0.0828,0.7177 0.3862,0.5794 0.304,-0.1378 0.2211,-0.2754 0.9392,-1.2697 0.7173,-0.9937 0.055,-1.0216 0.2481,-1.7392 0.1932,-0.7177 0.5246,0.1103 1.0491,-0.7726 0.5246,-0.8838 0.5794,-1.878 0.7456,-2.5952 0.1657,-0.7182 0.1103,-1.2152 0.1103,-1.6565 0,-0.4421 -0.1103,-1.5461 -0.2765,-2.4299 -0.1651,-0.8833 -0.2205,-0.6073 -0.7172,-2.3741 -0.497,-1.7668 -1.5461,-3.9476 -1.85,-4.5276 -0.3035,-0.5799 -0.1653,-1.408 -0.0829,-2.3745 0.0829,-0.9662 0.4005,-1.5045 0.4834,-2.1256 0.0828,-0.6211 0.1652,-1.1183 0.9108,-1.1183 0.7457,0 0.0833,0.6216 0.7868,1.9463 0.704,1.3254 0.6627,-1.2418 0.7456,-2.7325 0.0828,-1.4913 0.8834,-1.2706 1.6711,-2.1535 0.7877,-0.8839 0,-1.8775 0,-1.8775 z m -12.881,69.8567 c -0.1762,0.1799 -0.3593,0.3606 -0.551,0.5427 -1.5444,1.4643 -3.1802,2.5623 -3.9756,3.0919 -2.4066,1.6029 -3.0708,1.6029 -4.5273,2.8711 -1.2504,1.0881 -1.4545,1.6903 -3.0921,3.8649 -0.32,0.4248 -2.5156,3.3248 -4.7487,5.5218 -3.5463,3.4899 -6.6555,4.6855 -6.515,4.9693 0.1107,0.2238 2.1466,-0.3254 5.0452,-1.548 7.0007,-5.5263 13.1915,-12.033 18.3645,-19.3137 z M 362.232,74.1525 c -3.708,2.8922 -3.5995,2.8093 -3.7683,2.9402 -3.6301,2.8098 -4.1744,2.8377 -6.212,4.6792 -1.3136,1.1867 -3.3889,3.2556 -3.1471,3.5613 0.2946,0.3726 3.5988,-2.4222 9.6488,-5.1761 1.0816,-0.4925 0.6535,-0.2564 5.0933,-2.1536 4.5226,-1.9324 5.5799,-2.4391 6.8331,-3.1472 2.894,-1.6349 2.3402,-1.8038 4.0168,-2.4848 1.9663,-0.7987 3.6538,-0.9429 5.9223,-2.4432 1.3401,-0.8866 1.303,-1.2016 1.2838,-1.2834 -0.2206,-0.9278 -4.913,-0.525 -5.7153,-0.456 -1.2853,0.1103 -2.8914,0.2582 -4.8865,0.9114 -0.6829,0.2234 -1.3068,0.4733 -1.8881,0.73 -1.6578,0.8293 -3.2871,1.7068 -4.8869,2.631 -0.8389,0.5591 -1.5374,1.1007 -2.2939,1.6912 z m 85.183,-2.0571 c -0.0984,0.2765 1.2106,1.4583 2.5952,1.3526 0.9012,-0.0683 1.1955,-0.6336 2.6089,-0.7869 0.6102,-0.066 1.0587,-0.0151 1.0628,-0.0687 0.008,-0.0883 -1.2075,-0.2828 -2.2359,-0.3867 -0.6353,-0.0636 -0.5813,-0.0307 -2.5677,-0.1241 -1.2408,-0.0581 -1.4299,-0.0791 -1.4633,0.0138 z m -86.3703,9.138 c -0.1145,0.4225 -0.3931,0.5204 -0.3588,0.6628 0.0636,0.2627 1.1109,0.3181 2.2089,0.1378 0.8659,-0.142 2.2455,-0.3873 3.0368,-1.4629 0.1099,-0.1496 0.5186,-0.7053 0.3309,-1.0216 -0.1546,-0.2618 -0.6489,-0.2416 -1.1593,-0.2206 -0.2975,0.012 -0.7323,0.0294 -1.2427,0.2481 -0.6651,0.2852 -0.9282,0.6843 -1.104,0.58 -0.2082,-0.1237 0.0916,-0.7223 -0.1382,-0.8835 -0.2312,-0.1629 -0.8331,0.2371 -1.1594,0.6349 -0.097,0.118 -0.2855,0.3478 -0.3588,0.6902 -0.0613,0.2843 0.0174,0.368 -0.0554,0.6348 z m -5.6319,14.4115 c -0.1465,-0.0861 -0.0824,-0.4825 0,-0.7177 0.1575,-0.4504 0.589,-0.9136 1.1319,-1.0491 0.2357,-0.0591 0.3831,-0.0292 0.4417,-0.1382 0.119,-0.2216 -0.3854,-0.5269 -0.3039,-0.8559 0.0499,-0.1996 0.3652,-0.3195 0.9942,-0.5521 0.5253,-0.1945 0.6723,-0.194 1.0489,-0.3866 0.1402,-0.0715 0.2885,-0.1686 0.58,-0.3589 0.8413,-0.5502 1.0075,-0.731 1.2148,-0.6623 0.1949,0.0641 0.3587,0.3268 0.3313,0.552 -0.0535,0.4312 -0.7639,0.3432 -1.1593,0.9936 -0.184,0.3022 -0.1208,0.4688 -0.4147,0.9113 -0.0454,0.0686 -0.1772,0.2609 -0.3858,0.4692 -0.1132,0.1121 -0.4514,0.4311 -1.2427,0.7731 -0.731,0.3158 -0.7502,0.1766 -1.2423,0.4416 -0.5977,0.3218 -0.838,0.6715 -0.9941,0.58 z m 1.5184,2.0703 c 0.0755,0.1635 0.8202,-0.1427 3.5339,-0.8833 1.0761,-0.2938 1.5,-0.3932 2.0432,-0.7731 0.5543,-0.3877 0.5731,-0.6055 1.2697,-1.049 0.7364,-0.4688 1.1414,-0.4957 1.2148,-0.8285 0.0818,-0.3721 -0.3951,-0.4801 -0.6074,-1.1593 -0.0856,-0.2747 -0.0554,-0.4074 0.1103,-1.9325 0.1061,-0.9744 0.0965,-0.9501 0.1107,-0.9936 0.3607,-1.147 1.5599,-1.5439 1.4355,-1.8775 -0.1095,-0.2944 -1.0711,-0.0715 -1.2148,-0.4418 -0.1012,-0.2598 0.2888,-0.5904 0.2205,-0.6627 -0.1327,-0.1419 -1.639,1.1279 -1.7667,0.9941 -0.076,-0.0795 0.4065,-0.5825 0.3314,-0.6627 -0.1076,-0.1154 -1.2215,0.7996 -1.7672,1.2702 -0.8362,0.7222 -0.8802,0.8714 -0.8829,0.9937 -0.0147,0.5743 0.8678,0.7056 1.1593,1.6564 0.05,0.1633 0.2275,0.7419 -0.0554,1.1044 -0.2205,0.2828 -0.5089,0.1611 -1.2146,0.552 -0.3364,0.1862 -0.5443,0.3053 -0.6623,0.5519 -0.18,0.3763 0.0613,0.6046 -0.1109,0.8285 -0.2283,0.2971 -0.7277,-0.0124 -1.325,0.3309 -0.0875,0.0509 -0.4654,0.2682 -0.4417,0.4971 0.0417,0.3982 1.2601,0.4358 1.2702,0.7181 0.008,0.2156 -0.7021,0.2806 -1.6015,0.828 -0.4326,0.2637 -1.1265,0.7717 -1.0491,0.9387 z M 404.637,69.7765 c 0.1383,0.4581 2.0186,0.2824 2.6786,0.2205 1.3616,-0.1271 1.2888,-0.3239 2.1529,-0.3038 1.072,0.0257 1.3823,0.3332 2.5393,0.2765 0.5883,-0.029 1.429,-0.1534 1.4359,-0.3314 0.008,-0.1812 -0.8503,-0.3945 -1.5456,-0.4691 -0.7882,-0.0853 -1.0747,0.0393 -2.6226,0.1656 -1.0949,0.0888 -1.6423,0.1337 -1.9599,0.0828 -1.0231,-0.1648 -1.4955,-0.6013 -2.0986,-0.3313 -0.325,0.1455 -0.6441,0.4769 -0.58,0.6902 z m 25.3441,0.6901 c 0.1474,0.3136 0.9845,0.3273 1.1593,0 0.0715,-0.134 0.009,-0.2832 0,-0.3035 -0.134,-0.3057 -0.6979,-0.453 -0.9941,-0.1936 -0.1313,0.1154 -0.2403,0.3379 -0.1652,0.4971 z m -5.3007,-1.6564 c -0.232,0.1524 -0.4467,0.4425 -0.3868,0.6623 0.0784,0.2859 0.6239,0.3602 1.7118,0.497 1.0231,0.1286 1.6186,0.1107 2.4021,0.0828 0.6966,-0.0246 0.7941,-0.0672 0.8005,-0.1103 0.0152,-0.1066 -0.5268,-0.2388 -1.4632,-0.5245 -2.0103,-0.6133 -2.566,-0.9356 -3.0644,-0.6073 z m -16.5646,7.7023 c 0.1278,-0.3493 0.9942,-0.4916 1.2977,-0.1104 0.1272,0.1602 0.1583,0.417 0.0549,0.6074 -0.1602,0.2961 -0.6033,0.3598 -0.9108,0.2206 -0.2989,-0.1351 -0.5269,-0.486 -0.4418,-0.7176 z m 1.767,-1.463 c -0.0362,-0.1785 0.0476,-0.2723 0.6069,-1.1319 0.882,-1.3544 0.8194,-1.3442 0.9667,-1.4634 0.7144,-0.5761 1.1616,0.0234 2.6227,-0.4416 0.8787,-0.2796 1.1876,-0.6462 2.1259,-0.6902 0.4102,-0.0192 0.97,0.0215 0.9932,0.1657 0.0284,0.1689 -0.6901,0.4238 -1.5181,0.7177 -0.8523,0.3029 -1.0252,0.3035 -1.7114,0.5798 -0.8198,0.3301 -1.1356,0.5562 -1.353,0.7456 -0.3189,0.2774 -0.7017,0.6102 -0.6627,1.0213 0.038,0.4018 0.46,0.6833 0.6353,0.8005 0.4362,0.2915 0.8321,0.296 0.8284,0.3867 -0.004,0.0888 -0.3891,0.1721 -0.8284,0.1931 -0.9685,0.0463 -2.565,-0.1909 -2.7055,-0.8833 z m 88.151,70.0403 c -0.3196,-0.004 -0.5534,0.6935 -0.6075,0.8559 -0.0192,0.0573 -0.411,1.2715 0.1932,1.7394 0.0161,0.0123 0.32,0.2406 0.6075,0.1381 0.4407,-0.1578 0.4645,-0.9593 0.469,-1.1322 0.0215,-0.7297 -0.308,-1.597 -0.6622,-1.6012 z m 3.2576,23.6044 c -0.0426,-0.002 -0.0929,0.038 -0.5246,1.2977 -0.5126,1.4948 -0.4769,1.5411 -0.6627,1.7667 -0.3264,0.3959 -0.6958,0.5666 -0.7456,1.0216 -0.0229,0.2146 0.0471,0.2897 0,0.4971 -0.0916,0.4083 -0.4733,0.6114 -0.6897,0.7731 -0.4527,0.3372 -0.3535,0.6202 -1.1874,2.7329 -0.4013,1.0175 -0.5918,1.3758 -0.7452,1.353 -0.2251,-0.0335 -0.1867,-0.8583 -0.3867,-0.8838 -0.2206,-0.0279 -0.5529,0.9433 -0.7726,1.85 -0.362,1.4884 -0.1199,1.553 -0.4421,3.0917 -0.2133,1.0203 -0.4591,1.6574 -0.3315,2.5124 0.0518,0.3478 0.1635,0.7127 0.2486,0.9937 0.1845,0.6064 0.2807,0.9117 0.4697,0.9941 0.3469,0.1515 0.897,-0.2724 1.2146,-0.6352 0.7457,-0.8527 0.3227,-1.5045 0.9658,-2.8988 0.4929,-1.0677 0.8234,-0.864 1.0491,-1.7113 0.2545,-0.952 -0.0568,-1.6064 0.4696,-2.2918 0.2477,-0.3217 0.3708,-0.2489 0.6348,-0.524 0.8344,-0.8709 -0.0119,-2.0037 0.4143,-4.3069 0.0878,-0.4748 0.2494,-1.3494 0.7451,-2.3467 0.2133,-0.4293 0.2984,-0.4979 0.4147,-0.8284 0.4133,-1.1768 0.0892,-2.4446 -0.1382,-2.4571 z m -11.595,22.1693 c -0.3292,0.0357 -0.607,0.4201 -0.58,0.7173 0.016,0.1743 0.1241,0.1858 0.1932,0.4146 0.1103,0.3638 -0.1126,0.5034 -0.0275,0.7726 0.1157,0.3666 0.693,0.6298 1.1319,0.5525 0.2394,-0.0426 0.3044,-0.1626 0.4416,-0.1108 0.234,0.0887 0.1269,0.4719 0.4418,0.801 0.1652,0.1721 0.3662,0.2452 0.5246,0.3034 0.4068,0.1488 0.6439,0.0622 0.773,0.2485 0.0934,0.1355 0.0201,0.2545 0.1382,0.3589 0.1035,0.092 0.271,0.0971 0.3863,0.0549 0.2522,-0.0911 0.4243,-0.465 0.3314,-0.7172 -0.1154,-0.3135 -0.5525,-0.2032 -0.9662,-0.6628 -0.1552,-0.1716 -0.3031,-0.336 -0.2765,-0.5245 0.0572,-0.4018 0.8331,-0.394 1.0491,-0.9941 0.0301,-0.082 0.0842,-0.2325 0.0279,-0.3864 -0.1629,-0.4412 -1.1498,-0.6558 -1.7393,-0.3034 -0.3937,0.2353 -0.4842,0.6485 -0.6903,0.6074 -0.1551,-0.0311 -0.1358,-0.2696 -0.3867,-0.6074 -0.1337,-0.1808 -0.4178,-0.5634 -0.7725,-0.5245 z m -1.9882,-5.6874 c -0.1707,0.0303 -0.174,1.2916 0,1.3255 0.0911,0.0175 0.2513,-0.2956 0.2765,-0.5804 0.0339,-0.3862 -0.1781,-0.7625 -0.2765,-0.7451 z m -1.1595,-9.7454 c -0.1318,0.0339 -0.2005,0.2957 -0.1652,0.4966 0.0741,0.4238 0.6325,0.7145 0.7726,0.6074 0.1217,-0.0925 -0.0412,-0.5068 -0.1931,-0.7452 -0.0623,-0.0984 -0.255,-0.4 -0.4143,-0.3588 z m 0.9941,4.9967 c -0.1644,0 -0.3598,0.2472 -0.3039,0.4422 0.07,0.2421 0.4998,0.2924 0.6074,0.1653 0.1207,-0.1424 -0.0788,-0.607 -0.3035,-0.6075 z m -0.0554,1.712 c 0.118,-0.0102 0.2385,0.2824 0.2765,0.4691 0.0223,0.1126 0.0713,0.3511 -0.056,0.4417 -0.0965,0.0695 -0.2663,0.0325 -0.3583,-0.0554 -0.2367,-0.2238 -0.0279,-0.8413 0.1378,-0.8554 z m -0.4971,-3.9759 c -0.3259,0.1721 -0.2582,1.0962 0.0554,1.2148 0.2092,0.0795 0.5771,-0.18 0.6903,-0.4972 0.0224,-0.0617 0.0608,-0.1738 0.0273,-0.3033 -0.0818,-0.3228 -0.5482,-0.5323 -0.773,-0.4143 z m 1.712,-6.4601 c -0.2875,-0.1992 -0.4427,-0.1108 -0.8006,-0.2481 -0.5858,-0.2252 -0.6999,-0.6642 -0.9387,-0.6075 -0.2604,0.0619 -0.3314,0.634 -0.3589,0.8556 -0.0123,0.1025 -0.1894,1.6893 0.6902,2.2916 0.211,0.1443 0.4495,0.2093 0.5521,0.4692 0.0659,0.1676 0.0196,0.2741 0,0.6353 -0.0174,0.3254 -0.0312,0.5753 0.0274,0.828 0.082,0.351 0.2321,0.3986 0.525,0.9387 0.1268,0.2349 0.2604,0.4815 0.3314,0.7451 0.1807,0.6798 -0.1836,1.0042 -0.2211,1.7398 -0.0344,0.6677 0.2544,0.6289 0.4417,1.629 0.1794,0.9566 0.0659,1.806 -0.0279,2.5118 -0.1214,0.9141 -0.2573,1.0386 -0.1927,1.6016 0.08,0.7053 0.3281,0.8155 0.2754,1.3804 -0.0617,0.6613 -0.426,0.7598 -0.3862,1.3525 0.0219,0.3268 0.1327,0.2984 0.3592,1.0216 0.2189,0.7003 0.1753,0.9232 0.3589,1.0212 0.3689,0.1981 1.062,-0.4321 1.1315,-0.4967 0.6193,-0.5734 0.6032,-1.0632 1.2152,-2.678 0.4257,-1.1246 0.7795,-1.8011 0.5519,-1.9878 -0.2041,-0.1675 -0.6879,0.2106 -0.8558,0.0279 -0.1113,-0.1213 0.0439,-0.3455 0.1931,-0.9113 0.1483,-0.5615 0.2672,-1.016 0.0554,-1.353 -0.1409,-0.2233 -0.2901,-0.1756 -0.4143,-0.4141 -0.1762,-0.3392 -0.0329,-0.7411 0.0275,-0.9109 0.2582,-0.7232 0.7645,-0.7886 0.7456,-1.1873 -0.0164,-0.3497 -0.4077,-0.3048 -0.6627,-0.8554 -0.1488,-0.3214 -0.1725,-0.693 -0.2207,-1.4359 -0.0164,-0.2502 -0.0159,-0.3958 -0.1106,-0.5794 -0.1548,-0.3017 -0.337,-0.2618 -0.5521,-0.5524 -0.1643,-0.222 -0.2106,-0.4889 -0.3035,-1.0216 -0.0718,-0.4083 -0.0375,-0.4183 -0.0827,-0.6349 -0.1822,-0.8718 -0.7727,-0.908 -0.884,-1.6289 -0.0699,-0.455 0.1356,-0.6363 -0.0549,-1.0491 -0.0425,-0.0925 -0.1642,-0.3241 -0.4141,-0.497 z m -18.1933,-7.1776 c -0.1016,0.007 -0.174,0.1611 -0.5246,1.629 -0.2238,0.9359 -0.3359,1.4083 -0.3314,1.6285 0.016,0.8224 0.3126,0.8793 0.3314,1.8775 0.003,0.2018 -0.005,0.3661 0.1103,0.4692 0.2609,0.2325 0.9415,-0.0308 1.3529,-0.3868 0.6468,-0.5593 0.6881,-1.4024 0.6903,-1.4629 0.0206,-0.6266 -0.2746,-0.7807 -0.8563,-2.0985 -0.4907,-1.1118 -0.5754,-1.6702 -0.7726,-1.656 z m -86.3497,-45.96 c 0.0435,-0.053 0.2398,0.0312 0.6004,0.1863 0.2289,0.0984 0.3598,0.1708 0.4349,0.2068 0.4178,0.2015 0.7182,0.0541 1.3045,0.0623 0.6737,0.0105 1.3676,0.2216 1.3667,0.373 -5e-4,0.1296 -0.5072,0.2234 -0.6422,0.2486 -0.2504,0.0462 -0.5213,0.0623 -1.1182,0 -0.6779,-0.0719 -1.0174,-0.1075 -1.2627,-0.2486 -0.4647,-0.2672 -0.7526,-0.7428 -0.6834,-0.8284 z m -2.6984,-3.9133 c -0.0527,0.0284 -0.3181,0.1831 -0.3177,0.3868 9e-4,0.183 0.2174,0.2229 0.2623,0.4554 0.0485,0.2527 -0.1771,0.3607 -0.1103,0.5658 0.054,0.166 0.2508,0.2443 0.4692,0.3313 0.3335,0.1328 0.3976,0.0495 0.5656,0.1382 0.4326,0.2275 0.2586,0.9095 0.6216,1.0491 0.1978,0.0759 0.4779,-0.0403 0.552,-0.2073 0.0453,-0.1016 0.009,-0.2106 -0.0692,-0.3864 -0.302,-0.681 -0.5515,-0.838 -0.4828,-1.0353 0.0622,-0.1784 0.3474,-0.2796 0.552,-0.2485 0.2421,0.0366 0.373,0.2586 0.428,0.2206 0.048,-0.033 -0.011,-0.2316 -0.1108,-0.4 -0.1345,-0.2289 -0.3478,-0.4096 -0.7864,-0.6074 -0.5716,-0.2572 -1.1282,-0.508 -1.5735,-0.2623 z m -1.1871,0.5797 c -0.0435,0.0802 -0.0252,0.2078 0.0686,0.2623 0.0938,0.0545 0.2077,0.004 0.2627,-0.0691 0.0498,-0.0672 0.0632,-0.1717 0.0138,-0.2348 -0.0752,-0.0948 -0.2801,-0.0787 -0.3451,0.0416 z m -0.1797,-1.0906 c -0.1639,0.0133 -0.3026,0.1977 -0.2765,0.3726 0.0315,0.2051 0.2774,0.331 0.4421,0.2627 0.0989,-0.0407 0.1543,-0.1455 0.1657,-0.2348 0.0238,-0.189 -0.1378,-0.416 -0.3313,-0.4005 z m -14.4665,-4.0581 c -0.2197,0.2467 0.1478,0.6056 -0.0549,1.077 -0.0967,0.2234 -0.195,0.1781 -0.5251,0.5794 -0.2832,0.3447 -0.4485,0.5457 -0.4691,0.8285 -0.0283,0.3877 0.2216,0.8605 0.552,0.9108 0.2101,0.0321 0.3859,-0.1162 0.6074,-0.3038 0.4619,-0.39 0.6591,-0.8651 0.7181,-1.0216 0.1905,-0.5012 0.0105,-0.4802 0.2207,-1.1869 0.0947,-0.3176 0.1921,-0.5273 0.0833,-0.7181 -0.092,-0.1588 -0.2756,-0.2142 -0.3868,-0.2481 -0.0248,-0.007 -0.5332,-0.1552 -0.7456,0.0828 z m 1.8224,-2.8714 c -0.1831,-0.1093 -0.6569,0.2696 -0.9114,0.6629 -0.2462,0.3803 -0.2681,0.7455 -0.2759,0.9108 -0.005,0.113 -0.0308,0.6513 0.1657,0.7181 0.0919,0.0306 0.2283,-0.0892 0.497,-0.3313 0.2796,-0.2523 0.4197,-0.3781 0.4967,-0.5525 0.0603,-0.1369 0.069,-0.3136 0.0827,-0.6623 0.0189,-0.4641 0.0285,-0.6957 -0.0548,-0.7457 z m 2.5468,7.3578 c -0.151,0.0425 -0.3145,0.1638 -0.3726,0.3313 -0.1253,0.3575 0.2837,0.7754 0.5378,1.0349 0.3049,0.3112 0.5895,0.4604 1.0147,0.6838 0.4458,0.233 0.6734,0.3488 0.9109,0.2894 0.3772,-0.094 0.5717,-0.499 0.601,-0.5585 0.1675,-0.3497 -0.009,-0.4486 0.1652,-0.7872 0.1327,-0.2586 0.2837,-0.2953 0.4553,-0.6624 0.0811,-0.172 0.1356,-0.2929 0.0833,-0.373 -0.096,-0.1469 -0.4838,-0.0527 -0.7871,0.0206 -0.5941,0.1447 -0.6066,0.2746 -0.9731,0.3108 -0.4088,0.0403 -0.7969,-0.0819 -0.9315,-0.1244 -0.3423,-0.1076 -0.4842,-0.228 -0.7039,-0.1653 z m 52.5301,85.5692 c -0.3263,0.3969 -0.1693,0.6079 -0.4971,1.0495 -0.2353,0.3167 -0.3593,0.266 -0.6623,0.6624 -0.195,0.2549 -0.2361,0.3968 -0.3868,0.6623 -0.2091,0.3707 -0.4155,0.5968 -0.828,1.0495 -0.3862,0.4233 -0.7359,0.7241 -1.4357,1.325 -0.3035,0.2604 -0.4568,0.3923 -0.5521,0.4417 -0.6252,0.3268 -1.0096,0.0499 -1.601,0.276 -0.5552,0.2123 -0.8486,0.698 -0.9941,0.9388 -0.3071,0.509 -0.3378,0.9758 -0.3864,1.8775 -0.0535,0.9991 0.0851,1.0714 0,1.877 -0.0503,0.4751 -0.1084,1.0252 -0.3867,1.6564 -0.4467,1.0138 -0.9758,1.1347 -0.9941,1.8775 -0.005,0.2115 0.0357,0.3104 0.0558,0.9941 0.011,0.385 0.017,0.5776 0,0.7726 -0.0471,0.5365 -0.161,0.6321 -0.1107,0.9389 0.0507,0.3098 0.2173,0.5194 0.3314,0.6622 0.367,0.4618 0.8499,0.6321 1.1043,0.7182 0.3538,0.1194 1.2908,0.4362 1.9878,0 0.3777,-0.2366 0.3429,-0.4811 0.9937,-1.8775 0.4569,-0.9796 0.4838,-0.8811 0.8835,-1.7668 0.5396,-1.1964 0.443,-1.2724 0.8284,-2.0427 0.3281,-0.6568 0.417,-0.639 1.3804,-2.0986 0.8188,-1.2409 1.229,-1.8683 1.2697,-2.2084 0.1318,-1.103 -0.5704,-1.7329 -0.1103,-2.5398 0.1346,-0.2367 0.4009,-0.5443 0.6073,-0.4971 0.2106,0.0481 0.234,0.4366 0.3868,0.4417 0.2028,0.007 0.3753,-0.6742 0.3859,-0.7177 0.1285,-0.5181 0.113,-0.9304 0.0557,-1.6565 -0.1102,-1.3845 -0.1331,-0.8901 -0.2763,-2.2637 -0.0632,-0.6037 -0.0815,-0.9182 -0.2765,-0.9941 -0.2385,-0.0925 -0.5982,0.2301 -0.7726,0.4416 z" style="fill: rgb(102, 195, 104); fill-rule: evenodd;" id="path8"/>
    <path d="m 396.3647,120.2677 h 0.2263 c 2.514,0 4.5705,2.0564 4.5705,4.5705 v 6.4573 c 0.107,0.8646 0.1624,1.7453 0.1624,2.6394 0,11.772 -9.5433,21.3152 -21.3152,21.3152 -11.7719,0 -21.3151,-9.5432 -21.3151,-21.3152 0,-0.8941 0.0553,-1.7748 0.1623,-2.6394 v -6.4573 c 0,-2.5141 2.0565,-4.5705 4.5705,-4.5705 h 0.2264 z m 65.4104,-0.3247 h 0.2263 c 2.514,0 4.5705,2.0564 4.5705,4.5705 v 6.4572 c 0.107,0.8647 0.1623,1.7454 0.1623,2.6395 0,11.772 -9.5432,21.3152 -21.3151,21.3152 -11.7719,0 -21.3152,-9.5432 -21.3152,-21.3152 0,-0.8941 0.0554,-1.7748 0.1624,-2.6395 v -6.4572 c 0,-2.5141 2.0565,-4.5705 4.5705,-4.5705 h 0.2263 z" style="fill: rgb(255, 255, 255); fill-rule: evenodd;" id="path10"/>
    <path d="m 380.684,129.3927 a 8.1768,8.1768 0 0 1 8.1767,8.1768 8.1768,8.1768 0 1 1 -8.1767,-8.1768 z" style="fill: rgb(27, 25, 24); fill-rule: evenodd;" id="path12"/>
    <path d="m 445.4449,129.1492 a 8.1768,8.1768 0 0 1 8.1768,8.1767 8.1768,8.1768 0 1 1 -8.1768,-8.1767 z" style="fill: rgb(27, 25, 24); fill-rule: evenodd;" id="path14"/>
    <path d="m 411.3087,152.3708 c -0.6925,-0.7442 -0.6507,-1.9101 0.0935,-2.6026 0.7441,-0.6925 1.9101,-0.6507 2.6025,0.0935 0.449,0.4821 0.9963,0.9581 1.5879,1.4058 0.6175,0.4674 1.2915,0.9089 1.9667,1.305 0.7023,0.1759 1.3653,0.3026 1.8966,0.2558 0.3776,-0.0393 0.7306,-0.1869 1.0356,-0.5301 0.4035,-0.5756 0.631,-1.3554 0.2891,-1.7884 -1.3985,-1.749 -2.4304,-3.0871 -3.3307,-4.3897 -0.9028,-1.3062 -3.0983,-4.7193 -3.8658,-6.2026 -0.4649,-0.9028 -0.1107,-2.0147 0.7921,-2.4796 0.9028,-0.465 2.0147,-0.1107 2.4796,0.7921 0.6986,1.3504 2.8203,4.6406 3.6197,5.7992 1.6605,2.4021 4.1745,4.4082 3.9876,7.5421 -0.0578,0.9458 -0.3297,1.9839 -0.9988,2.9039 l -0.0651,0.0787 c -1.048,1.2878 -2.2853,1.8253 -3.626,1.9422 -1.1118,0.0897 -2.1991,-0.1181 -3.2815,-0.3973 -0.1919,-0.0382 -0.3813,-0.107 -0.5596,-0.2091 -0.8561,-0.4883 -1.7355,-1.059 -2.5583,-1.6826 -0.754,-0.5707 -1.4637,-1.1906 -2.0651,-1.8363 z" style="fill: rgb(27, 25, 24); fill-rule: evenodd;" id="path16"/>
    <path d="m 405.1331,161.6938 c 8.5063,3.2447 16.4187,3.0503 23.839,0 2.9802,-1.225 5.857,2.6346 5.857,5.8571 0,0 0,10e-4 0,10e-4 0,3.2225 -2.8141,4.7956 -5.857,5.8571 -7.7118,2.6899 -15.6906,2.3 -23.839,0 -3.1008,-0.8757 -5.8571,-2.6346 -5.8571,-5.8571 0,0 0,-10e-4 0,-10e-4 0,-3.2225 2.8461,-7.0058 5.8571,-5.8571 z" style="fill: rgb(27, 25, 24); fill-rule: evenodd;" id="path18"/>
    <path d="m 428.1234,173.6921 c -4.6468,1.4821 -9.3895,1.8658 -14.206,1.4083 1.1156,-3.0306 4.0281,-5.1904 7.4462,-5.1904 2.8596,0 5.3638,1.5128 6.7598,3.7821 z" style="fill: rgb(255, 255, 255); fill-rule: evenodd;" id="path20"/>
  </g>
</svg>