<svg width="111" height="111" viewBox="0 0 111 111" fill="none" xmlns="http://www.w3.org/2000/svg">
<path fill-rule="evenodd" clip-rule="evenodd" d="M97.0116 91.9067C92.5232 96.9985 87.1104 101.258 81.038 104.421C67.3764 111.537 50.1676 112.508 35.8006 107.018C29.1547 104.476 23.1223 100.689 17.9942 95.9423C6.97267 85.739 0.257629 70.3551 0.257629 55.3708C0.257629 24.8439 25.0055 0.0960083 55.5338 0.0960083C86.0615 0.0960083 110.809 24.8439 110.809 55.3708C110.809 60.1482 110.202 64.7843 109.062 69.2043C107.105 76.803 102.117 86.1168 97.0116 91.9067Z" fill="#92D669"/>
<path fill-rule="evenodd" clip-rule="evenodd" d="M110.511 58.6711C110.396 58.674 110.29 58.2709 110.266 58.1808C110.253 58.1314 110.211 57.9657 110.2 57.6417C110.189 57.2844 110.23 57.2183 110.217 57.0046C110.195 56.6665 110.066 56.4425 110.004 56.3019C109.727 55.6729 110.107 55.1634 110.135 54.1942C110.166 53.086 109.713 52.1713 109.645 52.1845C109.61 52.191 109.653 52.4381 109.677 53.0506C109.691 53.3794 109.685 53.4736 109.677 54.4883C109.666 56.0406 109.684 55.2011 109.677 56.2039C109.673 56.8126 109.667 57.0422 109.743 57.3966C109.852 57.9099 109.959 57.8693 110.053 58.2951C110.136 58.6697 110.076 58.8032 109.939 60.3048C109.907 60.655 109.891 60.8321 109.89 60.9256C109.881 61.6627 110.053 61.8307 109.972 62.2984C109.889 62.7773 109.697 62.6679 109.628 63.1477C109.571 63.5483 109.694 63.703 109.628 64.3734C109.618 64.4782 109.608 64.5457 109.628 64.553C109.693 64.5759 109.976 63.9633 110.216 63.4073C110.229 63.3763 110.238 63.3437 110.243 63.3103C110.46 61.8023 110.615 60.2752 110.708 58.7309C110.712 58.664 110.578 58.6694 110.511 58.6711ZM108.795 45.077C108.672 45.0862 108.58 45.7761 108.648 46.4168C108.739 47.2678 109.117 48.0659 109.252 48.0345C109.406 47.9987 109.268 46.906 109.187 46.4168C109.166 46.2903 108.961 45.0645 108.795 45.077ZM89.2538 20.7158C89.0386 20.8068 88.7131 20.7422 88.6001 20.5522C88.4195 20.248 88.9606 19.9168 88.8943 19.376C88.8127 18.7133 87.9078 18.4585 88.012 18.1015C88.0606 17.9349 88.2989 17.8459 88.4693 17.8402C89.0086 17.8214 89.4921 18.6145 89.6132 19.2777C89.6977 19.7409 89.6774 20.536 89.2538 20.7158ZM79.2462 25.0128C79.2246 25.1786 78.9112 25.2487 78.8175 25.2702C78.5328 25.3344 78.3586 25.2731 77.7266 25.1475C77.1665 25.0365 77.0151 25.0272 76.8566 25.1109C76.8189 25.131 76.6147 25.2384 76.5505 25.4538C76.4242 25.8751 76.9595 26.2849 76.8322 26.4466C76.7606 26.537 76.545 26.4688 76.5136 26.4588C76.1182 26.3334 76.0409 25.8 76.0356 25.7602C76.0293 25.7126 76.0046 25.495 76.1092 25.2457C76.1374 25.1783 76.259 24.8877 76.5136 24.7677C76.7734 24.6452 76.9189 24.8197 77.6776 24.9762C78.2169 25.0871 78.4913 25.1393 78.7191 24.9882C78.8578 24.8964 78.948 24.7528 79.0746 24.7801C79.1729 24.801 79.2588 24.9175 79.2462 25.0128ZM67.3105 25.4416C67.2663 25.4452 67.1525 25.4503 66.8694 25.3682C66.5877 25.2867 66.4471 25.2457 66.4406 25.1721C66.4333 25.0887 66.5998 24.9957 66.7345 24.9638C66.9255 24.9186 67.0862 24.9879 67.286 25.074C67.4294 25.1358 67.6542 25.2331 67.6415 25.3192C67.6273 25.4159 67.3245 25.4406 67.3105 25.4416ZM67.3966 26.9613C67.37 27.0941 67.2088 27.1858 67.0777 27.194C66.8854 27.2062 66.6998 27.042 66.6858 26.8876C66.6711 26.7321 66.841 26.6961 66.8448 26.5324C66.851 26.29 66.484 26.1985 66.5018 25.9688C66.5113 25.8466 66.6254 25.7336 66.6858 25.748C66.7467 25.7626 66.7413 25.9051 66.7714 26.0421C66.8865 26.5656 67.45 26.692 67.3966 26.9613ZM66.0608 26.9613C66.0012 26.9987 65.9081 27.0033 65.8401 26.9613C65.7144 26.8838 65.7699 26.7053 65.7174 26.2505C65.6821 25.9452 65.6415 25.8875 65.6929 25.7726C65.7922 25.5521 66.0812 25.4558 66.1218 25.5031C66.1664 25.5546 65.8796 25.7353 65.9013 26.0053C65.9167 26.195 66.0657 26.2093 66.134 26.471C66.173 26.6202 66.193 26.8778 66.0608 26.9613ZM64.8232 33.554C64.7642 33.6935 64.5051 33.7469 63.9897 33.8479C63.1841 34.0061 62.9178 33.9354 62.801 33.8969C62.7444 33.8785 62.5735 33.8187 62.3844 33.6889C62.1024 33.4952 62.1087 33.3717 61.931 33.2355C61.474 32.8849 60.8696 33.2714 60.5952 32.9291C60.5481 32.8703 60.4793 32.7509 60.436 32.6102C60.3984 32.4884 60.4026 32.4247 60.3869 32.2795C60.3371 31.8182 60.209 31.6925 60.3011 31.5687C60.3742 31.4704 60.4828 31.5118 60.5462 31.3972C60.5871 31.3236 60.5641 31.267 60.5462 31.0909C60.5335 30.963 60.5324 30.8606 60.5335 30.782C60.4983 30.7773 60.4718 30.7669 60.4604 30.7476C60.4316 30.6983 60.4961 30.5966 60.5218 30.6006C60.5408 30.6042 60.5346 30.6661 60.5335 30.782C60.7486 30.8103 61.3318 30.5946 61.3183 30.4903C61.309 30.4185 61.0241 30.4649 60.6199 30.2576C60.456 30.1737 60.3623 30.094 60.3257 30.0615C60.1675 29.9207 60.1117 29.7991 60.0316 29.6817C59.8842 29.4661 59.8243 29.5152 59.37 29.1302C59.1054 28.9059 59.1872 28.9414 58.7817 28.5787C58.6647 28.4742 58.5406 28.3661 58.4016 28.1868C58.3066 28.0635 58.2589 28.0017 58.2305 27.9294C58.0952 27.5881 58.3318 27.2902 58.2058 27.1818C58.1365 27.1222 58.0617 27.2099 57.8994 27.1696C57.6787 27.1148 57.4812 26.8698 57.495 26.6549C57.5018 26.5471 57.5548 26.5514 57.7033 26.2749C57.8461 26.0088 57.8214 25.959 57.9241 25.8583C58.0059 25.7778 58.1009 25.7393 58.2914 25.6624C58.5179 25.5709 58.5539 25.5944 58.6958 25.5154C58.8213 25.4452 58.7868 25.4303 58.99 25.2824C59.243 25.0982 59.2975 25.1207 59.4066 24.9882C59.4629 24.9202 59.4863 24.8679 59.5659 24.817C59.6569 24.7579 59.7479 24.7482 59.7989 24.7433C60.3483 24.6904 60.8089 24.7511 60.8389 24.7552C60.84 24.7554 60.841 24.7555 60.8421 24.7557C61.0073 24.7791 61.0898 24.7908 61.1711 24.817C61.3167 24.8633 61.6484 24.9692 61.7595 25.2333C61.8383 25.4213 61.7262 25.4999 61.8207 25.6871C61.8917 25.8271 62.0347 25.9398 62.1883 25.981C62.4353 26.0468 62.5592 25.8864 62.703 25.9688C62.8764 26.0677 62.9264 26.4312 62.801 26.5324C62.6618 26.6452 62.3056 26.4326 62.0412 26.2749C61.5927 26.0072 61.4355 25.7723 61.2326 25.8342C61.1578 25.8567 61.1734 25.89 60.9873 26.0668C60.7218 26.3196 60.6226 26.3155 60.485 26.4835C60.4349 26.5444 60.2553 26.7636 60.2767 26.9856C60.3032 27.2631 60.621 27.3202 61.208 27.7455C61.8137 28.1843 62.1766 28.4471 62.2498 28.8482C62.2663 28.9406 62.2839 29.1276 62.4209 29.3017C62.535 29.4464 62.7181 29.5652 62.7766 29.5224C62.8081 29.4992 62.7881 29.439 62.7766 29.3386C62.7566 29.163 62.7596 28.8301 62.8869 28.7627C63.0099 28.6971 63.2336 28.8886 63.3157 28.9588C63.5484 29.1576 63.5056 29.2749 63.7076 29.4C63.8789 29.5054 63.9707 29.4594 64.0755 29.5835C64.1641 29.6891 64.2113 29.8556 64.149 29.9269C64.1108 29.9708 64.0404 29.9662 63.9897 29.9635C63.5904 29.9418 63.361 29.929 63.1809 30.0003C63.1594 30.009 62.9793 30.0833 62.8745 30.2701C62.7829 30.4334 62.752 30.6778 62.85 30.7476C62.9324 30.8065 63.0294 30.6867 63.2667 30.6867C63.443 30.6865 63.6681 30.7526 63.6955 30.8702C63.7126 30.9427 63.6524 31.0253 63.5606 31.1521C63.475 31.2707 63.4327 31.287 63.4381 31.3239C63.4541 31.4256 63.7892 31.3482 64.0265 31.4953C64.3285 31.6827 64.1682 32.0471 64.4553 32.7205C64.6704 33.2246 64.905 33.3598 64.8232 33.554ZM53.7002 29.3101C53.4716 29.5059 52.6709 29.8654 52.442 29.7021C52.2133 29.5387 51.5272 29.9635 51.4456 29.8982C51.3638 29.8326 50.4814 29.8492 50.4326 29.6205C50.3836 29.3917 49.7789 29.5059 49.7627 29.2936C49.7461 29.0812 48.8477 29.3427 48.7823 28.9834C48.7171 28.6237 47.1974 28.9503 46.5763 29.4082C45.9557 29.8654 45.0406 29.8492 44.665 29.7183C44.2893 29.5877 43.1291 28.722 43.3089 28.6074C43.4885 28.4931 43.3089 28.0028 43.5703 27.9213C43.8314 27.8395 43.9298 27.5615 43.8805 27.382C43.8314 27.2021 43.8805 27.1368 44.1256 27.0063C44.3707 26.8754 44.1256 26.6795 44.2237 26.467C44.3217 26.2546 44.5341 26.5487 44.665 26.4017C44.7956 26.2546 44.779 26.3198 44.9589 26.2383C45.1387 26.1565 44.9589 25.9604 44.9589 25.6662C44.9589 25.372 45.0364 25.1367 45.3346 25.3233C45.7268 25.5684 45.7105 25.1437 46.0701 25.0128C46.4295 24.8822 46.3314 25.0128 46.5113 25.209C46.6908 25.4051 46.7562 25.4379 47.1812 25.4213C47.6059 25.4051 48.5534 25.3886 48.913 25.1925C49.2724 24.9966 49.1908 25.0294 49.8442 24.8329C50.4979 24.6371 50.4814 24.7352 51.0206 24.5553C51.56 24.3757 51.9519 24.5881 51.7396 24.6859C51.5272 24.7842 50.7103 25.1271 50.8901 25.3233C51.0697 25.5191 50.9064 25.3886 50.6777 25.5684C50.4488 25.748 50.2855 26.0259 49.2234 26.0094C48.1615 25.9932 48.8642 25.8951 48.0469 25.6337C47.23 25.372 47.2628 25.6989 47.2464 26.0912C47.23 26.4835 47.4098 27.0225 48.0962 26.8101C48.7823 26.5978 48.6027 26.7283 48.7986 26.3689C48.9947 26.0094 49.3867 26.467 50.0241 26.3198C50.6612 26.173 50.1222 26.5487 51.1187 26.9079C52.1153 27.2676 51.6906 27.2839 52.4261 27.8723C53.1612 28.4604 53.1121 28.0191 53.7002 28.4113C54.2886 28.8033 53.9291 29.114 53.7002 29.3101ZM46.2824 79.2745C46.2244 79.1751 46.1664 79.0477 46.1151 78.9226C45.9857 78.6075 45.8533 78.2927 45.6826 77.9979C45.4948 77.6737 45.3465 77.3281 45.2408 76.9685L45.155 76.6765L44.9718 75.8295C44.9633 75.7901 44.964 75.7494 44.9709 75.7097C44.9738 75.6928 44.9771 75.6725 44.9803 75.649C45.0141 75.4044 45.3322 75.287 45.3999 75.5245C45.4982 75.8679 45.4492 76.4804 45.4492 76.9461C45.4492 77.4117 45.3999 77.5098 46.0373 77.6569C46.6747 77.804 46.2824 77.853 46.4785 78.4655C46.6747 79.0782 46.7727 78.8087 46.8705 79.7646C46.9685 80.7206 46.4539 79.5684 46.2824 79.2745ZM47.4353 71.8135C47.5161 71.7009 47.6103 71.5987 47.7158 71.509L47.7669 71.4655C48.0525 71.2227 48.3369 71.0767 48.7076 71.1323C48.971 71.1718 49.2313 71.4116 49.4521 71.5606C49.5793 71.6464 49.7522 71.716 49.9751 71.7094C50.5307 71.6931 49.5176 71.9545 49.4032 72.6406C49.2889 73.3271 49.2396 72.7715 49.011 73.0167C48.7823 73.2615 48.9619 73.2452 49.06 73.4576C49.1578 73.6701 49.06 73.6866 48.9295 73.9154C48.7986 74.1438 48.7171 74.0132 48.0962 73.9807C47.5168 73.9501 47.5915 74.1612 47.6043 74.1896C47.6043 74.1896 47.6043 74.1896 47.6043 74.1896L47.2523 73.4336C47.1941 73.3086 47.1527 73.1764 47.1292 73.0405C47.0578 72.6279 47.1551 72.2039 47.3993 71.8637L47.4353 71.8135ZM50.5607 82.8773C50.4137 83.2203 50.0268 82.8282 50.37 83.3674C50.7132 83.9064 50.9364 83.833 50.9364 84.1759C50.9364 84.5191 50.8153 85.2789 50.4721 84.5928C50.1286 83.9064 50.444 84.3967 50.1395 83.5144C49.8353 82.6319 49.8114 83.3181 49.8114 82.2399C49.8114 81.1615 49.8358 81.382 49.6643 81.0147C49.6592 81.0037 49.8724 80.7114 49.8836 80.7162C50.1072 80.8139 50.212 80.9815 50.2288 81.0104C50.2305 81.0133 50.2313 81.0165 50.2313 81.0197V81.6272C50.2313 81.9387 50.3957 82.2217 50.5294 82.5031C50.5861 82.6222 50.6133 82.7545 50.5607 82.8773ZM108.249 47.1197C108.777 46.5267 108.132 45.6021 108.107 44.8081C108.104 44.7127 108.104 44.6212 108.109 44.5377C108.142 43.9824 108.566 42.806 107.749 40.8126C106.933 38.8191 106.45 38.2473 106.352 37.4631C106.255 36.6789 105.985 37.0709 105.127 35.5758C104.269 34.0808 104.612 34.0808 104.711 33.5253C104.808 32.9698 104.514 33.2967 104.22 33.0352C103.926 32.7739 103.894 32.8067 103.894 32.9372C103.894 33.068 103.697 33.2314 103.599 33.1661C103.562 33.1413 103.497 33.0282 103.431 32.8969C103.272 32.5828 103.086 32.2818 102.848 32.0222C102.488 31.6302 102.325 31.728 102.521 31.4013C102.717 31.0746 102.554 31.2054 102.521 30.8785C102.488 30.5519 102.325 30.2249 102.325 29.931C102.325 29.6368 102.684 30.3882 102.88 30.6499C103.076 30.9113 103.142 31.1399 103.469 31.6627C103.528 31.7572 103.464 31.3026 103.415 30.9903C103.396 30.8681 103.516 30.7696 103.632 30.8129C103.894 30.9113 103.861 31.4338 104.122 31.8263C104.384 32.2183 104.416 32.4144 104.678 32.6102C104.939 32.8067 104.841 32.643 104.841 32.4471C104.841 32.2511 104.841 31.9894 104.58 31.5322C104.318 31.0746 104.253 31.0091 103.795 29.8982C103.338 28.787 103.73 28.8526 102.488 26.7936C101.247 24.7352 99.2859 22.0228 97.9788 20.7808C96.6716 19.5391 96.7696 19.7355 96.0834 19.0491C95.3974 18.3627 94.09 17.2193 93.2405 16.3367C92.3908 15.4545 92.4561 15.5853 92.8811 15.7159C93.3059 15.8467 94.2862 16.0101 92.2928 14.6378C90.2994 13.2652 86.4639 10.2468 86.3537 10.0629C86.2434 9.87893 85.998 10.0504 85.692 9.80548C85.3856 9.56011 84.7482 9.32746 84.2338 9.22963C83.7188 9.13133 82.8734 8.66592 82.8487 8.62905C82.8244 8.59223 82.126 8.51879 80.6554 8.60442C79.1848 8.69006 80.9739 8.80056 81.4152 8.93543C81.8562 9.07008 81.5255 9.24182 81.1089 9.25402C80.6923 9.26615 80.3244 9.02107 79.9693 8.92324C79.7526 8.86346 79.2854 8.77631 78.9536 8.71738C78.7077 8.67371 78.465 8.61456 78.2274 8.5379C77.8789 8.42551 77.3608 8.25979 77.0773 8.17565C76.6239 8.04077 76.6239 8.13878 76.44 8.18778C76.2563 8.23708 76.538 8.35952 76.44 8.3964C76.3419 8.43267 76.0845 8.37178 75.7906 8.35953C75.4964 8.3471 75.8638 8.18778 75.7906 8.16316C75.717 8.13878 74.7242 8.15091 74.0012 8.11415C73.2782 8.07752 73.3888 7.96732 73.0209 7.70994C72.6535 7.45261 72.7023 7.85677 72.8494 8.0529C72.9965 8.24927 72.9475 8.31023 72.2613 8.32272C71.5749 8.33491 71.9915 8.26117 72.0899 8.18778C72.1876 8.11416 72.2613 8.04077 72.3472 7.69751C72.4328 7.35461 72.1386 7.29341 72.053 7.25624C71.9674 7.21996 71.8325 7.14628 71.4037 7.09722C70.9746 7.04821 70.4722 7.01135 69.9818 7.01135C69.4918 7.01135 68.8179 6.65625 68.2786 6.63157C67.7395 6.60695 68.1315 6.74182 68.1315 6.7787C68.1315 6.81557 68.107 6.87647 67.2614 7.19528C66.416 7.51387 66.9307 7.15847 66.5265 7.19528C66.4356 7.20355 66.3306 7.22045 66.2223 7.24168C65.8204 7.32051 65.6548 7.79483 65.9993 8.01633C66.3426 8.23708 65.8157 8.10214 65.35 8.10214C64.8841 8.10214 64.9578 8.11416 64.3819 8.29129C63.806 8.46842 65.0681 8.44516 65.7298 8.88637C66.3916 9.32746 65.2764 8.99639 64.6271 8.65349C64.2069 8.43144 64.0226 8.46581 63.9448 8.51777C63.9012 8.5469 63.8631 8.59058 63.814 8.60915C63.6727 8.6627 63.6645 8.85959 63.8009 8.9247L64.2046 9.11737C64.2389 9.13377 64.2634 9.16556 64.2705 9.20298C64.2875 9.29216 64.2028 9.36699 64.1164 9.33921L63.6488 9.1889C63.631 9.18319 63.6139 9.17638 63.5971 9.1683C63.5141 9.12841 63.2281 8.99068 62.7888 8.77617C62.4277 8.59984 62.7396 8.88367 62.9719 9.07992C63.1014 9.1893 63.2238 9.3069 63.3334 9.43614L63.4707 9.59789C63.5871 9.73512 63.7277 9.84981 63.8855 9.93626C64.0672 10.0358 64.2679 10.0958 64.4745 10.1123L64.5673 10.1198C64.7048 10.1308 64.8406 10.1566 64.9725 10.197L65.7623 10.4384C65.7974 10.4492 65.8293 10.4683 65.8552 10.4943C66.0224 10.6615 65.8543 10.9277 65.6365 10.8356C65.5332 10.7919 65.4411 10.7494 65.3745 10.7122C65.0681 10.5407 64.9578 10.467 64.7996 10.4795C64.6417 10.4916 64.5778 10.5528 64.5902 10.7122C64.6024 10.8714 64.7741 11.0185 64.7986 11.2393C64.8133 11.3711 64.6875 11.4548 64.584 11.5007C64.5011 11.5375 64.4096 11.5463 64.3189 11.548L64.2645 11.549C63.97 11.5545 63.4713 11.4109 63.6343 11.1656C63.6375 11.1607 63.6411 11.1559 63.645 11.1512C63.8534 10.8962 64.1408 10.7259 64.0633 10.4058C63.9653 10.0014 63.9531 10.3078 63.2911 9.86644C63.2079 9.81096 63.1349 9.76092 63.071 9.71581C62.7494 9.48898 62.4915 9.16263 62.253 8.84962C61.889 8.37178 61.9066 8.75155 61.1711 8.42054C60.436 8.09001 60.828 8.4573 60.7667 8.81298C60.7055 9.16808 60.4482 9.18033 60.7177 9.49915C60.9872 9.81773 60.7667 9.68309 60.9016 9.79329C61.0365 9.90331 61.49 10.0014 62.0169 10.1731C62.5438 10.3445 62.0412 10.4302 61.931 10.467C61.8335 10.4996 60.9215 10.1968 60.7118 10.1263C60.6829 10.1166 60.6551 10.1068 60.6262 10.0968C60.4584 10.0386 59.8258 9.82643 59.2476 9.73185C58.5734 9.6216 59.0759 9.69498 58.4263 9.64622C57.777 9.59698 58.1321 9.58473 57.6543 9.52353C57.1764 9.46228 57.7399 9.74399 58.0587 9.82992C58.2728 9.88758 58.5587 9.93966 58.7233 9.96762C58.8029 9.98115 58.8669 10.0409 58.8849 10.1196C58.9038 10.2026 58.8673 10.2883 58.7943 10.3321L58.4876 10.5163C58.0587 10.7734 58.2058 10.5163 58.0465 10.1484C58.0354 10.1229 58.0227 10.1024 58.0086 10.0863C57.6762 9.70816 57.089 10.4774 56.5881 10.5285C55.8651 10.6019 56.3676 10.5038 56.2571 10.1853C56.1468 9.86644 56.1715 10.1484 56.0244 10.2343C55.8773 10.3202 55.6693 10.3202 55.2523 10.3445C54.8358 10.3692 55.1543 10.3568 54.3947 10.6875C54.2375 10.756 54.1349 10.8098 54.0709 10.8521C53.9365 10.9409 54.0775 11.1615 53.9779 11.2881C53.8432 11.4595 53.6718 11.3495 52.8751 11.1409C52.7262 11.102 52.6385 11.0709 52.5944 11.0458C52.2858 10.8708 53.2609 10.8712 53.3901 10.5407C53.4575 10.367 52.9089 10.4061 52.6731 10.4305C52.6039 10.4377 52.5374 10.4594 52.476 10.4922C52.2252 10.6263 52.1096 10.921 52.188 11.1943C52.2135 11.2833 52.2363 11.3691 52.2502 11.4351C52.2993 11.6681 52.2993 11.803 51.6499 11.4595C51.0004 11.1166 51.1596 11.5823 51.0615 11.6925C50.9635 11.803 50.6328 11.9133 50.5347 12.0725C50.3919 12.3046 50.4491 12.6779 50.1778 12.6521C50.1659 12.651 50.1541 12.6497 50.1424 12.6484C49.8236 12.6116 49.8117 12.3789 49.3336 12.2071C48.8557 12.0357 49.0151 12.293 49.1131 12.4523C49.2112 12.6116 49.5541 12.734 49.7134 12.8443C49.8729 12.9548 49.6403 12.9792 49.2234 12.9792C48.8067 12.9792 48.8926 12.8933 48.66 12.8078C48.4267 12.7218 48.3289 12.6484 48.2796 12.5135C48.2309 12.3789 48.0962 12.3664 48.0962 12.1093C48.0962 11.8518 48.2552 12.0235 48.0226 11.7293C47.7899 11.4351 47.7406 11.5698 47.3608 11.4595C46.9807 11.3495 47.2261 11.3127 47.3486 11.1534C47.471 10.9939 48.0594 11.5335 48.4638 11.6438C48.8679 11.7537 49.0397 11.7415 49.3461 11.7415C49.6525 11.7415 49.7749 11.7415 50.1793 11.7047C50.5837 11.6681 50.5348 11.6438 50.792 11.4105C51.0494 11.1778 50.9267 11.2024 50.9513 11.1409C51.0704 10.8426 50.4951 10.7059 50.1946 10.5923C50.0081 10.5218 49.7965 10.448 49.6278 10.4058C49.2358 10.3078 48.8557 10.0504 48.2796 10.0135C47.7038 9.97676 47.8386 9.92799 47.471 9.89112C47.1034 9.85425 47.2383 9.84205 46.9931 9.71966C46.7481 9.59698 47.0054 9.53596 46.8337 9.44985C46.6624 9.36421 46.1107 9.60941 46.2212 9.32746C46.3314 9.04569 46.0004 9.40085 45.878 9.40085C45.7555 9.40085 45.5962 9.22963 45.1797 9.19276C44.763 9.15595 44.9832 9.24182 44.6893 9.27834C44.3951 9.31521 44.1747 9.36421 43.9664 9.44985C43.758 9.53596 43.6478 9.58473 43.4148 9.56011C43.1821 9.53596 43.1821 9.92799 42.9002 9.89112C42.6185 9.85425 42.8511 9.75618 42.6553 9.6706C42.4592 9.58473 42.4345 9.65847 42.3855 9.6706C42.3368 9.68309 42.1896 9.97676 41.9566 10.0135C41.7237 10.0504 41.8954 9.98918 41.6628 10.0135C41.4298 10.0382 41.6013 10.1238 41.4788 10.2343C41.3564 10.3445 41.2459 10.2343 41.1846 10.1853C41.1234 10.1363 40.9029 10.1484 40.8168 10.1853C40.7312 10.2221 40.5107 10.2468 40.3392 10.2956C40.1675 10.3445 40.1185 10.3936 39.3711 10.6875C38.6237 10.9817 39.4446 10.7858 39.6896 10.7122C39.9822 10.6246 40.2912 10.5938 40.5873 10.519C40.7492 10.4782 40.9066 10.4426 40.9639 10.4426C41.0988 10.4426 40.8661 10.5897 40.6334 10.6756C40.4002 10.7612 40.5597 10.6997 40.3024 10.8468C40.0451 10.9939 40.3024 10.8468 39.9226 11.0307C39.5426 11.2147 39.3099 11.3864 38.783 11.8395C38.2559 12.293 38.3418 12.0603 38.2194 12.195C38.0966 12.3299 37.5698 12.4523 36.9327 12.8811C36.2953 13.3099 37.1038 12.8567 37.398 12.8567C37.6922 12.8567 36.7487 13.0897 36.8465 13.1874C36.9448 13.2855 36.6139 13.3345 36.5525 13.0773C36.4913 12.8202 36.3689 13.1628 36.2462 13.0282C36.1235 12.8933 35.952 13.1628 35.952 13.2855C35.952 13.408 35.7194 13.249 35.4989 13.408C35.2781 13.5672 35.2293 13.4695 35.1557 13.6656C35.0822 13.8615 34.7881 13.5797 34.7881 13.8127C34.7881 14.1667 34.1521 14.0546 33.852 14.2423C33.8317 14.255 33.8127 14.267 33.7956 14.278C33.7791 14.2886 33.7644 14.3014 33.7513 14.3158C33.561 14.5253 33.5631 14.8914 33.2931 14.9766C33.0601 15.0503 33.2562 15.0626 33.3667 15.1481C33.4767 15.234 33.4524 15.2464 33.4399 15.3321C33.4277 15.4177 33.2684 15.4177 33.0357 15.4423C32.8031 15.467 32.9499 15.6138 33.1829 15.6631C33.4155 15.7119 33.3174 15.7119 33.2072 15.8711C33.0967 16.0303 33.0479 15.9079 32.8765 16.1165C32.6673 16.3699 33.3023 16.5247 33.6254 16.5845C33.7093 16.6 33.8052 16.6111 33.9139 16.6144C34.4368 16.631 34.3877 16.3042 34.5838 16.0919C34.7797 15.8795 34.9105 16.0101 35.1394 15.9448C35.368 15.8795 35.319 15.7652 35.4661 15.5853C35.6132 15.4055 35.5641 15.7324 35.6785 15.8957C35.793 16.0591 35.7275 16.0101 35.6295 16.2062C35.5314 16.402 35.5314 16.4513 35.5314 16.631C35.5314 16.8108 35.5969 16.9086 35.646 17.2193C35.6947 17.5294 35.7275 17.4969 35.7113 17.6603C35.6947 17.8236 35.5804 17.7418 35.4005 17.7583C35.2209 17.7748 35.4005 17.9872 35.4005 18.3957C35.4005 18.8039 35.6132 18.3957 35.9889 18.3792C36.3646 18.3627 36.185 18.3792 36.3321 18.2321C36.4791 18.085 36.3321 18.1446 36.3974 17.8832C36.4855 17.5299 37.0666 17.91 37.4306 17.91H37.6226C38.0151 17.91 37.9579 17.4338 37.9498 17.2377C37.9414 17.0418 38.1375 16.9387 38.2109 16.6769C38.2846 16.4156 38.2927 16.5721 38.4642 16.3436C38.6359 16.1149 38.546 16.2913 38.6684 16.2585C38.7909 16.226 39.0157 15.983 39.1135 15.922C39.2118 15.8606 39.2118 15.8597 39.4201 15.8232C39.4612 15.8159 39.4861 15.8029 39.4996 15.7867C39.5733 15.6979 39.4979 15.5343 39.5916 15.467C39.6772 15.4057 39.7141 15.3567 39.7633 15.2343C39.8113 15.1135 39.646 14.9927 39.6408 14.9889C39.6406 14.9888 39.6405 14.9888 39.6404 14.9886L39.5845 14.9488C39.4101 14.8242 39.3259 14.6083 39.3701 14.3985C39.3868 14.3192 39.4209 14.2447 39.4713 14.1812C39.5838 14.0396 39.788 13.7897 39.8489 13.7636C39.9348 13.7267 40.0082 13.6778 40.4127 13.3836C40.8168 13.0897 40.8049 13.1874 41.0744 13.114C41.1027 13.1063 41.1317 13.0974 41.1609 13.0875C41.516 12.9681 41.9015 12.8847 42.2018 12.6606C42.2999 12.5869 42.1528 12.4276 42.1282 12.3174C42.1035 12.2071 42.2999 12.1828 42.3855 12.1213C42.4713 12.0603 42.5325 12.1568 42.7041 11.973C42.8875 11.7766 43.1468 12.241 43.4156 12.241H43.6478L43.6875 12.2443C43.8472 12.2579 44.0479 12.426 43.9173 12.519C43.449 12.8543 42.8732 13.0049 42.3618 13.2701C42.2619 13.3219 42.1645 13.3627 42.0794 13.382C41.6994 13.4675 41.7238 13.5545 41.5522 13.7135C41.3172 13.9319 41.4478 14.3645 41.2968 14.6476C41.2879 14.6641 41.2791 14.6809 41.2703 14.6976C41.1356 14.955 41.4707 15.0885 41.5848 15.1457C41.6482 15.1772 41.897 15.2061 42.1063 15.2257C42.3139 15.245 42.5225 15.2447 42.7308 15.2372C42.8393 15.2332 42.9716 15.2291 43.1206 15.2261C43.5373 15.218 43.3089 15.1931 43.7174 15.0626C43.7897 15.0394 43.8702 15.0173 43.9537 14.9965C44.503 14.86 45.1039 14.8567 45.5963 15.136C45.8983 15.3074 45.1469 15.3321 45.0406 15.3321C45.0233 15.3321 44.998 15.3375 44.968 15.3467C44.6694 15.4375 44.3723 15.5467 44.0603 15.5363C43.8153 15.5282 43.6844 15.4626 43.2924 15.4626C42.9002 15.4626 42.8511 15.5282 42.5898 15.6016C42.3286 15.6753 42.2875 15.7487 42.1484 15.9283C42.0098 16.1081 42.2752 16.3614 42.4713 16.4838C42.6675 16.6065 42.4713 16.5819 42.4099 16.6922C42.349 16.8027 42.3611 16.8514 42.0669 17.1456C41.773 17.4398 41.9323 17.1209 41.7362 16.9863C41.5401 16.8514 41.4052 16.6922 41.111 16.6922C40.8168 16.6922 40.5472 17.2803 40.4739 17.3296C40.3144 17.4356 40.3079 17.6767 40.2254 17.8495C40.1804 17.9438 40.1428 18.052 40.1428 18.1503C40.1428 18.1618 40.1429 18.173 40.143 18.1837C40.1451 18.3727 40.1149 18.6075 39.9264 18.6203C39.9187 18.6208 39.9109 18.6214 39.9032 18.6221C39.6837 18.6413 39.4734 18.7863 39.4201 19.0001C39.4039 19.0654 39.3383 19.0166 39.1424 19.0328C38.9461 19.0491 38.6847 19.0001 38.6359 18.9676C38.5866 18.9348 38.7174 18.6734 38.309 18.6243C37.9005 18.5753 37.6556 18.9676 37.1653 19.0654C36.675 19.1636 35.952 19.4007 35.8664 19.4007C35.7806 19.4007 35.7562 19.2902 35.6336 19.0819C35.511 18.8736 35.4252 18.9226 35.3884 18.9348C35.3518 18.947 35.2412 18.9348 34.9595 19.0082C34.6776 19.0819 34.8614 19.045 34.4449 19.2411C34.0282 19.437 34.2855 19.2777 34.1753 19.2777C34.0651 19.2777 34.0898 19.2777 33.7834 19.1306C33.4767 18.9835 33.6972 19.0697 33.6238 18.9594C33.5184 18.8014 33.3329 18.7178 33.143 18.7214C33.1061 18.7221 33.0727 18.7237 33.0479 18.7265C32.9377 18.7386 32.9988 18.8124 32.9621 18.9835C32.9255 19.1553 32.8272 19.1553 32.5945 19.3267C32.3618 19.4985 32.3618 19.4248 31.9205 19.5597C31.8809 19.5718 31.8456 19.5835 31.8143 19.5948C31.8092 19.5966 31.2762 19.6591 31.271 19.6578C31.0382 19.5963 31.0261 19.6702 30.8053 19.7189C30.5848 19.768 30.4377 19.8536 30.1192 20.05C29.8006 20.2461 30.0701 20.1603 29.9109 20.4542C29.7515 20.7484 29.6167 20.6503 29.249 20.8586C28.8814 21.0668 28.4648 21.4101 28.1829 21.4466C27.9012 21.4838 27.9133 21.5082 27.6194 21.5328C27.5615 21.5375 27.5126 21.5599 27.4714 21.5927C27.2142 21.7978 27.1993 22.204 26.9574 22.427C26.7985 22.5741 26.6391 22.4028 26.5164 22.427C26.3937 22.4516 26.2591 22.5131 26.21 22.6232C26.161 22.7334 26.21 22.7334 26.0876 22.9907C25.9649 23.2483 26.0139 22.9788 25.8668 22.9541C25.7197 22.9297 25.5361 22.942 25.4995 22.8436C25.4627 22.7458 25.5361 22.7458 25.5483 22.6232C25.5605 22.5007 25.4258 22.5987 25.2054 22.6846C24.9846 22.7702 25.1194 22.9907 25.0583 23.2391C24.9968 23.4875 24.9439 23.4934 24.5027 23.5094C24.0614 23.526 24.2903 23.4607 24.2903 23.3299C24.2903 23.1992 24.176 23.2483 24.0451 23.2483C23.9143 23.2483 23.5551 23.3954 23.4081 23.4279C23.1164 23.4928 23.2528 23.9758 23.5507 23.9983C23.5632 23.9992 23.5756 23.9997 23.5877 23.9997C23.8165 23.9997 23.8 24.2615 23.8328 24.3264C23.9349 24.5322 23.8036 24.7838 23.8266 25.0124C23.8301 25.0474 23.8371 25.0811 23.849 25.1109C23.9143 25.2743 24.1923 25.4051 24.0124 25.5521C23.8327 25.6989 23.9796 25.7155 23.9796 25.9932C23.9796 26.2711 23.849 25.748 23.7022 25.8951C23.5551 26.0421 23.6857 26.0587 23.6205 26.4179C23.5551 26.7774 23.5551 26.6964 23.5058 27.0721C23.4795 27.2752 23.2622 27.5262 23.068 27.7139C22.8738 27.9017 22.6079 27.9877 22.3378 27.9877C22.2398 27.9877 21.9699 27.836 21.5533 27.787C21.1367 27.7379 21.5533 27.7173 20.6957 27.5949C20.2841 27.5359 20.0022 27.5325 19.8204 27.545C19.6337 27.5579 19.4658 27.644 19.3113 27.7495C19.0757 27.9105 18.87 28.1106 18.6901 28.3321C18.5647 28.4865 18.4205 28.6547 18.3184 28.7455C18.0976 28.9416 18.1467 29.2564 18.0243 29.6976C17.9019 30.139 17.8035 30.137 17.6564 30.5049C17.5095 30.8722 17.534 30.8223 16.8478 31.5576C16.1617 32.2927 16.8724 32.1944 16.4802 32.5866C16.088 32.9788 16.7008 33.2481 17.2157 33.2724C17.7301 33.2971 17.534 33.591 17.6077 34.0321C17.6811 34.4733 17.9506 34.2038 18.2448 34.0076C18.5389 33.8115 18.4655 33.8849 18.6126 33.8849C18.7595 33.8849 18.9065 34.0074 19.2007 34.081C19.4949 34.1545 19.6173 34.081 19.6907 33.8362C19.7642 33.5917 20.1849 33.8036 20.3677 33.6255C20.4205 33.5741 20.4618 33.5069 20.4753 33.4193C20.524 33.1007 20.5976 33.2478 20.6469 33.1741C20.6595 33.1552 20.7107 33.1348 20.7801 33.1148C21.1354 33.0122 21.5779 32.8825 21.5779 32.5127C21.5779 32.2185 21.7251 32.3409 22.0436 32.1448C22.3625 31.9489 22.0192 31.5324 22.0436 31.2869C22.0682 31.042 22.1663 31.2381 22.3625 31.1645C22.4865 31.118 22.4828 31.1102 22.4635 31.1107C22.4519 31.111 22.4476 31.1253 22.4561 31.1332C22.4587 31.1357 22.4622 31.1371 22.4658 31.1371H23.0239C23.2859 31.1371 23.332 30.9534 23.3141 30.773C23.2908 30.5376 23.2041 30.3008 23.2691 30.0734C23.3182 29.9016 23.5877 29.9447 23.6611 29.8959C23.7347 29.8469 23.8328 29.8317 24.1267 29.8317C24.1877 29.8317 24.2402 29.8225 24.2852 29.8078C24.4815 29.7436 24.5714 29.5265 24.6847 29.3538C24.7149 29.3078 24.7434 29.2658 24.7641 29.2383C24.7707 29.2295 24.7792 29.2207 24.7894 29.2119C24.9846 29.0426 25.1946 28.8889 25.3278 28.6675C25.4011 28.5445 25.3524 28.47 25.4011 28.1758C25.4502 27.8817 25.4258 28.0035 25.5726 27.9055C25.7197 27.8077 25.7197 27.8318 26.0139 27.6113C26.3081 27.3908 26.0139 27.6111 26.2834 27.5863C26.6085 27.557 26.8926 27.8328 27.2067 27.9214C27.2691 27.9391 27.3373 27.9582 27.4109 27.9787C27.8521 28.1014 27.705 28.1011 27.8768 27.9296C28.0483 27.7579 28.2809 27.6601 28.4034 27.513C28.5261 27.3659 28.5017 27.4761 28.7712 27.3044C29.0407 27.1329 28.8568 27.2678 28.9917 27.0964C29.1264 26.9246 29.0654 26.998 29.4698 26.9615C29.874 26.9246 29.8496 26.7532 29.9843 26.9246C30.1192 27.0964 30.2172 27.1573 30.4623 27.2066C30.7072 27.2556 30.4992 27.4271 30.4992 27.6232C30.4992 27.8193 30.5233 27.9174 30.6584 28.2725C30.7931 28.628 30.9158 28.6769 31.2222 28.8118C31.5283 28.9468 31.3933 28.9711 31.651 29.4243C31.9083 29.8778 31.9817 29.5836 32.423 29.6207C32.864 29.6576 32.6559 30.0617 32.9377 30.1351C33.2196 30.2088 33.146 30.2457 33.146 30.4293C33.146 30.6132 33.146 30.7356 33.5013 30.6991C33.8565 30.6622 33.869 31.3302 33.869 31.3974C33.869 31.4649 33.9729 31.8019 33.7587 31.9302C33.5442 32.0592 33.5257 32.0774 33.4464 32.2369C33.3667 32.3962 33.3174 32.3287 33.2868 32.439C33.2562 32.5495 33.3727 32.5982 33.4892 32.5736C33.6053 32.5495 33.6912 32.4024 33.9058 32.3228C34.1404 32.2356 34.2359 31.9499 34.4586 31.8358C34.4959 31.8167 34.5375 31.7971 34.5838 31.7773C34.768 31.6984 34.7264 31.4786 34.667 31.2872L34.6464 31.2209C34.6265 31.1566 34.597 31.0957 34.5579 31.0409C34.5031 30.964 34.418 30.847 34.3387 30.7478C34.2931 30.691 34.3011 30.6301 34.3309 30.5749C34.4132 30.4225 34.6119 30.396 34.7846 30.4101C35.0008 30.4277 35.1978 30.5354 35.3522 30.6878C35.3783 30.7135 35.4056 30.7394 35.4333 30.7643C35.5969 30.9115 35.6621 30.9602 35.7603 30.9602C35.9612 30.9602 35.9638 30.6779 35.839 30.5206C35.7542 30.4138 35.6263 30.2656 35.4333 30.0617C34.8614 29.4574 35.1722 29.8821 34.9105 29.735C34.827 29.688 34.7368 29.6377 34.6528 29.591C34.443 29.4744 34.2884 29.2699 34.3224 29.0324C34.3281 28.9923 34.3208 28.9668 34.3049 28.9519C34.1288 28.7877 33.8188 29.0747 33.6035 28.9671C33.4944 28.9126 33.3515 28.7673 33.3069 28.7204C33.2976 28.7106 33.2886 28.7007 33.2793 28.6908C33.2378 28.6467 33.105 28.5101 32.9171 28.3625C32.6885 28.1826 32.9171 28.2317 32.9171 28.1173C32.9171 28.003 32.9336 27.9702 32.9336 27.7416C32.9336 27.513 32.8191 27.5455 32.5576 27.3984C32.2962 27.2515 32.1329 27.0065 32.2391 26.7285C32.3455 26.4509 32.5089 26.4837 32.2391 26.1732C31.9696 25.8625 32.4923 26.026 33.0642 26.0588C33.6363 26.0914 33.0967 26.3691 33.2768 26.6141C33.4564 26.8593 33.4399 26.4344 33.7669 26.2712C34.0935 26.1076 33.9302 26.1732 33.9792 26.4343C34.0282 26.6957 34.061 26.7775 34.11 27.1698C34.1588 27.5617 34.3387 27.513 34.8452 27.6108C35.3518 27.7088 35.1394 27.8072 35.4005 28.0848C35.6621 28.3625 35.8255 28.281 36.0214 28.4767C36.2175 28.6729 36.185 28.6076 36.577 28.8528C36.9692 29.0976 36.7406 29.0814 36.8876 29.212C37.0348 29.3428 36.8711 29.4083 36.7406 29.5879C36.6098 29.7675 36.7894 29.7675 36.4464 29.9474C36.1032 30.127 36.2994 30.4377 36.3811 30.3231C36.4626 30.2088 36.7078 30.2413 36.577 30.4049C36.4464 30.5682 36.675 30.5847 36.8548 30.8297C37.0348 31.0748 36.8711 30.9602 37.051 31.1892C37.2306 31.418 37.1653 31.3852 37.2144 31.5486C37.2631 31.712 37.2797 31.712 37.4757 32.0061C37.6719 32.3003 37.7862 32.1695 37.884 32.1857C37.9823 32.2019 38.0966 32.1857 38.3417 32.1367C38.3436 32.1363 38.3454 32.1359 38.3473 32.1356C38.6618 32.0764 39.0435 32.1277 39.2893 32.3327C39.3353 32.3711 39.4208 32.5029 39.4987 32.6321C39.6101 32.8168 39.9102 33.0226 39.9102 32.8069C39.9102 32.5944 39.8612 32.6104 39.9264 32.4634C39.9919 32.3166 40.1553 32.3655 40.1391 32.2019C40.1271 32.0837 40.0379 31.9396 39.9898 31.8692C39.97 31.8403 39.9488 31.8124 39.9284 31.7839C39.8606 31.689 39.6941 31.4504 39.5669 31.2219C39.4039 30.9277 39.077 30.8624 38.9954 30.4865C38.9136 30.1107 39.3055 30.1923 39.2731 30.3069C39.2403 30.4212 39.4201 30.666 39.7469 30.5847C40.0735 30.503 39.9429 30.4212 39.8286 30.1923C39.7141 29.9637 40.0735 30.2413 40.2371 30.0452C40.4002 29.8494 40.4167 29.9799 40.6128 30.0292C40.8087 30.0783 40.8087 29.9312 40.9398 29.8512C41.2212 29.6785 41.5636 30.0361 41.8545 30.1923C42.0669 30.3069 42.0669 30.2906 42.263 30.2741C42.4591 30.2578 42.5898 30.2088 42.9657 29.9637C43.3414 29.7185 43.0635 29.9474 43.4885 29.9637C43.9133 29.9799 43.9133 29.9637 44.4035 29.9637C44.8936 29.9637 44.6812 30.1435 44.616 30.1763C44.5506 30.2088 44.5013 30.1597 44.2075 30.1763C43.9133 30.1923 44.1582 30.6078 44.1422 30.769C44.0932 31.2469 43.2919 31.1371 42.8114 31.1371H42.5735C42.0017 31.1371 42.263 30.7546 42.0997 30.8199C41.9361 30.8852 41.8708 30.7839 41.5931 31.0781C41.3153 31.3723 41.6422 31.1989 41.9689 31.2154C42.2956 31.2316 42.1815 31.2183 42.1649 31.382C42.1484 31.5453 42.1484 31.5226 42.2956 31.6531C42.4426 31.7837 42.3611 31.7561 42.3121 31.9194C42.3062 31.9389 42.2953 31.9553 42.2805 31.9691C42.0696 32.1649 41.4876 32.1093 41.6422 32.352C41.7565 32.5317 42.0345 32.3832 42.4757 32.4815C42.9164 32.5792 42.5816 33.0403 42.5447 33.2487C42.5082 33.4569 42.6307 33.5054 43.0597 33.5054C43.4885 33.5054 43.3783 33.5664 43.5254 33.775C43.6722 33.9833 43.709 33.7257 43.9664 33.8484C44.2237 33.971 43.9664 34.2159 44.2481 34.2159C44.53 34.2159 44.6528 34.2281 45.0571 34.2772C45.4614 34.3262 45.1919 34.1545 45.2409 33.8362C45.2899 33.5173 45.5716 33.5542 46.0619 33.824C46.5519 34.0935 46.6866 34.3262 46.8215 34.3631C46.9566 34.3999 47.4342 34.3508 47.5935 34.3508C47.7531 34.3508 48.2186 34.0198 48.6965 33.7747C49.1743 33.5298 48.9538 33.7747 49.3705 33.9095C49.7873 34.0442 49.5419 33.7625 49.8117 33.6522C50.0812 33.542 49.8117 33.9586 49.836 34.2038C49.8605 34.4486 49.8117 34.3874 49.738 34.6079C49.6646 34.8287 49.6525 34.8774 49.8605 34.9021C50.069 34.9267 49.7259 35.2331 49.8605 35.5883C49.9954 35.9439 49.7748 35.8946 49.6768 36.1641C49.5788 36.4339 49.1867 37.0835 49.1743 37.5857C49.1621 38.0882 48.8433 38.7375 48.6475 38.9214C48.4513 39.1054 48.3411 39.007 47.6303 39.081C46.9198 39.1541 46.9442 39.0439 46.7605 39.0932C46.5763 39.142 46.4785 39.0563 46.4785 38.8237C46.4785 38.5907 46.1965 38.8968 45.8901 38.75C45.5838 38.6029 45.694 38.799 45.2899 38.799C44.8855 38.799 45.253 38.9829 45.0201 38.9829C44.7874 38.9829 44.9101 38.9829 44.4688 39.2771C44.0276 39.5707 44.2481 39.3012 43.3168 39.1788C42.3855 39.0563 42.9736 39.2278 42.1403 38.9339C41.3071 38.6397 41.5522 38.7375 40.719 38.7375C39.8858 38.7375 40.5966 38.7131 40.5232 38.2965C40.4495 37.8799 40.5232 38.2965 40.1553 38.1494C39.7878 38.0024 39.7141 38.1741 38.9545 38.1005C38.1947 38.027 38.8318 38.0024 38.783 37.8553C38.7337 37.7081 38.7093 37.6594 38.4396 37.5124C38.1701 37.3652 38.0966 37.5124 37.5085 37.5124C36.9204 37.5124 37.0429 37.6104 36.5036 37.8553C35.9643 38.1005 36.0135 38.4436 36.0626 38.7375C36.1113 39.0317 36.1603 39.2524 36.136 39.5707C36.1113 39.8896 35.3765 40.1837 34.5673 39.7672C33.7587 39.3505 33.685 39.1301 33.2684 39.1301C32.8518 39.1301 32.3618 38.6641 32.2391 38.3455C32.1166 38.027 31.8715 37.9043 31.8469 37.8065C31.8283 37.732 31.1626 37.6437 30.841 37.6052C30.7272 37.5916 30.6139 37.5758 30.501 37.5559L29.7854 37.4296C29.5424 37.3867 29.3028 37.3266 29.0715 37.2409C29.0135 37.2193 28.9497 37.1953 28.8815 37.1691C28.5629 37.0467 28.5139 36.924 28.1707 36.3112C27.8778 35.7884 28.817 35.4076 29.2581 35.002C29.2632 34.9973 29.2683 34.9926 29.2735 34.9879C29.8618 34.4486 29.1263 34.6695 28.9305 34.2528C28.7344 33.8362 29.1757 33.9586 29.5186 33.64C29.8618 33.3212 29.3471 33.395 29.0286 33.542C28.7098 33.6891 28.8325 33.6728 28.7098 33.354C28.6846 33.2885 28.6418 33.2627 28.5896 33.2631C28.1565 33.2664 27.7995 33.6563 27.3664 33.6563C27.2657 33.6563 27.1655 33.6455 27.0651 33.6372C26.8379 33.6184 26.383 33.6195 25.9162 33.8443C25.2541 34.1628 25.3524 33.8401 25.0583 33.6686C24.7641 33.4973 24.1513 33.8503 22.7544 33.8749C21.3575 33.8993 20.6469 34.9828 20.1402 35.1299C19.6336 35.277 19.4865 35.2182 19.3234 35.0221C18.9817 34.6124 18.0587 35.2038 17.9222 34.688C17.9105 34.6441 17.9034 34.5953 17.9019 34.541C17.8854 33.9692 17.281 34.6708 17.1339 35.4875C16.9868 36.3044 16.0228 36.6796 15.206 37.0735C14.3888 37.4673 13.7722 39.412 13.5883 40.2084C13.4043 41.0051 12.4118 41.9973 11.8728 42.071C11.3335 42.1444 10.9293 42.8184 10.7822 43.2962C10.6352 43.7742 10.4266 43.6762 10.1327 44.1663C9.83845 44.6565 9.43401 45.5875 9.22581 45.8208C9.01748 46.0535 9.0421 46.0042 8.98061 46.2618C8.91941 46.5191 8.76009 47.0829 8.31912 48.0385C7.87779 48.9945 7.96343 49.5214 8.0003 49.8402C8.03712 50.1584 8.24539 50.6734 7.97563 50.7221C7.70612 50.7712 7.93911 51.0776 8.02492 51.8377C8.11056 52.5972 7.98806 54.031 7.93911 54.2761C7.89005 54.521 7.86567 54.9501 7.85318 55.3052C7.84105 55.6609 7.20388 55.9673 7.46127 56.4448C7.71854 56.9229 7.91466 57.2415 7.74292 57.4988C7.59395 57.7224 7.70385 58.1865 7.73523 58.3043C7.7402 58.323 7.74554 58.3412 7.75065 58.3598C7.77107 58.4342 7.82829 58.6491 7.8778 58.8958C7.93911 59.2021 8.12268 59.3492 8.26981 59.2511C8.41694 59.1531 8.44156 59.3249 8.3925 59.5331C8.3435 59.7412 8.34351 59.8273 8.47833 60.0722C8.61303 60.3173 8.66203 60.1578 8.78472 60.293C8.90723 60.4276 8.79672 60.5256 9.04209 60.8076C9.28699 61.0894 9.27475 61.3342 9.50745 61.457C9.7404 61.5797 9.75294 61.9716 9.86071 62.229C9.96907 62.4863 9.91215 62.4128 9.87534 62.6945C9.83847 62.9766 9.87534 62.8664 9.94872 63.1481C10.0224 63.43 10.1202 63.4788 10.3409 63.6749C10.5614 63.871 10.2673 63.9813 10.6352 64.1409C11.0025 64.2999 10.8188 64.2511 10.9659 64.5328C11.1127 64.8148 11.1495 64.7533 11.5786 65.0719C12.0074 65.3907 12.0321 65.5499 12.3138 66.1505C12.5958 66.7508 13.3431 66.9222 13.6495 67.1062C13.9559 67.2901 13.8825 66.9713 13.9315 66.8733C14.0362 66.6627 14.2564 66.5033 14.4679 66.4006C14.4988 66.3856 14.5324 66.375 14.5686 66.371C14.7894 66.3464 14.9118 66.2852 15.2385 66.2033C15.5652 66.1218 15.7941 66.2361 16.2188 66.318C16.6436 66.3995 16.4802 66.3341 16.6926 66.3504C16.9049 66.3667 16.8231 66.3667 17.1826 66.5465C17.5423 66.7264 17.3462 66.5956 17.5586 66.5793C17.771 66.5628 17.7057 66.4485 17.8035 66.2689C17.9019 66.089 17.9836 66.2033 18.196 66.089C18.4084 65.9747 18.3756 65.9747 18.6532 65.7786C18.9312 65.5825 19.0618 65.6481 19.2741 65.6559C19.4865 65.6643 19.6173 65.6153 19.6501 65.4029C19.6826 65.1905 19.8256 65.2804 19.9115 65.1821C19.9971 65.0843 20.0586 65.1087 20.2666 65.1212C20.4925 65.1344 20.7145 65.0228 20.9408 65.0228C21.1123 65.0228 21.2594 65.1575 21.2594 64.9247C21.2594 64.6921 21.5046 64.8023 21.4187 64.9247C21.333 65.0474 21.627 64.9247 21.762 64.9247C21.8965 64.9247 21.909 64.9247 22.3744 65.3045C22.84 65.6846 22.6563 65.6971 22.7301 65.8073C22.8032 65.9176 22.8646 66.04 23.0239 65.9419C23.1832 65.8441 22.9749 66.1871 23.0239 66.3954C23.073 66.6038 23.0239 66.4935 23.122 66.6774C23.2201 66.861 23.3059 66.8733 23.502 67.0571C23.6979 67.241 23.7225 67.2164 23.8818 67.1552C24.0411 67.094 24.1391 67.1552 24.3106 67.1062C24.4823 67.0571 24.4209 66.9347 24.5926 67.1062C24.7641 67.2779 24.6823 66.955 24.7641 66.8733C24.8458 66.7917 24.8621 66.955 25.2216 66.9387C25.5808 66.9222 25.4011 66.7917 25.4011 66.6281C25.4011 66.465 25.5973 66.8898 25.8097 66.955C26.022 67.0203 26.0548 67.2002 26.0058 67.3473C25.9568 67.494 26.2835 67.5431 26.5776 67.5431C26.8718 67.5431 26.7412 67.8864 26.9371 68.0334C27.1332 68.1805 27.068 68.1314 27.0189 68.3763C26.9699 68.6217 27.068 69.079 26.9208 69.3241C26.7737 69.5693 26.9536 69.5203 26.8883 69.8635C26.8228 70.2064 26.9208 70.3208 26.9371 70.9091C26.9536 71.4972 26.6878 72.3754 26.5164 72.6206C26.3449 72.8656 26.7737 72.7551 26.9452 72.9268C27.1167 73.0984 27.1781 73.1108 27.4845 73.4416C27.7909 73.7723 27.7297 74.1768 27.9623 74.1889C28.1953 74.2011 28.379 74.2751 28.379 74.5321C28.379 74.7894 28.6119 74.7894 29.0286 75.2061C29.4452 75.6227 29.6414 75.8681 29.9355 76.2847C30.2297 76.7014 29.9598 76.6277 30.3521 77.0933C30.744 77.5589 31.0873 78.3432 31.4058 78.8335C31.7243 79.3235 32.0919 79.6177 31.7243 80.0099C31.3568 80.4019 31.7734 80.3041 32.3645 80.8431C32.9555 81.3822 33.2437 82.6567 32.9988 83.0733C32.7538 83.49 32.4105 83.6614 32.3712 84.3722C32.3317 85.083 32.4843 85.7938 32.3862 86.1858C32.3741 86.2342 32.3698 86.286 32.3716 86.3396C32.3924 86.9499 32.777 87.5012 33.0708 88.0365C33.1152 88.1173 33.1646 88.2032 33.2196 88.2938C33.6363 88.9799 35.2293 90.5239 35.8908 91.0876C36.5525 91.6514 36.3811 92.3619 36.8711 93.1217C37.3614 93.8818 37.9986 94.7394 38.5135 95.3766C39.0279 96.0138 39.1013 95.7931 39.4935 96.1851C39.8858 96.5776 41.3564 98.2195 41.5279 98.489C41.6994 98.7585 41.2337 98.7344 41.5279 99.0526C41.8218 99.3715 41.8954 99.592 42.1649 99.5186C42.4345 99.4452 42.3121 99.5676 42.6553 99.7418C42.9982 99.9162 42.9002 99.7881 43.1944 99.6164C43.4885 99.4452 43.4148 99.592 43.8314 99.7147C44.2481 99.8371 43.9298 99.5186 44.1747 99.3468C44.4199 99.1753 44.3951 99.3468 44.5913 99.3959C44.7874 99.4452 44.8364 99.4452 44.9832 99.5002C45.1304 99.5552 45.1059 99.4939 45.4982 99.4695C45.8901 99.4452 45.4983 99.4695 45.7433 99.4939C45.9882 99.5186 45.8902 99.4695 45.9395 99.3468C45.946 99.3304 45.957 99.3161 45.9712 99.3038C46.1338 99.1617 46.3862 99.1864 46.589 99.112C46.8704 99.0089 47.1247 98.8397 47.2982 98.5953C47.3558 98.5142 47.4186 98.421 47.4832 98.3177C47.7284 97.9255 47.6465 97.8193 48.055 97.7375C48.4638 97.6557 48.1287 97.5251 48.2433 97.3044C48.3573 97.0839 48.431 96.953 48.6027 96.5692C48.7739 96.1851 48.8067 96.1119 49.1253 96.0873C49.4438 96.0626 49.2358 95.9156 49.1895 95.7076C49.1431 95.499 49.2846 95.3766 49.53 94.9968C49.7748 94.6167 49.485 94.7475 49.5176 94.3063C49.5504 93.8653 49.5176 94.3062 49.2724 94.0448C49.1633 93.9285 49.1772 93.8381 49.2262 93.7736C49.3131 93.6592 49.4613 93.6082 49.5751 93.5207C49.7414 93.3928 49.9353 93.3059 50.1414 93.2667L50.6611 93.1681C50.7367 93.1537 50.8087 93.1249 50.8733 93.0831C50.9897 93.0079 51.0799 92.8949 51.1026 92.7581C51.1171 92.6703 51.1241 92.5738 51.1025 92.509C51.0124 92.2387 51.1017 91.9478 51.1317 91.6645C51.1338 91.6448 51.135 91.6265 51.135 91.6105C51.135 91.4633 51.1025 91.3981 50.9716 91.2184C50.8408 91.0383 50.9716 91.0876 51.0206 90.7772C51.0697 90.4668 50.6936 90.0255 50.5959 89.6826C50.4979 89.3394 50.596 89.519 50.8573 89.2901C51.1187 89.0617 50.9879 89.078 51.1674 88.8981C51.3473 88.7185 51.4944 88.588 51.8704 88.359C52.2461 88.1302 51.5272 88.4408 52.0419 87.9506C52.5565 87.4603 52.1643 87.7544 52.8505 87.3622C52.9253 87.3195 52.9943 87.2823 53.0578 87.25C53.4539 87.0482 53.9465 86.8765 54.2965 86.6024L54.5718 86.3897C54.7432 86.2573 54.8673 86.0731 54.9257 85.8645L54.9497 85.7789C54.9872 85.6448 55.0634 85.5247 55.1686 85.4335C55.3014 85.3185 55.3841 85.1567 55.3561 84.9833C55.3414 84.8929 55.317 84.7793 55.2765 84.6417C55.1541 84.2252 55.0557 83.9802 55.1048 82.3626C55.1535 80.7449 55.1042 81.9706 54.9569 81.3332C54.8098 80.6961 54.9557 81.3332 54.5142 80.9902C54.0729 80.647 54.5603 80.3529 54.5112 79.9116C54.489 79.7103 54.4143 79.4681 54.3396 79.2643C54.233 78.9731 54.0918 78.6766 54.1418 78.3706C54.1571 78.2769 54.1877 78.1817 54.2433 78.0983C54.5447 77.6462 53.3808 77.433 53.3808 76.8896V76.7257C53.3808 76.3559 53.5564 76.0081 53.8541 75.7885L54.0547 75.6406C54.1782 75.5495 54.2892 75.4421 54.3767 75.316C54.5257 75.1017 54.7478 74.7512 54.7799 74.5259C54.8289 74.183 54.9357 74.2873 55.3767 73.846C55.8176 73.4047 55.3983 73.8582 55.4962 73.5642C55.505 73.5377 55.5178 73.5137 55.5338 73.4921C55.808 73.1215 56.1635 73.3997 56.5025 73.0873C56.7997 72.8136 57.0989 72.1469 57.3484 71.8292C57.6961 71.3866 58.243 70.7309 58.7779 70.2555C59.6604 69.471 60.4465 69.1281 62.9953 66.1871C65.5445 63.2461 65.4635 60.4848 65.431 59.6678C65.3983 58.8508 64.7123 59.7006 64.4181 59.9295C64.124 60.1578 63.3729 59.962 62.5231 60.0925C61.8889 60.1904 61.2366 60.3243 60.9467 60.386C60.8431 60.408 60.7398 60.4276 60.635 60.4426C60.3198 60.4877 59.5986 60.5829 59.1249 60.5829C58.504 60.5829 58.1774 60.1253 58.1774 59.0144C58.1774 58.0739 56.9131 57.1803 56.5249 56.9281C56.4507 56.8799 56.376 56.8331 56.3024 56.7841L55.6109 56.3231C54.6702 55.696 53.9556 54.7719 53.6804 53.6753C53.6651 53.6144 53.65 53.5531 53.6352 53.4916C53.4063 52.5441 53.3738 52.5441 52.4912 51.8905C51.609 51.2371 51.6418 50.7467 51.6746 49.7012C51.7073 48.6556 51.307 48.4673 51.0128 48.2224C50.7186 47.9776 50.0572 47.3646 49.9834 47.046C49.91 46.7274 49.9343 46.7765 50.1302 46.4577C50.2226 46.3081 50.1198 46.0933 49.985 45.9077C49.7839 45.631 49.535 45.3895 49.3641 45.0931C49.2287 44.8585 49.066 44.5422 48.9297 44.1785C48.6355 43.3942 48.6602 43.664 48.1452 42.3895C47.6305 41.115 47.2139 41.0907 46.92 40.5269C46.6258 39.9632 48.6602 42.6591 48.6602 42.1687C48.6602 41.6788 48.9784 41.1884 49.2726 40.6741C49.5668 40.1591 49.1746 41.4336 49.0031 42.0217C48.8283 42.6207 49.7891 42.877 50.2343 43.3143L50.2719 43.3513C50.7036 43.7754 50.9772 44.3443 51.2416 44.8888C51.4058 45.227 51.6575 45.6457 52.0421 46.1147C53.0471 47.3402 52.7773 46.9726 53.2432 47.8549C53.7086 48.7371 53.292 48.6391 53.8557 49.5707C54.4194 50.5017 54.9097 50.4038 55.4734 51.3839C56.0368 52.3645 56.282 52.9526 56.8213 53.6634C57.3607 54.3742 57.1889 54.4967 57.1889 54.8642C57.1889 55.2318 57.2623 56.2368 57.4094 56.5797C57.5565 56.9229 58.0468 58.3199 58.9044 58.4423C59.7623 58.565 59.5662 57.7561 60.2526 57.6827C60.9387 57.6091 60.914 57.6827 61.5271 57.3396C62.1395 56.9966 62.0662 57.0206 62.4827 57.0453C62.8993 57.0699 62.9484 56.9229 63.7079 56.1387C64.4678 55.3545 64.1736 55.8201 65.6198 55.7218C66.5466 55.6592 66.653 54.3074 67.4697 53.8648C67.5183 53.8384 67.5688 53.8121 67.6213 53.7858C68.6669 53.263 68.1767 53.7858 68.7975 53.3611C69.4184 52.9361 68.8306 52.8383 69.2225 52.7402C69.6146 52.6419 69.8106 52.7402 70.1048 52.0868C70.399 51.4329 70.5623 51.7927 71.2485 51.7272C71.9346 51.6618 71.2157 51.4657 71.1179 50.6162C71.0199 49.7664 71.1179 49.9626 71.7387 50.224C72.3596 50.4852 71.8366 49.799 72.196 48.884C72.5555 47.9692 72.5885 47.6423 72.3921 47.3811C72.2896 47.2445 71.9999 47.0812 71.7465 46.9563C71.4629 46.8165 71.181 46.6728 70.9092 46.5114C70.6379 46.3504 70.2505 46.1304 69.8106 45.9105C68.9612 45.4854 69.5492 45.649 69.3206 45.2571C69.0917 44.8646 69.1242 44.8646 68.9937 44.146C68.8631 43.427 68.7648 44.3093 68.4056 44.6035C68.0461 44.8977 68.0133 44.9957 67.752 45.3877C67.4905 45.7797 67.752 45.7797 67.2947 46.1063C66.8369 46.4333 66.8369 46.3027 66.3468 46.2047C65.8566 46.1063 65.7913 46.368 65.3338 46.4005C64.8765 46.4333 64.9743 46.1063 64.7454 45.6163C64.6129 45.3318 64.1938 45.0253 63.8655 44.8182C63.6066 44.6548 63.4278 44.383 63.4106 44.0774C63.3972 43.8396 63.2862 43.6178 63.1038 43.4646L62.6705 43.1003C62.624 43.0613 62.5816 43.0234 62.5427 42.9868C62.1838 42.6487 61.7881 41.9781 61.3521 41.7477C61.327 41.7344 61.3015 41.7226 61.2754 41.7114C61.1431 41.6544 60.6773 41.4435 59.9256 40.9927C59.0271 40.4533 59.9256 40.6004 60.2195 40.3553C60.5137 40.1104 60.563 40.3225 61.2491 40.3881C61.9353 40.4533 61.6738 40.2734 61.7394 39.8324C61.8047 39.3912 62.0334 40.1756 62.785 40.0448C63.5367 39.9139 62.8828 40.1429 63.2426 40.6657C63.602 41.1884 64.1245 42.1687 65.0233 42.463C65.0517 42.4723 65.0791 42.4816 65.1055 42.491C65.6835 42.6954 66.1262 43.334 66.7226 43.4758C67.4087 43.6394 67.3272 43.5576 68.5034 43.329C69.6798 43.1003 69.3043 43.4433 69.9252 44.3421C70.5461 45.2406 70.2681 44.5051 72.3268 44.8977C72.6001 44.9495 72.8077 44.9854 72.9641 45.0095C73.0365 45.0206 73.1382 45.1101 73.1929 45.1588C73.3889 45.3331 73.543 45.3234 73.6537 45.2588C73.7893 45.1797 73.9834 45.1753 74.1404 45.1753C74.255 45.1753 74.9736 44.8159 75.6438 44.7831C76.3137 44.7506 77.1796 44.4398 77.6697 44.7831C78.16 45.1263 78.0454 45.4042 78.4539 45.2896C78.8624 45.1753 78.7809 45.7143 79.0748 46.4005C79.1517 46.58 79.2432 46.6757 79.3363 46.7191C79.5543 46.8207 79.9261 46.9253 80.088 47.1032C80.2515 47.2827 80.774 47.5444 81.3296 47.4791C81.8851 47.4139 81.6729 47.5444 81.5257 47.675C81.3786 47.8058 81.1335 48.0835 80.6925 47.9529C80.2515 47.8221 80.774 48.5738 81.7055 49.4235C82.6366 50.273 82.5385 49.6194 83.1922 49.5051C83.8458 49.3905 83.3558 48.6556 83.4699 48.1C83.5842 47.5444 83.8296 48.7696 83.7153 49.4561C83.6007 50.1421 83.9767 50.3055 84.2053 50.9264C84.4339 51.5472 84.2215 52.021 85.0057 54.2761C85.7902 56.5309 87.3914 61.5797 87.947 62.5109C88.5025 63.4419 88.5513 63.099 88.8945 62.6252C88.9552 62.5414 89.0164 62.474 89.076 62.4197C89.3031 62.2131 89.5687 61.915 89.6787 61.6284C89.7605 61.416 89.7768 61.2855 90.2343 60.9258C90.444 60.761 90.2783 60.4265 90.2567 60.1607C90.2502 60.0797 90.2428 59.9867 90.2343 59.8802C90.2336 59.8704 90.2329 59.8607 90.2322 59.8512C90.2044 59.4472 90.431 58.962 90.5057 58.5639C90.5208 58.4832 90.5255 58.4008 90.5226 58.3186C90.5141 58.0797 90.5078 57.5193 90.5938 56.8577C90.7081 55.9751 90.4792 55.6484 90.4957 55.2399C90.5122 54.8314 90.5775 54.9623 90.8717 54.9623C91.1659 54.9623 91.1166 54.6356 91.2147 54.4067C91.3127 54.1777 91.3943 54.4885 91.525 54.4067C91.6556 54.3249 91.9007 54.1618 91.9338 53.8511C91.984 53.3725 92.3673 52.9866 92.5488 52.5409C92.6013 52.4119 92.6548 52.2898 92.7016 52.2009C92.8648 51.8905 92.9629 51.8252 93.2081 51.5963C93.4532 51.3676 93.7146 51.2696 93.6981 50.9429C93.6819 50.6162 93.6981 50.8121 93.878 50.8121C94.0575 50.8121 94.1393 50.8283 94.2372 50.7794C94.2562 50.7699 94.2856 50.7415 94.3206 50.7018C94.607 50.3777 94.7602 49.9539 94.7602 49.5214C94.7602 49.1456 94.8092 49.3417 94.9398 49.0638C95.0707 48.7861 95.0381 48.868 95.1521 48.4919C95.2243 48.2555 95.3352 48.4267 95.4074 48.5861C95.4581 48.6978 95.5514 48.7877 95.6703 48.8176C95.7946 48.8487 95.8926 48.9442 95.9269 49.0677L95.9277 49.0706C95.9337 49.092 95.9416 49.1128 95.9513 49.1327L95.968 49.1668C96.0388 49.3113 96.1857 49.4029 96.3467 49.4029C96.5144 49.4029 96.6662 49.3035 96.7332 49.1498L96.7947 49.0085C96.8424 48.899 96.8598 48.7787 96.8413 48.6607C96.8163 48.5011 96.7768 48.2772 96.737 48.1683C96.7121 48.0995 96.7614 47.9982 96.8317 47.8992C96.9676 47.708 97.2428 47.7209 97.4058 47.8895C97.439 47.924 97.4663 47.9633 97.4846 48.0076C97.555 48.1785 97.7307 48.6557 97.7174 49.1399C97.7134 49.291 97.7339 49.3708 97.7668 49.4055C97.8749 49.5195 98.1149 49.4575 98.0769 49.6099C98.0604 49.6762 98.1148 49.7533 98.1941 49.8264C98.4307 50.0442 98.7006 50.2302 98.8941 50.487C99.0842 50.7189 99.1864 51.0101 99.1429 51.3067C99.133 51.3742 99.1209 51.4492 99.1062 51.5315C99.0246 51.9887 99.1228 52.0213 99.2861 51.809C99.4494 51.5965 99.531 51.466 99.531 51.6618C99.531 51.7346 99.5851 51.9381 99.6532 52.1652C99.8201 52.7223 99.919 53.2991 99.9059 53.8805C99.9012 54.0912 99.8959 54.3036 99.8907 54.4719C99.8742 54.9951 99.9888 54.7986 100.103 54.8642C100.217 54.9297 100.479 55.1421 100.544 55.1256C100.61 55.1093 100.659 54.7662 100.953 54.3414C101.247 53.9164 101.28 54.0472 101.345 53.5898C101.41 53.1325 101.786 53.9001 101.982 54.4232C102.178 54.9458 102.382 55.7218 102.554 56.8495C102.725 57.9769 102.775 58.3442 102.652 59.4473C102.529 60.5502 102.309 61.8735 102.26 62.8295C102.211 63.7852 102.824 64.4713 102.897 64.7902C102.971 65.1087 102.921 65.7705 102.897 66.1871C102.886 66.3748 102.915 66.6769 102.95 66.9522C103.003 67.3733 103.025 67.7982 102.998 68.2218C102.983 68.4579 102.971 68.7052 102.971 68.8586C102.971 69.2261 103.216 69.5449 103.412 69.9122C103.608 70.2801 103.804 70.1577 103.975 69.9615C104.147 69.7651 104.098 69.6427 103.877 68.7114C103.657 67.7802 103.828 68.2948 104.122 67.1917C104.417 66.089 104.106 65.4516 103.894 65.0109C103.681 64.5696 103.55 64.4878 103.273 64.3901C102.995 64.2917 103.109 63.8832 103.191 63.2624C103.273 62.6415 103.06 62.707 103.191 62.0697C103.322 61.4325 103.109 61.9391 102.946 62.1022C102.782 62.2658 102.848 62.135 102.734 61.6612C102.619 61.1875 102.782 61.0241 102.815 60.6481C102.848 60.2724 102.913 60.2071 103.256 59.0632C103.6 57.9195 103.256 58.7693 103.273 58.426C103.289 58.0829 103.436 57.7233 103.55 57.5438C103.665 57.3642 103.681 57.7233 103.681 57.985C103.681 58.2465 103.665 58.3282 103.796 58.4754C103.926 58.6222 104.384 58.5566 104.482 58.753C104.54 58.8696 104.627 59.1075 104.688 59.2812C104.737 59.4188 104.777 59.5589 104.804 59.7022C104.831 59.8439 104.865 60.0451 104.89 60.2724C104.939 60.7133 105.037 60.7626 105.299 61.0241C105.399 61.1241 105.434 61.224 105.44 61.3093C105.451 61.4737 105.355 61.6265 105.306 61.7837C105.237 62.0046 105.149 62.2862 105.319 62.4437C105.349 62.4712 105.385 62.4818 105.429 62.4616C105.609 62.3801 105.56 62.2986 105.985 61.7102C106.41 61.1221 106.018 61.1056 106.132 60.6809C106.246 60.2561 106.443 60.7461 106.753 60.2236C107.063 59.7006 107.096 59.1122 107.194 58.6877C107.292 58.2627 107.259 57.9685 107.259 57.7073C107.259 57.4457 107.194 56.7923 107.096 56.2693C106.998 55.7465 106.965 55.9098 106.671 54.8642C106.377 53.8186 105.756 52.5279 105.577 52.1846C105.397 51.8414 105.479 51.3514 105.527 50.7794C105.577 50.2075 105.764 49.8889 105.814 49.5214C105.863 49.1538 105.911 48.8595 106.353 48.8595C106.794 48.8595 106.402 49.2274 106.818 50.0114C107.235 50.7958 107.21 49.2765 107.259 48.3942C107.309 47.5116 107.782 47.6423 108.249 47.1197ZM100.358 87.7235C100.384 87.6875 100.331 87.6421 100.299 87.6727C99.3848 88.5393 98.4167 89.1891 97.946 89.5026C96.5217 90.4512 96.1286 90.4512 95.2666 91.2018C94.5266 91.8457 94.4058 92.2021 93.4366 93.4891C93.2472 93.7405 91.9478 95.4568 90.6262 96.7571C88.5274 98.8225 86.6873 99.5301 86.7704 99.698C86.834 99.8265 87.9691 99.5247 89.6022 98.8464C89.7046 98.8039 89.8005 98.7471 89.8873 98.6782C93.8574 95.5248 97.3841 91.8371 100.358 87.7235ZM26.5777 8.46984C24.3832 10.1815 24.4474 10.1325 24.3475 10.2099C22.1991 11.8728 21.877 11.8894 20.6711 12.9792C19.8937 13.6815 18.6655 14.906 18.8086 15.0869C18.9829 15.3074 20.9384 13.6534 24.519 12.0235C25.1591 11.7321 24.9057 11.8718 27.5333 10.749C30.2099 9.60532 30.8357 9.30544 31.5773 8.88637C33.2901 7.91879 32.9623 7.81883 33.9546 7.4158C35.1183 6.94311 36.117 6.85776 37.4596 5.96985C38.2527 5.44513 38.2307 5.2587 38.2194 5.21029C38.0888 4.6612 35.3117 4.89959 34.8369 4.94042C34.0762 5.0057 33.1257 5.09323 31.9449 5.47982C31.5408 5.61203 31.1715 5.75992 30.8275 5.91185C29.8464 6.40265 28.8821 6.92198 27.9353 7.46895C27.4388 7.79984 27.0254 8.12037 26.5777 8.46984ZM76.9913 7.25239C76.9331 7.41603 77.7078 8.11546 78.5272 8.0529C79.0606 8.01248 79.2348 7.67792 80.0713 7.58719C80.4324 7.54813 80.6978 7.57826 80.7002 7.54653C80.705 7.49427 79.9856 7.37917 79.377 7.31768C79.001 7.28004 79.033 7.2995 77.8573 7.24423C77.123 7.20984 77.0111 7.19741 76.9913 7.25239ZM25.875 12.6605C25.8073 12.9106 25.6424 12.9685 25.6627 13.0528C25.7003 13.2083 26.3201 13.241 26.97 13.1343C27.4824 13.0503 28.2989 12.9051 28.7672 12.2685C28.8323 12.18 29.0742 11.8511 28.9631 11.6639C28.8716 11.509 28.579 11.521 28.277 11.5334C28.1009 11.5405 27.8436 11.5508 27.5415 11.6802C27.1479 11.849 26.9922 12.0852 26.8881 12.0235C26.7649 11.9503 26.9423 11.596 26.8063 11.5006C26.6695 11.4042 26.3133 11.6409 26.1202 11.8763C26.0627 11.9462 25.9512 12.0822 25.9078 12.2848C25.8715 12.4531 25.9181 12.5026 25.875 12.6605ZM22.5419 21.1896C22.4552 21.1387 22.4932 20.9041 22.5419 20.7649C22.6351 20.4983 22.8905 20.2242 23.2118 20.144C23.3513 20.109 23.4385 20.1267 23.4732 20.0622C23.5436 19.9311 23.2451 19.7504 23.2934 19.5557C23.3229 19.4375 23.5095 19.3666 23.8818 19.2289C24.1926 19.1138 24.2796 19.1141 24.5025 19.0001C24.5855 18.9578 24.6733 18.9003 24.8458 18.7877C25.3437 18.4621 25.442 18.3551 25.5647 18.3957C25.6801 18.4337 25.777 18.5891 25.7608 18.7224C25.7291 18.9776 25.3087 18.9255 25.0747 19.3105C24.9658 19.4893 25.0032 19.5879 24.8293 19.8498C24.8024 19.8904 24.7244 20.0042 24.6009 20.1275C24.5339 20.1938 24.3338 20.3826 23.8655 20.585C23.4328 20.7719 23.4215 20.6895 23.1302 20.8464C22.7765 21.0368 22.6343 21.2438 22.5419 21.1896ZM23.4406 22.4149C23.4852 22.5117 23.926 22.3304 25.532 21.8921C26.1689 21.7183 26.4197 21.6594 26.7412 21.4346C27.0693 21.2051 27.0804 21.0762 27.4927 20.8138C27.9285 20.5363 28.1682 20.5204 28.2116 20.3234C28.26 20.1032 27.9778 20.0393 27.8521 19.6373C27.8015 19.4748 27.8194 19.3962 27.9174 18.4936C27.9802 17.9169 27.9745 17.9313 27.9829 17.9056C28.1964 17.2268 28.9061 16.9919 28.8325 16.7944C28.7677 16.6202 28.1986 16.7521 28.1135 16.533C28.0537 16.3792 28.2845 16.1835 28.2441 16.1408C28.1655 16.0568 27.2741 16.8083 27.1985 16.7291C27.1535 16.682 27.4391 16.3843 27.3946 16.3369C27.3309 16.2686 26.6717 16.8101 26.3487 17.0886C25.8538 17.516 25.8278 17.6043 25.8262 17.6767C25.8175 18.0166 26.3398 18.0943 26.5123 18.657C26.5419 18.7537 26.6469 19.0961 26.4795 19.3106C26.349 19.478 26.1783 19.406 25.7607 19.6373C25.5616 19.7475 25.4386 19.818 25.3687 19.964C25.2622 20.1867 25.405 20.3218 25.3031 20.4543C25.168 20.6301 24.8724 20.447 24.5189 20.6501C24.4671 20.6802 24.2435 20.8089 24.2575 20.9443C24.2822 21.18 25.0033 21.2022 25.0092 21.3693C25.014 21.4969 24.5937 21.5354 24.0614 21.8593C23.8054 22.0154 23.3947 22.3161 23.4406 22.4149ZM51.6741 5.88C51.756 6.15112 52.8688 6.04714 53.2594 6.01051C54.0652 5.93528 54.0222 5.81881 54.5336 5.83071C55.168 5.84592 55.3516 6.02791 56.0364 5.99435C56.3846 5.97719 56.8821 5.90356 56.8862 5.79821C56.8909 5.69098 56.383 5.56474 55.9715 5.52059C55.505 5.47011 55.3354 5.54385 54.4193 5.6186C53.7713 5.67115 53.4474 5.69773 53.2594 5.6676C52.6539 5.57007 52.3743 5.31174 52.0174 5.47153C51.8251 5.55764 51.6362 5.75377 51.6741 5.88ZM66.6735 6.28843C66.7607 6.47402 67.2561 6.48213 67.3596 6.28843C67.4019 6.20912 67.3649 6.12082 67.3596 6.10881C67.2803 5.92789 66.9465 5.84071 66.7712 5.99423C66.6935 6.06252 66.629 6.19421 66.6735 6.28843ZM63.5364 5.30813C63.3991 5.39832 63.272 5.57001 63.3075 5.70009C63.3539 5.8693 63.6767 5.91327 64.3205 5.99423C64.926 6.07034 65.2785 6.05974 65.7422 6.04323C66.1544 6.02867 66.2121 6.00346 66.2159 5.97795C66.2249 5.91487 65.9042 5.83663 65.35 5.66754C64.1602 5.30457 63.8313 5.11383 63.5364 5.30813ZM53.733 9.86655C53.8086 9.65983 54.3214 9.57561 54.501 9.80122C54.5763 9.89603 54.5947 10.048 54.5335 10.1607C54.4387 10.3359 54.1764 10.3736 53.9944 10.2913C53.8176 10.2113 53.6826 10.0036 53.733 9.86655ZM54.7788 9.00071C54.7573 8.89507 54.8069 8.83956 55.1379 8.33082C55.6599 7.52925 55.6229 7.53529 55.71 7.46474C56.1328 7.12379 56.3975 7.47859 57.2622 7.20339C57.7823 7.03792 57.9651 6.82095 58.5204 6.79491C58.7632 6.78355 59.0945 6.80764 59.1082 6.89298C59.125 6.99294 58.6998 7.1438 58.2098 7.31773C57.7053 7.497 57.603 7.49735 57.1969 7.66087C56.7117 7.85624 56.5248 7.99005 56.3961 8.10214C56.2074 8.26631 55.9809 8.46327 56.0039 8.70657C56.0264 8.94437 56.2762 9.11097 56.3799 9.18033C56.6381 9.35285 56.8724 9.35551 56.8702 9.40919C56.8678 9.46175 56.6399 9.51105 56.3799 9.52347C55.8067 9.55088 54.8619 9.41049 54.7788 9.00071ZM106.949 50.4525C106.76 50.4501 106.621 50.8629 106.589 50.959C106.578 50.9929 106.346 51.7115 106.704 51.9885C106.713 51.9957 106.893 52.1308 107.063 52.0702C107.324 51.9768 107.338 51.5024 107.341 51.4001C107.354 50.9683 107.159 50.455 106.949 50.4525ZM108.877 64.4222C108.852 64.421 108.822 64.4447 108.566 65.1902C108.263 66.0749 108.284 66.1023 108.174 66.2358C107.981 66.4701 107.762 66.5711 107.733 66.8404C107.719 66.9674 107.761 67.0119 107.733 67.1346C107.679 67.3763 107.453 67.4965 107.325 67.5922C107.057 67.7917 107.116 67.9592 106.622 69.2096C106.384 69.8118 106.272 70.0238 106.181 70.0103C106.048 69.9905 106.07 69.5023 105.952 69.4873C105.822 69.4707 105.625 70.0455 105.495 70.5821C105.281 71.463 105.424 71.5012 105.233 72.4119C105.107 73.0157 104.962 73.3928 105.037 73.8988C105.068 74.1046 105.134 74.3206 105.184 74.4869C105.293 74.8458 105.35 75.0265 105.462 75.0752C105.667 75.1649 105.993 74.914 106.181 74.6993C106.622 74.1946 106.372 73.8089 106.753 72.9837C107.044 72.3518 107.24 72.4724 107.373 71.9709C107.524 71.4075 107.34 71.0202 107.651 70.6146C107.798 70.4242 107.871 70.4673 108.027 70.3045C108.521 69.789 108.02 69.1186 108.272 67.7555C108.324 67.4745 108.42 66.9569 108.713 66.3667C108.839 66.1126 108.89 66.072 108.959 65.8764C109.203 65.1799 109.011 64.4296 108.877 64.4222ZM102.015 77.5426C101.82 77.5637 101.655 77.7912 101.671 77.9671C101.681 78.0703 101.745 78.0771 101.786 78.2125C101.851 78.4278 101.719 78.5104 101.769 78.6698C101.838 78.8867 102.18 79.0425 102.439 78.9967C102.581 78.9715 102.619 78.9005 102.701 78.9312C102.839 78.9837 102.776 79.2104 102.962 79.4052C103.06 79.5071 103.179 79.5503 103.273 79.5848C103.513 79.6728 103.654 79.6216 103.73 79.7318C103.785 79.812 103.742 79.8825 103.812 79.9443C103.873 79.9987 103.972 80.0017 104.04 79.9767C104.19 79.9228 104.292 79.7015 104.237 79.5523C104.168 79.3667 103.91 79.432 103.665 79.16C103.573 79.0585 103.485 78.9612 103.501 78.8496C103.535 78.6118 103.994 78.6164 104.122 78.2613C104.14 78.2127 104.172 78.1237 104.139 78.0326C104.042 77.7715 103.458 77.6445 103.109 77.853C102.876 77.9923 102.823 78.2368 102.701 78.2125C102.609 78.1941 102.62 78.0529 102.472 77.853C102.393 77.746 102.225 77.5196 102.015 77.5426ZM100.838 74.1767C100.737 74.1946 100.735 74.9411 100.838 74.9611C100.892 74.9715 100.987 74.7862 101.002 74.6176C101.022 74.3891 100.896 74.1664 100.838 74.1767ZM100.152 68.4091C100.074 68.4291 100.033 68.5841 100.054 68.703C100.098 68.9538 100.428 69.1258 100.511 69.0624C100.583 69.0077 100.487 68.7625 100.397 68.6214C100.36 68.5632 100.246 68.3847 100.152 68.4091ZM100.74 71.3662C100.643 71.3662 100.527 71.5125 100.56 71.628C100.602 71.7712 100.856 71.801 100.92 71.7258C100.991 71.6415 100.873 71.3665 100.74 71.3662ZM100.707 72.3795C100.777 72.3734 100.848 72.5466 100.871 72.6571C100.884 72.7237 100.913 72.8649 100.838 72.9185C100.781 72.9596 100.68 72.9377 100.626 72.8857C100.486 72.7533 100.609 72.3878 100.707 72.3795ZM100.413 70.0264C100.22 70.1283 100.26 70.6752 100.446 70.7454C100.57 70.7924 100.787 70.6388 100.854 70.4511C100.868 70.4146 100.89 70.3482 100.871 70.2716C100.822 70.0806 100.546 69.9566 100.413 70.0264ZM101.426 66.2031C101.256 66.0853 101.164 66.1376 100.952 66.0563C100.606 65.923 100.538 65.6632 100.397 65.6968C100.243 65.7334 100.201 66.072 100.185 66.2031C100.177 66.2638 100.072 67.2029 100.593 67.5594C100.718 67.6448 100.859 67.6832 100.92 67.8371C100.959 67.9363 100.931 67.9993 100.92 68.2131C100.909 68.4056 100.901 68.5535 100.936 68.7031C100.984 68.9108 101.073 68.939 101.247 69.2586C101.322 69.3977 101.401 69.5436 101.443 69.6996C101.55 70.1019 101.334 70.2939 101.312 70.7293C101.292 71.1244 101.462 71.1015 101.573 71.6934C101.68 72.2595 101.612 72.7622 101.557 73.1799C101.485 73.7209 101.405 73.7946 101.443 74.1278C101.49 74.5452 101.637 74.6104 101.606 74.9447C101.569 75.3361 101.354 75.3944 101.377 75.7452C101.39 75.9386 101.456 75.9218 101.59 76.3498C101.719 76.7643 101.694 76.8962 101.802 76.9542C102.021 77.0714 102.431 76.6984 102.472 76.6602C102.838 76.3208 102.829 76.031 103.191 75.0753C103.443 74.4097 103.652 74.0093 103.518 73.8988C103.397 73.7997 103.111 74.0235 103.011 73.9154C102.945 73.8436 103.037 73.7109 103.125 73.376C103.213 73.0437 103.284 72.7747 103.158 72.5753C103.075 72.4431 102.987 72.4714 102.913 72.3302C102.809 72.1295 102.894 71.8916 102.929 71.7911C103.082 71.3631 103.382 71.3244 103.371 71.0884C103.361 70.8815 103.129 70.9081 102.978 70.5822C102.89 70.392 102.876 70.1721 102.848 69.7324C102.838 69.5843 102.838 69.4981 102.782 69.3895C102.691 69.2109 102.583 69.2345 102.456 69.0626C102.358 68.9312 102.331 68.7732 102.276 68.458C102.233 68.2163 102.254 68.2104 102.227 68.0822C102.119 67.5662 101.77 67.5448 101.704 67.1182C101.662 66.8489 101.784 66.7416 101.671 66.4973C101.646 66.4425 101.574 66.3055 101.426 66.2031ZM90.659 61.9552C90.5989 61.9594 90.556 62.0506 90.3485 62.9193C90.2161 63.4732 90.1497 63.7528 90.1524 63.8831C90.1619 64.3698 90.3374 64.4035 90.3485 64.9943C90.3503 65.1137 90.3456 65.2109 90.4138 65.272C90.5682 65.4096 90.971 65.2537 91.2145 65.043C91.5973 64.712 91.6217 64.2131 91.623 64.1773C91.6352 63.8064 91.4605 63.7152 91.1162 62.9353C90.8258 62.2773 90.7757 61.9468 90.659 61.9552ZM39.5549 34.7549C39.5806 34.7235 39.6968 34.7733 39.9102 34.8651C40.0457 34.9233 40.1232 34.9662 40.1676 34.9875C40.4149 35.1068 40.5927 35.0195 40.9396 35.0244C41.3384 35.0306 41.749 35.1555 41.7485 35.2451C41.7482 35.3218 41.4483 35.3773 41.3684 35.3923C41.2202 35.4196 41.0599 35.4291 40.7066 35.3923C40.3054 35.3497 40.1045 35.3286 39.9593 35.2451C39.6843 35.087 39.5139 34.8055 39.5549 34.7549ZM37.9579 32.4389C37.9267 32.4557 37.7696 32.5472 37.7699 32.6678C37.7704 32.7761 37.8985 32.7997 37.9251 32.9373C37.9538 33.0868 37.8203 33.1508 37.8598 33.2721C37.8918 33.3704 38.0083 33.4167 38.1375 33.4682C38.3349 33.5468 38.3728 33.4975 38.4722 33.55C38.7283 33.6847 38.6253 34.0883 38.8401 34.1709C38.9572 34.2158 39.123 34.147 39.1668 34.0482C39.1936 33.9881 39.1721 33.9236 39.1259 33.8195C38.9471 33.4165 38.7995 33.3236 38.8401 33.2068C38.8769 33.1012 39.0457 33.0413 39.1668 33.0597C39.3101 33.0814 39.3876 33.2128 39.4201 33.1903C39.4485 33.1708 39.4136 33.0532 39.3545 32.9536C39.2749 32.8181 39.1487 32.7112 38.8891 32.5941C38.5508 32.4419 38.2214 32.2934 37.9579 32.4389ZM37.2553 32.7819C37.2296 32.8294 37.2404 32.9049 37.2959 32.9372C37.3514 32.9694 37.4189 32.9395 37.4514 32.8963C37.4809 32.8565 37.4888 32.7947 37.4596 32.7573C37.4151 32.7012 37.2938 32.7107 37.2553 32.7819ZM37.149 32.1365C37.052 32.1444 36.9699 32.2535 36.9853 32.357C37.004 32.4784 37.1495 32.5529 37.247 32.5125C37.3055 32.4884 37.3383 32.4264 37.3451 32.3735C37.3591 32.2617 37.2635 32.1273 37.149 32.1365ZM28.5873 29.7348C28.4573 29.8808 28.6748 30.0932 28.5548 30.3722C28.4976 30.5044 28.4394 30.4776 28.2441 30.7151C28.0765 30.9191 27.9786 31.0381 27.9664 31.2054C27.9497 31.4349 28.0976 31.7147 28.2931 31.7445C28.4175 31.7635 28.5215 31.6757 28.6526 31.5647C28.926 31.3339 29.0427 31.0527 29.0776 30.9601C29.1903 30.6634 29.0838 30.6759 29.2082 30.2576C29.2642 30.0697 29.3219 29.9455 29.2575 29.8326C29.2031 29.7386 29.0944 29.7059 29.0286 29.6858C29.0139 29.6817 28.713 29.5939 28.5873 29.7348ZM29.6659 28.0354C29.5575 27.9707 29.2771 28.195 29.1265 28.4277C28.9808 28.6528 28.9678 28.8689 28.9632 28.9668C28.9602 29.0337 28.945 29.3522 29.0612 29.3918C29.1156 29.4099 29.1964 29.339 29.3554 29.1957C29.5209 29.0464 29.6038 28.9719 29.6493 28.8687C29.685 28.7877 29.6902 28.6831 29.6983 28.4767C29.7095 28.2021 29.7152 28.065 29.6659 28.0354ZM31.1731 32.39C31.0838 32.4151 30.987 32.4869 30.9526 32.586C30.8785 32.7976 31.1205 33.0449 31.2709 33.1985C31.4513 33.3827 31.6198 33.471 31.8714 33.6032C32.1353 33.7411 32.2699 33.8096 32.4105 33.7745C32.6337 33.7189 32.7489 33.4792 32.7662 33.444C32.8653 33.237 32.7609 33.1785 32.864 32.9781C32.9425 32.825 33.0319 32.8033 33.1334 32.586C33.1814 32.4842 33.2137 32.4127 33.1827 32.3653C33.1259 32.2784 32.8964 32.3341 32.7169 32.3775C32.3653 32.4631 32.3579 32.54 32.141 32.5614C31.8991 32.5853 31.6694 32.513 31.5897 32.4878C31.3871 32.4241 31.3031 32.3529 31.1731 32.39ZM62.2619 83.0322C62.0687 83.2671 62.1617 83.3919 61.9677 83.6533C61.8284 83.8407 61.755 83.8107 61.5757 84.0453C61.4603 84.1962 61.436 84.2802 61.3468 84.4373C61.223 84.6567 61.1009 84.7905 60.8568 85.0584C60.6282 85.3089 60.4212 85.487 60.0071 85.8426C59.8275 85.9967 59.7367 86.0748 59.6803 86.104C59.3103 86.2974 59.0828 86.1335 58.7328 86.2673C58.4042 86.393 58.2306 86.6804 58.1445 86.8229C57.9627 87.1242 57.9446 87.4005 57.9158 87.9341C57.8841 88.5254 57.9662 88.5682 57.9158 89.045C57.886 89.3261 57.8516 89.6517 57.6869 90.0253C57.4226 90.6253 57.1094 90.6968 57.0986 91.1364C57.0956 91.2616 57.1197 91.3201 57.1316 91.7248C57.1381 91.9526 57.1417 92.0666 57.1316 92.182C57.1037 92.4995 57.0363 92.5561 57.0661 92.7377C57.0961 92.921 57.1947 93.0451 57.2622 93.1296C57.4794 93.4029 57.7652 93.5037 57.9158 93.5546C58.1252 93.6253 58.6797 93.8128 59.0922 93.5546C59.3158 93.4146 59.2952 93.2699 59.6803 92.4435C59.9507 91.8637 59.9666 91.922 60.2032 91.3978C60.5225 90.6898 60.4654 90.6448 60.6935 90.1889C60.8876 89.8002 60.9403 89.8107 61.5104 88.9469C61.995 88.2125 62.2378 87.8412 62.2619 87.6399C62.3399 86.9871 61.9243 86.6143 62.1966 86.1368C62.2762 85.9967 62.4339 85.8147 62.556 85.8426C62.6806 85.871 62.6945 86.101 62.7849 86.104C62.905 86.1081 63.007 85.705 63.0133 85.6792C63.0894 85.3726 63.0802 85.1286 63.0463 84.6989C62.9811 83.8795 62.9675 84.1721 62.8828 83.3592C62.8453 83.0019 62.8345 82.8157 62.7191 82.7708C62.578 82.7161 62.3651 82.907 62.2619 83.0322Z" fill="#66C368"/>
<path fill-rule="evenodd" clip-rule="evenodd" d="M46.7784 35.7621H46.9124C48.4002 35.7621 49.6173 36.9791 49.6173 38.467V42.2886C49.6806 42.8003 49.7134 43.3216 49.7134 43.8507C49.7134 50.8177 44.0654 56.4656 37.0985 56.4656C30.1316 56.4656 24.4836 50.8177 24.4836 43.8507C24.4836 43.3216 24.5164 42.8003 24.5797 42.2886V38.467C24.5797 36.9791 25.7968 35.7621 27.2846 35.7621H27.4186H46.7784ZM85.4901 35.5699H85.624C87.1119 35.5699 88.329 36.7869 88.329 38.2749V42.0964C88.3923 42.6082 88.425 43.1294 88.425 43.6585C88.425 50.6255 82.7771 56.2735 75.8102 56.2735C68.8432 56.2735 63.1953 50.6255 63.1953 43.6585C63.1953 43.1294 63.228 42.6082 63.2914 42.0964V38.2749C63.2914 36.7869 64.5084 35.5699 65.9963 35.5699H66.1302H85.4901Z" fill="white"/>
<path fill-rule="evenodd" clip-rule="evenodd" d="M37.4981 41.1625C38.7816 41.1625 40.0124 41.6724 40.92 42.5799C41.8275 43.4874 42.3373 44.7183 42.3373 46.0018C42.3373 46.9589 42.0535 47.8945 41.5218 48.6903C40.99 49.4861 40.2342 50.1064 39.3499 50.4727C38.4657 50.8389 37.4927 50.9347 36.554 50.748C35.6152 50.5613 34.753 50.1004 34.0762 49.4236C33.3994 48.7468 32.9385 47.8845 32.7518 46.9458C32.5651 46.0071 32.6609 45.0341 33.0272 44.1498C33.3935 43.2656 34.0137 42.5098 34.8096 41.978C35.6054 41.4463 36.541 41.1625 37.4981 41.1625Z" fill="#1B1918"/>
<path fill-rule="evenodd" clip-rule="evenodd" d="M75.8254 41.0184C77.1088 41.0184 78.3397 41.5282 79.2473 42.4357C80.1548 43.3433 80.6646 44.5741 80.6647 45.8576C80.6647 46.8147 80.3809 47.7503 79.8491 48.5461C79.3174 49.3419 78.5616 49.9622 77.6773 50.3285C76.7931 50.6948 75.8201 50.7906 74.8814 50.6039C73.9426 50.4172 73.0803 49.9563 72.4035 49.2795C71.7268 48.6027 71.2659 47.7405 71.0791 46.8017C70.8924 45.863 70.9882 44.89 71.3545 44.0057C71.7208 43.1215 72.341 42.3657 73.1368 41.8339C73.9327 41.3022 74.8683 41.0184 75.8254 41.0184Z" fill="#1B1918"/>
<path fill-rule="evenodd" clip-rule="evenodd" d="M55.6226 54.7616C55.2128 54.3212 55.2375 53.6311 55.678 53.2213C56.1184 52.8115 56.8084 52.8362 57.2182 53.2766C57.4839 53.5619 57.8078 53.8437 58.158 54.1086C58.3363 54.2436 58.5226 54.3749 58.713 54.5013C59.1097 54.7644 59.5528 54.9641 60.0255 55.0201C60.1756 55.0379 60.3164 55.0436 60.4444 55.0323C60.6679 55.0091 60.8768 54.9217 61.0573 54.7186C61.2961 54.378 61.4307 53.9165 61.2284 53.6602C60.4007 52.6251 59.79 51.8332 59.2572 51.0623C58.7229 50.2892 57.4235 48.2692 56.9693 47.3914C56.6942 46.8571 56.9038 46.199 57.4381 45.9239C57.9724 45.6487 58.6304 45.8584 58.9056 46.3927C59.319 47.1919 60.5747 49.1391 61.0478 49.8248C62.0305 51.2464 63.5184 52.4337 63.4078 54.2884C63.3736 54.8482 63.2127 55.4625 62.8167 56.007L62.7781 56.0536C62.1579 56.8158 61.4256 57.1339 60.6322 57.203C59.9742 57.2561 59.3307 57.1332 58.6901 56.9679C58.5765 56.9453 58.4644 56.9046 58.3589 56.8442C57.8522 56.5552 57.3318 56.2174 56.8448 55.8484C56.3986 55.5106 55.9786 55.1437 55.6226 54.7616Z" fill="#1B1918"/>
<path fill-rule="evenodd" clip-rule="evenodd" d="M51.9677 60.2792C57.002 62.1995 61.6848 62.0844 66.0763 60.2792C67.8401 59.5542 69.5426 61.8384 69.5426 63.7456C69.5426 65.6527 67.8772 66.5843 66.0763 67.2125C61.5123 68.8045 56.7902 68.5737 51.9677 67.2125C50.1326 66.6943 48.5013 65.6533 48.5013 63.7462C48.5013 61.839 50.1857 59.5993 51.9677 60.2792Z" fill="#1B1918"/>
<path fill-rule="evenodd" clip-rule="evenodd" d="M65.574 67.3801C62.8239 68.2572 60.017 68.4843 57.1665 68.2136C57.8267 66.42 59.5504 65.1417 61.5734 65.1417C63.2658 65.1417 64.7478 66.037 65.574 67.3801Z" fill="#EB5959"/>
</svg>
