<svg width="373" height="100" viewBox="0 0 373 100" fill="none" xmlns="http://www.w3.org/2000/svg">
<path d="M188.395 10.2857L189.708 10.2857L190.418 10.2857C200.79 10.0586 213.027 11.5333 220.978 18.9161C222.409 20.6754 223.111 22.0885 223.181 24.1914C223.197 24.6767 223.11 25.1616 222.927 25.6112C221.341 29.4978 217.908 31.5216 214.2 33.435C212.549 34.2458 210.875 34.9526 209.17 35.5992C207.851 36.0994 207.188 37.73 208.323 38.567V38.567C208.449 38.6595 208.614 38.8008 208.717 38.9178C209.134 39.3915 209.55 39.8671 209.964 40.344C210.348 40.7219 210.348 40.7219 210.74 41.1075C211.688 42.0699 212.516 43.101 213.368 44.1489C213.698 44.5124 214.029 44.8759 214.369 45.2504C215.344 46.3228 216.258 47.4314 217.173 48.5547C217.409 48.7908 217.645 49.0269 217.887 49.2687C217.943 49.3244 217.967 49.4127 217.982 49.4902V49.4902C218.003 49.6009 218.062 49.6919 218.147 49.7658C218.3 49.8987 218.448 50.0961 218.604 50.2351C218.708 50.3283 218.826 50.4067 218.926 50.5043C219.778 51.3359 220.619 52.1739 221.454 53.023C223.345 54.9461 223.358 54.9587 225.344 56.7301C225.369 56.752 225.384 56.8363 225.384 56.8034V56.8034C225.384 56.7563 225.413 56.8331 225.454 56.8554C225.716 56.9959 225.978 57.3212 226.245 57.4927C226.334 57.5496 226.43 57.5953 226.518 57.6529C226.76 57.8104 227.001 57.9691 227.241 58.1289C227.867 58.5451 228.573 58.8273 229.316 58.9416C229.643 58.9919 229.971 59.0424 230.302 59.0934C230.622 59.1425 230.921 59.2799 231.166 59.4901C231.433 59.7188 231.701 59.9486 231.973 60.1818C232.102 60.2924 232.14 60.4752 232.064 60.6273V60.6273C232.019 60.7178 231.934 60.7884 231.837 60.8182C227.906 62.0279 227.031 62.292 226.65 62.2562C226.521 62.2441 226.385 62.3187 226.385 62.4481V62.4481C226.385 62.5222 226.338 62.5892 226.268 62.6136C225.26 62.9637 224.252 63.313 223.243 63.6618C222.369 63.965 222.369 63.965 221.476 64.2744C220.36 64.6475 220.075 64.743 219.589 64.8499C219.183 64.9393 218.781 65.0731 218.409 65.2591V65.2591C217.984 65.4715 217.535 65.6203 217.064 65.6783C214.521 65.9916 212.706 65.6289 210.364 64.175C208.996 63.1226 207.768 62 206.559 60.7706C206.339 60.5944 206.119 60.4182 205.896 60.2397C205.671 60.0599 205.462 59.8612 205.272 59.6452C204.898 59.2206 204.527 58.7946 204.156 58.3675C203.892 58.1031 203.627 57.8388 203.355 57.5664C202.581 56.7926 201.867 55.9913 201.152 55.1633C200.863 54.8453 200.574 54.5272 200.276 54.1995C199.656 53.5037 199.051 52.794 198.461 52.0718C197.852 51.3286 197.221 50.6021 196.571 49.8939C189.679 42.2453 188.849 41.3247 188.75 39.4054C188.723 38.8906 189.066 38.4321 189.556 38.2698V38.2698C190.793 37.8577 192.03 37.4425 193.267 37.0272C193.692 36.8861 194.118 36.745 194.556 36.5997C197.335 35.6633 199.812 34.6993 202.188 33.0021C202.427 32.831 202.66 32.5377 202.954 32.5377V32.5377C203.008 32.5377 203.073 32.5591 203.131 32.5764C203.239 32.6086 203.333 32.4681 203.293 32.3628C203.291 32.3577 203.289 32.3527 203.287 32.3476C203.25 32.2505 203.309 32.1202 203.342 32.0218V32.0218C203.358 31.9746 203.375 31.913 203.41 31.8777C203.669 31.6187 203.743 31.545 203.93 31.3576C204.08 31.2083 204.205 31.0353 204.297 30.8449C205.036 29.3105 205.183 28.4554 204.92 26.9389C204.827 26.398 204.619 25.8805 204.301 25.433C202.007 22.2029 198.569 20.889 194.744 19.9174C191.192 19.1344 187.712 18.8935 184.087 18.9059C183.531 18.9074 182.976 18.9089 182.404 18.9104V18.9104C181.701 18.9135 181.136 19.4905 181.148 20.1934C181.206 23.6696 181.267 27.1457 181.33 30.6218C181.363 32.4346 181.395 34.2473 181.425 36.0601C181.582 46.6751 181.59 47.1996 182.224 56.7949C182.286 57.741 181.769 58.6376 180.915 59.0503V59.0503C174.531 62.138 174.531 62.138 168.268 65.4634V65.4634C167.106 66.0854 165.737 65.2914 165.715 63.9739C165.707 63.4899 165.71 63.0007 165.715 62.4947C165.726 59.1888 165.556 55.9089 165.356 52.61C164.968 45.9417 164.66 39.2719 164.383 32.5982C164.259 28.8312 164.213 27.4444 164.024 25.4411C163.773 22.7908 161.418 20.8459 158.766 21.0668C154.954 21.3841 151.158 21.7898 147.355 22.2849C147.21 22.3037 147.082 22.1926 147.082 22.0468V22.0468C147.082 21.9682 147.121 21.8928 147.185 21.8476C147.815 21.4045 147.85 21.3799 148.559 20.8812C149.817 19.9936 151.068 19.0962 152.314 18.1902C153.881 17.0554 155.48 15.9782 157.095 14.9109C158.061 14.2536 159.025 13.5936 159.989 12.9326C160.589 12.521 161.271 12.2447 161.989 12.1244C162.973 11.9593 163.958 11.7952 164.943 11.6316C165.506 11.5364 165.506 11.5364 166.08 11.4392C173.986 10.1329 180.406 10.2564 188.395 10.2857Z" fill="#278829"/>
<path d="M143.848 12.9531C144.855 12.7989 145.3 13.8562 144.487 14.4703C144.126 14.7431 143.758 15.0128 143.387 15.2897C142.802 15.7433 142.218 16.1982 141.635 16.654C134.532 22.1878 128.88 24.4468 120.086 25.9941C117.178 26.5089 114.284 27.083 111.395 27.6864C109.204 28.1443 107.697 30.2069 108.154 32.3987V32.3987C108.235 32.7886 108.316 33.1786 108.399 33.5803C108.483 33.9837 108.567 34.387 108.654 34.8026C108.961 36.2764 109.162 37.2416 109.293 37.8922C109.459 38.7143 110.331 39.3242 111.145 39.1207V39.1207C117.139 37.9734 123.164 36.8881 129.211 35.9806C133.529 35.3327 135.883 39.9197 132.142 42.1701C126.396 45.6263 119.737 47.0633 112.635 48.2811C111.847 48.4163 111.353 49.2125 111.587 49.9778V49.9778C112.177 51.9849 112.638 54.0122 113.085 56.0553C113.684 58.7726 113.692 58.8079 114.324 61.4444C114.34 61.5133 114.349 61.5846 114.349 61.6554V61.6554C114.349 62.2227 114.867 62.65 115.424 62.5408C115.636 62.4991 115.877 62.452 116.296 62.3697C128.027 60.0824 139.805 58.0882 151.693 56.8496C152.824 56.7317 153.487 58.036 152.599 58.7463V58.7463C152.019 59.3262 151.442 59.9089 150.872 60.4986C149.995 61.3497 149.995 61.3497 148.969 62.1882C148.075 62.9207 147.212 63.6917 146.366 64.4787C143.525 67.113 143.525 67.113 141.272 67.4075C140.848 67.463 140.424 67.5185 139.987 67.5757C139.049 67.6972 138.111 67.8168 137.173 67.9344C133.538 68.3928 129.919 68.9183 126.302 69.4978C125.76 69.5843 125.218 69.6708 124.659 69.76C112.925 71.604 112.899 71.608 101.408 74.3486C101.359 74.3602 101.308 74.3666 101.257 74.3666V74.3666C100.952 74.3666 100.688 74.1498 100.628 73.8502C99.5069 68.2444 99.5008 68.2139 99.2901 67.1603C99.137 66.395 98.9839 65.6297 98.8307 64.8644C98.4594 63.0091 98.0887 61.1537 97.7204 59.2978C97.5988 58.6862 97.4772 58.0747 97.3519 57.4446C97.245 56.9056 97.1382 56.3665 97.028 55.8112V55.8112C96.5616 53.5394 94.3112 52.1211 92.0603 52.6798C90.5249 53.0609 88.9953 53.4647 87.464 53.8774C86.5912 54.1124 85.7182 54.3468 84.845 54.5807C84.4631 54.6836 84.0813 54.7865 83.6878 54.8926V54.8926C83.0145 55.0637 82.6113 54.2781 83.1286 53.8143C83.6643 53.3339 84.2088 52.863 84.7566 52.3903C87.417 50.0884 90.0541 47.742 92.3871 45.1095C93.2667 44.1171 93.6605 42.7822 93.4215 41.4778C93.2865 40.7408 93.1242 40.0117 92.9329 39.2475C92.7577 38.5419 92.7577 38.5419 92.5789 37.8222C92.3952 37.0895 92.3952 37.0895 92.2077 36.3421C91.9649 35.3707 91.7226 34.3991 91.481 33.4274C91.3732 32.9973 91.2654 32.5673 91.1543 32.1242C91.1102 31.9345 91.0744 31.7803 91.0452 31.651C90.9167 31.081 90.368 30.6498 89.8017 30.7941V30.7941C88.1256 31.2211 86.4493 31.6476 84.773 32.0741C83.9031 32.2958 83.9031 32.2958 83.0157 32.5219C82.4548 32.6645 81.894 32.8072 81.3162 32.9541C80.5438 33.1508 80.5438 33.1508 79.7558 33.3514V33.3514C78.5845 33.6433 77.932 32.3699 78.8945 31.6413C78.9971 31.5635 79.1001 31.4857 79.2033 31.4076C80.4785 30.4202 81.6896 29.3627 82.9081 28.3067C83.2468 28.0382 83.5855 27.7697 83.9344 27.4931C85.1089 26.5445 86.2068 25.528 87.3138 24.5017C96.2478 16.3799 120.827 16.3346 132.57 14.6615C134.454 14.3912 136.336 14.1086 138.218 13.8253C138.819 13.7352 139.421 13.6451 140.041 13.5523C141.311 13.3591 142.579 13.1586 143.848 12.9531V12.9531Z" fill="#278829"/>
<path d="M308.269 28.6077C309.249 28.8867 309.213 30.0332 308.219 30.2532C307.777 30.351 307.33 30.4434 306.877 30.5405C306.157 30.7095 305.436 30.88 304.716 31.0517C295.955 33.1273 289.876 32.8288 281.235 30.5752C278.377 29.8328 275.507 29.1504 272.629 28.4968C270.446 28.0008 268.217 29.2493 267.721 31.4325V31.4325C267.632 31.8206 267.543 32.2087 267.451 32.6086C267.36 33.0104 267.269 33.4123 267.175 33.8263C266.84 35.294 266.621 36.2552 266.47 36.9015C266.279 37.7183 266.817 38.6356 267.642 38.7893V38.7893C273.569 40.2408 279.5 41.7618 285.376 43.4536C289.571 44.6615 289.803 49.8125 285.465 50.3014C278.801 51.0524 272.149 49.5875 265.185 47.7388C264.411 47.5335 263.631 48.0519 263.525 48.8452V48.8452C263.226 50.9159 262.801 52.951 262.357 54.9947C261.771 57.7149 261.764 57.7502 261.241 60.4105C261.227 60.48 261.205 60.5485 261.176 60.6129V60.6129C260.94 61.1287 261.233 61.7327 261.784 61.8652C261.995 61.9158 262.234 61.973 262.649 62.0728C274.267 64.8755 285.807 67.9646 297.132 71.7865C298.209 72.15 298.269 73.6119 297.166 73.8882V73.8882C296.397 74.1741 295.63 74.4636 294.866 74.7625C293.715 75.1717 293.715 75.1717 292.433 75.507C291.315 75.8009 290.21 76.1428 289.112 76.5061C285.433 77.7189 285.433 77.7189 283.261 77.0489C282.853 76.9229 282.445 76.7969 282.024 76.6672C281.12 76.3874 280.218 76.1057 279.316 75.8221C275.82 74.726 272.311 73.6975 268.78 72.7188C268.251 72.5718 267.722 72.4247 267.177 72.2733C255.74 69.066 255.715 69.059 244.126 66.7678C244.076 66.7581 244.027 66.7425 243.982 66.7217V66.7217C243.704 66.5945 243.554 66.2875 243.624 65.9901C244.938 60.4264 244.945 60.3961 245.192 59.3504C245.372 58.5908 245.551 57.8312 245.73 57.0716C246.165 55.2301 246.6 53.3887 247.037 51.5479C247.181 50.9413 247.325 50.3346 247.474 49.7095C247.601 49.1749 247.728 48.6404 247.859 48.0896V48.0896C248.381 45.8298 246.925 43.6034 244.646 43.1746C243.091 42.8821 241.532 42.6125 239.968 42.3505C239.076 42.2008 238.185 42.0506 237.294 41.8999C236.904 41.8345 236.514 41.7691 236.112 41.7018V41.7018C235.428 41.5771 235.389 40.695 236.052 40.4885C236.739 40.2748 237.43 40.0732 238.125 39.8715C241.502 38.8857 244.877 37.8498 248.094 36.4273C249.306 35.891 250.22 34.8411 250.546 33.5556C250.73 32.8293 250.886 32.0988 251.03 31.3243C251.164 30.6098 251.164 30.6098 251.301 29.881C251.439 29.1384 251.439 29.1384 251.58 28.3807C251.763 27.3964 251.947 26.4121 252.132 25.428C252.213 24.9921 252.294 24.5562 252.377 24.1071C252.416 23.9163 252.448 23.7611 252.475 23.6314C252.596 23.0596 252.276 22.4392 251.701 22.3347V22.3347C249.999 22.0253 248.298 21.7154 246.596 21.4055C245.713 21.245 245.713 21.245 244.812 21.0812C244.242 20.9775 243.673 20.8737 243.087 20.7668C242.302 20.6242 242.302 20.6242 241.502 20.4786V20.4786C240.316 20.2565 240.253 18.8271 241.431 18.5651C241.557 18.5372 241.683 18.5093 241.809 18.4812C243.38 18.1142 244.921 17.6567 246.468 17.2037C246.888 17.1005 247.308 16.9974 247.74 16.8911C249.203 16.5174 250.624 16.0502 252.058 15.5778C263.562 11.9114 285.929 22.1004 297.303 25.4669C299.129 26.0054 300.958 26.5317 302.787 27.0574C303.371 27.226 303.956 27.3945 304.558 27.5682C305.794 27.9212 307.03 28.2667 308.269 28.6077V28.6077Z" fill="#278829"/>
<path d="M68.0802 30.9746C68.6242 31.1756 69.207 31.4564 69.4317 31.991C69.4407 32.0125 69.4493 32.0347 69.4576 32.0577C69.7409 32.8473 69.5576 33.7366 69.1673 34.4791C68.0359 36.6311 66.2666 38.1777 64.4836 39.9343C63.9116 40.4994 63.34 41.0649 62.7689 41.631C62.5167 41.8796 62.2644 42.1282 62.0046 42.3844C61.2643 43.1414 60.5745 43.9311 59.8776 44.728C58.9431 45.6625 58.0085 46.5971 57.074 47.5316C56.6015 48.0611 56.1339 48.595 55.6721 49.1337C54.8718 50.0022 54.0707 50.8699 53.269 51.7371C52.0191 53.1037 50.836 54.5086 49.6643 55.9426C49.603 56.0039 49.5416 56.0653 49.4802 56.1267C49.1883 56.4186 49.2903 56.9139 49.6737 57.0667V57.0667C54.2548 58.9034 58.7855 60.8228 63.2836 62.8524C65.7628 63.9709 68.2529 65.0645 70.7425 66.1595C73.5535 67.3988 76.3441 68.678 79.1269 69.9796C81.8144 71.1151 83.6575 71.4205 86.3644 70.4171C86.4624 70.3808 86.5638 70.351 86.6663 70.3305C86.795 70.3048 86.924 70.279 87.0538 70.253C87.3453 70.1947 87.6444 70.2658 87.8765 70.4515V70.4515C88.247 70.7478 88.398 71.2875 88.1222 71.6736C87.9581 71.9033 87.7497 72.0903 87.2632 72.5267C85.6735 73.9609 84.0951 75.4066 82.5321 76.8698C79.3812 79.6992 76.5203 82.2569 72.3039 82.5494C71.7678 82.5866 71.2317 82.4936 70.7265 82.3106C67.367 81.0936 64.1554 79.3162 60.954 77.7585C58.0073 76.3257 55.0474 74.9278 52.0674 73.5655C51.2105 73.1702 51.2105 73.1702 50.3363 72.7668C45.5136 70.5613 40.6059 68.6307 35.6461 66.7567V66.7567C35.1411 66.5547 34.9657 65.9285 35.3009 65.5003C36.8622 63.5057 38.5512 61.6288 40.2521 59.7475C40.4834 59.4832 40.7147 59.2188 40.953 58.9465C41.7782 58.0034 42.6167 57.0731 43.4562 56.1428C43.7412 55.8248 44.0262 55.5068 44.3199 55.1791C45.8185 53.5206 47.3354 51.88 48.8758 50.2602C50.7502 48.2576 51.4338 47.5272 51.9504 46.2397C52.6858 44.4068 51.8638 42.1961 49.919 41.8515C48.0347 41.5176 45.9692 41.7875 44.0821 41.9118C43.4754 41.9508 42.8688 41.9898 42.2437 42.03V42.03C41.7618 42.0627 41.5029 41.4862 41.8557 41.1563C43.2714 39.8326 44.768 38.5962 46.2474 37.3434C48.3281 35.5389 50.3204 33.6584 52.2677 31.7111C55.5033 29.0147 63.7902 29.3896 68.0802 30.9746Z" fill="#278829"/>
<path d="M20.717 43.2782C21.3213 43.5652 21.8575 43.9842 22.2683 44.5122C26.3246 49.726 28.3803 56.996 30.8587 63.0241C31.3723 64.2732 31.8883 65.5213 32.4047 66.7692C32.687 67.4519 32.687 67.4519 32.9749 68.1484C33.6731 69.8314 34.3744 71.5131 35.0761 73.1947C38.6798 81.8325 40.0442 85.1025 40.5073 86.554C40.7979 87.4648 40.2833 88.3331 39.5871 88.9883C39.4417 89.1251 39.2963 89.2619 39.1509 89.3987C38.7327 89.7925 38.7327 89.7925 38.3061 90.1942C37.7399 90.7186 37.1658 91.2344 36.5835 91.7408C35.7913 92.4388 35.1356 93.1942 34.4448 93.9921C34.1227 94.3102 33.8005 94.6282 33.4685 94.9559C32.4486 95.9883 31.5491 97.0675 30.6399 98.1976V98.1976C29.8148 99.1357 28.3558 99.052 27.818 97.9244C27.3737 96.9929 26.9985 96.021 26.5846 95.0811C26.3157 94.4732 26.3157 94.4732 26.0414 93.8531C24.7028 90.8203 23.391 87.7767 22.0897 84.7277C17.1162 71.369 16.9436 70.9054 8.72818 60.8685C8.13023 60.1379 7.33829 59.4923 6.39426 59.4886C5.31838 59.4843 4.49733 59.9841 3.29581 60.6009C3.10407 60.6993 2.93268 60.8344 2.79471 60.9999C2.71341 61.0975 2.63199 61.1952 2.5503 61.2932C2.2294 61.6783 1.69228 61.7953 1.24394 61.5711V61.5711C0.615401 61.2568 0.443552 60.4326 0.91838 59.9145C1.78721 58.9666 2.68698 58.0619 3.60469 57.1442C3.91795 56.7814 3.91795 56.7814 4.23755 56.4112C5.58937 54.8834 7.06784 53.4783 8.51733 52.0438C9.3879 51.1633 10.2115 50.2751 11.0143 49.334C17.2193 42.4642 17.7548 41.8714 20.717 43.2782Z" fill="#278829"/>
<path d="M333.21 39.1552L331.563 39.1567C327.118 39.1525 322 39.5 318.5 40.7839L316 42L314 43C313 43.5 312.066 44.8017 312 45C312 45 310 48 310.5 50.5C311 53 311.05 52.9328 311.725 54.4016C312.4 55.8703 316 58 316 58C317 58.5 316.531 58.4068 319.335 60.0089L321.538 61.2104L322.351 61.6571L323.428 62.2493L324.491 62.8337L325.543 63.4133C326.448 63.9106 327.344 64.414 328.231 64.9434C329.064 65.4457 329.907 65.9318 330.75 66.4172L331.751 67.018C335.735 69.01 339.525 71.6081 342.966 74.4276L344.368 75.8295L345.369 76.6305L345.97 77.8321L346.57 78.4329C347.074 81.1405 347.143 82.5222 345.769 85.0415L344.568 85.8425L344.368 86.4433L343.967 86.243C343 86.5 341.464 86.9872 339.964 86.9872C339.202 86.9432 338.177 86.8407 337.923 86.7394C337.702 86.6514 332.215 85.0348 331.998 84.9483L330.883 84.5032C328.105 83.3955 325.641 81.972 323.423 79.9223L322.647 79.0837C321.489 77.8656 320.385 76.6737 319.393 75.3163L319.24 75.0839C319.027 74.7592 318.852 74.4108 318.72 74.0457L318.31 72.9157C318.162 72.5081 317.966 72.117 317.679 71.7918C317.259 71.3155 316.578 70.6801 315.953 70.6996C312.619 70.8035 309.288 71.1947 305.984 71.6268C305.506 71.6647 303.836 71.9952 303.36 72.0566C303.268 72.0684 303.177 72.0889 303.089 72.1172C301.9 72.4992 300.929 72.7987 300.141 73.5563C299.598 74.0774 299.52 74.8919 299.703 75.6217C299.779 75.9277 299.904 76.2156 300.082 76.4761C301.796 78.9875 304.019 81.1473 306.651 82.6884L307.287 83.0163C307.38 83.0644 307.466 83.1273 307.54 83.2014C307.599 83.2602 307.663 83.3102 307.734 83.3532C309.938 84.6828 313.781 86.4023 316.29 87.4156C316.43 87.4722 316.571 87.5213 316.716 87.5642C317.361 87.7556 319.274 88.3198 320 88.5C320.808 88.7008 321.741 88.7028 322.57 88.88C322.621 88.8909 322.674 88.8964 322.727 88.8964C322.807 88.8964 322.886 88.9095 322.963 88.9349C324.182 89.3409 324.291 89.3625 327.304 89.8725C327.381 89.8855 327.453 89.8252 327.453 89.7473C327.453 89.6436 327.572 89.5866 327.656 89.6481C328.388 90.188 328.571 90.2039 330.888 90.4054L331.479 90.4514C332.545 90.6235 334.578 90.9954 335.063 91.0493C335.063 91.0493 338.095 91.4498 338.36 91.4498C341.463 91.4946 344.484 91.3743 347.572 91.0493L347.772 90.849H349.174L349.374 90.6488C349.574 90.6488 349.574 90.6488 351.376 90.4486L351.377 90.4485V90.2482H351.618C351.618 90.3844 351.777 90.1161 351.777 90.2482C355.751 90.2482 360.697 88.9534 363.793 86.4433C365.201 84.8341 365.917 83.3885 365.996 81.2365C364.737 75.5725 360.098 72.1952 355.582 69.0206C355.242 68.9525 354.573 69.3595 354.573 69.3595C354.573 69.3595 354.581 68.552 354.581 68.4198L353.737 67.884L352.591 67.1557C351.464 66.4399 350.338 65.7235 349.223 64.9888C347.906 64.119 346.602 63.3275 345.194 62.6123L343.967 62.0115C343.366 61.4107 343.366 61.4107 342.53 60.8897C339.097 58.8694 335.614 56.8566 332.627 54.2013L331.751 53.4003L330.95 52.9998V52.5992H330.55C330.324 51.9234 330.324 51.9234 328.947 49.9958H328.547C328.547 48.8591 328.239 47.6082 328.747 46.5914C330.082 44.9683 331.279 44.0289 333.353 43.5875C339.413 43.2555 345.467 44.9488 350.112 48.982C350.976 49.7956 350.976 49.7956 351.777 50.1961L352.578 50.5966L353.179 51.9985L354.18 52.399L353.98 52.9998C354.566 54.224 355.018 55.239 355.983 56.2039H358.386C358.786 56.4042 358.786 56.4042 360.589 56.4042V56.0037L361.189 55.6031L361.39 56.6045H363.192C363.793 56.8047 363.793 56.8047 364.932 56.8172L365.996 56.8047L366.196 57.005H368.599L368.799 57.2052H371.803L372.604 56.2039L372.404 54.4016C370.668 51.6566 368.245 49.8133 365.595 47.9932L364.594 47.793V47.3925C362.682 46.3 360.734 45.311 358.711 44.4386L357.585 43.988C351.338 41.4229 344.308 39.8419 337.559 39.5823L337.358 39.7826L337.158 39.382C335.838 39.2522 334.537 39.178 333.21 39.1552Z" fill="#278829"/>
</svg>
