<svg width="373" height="100" viewBox="0 0 373 100" fill="none" xmlns="http://www.w3.org/2000/svg">
<path d="M333.21 39.1552L331.563 39.1567C327.118 39.1525 322 39.5 318.5 40.7839C317.148 41.2799 315.538 41.7872 314 43C313.133 43.6838 312.637 44.0978 312 45C310.715 46.8184 310.35 48.2787 310.5 50.5C310.607 52.0934 310.9 53.034 311.725 54.4016C312.852 56.2703 316 58 316 58C316 58 324.301 62.5967 328.231 64.9434C329.064 65.4457 329.907 65.9318 330.75 66.4172L331.751 67.018C337.665 69.9751 353.158 80.0489 345.769 85.0415C343.788 86.3802 342.695 86.9872 339.964 86.9872C336.793 86.8037 333.803 85.6684 330.883 84.5032C328.105 83.3955 325.641 81.972 323.423 79.9223C322.037 78.4243 320.6 76.9675 319.393 75.3163C318.78 74.3826 318.468 73.3518 318.087 72.3017C315.53 68.6286 306.573 70.9983 303.089 72.1172C301.9 72.4992 300.929 72.7987 300.141 73.5563C299.598 74.0774 299.52 74.8919 299.703 75.6217C299.779 75.9277 299.904 76.2156 300.082 76.4761C301.796 78.9875 304.019 81.1473 306.651 82.6884C307.042 82.8899 307.308 83.0989 307.734 83.3532C310.986 85.294 316.5 87.5 316.5 87.5C316.5 87.5 318.625 88.1408 320 88.5C324.039 89.5547 330.5 90.5 330.5 90.5C330.5 90.5 334.468 90.9832 335.063 91.0493C335.658 91.1154 337.068 91.339 338.36 91.4498C348.446 92.3144 358.162 91.0088 363.793 86.4433C365.201 84.8341 365.917 83.3885 365.996 81.2365C364.611 75.0039 357.644 70.3647 353.737 67.884C350.018 65.5207 346.268 63.2186 342.53 60.8897C339.097 58.8694 335.614 56.8566 332.627 54.2013C330.59 52.3386 327.179 49.7273 328.747 46.5914C330.082 44.9683 331.279 44.0289 333.353 43.5875C339.413 43.2555 345.467 44.9488 350.112 48.982C352.6 51.325 353.888 53.5664 355.983 56.2039C359.691 57.1061 368.046 58.5694 371.803 57.2052C372.63 56.1717 372.549 55.7108 372.404 54.4016C370.668 51.6566 364.594 47.3925 364.594 47.3925C362.686 46.2915 360.734 45.311 358.711 44.4386L357.585 43.988C349.999 40.873 341.104 39.2911 333.21 39.1552Z" fill="#278829"/>
<path d="M146.591 12.6863C145.6 13.6776 144.512 14.4509 143.387 15.2897C142.802 15.7433 142.218 16.1982 141.635 16.654C134.532 22.1878 128.88 24.4468 120.086 25.9941C115.883 26.738 111.711 27.6058 107.54 28.5069C107.689 29.8434 107.881 31.0885 108.154 32.3987C108.235 32.7886 108.316 33.1786 108.399 33.5803C108.483 33.9837 108.567 34.387 108.654 34.8026C109.543 39.0733 109.543 39.0733 109.543 39.5213C110.071 39.3891 110.6 39.2569 111.145 39.1207C120.888 37.2557 130.714 35.5544 140.583 34.5147C133.14 44.4389 122.675 46.6074 111.145 48.533C111.291 49.0098 111.437 49.4866 111.587 49.9778C112.177 51.9849 112.638 54.0122 113.085 56.0553C113.692 58.8084 113.692 58.8084 114.349 61.5499C114.349 61.9464 114.349 62.3429 114.349 62.7515C115.313 62.5625 115.313 62.5625 116.296 62.3697C129.048 59.8832 141.857 57.7431 154.802 56.5434C153.6 57.9452 153.6 57.9452 152.599 58.7463C152.019 59.3262 151.442 59.9089 150.872 60.4986C149.995 61.3497 149.995 61.3497 148.969 62.1882C148.075 62.9207 147.212 63.6917 146.366 64.4787C143.525 67.113 143.525 67.113 141.272 67.4075C140.848 67.463 140.424 67.5185 139.987 67.5757C139.049 67.6972 138.111 67.8168 137.173 67.9344C133.538 68.3928 129.919 68.9183 126.302 69.4978C125.76 69.5843 125.218 69.6708 124.659 69.76C112.899 71.608 112.899 71.608 101.332 74.3666C101.134 74.3666 100.936 74.3666 100.731 74.3666C99.5071 68.2453 99.5071 68.2453 99.2901 67.1603C99.137 66.395 98.9839 65.6297 98.8307 64.8644C98.4594 63.0091 98.0887 61.1537 97.7204 59.2978C97.5988 58.6862 97.4772 58.0747 97.3519 57.4446C97.245 56.9056 97.1382 56.3666 97.028 55.8112C96.7481 54.4476 96.4449 53.092 96.1253 51.7372C93.2113 52.3583 90.3404 53.1021 87.464 53.8774C86.5912 54.1124 85.7182 54.3468 84.845 54.5807C84.4631 54.6836 84.0813 54.7865 83.6878 54.8926C82.7079 55.1416 82.7079 55.1416 81.5063 55.3418C82.5457 54.3025 83.6442 53.3502 84.7566 52.3903C87.9386 49.6371 91.0872 46.8203 93.7222 43.5265C93.5558 42.0292 93.2971 40.7021 92.9329 39.2475C92.7577 38.5419 92.7577 38.5419 92.5789 37.8222C92.3952 37.0895 92.3952 37.0895 92.2077 36.3421C91.9649 35.3707 91.7226 34.3991 91.481 33.4274C91.3732 32.9973 91.2654 32.5673 91.1543 32.1242C90.9185 31.1103 90.9185 31.1103 90.9185 30.5095C90.3657 30.6504 90.3657 30.6504 89.8017 30.7941C88.1256 31.2211 86.4493 31.6476 84.773 32.0741C83.9031 32.2958 83.9031 32.2958 83.0157 32.5219C82.4548 32.6645 81.894 32.8072 81.3162 32.9541C80.5438 33.1508 80.5438 33.1508 79.7558 33.3514C78.4066 33.6877 77.0547 34.0064 75.6987 34.3145C76.7874 33.2259 77.9776 32.3352 79.2033 31.4076C80.4785 30.4202 81.6896 29.3627 82.9081 28.3067C83.2468 28.0382 83.5855 27.7697 83.9344 27.4931C85.1089 26.5445 86.2068 25.528 87.3138 24.5017C96.2478 16.3799 120.827 16.3346 132.57 14.6615C134.454 14.3912 136.336 14.1086 138.218 13.8253C138.819 13.7352 139.421 13.6451 140.041 13.5523C141.311 13.3591 142.579 13.1586 143.848 12.9531C145.59 12.6863 145.59 12.6863 146.591 12.6863Z" fill="#278829"/>
<path d="M188.395 10.2857L189.708 10.2857L190.418 10.2857C200.79 10.0586 213.027 11.5333 220.978 18.9161C222.569 20.8721 223.259 22.4001 223.181 24.9239C221.734 29.2654 218.12 31.4119 214.2 33.435C211.715 34.6555 209.177 35.6405 206.559 36.539C207.461 37.9354 207.461 37.9354 208.562 38.7419C209.032 39.2737 209.499 39.808 209.964 40.344C210.348 40.7219 210.348 40.7219 210.74 41.1075C211.688 42.0699 212.516 43.101 213.368 44.1489C213.698 44.5124 214.029 44.8759 214.369 45.2504C215.344 46.3228 216.258 47.4314 217.173 48.5547C217.437 48.819 217.702 49.0834 217.974 49.3557C217.974 49.554 217.996 49.4568 217.996 49.661C218.261 49.7932 218.503 50.2208 218.775 50.357C219.679 51.2369 220.57 52.1237 221.454 53.023C223.358 54.9588 223.358 54.9588 225.384 56.7654C225.384 56.8975 225.384 56.6861 225.384 56.8222C225.714 56.9544 226.045 57.4302 226.385 57.5664C226.991 57.9596 227.592 58.3593 228.187 58.768C229.046 58.9002 229.906 59.0323 230.791 59.1685C231.253 59.565 231.716 59.9615 232.193 60.3701C232.126 60.5022 232.06 60.6344 231.992 60.7706C226.785 62.3727 226.785 62.3678 226.385 62.1675C226.385 62.2997 226.385 62.4368 226.385 62.5729C225.338 62.9367 224.291 63.2995 223.243 63.6618C222.369 63.965 222.369 63.965 221.476 64.2744C219.977 64.7758 219.977 64.7758 218.975 64.9761C218.381 65.2734 218.381 65.2734 217.774 65.5768C214.845 66.0483 212.919 65.7606 210.364 64.175C208.996 63.1226 207.768 62 206.559 60.7706C206.229 60.5062 205.898 60.2419 205.558 59.9695C205.088 59.4377 204.621 58.9034 204.156 58.3675C203.892 58.1031 203.627 57.8388 203.355 57.5664C202.581 56.7926 201.867 55.9913 201.152 55.1633C200.863 54.8453 200.574 54.5272 200.276 54.1995C199.656 53.5037 199.051 52.794 198.461 52.0718C197.852 51.3286 197.221 50.6021 196.571 49.8939C188.736 41.1988 188.736 41.1988 188.736 38.5417C189.006 38.4519 189.277 38.3622 189.556 38.2698C190.793 37.8577 192.03 37.4425 193.267 37.0272C193.692 36.8861 194.118 36.745 194.556 36.5997C197.478 35.6151 200.066 34.6 202.554 32.7341C202.686 32.7341 202.818 32.5377 202.954 32.5377C203.091 32.5377 203.294 32.6739 203.294 32.5377C203.426 32.5377 203.158 32.1889 203.294 32.1889C203.294 32.0567 203.355 32.0692 203.355 31.9331C203.752 31.5365 203.752 31.5365 204.156 31.132C205.15 29.1434 205.24 28.2984 204.757 26.1255C202.477 22.3848 198.832 20.9557 194.744 19.9174C191.192 19.1344 187.712 18.8935 184.087 18.9059C183.531 18.9074 182.976 18.9089 182.404 18.9104C181.982 18.9123 181.56 18.9142 181.126 18.9161C181.191 22.8181 181.259 26.72 181.33 30.6218C181.363 32.4346 181.395 34.2473 181.425 36.0601C181.591 47.2268 181.591 47.2269 182.328 58.3675C181.862 58.5928 181.396 58.8181 180.915 59.0503C174.531 62.138 174.531 62.138 168.268 65.4634C167.308 65.9774 167.308 65.9774 165.906 66.5781C165.707 65.1826 165.699 63.9034 165.715 62.4947C165.726 59.1888 165.556 55.9089 165.356 52.61C164.968 45.9417 164.66 39.2719 164.383 32.5982C164.186 26.6363 164.186 26.6363 163.503 20.7185C158.001 21.0697 152.549 21.6028 147.082 22.3205C147.082 22.1884 147.082 22.0562 147.082 21.92C147.813 21.4058 147.813 21.4058 148.559 20.8812C149.817 19.9936 151.068 19.0962 152.314 18.1902C153.881 17.0554 155.48 15.9782 157.095 14.9109C158.365 14.0465 159.633 13.1775 160.9 12.3075C162.247 12.0804 163.595 11.8555 164.943 11.6316C165.506 11.5364 165.506 11.5364 166.08 11.4392C173.986 10.1329 180.406 10.2564 188.395 10.2857Z" fill="#278829"/>
<path d="M310.874 29.507C309.561 29.9958 308.25 30.2461 306.877 30.5405C306.157 30.7095 305.436 30.88 304.716 31.0517C295.955 33.1273 289.876 32.8288 281.235 30.5752C277.105 29.5024 272.95 28.555 268.782 27.6382C268.361 28.9152 268.018 30.1274 267.721 31.4325C267.632 31.8206 267.543 32.2087 267.451 32.6086C267.36 33.0104 267.269 33.4123 267.175 33.8263C266.205 38.0793 266.205 38.0793 266.019 38.4867C266.554 38.5865 267.09 38.6864 267.642 38.7893C277.278 41.1489 286.92 43.6918 296.326 46.8542C285.428 52.7798 275.01 50.3957 263.724 47.3475C263.659 47.8417 263.593 48.336 263.525 48.8452C263.226 50.9159 262.801 52.951 262.357 54.9947C261.763 57.7507 261.763 57.7507 261.22 60.517C261.055 60.8775 260.89 61.238 260.72 61.6095C261.675 61.8388 261.675 61.8388 262.649 62.0728C275.279 65.1196 287.816 68.5049 300.086 72.8021C298.41 73.5766 298.41 73.5766 297.166 73.8882C296.397 74.1741 295.63 74.4636 294.866 74.7625C293.715 75.1717 293.715 75.1717 292.433 75.507C291.315 75.8009 290.21 76.1428 289.112 76.5061C285.433 77.7189 285.433 77.7189 283.261 77.0489C282.853 76.9229 282.445 76.7969 282.024 76.6672C281.12 76.3874 280.218 76.1057 279.316 75.8221C275.82 74.726 272.311 73.6975 268.78 72.7188C268.251 72.5718 267.722 72.4247 267.177 72.2733C255.715 69.059 255.715 69.059 244.049 66.7527C243.869 66.6702 243.689 66.5877 243.503 66.5027C244.938 60.4273 244.938 60.4273 245.192 59.3504C245.372 58.5908 245.551 57.8312 245.73 57.0716C246.165 55.2301 246.6 53.3887 247.037 51.5479C247.181 50.9413 247.325 50.3346 247.474 49.7095C247.601 49.175 247.728 48.6404 247.859 48.0896C248.172 46.7331 248.461 45.3744 248.734 44.0095C245.826 43.3614 242.906 42.8427 239.968 42.3505C239.076 42.2008 238.185 42.0506 237.294 41.8999C236.904 41.8345 236.514 41.7691 236.112 41.7018C235.117 41.5203 235.117 41.5203 233.941 41.2023C235.319 40.6898 236.714 40.2812 238.125 39.8715C242.164 38.6924 246.2 37.4417 249.966 35.5435C250.438 34.1129 250.756 32.7986 251.03 31.3243C251.164 30.6098 251.164 30.6098 251.301 29.881C251.439 29.1384 251.439 29.1384 251.58 28.3807C251.763 27.3964 251.947 26.4121 252.132 25.428C252.213 24.9921 252.294 24.5562 252.377 24.1071C252.585 23.0871 252.585 23.0871 252.835 22.5408C252.274 22.4388 252.274 22.4388 251.701 22.3347C249.999 22.0253 248.298 21.7154 246.596 21.4055C245.713 21.245 245.713 21.245 244.812 21.0812C244.242 20.9775 243.673 20.8737 243.087 20.7668C242.302 20.6242 242.302 20.6242 241.502 20.4786C240.136 20.2228 238.774 19.9499 237.413 19.6657C238.856 19.1289 240.309 18.8145 241.809 18.4812C243.38 18.1142 244.921 17.6567 246.468 17.2037C246.888 17.1005 247.308 16.9974 247.74 16.8911C249.203 16.5174 250.624 16.0502 252.058 15.5778C263.562 11.9114 285.929 22.1004 297.303 25.4669C299.129 26.0054 300.958 26.5317 302.787 27.0574C303.371 27.226 303.956 27.3945 304.558 27.5682C305.794 27.9212 307.03 28.2667 308.269 28.6077C309.964 29.0902 309.964 29.0902 310.874 29.507Z" fill="#278829"/>
<path d="M68.8893 31.3105C69.4901 31.9113 69.4901 31.9113 69.6904 33.3131C68.6429 36.1064 66.5727 37.8761 64.4836 39.9343C63.9116 40.4994 63.34 41.0649 62.7689 41.631C62.5167 41.8796 62.2644 42.1282 62.0046 42.3844C61.2643 43.1414 60.5745 43.9311 59.8776 44.728C58.9431 45.6625 58.0085 46.5971 57.074 47.5316C56.6015 48.0611 56.1339 48.595 55.6721 49.1337C54.8718 50.0022 54.0707 50.8699 53.269 51.7371C52.0191 53.1037 50.836 54.5086 49.6643 55.9426C49.4 56.2069 49.1356 56.4713 48.8633 56.7436C49.2644 56.9036 49.2644 56.9036 49.6737 57.0667C54.2548 58.9034 58.7855 60.8228 63.2836 62.8524C65.7628 63.9709 68.2529 65.0645 70.7425 66.1595C73.5535 67.3988 76.3441 68.678 79.1269 69.9796C81.8631 71.1356 83.7239 71.4313 86.5123 70.3613C86.8427 70.2953 87.1731 70.2292 87.5136 70.1611C87.844 70.4254 88.1744 70.6898 88.5149 70.9621C88.1143 71.7632 88.1143 71.7632 87.2632 72.5267C85.6735 73.9609 84.0951 75.4066 82.5321 76.8698C79.1833 79.8769 76.162 82.5772 71.4927 82.5772C67.8538 81.3643 64.398 79.4342 60.954 77.7585C58.0073 76.3257 55.0474 74.9278 52.0674 73.5655C51.2105 73.1702 51.2105 73.1702 50.3363 72.7668C45.5136 70.5613 40.6059 68.6307 35.6461 66.7567C35.3156 66.6245 34.9852 66.4923 34.6448 66.3561C36.3835 64.0379 38.31 61.8956 40.2521 59.7475C40.4834 59.4832 40.7147 59.2188 40.953 58.9465C41.7782 58.0034 42.6167 57.0731 43.4562 56.1428C43.7412 55.8248 44.0262 55.5068 44.3199 55.1791C45.8185 53.5206 47.3354 51.88 48.8758 50.2602C51.8262 47.108 51.8262 47.108 52.8685 43.1259C50.4201 41.1672 47.0331 41.7174 44.0821 41.9118C43.4754 41.9508 42.8688 41.9898 42.2437 42.03C41.5552 42.0768 41.5552 42.0768 40.8529 42.1246C42.553 40.4245 44.4134 38.8965 46.2474 37.3434C48.3281 35.5389 50.3204 33.6584 52.2677 31.7111C55.7211 28.8332 64.9286 29.4539 68.8893 31.3105Z" fill="#278829"/>
<path d="M21.6281 43.7267C26.1148 48.9771 28.2532 56.6869 30.8587 63.0241C31.3723 64.2732 31.8883 65.5213 32.4047 66.7692C32.687 67.4519 32.687 67.4519 32.9749 68.1484C33.6731 69.8314 34.3744 71.5131 35.0761 73.1947C40.8753 87.0947 40.8753 87.0947 40.6529 87.9843C40.1526 88.4561 39.6518 88.9275 39.1509 89.3987C38.7327 89.7925 38.7327 89.7925 38.3061 90.1942C37.7399 90.7186 37.1658 91.2344 36.5835 91.7408C35.7913 92.4388 35.1356 93.1942 34.4448 93.9921C34.1227 94.3102 33.8005 94.6282 33.4685 94.9559C32.4486 95.9883 31.5491 97.0676 30.6399 98.1976C30.109 98.8012 29.5761 99.403 29.0378 100C27.9364 98.5315 27.3219 96.7556 26.5846 95.0811C26.3157 94.4732 26.3157 94.4732 26.0414 93.8531C24.7028 90.8203 23.391 87.7767 22.0897 84.7277C16.9374 70.8887 16.9374 70.8887 7.81016 59.7476C5.79368 59.0754 4.86384 59.8189 3.00391 60.7489C2.67348 61.1454 2.34305 61.5419 2.00261 61.9505C1.34175 61.62 0.680886 61.2896 0 60.9491C1.14687 59.6111 2.35925 58.3896 3.60469 57.1442C3.91795 56.7814 3.91795 56.7814 4.23755 56.4112C5.58937 54.8834 7.06784 53.4783 8.51733 52.0438C9.3879 51.1633 10.2115 50.2751 11.0143 49.334C17.8054 41.8154 17.8054 41.8154 21.6281 43.7267Z" fill="#278829"/>
</svg>
