<svg width="142" height="142" viewBox="0 0 142 142" fill="none" xmlns="http://www.w3.org/2000/svg">
<path fill-rule="evenodd" clip-rule="evenodd" d="M113.012 122.907C108.523 127.998 103.11 132.258 97.038 135.421C83.3764 142.537 66.1676 143.508 51.8006 138.018C45.1547 135.476 39.1223 131.689 33.9942 126.942C22.9727 116.739 16.2576 101.355 16.2576 86.3708C16.2576 55.8439 41.0055 31.096 71.5338 31.096C102.061 31.096 126.809 55.8439 126.809 86.3708C126.809 91.1482 126.202 95.7843 125.062 100.204C123.105 107.803 118.117 117.117 113.012 122.907Z" fill="#92D669"/>
<path fill-rule="evenodd" clip-rule="evenodd" d="M126.511 89.6711C126.396 89.674 126.29 89.2709 126.266 89.1808C126.253 89.1314 126.211 88.9657 126.2 88.6417C126.189 88.2844 126.23 88.2183 126.217 88.0046C126.195 87.6665 126.066 87.4425 126.004 87.3019C125.727 86.6729 126.107 86.1634 126.135 85.1942C126.166 84.086 125.713 83.1713 125.645 83.1845C125.61 83.191 125.653 83.4381 125.677 84.0506C125.691 84.3794 125.685 84.4736 125.677 85.4883C125.666 87.0406 125.684 86.2011 125.677 87.2039C125.673 87.8126 125.667 88.0422 125.743 88.3966C125.852 88.9099 125.959 88.8693 126.053 89.2951C126.136 89.6697 126.076 89.8032 125.939 91.3048C125.907 91.655 125.891 91.8321 125.89 91.9256C125.881 92.6627 126.053 92.8307 125.972 93.2984C125.889 93.7773 125.697 93.6679 125.628 94.1477C125.571 94.5483 125.694 94.703 125.628 95.3734C125.618 95.4782 125.608 95.5457 125.628 95.553C125.693 95.5759 125.976 94.9633 126.216 94.4073C126.229 94.3763 126.238 94.3437 126.243 94.3103C126.46 92.8023 126.615 91.2752 126.708 89.7309C126.712 89.664 126.578 89.6694 126.511 89.6711ZM124.795 76.077C124.672 76.0862 124.58 76.7761 124.648 77.4168C124.739 78.2678 125.117 79.0659 125.252 79.0345C125.406 78.9987 125.268 77.906 125.187 77.4168C125.166 77.2903 124.961 76.0645 124.795 76.077ZM105.254 51.7158C105.039 51.8068 104.713 51.7422 104.6 51.5522C104.419 51.248 104.961 50.9168 104.894 50.376C104.813 49.7133 103.908 49.4585 104.012 49.1015C104.061 48.9349 104.299 48.8459 104.469 48.8402C105.009 48.8214 105.492 49.6145 105.613 50.2777C105.698 50.7409 105.677 51.536 105.254 51.7158ZM95.2462 56.0128C95.2246 56.1786 94.9112 56.2487 94.8175 56.2702C94.5328 56.3344 94.3586 56.2731 93.7266 56.1475C93.1665 56.0365 93.0151 56.0272 92.8566 56.1109C92.8189 56.131 92.6147 56.2384 92.5505 56.4538C92.4242 56.8751 92.9595 57.2849 92.8322 57.4466C92.7606 57.537 92.545 57.4688 92.5136 57.4588C92.1182 57.3334 92.0409 56.8 92.0356 56.7602C92.0293 56.7126 92.0046 56.495 92.1092 56.2457C92.1374 56.1783 92.259 55.8877 92.5136 55.7677C92.7734 55.6452 92.9189 55.8197 93.6776 55.9762C94.2169 56.0871 94.4913 56.1393 94.7191 55.9882C94.8578 55.8964 94.948 55.7528 95.0746 55.7801C95.1729 55.801 95.2588 55.9175 95.2462 56.0128ZM83.3105 56.4416C83.2663 56.4452 83.1525 56.4503 82.8694 56.3682C82.5877 56.2867 82.4471 56.2457 82.4406 56.1721C82.4333 56.0887 82.5998 55.9957 82.7345 55.9638C82.9255 55.9186 83.0862 55.9879 83.286 56.074C83.4294 56.1358 83.6542 56.2331 83.6415 56.3192C83.6273 56.4159 83.3245 56.4406 83.3105 56.4416ZM83.3966 57.9613C83.37 58.0941 83.2088 58.1858 83.0777 58.194C82.8854 58.2062 82.6998 58.042 82.6858 57.8876C82.6711 57.7321 82.841 57.6961 82.8448 57.5324C82.851 57.29 82.484 57.1985 82.5018 56.9688C82.5113 56.8466 82.6254 56.7336 82.6858 56.748C82.7467 56.7626 82.7413 56.9051 82.7714 57.0421C82.8865 57.5656 83.45 57.692 83.3966 57.9613ZM82.0608 57.9613C82.0012 57.9987 81.9081 58.0033 81.8401 57.9613C81.7144 57.8838 81.7699 57.7053 81.7174 57.2505C81.6821 56.9452 81.6415 56.8875 81.6929 56.7726C81.7922 56.5521 82.0812 56.4558 82.1218 56.5031C82.1664 56.5546 81.8796 56.7353 81.9013 57.0053C81.9167 57.195 82.0657 57.2093 82.134 57.471C82.173 57.6202 82.193 57.8778 82.0608 57.9613ZM80.8232 64.554C80.7642 64.6935 80.5051 64.7469 79.9897 64.8479C79.1841 65.0061 78.9178 64.9354 78.801 64.8969C78.7444 64.8785 78.5735 64.8187 78.3844 64.6889C78.1024 64.4952 78.1087 64.3717 77.931 64.2355C77.474 63.8849 76.8696 64.2714 76.5952 63.9291C76.5481 63.8703 76.4793 63.7509 76.436 63.6102C76.3984 63.4884 76.4026 63.4247 76.3869 63.2795C76.3371 62.8182 76.209 62.6925 76.3011 62.5687C76.3742 62.4704 76.4828 62.5118 76.5462 62.3972C76.5871 62.3236 76.5641 62.267 76.5462 62.0909C76.5335 61.963 76.5324 61.8606 76.5335 61.782C76.4983 61.7773 76.4718 61.7669 76.4604 61.7476C76.4316 61.6983 76.4961 61.5966 76.5218 61.6006C76.5408 61.6042 76.5346 61.6661 76.5335 61.782C76.7486 61.8103 77.3318 61.5946 77.3183 61.4903C77.309 61.4185 77.0241 61.4649 76.6199 61.2576C76.456 61.1737 76.3623 61.094 76.3257 61.0615C76.1675 60.9207 76.1117 60.7991 76.0316 60.6817C75.8842 60.4661 75.8243 60.5152 75.37 60.1302C75.1054 59.9059 75.1872 59.9414 74.7817 59.5787C74.6647 59.4742 74.5406 59.3661 74.4016 59.1868C74.3066 59.0635 74.2589 59.0017 74.2305 58.9294C74.0952 58.5881 74.3318 58.2902 74.2058 58.1818C74.1365 58.1222 74.0617 58.2099 73.8994 58.1696C73.6787 58.1148 73.4812 57.8698 73.495 57.6549C73.5018 57.5471 73.5548 57.5514 73.7033 57.2749C73.8461 57.0088 73.8214 56.959 73.9241 56.8583C74.0059 56.7778 74.1009 56.7393 74.2914 56.6624C74.5179 56.5709 74.5539 56.5944 74.6958 56.5154C74.8213 56.4452 74.7868 56.4303 74.99 56.2824C75.243 56.0982 75.2975 56.1207 75.4066 55.9882C75.4629 55.9202 75.4863 55.8679 75.5659 55.817C75.6569 55.7579 75.7479 55.7482 75.7989 55.7433C76.3483 55.6904 76.8089 55.7511 76.8389 55.7552C76.84 55.7554 76.841 55.7555 76.8421 55.7557C77.0073 55.7791 77.0898 55.7908 77.1711 55.817C77.3167 55.8633 77.6484 55.9692 77.7595 56.2333C77.8383 56.4213 77.7262 56.4999 77.8207 56.6871C77.8917 56.8271 78.0347 56.9398 78.1883 56.981C78.4353 57.0468 78.5592 56.8864 78.703 56.9688C78.8764 57.0677 78.9264 57.4312 78.801 57.5324C78.6618 57.6452 78.3056 57.4326 78.0412 57.2749C77.5927 57.0072 77.4355 56.7723 77.2326 56.8342C77.1578 56.8567 77.1734 56.89 76.9873 57.0668C76.7218 57.3196 76.6226 57.3155 76.485 57.4835C76.4349 57.5444 76.2553 57.7636 76.2767 57.9856C76.3032 58.2631 76.621 58.3202 77.208 58.7455C77.8137 59.1843 78.1766 59.4471 78.2498 59.8482C78.2663 59.9406 78.2839 60.1276 78.4209 60.3017C78.535 60.4464 78.7181 60.5652 78.7766 60.5224C78.8081 60.4992 78.7881 60.439 78.7766 60.3386C78.7566 60.163 78.7596 59.8301 78.8869 59.7627C79.0099 59.6971 79.2336 59.8886 79.3157 59.9588C79.5484 60.1576 79.5056 60.2749 79.7076 60.4C79.8789 60.5054 79.9707 60.4594 80.0755 60.5835C80.1641 60.6891 80.2113 60.8556 80.149 60.9269C80.1108 60.9708 80.0404 60.9662 79.9897 60.9635C79.5904 60.9418 79.361 60.929 79.1809 61.0003C79.1594 61.009 78.9793 61.0833 78.8745 61.2701C78.7829 61.4334 78.752 61.6778 78.85 61.7476C78.9324 61.8065 79.0294 61.6867 79.2667 61.6867C79.443 61.6865 79.6681 61.7526 79.6955 61.8702C79.7126 61.9427 79.6524 62.0253 79.5606 62.1521C79.475 62.2707 79.4327 62.287 79.4381 62.3239C79.4541 62.4256 79.7892 62.3482 80.0265 62.4953C80.3285 62.6827 80.1682 63.0471 80.4553 63.7205C80.6704 64.2246 80.905 64.3598 80.8232 64.554ZM69.7002 60.3101C69.4716 60.5059 68.6709 60.8654 68.442 60.7021C68.2133 60.5387 67.5272 60.9635 67.4456 60.8982C67.3638 60.8326 66.4814 60.8492 66.4326 60.6205C66.3836 60.3917 65.7789 60.5059 65.7627 60.2936C65.7461 60.0812 64.8477 60.3427 64.7823 59.9834C64.7171 59.6237 63.1974 59.9503 62.5763 60.4082C61.9557 60.8654 61.0406 60.8492 60.665 60.7183C60.2893 60.5877 59.1291 59.722 59.3089 59.6074C59.4885 59.4931 59.3089 59.0028 59.5703 58.9213C59.8314 58.8395 59.9298 58.5615 59.8805 58.382C59.8314 58.2021 59.8805 58.1368 60.1256 58.0063C60.3707 57.8754 60.1256 57.6795 60.2237 57.467C60.3217 57.2546 60.5341 57.5487 60.665 57.4017C60.7956 57.2546 60.779 57.3198 60.9589 57.2383C61.1387 57.1565 60.9589 56.9604 60.9589 56.6662C60.9589 56.372 61.0364 56.1367 61.3346 56.3233C61.7268 56.5684 61.7105 56.1437 62.0701 56.0128C62.4295 55.8822 62.3314 56.0128 62.5113 56.209C62.6908 56.4051 62.7562 56.4379 63.1812 56.4213C63.6059 56.4051 64.5534 56.3886 64.913 56.1925C65.2724 55.9966 65.1908 56.0294 65.8442 55.8329C66.4979 55.6371 66.4814 55.7352 67.0206 55.5553C67.56 55.3757 67.9519 55.5881 67.7396 55.6859C67.5272 55.7842 66.7103 56.1271 66.8901 56.3233C67.0697 56.5191 66.9064 56.3886 66.6777 56.5684C66.4488 56.748 66.2855 57.0259 65.2234 57.0094C64.1615 56.9932 64.8642 56.8951 64.0469 56.6337C63.23 56.372 63.2628 56.6989 63.2464 57.0912C63.23 57.4835 63.4098 58.0225 64.0962 57.8101C64.7823 57.5978 64.6027 57.7283 64.7986 57.3689C64.9947 57.0094 65.3867 57.467 66.0241 57.3198C66.6612 57.173 66.1222 57.5487 67.1187 57.9079C68.1153 58.2676 67.6906 58.2839 68.4261 58.8723C69.1612 59.4604 69.1121 59.0191 69.7002 59.4113C70.2886 59.8033 69.9291 60.114 69.7002 60.3101ZM62.2824 110.275C62.2244 110.175 62.1664 110.048 62.1151 109.923C61.9857 109.608 61.8533 109.293 61.6826 108.998C61.4948 108.674 61.3465 108.328 61.2408 107.969L61.155 107.676L60.9718 106.829C60.9633 106.79 60.964 106.749 60.9709 106.71C60.9738 106.693 60.9771 106.673 60.9803 106.649C61.0141 106.404 61.3322 106.287 61.3999 106.524C61.4982 106.868 61.4492 107.48 61.4492 107.946C61.4492 108.412 61.3999 108.51 62.0373 108.657C62.6747 108.804 62.2824 108.853 62.4785 109.465C62.6747 110.078 62.7727 109.809 62.8705 110.765C62.9685 111.721 62.4539 110.568 62.2824 110.275ZM63.4353 102.813C63.5161 102.701 63.6103 102.599 63.7158 102.509L63.7669 102.466C64.0525 102.223 64.3369 102.077 64.7076 102.132C64.971 102.172 65.2313 102.412 65.4521 102.561C65.5793 102.646 65.7522 102.716 65.9751 102.709C66.5307 102.693 65.5176 102.955 65.4032 103.641C65.2889 104.327 65.2396 103.771 65.011 104.017C64.7823 104.262 64.9619 104.245 65.06 104.458C65.1578 104.67 65.06 104.687 64.9295 104.915C64.7986 105.144 64.7171 105.013 64.0962 104.981C63.5168 104.95 63.5915 105.161 63.6043 105.19C63.6043 105.19 63.6043 105.19 63.6043 105.19L63.2523 104.434C63.1941 104.309 63.1527 104.176 63.1292 104.041C63.0578 103.628 63.1551 103.204 63.3993 102.864L63.4353 102.813ZM66.5607 113.877C66.4137 114.22 66.0268 113.828 66.37 114.367C66.7132 114.906 66.9364 114.833 66.9364 115.176C66.9364 115.519 66.8153 116.279 66.4721 115.593C66.1286 114.906 66.444 115.397 66.1395 114.514C65.8353 113.632 65.8114 114.318 65.8114 113.24C65.8114 112.162 65.8358 112.382 65.6643 112.015C65.6592 112.004 65.8724 111.711 65.8836 111.716C66.1072 111.814 66.212 111.982 66.2288 112.01C66.2305 112.013 66.2313 112.016 66.2313 112.02V112.627C66.2313 112.939 66.3957 113.222 66.5294 113.503C66.5861 113.622 66.6133 113.754 66.5607 113.877ZM124.249 78.1197C124.777 77.5267 124.132 76.6021 124.107 75.8081C124.104 75.7127 124.104 75.6212 124.109 75.5377C124.142 74.9824 124.566 73.806 123.749 71.8126C122.933 69.8191 122.45 69.2473 122.352 68.4631C122.255 67.6789 121.985 68.0709 121.127 66.5758C120.269 65.0808 120.612 65.0808 120.711 64.5253C120.808 63.9698 120.514 64.2967 120.22 64.0352C119.926 63.7739 119.894 63.8067 119.894 63.9372C119.894 64.068 119.697 64.2314 119.599 64.1661C119.562 64.1413 119.497 64.0282 119.431 63.8969C119.272 63.5828 119.086 63.2818 118.848 63.0222C118.488 62.6302 118.325 62.728 118.521 62.4013C118.717 62.0746 118.554 62.2054 118.521 61.8785C118.488 61.5519 118.325 61.2249 118.325 60.931C118.325 60.6368 118.684 61.3882 118.88 61.6499C119.076 61.9113 119.142 62.1399 119.469 62.6627C119.528 62.7572 119.464 62.3026 119.415 61.9903C119.396 61.8681 119.516 61.7696 119.632 61.8129C119.894 61.9113 119.861 62.4338 120.122 62.8263C120.384 63.2183 120.416 63.4144 120.678 63.6102C120.939 63.8067 120.841 63.643 120.841 63.4471C120.841 63.2511 120.841 62.9894 120.58 62.5322C120.318 62.0746 120.253 62.0091 119.795 60.8982C119.338 59.787 119.73 59.8526 118.488 57.7936C117.247 55.7352 115.286 53.0228 113.979 51.7808C112.672 50.5391 112.77 50.7355 112.083 50.0491C111.397 49.3627 110.09 48.2193 109.241 47.3367C108.391 46.4545 108.456 46.5853 108.881 46.7159C109.306 46.8467 110.286 47.0101 108.293 45.6378C106.299 44.2652 102.464 41.2468 102.354 41.0629C102.243 40.8789 101.998 41.0504 101.692 40.8055C101.386 40.5601 100.748 40.3275 100.234 40.2296C99.7188 40.1313 98.8734 39.6659 98.8487 39.629C98.8244 39.5922 98.126 39.5188 96.6554 39.6044C95.1848 39.6901 96.9739 39.8006 97.4152 39.9354C97.8562 40.0701 97.5255 40.2418 97.1089 40.254C96.6923 40.2661 96.3244 40.0211 95.9693 39.9232C95.7526 39.8635 95.2854 39.7763 94.9536 39.7174C94.7077 39.6737 94.465 39.6146 94.2274 39.5379C93.8789 39.4255 93.3608 39.2598 93.0773 39.1756C92.6239 39.0408 92.6239 39.1388 92.44 39.1878C92.2563 39.2371 92.538 39.3595 92.44 39.3964C92.3419 39.4327 92.0845 39.3718 91.7906 39.3595C91.4964 39.3471 91.8638 39.1878 91.7906 39.1632C91.717 39.1388 90.7242 39.1509 90.0012 39.1142C89.2782 39.0775 89.3888 38.9673 89.0209 38.7099C88.6535 38.4526 88.7023 38.8568 88.8494 39.0529C88.9965 39.2493 88.9475 39.3102 88.2613 39.3227C87.5749 39.3349 87.9915 39.2612 88.0899 39.1878C88.1876 39.1142 88.2613 39.0408 88.3472 38.6975C88.4328 38.3546 88.1386 38.2934 88.053 38.2562C87.9674 38.22 87.8325 38.1463 87.4037 38.0972C86.9746 38.0482 86.4722 38.0113 85.9818 38.0113C85.4918 38.0113 84.8179 37.6562 84.2786 37.6316C83.7395 37.6069 84.1315 37.7418 84.1315 37.7787C84.1315 37.8156 84.107 37.8765 83.2614 38.1953C82.416 38.5139 82.9307 38.1585 82.5265 38.1953C82.4356 38.2035 82.3306 38.2204 82.2223 38.2417C81.8204 38.3205 81.6548 38.7948 81.9993 39.0163C82.3426 39.2371 81.8157 39.1021 81.35 39.1021C80.8841 39.1021 80.9578 39.1142 80.3819 39.2913C79.806 39.4684 81.0681 39.4452 81.7298 39.8864C82.3916 40.3275 81.2764 39.9964 80.6271 39.6535C80.2069 39.4314 80.0226 39.4658 79.9448 39.5178C79.9012 39.5469 79.8631 39.5906 79.814 39.6091C79.6727 39.6627 79.6645 39.8596 79.8009 39.9247L80.2046 40.1174C80.2389 40.1338 80.2634 40.1656 80.2705 40.203C80.2875 40.2922 80.2028 40.367 80.1164 40.3392L79.6488 40.1889C79.631 40.1832 79.6139 40.1764 79.5971 40.1683C79.5141 40.1284 79.2281 39.9907 78.7888 39.7762C78.4277 39.5998 78.7396 39.8837 78.9719 40.0799C79.1014 40.1893 79.2238 40.3069 79.3334 40.4361L79.4707 40.5979C79.5871 40.7351 79.7277 40.8498 79.8855 40.9363C80.0672 41.0358 80.2679 41.0958 80.4745 41.1123L80.5673 41.1198C80.7048 41.1308 80.8406 41.1566 80.9725 41.197L81.7623 41.4384C81.7974 41.4492 81.8293 41.4683 81.8552 41.4943C82.0224 41.6615 81.8543 41.9277 81.6365 41.8356C81.5332 41.7919 81.4411 41.7494 81.3745 41.7122C81.0681 41.5407 80.9578 41.467 80.7996 41.4795C80.6417 41.4916 80.5778 41.5528 80.5902 41.7122C80.6024 41.8714 80.7741 42.0185 80.7986 42.2393C80.8133 42.3711 80.6875 42.4548 80.584 42.5007C80.5011 42.5375 80.4096 42.5463 80.3189 42.548L80.2645 42.549C79.97 42.5545 79.4713 42.4109 79.6343 42.1656C79.6375 42.1607 79.6411 42.1559 79.645 42.1512C79.8534 41.8962 80.1408 41.7259 80.0633 41.4058C79.9653 41.0014 79.9531 41.3078 79.2911 40.8664C79.2079 40.811 79.1349 40.7609 79.071 40.7158C78.7494 40.489 78.4915 40.1626 78.253 39.8496C77.889 39.3718 77.9066 39.7516 77.1711 39.4205C76.436 39.09 76.828 39.4573 76.7667 39.813C76.7055 40.1681 76.4482 40.1803 76.7177 40.4992C76.9872 40.8177 76.7667 40.6831 76.9016 40.7933C77.0365 40.9033 77.49 41.0014 78.0169 41.1731C78.5438 41.3445 78.0412 41.4302 77.931 41.467C77.8335 41.4996 76.9215 41.1968 76.7118 41.1263C76.6829 41.1166 76.6551 41.1068 76.6262 41.0968C76.4584 41.0386 75.8258 40.8264 75.2476 40.7319C74.5734 40.6216 75.0759 40.695 74.4263 40.6462C73.777 40.597 74.1321 40.5847 73.6543 40.5235C73.1764 40.4623 73.7399 40.744 74.0587 40.8299C74.2728 40.8876 74.5587 40.9397 74.7233 40.9676C74.8029 40.9811 74.8669 41.0409 74.8849 41.1196C74.9038 41.2026 74.8673 41.2883 74.7943 41.3321L74.4876 41.5163C74.0587 41.7734 74.2058 41.5163 74.0465 41.1484C74.0354 41.1229 74.0227 41.1024 74.0086 41.0863C73.6762 40.7082 73.089 41.4774 72.5881 41.5285C71.8651 41.6019 72.3676 41.5038 72.2571 41.1853C72.1468 40.8664 72.1715 41.1484 72.0244 41.2343C71.8773 41.3202 71.6693 41.3202 71.2523 41.3445C70.8358 41.3692 71.1543 41.3568 70.3947 41.6875C70.2375 41.756 70.1349 41.8098 70.0709 41.8521C69.9365 41.9409 70.0775 42.1615 69.9779 42.2881C69.8432 42.4595 69.6718 42.3495 68.8751 42.1409C68.7262 42.102 68.6385 42.0709 68.5944 42.0458C68.2858 41.8708 69.2609 41.8712 69.3901 41.5407C69.4575 41.367 68.9089 41.4061 68.6731 41.4305C68.6039 41.4377 68.5374 41.4594 68.476 41.4922C68.2252 41.6263 68.1096 41.921 68.188 42.1943C68.2135 42.2833 68.2363 42.3691 68.2502 42.4351C68.2993 42.6681 68.2993 42.803 67.6499 42.4595C67.0004 42.1166 67.1596 42.5823 67.0615 42.6925C66.9635 42.803 66.6328 42.9133 66.5347 43.0725C66.3919 43.3046 66.4491 43.6779 66.1778 43.6521C66.1659 43.651 66.1541 43.6497 66.1424 43.6484C65.8236 43.6116 65.8117 43.3789 65.3336 43.2071C64.8557 43.0357 65.0151 43.293 65.1131 43.4523C65.2112 43.6116 65.5541 43.734 65.7134 43.8443C65.8729 43.9548 65.6403 43.9792 65.2234 43.9792C64.8067 43.9792 64.8926 43.8933 64.66 43.8078C64.4267 43.7218 64.3289 43.6484 64.2796 43.5135C64.2309 43.3789 64.0962 43.3664 64.0962 43.1093C64.0962 42.8518 64.2552 43.0235 64.0226 42.7293C63.7899 42.4351 63.7406 42.5698 63.3608 42.4595C62.9807 42.3495 63.2261 42.3127 63.3486 42.1534C63.471 41.9939 64.0594 42.5335 64.4638 42.6438C64.8679 42.7537 65.0397 42.7415 65.3461 42.7415C65.6525 42.7415 65.7749 42.7415 66.1793 42.7047C66.5837 42.6681 66.5348 42.6438 66.792 42.4105C67.0494 42.1778 66.9267 42.2024 66.9513 42.1409C67.0704 41.8426 66.4951 41.7059 66.1946 41.5923C66.0081 41.5218 65.7965 41.448 65.6278 41.4058C65.2358 41.3078 64.8557 41.0504 64.2796 41.0135C63.7038 40.9768 63.8386 40.928 63.471 40.8911C63.1034 40.8542 63.2383 40.8421 62.9931 40.7197C62.7481 40.597 63.0054 40.536 62.8337 40.4499C62.6624 40.3642 62.1107 40.6094 62.2212 40.3275C62.3314 40.0457 62.0004 40.4008 61.878 40.4008C61.7555 40.4008 61.5962 40.2296 61.1797 40.1928C60.763 40.1559 60.9832 40.2418 60.6893 40.2783C60.3951 40.3152 60.1747 40.3642 59.9664 40.4499C59.758 40.536 59.6478 40.5847 59.4148 40.5601C59.1821 40.536 59.1821 40.928 58.9002 40.8911C58.6185 40.8542 58.8511 40.7562 58.6553 40.6706C58.4592 40.5847 58.4345 40.6585 58.3855 40.6706C58.3368 40.6831 58.1896 40.9768 57.9566 41.0135C57.7237 41.0504 57.8954 40.9892 57.6628 41.0135C57.4298 41.0382 57.6013 41.1238 57.4788 41.2343C57.3564 41.3445 57.2459 41.2343 57.1846 41.1853C57.1234 41.1363 56.9029 41.1484 56.8168 41.1853C56.7312 41.2221 56.5107 41.2468 56.3392 41.2956C56.1675 41.3445 56.1185 41.3936 55.3711 41.6875C54.6237 41.9817 55.4446 41.7858 55.6896 41.7122C55.9822 41.6246 56.2912 41.5938 56.5873 41.519C56.7492 41.4782 56.9066 41.4426 56.9639 41.4426C57.0988 41.4426 56.8661 41.5897 56.6334 41.6756C56.4002 41.7612 56.5597 41.6997 56.3024 41.8468C56.0451 41.9939 56.3024 41.8468 55.9226 42.0307C55.5426 42.2147 55.3099 42.3864 54.783 42.8395C54.2559 43.293 54.3418 43.0603 54.2194 43.195C54.0966 43.3299 53.5698 43.4523 52.9327 43.8811C52.2953 44.3099 53.1038 43.8567 53.398 43.8567C53.6922 43.8567 52.7487 44.0897 52.8465 44.1874C52.9448 44.2855 52.6139 44.3345 52.5525 44.0773C52.4913 43.8202 52.3689 44.1628 52.2462 44.0282C52.1235 43.8933 51.952 44.1628 51.952 44.2855C51.952 44.408 51.7194 44.249 51.4989 44.408C51.2781 44.5672 51.2293 44.4695 51.1557 44.6656C51.0822 44.8615 50.7881 44.5797 50.7881 44.8127C50.7881 45.1667 50.1521 45.0546 49.852 45.2423C49.8317 45.255 49.8127 45.267 49.7956 45.278C49.7791 45.2886 49.7644 45.3014 49.7513 45.3158C49.561 45.5253 49.5631 45.8914 49.2931 45.9766C49.0601 46.0503 49.2562 46.0626 49.3667 46.1481C49.4767 46.234 49.4524 46.2464 49.4399 46.3321C49.4277 46.4177 49.2684 46.4177 49.0357 46.4423C48.8031 46.467 48.9499 46.6138 49.1829 46.6631C49.4155 46.7119 49.3174 46.7119 49.2072 46.8711C49.0967 47.0303 49.0479 46.9079 48.8765 47.1165C48.6673 47.3699 49.3023 47.5247 49.6254 47.5845C49.7093 47.6 49.8052 47.6111 49.9139 47.6144C50.4368 47.631 50.3877 47.3042 50.5838 47.0919C50.7797 46.8795 50.9105 47.0101 51.1394 46.9448C51.368 46.8795 51.319 46.7652 51.4661 46.5853C51.6132 46.4055 51.5641 46.7324 51.6785 46.8957C51.793 47.0591 51.7275 47.0101 51.6295 47.2062C51.5314 47.402 51.5314 47.4513 51.5314 47.631C51.5314 47.8108 51.5969 47.9086 51.646 48.2193C51.6947 48.5294 51.7275 48.4969 51.7113 48.6603C51.6947 48.8236 51.5804 48.7418 51.4005 48.7583C51.2209 48.7748 51.4005 48.9872 51.4005 49.3957C51.4005 49.8039 51.6132 49.3957 51.9889 49.3792C52.3646 49.3627 52.185 49.3792 52.3321 49.2321C52.4791 49.085 52.3321 49.1446 52.3974 48.8832C52.4855 48.5299 53.0666 48.91 53.4306 48.91H53.6226C54.0151 48.91 53.9579 48.4338 53.9498 48.2377C53.9414 48.0418 54.1375 47.9387 54.2109 47.6769C54.2846 47.4156 54.2927 47.5721 54.4642 47.3436C54.6359 47.1149 54.546 47.2913 54.6684 47.2585C54.7909 47.226 55.0157 46.983 55.1135 46.922C55.2118 46.8606 55.2118 46.8597 55.4201 46.8232C55.4612 46.8159 55.4861 46.8029 55.4996 46.7867C55.5733 46.6979 55.4979 46.5343 55.5916 46.467C55.6772 46.4057 55.7141 46.3567 55.7633 46.2343C55.8113 46.1135 55.646 45.9927 55.6408 45.9889C55.6406 45.9888 55.6405 45.9888 55.6404 45.9886L55.5845 45.9488C55.4101 45.8242 55.3259 45.6083 55.3701 45.3985C55.3868 45.3192 55.4209 45.2447 55.4713 45.1812C55.5838 45.0396 55.788 44.7897 55.8489 44.7636C55.9348 44.7267 56.0082 44.6778 56.4127 44.3836C56.8168 44.0897 56.8049 44.1874 57.0744 44.114C57.1027 44.1063 57.1317 44.0974 57.1609 44.0875C57.516 43.9681 57.9015 43.8847 58.2018 43.6606C58.2999 43.5869 58.1528 43.4276 58.1282 43.3174C58.1035 43.2071 58.2999 43.1828 58.3855 43.1213C58.4713 43.0603 58.5325 43.1568 58.7041 42.973C58.8875 42.7766 59.1468 43.241 59.4156 43.241H59.6478L59.6875 43.2443C59.8472 43.2579 60.0479 43.426 59.9173 43.519C59.449 43.8543 58.8732 44.0049 58.3618 44.2701C58.2619 44.3219 58.1645 44.3627 58.0794 44.382C57.6994 44.4675 57.7238 44.5545 57.5522 44.7135C57.3172 44.9319 57.4478 45.3645 57.2968 45.6476C57.2879 45.6641 57.2791 45.6809 57.2703 45.6976C57.1356 45.955 57.4707 46.0885 57.5848 46.1457C57.6482 46.1772 57.897 46.2061 58.1063 46.2257C58.3139 46.245 58.5225 46.2447 58.7308 46.2372C58.8393 46.2332 58.9716 46.2291 59.1206 46.2261C59.5373 46.218 59.3089 46.1931 59.7174 46.0626C59.7897 46.0394 59.8702 46.0173 59.9537 45.9965C60.503 45.86 61.1039 45.8567 61.5963 46.136C61.8983 46.3074 61.1469 46.3321 61.0406 46.3321C61.0233 46.3321 60.998 46.3375 60.968 46.3467C60.6694 46.4375 60.3723 46.5467 60.0603 46.5363C59.8153 46.5282 59.6844 46.4626 59.2924 46.4626C58.9002 46.4626 58.8511 46.5282 58.5898 46.6016C58.3286 46.6753 58.2875 46.7487 58.1484 46.9283C58.0098 47.1081 58.2752 47.3614 58.4713 47.4838C58.6675 47.6065 58.4713 47.5819 58.4099 47.6922C58.349 47.8027 58.3611 47.8514 58.0669 48.1456C57.773 48.4398 57.9323 48.1209 57.7362 47.9863C57.5401 47.8514 57.4052 47.6922 57.111 47.6922C56.8168 47.6922 56.5472 48.2803 56.4739 48.3296C56.3144 48.4356 56.3079 48.6767 56.2254 48.8495C56.1804 48.9438 56.1428 49.052 56.1428 49.1503C56.1428 49.1618 56.1429 49.173 56.143 49.1837C56.1451 49.3727 56.1149 49.6075 55.9264 49.6203C55.9187 49.6208 55.9109 49.6214 55.9032 49.6221C55.6837 49.6413 55.4734 49.7863 55.4201 50.0001C55.4039 50.0654 55.3383 50.0166 55.1424 50.0328C54.9461 50.0491 54.6847 50.0001 54.6359 49.9676C54.5866 49.9348 54.7174 49.6734 54.309 49.6243C53.9005 49.5753 53.6556 49.9676 53.1653 50.0654C52.675 50.1636 51.952 50.4007 51.8664 50.4007C51.7806 50.4007 51.7562 50.2902 51.6336 50.0819C51.511 49.8736 51.4252 49.9226 51.3884 49.9348C51.3518 49.947 51.2412 49.9348 50.9595 50.0082C50.6776 50.0819 50.8614 50.045 50.4449 50.2411C50.0282 50.437 50.2855 50.2777 50.1753 50.2777C50.0651 50.2777 50.0898 50.2777 49.7834 50.1306C49.4767 49.9835 49.6972 50.0697 49.6238 49.9594C49.5184 49.8014 49.3329 49.7178 49.143 49.7214C49.1061 49.7221 49.0727 49.7237 49.0479 49.7265C48.9377 49.7386 48.9988 49.8124 48.9621 49.9835C48.9255 50.1553 48.8272 50.1553 48.5945 50.3267C48.3618 50.4985 48.3618 50.4248 47.9205 50.5597C47.8809 50.5718 47.8456 50.5835 47.8143 50.5948C47.8092 50.5966 47.2762 50.6591 47.271 50.6578C47.0382 50.5963 47.0261 50.6702 46.8053 50.7189C46.5848 50.768 46.4377 50.8536 46.1192 51.05C45.8006 51.2461 46.0701 51.1603 45.9109 51.4542C45.7515 51.7484 45.6167 51.6503 45.249 51.8586C44.8814 52.0668 44.4648 52.4101 44.1829 52.4466C43.9012 52.4838 43.9133 52.5082 43.6194 52.5328C43.5615 52.5375 43.5126 52.5599 43.4714 52.5927C43.2142 52.7978 43.1993 53.204 42.9574 53.427C42.7985 53.5741 42.6391 53.4028 42.5164 53.427C42.3937 53.4516 42.2591 53.5131 42.21 53.6232C42.161 53.7334 42.21 53.7334 42.0876 53.9907C41.9649 54.2483 42.0139 53.9788 41.8668 53.9541C41.7197 53.9297 41.5361 53.942 41.4995 53.8436C41.4627 53.7458 41.5361 53.7458 41.5483 53.6232C41.5605 53.5007 41.4258 53.5987 41.2054 53.6846C40.9846 53.7702 41.1194 53.9907 41.0583 54.2391C40.9968 54.4875 40.9439 54.4934 40.5027 54.5094C40.0614 54.526 40.2903 54.4607 40.2903 54.3299C40.2903 54.1992 40.176 54.2483 40.0451 54.2483C39.9143 54.2483 39.5551 54.3954 39.4081 54.4279C39.1164 54.4928 39.2528 54.9758 39.5507 54.9983C39.5632 54.9992 39.5756 54.9997 39.5877 54.9997C39.8165 54.9997 39.8 55.2615 39.8328 55.3264C39.9349 55.5322 39.8036 55.7838 39.8266 56.0124C39.8301 56.0474 39.8371 56.0811 39.849 56.1109C39.9143 56.2743 40.1923 56.4051 40.0124 56.5521C39.8327 56.6989 39.9796 56.7155 39.9796 56.9932C39.9796 57.2711 39.849 56.748 39.7022 56.8951C39.5551 57.0421 39.6857 57.0587 39.6205 57.4179C39.5551 57.7774 39.5551 57.6964 39.5058 58.0721C39.4795 58.2752 39.2622 58.5262 39.068 58.7139C38.8738 58.9017 38.6079 58.9877 38.3378 58.9877C38.2398 58.9877 37.9699 58.836 37.5533 58.787C37.1367 58.7379 37.5533 58.7173 36.6957 58.5949C36.2841 58.5359 36.0022 58.5325 35.8204 58.545C35.6337 58.5579 35.4658 58.644 35.3113 58.7495C35.0757 58.9105 34.87 59.1106 34.6901 59.3321C34.5647 59.4865 34.4205 59.6547 34.3184 59.7455C34.0976 59.9416 34.1467 60.2564 34.0243 60.6976C33.9019 61.139 33.8035 61.137 33.6564 61.5049C33.5095 61.8722 33.534 61.8223 32.8478 62.5576C32.1617 63.2927 32.8724 63.1944 32.4802 63.5866C32.088 63.9788 32.7008 64.2481 33.2157 64.2724C33.7301 64.2971 33.534 64.591 33.6077 65.0321C33.6811 65.4733 33.9506 65.2038 34.2448 65.0076C34.5389 64.8115 34.4655 64.8849 34.6126 64.8849C34.7595 64.8849 34.9065 65.0074 35.2007 65.081C35.4949 65.1545 35.6173 65.081 35.6907 64.8362C35.7642 64.5917 36.1849 64.8036 36.3677 64.6255C36.4205 64.5741 36.4618 64.5069 36.4753 64.4193C36.524 64.1007 36.5976 64.2478 36.6469 64.1741C36.6595 64.1552 36.7107 64.1348 36.7801 64.1148C37.1354 64.0122 37.5779 63.8825 37.5779 63.5127C37.5779 63.2185 37.7251 63.3409 38.0436 63.1448C38.3625 62.9489 38.0192 62.5324 38.0436 62.2869C38.0682 62.042 38.1663 62.2381 38.3625 62.1645C38.4865 62.118 38.4828 62.1102 38.4635 62.1107C38.4519 62.111 38.4476 62.1253 38.4561 62.1332C38.4587 62.1357 38.4622 62.1371 38.4658 62.1371H39.0239C39.2859 62.1371 39.332 61.9534 39.3141 61.773C39.2908 61.5376 39.2041 61.3008 39.2691 61.0734C39.3182 60.9016 39.5877 60.9447 39.6611 60.8959C39.7347 60.8469 39.8328 60.8317 40.1267 60.8317C40.1877 60.8317 40.2402 60.8225 40.2852 60.8078C40.4815 60.7436 40.5714 60.5265 40.6847 60.3538C40.7149 60.3078 40.7434 60.2658 40.7641 60.2383C40.7707 60.2295 40.7792 60.2207 40.7894 60.2119C40.9846 60.0426 41.1946 59.8889 41.3278 59.6675C41.4011 59.5445 41.3524 59.47 41.4011 59.1758C41.4502 58.8817 41.4258 59.0035 41.5726 58.9055C41.7197 58.8077 41.7197 58.8318 42.0139 58.6113C42.3081 58.3908 42.0139 58.6111 42.2834 58.5863C42.6085 58.557 42.8926 58.8328 43.2067 58.9214C43.2691 58.9391 43.3373 58.9582 43.4109 58.9787C43.8521 59.1014 43.705 59.1011 43.8768 58.9296C44.0483 58.7579 44.2809 58.6601 44.4034 58.513C44.5261 58.3659 44.5017 58.4761 44.7712 58.3044C45.0407 58.1329 44.8568 58.2678 44.9917 58.0964C45.1264 57.9246 45.0654 57.998 45.4698 57.9615C45.874 57.9246 45.8496 57.7532 45.9843 57.9246C46.1192 58.0964 46.2172 58.1573 46.4623 58.2066C46.7072 58.2556 46.4992 58.4271 46.4992 58.6232C46.4992 58.8193 46.5233 58.9174 46.6584 59.2725C46.7931 59.628 46.9158 59.6769 47.2222 59.8118C47.5283 59.9468 47.3933 59.9711 47.651 60.4243C47.9083 60.8778 47.9817 60.5836 48.423 60.6207C48.864 60.6576 48.6559 61.0617 48.9377 61.1351C49.2196 61.2088 49.146 61.2457 49.146 61.4293C49.146 61.6132 49.146 61.7356 49.5013 61.6991C49.8565 61.6622 49.869 62.3302 49.869 62.3974C49.869 62.4649 49.9729 62.8019 49.7587 62.9302C49.5442 63.0592 49.5257 63.0774 49.4464 63.2369C49.3667 63.3962 49.3174 63.3287 49.2868 63.439C49.2562 63.5495 49.3727 63.5982 49.4892 63.5736C49.6053 63.5495 49.6912 63.4024 49.9058 63.3228C50.1404 63.2356 50.2359 62.9499 50.4586 62.8358C50.4959 62.8167 50.5375 62.7971 50.5838 62.7773C50.768 62.6984 50.7264 62.4786 50.667 62.2872L50.6464 62.2209C50.6265 62.1566 50.597 62.0957 50.5579 62.0409C50.5031 61.964 50.418 61.847 50.3387 61.7478C50.2931 61.691 50.3011 61.6301 50.3309 61.5749C50.4132 61.4225 50.6119 61.396 50.7846 61.4101C51.0008 61.4277 51.1978 61.5354 51.3522 61.6878C51.3783 61.7135 51.4056 61.7394 51.4333 61.7643C51.5969 61.9115 51.6621 61.9602 51.7603 61.9602C51.9612 61.9602 51.9638 61.6779 51.839 61.5206C51.7542 61.4138 51.6263 61.2656 51.4333 61.0617C50.8614 60.4574 51.1722 60.8821 50.9105 60.735C50.827 60.688 50.7368 60.6377 50.6528 60.591C50.443 60.4744 50.2884 60.2699 50.3224 60.0324C50.3281 59.9923 50.3208 59.9668 50.3049 59.9519C50.1288 59.7877 49.8188 60.0747 49.6035 59.9671C49.4944 59.9126 49.3515 59.7673 49.3069 59.7204C49.2976 59.7106 49.2886 59.7007 49.2793 59.6908C49.2378 59.6467 49.105 59.5101 48.9171 59.3625C48.6885 59.1826 48.9171 59.2317 48.9171 59.1173C48.9171 59.003 48.9336 58.9702 48.9336 58.7416C48.9336 58.513 48.8191 58.5455 48.5576 58.3984C48.2962 58.2515 48.1329 58.0065 48.2391 57.7285C48.3455 57.4509 48.5089 57.4837 48.2391 57.1732C47.9696 56.8625 48.4923 57.026 49.0642 57.0588C49.6363 57.0914 49.0967 57.3691 49.2768 57.6141C49.4564 57.8593 49.4399 57.4344 49.7669 57.2712C50.0935 57.1076 49.9302 57.1732 49.9792 57.4343C50.0282 57.6957 50.061 57.7775 50.11 58.1698C50.1588 58.5617 50.3387 58.513 50.8452 58.6108C51.3518 58.7088 51.1394 58.8072 51.4005 59.0848C51.6621 59.3625 51.8255 59.281 52.0214 59.4767C52.2175 59.6729 52.185 59.6076 52.577 59.8528C52.9692 60.0976 52.7406 60.0814 52.8876 60.212C53.0348 60.3428 52.8711 60.4083 52.7406 60.5879C52.6098 60.7675 52.7894 60.7675 52.4464 60.9474C52.1032 61.127 52.2994 61.4377 52.3811 61.3231C52.4626 61.2088 52.7078 61.2413 52.577 61.4049C52.4464 61.5682 52.675 61.5847 52.8548 61.8297C53.0348 62.0748 52.8711 61.9602 53.051 62.1892C53.2306 62.418 53.1653 62.3852 53.2144 62.5486C53.2631 62.712 53.2797 62.712 53.4757 63.0061C53.6719 63.3003 53.7862 63.1695 53.884 63.1857C53.9823 63.2019 54.0966 63.1857 54.3417 63.1367C54.3436 63.1363 54.3454 63.1359 54.3473 63.1356C54.6618 63.0764 55.0435 63.1277 55.2893 63.3327C55.3353 63.3711 55.4208 63.5029 55.4987 63.6321C55.6101 63.8168 55.9102 64.0226 55.9102 63.8069C55.9102 63.5944 55.8612 63.6104 55.9264 63.4634C55.9919 63.3166 56.1553 63.3655 56.1391 63.2019C56.1271 63.0837 56.0379 62.9396 55.9898 62.8692C55.97 62.8403 55.9488 62.8124 55.9284 62.7839C55.8606 62.689 55.6941 62.4504 55.5669 62.2219C55.4039 61.9277 55.077 61.8624 54.9954 61.4865C54.9136 61.1107 55.3055 61.1923 55.2731 61.3069C55.2403 61.4212 55.4201 61.666 55.7469 61.5847C56.0735 61.503 55.9429 61.4212 55.8286 61.1923C55.7141 60.9637 56.0735 61.2413 56.2371 61.0452C56.4002 60.8494 56.4167 60.9799 56.6128 61.0292C56.8087 61.0783 56.8087 60.9312 56.9398 60.8512C57.2212 60.6785 57.5636 61.0361 57.8545 61.1923C58.0669 61.3069 58.0669 61.2906 58.263 61.2741C58.4591 61.2578 58.5898 61.2088 58.9657 60.9637C59.3414 60.7185 59.0635 60.9474 59.4885 60.9637C59.9133 60.9799 59.9133 60.9637 60.4035 60.9637C60.8936 60.9637 60.6812 61.1435 60.616 61.1763C60.5506 61.2088 60.5013 61.1597 60.2075 61.1763C59.9133 61.1923 60.1582 61.6078 60.1422 61.769C60.0932 62.2469 59.2919 62.1371 58.8114 62.1371H58.5735C58.0017 62.1371 58.263 61.7546 58.0997 61.8199C57.9361 61.8852 57.8708 61.7839 57.5931 62.0781C57.3153 62.3723 57.6422 62.1989 57.9689 62.2154C58.2956 62.2316 58.1815 62.2183 58.1649 62.382C58.1484 62.5453 58.1484 62.5226 58.2956 62.6531C58.4426 62.7837 58.3611 62.7561 58.3121 62.9194C58.3062 62.9389 58.2953 62.9553 58.2805 62.9691C58.0696 63.1649 57.4876 63.1093 57.6422 63.352C57.7565 63.5317 58.0345 63.3832 58.4757 63.4815C58.9164 63.5792 58.5816 64.0403 58.5447 64.2487C58.5082 64.4569 58.6307 64.5054 59.0597 64.5054C59.4885 64.5054 59.3783 64.5664 59.5254 64.775C59.6722 64.9833 59.709 64.7257 59.9664 64.8484C60.2237 64.971 59.9664 65.2159 60.2481 65.2159C60.53 65.2159 60.6528 65.2281 61.0571 65.2772C61.4614 65.3262 61.1919 65.1545 61.2409 64.8362C61.2899 64.5173 61.5716 64.5542 62.0619 64.824C62.5519 65.0935 62.6866 65.3262 62.8215 65.3631C62.9566 65.3999 63.4342 65.3508 63.5935 65.3508C63.7531 65.3508 64.2186 65.0198 64.6965 64.7747C65.1743 64.5298 64.9538 64.7747 65.3705 64.9095C65.7873 65.0442 65.5419 64.7625 65.8117 64.6522C66.0812 64.542 65.8117 64.9586 65.836 65.2038C65.8605 65.4486 65.8117 65.3874 65.738 65.6079C65.6646 65.8287 65.6525 65.8774 65.8605 65.9021C66.069 65.9267 65.7259 66.2331 65.8605 66.5883C65.9954 66.9439 65.7748 66.8946 65.6768 67.1641C65.5788 67.4339 65.1867 68.0835 65.1743 68.5857C65.1621 69.0882 64.8433 69.7375 64.6475 69.9214C64.4513 70.1054 64.3411 70.007 63.6303 70.081C62.9198 70.1541 62.9442 70.0439 62.7605 70.0932C62.5763 70.142 62.4785 70.0563 62.4785 69.8237C62.4785 69.5907 62.1965 69.8968 61.8901 69.75C61.5838 69.6029 61.694 69.799 61.2899 69.799C60.8855 69.799 61.253 69.9829 61.0201 69.9829C60.7874 69.9829 60.9101 69.9829 60.4688 70.2771C60.0276 70.5707 60.2481 70.3012 59.3168 70.1788C58.3855 70.0563 58.9736 70.2278 58.1403 69.9339C57.3071 69.6397 57.5522 69.7375 56.719 69.7375C55.8858 69.7375 56.5966 69.7131 56.5232 69.2965C56.4495 68.8799 56.5232 69.2965 56.1553 69.1494C55.7878 69.0024 55.7141 69.1741 54.9545 69.1005C54.1947 69.027 54.8318 69.0024 54.783 68.8553C54.7337 68.7081 54.7093 68.6594 54.4396 68.5124C54.1701 68.3652 54.0966 68.5124 53.5085 68.5124C52.9204 68.5124 53.0429 68.6104 52.5036 68.8553C51.9643 69.1005 52.0135 69.4436 52.0626 69.7375C52.1113 70.0317 52.1603 70.2524 52.136 70.5707C52.1113 70.8896 51.3765 71.1837 50.5673 70.7672C49.7587 70.3505 49.685 70.1301 49.2684 70.1301C48.8518 70.1301 48.3618 69.6641 48.2391 69.3455C48.1166 69.027 47.8715 68.9043 47.8469 68.8065C47.8283 68.732 47.1626 68.6437 46.841 68.6052C46.7272 68.5916 46.6139 68.5758 46.501 68.5559L45.7854 68.4296C45.5424 68.3867 45.3028 68.3266 45.0715 68.2409C45.0135 68.2193 44.9497 68.1953 44.8815 68.1691C44.5629 68.0467 44.5139 67.924 44.1707 67.3112C43.8778 66.7884 44.817 66.4076 45.2581 66.002C45.2632 65.9973 45.2683 65.9926 45.2735 65.9879C45.8618 65.4486 45.1263 65.6695 44.9305 65.2528C44.7344 64.8362 45.1757 64.9586 45.5186 64.64C45.8618 64.3212 45.3471 64.395 45.0286 64.542C44.7098 64.6891 44.8325 64.6728 44.7098 64.354C44.6846 64.2885 44.6418 64.2627 44.5896 64.2631C44.1565 64.2664 43.7995 64.6563 43.3664 64.6563C43.2657 64.6563 43.1655 64.6455 43.0651 64.6372C42.8379 64.6184 42.383 64.6195 41.9162 64.8443C41.2541 65.1628 41.3524 64.8401 41.0583 64.6686C40.7641 64.4973 40.1513 64.8503 38.7544 64.8749C37.3575 64.8993 36.6469 65.9828 36.1402 66.1299C35.6336 66.277 35.4865 66.2182 35.3234 66.0221C34.9817 65.6124 34.0587 66.2038 33.9222 65.688C33.9105 65.6441 33.9034 65.5953 33.9019 65.541C33.8854 64.9692 33.281 65.6708 33.1339 66.4875C32.9868 67.3044 32.0228 67.6796 31.206 68.0735C30.3888 68.4673 29.7722 70.412 29.5883 71.2084C29.4043 72.0051 28.4118 72.9973 27.8728 73.071C27.3335 73.1444 26.9293 73.8184 26.7822 74.2962C26.6352 74.7742 26.4266 74.6762 26.1327 75.1663C25.8385 75.6565 25.434 76.5875 25.2258 76.8208C25.0175 77.0535 25.0421 77.0042 24.9806 77.2618C24.9194 77.5191 24.7601 78.0829 24.3191 79.0385C23.8778 79.9945 23.9634 80.5214 24.0003 80.8402C24.0371 81.1584 24.2454 81.6734 23.9756 81.7221C23.7061 81.7712 23.9391 82.0776 24.0249 82.8377C24.1106 83.5972 23.9881 85.031 23.9391 85.2761C23.8901 85.521 23.8657 85.9501 23.8532 86.3052C23.841 86.6609 23.2039 86.9673 23.4613 87.4448C23.7185 87.9229 23.9147 88.2415 23.7429 88.4988C23.5939 88.7224 23.7038 89.1865 23.7352 89.3043C23.7402 89.323 23.7455 89.3412 23.7506 89.3598C23.7711 89.4342 23.8283 89.6491 23.8778 89.8958C23.9391 90.2021 24.1227 90.3492 24.2698 90.2511C24.4169 90.1531 24.4416 90.3249 24.3925 90.5331C24.3435 90.7412 24.3435 90.8273 24.4783 91.0722C24.613 91.3173 24.662 91.1578 24.7847 91.293C24.9072 91.4276 24.7967 91.5256 25.0421 91.8076C25.287 92.0894 25.2747 92.3342 25.5075 92.457C25.7404 92.5797 25.7529 92.9716 25.8607 93.229C25.9691 93.4863 25.9122 93.4128 25.8753 93.6945C25.8385 93.9766 25.8753 93.8664 25.9487 94.1481C26.0224 94.43 26.1202 94.4788 26.3409 94.6749C26.5614 94.871 26.2673 94.9813 26.6352 95.1409C27.0025 95.2999 26.8188 95.2511 26.9659 95.5328C27.1127 95.8148 27.1495 95.7533 27.5786 96.0719C28.0074 96.3907 28.0321 96.5499 28.3138 97.1505C28.5958 97.7508 29.3431 97.9222 29.6495 98.1062C29.9559 98.2901 29.8825 97.9713 29.9315 97.8733C30.0362 97.6627 30.2564 97.5033 30.4679 97.4006C30.4988 97.3856 30.5324 97.375 30.5686 97.371C30.7894 97.3464 30.9118 97.2852 31.2385 97.2033C31.5652 97.1218 31.7941 97.2361 32.2188 97.318C32.6436 97.3995 32.4802 97.3341 32.6926 97.3504C32.9049 97.3667 32.8231 97.3667 33.1826 97.5465C33.5423 97.7264 33.3462 97.5956 33.5586 97.5793C33.771 97.5628 33.7057 97.4485 33.8035 97.2689C33.9019 97.089 33.9836 97.2033 34.196 97.089C34.4084 96.9747 34.3756 96.9747 34.6532 96.7786C34.9312 96.5825 35.0618 96.6481 35.2741 96.6559C35.4865 96.6643 35.6173 96.6153 35.6501 96.4029C35.6826 96.1905 35.8256 96.2804 35.9115 96.1821C35.9971 96.0843 36.0586 96.1087 36.2666 96.1212C36.4925 96.1344 36.7145 96.0228 36.9408 96.0228C37.1123 96.0228 37.2594 96.1575 37.2594 95.9247C37.2594 95.6921 37.5046 95.8023 37.4187 95.9247C37.333 96.0474 37.627 95.9247 37.762 95.9247C37.8965 95.9247 37.909 95.9247 38.3744 96.3045C38.84 96.6846 38.6563 96.6971 38.7301 96.8073C38.8032 96.9176 38.8646 97.04 39.0239 96.9419C39.1832 96.8441 38.9749 97.1871 39.0239 97.3954C39.073 97.6038 39.0239 97.4935 39.122 97.6774C39.2201 97.861 39.3059 97.8733 39.502 98.0571C39.6979 98.241 39.7225 98.2164 39.8818 98.1552C40.0411 98.094 40.1391 98.1552 40.3106 98.1062C40.4823 98.0571 40.4209 97.9347 40.5926 98.1062C40.7641 98.2779 40.6823 97.955 40.7641 97.8733C40.8458 97.7917 40.8621 97.955 41.2216 97.9387C41.5808 97.9222 41.4011 97.7917 41.4011 97.6281C41.4011 97.465 41.5973 97.8898 41.8097 97.955C42.022 98.0203 42.0548 98.2002 42.0058 98.3473C41.9568 98.494 42.2835 98.5431 42.5776 98.5431C42.8718 98.5431 42.7412 98.8864 42.9371 99.0334C43.1332 99.1805 43.068 99.1314 43.0189 99.3763C42.9699 99.6217 43.068 100.079 42.9208 100.324C42.7737 100.569 42.9536 100.52 42.8883 100.863C42.8228 101.206 42.9208 101.321 42.9371 101.909C42.9536 102.497 42.6878 103.375 42.5164 103.621C42.3449 103.866 42.7737 103.755 42.9452 103.927C43.1167 104.098 43.1781 104.111 43.4845 104.442C43.7909 104.772 43.7297 105.177 43.9623 105.189C44.1953 105.201 44.379 105.275 44.379 105.532C44.379 105.789 44.6119 105.789 45.0286 106.206C45.4452 106.623 45.6414 106.868 45.9355 107.285C46.2297 107.701 45.9598 107.628 46.3521 108.093C46.744 108.559 47.0873 109.343 47.4058 109.834C47.7243 110.323 48.0919 110.618 47.7243 111.01C47.3568 111.402 47.7734 111.304 48.3645 111.843C48.9555 112.382 49.2437 113.657 48.9988 114.073C48.7538 114.49 48.4105 114.661 48.3712 115.372C48.3317 116.083 48.4843 116.794 48.3862 117.186C48.3741 117.234 48.3698 117.286 48.3716 117.34C48.3924 117.95 48.777 118.501 49.0708 119.036C49.1152 119.117 49.1646 119.203 49.2196 119.294C49.6363 119.98 51.2293 121.524 51.8908 122.088C52.5525 122.651 52.3811 123.362 52.8711 124.122C53.3614 124.882 53.9986 125.739 54.5135 126.377C55.0279 127.014 55.1013 126.793 55.4935 127.185C55.8858 127.578 57.3564 129.219 57.5279 129.489C57.6994 129.759 57.2337 129.734 57.5279 130.053C57.8218 130.371 57.8954 130.592 58.1649 130.519C58.4345 130.445 58.3121 130.568 58.6553 130.742C58.9982 130.916 58.9002 130.788 59.1944 130.616C59.4885 130.445 59.4148 130.592 59.8314 130.715C60.2481 130.837 59.9298 130.519 60.1747 130.347C60.4199 130.175 60.3951 130.347 60.5913 130.396C60.7874 130.445 60.8364 130.445 60.9832 130.5C61.1304 130.555 61.1059 130.494 61.4982 130.47C61.8901 130.445 61.4983 130.47 61.7433 130.494C61.9882 130.519 61.8902 130.47 61.9395 130.347C61.946 130.33 61.957 130.316 61.9712 130.304C62.1338 130.162 62.3862 130.186 62.589 130.112C62.8704 130.009 63.1247 129.84 63.2982 129.595C63.3558 129.514 63.4186 129.421 63.4832 129.318C63.7284 128.926 63.6465 128.819 64.055 128.738C64.4638 128.656 64.1287 128.525 64.2433 128.304C64.3573 128.084 64.431 127.953 64.6027 127.569C64.7739 127.185 64.8067 127.112 65.1253 127.087C65.4438 127.063 65.2358 126.916 65.1895 126.708C65.1431 126.499 65.2846 126.377 65.53 125.997C65.7748 125.617 65.485 125.748 65.5176 125.306C65.5504 124.865 65.5176 125.306 65.2724 125.045C65.1633 124.929 65.1772 124.838 65.2262 124.774C65.3131 124.659 65.4613 124.608 65.5751 124.521C65.7414 124.393 65.9353 124.306 66.1414 124.267L66.6611 124.168C66.7367 124.154 66.8087 124.125 66.8733 124.083C66.9897 124.008 67.0799 123.895 67.1026 123.758C67.1171 123.67 67.1241 123.574 67.1025 123.509C67.0124 123.239 67.1017 122.948 67.1317 122.664C67.1338 122.645 67.135 122.627 67.135 122.61C67.135 122.463 67.1025 122.398 66.9716 122.218C66.8408 122.038 66.9716 122.088 67.0206 121.777C67.0697 121.467 66.6936 121.026 66.5959 120.683C66.4979 120.339 66.596 120.519 66.8573 120.29C67.1187 120.062 66.9879 120.078 67.1674 119.898C67.3473 119.719 67.4944 119.588 67.8704 119.359C68.2461 119.13 67.5272 119.441 68.0419 118.951C68.5565 118.46 68.1643 118.754 68.8505 118.362C68.9253 118.32 68.9943 118.282 69.0578 118.25C69.4539 118.048 69.9465 117.876 70.2965 117.602L70.5718 117.39C70.7432 117.257 70.8673 117.073 70.9257 116.865L70.9497 116.779C70.9872 116.645 71.0634 116.525 71.1686 116.433C71.3014 116.318 71.3841 116.157 71.3561 115.983C71.3414 115.893 71.317 115.779 71.2765 115.642C71.1541 115.225 71.0557 114.98 71.1048 113.363C71.1535 111.745 71.1042 112.971 70.9569 112.333C70.8098 111.696 70.9557 112.333 70.5142 111.99C70.0729 111.647 70.5603 111.353 70.5112 110.912C70.489 110.71 70.4143 110.468 70.3396 110.264C70.233 109.973 70.0918 109.677 70.1418 109.371C70.1571 109.277 70.1877 109.182 70.2433 109.098C70.5447 108.646 69.3808 108.433 69.3808 107.89V107.726C69.3808 107.356 69.5564 107.008 69.8541 106.789L70.0547 106.641C70.1782 106.549 70.2892 106.442 70.3767 106.316C70.5257 106.102 70.7478 105.751 70.7799 105.526C70.8289 105.183 70.9357 105.287 71.3767 104.846C71.8176 104.405 71.3983 104.858 71.4962 104.564C71.505 104.538 71.5178 104.514 71.5338 104.492C71.808 104.121 72.1635 104.4 72.5025 104.087C72.7997 103.814 73.0989 103.147 73.3484 102.829C73.6961 102.387 74.243 101.731 74.7779 101.256C75.6604 100.471 76.4465 100.128 78.9953 97.1871C81.5445 94.2461 81.4635 91.4848 81.431 90.6678C81.3983 89.8508 80.7123 90.7006 80.4181 90.9295C80.124 91.1578 79.3729 90.962 78.5231 91.0925C77.8889 91.1904 77.2366 91.3243 76.9467 91.386C76.8431 91.408 76.7398 91.4276 76.635 91.4426C76.3198 91.4877 75.5986 91.5829 75.1249 91.5829C74.504 91.5829 74.1774 91.1253 74.1774 90.0144C74.1774 89.0739 72.9131 88.1803 72.5249 87.9281C72.4507 87.8799 72.376 87.8331 72.3024 87.7841L71.6109 87.3231C70.6702 86.696 69.9556 85.7719 69.6804 84.6753C69.6651 84.6144 69.65 84.5531 69.6352 84.4916C69.4063 83.5441 69.3738 83.5441 68.4912 82.8905C67.609 82.2371 67.6418 81.7467 67.6746 80.7012C67.7073 79.6556 67.307 79.4673 67.0128 79.2224C66.7186 78.9776 66.0572 78.3646 65.9834 78.046C65.91 77.7274 65.9343 77.7765 66.1302 77.4577C66.2226 77.3081 66.1198 77.0933 65.985 76.9077C65.7839 76.631 65.535 76.3895 65.3641 76.0931C65.2287 75.8585 65.066 75.5422 64.9297 75.1785C64.6355 74.3942 64.6602 74.664 64.1452 73.3895C63.6305 72.115 63.2139 72.0907 62.92 71.5269C62.6258 70.9632 64.6602 73.6591 64.6602 73.1687C64.6602 72.6788 64.9784 72.1884 65.2726 71.6741C65.5668 71.1591 65.1746 72.4336 65.0031 73.0217C64.8283 73.6207 65.7891 73.877 66.2343 74.3143L66.2719 74.3513C66.7036 74.7754 66.9772 75.3443 67.2416 75.8888C67.4058 76.227 67.6575 76.6457 68.0421 77.1147C69.0471 78.3402 68.7773 77.9726 69.2432 78.8549C69.7086 79.7371 69.292 79.6391 69.8557 80.5707C70.4194 81.5017 70.9097 81.4038 71.4734 82.3839C72.0368 83.3645 72.282 83.9526 72.8213 84.6634C73.3607 85.3742 73.1889 85.4967 73.1889 85.8642C73.1889 86.2318 73.2623 87.2368 73.4094 87.5797C73.5565 87.9229 74.0468 89.3199 74.9044 89.4423C75.7623 89.565 75.5662 88.7561 76.2526 88.6827C76.9387 88.6091 76.914 88.6827 77.5271 88.3396C78.1395 87.9966 78.0662 88.0206 78.4827 88.0453C78.8993 88.0699 78.9484 87.9229 79.7079 87.1387C80.4678 86.3545 80.1736 86.8201 81.6198 86.7218C82.5466 86.6592 82.653 85.3074 83.4697 84.8648C83.5183 84.8384 83.5688 84.8121 83.6213 84.7858C84.6669 84.263 84.1767 84.7858 84.7975 84.3611C85.4184 83.9361 84.8306 83.8383 85.2225 83.7402C85.6146 83.6419 85.8106 83.7402 86.1048 83.0868C86.399 82.4329 86.5623 82.7927 87.2485 82.7272C87.9346 82.6618 87.2157 82.4657 87.1179 81.6162C87.0199 80.7664 87.1179 80.9626 87.7387 81.224C88.3596 81.4852 87.8366 80.799 88.196 79.884C88.5555 78.9692 88.5885 78.6423 88.3921 78.3811C88.2896 78.2445 87.9999 78.0812 87.7465 77.9563C87.4629 77.8165 87.181 77.6728 86.9092 77.5114C86.6379 77.3504 86.2505 77.1304 85.8106 76.9105C84.9612 76.4854 85.5492 76.649 85.3206 76.2571C85.0917 75.8646 85.1242 75.8646 84.9937 75.146C84.8631 74.427 84.7648 75.3093 84.4056 75.6035C84.0461 75.8977 84.0133 75.9957 83.752 76.3877C83.4905 76.7797 83.752 76.7797 83.2947 77.1063C82.8369 77.4333 82.8369 77.3027 82.3468 77.2047C81.8566 77.1063 81.7913 77.368 81.3338 77.4005C80.8765 77.4333 80.9743 77.1063 80.7454 76.6163C80.6129 76.3318 80.1938 76.0253 79.8655 75.8182C79.6066 75.6548 79.4278 75.383 79.4106 75.0774C79.3972 74.8396 79.2862 74.6178 79.1038 74.4646L78.6705 74.1003C78.624 74.0613 78.5816 74.0234 78.5427 73.9868C78.1838 73.6487 77.7881 72.9781 77.3521 72.7477C77.327 72.7344 77.3015 72.7226 77.2754 72.7114C77.1431 72.6544 76.6773 72.4435 75.9256 71.9927C75.0271 71.4533 75.9256 71.6004 76.2195 71.3553C76.5137 71.1104 76.563 71.3225 77.2491 71.3881C77.9353 71.4533 77.6738 71.2734 77.7394 70.8324C77.8047 70.3912 78.0334 71.1756 78.785 71.0448C79.5367 70.9139 78.8828 71.1429 79.2426 71.6657C79.602 72.1884 80.1245 73.1687 81.0233 73.463C81.0517 73.4723 81.0791 73.4816 81.1055 73.491C81.6835 73.6954 82.1262 74.334 82.7226 74.4758C83.4087 74.6394 83.3272 74.5576 84.5034 74.329C85.6798 74.1003 85.3043 74.4433 85.9252 75.3421C86.5461 76.2406 86.2681 75.5051 88.3268 75.8977C88.6001 75.9495 88.8077 75.9854 88.9641 76.0095C89.0365 76.0206 89.1382 76.1101 89.1929 76.1588C89.3889 76.3331 89.543 76.3234 89.6537 76.2588C89.7893 76.1797 89.9834 76.1753 90.1404 76.1753C90.255 76.1753 90.9736 75.8159 91.6438 75.7831C92.3137 75.7506 93.1796 75.4398 93.6697 75.7831C94.16 76.1263 94.0454 76.4042 94.4539 76.2896C94.8624 76.1753 94.7809 76.7143 95.0748 77.4005C95.1517 77.58 95.2432 77.6757 95.3363 77.7191C95.5543 77.8207 95.9261 77.9253 96.088 78.1032C96.2515 78.2827 96.774 78.5444 97.3296 78.4791C97.8851 78.4139 97.6729 78.5444 97.5257 78.675C97.3786 78.8058 97.1335 79.0835 96.6925 78.9529C96.2515 78.8221 96.774 79.5738 97.7055 80.4235C98.6366 81.273 98.5385 80.6194 99.1922 80.5051C99.8458 80.3905 99.3558 79.6556 99.4699 79.1C99.5842 78.5444 99.8296 79.7696 99.7153 80.4561C99.6007 81.1421 99.9767 81.3055 100.205 81.9264C100.434 82.5472 100.221 83.021 101.006 85.2761C101.79 87.5309 103.391 92.5797 103.947 93.5109C104.503 94.4419 104.551 94.099 104.895 93.6252C104.955 93.5414 105.016 93.474 105.076 93.4197C105.303 93.2131 105.569 92.915 105.679 92.6284C105.76 92.416 105.777 92.2855 106.234 91.9258C106.444 91.761 106.278 91.4265 106.257 91.1607C106.25 91.0797 106.243 90.9867 106.234 90.8802C106.234 90.8704 106.233 90.8607 106.232 90.8512C106.204 90.4472 106.431 89.962 106.506 89.5639C106.521 89.4832 106.525 89.4008 106.523 89.3186C106.514 89.0797 106.508 88.5193 106.594 87.8577C106.708 86.9751 106.479 86.6484 106.496 86.2399C106.512 85.8314 106.577 85.9623 106.872 85.9623C107.166 85.9623 107.117 85.6356 107.215 85.4067C107.313 85.1777 107.394 85.4885 107.525 85.4067C107.656 85.3249 107.901 85.1618 107.934 84.8511C107.984 84.3725 108.367 83.9866 108.549 83.5409C108.601 83.4119 108.655 83.2898 108.702 83.2009C108.865 82.8905 108.963 82.8252 109.208 82.5963C109.453 82.3676 109.715 82.2696 109.698 81.9429C109.682 81.6162 109.698 81.8121 109.878 81.8121C110.058 81.8121 110.139 81.8283 110.237 81.7794C110.256 81.7699 110.286 81.7415 110.321 81.7018C110.607 81.3777 110.76 80.9539 110.76 80.5214C110.76 80.1456 110.809 80.3417 110.94 80.0638C111.071 79.7861 111.038 79.868 111.152 79.4919C111.224 79.2555 111.335 79.4267 111.407 79.5861C111.458 79.6978 111.551 79.7877 111.67 79.8176C111.795 79.8487 111.893 79.9442 111.927 80.0677L111.928 80.0706C111.934 80.092 111.942 80.1128 111.951 80.1327L111.968 80.1668C112.039 80.3113 112.186 80.4029 112.347 80.4029C112.514 80.4029 112.666 80.3035 112.733 80.1498L112.795 80.0085C112.842 79.899 112.86 79.7787 112.841 79.6607C112.816 79.5011 112.777 79.2772 112.737 79.1683C112.712 79.0995 112.761 78.9982 112.832 78.8992C112.968 78.708 113.243 78.7209 113.406 78.8895C113.439 78.924 113.466 78.9633 113.485 79.0076C113.555 79.1785 113.731 79.6557 113.717 80.1399C113.713 80.291 113.734 80.3708 113.767 80.4055C113.875 80.5195 114.115 80.4575 114.077 80.6099C114.06 80.6762 114.115 80.7533 114.194 80.8264C114.431 81.0442 114.701 81.2302 114.894 81.487C115.084 81.7189 115.186 82.0101 115.143 82.3067C115.133 82.3742 115.121 82.4492 115.106 82.5315C115.025 82.9887 115.123 83.0213 115.286 82.809C115.449 82.5965 115.531 82.466 115.531 82.6618C115.531 82.7346 115.585 82.9381 115.653 83.1652C115.82 83.7223 115.919 84.2991 115.906 84.8805C115.901 85.0912 115.896 85.3036 115.891 85.4719C115.874 85.9951 115.989 85.7986 116.103 85.8642C116.217 85.9297 116.479 86.1421 116.544 86.1256C116.61 86.1093 116.659 85.7662 116.953 85.3414C117.247 84.9164 117.28 85.0472 117.345 84.5898C117.41 84.1325 117.786 84.9001 117.982 85.4232C118.178 85.9458 118.382 86.7218 118.554 87.8495C118.725 88.9769 118.775 89.3442 118.652 90.4473C118.529 91.5502 118.309 92.8735 118.26 93.8295C118.211 94.7852 118.824 95.4713 118.897 95.7902C118.971 96.1087 118.921 96.7705 118.897 97.1871C118.886 97.3748 118.915 97.6769 118.95 97.9522C119.003 98.3733 119.025 98.7982 118.998 99.2218C118.983 99.4579 118.971 99.7052 118.971 99.8586C118.971 100.226 119.216 100.545 119.412 100.912C119.608 101.28 119.804 101.158 119.975 100.962C120.147 100.765 120.098 100.643 119.877 99.7114C119.657 98.7802 119.828 99.2948 120.122 98.1917C120.417 97.089 120.106 96.4516 119.894 96.0109C119.681 95.5696 119.55 95.4878 119.273 95.3901C118.995 95.2917 119.109 94.8832 119.191 94.2624C119.273 93.6415 119.06 93.707 119.191 93.0697C119.322 92.4325 119.109 92.9391 118.946 93.1022C118.782 93.2658 118.848 93.135 118.734 92.6612C118.619 92.1875 118.782 92.0241 118.815 91.6481C118.848 91.2724 118.913 91.2071 119.256 90.0632C119.6 88.9195 119.256 89.7693 119.273 89.426C119.289 89.0829 119.436 88.7233 119.55 88.5438C119.665 88.3642 119.681 88.7233 119.681 88.985C119.681 89.2465 119.665 89.3282 119.796 89.4754C119.926 89.6222 120.384 89.5566 120.482 89.753C120.54 89.8696 120.627 90.1075 120.688 90.2812C120.737 90.4188 120.777 90.5589 120.804 90.7022C120.831 90.8439 120.865 91.0451 120.89 91.2724C120.939 91.7133 121.037 91.7626 121.299 92.0241C121.399 92.1241 121.434 92.224 121.44 92.3093C121.451 92.4737 121.355 92.6265 121.306 92.7837C121.237 93.0046 121.149 93.2862 121.319 93.4437C121.349 93.4712 121.385 93.4818 121.429 93.4616C121.609 93.3801 121.56 93.2986 121.985 92.7102C122.41 92.1221 122.018 92.1056 122.132 91.6809C122.246 91.2561 122.443 91.7461 122.753 91.2236C123.063 90.7006 123.096 90.1122 123.194 89.6877C123.292 89.2627 123.259 88.9685 123.259 88.7073C123.259 88.4457 123.194 87.7923 123.096 87.2693C122.998 86.7465 122.965 86.9098 122.671 85.8642C122.377 84.8186 121.756 83.5279 121.577 83.1846C121.397 82.8414 121.479 82.3514 121.527 81.7794C121.577 81.2075 121.764 80.8889 121.814 80.5214C121.863 80.1538 121.911 79.8595 122.353 79.8595C122.794 79.8595 122.402 80.2274 122.818 81.0114C123.235 81.7958 123.21 80.2765 123.259 79.3942C123.309 78.5116 123.782 78.6423 124.249 78.1197ZM116.358 118.724C116.384 118.688 116.331 118.642 116.299 118.673C115.385 119.539 114.417 120.189 113.946 120.503C112.522 121.451 112.129 121.451 111.267 122.202C110.527 122.846 110.406 123.202 109.437 124.489C109.247 124.741 107.948 126.457 106.626 127.757C104.527 129.822 102.687 130.53 102.77 130.698C102.834 130.826 103.969 130.525 105.602 129.846C105.705 129.804 105.8 129.747 105.887 129.678C109.857 126.525 113.384 122.837 116.358 118.724ZM42.5777 39.4698C40.3832 41.1815 40.4474 41.1325 40.3475 41.2099C38.1991 42.8728 37.877 42.8894 36.6711 43.9792C35.8937 44.6815 34.6655 45.906 34.8086 46.0869C34.9829 46.3074 36.9384 44.6534 40.519 43.0235C41.1591 42.7321 40.9057 42.8718 43.5333 41.749C46.2099 40.6053 46.8357 40.3054 47.5773 39.8864C49.2901 38.9188 48.9623 38.8188 49.9546 38.4158C51.1183 37.9431 52.117 37.8578 53.4596 36.9698C54.2527 36.4451 54.2307 36.2587 54.2194 36.2103C54.0888 35.6612 51.3117 35.8996 50.8369 35.9404C50.0762 36.0057 49.1257 36.0932 47.9449 36.4798C47.5408 36.612 47.1715 36.7599 46.8275 36.9118C45.8464 37.4026 44.8821 37.922 43.9353 38.4689C43.4388 38.7998 43.0254 39.1204 42.5777 39.4698ZM92.9913 38.2524C92.9331 38.416 93.7078 39.1155 94.5272 39.0529C95.0606 39.0125 95.2348 38.6779 96.0713 38.5872C96.4324 38.5481 96.6978 38.5783 96.7002 38.5465C96.705 38.4943 95.9856 38.3792 95.377 38.3177C95.001 38.28 95.033 38.2995 93.8573 38.2442C93.123 38.2098 93.0111 38.1974 92.9913 38.2524ZM41.875 43.6605C41.8073 43.9106 41.6424 43.9685 41.6627 44.0528C41.7003 44.2083 42.3201 44.241 42.97 44.1343C43.4824 44.0503 44.2989 43.9051 44.7672 43.2685C44.8323 43.18 45.0742 42.8511 44.9631 42.6639C44.8716 42.509 44.579 42.521 44.277 42.5334C44.1009 42.5405 43.8436 42.5508 43.5415 42.6802C43.1479 42.849 42.9922 43.0852 42.8881 43.0235C42.7649 42.9503 42.9423 42.596 42.8063 42.5006C42.6695 42.4042 42.3133 42.6409 42.1202 42.8763C42.0627 42.9462 41.9512 43.0822 41.9078 43.2848C41.8715 43.4531 41.9181 43.5026 41.875 43.6605ZM38.5419 52.1896C38.4552 52.1387 38.4932 51.9041 38.5419 51.7649C38.6351 51.4983 38.8905 51.2242 39.2118 51.144C39.3513 51.109 39.4385 51.1267 39.4732 51.0622C39.5436 50.9311 39.2451 50.7504 39.2934 50.5557C39.3229 50.4375 39.5095 50.3666 39.8818 50.2289C40.1926 50.1138 40.2796 50.1141 40.5025 50.0001C40.5855 49.9578 40.6733 49.9003 40.8458 49.7877C41.3437 49.4621 41.442 49.3551 41.5647 49.3957C41.6801 49.4337 41.777 49.5891 41.7608 49.7224C41.7291 49.9776 41.3087 49.9255 41.0747 50.3105C40.9658 50.4893 41.0032 50.5879 40.8293 50.8498C40.8024 50.8904 40.7244 51.0042 40.6009 51.1275C40.5339 51.1938 40.3338 51.3826 39.8655 51.585C39.4328 51.7719 39.4215 51.6895 39.1302 51.8464C38.7765 52.0368 38.6343 52.2438 38.5419 52.1896ZM39.4406 53.4149C39.4852 53.5117 39.926 53.3304 41.532 52.8921C42.1689 52.7183 42.4197 52.6594 42.7412 52.4346C43.0693 52.2051 43.0804 52.0762 43.4927 51.8138C43.9285 51.5363 44.1682 51.5204 44.2116 51.3234C44.26 51.1032 43.9778 51.0393 43.8521 50.6373C43.8015 50.4748 43.8194 50.3962 43.9174 49.4936C43.9802 48.9169 43.9745 48.9313 43.9829 48.9056C44.1964 48.2268 44.9061 47.9919 44.8325 47.7944C44.7677 47.6202 44.1986 47.7521 44.1135 47.533C44.0537 47.3792 44.2845 47.1835 44.2441 47.1408C44.1655 47.0568 43.2741 47.8083 43.1985 47.7291C43.1535 47.682 43.4391 47.3843 43.3946 47.3369C43.3309 47.2686 42.6717 47.8101 42.3487 48.0886C41.8538 48.516 41.8278 48.6043 41.8262 48.6767C41.8175 49.0166 42.3398 49.0943 42.5123 49.657C42.5419 49.7537 42.6469 50.0961 42.4795 50.3106C42.349 50.478 42.1783 50.406 41.7607 50.6373C41.5616 50.7475 41.4386 50.818 41.3687 50.964C41.2622 51.1867 41.405 51.3218 41.3031 51.4543C41.168 51.6301 40.8724 51.447 40.5189 51.6501C40.4671 51.6802 40.2435 51.8089 40.2575 51.9443C40.2822 52.18 41.0033 52.2022 41.0092 52.3693C41.014 52.4969 40.5937 52.5354 40.0614 52.8593C39.8054 53.0154 39.3947 53.3161 39.4406 53.4149ZM67.6741 36.88C67.756 37.1511 68.8688 37.0471 69.2594 37.0105C70.0652 36.9353 70.0222 36.8188 70.5336 36.8307C71.168 36.8459 71.3516 37.0279 72.0364 36.9943C72.3846 36.9772 72.8821 36.9036 72.8862 36.7982C72.8909 36.691 72.383 36.5647 71.9715 36.5206C71.505 36.4701 71.3354 36.5438 70.4193 36.6186C69.7713 36.6712 69.4474 36.6977 69.2594 36.6676C68.6539 36.5701 68.3743 36.3117 68.0174 36.4715C67.8251 36.5576 67.6362 36.7538 67.6741 36.88ZM82.6735 37.2884C82.7607 37.474 83.2561 37.4821 83.3596 37.2884C83.4019 37.2091 83.3649 37.1208 83.3596 37.1088C83.2803 36.9279 82.9465 36.8407 82.7712 36.9942C82.6935 37.0625 82.629 37.1942 82.6735 37.2884ZM79.5364 36.3081C79.3991 36.3983 79.272 36.57 79.3075 36.7001C79.3539 36.8693 79.6767 36.9133 80.3205 36.9942C80.926 37.0703 81.2785 37.0597 81.7422 37.0432C82.1544 37.0287 82.2121 37.0035 82.2159 36.978C82.2249 36.9149 81.9042 36.8366 81.35 36.6675C80.1602 36.3046 79.8313 36.1138 79.5364 36.3081ZM69.733 40.8666C69.8086 40.6598 70.3214 40.5756 70.501 40.8012C70.5763 40.896 70.5947 41.048 70.5335 41.1607C70.4387 41.3359 70.1764 41.3736 69.9944 41.2913C69.8176 41.2113 69.6826 41.0036 69.733 40.8666ZM70.7788 40.0007C70.7573 39.8951 70.8069 39.8396 71.1379 39.3308C71.6599 38.5293 71.6229 38.5353 71.71 38.4647C72.1328 38.1238 72.3975 38.4786 73.2622 38.2034C73.7823 38.0379 73.9651 37.821 74.5204 37.7949C74.7632 37.7836 75.0945 37.8076 75.1082 37.893C75.125 37.9929 74.6998 38.1438 74.2098 38.3177C73.7053 38.497 73.603 38.4974 73.1969 38.6609C72.7117 38.8562 72.5248 38.99 72.3961 39.1021C72.2074 39.2663 71.9809 39.4633 72.0039 39.7066C72.0264 39.9444 72.2762 40.111 72.3799 40.1803C72.6381 40.3528 72.8724 40.3555 72.8702 40.4092C72.8678 40.4617 72.6399 40.511 72.3799 40.5235C71.8067 40.5509 70.8619 40.4105 70.7788 40.0007ZM122.949 81.4525C122.76 81.4501 122.621 81.8629 122.589 81.959C122.578 81.9929 122.346 82.7115 122.704 82.9885C122.713 82.9957 122.893 83.1308 123.063 83.0702C123.324 82.9768 123.338 82.5024 123.341 82.4001C123.354 81.9683 123.159 81.455 122.949 81.4525ZM124.877 95.4222C124.852 95.421 124.822 95.4447 124.566 96.1902C124.263 97.0749 124.284 97.1023 124.174 97.2358C123.981 97.4701 123.762 97.5711 123.733 97.8404C123.719 97.9674 123.761 98.0119 123.733 98.1346C123.679 98.3763 123.453 98.4965 123.325 98.5922C123.057 98.7917 123.116 98.9592 122.622 100.21C122.384 100.812 122.272 101.024 122.181 101.01C122.048 100.99 122.07 100.502 121.952 100.487C121.822 100.471 121.625 101.046 121.495 101.582C121.281 102.463 121.424 102.501 121.233 103.412C121.107 104.016 120.962 104.393 121.037 104.899C121.068 105.105 121.134 105.321 121.184 105.487C121.293 105.846 121.35 106.026 121.462 106.075C121.667 106.165 121.993 105.914 122.181 105.699C122.622 105.195 122.372 104.809 122.753 103.984C123.044 103.352 123.24 103.472 123.373 102.971C123.524 102.407 123.34 102.02 123.651 101.615C123.798 101.424 123.871 101.467 124.027 101.304C124.521 100.789 124.02 100.119 124.272 98.7555C124.324 98.4745 124.42 97.9569 124.713 97.3667C124.839 97.1126 124.89 97.072 124.959 96.8764C125.203 96.1799 125.011 95.4296 124.877 95.4222ZM118.015 108.543C117.82 108.564 117.655 108.791 117.671 108.967C117.681 109.07 117.745 109.077 117.786 109.213C117.851 109.428 117.719 109.51 117.769 109.67C117.838 109.887 118.18 110.042 118.439 109.997C118.581 109.972 118.619 109.901 118.701 109.931C118.839 109.984 118.776 110.21 118.962 110.405C119.06 110.507 119.179 110.55 119.273 110.585C119.513 110.673 119.654 110.622 119.73 110.732C119.785 110.812 119.742 110.882 119.812 110.944C119.873 110.999 119.972 111.002 120.04 110.977C120.19 110.923 120.292 110.702 120.237 110.552C120.168 110.367 119.91 110.432 119.665 110.16C119.573 110.058 119.485 109.961 119.501 109.85C119.535 109.612 119.994 109.616 120.122 109.261C120.14 109.213 120.172 109.124 120.139 109.033C120.042 108.771 119.458 108.644 119.109 108.853C118.876 108.992 118.823 109.237 118.701 109.213C118.609 109.194 118.62 109.053 118.472 108.853C118.393 108.746 118.225 108.52 118.015 108.543ZM116.838 105.177C116.737 105.195 116.735 105.941 116.838 105.961C116.892 105.971 116.987 105.786 117.002 105.618C117.022 105.389 116.896 105.166 116.838 105.177ZM116.152 99.4091C116.074 99.4291 116.033 99.5841 116.054 99.703C116.098 99.9538 116.428 100.126 116.511 100.062C116.583 100.008 116.487 99.7625 116.397 99.6214C116.36 99.5632 116.246 99.3847 116.152 99.4091ZM116.74 102.366C116.643 102.366 116.527 102.513 116.56 102.628C116.602 102.771 116.856 102.801 116.92 102.726C116.991 102.642 116.873 102.367 116.74 102.366ZM116.707 103.379C116.777 103.373 116.848 103.547 116.871 103.657C116.884 103.724 116.913 103.865 116.838 103.918C116.781 103.96 116.68 103.938 116.626 103.886C116.486 103.753 116.609 103.388 116.707 103.379ZM116.413 101.026C116.22 101.128 116.26 101.675 116.446 101.745C116.57 101.792 116.787 101.639 116.854 101.451C116.868 101.415 116.89 101.348 116.871 101.272C116.822 101.081 116.546 100.957 116.413 101.026ZM117.426 97.2031C117.256 97.0853 117.164 97.1376 116.952 97.0563C116.606 96.923 116.538 96.6632 116.397 96.6968C116.243 96.7334 116.201 97.072 116.185 97.2031C116.177 97.2638 116.072 98.2029 116.593 98.5594C116.718 98.6448 116.859 98.6832 116.92 98.8371C116.959 98.9363 116.931 98.9993 116.92 99.2131C116.909 99.4056 116.901 99.5535 116.936 99.7031C116.984 99.9108 117.073 99.939 117.247 100.259C117.322 100.398 117.401 100.544 117.443 100.7C117.55 101.102 117.334 101.294 117.312 101.729C117.292 102.124 117.462 102.101 117.573 102.693C117.68 103.259 117.612 103.762 117.557 104.18C117.485 104.721 117.405 104.795 117.443 105.128C117.49 105.545 117.637 105.61 117.606 105.945C117.569 106.336 117.354 106.394 117.377 106.745C117.39 106.939 117.456 106.922 117.59 107.35C117.719 107.764 117.694 107.896 117.802 107.954C118.021 108.071 118.431 107.698 118.472 107.66C118.838 107.321 118.829 107.031 119.191 106.075C119.443 105.41 119.652 105.009 119.518 104.899C119.397 104.8 119.111 105.023 119.011 104.915C118.945 104.844 119.037 104.711 119.125 104.376C119.213 104.044 119.284 103.775 119.158 103.575C119.075 103.443 118.987 103.471 118.913 103.33C118.809 103.129 118.894 102.892 118.929 102.791C119.082 102.363 119.382 102.324 119.371 102.088C119.361 101.881 119.129 101.908 118.978 101.582C118.89 101.392 118.876 101.172 118.848 100.732C118.838 100.584 118.838 100.498 118.782 100.389C118.691 100.211 118.583 100.235 118.456 100.063C118.358 99.9312 118.331 99.7732 118.276 99.458C118.233 99.2163 118.254 99.2104 118.227 99.0822C118.119 98.5662 117.77 98.5448 117.704 98.1182C117.662 97.8489 117.784 97.7416 117.671 97.4973C117.646 97.4425 117.574 97.3055 117.426 97.2031ZM106.659 92.9552C106.599 92.9594 106.556 93.0506 106.349 93.9193C106.216 94.4732 106.15 94.7528 106.152 94.8831C106.162 95.3698 106.337 95.4035 106.349 95.9943C106.35 96.1137 106.346 96.2109 106.414 96.272C106.568 96.4096 106.971 96.2537 107.214 96.043C107.597 95.712 107.622 95.2131 107.623 95.1773C107.635 94.8064 107.46 94.7152 107.116 93.9353C106.826 93.2773 106.776 92.9468 106.659 92.9552ZM55.5549 65.7549C55.5806 65.7235 55.6968 65.7733 55.9102 65.8651C56.0457 65.9233 56.1232 65.9662 56.1676 65.9875C56.4149 66.1068 56.5927 66.0195 56.9396 66.0244C57.3384 66.0306 57.749 66.1555 57.7485 66.2451C57.7482 66.3218 57.4483 66.3773 57.3684 66.3923C57.2202 66.4196 57.0599 66.4291 56.7066 66.3923C56.3054 66.3497 56.1045 66.3286 55.9593 66.2451C55.6843 66.087 55.5139 65.8055 55.5549 65.7549ZM53.9579 63.4389C53.9267 63.4557 53.7696 63.5472 53.7699 63.6678C53.7704 63.7761 53.8985 63.7997 53.9251 63.9373C53.9538 64.0868 53.8203 64.1508 53.8598 64.2721C53.8918 64.3704 54.0083 64.4167 54.1375 64.4682C54.3349 64.5468 54.3728 64.4975 54.4722 64.55C54.7283 64.6847 54.6253 65.0883 54.8401 65.1709C54.9572 65.2158 55.123 65.147 55.1668 65.0482C55.1936 64.9881 55.1721 64.9236 55.1259 64.8195C54.9471 64.4165 54.7995 64.3236 54.8401 64.2068C54.8769 64.1012 55.0457 64.0413 55.1668 64.0597C55.3101 64.0814 55.3876 64.2128 55.4201 64.1903C55.4485 64.1708 55.4136 64.0532 55.3545 63.9536C55.2749 63.8181 55.1487 63.7112 54.8891 63.5941C54.5508 63.4419 54.2214 63.2934 53.9579 63.4389ZM53.2553 63.7819C53.2296 63.8294 53.2404 63.9049 53.2959 63.9372C53.3514 63.9694 53.4189 63.9395 53.4514 63.8963C53.4809 63.8565 53.4888 63.7947 53.4596 63.7573C53.4151 63.7012 53.2938 63.7107 53.2553 63.7819ZM53.149 63.1365C53.052 63.1444 52.9699 63.2535 52.9853 63.357C53.004 63.4784 53.1495 63.5529 53.247 63.5125C53.3055 63.4884 53.3383 63.4264 53.3451 63.3735C53.3591 63.2617 53.2635 63.1273 53.149 63.1365ZM44.5873 60.7348C44.4573 60.8808 44.6748 61.0932 44.5548 61.3722C44.4976 61.5044 44.4394 61.4776 44.2441 61.7151C44.0765 61.9191 43.9786 62.0381 43.9664 62.2054C43.9497 62.4349 44.0976 62.7147 44.2931 62.7445C44.4175 62.7635 44.5215 62.6757 44.6526 62.5647C44.926 62.3339 45.0427 62.0527 45.0776 61.9601C45.1903 61.6634 45.0838 61.6759 45.2082 61.2576C45.2642 61.0697 45.3219 60.9455 45.2575 60.8326C45.2031 60.7386 45.0944 60.7059 45.0286 60.6858C45.0139 60.6817 44.713 60.5939 44.5873 60.7348ZM45.6659 59.0354C45.5575 58.9707 45.2771 59.195 45.1265 59.4277C44.9808 59.6528 44.9678 59.8689 44.9632 59.9668C44.9602 60.0337 44.945 60.3522 45.0612 60.3918C45.1156 60.4099 45.1964 60.339 45.3554 60.1957C45.5209 60.0464 45.6038 59.9719 45.6493 59.8687C45.685 59.7877 45.6902 59.6831 45.6983 59.4767C45.7095 59.2021 45.7152 59.065 45.6659 59.0354ZM47.1731 63.39C47.0838 63.4151 46.987 63.4869 46.9526 63.586C46.8785 63.7976 47.1205 64.0449 47.2709 64.1985C47.4513 64.3827 47.6198 64.471 47.8714 64.6032C48.1353 64.7411 48.2699 64.8096 48.4105 64.7745C48.6337 64.7189 48.7489 64.4792 48.7662 64.444C48.8653 64.237 48.7609 64.1785 48.864 63.9781C48.9425 63.825 49.0319 63.8033 49.1334 63.586C49.1814 63.4842 49.2137 63.4127 49.1827 63.3653C49.1259 63.2784 48.8964 63.3341 48.7169 63.3775C48.3653 63.4631 48.3579 63.54 48.141 63.5614C47.8991 63.5853 47.6694 63.513 47.5897 63.4878C47.3871 63.4241 47.3031 63.3529 47.1731 63.39ZM78.2619 114.032C78.0687 114.267 78.1617 114.392 77.9677 114.653C77.8284 114.841 77.755 114.811 77.5757 115.045C77.4603 115.196 77.436 115.28 77.3468 115.437C77.223 115.657 77.1009 115.79 76.8568 116.058C76.6282 116.309 76.4212 116.487 76.0071 116.843C75.8275 116.997 75.7367 117.075 75.6803 117.104C75.3103 117.297 75.0828 117.134 74.7328 117.267C74.4042 117.393 74.2306 117.68 74.1445 117.823C73.9627 118.124 73.9446 118.4 73.9158 118.934C73.8841 119.525 73.9662 119.568 73.9158 120.045C73.886 120.326 73.8516 120.652 73.6869 121.025C73.4226 121.625 73.1094 121.697 73.0986 122.136C73.0956 122.262 73.1197 122.32 73.1316 122.725C73.1381 122.953 73.1417 123.067 73.1316 123.182C73.1037 123.5 73.0363 123.556 73.0661 123.738C73.0961 123.921 73.1947 124.045 73.2622 124.13C73.4794 124.403 73.7652 124.504 73.9158 124.555C74.1252 124.625 74.6797 124.813 75.0922 124.555C75.3158 124.415 75.2952 124.27 75.6803 123.443C75.9507 122.864 75.9666 122.922 76.2032 122.398C76.5225 121.69 76.4654 121.645 76.6935 121.189C76.8876 120.8 76.9403 120.811 77.5104 119.947C77.995 119.213 78.2378 118.841 78.2619 118.64C78.3399 117.987 77.9243 117.614 78.1966 117.137C78.2762 116.997 78.4339 116.815 78.556 116.843C78.6806 116.871 78.6945 117.101 78.7849 117.104C78.905 117.108 79.007 116.705 79.0133 116.679C79.0894 116.373 79.0802 116.129 79.0463 115.699C78.9811 114.879 78.9675 115.172 78.8828 114.359C78.8453 114.002 78.8345 113.816 78.7191 113.771C78.578 113.716 78.3651 113.907 78.2619 114.032Z" fill="#66C368"/>
<path fill-rule="evenodd" clip-rule="evenodd" d="M62.7784 66.7621H62.9124C64.4002 66.7621 65.6173 67.9791 65.6173 69.467V73.2886C65.6806 73.8003 65.7134 74.3216 65.7134 74.8507C65.7134 81.8177 60.0654 87.4656 53.0985 87.4656C46.1316 87.4656 40.4836 81.8177 40.4836 74.8507C40.4836 74.3216 40.5164 73.8003 40.5797 73.2886V69.467C40.5797 67.9791 41.7968 66.7621 43.2846 66.7621H43.4186H62.7784ZM101.49 66.5699H101.624C103.112 66.5699 104.329 67.7869 104.329 69.2749V73.0964C104.392 73.6082 104.425 74.1294 104.425 74.6585C104.425 81.6255 98.7771 87.2735 91.8102 87.2735C84.8432 87.2735 79.1953 81.6255 79.1953 74.6585C79.1953 74.1294 79.228 73.6082 79.2914 73.0964V69.2749C79.2914 67.7869 80.5084 66.5699 81.9963 66.5699H82.1302H101.49Z" fill="white"/>
<path fill-rule="evenodd" clip-rule="evenodd" d="M53.4981 72.1625C54.7816 72.1625 56.0124 72.6724 56.92 73.5799C57.8275 74.4874 58.3373 75.7183 58.3373 77.0018C58.3373 77.9589 58.0535 78.8945 57.5218 79.6903C56.99 80.4861 56.2342 81.1064 55.3499 81.4727C54.4657 81.8389 53.4927 81.9347 52.554 81.748C51.6152 81.5613 50.753 81.1004 50.0762 80.4236C49.3994 79.7468 48.9385 78.8845 48.7518 77.9458C48.5651 77.0071 48.6609 76.0341 49.0272 75.1498C49.3935 74.2656 50.0137 73.5098 50.8096 72.978C51.6054 72.4463 52.541 72.1625 53.4981 72.1625Z" fill="#1B1918"/>
<path fill-rule="evenodd" clip-rule="evenodd" d="M91.8254 72.0184C93.1088 72.0184 94.3397 72.5282 95.2473 73.4357C96.1548 74.3433 96.6646 75.5741 96.6647 76.8576C96.6647 77.8147 96.3809 78.7503 95.8491 79.5461C95.3174 80.3419 94.5616 80.9622 93.6773 81.3285C92.7931 81.6948 91.8201 81.7906 90.8814 81.6039C89.9426 81.4172 89.0803 80.9563 88.4035 80.2795C87.7268 79.6027 87.2659 78.7405 87.0791 77.8017C86.8924 76.863 86.9882 75.89 87.3545 75.0057C87.7208 74.1215 88.341 73.3657 89.1368 72.8339C89.9327 72.3022 90.8683 72.0184 91.8254 72.0184Z" fill="#1B1918"/>
<path fill-rule="evenodd" clip-rule="evenodd" d="M71.6226 85.7616C71.2128 85.3212 71.2375 84.6311 71.678 84.2213C72.1184 83.8115 72.8084 83.8362 73.2182 84.2766C73.4839 84.5619 73.8078 84.8437 74.158 85.1086C74.3363 85.2436 74.5226 85.3749 74.713 85.5013C75.1097 85.7644 75.5528 85.9641 76.0255 86.0201C76.1756 86.0379 76.3164 86.0436 76.4444 86.0323C76.6679 86.0091 76.8768 85.9217 77.0573 85.7186C77.2961 85.378 77.4307 84.9165 77.2284 84.6602C76.4007 83.6251 75.79 82.8332 75.2572 82.0623C74.7229 81.2892 73.4235 79.2692 72.9693 78.3914C72.6942 77.8571 72.9038 77.199 73.4381 76.9239C73.9724 76.6487 74.6304 76.8584 74.9056 77.3927C75.319 78.1919 76.5747 80.1391 77.0478 80.8248C78.0305 82.2464 79.5184 83.4337 79.4078 85.2884C79.3736 85.8482 79.2127 86.4625 78.8167 87.007L78.7781 87.0536C78.1579 87.8158 77.4256 88.1339 76.6322 88.203C75.9742 88.2561 75.3307 88.1332 74.6901 87.9679C74.5765 87.9453 74.4644 87.9046 74.3589 87.8442C73.8522 87.5552 73.3318 87.2174 72.8448 86.8484C72.3986 86.5106 71.9786 86.1437 71.6226 85.7616Z" fill="#1B1918"/>
<path fill-rule="evenodd" clip-rule="evenodd" d="M67.9677 91.2792C73.002 93.1995 77.6848 93.0844 82.0763 91.2792C83.8401 90.5542 85.5426 92.8384 85.5426 94.7456C85.5426 96.6527 83.8772 97.5843 82.0763 98.2125C77.5123 99.8045 72.7902 99.5737 67.9677 98.2125C66.1326 97.6943 64.5013 96.6533 64.5013 94.7462C64.5013 92.839 66.1857 90.5993 67.9677 91.2792Z" fill="#1B1918"/>
<path fill-rule="evenodd" clip-rule="evenodd" d="M81.574 98.3801C78.8239 99.2572 76.017 99.4843 73.1665 99.2136C73.8267 97.42 75.5504 96.1417 77.5734 96.1417C79.2658 96.1417 80.7478 97.037 81.574 98.3801Z" fill="#EB5959"/>
<path d="M71.7294 4.00822L72.2294 4.00822L72.5 4.00821C76.4488 3.92174 81.1081 4.48323 84.1353 7.29416C84.5713 7.83044 84.8297 8.28223 84.9291 8.85194C85.0125 9.33029 84.9152 9.82626 84.6831 10.2528C84.0199 11.4715 82.8299 12.1639 81.5548 12.8221C80.9261 13.1308 80.2887 13.3999 79.6394 13.6461C79.1371 13.8365 78.8848 14.4573 79.3171 14.776V14.776C79.3649 14.8113 79.4278 14.8651 79.467 14.9096C79.626 15.09 79.7841 15.271 79.9416 15.4526C80.0879 15.5965 80.0879 15.5965 80.2371 15.7433C80.5981 16.1097 80.9134 16.5023 81.2379 16.9013C81.3637 17.0397 81.4895 17.1781 81.6191 17.3207C81.9903 17.729 82.3381 18.1511 82.6866 18.5788C82.7764 18.6686 82.8663 18.7585 82.9584 18.8506C82.9796 18.8718 82.989 18.9055 82.9945 18.935V18.935C83.0024 18.9771 83.0249 19.0117 83.0572 19.0399C83.1155 19.0905 83.1721 19.1656 83.2312 19.2186C83.2709 19.254 83.316 19.2839 83.3541 19.3211C83.6784 19.6377 83.9986 19.9567 84.3163 20.28C85.0365 21.0122 85.0413 21.017 85.7976 21.6915C85.807 21.6998 85.8127 21.7319 85.8127 21.7194V21.7194C85.8127 21.7014 85.8237 21.7307 85.8395 21.7392C85.9391 21.7927 86.0388 21.9165 86.1406 21.9818C86.1744 22.0035 86.2109 22.0209 86.2445 22.0428C86.3335 22.1008 86.4223 22.1591 86.5107 22.2179C86.7551 22.3803 87.0307 22.4905 87.3207 22.5352C87.4415 22.5537 87.5629 22.5724 87.6854 22.5913C87.8069 22.61 87.9209 22.6623 88.0142 22.7423C88.1158 22.8294 88.2179 22.9169 88.3215 23.0057C88.3706 23.0478 88.3851 23.1174 88.3561 23.1753V23.1753C88.3389 23.2098 88.3068 23.2366 88.2699 23.248C86.7729 23.7085 86.4401 23.8091 86.2949 23.7955C86.2458 23.7909 86.1939 23.8193 86.1939 23.8685V23.8685C86.1939 23.8968 86.1761 23.9223 86.1494 23.9315C85.7656 24.0649 85.3817 24.1978 84.9978 24.3307C84.6648 24.4461 84.6647 24.4461 84.325 24.5639C83.9001 24.7059 83.7914 24.7423 83.6065 24.783C83.4519 24.8171 83.2989 24.868 83.1573 24.9388V24.9388C82.9955 25.0197 82.8244 25.0763 82.6449 25.0984C81.6768 25.2177 80.986 25.0796 80.0941 24.526C79.5733 24.1254 79.1056 23.6979 78.6454 23.2298C78.6309 23.2182 78.6164 23.2066 78.6018 23.195C78.3772 23.0152 78.1682 22.8167 77.9788 22.6C77.8958 22.5051 77.8131 22.4101 77.7305 22.3149C77.6298 22.2142 77.5292 22.1136 77.4255 22.0099C77.1309 21.7153 76.859 21.4102 76.5868 21.0949C76.4767 20.9738 76.3666 20.8527 76.2532 20.728C76.017 20.4631 75.7866 20.1928 75.5622 19.9178C75.3301 19.6349 75.09 19.3583 74.8426 19.0887C72.2185 16.1765 71.9027 15.826 71.8646 15.0953C71.8544 14.8992 71.9852 14.7247 72.1715 14.6629V14.6629C72.6428 14.506 73.1136 14.3479 73.5845 14.1898C73.7465 14.1361 73.9085 14.0823 74.0754 14.027C75.1335 13.6705 76.0765 13.3034 76.9811 12.6572C77.0723 12.5921 77.1609 12.4805 77.273 12.4805V12.4805C77.2935 12.4805 77.318 12.4886 77.3402 12.4952C77.3814 12.5074 77.4171 12.454 77.4017 12.4139C77.401 12.4119 77.4002 12.41 77.3995 12.4081C77.3854 12.3711 77.408 12.3215 77.4207 12.284V12.284C77.4268 12.266 77.4331 12.2426 77.4466 12.2292C77.5452 12.1306 77.5732 12.1025 77.6446 12.0312C77.7014 11.9743 77.7493 11.9084 77.7842 11.8359C77.972 11.4456 78.0595 11.1707 78.0669 10.859C78.0801 10.3103 77.8333 9.78168 77.4642 9.37539C76.6063 8.43109 75.4342 8.00235 74.1469 7.67539C72.7947 7.37728 71.4695 7.28555 70.0894 7.29029C69.8779 7.29084 69.6663 7.2914 69.4484 7.29198V7.29198C69.1808 7.29318 68.9657 7.51286 68.9702 7.78049C68.9925 9.104 69.0156 10.4275 69.0397 11.751C69.0522 12.4412 69.0644 13.1314 69.0758 13.8216C69.1358 17.8631 69.1387 18.0628 69.3799 21.7162C69.4037 22.0764 69.2068 22.4177 68.8818 22.5749V22.5749C66.4509 23.7505 66.4509 23.7505 64.0664 25.0166V25.0166C63.6241 25.2534 63.1029 24.9511 63.0944 24.4495C63.0913 24.2652 63.0924 24.0789 63.0946 23.8863C63.0985 22.6276 63.034 21.3788 62.9576 20.1228C62.8099 17.5839 62.6928 15.0444 62.5874 12.5035C62.5624 11.7467 62.5457 11.2423 62.525 10.8225C62.4459 9.22387 60.9985 8.05511 59.405 8.20576C58.3036 8.30988 57.2045 8.4335 56.1039 8.57678C56.0488 8.58394 56 8.54166 56 8.48614V8.48614C56 8.45622 56.0147 8.4275 56.0392 8.41028C56.279 8.24159 56.2924 8.23223 56.5623 8.04233C57.0416 7.7044 57.5178 7.36274 57.992 7.01776C58.5887 6.5857 59.1977 6.17559 59.8124 5.76921C59.9917 5.64718 60.171 5.52491 60.3501 5.40246C60.9507 4.99186 61.6327 4.71509 62.3504 4.59551C62.5003 4.57052 62.6503 4.54557 62.8003 4.52066C63.0147 4.48439 63.0147 4.48439 63.2335 4.44739C66.2436 3.95002 68.688 3.99707 71.7294 4.00822Z" fill="#278829"/>
<path d="M54.7685 5.02383C55.1519 4.96511 55.3214 5.36766 55.0118 5.60149C54.8743 5.70535 54.7345 5.80806 54.5931 5.91348C54.3703 6.08619 54.148 6.25936 53.9259 6.43292C51.2218 8.53985 49.0699 9.39996 45.7214 9.98908C44.6142 10.1851 43.5125 10.4037 42.4126 10.6334C41.5781 10.8077 41.0046 11.593 41.1786 12.4276V12.4276C41.2093 12.576 41.24 12.7245 41.2717 12.8774C41.3038 13.031 41.3359 13.1846 41.3689 13.3428C41.4857 13.904 41.5621 14.2715 41.6122 14.5191C41.6755 14.8322 42.0074 15.0644 42.3172 14.9869V14.9869C43.2393 14.8104 44.1633 14.6378 45.0891 14.4719C48.2854 13.8991 49.6055 16.8681 46.4721 17.7204C45.323 18.033 44.1216 18.2625 42.8847 18.4746C42.5844 18.5261 42.3964 18.8292 42.4855 19.1206V19.1206C42.7103 19.8848 42.8857 20.6567 43.0559 21.4346C43.284 22.4692 43.2869 22.4826 43.5276 23.4864C43.5339 23.5126 43.5372 23.5398 43.5372 23.5668V23.5668C43.5372 23.7828 43.7343 23.9454 43.9463 23.9039C44.0273 23.888 44.1189 23.87 44.2785 23.8387C48.7448 22.9679 53.2292 22.2086 57.7555 21.737C58.186 21.6921 58.4384 22.1887 58.1004 22.4591V22.4591C57.8796 22.6799 57.6598 22.9018 57.4428 23.1263C57.1092 23.4504 57.1092 23.4504 56.7184 23.7696C56.378 24.0485 56.0495 24.3421 55.7272 24.6417C54.6456 25.6447 54.6456 25.6447 53.7877 25.7568C53.6263 25.778 53.4649 25.7991 53.2987 25.8209C52.9416 25.8671 52.5845 25.9127 52.2273 25.9575C50.8434 26.132 49.4655 26.3321 48.0882 26.5527C47.8818 26.5856 47.6753 26.6186 47.4626 26.6525C42.995 27.3546 42.9853 27.3561 38.6099 28.3996C38.5913 28.404 38.5718 28.4064 38.5527 28.4064V28.4064C38.4364 28.4064 38.3359 28.3239 38.3131 28.2098C37.8862 26.0755 37.8839 26.0639 37.8036 25.6627C37.7454 25.3713 37.6871 25.0799 37.6287 24.7886C37.4874 24.0822 37.3462 23.3757 37.206 22.6691C37.1597 22.4363 37.1134 22.2034 37.0657 21.9635C37.025 21.7583 36.9843 21.5531 36.9424 21.3416V21.3416C36.7648 20.4767 35.908 19.9367 35.051 20.1494C34.4664 20.2945 33.884 20.4482 33.301 20.6054C32.9687 20.6948 32.6363 20.7841 32.3038 20.8731C32.1584 20.9123 32.013 20.9515 31.8632 20.9919V20.9919C31.6069 21.057 31.4534 20.7579 31.6503 20.5813C31.8543 20.3984 32.0616 20.2192 32.2702 20.0392C33.0638 19.3525 33.852 18.6554 34.5833 17.9037C35.3236 17.1427 35.6411 16.065 35.3832 15.0352V15.0352C35.3165 14.7665 35.3165 14.7665 35.2484 14.4925C35.1785 14.2136 35.1785 14.2136 35.1071 13.929C35.0146 13.5591 34.9224 13.1892 34.8304 12.8192C34.7894 12.6555 34.7483 12.4918 34.706 12.3231C34.6892 12.2508 34.6756 12.1921 34.6645 12.1429C34.6156 11.9258 34.4066 11.7617 34.191 11.8166V11.8166C33.5529 11.9792 32.9146 12.1416 32.2764 12.304C31.9452 12.3884 31.9452 12.3884 31.6073 12.4745C31.3938 12.5288 31.1803 12.5831 30.9603 12.639C30.6662 12.7139 30.6662 12.7139 30.3662 12.7903V12.7903C29.9202 12.9014 29.6718 12.4166 30.0382 12.1392C30.0773 12.1096 30.1165 12.0799 30.1558 12.0502C30.6413 11.6743 31.1024 11.2716 31.5664 10.8696C31.6953 10.7673 31.8243 10.6651 31.9571 10.5598C32.4043 10.1986 32.8223 9.81161 33.2438 9.42086C36.6453 6.32855 46.0035 6.31129 50.4745 5.67428C51.1918 5.57139 51.9084 5.46378 52.6249 5.35592C52.854 5.32162 53.0831 5.28732 53.3192 5.25198C53.8028 5.17842 54.2856 5.10207 54.7685 5.02383V5.02383Z" fill="#278829"/>
<path d="M117.371 10.9841C117.744 11.0904 117.73 11.5269 117.351 11.6107C117.183 11.6479 117.013 11.6831 116.841 11.72C116.566 11.7844 116.292 11.8493 116.018 11.9147C112.682 12.7049 110.368 12.5913 107.078 11.7332C105.989 11.4506 104.897 11.1908 103.801 10.9419C102.97 10.7531 102.121 11.2284 101.932 12.0596V12.0596C101.898 12.2074 101.864 12.3552 101.83 12.5075C101.795 12.6604 101.76 12.8134 101.724 12.9711C101.597 13.5299 101.513 13.8959 101.456 14.1419C101.383 14.4529 101.588 14.8022 101.902 14.8607V14.8607C102.814 15.084 103.726 15.3116 104.637 15.5461C107.782 16.3557 107.746 19.6047 104.542 19.0755C103.367 18.8815 102.179 18.5901 100.967 18.2681C100.672 18.19 100.375 18.3873 100.335 18.6894V18.6894C100.221 19.4778 100.059 20.2526 99.8902 21.0308C99.667 22.0664 99.6641 22.0799 99.4651 23.0928C99.4599 23.1192 99.4516 23.1453 99.4404 23.1698V23.1698C99.3505 23.3662 99.462 23.5962 99.672 23.6466C99.7523 23.6659 99.843 23.6877 100.001 23.7257C104.425 24.7928 108.818 25.9689 113.13 27.4241C113.54 27.5625 113.563 28.1191 113.143 28.2242V28.2242C112.851 28.3331 112.558 28.4433 112.268 28.5572C111.829 28.713 111.829 28.713 111.341 28.8406C110.916 28.9525 110.495 29.0827 110.077 29.221C108.676 29.6828 108.676 29.6828 107.849 29.4277C107.694 29.3797 107.538 29.3317 107.378 29.2823C107.034 29.1758 106.69 29.0685 106.347 28.9606C105.016 28.5432 103.68 28.1517 102.336 27.779C102.134 27.723 101.933 27.6671 101.725 27.6094C97.3708 26.3883 97.3613 26.3856 92.9486 25.5132C92.9299 25.5095 92.9111 25.5036 92.8938 25.4957V25.4957C92.788 25.4473 92.731 25.3304 92.7577 25.2172C93.2579 23.0988 93.2607 23.0873 93.3547 22.6891C93.423 22.3999 93.4912 22.1107 93.5595 21.8215C93.725 21.1204 93.8907 20.4193 94.0573 19.7184C94.1121 19.4874 94.1669 19.2565 94.2234 19.0185C94.2718 18.8149 94.3202 18.6114 94.3701 18.4017V18.4017C94.5687 17.5413 94.0144 16.6936 93.1466 16.5304C92.5546 16.419 91.9611 16.3164 91.3656 16.2166C91.0262 16.1596 90.6868 16.1024 90.3474 16.045C90.1989 16.0201 90.0504 15.9952 89.8974 15.9696V15.9696C89.6372 15.9221 89.6221 15.5863 89.8747 15.5077C90.1363 15.4263 90.3994 15.3495 90.664 15.2727C91.6714 14.9786 92.6782 14.6729 93.656 14.2937C94.6459 13.91 95.3831 13.0622 95.5773 12.0185V12.0185C95.6285 11.7464 95.6285 11.7464 95.6806 11.4689C95.7331 11.1862 95.7331 11.1862 95.7867 10.8977C95.8566 10.5229 95.9266 10.1482 95.997 9.77351C96.0278 9.60755 96.0587 9.44159 96.0904 9.2706C96.1052 9.19793 96.1172 9.13886 96.1276 9.08948C96.1735 8.87176 96.0519 8.63555 95.8329 8.59577V8.59577C95.185 8.47795 94.5371 8.35996 93.8892 8.24197C93.5529 8.18086 93.5529 8.18086 93.2099 8.11851C92.9931 8.07901 92.7763 8.03952 92.553 7.99882C92.2545 7.94449 92.2545 7.94449 91.9499 7.88906V7.88906C91.4981 7.80452 91.474 7.26027 91.9227 7.16054C91.9705 7.1499 92.0185 7.13926 92.0666 7.12858C92.6646 6.98884 93.2514 6.81467 93.8406 6.64218C94.0004 6.60291 94.1602 6.56364 94.3249 6.52318C94.8818 6.3809 95.423 6.20299 95.9688 6.02312C100.349 4.6272 108.865 8.50657 113.196 9.78833C113.891 9.99333 114.587 10.1937 115.283 10.3939C115.506 10.4581 115.728 10.5222 115.958 10.5884C116.428 10.7228 116.899 10.8543 117.371 10.9841V10.9841Z" fill="#278829"/>
<path d="M25.9109 11.8816C26.125 11.9602 26.305 12.0304 26.4152 12.2301V12.2301C26.5746 12.5191 26.4821 12.9424 26.3274 13.2339C25.8963 14.0459 25.2266 14.6317 24.5516 15.2967C24.3338 15.5118 24.1162 15.7271 23.8988 15.9427C23.8027 16.0373 23.7067 16.132 23.6078 16.2295C23.3259 16.5177 23.0633 16.8184 22.798 17.1218C22.4421 17.4776 22.0863 17.8335 21.7305 18.1893C21.5506 18.3909 21.3726 18.5941 21.1968 18.7993C20.892 19.1299 20.587 19.4603 20.2818 19.7905C19.8059 20.3108 19.3554 20.8457 18.9093 21.3917C18.886 21.415 18.8626 21.4384 18.8392 21.4618C18.7281 21.5729 18.7669 21.7615 18.9129 21.8197V21.8197C20.6571 22.519 22.3821 23.2498 24.0948 24.0225C25.0387 24.4484 25.9868 24.8648 26.9347 25.2817C28.0049 25.7535 29.0674 26.2406 30.1269 26.7361C31.1502 27.1684 31.8519 27.2847 32.8826 26.9027C32.9199 26.8889 32.9585 26.8776 32.9975 26.8697C33.0465 26.8599 33.0956 26.8501 33.145 26.8402C33.256 26.818 33.3699 26.8451 33.4583 26.9158V26.9158C33.5993 27.0286 33.6568 27.2341 33.5518 27.3811C33.4893 27.4686 33.41 27.5397 33.2248 27.7059C32.6195 28.252 32.0185 28.8024 31.4234 29.3595C30.352 30.3216 29.3687 31.2012 28.0271 31.4576C27.4993 31.5585 26.9577 31.4523 26.4594 31.2511C25.349 30.8026 24.2769 30.2181 23.2078 29.6979C22.0858 29.1523 20.9589 28.6201 19.8243 28.1014C19.498 27.9509 19.498 27.9509 19.1652 27.7973C17.329 26.9576 15.4604 26.2225 13.572 25.509V25.509C13.3798 25.4321 13.313 25.1937 13.4406 25.0307C14.0351 24.2713 14.6781 23.5566 15.3257 22.8404C15.4138 22.7397 15.5019 22.6391 15.5926 22.5354C15.9068 22.1763 16.226 21.8221 16.5457 21.4679C16.6542 21.3468 16.7627 21.2257 16.8745 21.101C17.4451 20.4695 18.0226 19.8449 18.6091 19.2282V19.2282C19.9291 17.8179 18.9977 15.8791 17.0719 16.0286C16.9749 16.0361 16.8789 16.0433 16.7839 16.0496C16.553 16.0644 16.322 16.0793 16.084 16.0946V16.0946C15.9005 16.1071 15.8019 15.8875 15.9363 15.7619C16.4753 15.258 17.0451 14.7872 17.6084 14.3102C18.4006 13.6232 19.1591 12.9072 19.9006 12.1657C21.1299 11.1413 24.2746 11.2813 25.9109 11.8816Z" fill="#278829"/>
<path d="M7.30061 16.3534C7.95765 16.479 8.47195 16.9938 8.84674 17.5479C10.1535 19.4797 10.8836 21.9827 11.7492 24.0879C11.9447 24.5635 12.1412 25.0386 12.3378 25.5138C12.4452 25.7737 12.4452 25.7737 12.5549 26.0389C12.8207 26.6797 13.0877 27.32 13.3549 27.9602C14.5726 30.8789 15.1187 32.1879 15.3495 32.8319C15.5225 33.3147 15.2799 33.7783 14.9063 34.1297V34.1297C14.7471 34.2797 14.7471 34.2797 14.5847 34.4326C14.3691 34.6323 14.1505 34.8287 13.9288 35.0215C13.6272 35.2872 13.3775 35.5748 13.1145 35.8787C12.9919 35.9997 12.8692 36.1208 12.7428 36.2456C12.3545 36.6387 12.012 37.0496 11.6658 37.4799V37.4799C11.3517 37.837 10.7962 37.8052 10.5914 37.3758C10.4223 37.0212 10.2794 36.6511 10.1218 36.2933C10.0194 36.0618 10.0194 36.0618 9.915 35.8257C9.40534 34.671 8.90589 33.5122 8.41043 32.3513C6.59367 27.4715 6.45946 27.111 3.68908 23.7148C3.22382 23.1445 2.55662 22.5837 1.87442 22.86C1.68419 22.9371 1.4884 23.0454 1.25485 23.1653C1.18185 23.2027 1.11659 23.2542 1.06406 23.3172C1.03311 23.3543 1.00211 23.3915 0.971001 23.4289C0.848822 23.5755 0.64432 23.62 0.47362 23.5347V23.5347C0.234308 23.415 0.168878 23.1012 0.349664 22.9039C0.680464 22.543 1.02304 22.1986 1.37245 21.8492C1.49172 21.711 1.49172 21.711 1.6134 21.5701C2.1281 20.9884 2.69101 20.4534 3.24289 19.9072C3.57435 19.572 3.88792 19.2338 4.1936 18.8755C6.08653 16.7798 6.59366 16.2183 7.30061 16.3534Z" fill="#278829"/>
<path d="M126.24 15.0006C126.55 15.0003 126.55 15.0003 126.866 15C127.372 15.0087 127.867 15.0369 128.37 15.0864C128.395 15.1367 128.42 15.187 128.446 15.2389C128.471 15.2137 128.496 15.1885 128.522 15.1626C131.092 15.2614 133.769 15.8634 136.147 16.84C136.288 16.8967 136.43 16.9533 136.576 17.0116C137.346 17.3438 138.088 17.7203 138.816 18.1363C138.816 18.1866 138.816 18.2369 138.816 18.2887C138.941 18.3139 139.067 18.3391 139.197 18.365C140.206 19.058 141.128 19.7598 141.789 20.8049C141.814 21.0314 141.84 21.2578 141.865 21.4911C141.765 21.6169 141.664 21.7427 141.56 21.8724C141.183 21.8724 140.806 21.8724 140.417 21.8724C140.392 21.8472 140.366 21.822 140.34 21.7961C140.039 21.7961 139.737 21.7961 139.426 21.7961C139.4 21.771 139.375 21.7458 139.349 21.7199C139.216 21.7214 139.082 21.723 138.944 21.7246C138.511 21.7199 138.511 21.7199 138.282 21.6436C138.055 21.6436 137.829 21.6436 137.596 21.6436C137.57 21.5178 137.545 21.392 137.519 21.2624C137.444 21.3127 137.368 21.363 137.291 21.4149C137.291 21.4652 137.291 21.5155 137.291 21.5674C136.604 21.5674 136.604 21.5674 136.452 21.4911C136.15 21.4911 135.848 21.4911 135.537 21.4911C135.17 21.1237 134.997 20.7373 134.774 20.2712C134.8 20.1957 134.825 20.1202 134.851 20.0424C134.725 19.9921 134.599 19.9418 134.469 19.8899C134.394 19.7138 134.318 19.5377 134.241 19.3562C134.14 19.3059 134.039 19.2556 133.936 19.2037C133.631 19.0512 133.631 19.0512 133.302 18.7415C131.533 17.2059 129.228 16.5611 126.921 16.6876C126.131 16.8556 125.676 17.2133 125.167 17.8313C124.974 18.2184 125.091 18.6946 125.091 19.1275C125.141 19.1275 125.192 19.1275 125.244 19.1275C125.768 19.8613 125.768 19.8613 125.853 20.1187C125.904 20.1187 125.954 20.1187 126.006 20.1187C126.006 20.169 126.006 20.2193 126.006 20.2712C126.157 20.3467 126.157 20.3467 126.311 20.4237C126.421 20.5243 126.531 20.625 126.645 20.7287C127.782 21.7396 129.108 22.506 130.415 23.2752C130.733 23.4736 130.733 23.4736 130.962 23.7023C131.116 23.7778 131.27 23.8533 131.429 23.931C131.965 24.2034 132.462 24.5047 132.963 24.8359C133.388 25.1156 133.816 25.3884 134.245 25.6609C134.389 25.7524 134.533 25.8439 134.682 25.9382C134.788 26.0055 134.894 26.0728 135.003 26.1422C135.003 26.1925 135 26.5 135 26.5C135 26.5 135.255 26.345 135.384 26.371C137.104 27.5797 138.87 28.8655 139.349 31.022C139.319 31.8414 139.047 32.3918 138.511 33.0045C137.332 33.9602 135.449 34.4532 133.936 34.4532C133.936 34.4028 133.875 34.505 133.875 34.4532C133.825 34.4532 133.835 34.4532 133.783 34.4532C133.783 34.5287 133.783 34.4516 133.783 34.5294C133.097 34.6057 133.097 34.6057 133.021 34.6057C132.996 34.6308 132.97 34.656 132.944 34.6819C132.768 34.6819 132.592 34.6819 132.411 34.6819C132.386 34.7071 132.36 34.7322 132.335 34.7582C131.159 34.8819 130.009 34.9277 128.827 34.9107C128.726 34.9107 127.5 34.5 127.5 34.5C127.274 34.4748 126.233 34.5259 126 34.5C126.076 34.195 126.424 34.1525 126.5 34C126.5 33.8994 127 34.1037 127 34C126.95 33.9748 126.552 34.0259 126.5 34C126.626 33.7987 126.056 33.3295 126.186 33.1221C126.337 33.1221 126.344 32.5 126.5 32.5C126.5 32.4497 128.675 33.1739 128.675 33.1221C128.901 33.1221 129.128 33.2332 129.361 33.2332C130.166 33.103 130.166 33.103 130.962 32.9282C131.012 32.9534 131.063 32.9785 131.115 33.0045C131.14 32.929 131.165 32.8535 131.191 32.7757C131.342 32.6751 131.493 32.5744 131.648 32.4707C132.171 31.5115 132.145 30.9855 131.953 29.9546C131.878 29.8791 131.802 29.8036 131.725 29.7258C131.649 29.5749 131.574 29.4239 131.496 29.2684C131.37 29.1677 131.244 29.0671 131.115 28.9634C130.938 28.7872 130.762 28.6111 130.581 28.4296C129.271 27.3561 127.828 26.3669 126.311 25.6085C126.311 25.5582 126.311 25.5078 126.311 25.456C126.185 25.4308 126.059 25.4057 125.93 25.3797C125.609 25.1949 125.288 25.0098 124.971 24.8186C124.633 24.6171 124.292 24.4254 123.947 24.236C123.815 24.1632 123.683 24.0904 123.547 24.0153C123.413 23.9419 123.28 23.8685 123.142 23.7928C123.007 23.7184 122.871 23.644 122.732 23.5674C122.63 23.5113 122.528 23.4551 122.422 23.3973C122.422 23.347 122.422 23.2967 122.422 23.2448C122.297 23.2197 122.171 23.1945 122.041 23.1686C121.966 23.0931 121.966 23.0931 121.889 23.0161C121.964 22.9658 122.04 22.9154 122.117 22.8636C121.853 22.9013 121.853 22.9013 121.584 22.9398C120.516 22.3299 120.516 22.3299 120.44 22.1011C120.314 22.0759 120.188 22.0508 120.059 22.0249C119.933 21.8991 119.807 21.7732 119.677 21.6436C119.728 21.4927 119.778 21.3417 119.83 21.1861C119.78 21.1861 119.729 21.1861 119.677 21.1861C119.677 21.2868 119.677 21.3874 119.677 21.4911C119.577 21.4911 119.476 21.4911 119.372 21.4911C119.372 21.4408 119.372 21.3905 119.372 21.3386C119.272 21.2883 119.171 21.238 119.067 21.1861C119.042 21.1107 119.017 21.0352 118.991 20.9574C118.891 20.9071 118.79 20.8568 118.686 20.8049C118.172 20.1568 118.172 20.1568 118 19.8137C118.113 19.7759 118.113 19.7759 118.229 19.7374C118.229 19.662 118.229 19.5865 118.229 19.5087C118.279 19.5087 118.329 19.5087 118.381 19.5087C118.344 19.6974 118.344 19.6974 118.305 19.8899C118.462 19.7495 118.462 19.7495 118.534 19.5849C118.584 19.5849 118.634 19.5849 118.686 19.5849C118.606 19.3818 118.606 19.3818 118.229 19.28C118.229 19.2548 118.229 19.2296 118.229 19.2037C118.38 19.2037 118.531 19.2037 118.686 19.2037C118.686 19.1534 118.686 19.1031 118.686 19.0512C118.737 19.0009 118.787 18.9506 118.839 18.8987C118.788 18.8736 118.738 18.8484 118.686 18.8225C118.661 18.8728 118.636 18.9231 118.61 18.975C118.56 18.9498 118.509 18.9246 118.458 18.8987C118.508 18.7729 118.558 18.6471 118.61 18.5175C118.56 18.5175 118.509 18.5175 118.458 18.5175C118.458 18.4672 118.458 18.4168 118.458 18.365C118.382 18.3398 118.307 18.3147 118.229 18.2887C118.342 18.251 118.342 18.251 118.458 18.2125C118.458 18.0867 118.458 17.9609 118.458 17.8313C118.558 17.7306 118.659 17.63 118.763 17.5263C118.662 17.4759 118.561 17.4256 118.458 17.3738C118.483 17.2983 118.508 17.2228 118.534 17.145C118.584 17.145 118.634 17.145 118.686 17.145C118.737 17.0192 118.787 16.8934 118.839 16.7638C118.939 16.6883 119.04 16.6128 119.144 16.5351C119.219 16.5602 119.295 16.5854 119.372 16.6113C119.498 16.4855 119.754 16.2301 119.754 16.2301L120.135 16.1538L120.516 15.8488C120.516 15.8488 120.78 15.8111 121.05 15.7726C121.125 15.7223 121.201 15.6719 121.279 15.6201C122.912 15.1638 124.547 14.999 126.24 15.0006Z" fill="#278829"/>
<path d="M120.296 27.0102C120.676 26.9984 121.01 27.2536 121.108 27.6202C121.225 28.0548 121.241 28.1613 121.243 28.3495C121.244 28.4042 121.287 28.4487 121.342 28.4487C121.375 28.4487 121.407 28.4656 121.425 28.4934C121.501 28.6085 121.511 28.6236 121.606 28.768C121.984 29.2848 122.404 29.7386 122.845 30.2024C122.942 30.3077 123.04 30.4131 123.14 30.5217C123.985 31.3021 124.923 31.8441 125.98 32.2658C126.121 32.3217 126.261 32.3777 126.405 32.4353C126.488 32.4682 126.57 32.5011 126.654 32.5346C126.704 32.5545 126.743 32.5955 126.76 32.6466C126.766 32.6644 126.772 32.6823 126.778 32.7002C126.796 32.7547 126.851 32.7878 126.908 32.7784C126.998 32.7633 127.043 32.7559 127.12 32.7431C127.166 32.7354 127.195 32.7906 127.162 32.8235C127.139 32.8466 127.145 32.8861 127.174 32.9007C127.189 32.9084 127.205 32.916 127.22 32.9238C127.249 32.9382 127.267 32.9676 127.267 32.9998C127.267 33.0041 127.267 33.0085 127.267 33.0128C127.267 33.0634 127.231 33.107 127.182 33.1169C127.018 33.1496 126.943 33.1642 126.897 33.1707C126.849 33.1775 126.81 33.2144 126.81 33.2626C126.81 33.3276 126.878 33.3706 126.936 33.3415C126.945 33.3372 126.953 33.3329 126.962 33.3285C127.032 33.2935 127.152 33.3349 127.202 33.3955C127.224 33.4219 127.244 33.4482 127.256 33.4728C127.266 33.4938 127.304 33.5228 127.304 33.4995C127.305 33.4729 127.338 33.5054 127.333 33.5315C127.314 33.6252 127.296 33.7191 127.277 33.8148C127.271 33.8424 127.247 33.8622 127.219 33.8622C127.173 33.8622 127.145 33.9122 127.168 33.9515C127.212 34.0247 127.256 34.0981 127.301 34.1726C127.327 34.2166 127.375 34.2435 127.426 34.2435C127.449 34.2435 127.472 34.2435 127.496 34.2435C127.538 34.2435 127.572 34.277 127.572 34.3192C127.572 34.3613 127.538 34.396 127.496 34.396C127.454 34.396 127.42 34.4301 127.42 34.4722C127.42 34.4834 127.42 34.4947 127.42 34.5059C127.42 34.57 127.365 34.6205 127.301 34.6156C127.034 34.5949 126.767 34.5741 126.5 34.5532C126.329 34.54 126.158 34.5267 125.982 34.513C125.1 34.4363 125.031 34.4302 124.752 34.2247C124.72 34.2012 124.675 34.223 124.675 34.2625C124.675 34.2921 124.647 34.3151 124.618 34.3101C123.471 34.116 123.429 34.1077 122.965 33.9531C122.936 33.9435 122.906 33.9385 122.875 33.9385C122.855 33.9385 122.835 33.9364 122.815 33.9322C122.157 33.7914 121.522 33.6436 120.882 33.4363C120.829 33.4191 120.8 33.3618 120.818 33.3089C120.82 33.303 120.822 33.2972 120.824 33.2915C120.843 33.2347 120.801 33.176 120.741 33.176C120.686 33.176 120.644 33.1254 120.655 33.0711C120.659 33.0507 120.663 33.0304 120.667 33.0099C120.687 32.91 120.596 32.8233 120.497 32.848C120.489 32.8499 120.481 32.8519 120.474 32.8538C120.43 32.8647 120.393 32.8942 120.373 32.9344C120.372 32.9374 120.37 32.9404 120.369 32.9434C120.343 32.9937 120.296 33.0296 120.24 33.0358C119.218 33.1502 118.029 32.3485 117.167 31.8279C117.14 31.8116 117.115 31.7925 117.093 31.7702C117.065 31.742 117.032 31.718 116.996 31.6997C116.917 31.6585 116.837 31.6172 116.754 31.5748C115.752 30.9881 114.906 30.1658 114.253 29.2096C114.186 29.1104 114.138 29.0008 114.109 28.8843C114.039 28.6064 114.069 28.2963 114.276 28.0979C114.576 27.8094 114.945 27.6954 115.398 27.5499C115.432 27.5392 115.466 27.5314 115.501 27.5269C115.683 27.5035 115.865 27.4832 116.047 27.4688C116.132 27.4621 116.2 27.5348 116.188 27.6191C116.17 27.7441 116.28 27.7934 116.307 27.67C116.316 27.6276 116.326 27.5773 116.338 27.5171C116.353 27.4362 116.419 27.3739 116.501 27.3632C117.758 27.1987 119.027 27.0498 120.296 27.0102Z" fill="#278829"/>
</svg>
