<svg width="33" height="28" viewBox="0 0 33 28" fill="none" xmlns="http://www.w3.org/2000/svg">
<path d="M31.804 14.835L31.605 15.069C31.442 15.277 31.309 15.621 31.309 15.838L31.455 17.063C31.454 17.28 31.586 17.287 31.749 17.079L31.954 16.84C32.117 16.632 32.176 16.394 32.177 16.177L32.099 14.851C32.098 14.634 31.967 14.627 31.804 14.835Z" fill="#484038"/>
<path d="M31.323 17.915L31.873 17.284L31.633 14.573L30.613 15.373L30.672 15.481L31.509 14.78L31.75 17.217L31.256 17.812L31.323 17.915Z" fill="#3E362E"/>
<path d="M9.69998 9.88L6.03699 11.706L0 15.653L19.123 26.693L24.745 27.163L29.383 24.978L32.19 22.865L9.69998 9.88Z" fill="url(#paint0_linear_206_4266)" fill-opacity="0.5"/>
<path d="M17.223 18.451L21.963 21.188V22.996L17.223 20.259V18.451Z" fill="#1D1309"/>
<path d="M18.026 20.678L21.238 22.533V21.046L18.026 19.191V20.678Z" fill="#1D1309"/>
<path d="M9.76898 15.818L10.62 17.315L10.751 17.546L11.685 18.951C11.685 18.951 12.184 18.659 12.574 18.433C12.614 18.411 12.652 18.388 12.688 18.368C12.69 18.367 12.692 18.366 12.694 18.365C12.903 18.22 13.032 17.941 13.032 17.556C13.032 17.452 13.023 17.346 13.006 17.238C12.948 16.881 12.799 16.509 12.59 16.178C12.361 15.813 12.06 15.498 11.73 15.308C11.409 15.123 11.115 15.087 10.887 15.176C10.85 15.199 10.805 15.227 10.755 15.258C10.398 15.471 9.76898 15.818 9.76898 15.818Z" fill="#151B1F"/>
<path d="M10.485 17.393L10.751 17.547L11.611 18.043L13.005 17.239C12.947 16.882 12.798 16.51 12.589 16.179L10.62 17.316L10.485 17.393Z" fill="#5B5E5D"/>
<path d="M12.9 17.636C12.9 16.811 12.317 15.804 11.597 15.389L12.9 17.636Z" fill="#242726"/>
<path d="M11.476 15.455C11.089 15.231 10.741 15.224 10.503 15.394C10.492 15.402 10.478 15.411 10.463 15.421C10.695 15.309 11.005 15.338 11.346 15.535C12.066 15.95 12.649 16.956 12.649 17.782C12.649 18.165 12.522 18.441 12.316 18.586C12.349 18.567 12.377 18.551 12.399 18.539C12.635 18.405 12.781 18.115 12.781 17.702C12.779 16.876 12.196 15.87 11.476 15.455Z" fill="#260E08"/>
<path d="M11.24 15.592C10.853 15.369 10.505 15.361 10.267 15.531C10.256 15.539 10.242 15.548 10.227 15.558C10.459 15.447 10.769 15.475 11.11 15.672C11.83 16.087 12.413 17.094 12.413 17.919C12.413 18.302 12.286 18.578 12.08 18.723C12.113 18.704 12.141 18.688 12.163 18.676C12.399 18.542 12.545 18.252 12.545 17.839C12.543 17.014 11.96 16.007 11.24 15.592Z" fill="#260E08"/>
<path d="M11.004 15.729C10.617 15.506 10.269 15.499 10.031 15.668C10.02 15.676 10.006 15.685 9.991 15.695C10.223 15.583 10.533 15.612 10.874 15.809C11.594 16.224 12.177 17.231 12.177 18.056C12.177 18.439 12.05 18.715 11.843 18.86C11.876 18.841 11.904 18.825 11.926 18.812C12.162 18.678 12.308 18.388 12.308 17.975C12.307 17.151 11.724 16.145 11.004 15.729Z" fill="#260E08"/>
<path d="M9.43799 16.626C9.43799 17.452 10.021 18.458 10.741 18.873C11.46 19.288 12.044 18.956 12.044 18.13C12.044 17.304 11.461 16.298 10.741 15.883C10.021 15.468 9.43799 15.801 9.43799 16.626Z" fill="#585B5D"/>
<path d="M9.47501 16.677C9.47501 17.486 10.047 18.472 10.752 18.879C11.457 19.286 12.029 18.96 12.029 18.151C12.029 17.342 11.457 16.356 10.752 15.948C10.047 15.542 9.47501 15.868 9.47501 16.677Z" fill="#3A3E40"/>
<path d="M10.701 18.822C11.42 19.237 12.004 18.905 12.004 18.079C12.004 17.548 11.763 16.943 11.399 16.468C11.784 16.95 12.043 17.58 12.043 18.13C12.043 18.956 11.46 19.288 10.74 18.873C10.483 18.725 10.244 18.501 10.042 18.237C10.236 18.479 10.461 18.684 10.701 18.822Z" fill="#260E08"/>
<path d="M9.694 16.774C9.694 17.438 10.163 18.246 10.741 18.58C11.319 18.914 11.788 18.647 11.788 17.983C11.788 17.32 11.319 16.511 10.741 16.177C10.162 15.843 9.694 16.11 9.694 16.774Z" fill="#575E66"/>
<path d="M9.94 16.916C9.94 17.423 10.298 18.042 10.741 18.297C11.183 18.552 11.542 18.348 11.542 17.84C11.542 17.333 11.183 16.714 10.741 16.459C10.298 16.204 9.94 16.409 9.94 16.916Z" fill="#6C7277"/>
<path d="M9.94 16.916C9.94 17.423 10.298 18.042 10.741 18.297C11.183 18.552 11.542 18.348 11.542 17.84C11.542 17.333 11.183 16.715 10.741 16.459C10.298 16.204 9.94 16.409 9.94 16.916ZM10.022 16.944C10.022 16.471 10.356 16.281 10.768 16.519C11.18 16.757 11.514 17.333 11.514 17.805C11.514 18.278 11.18 18.468 10.768 18.23C10.356 17.993 10.022 17.417 10.022 16.944Z" fill="#A5A9B2"/>
<path d="M10.164 16.971C10.164 17.389 10.459 17.897 10.823 18.107C11.159 18.301 11.437 18.172 11.477 17.821C11.48 17.793 11.482 17.763 11.482 17.732C11.482 17.45 11.348 17.127 11.149 16.882C11.054 16.764 10.942 16.664 10.824 16.596C10.459 16.385 10.164 16.554 10.164 16.971Z" fill="#2C3D4F"/>
<path d="M10.878 16.756C10.661 16.631 10.388 16.631 10.202 16.739C10.293 16.499 10.536 16.43 10.822 16.595C11.103 16.757 11.342 17.098 11.437 17.437C11.321 17.155 11.115 16.892 10.878 16.756Z" fill="#0F2237"/>
<path d="M10.505 17.062C10.505 17.379 10.729 17.766 11.006 17.926C11.222 18.05 11.406 18 11.476 17.821C11.479 17.793 11.481 17.763 11.481 17.732C11.481 17.45 11.347 17.127 11.148 16.882C11.103 16.841 11.055 16.805 11.006 16.777C10.729 16.617 10.505 16.744 10.505 17.062Z" fill="#260E08"/>
<path d="M11.386 17.507C11.386 17.517 11.386 17.527 11.385 17.537C11.382 17.597 11.369 17.648 11.347 17.688L11.346 17.689C11.279 17.817 11.132 17.848 10.961 17.75C10.726 17.614 10.536 17.286 10.536 17.017C10.536 16.872 10.592 16.773 10.68 16.735C10.684 16.733 10.687 16.731 10.691 16.73C10.749 16.708 10.821 16.711 10.9 16.744C10.92 16.752 10.941 16.762 10.962 16.774C11.141 16.877 11.293 17.092 11.356 17.307C11.369 17.351 11.378 17.396 11.383 17.44C11.384 17.462 11.386 17.485 11.386 17.507Z" fill="#3D454B"/>
<path d="M11.359 17.527C11.359 17.537 11.358 17.547 11.358 17.557C11.355 17.617 11.342 17.667 11.32 17.708L11.319 17.709C11.252 17.837 11.105 17.868 10.934 17.77C10.699 17.634 10.509 17.306 10.509 17.037C10.509 16.892 10.565 16.793 10.653 16.756C10.657 16.754 10.66 16.752 10.664 16.752C10.723 16.73 10.794 16.733 10.873 16.766C10.893 16.774 10.914 16.784 10.935 16.796C11.114 16.899 11.266 17.114 11.329 17.329C11.342 17.373 11.351 17.418 11.356 17.462C11.357 17.482 11.359 17.505 11.359 17.527Z" fill="#7E8386"/>
<path d="M11.112 17.397L11.214 17.6L11.136 17.65L10.743 16.916L10.821 16.867L11.112 17.397Z" fill="#3D454B"/>
<path d="M10.961 17.3L11.136 17.65L11.051 17.687L10.665 16.974L10.743 16.916L10.961 17.3Z" fill="#C6C9CA"/>
<path d="M11.214 17.325C11.214 17.377 11.198 17.416 11.172 17.44C11.136 17.472 11.049 17.517 11.049 17.517L10.771 17.04C10.771 17.04 10.838 17.006 10.865 16.983C10.901 16.953 10.956 16.952 11.017 16.987C11.126 17.05 11.214 17.201 11.214 17.325Z" fill="#6C7277"/>
<path d="M11.108 17.39C11.108 17.514 11.02 17.564 10.912 17.502C10.804 17.44 10.716 17.288 10.716 17.164C10.716 17.04 10.804 16.99 10.912 17.052C11.021 17.115 11.108 17.266 11.108 17.39Z" fill="#C6C9CA"/>
<path d="M11.006 17.328C11.006 17.35 10.999 17.367 10.988 17.377C10.973 17.39 10.936 17.409 10.936 17.409L10.818 17.207C10.818 17.207 10.846 17.193 10.858 17.183C10.873 17.17 10.897 17.17 10.923 17.185C10.969 17.211 11.006 17.275 11.006 17.328Z" fill="#6C7277"/>
<path d="M10.961 17.355C10.961 17.408 10.924 17.429 10.878 17.402C10.832 17.376 10.795 17.311 10.795 17.259C10.795 17.206 10.832 17.185 10.878 17.212C10.924 17.239 10.961 17.303 10.961 17.355Z" fill="#D6D8D9"/>
<path d="M21.058 23.11L21.899 22.474L24.435 24.254L24.598 22.282L22.493 21.07L21.684 21.06L20.86 21.668L21.058 23.11Z" fill="#1D1309"/>
<path d="M21.603 22.631L22.453 24.128L22.584 24.359L23.518 25.764C23.518 25.764 24.017 25.472 24.407 25.246C24.447 25.223 24.485 25.201 24.52 25.18C24.522 25.179 24.524 25.178 24.526 25.177C24.735 25.032 24.864 24.753 24.864 24.368C24.864 24.264 24.855 24.158 24.838 24.05C24.78 23.693 24.631 23.321 24.422 22.99C24.193 22.625 23.893 22.31 23.562 22.12C23.241 21.935 22.947 21.899 22.719 21.988C22.682 22.012 22.637 22.039 22.587 22.07C22.231 22.284 21.603 22.631 21.603 22.631Z" fill="#151B1F"/>
<path d="M22.318 24.206L22.584 24.36L23.444 24.856L24.838 24.051C24.78 23.694 24.631 23.322 24.422 22.991L22.453 24.128L22.318 24.206Z" fill="#151B1F"/>
<path d="M24.734 24.449C24.734 23.624 24.151 22.617 23.431 22.202L24.734 24.449Z" fill="#242726"/>
<path d="M23.31 22.268C22.923 22.044 22.575 22.038 22.337 22.207C22.326 22.215 22.312 22.224 22.297 22.234C22.529 22.123 22.839 22.151 23.18 22.348C23.9 22.763 24.483 23.77 24.483 24.595C24.483 24.978 24.356 25.254 24.15 25.399C24.183 25.38 24.211 25.364 24.233 25.352C24.469 25.218 24.615 24.928 24.615 24.515C24.613 23.689 24.029 22.683 23.31 22.268Z" fill="#260E08"/>
<path d="M23.074 22.405C22.687 22.181 22.339 22.175 22.101 22.344C22.09 22.352 22.076 22.361 22.061 22.371C22.293 22.259 22.603 22.288 22.944 22.485C23.664 22.9 24.247 23.907 24.247 24.732C24.247 25.115 24.12 25.391 23.914 25.536C23.947 25.517 23.975 25.501 23.997 25.489C24.233 25.355 24.379 25.065 24.379 24.652C24.377 23.826 23.793 22.82 23.074 22.405Z" fill="#260E08"/>
<path d="M22.838 22.542C22.451 22.319 22.103 22.312 21.865 22.481C21.854 22.489 21.84 22.498 21.825 22.508C22.057 22.396 22.367 22.425 22.708 22.622C23.428 23.037 24.011 24.044 24.011 24.869C24.011 25.252 23.884 25.528 23.678 25.673C23.711 25.654 23.739 25.638 23.761 25.626C23.997 25.492 24.143 25.202 24.143 24.789C24.14 23.963 23.557 22.957 22.838 22.542Z" fill="#260E08"/>
<path d="M21.271 23.439C21.271 24.265 21.854 25.271 22.574 25.686C23.293 26.101 23.877 25.769 23.877 24.943C23.877 24.117 23.294 23.111 22.574 22.696C21.854 22.281 21.271 22.613 21.271 23.439Z" fill="#585B5D"/>
<path d="M21.309 23.49C21.309 24.299 21.881 25.285 22.586 25.692C23.291 26.099 23.863 25.773 23.863 24.964C23.863 24.155 23.291 23.169 22.586 22.762C21.88 22.355 21.309 22.681 21.309 23.49Z" fill="#3A3E40"/>
<path d="M22.534 25.635C23.253 26.05 23.837 25.718 23.837 24.892C23.837 24.361 23.596 23.756 23.232 23.281C23.617 23.763 23.876 24.393 23.876 24.943C23.876 25.769 23.293 26.101 22.573 25.686C22.316 25.538 22.077 25.314 21.875 25.05C22.069 25.292 22.294 25.496 22.534 25.635Z" fill="#260E08"/>
<path d="M21.527 23.587C21.527 24.25 21.996 25.059 22.574 25.393C23.152 25.727 23.621 25.459 23.621 24.796C23.621 24.133 23.152 23.324 22.574 22.99C21.996 22.656 21.527 22.923 21.527 23.587Z" fill="#575E66"/>
<path d="M21.773 23.729C21.773 24.236 22.131 24.854 22.574 25.11C23.016 25.365 23.375 25.161 23.375 24.654C23.375 24.147 23.016 23.528 22.574 23.273C22.132 23.017 21.773 23.221 21.773 23.729Z" fill="#6C7277"/>
<path d="M21.773 23.729C21.773 24.236 22.131 24.854 22.574 25.11C23.016 25.365 23.375 25.161 23.375 24.654C23.375 24.147 23.016 23.528 22.574 23.273C22.132 23.017 21.773 23.221 21.773 23.729ZM21.856 23.757C21.856 23.284 22.19 23.094 22.602 23.332C23.014 23.57 23.348 24.146 23.348 24.618C23.348 25.09 23.014 25.281 22.602 25.043C22.19 24.805 21.856 24.23 21.856 23.757Z" fill="#A5A9B2"/>
<path d="M21.998 23.783C21.998 24.201 22.293 24.709 22.657 24.919C22.993 25.113 23.271 24.984 23.31 24.633C23.313 24.605 23.315 24.575 23.315 24.544C23.315 24.262 23.181 23.939 22.982 23.694C22.887 23.576 22.775 23.476 22.657 23.408C22.293 23.198 21.998 23.366 21.998 23.783Z" fill="#2C3D4F"/>
<path d="M22.711 23.568C22.494 23.443 22.221 23.443 22.035 23.551C22.126 23.311 22.369 23.242 22.655 23.407C22.936 23.569 23.175 23.91 23.27 24.249C23.155 23.968 22.948 23.705 22.711 23.568Z" fill="#0F2237"/>
<path d="M22.339 23.874C22.339 24.191 22.563 24.578 22.84 24.738C23.056 24.862 23.24 24.812 23.31 24.633C23.313 24.605 23.315 24.575 23.315 24.544C23.315 24.262 23.181 23.939 22.982 23.694C22.937 23.653 22.889 23.617 22.84 23.589C22.563 23.429 22.339 23.557 22.339 23.874Z" fill="#260E08"/>
<path d="M23.219 24.32C23.219 24.33 23.219 24.34 23.218 24.35C23.215 24.41 23.202 24.461 23.18 24.501H23.179C23.112 24.629 22.965 24.66 22.794 24.562C22.559 24.426 22.369 24.098 22.369 23.829C22.369 23.684 22.425 23.585 22.513 23.547C22.517 23.545 22.52 23.544 22.524 23.542C22.583 23.52 22.654 23.523 22.733 23.556C22.753 23.564 22.774 23.574 22.795 23.586C22.974 23.689 23.126 23.904 23.189 24.119C23.202 24.163 23.211 24.208 23.216 24.252C23.218 24.275 23.219 24.297 23.219 24.32Z" fill="#3D454B"/>
<path d="M23.193 24.34C23.193 24.35 23.192 24.36 23.192 24.37C23.189 24.43 23.176 24.481 23.154 24.521H23.153C23.086 24.649 22.939 24.68 22.768 24.581C22.533 24.445 22.343 24.117 22.343 23.848C22.343 23.703 22.398 23.604 22.487 23.567C22.49 23.565 22.494 23.563 22.498 23.562C22.557 23.54 22.628 23.543 22.707 23.576C22.727 23.584 22.748 23.594 22.769 23.606C22.948 23.709 23.1 23.924 23.163 24.139C23.176 24.183 23.185 24.228 23.19 24.272C23.191 24.295 23.193 24.318 23.193 24.34Z" fill="#7E8386"/>
<path d="M22.946 24.209L23.047 24.413L22.97 24.463L22.577 23.729L22.654 23.679L22.946 24.209Z" fill="#3D454B"/>
<path d="M22.794 24.112L22.97 24.463L22.884 24.5L22.498 23.787L22.577 23.729L22.794 24.112Z" fill="#C6C9CA"/>
<path d="M23.047 24.138C23.047 24.19 23.031 24.229 23.005 24.253C22.969 24.285 22.882 24.33 22.882 24.33L22.604 23.853C22.604 23.853 22.671 23.819 22.698 23.796C22.734 23.766 22.789 23.765 22.85 23.8C22.96 23.863 23.047 24.014 23.047 24.138Z" fill="#6C7277"/>
<path d="M22.942 24.203C22.942 24.327 22.854 24.377 22.746 24.315C22.638 24.252 22.55 24.101 22.55 23.977C22.55 23.853 22.638 23.803 22.746 23.865C22.854 23.927 22.942 24.079 22.942 24.203Z" fill="#C6C9CA"/>
<path d="M22.839 24.141C22.839 24.163 22.832 24.18 22.821 24.189C22.806 24.202 22.769 24.222 22.769 24.222L22.651 24.02C22.651 24.02 22.679 24.006 22.691 23.996C22.706 23.983 22.729 23.983 22.755 23.998C22.802 24.024 22.839 24.088 22.839 24.141Z" fill="#6C7277"/>
<path d="M22.794 24.168C22.794 24.221 22.757 24.242 22.711 24.215C22.665 24.189 22.628 24.125 22.628 24.072C22.628 24.019 22.665 23.998 22.711 24.025C22.757 24.051 22.794 24.115 22.794 24.168Z" fill="#D6D8D9"/>
<path d="M22.551 14.738L27.292 17.475V19.282L22.551 16.545V14.738Z" fill="#322920"/>
<path d="M15.603 11.74L23.847 16.499V16.582L15.603 11.823V11.74Z" fill="#322920"/>
<path d="M25.887 25.541L25.993 24.696L32.425 20.983L32.32 21.827L25.887 25.541Z" fill="#8595AD"/>
<path d="M32.47 19.666L32.425 20.982L30.294 22.438C29.876 22.724 29.439 22.98 28.986 23.205L25.992 24.695L26.037 23.379L26.499 23.112L32.012 19.929L32.47 19.666Z" fill="#6E7275"/>
<path d="M15.87 12.571C15.87 13.402 16.457 14.413 17.18 14.831C17.904 15.249 18.491 14.914 18.491 14.084C18.491 13.254 17.904 12.242 17.18 11.824C16.457 11.406 15.87 11.74 15.87 12.571Z" fill="#3A3E40"/>
<path d="M27.352 19.317L27.49 19.397L27.748 18.35C27.882 18.04 28.365 18.064 28.728 18.274L29.312 18.611C29.592 18.773 29.856 19.077 30.023 19.431L30.151 19.702C30.161 19.724 30.172 19.747 30.183 19.772C30.264 19.953 30.356 20.189 30.374 20.347L30.416 21.088L30.626 21.209L30.524 20.56C30.524 20.56 30.311 19.388 29.672 18.758C29.048 18.143 28.438 17.791 28.438 17.791C28.438 17.791 27.591 17.632 27.525 17.876C27.46 18.12 27.352 19.317 27.352 19.317Z" fill="#322920"/>
<path d="M27.292 17.128V19.283L27.49 19.397L27.748 18.35C27.848 18.118 28.144 18.073 28.439 18.153V17.79L27.292 17.128Z" fill="#322920"/>
<path d="M23.354 16.964L26.567 18.819V17.332L23.354 15.477V16.964Z" fill="#322920"/>
<path d="M20.27 12.563L26.702 8.849V17.131L20.27 20.845V12.563Z" fill="#D7D2C8"/>
<path d="M26.702 11.773L20.27 15.48V20.845L26.702 17.131V11.773Z" fill="#897998" fill-opacity="0.5"/>
<path d="M11.908 10.084L10.44 9.23602V8.867L11.908 9.71402V10.084Z" fill="#322920"/>
<path d="M11.374 9.59003L11.908 9.89801L13.105 9.65302V9.28403L11.374 8.285V9.59003Z" fill="#8595AD"/>
<path d="M10.463 14.44L18.706 19.199V20.296L10.463 15.536V14.44Z" fill="#2D241B"/>
<path d="M21.237 16.232L20.86 19.937V22.996L21.058 23.11L21.316 22.063C21.416 21.83 21.713 21.786 22.007 21.866C22.106 21.893 22.205 21.934 22.296 21.987L22.88 22.324C23.16 22.486 23.424 22.79 23.591 23.144L23.719 23.415C23.729 23.437 23.74 23.46 23.751 23.485C23.833 23.666 23.924 23.902 23.943 24.06L23.985 24.8L24.195 24.921L25.581 25.645L25.887 25.539L25.977 24.815L25.992 24.695L26.037 23.379L26.097 23.238L25.865 22.105L24.973 18.114L24.757 17.728L21.493 15.844L21.329 16.034L21.237 16.232Z" fill="#6E7275"/>
<path d="M23.752 23.485C23.834 23.666 23.925 23.902 23.944 24.06L23.986 24.8L24.196 24.921L25.582 25.645L25.888 25.539L25.978 24.815C25.911 24.761 25.841 24.705 25.768 24.648L23.752 23.485Z" fill="#261D14"/>
<path d="M23.986 24.801L25.581 25.646L25.887 25.541L25.669 25.273L23.986 24.302V24.801Z" fill="#84878A"/>
<path d="M24.581 23.964L24.244 24.189L24.239 24.272L24.11 24.374L23.944 24.061C23.925 23.903 23.834 23.667 23.753 23.486C23.742 23.462 23.731 23.438 23.721 23.416L23.593 23.145C23.425 22.791 23.162 22.487 22.882 22.325L22.298 21.988C22.201 21.932 22.095 21.889 21.99 21.862C21.982 21.86 21.973 21.858 21.964 21.856C21.957 21.854 21.95 21.852 21.943 21.851C21.814 21.824 21.688 21.822 21.581 21.85L21.261 21.474L20.594 20.69L20.863 20.385L22.554 21.295C22.554 21.295 23.601 22.019 23.989 22.532C24.247 22.873 24.432 23.423 24.527 23.755C24.572 23.923 24.581 23.964 24.581 23.964Z" fill="#D5DAE2"/>
<path d="M26.038 23.38L25.399 22.887L20.86 19.936L21.237 16.232L21.331 16.033L21.495 15.844L24.758 17.728L24.974 18.114L25.866 22.106L26.097 23.239L26.038 23.38Z" fill="#84878A"/>
<path d="M21.402 16.074L24.838 18.207L25.632 21.931L25.79 22.379L25.929 23.296L26.037 23.38L26.097 23.239L25.866 22.106L25.743 21.909L24.974 18.114L21.402 16.074Z" fill="#E0E4EA"/>
<path d="M22.643 17.341C22.523 17.274 22.413 17.339 22.393 17.488C22.341 17.886 22.185 18.928 22.289 19.087C22.375 19.219 23.486 20.214 23.887 20.831C23.951 20.929 24.922 21.479 24.922 21.479L24.865 20.637C24.865 20.637 24.484 18.634 24.383 18.395C24.301 18.202 23.181 17.644 22.643 17.341Z" fill="#322920"/>
<path d="M24.82 21.316C24.415 21.083 24.013 20.837 23.961 20.779C23.681 20.349 23.082 19.758 22.686 19.367C22.539 19.222 22.386 19.071 22.364 19.038C22.292 18.913 22.42 17.968 22.462 17.657C22.47 17.598 22.477 17.545 22.483 17.5C22.489 17.454 22.51 17.405 22.55 17.405C22.564 17.405 22.581 17.41 22.598 17.42C22.722 17.49 22.876 17.573 23.04 17.661C23.459 17.887 24.241 18.307 24.298 18.43C24.377 18.619 24.667 20.09 24.774 20.649L24.82 21.316Z" fill="#4D5258"/>
<path d="M4.94199 3.71402L20.27 12.563V20.845L4.94199 11.996V3.71402Z" fill="#84878A"/>
<path d="M5.37299 4.52002L19.839 12.872V19.801L5.37299 11.45V4.52002Z" fill="#6E7275"/>
<path d="M5.668 11.345V4.69L5.37299 4.52002V11.45L19.839 19.801V19.526L5.668 11.345Z" fill="#909E9B"/>
<path d="M5.47598 13.797L4.008 12.95V12.58L5.47598 13.428V13.797Z" fill="#322920"/>
<path d="M4.94199 13.303L5.47598 13.611L6.673 13.367V12.997L4.94199 11.998V13.303Z" fill="#2D241B"/>
<path d="M25.37 24.059L24.581 23.564L24.414 23.149C24.413 23.138 24.326 21.997 22.104 20.67L22.102 20.669L21.819 20.483L21.821 20.458L22.144 16.738L22.201 16.77L24.537 18.07L24.763 18.83L24.884 19.271L25.38 21.786L25.477 23.028L25.37 24.059ZM24.649 23.507L25.301 23.916L25.395 23.027L25.298 21.798L24.803 19.291L24.683 18.854L24.467 18.128L22.217 16.876L21.908 20.441L22.148 20.599C24.344 21.911 24.489 23.026 24.498 23.138L24.649 23.507Z" fill="#ABABAB"/>
<path d="M25.544 24.867L25.76 24.992L25.978 25.189L26.099 25.691L25.946 25.833L25.581 25.646L25.445 25.492L25.544 24.867Z" fill="#84878A"/>
<path d="M24.196 24.922L23.986 24.801L23.978 24.667L23.943 24.061C23.924 23.903 23.833 23.667 23.752 23.486C23.741 23.462 23.73 23.438 23.72 23.416L23.592 23.145C23.424 22.791 23.161 22.487 22.881 22.325L22.297 21.988C22.257 21.964 22.215 21.944 22.172 21.925L22.17 21.924C22.111 21.898 22.05 21.877 21.99 21.862C21.982 21.86 21.973 21.858 21.964 21.856C21.957 21.854 21.95 21.852 21.943 21.851C21.814 21.824 21.688 21.822 21.581 21.85C21.462 21.881 21.367 21.95 21.318 22.063L21.06 23.11L20.922 23.031C20.922 23.031 21.03 21.833 21.096 21.589C21.112 21.529 21.175 21.494 21.26 21.474C21.262 21.473 21.264 21.473 21.266 21.473C21.525 21.416 21.986 21.5 22.008 21.504H22.009C22.009 21.504 22.619 21.857 23.243 22.471C23.882 23.101 24.095 24.273 24.095 24.273L24.196 24.922Z" fill="#261D14"/>
<path d="M22.007 21.504V21.867C22.001 21.865 21.994 21.864 21.988 21.862C21.979 21.86 21.971 21.857 21.962 21.856C21.955 21.854 21.948 21.852 21.941 21.851C21.812 21.824 21.686 21.822 21.579 21.85C21.46 21.881 21.365 21.95 21.316 22.063L21.058 23.11L20.591 22.845V20.69L22.007 21.504Z" fill="#261D14"/>
<path d="M32.013 20.315L30.482 21.418C29.933 21.814 29.349 22.158 28.737 22.446L26.488 23.505L26.499 23.114L32.012 19.931L32.013 20.315Z" fill="#A5A9B2"/>
<path d="M32.53 19.525L32.47 19.666L30.553 21.048C30.004 21.444 29.42 21.788 28.807 22.076L26.054 23.372L26.037 23.38L26.097 23.239L25.865 22.106L32.327 18.606L32.53 19.525Z" fill="#D7D2C8"/>
<path d="M32.529 19.526L32.47 19.667L30.553 21.049C30.004 21.445 29.42 21.789 28.807 22.077L26.054 23.373L26.097 23.24C26.097 23.24 28.805 22.064 29.801 21.414C30.79 20.768 32.503 19.545 32.529 19.526Z" fill="#6E7275"/>
<path d="M32.398 21.18L30.344 22.568C29.966 22.823 29.573 23.055 29.166 23.262L26.046 24.847L25.803 24.676L25.544 24.869L25.759 24.993L25.977 25.19L26.098 25.692L25.945 25.834L28.98 24.272C29.558 23.975 30.116 23.642 30.651 23.274L32.469 22.026L32.622 21.884L32.621 21.334L32.403 21.137L32.398 21.18Z" fill="#EFEDE0"/>
<path d="M11.374 0L4.94199 3.71402L20.27 12.563L26.702 8.849L11.374 0Z" fill="#EFEDE0"/>
<path d="M27.173 12.565L21.494 15.844L24.758 17.728L24.974 18.114L25.751 17.808C27.531 17.106 29.179 16.109 30.627 14.858L30.653 14.835L30.437 14.449L27.173 12.565Z" fill="#E9E5E2"/>
<path d="M22.381 15.288L25.599 17.028L25.616 17.053L25.487 17.131L22.353 15.341L22.381 15.288Z" fill="#C0C8D4"/>
<path d="M22.482 15.229L25.599 17.028L25.515 17.078L22.381 15.288L22.482 15.229Z" fill="#F7F6F5"/>
<path d="M23.13 14.857L26.349 16.597L26.366 16.623L26.237 16.701L23.103 14.91L23.13 14.857Z" fill="#C0C8D4"/>
<path d="M23.232 14.799L26.349 16.597L26.265 16.648L23.13 14.857L23.232 14.799Z" fill="#F7F6F5"/>
<path d="M23.88 14.427L27.098 16.167L27.116 16.192L26.987 16.27L23.852 14.48L23.88 14.427Z" fill="#C0C8D4"/>
<path d="M23.981 14.368L27.098 16.167L27.015 16.217L23.88 14.427L23.981 14.368Z" fill="#F7F6F5"/>
<path d="M24.63 13.996L27.848 15.736L27.866 15.762L27.737 15.839L24.602 14.049L24.63 13.996Z" fill="#C0C8D4"/>
<path d="M24.731 13.937L27.848 15.736L27.764 15.786L24.63 13.996L24.731 13.937Z" fill="#F7F6F5"/>
<path d="M25.379 13.565L28.598 15.305L28.615 15.331L28.486 15.409L25.352 13.618L25.379 13.565Z" fill="#C0C8D4"/>
<path d="M25.481 13.507L28.598 15.305L28.514 15.356L25.379 13.565L25.481 13.507Z" fill="#F7F6F5"/>
<path d="M26.129 13.135L29.347 14.874L29.365 14.9L29.236 14.978L26.101 13.188L26.129 13.135Z" fill="#C0C8D4"/>
<path d="M26.23 13.076L29.347 14.874L29.264 14.925L26.129 13.135L26.23 13.076Z" fill="#F7F6F5"/>
<path d="M27.173 12.565L30.23 14.44C30.23 14.44 29.154 15.465 27.866 16.144C26.578 16.823 24.796 17.578 24.796 17.578L21.494 15.844L24.758 17.728L25.078 17.81L28.298 16.309L30.354 14.738L30.437 14.45L27.173 12.565Z" fill="#F7F6F5"/>
<path d="M30.437 14.449L30.411 14.472C28.963 15.723 27.315 16.72 25.535 17.422L24.758 17.728L24.974 18.114L25.751 17.808C27.531 17.106 29.179 16.109 30.627 14.858L30.653 14.835L30.437 14.449Z" fill="#F7F6F5"/>
<path d="M30.653 14.835L30.627 14.858C29.179 16.109 27.531 17.106 25.751 17.808L24.974 18.114L25.742 21.909L25.865 22.105L29.449 20.649L32.327 18.606L32.176 18.451L30.653 14.835Z" fill="#C2CAD6"/>
<path d="M25.743 21.909L29.371 20.188L32.178 18.45L32.329 18.605L30.9 19.62C29.937 20.304 28.899 20.873 27.805 21.318L25.867 22.105L25.743 21.909Z" fill="#322920"/>
<path d="M30.653 14.835L32.177 18.451L30.948 19.281C29.948 19.956 28.889 20.538 27.783 21.02L25.743 21.909L24.975 18.114L25.752 17.808C27.532 17.106 29.18 16.109 30.628 14.858L30.653 14.835Z" fill="#322920"/>
<path d="M32.202 18.434L30.653 14.835L30.587 14.911L32.146 18.471L32.291 18.632L32.328 18.606L32.202 18.434Z" fill="#E0E4EA"/>
<path d="M32.065 18.418L30.897 19.206C29.905 19.876 28.845 20.459 27.747 20.937L25.809 21.782L25.663 21.06L25.202 18.782L25.078 18.17L25.784 17.892C27.036 17.398 28.218 16.763 29.313 15.996C29.682 15.738 30.041 15.465 30.389 15.177C30.466 15.114 30.542 15.05 30.618 14.985L30.912 15.682L32.065 18.418Z" fill="#4D5258"/>
<path d="M31.396 17.897L30.892 17.606L30.448 17.095L29.915 16.54L29.312 15.996C29.681 15.738 30.04 15.465 30.388 15.177L30.585 15.372L31.33 17.089L31.368 17.345L31.396 17.897Z" fill="#9FB8B9"/>
<path d="M26.037 23.38L26.035 23.429L26.025 23.713L25.991 24.697L25.816 24.579C25.739 24.527 25.696 24.439 25.701 24.346L25.762 23.293C25.765 23.248 25.816 23.223 25.853 23.25L26.037 23.38Z" fill="#322920"/>
<path d="M26.442 23.238V23.535L26.026 23.713L26.036 23.429L26.037 23.43L26.442 23.238Z" fill="#FFB639"/>
<path d="M26.036 23.429L26.026 23.713L25.889 23.627C25.844 23.599 25.818 23.548 25.822 23.495L25.828 23.412C25.832 23.357 25.895 23.328 25.939 23.36L26.036 23.429Z" fill="#FF4800"/>
<path d="M32.468 19.721L32.457 20.053L32.065 20.287V19.989L32.468 19.721Z" fill="#FFB639"/>
<path d="M26.774 23.759L26.766 24.039C26.764 24.101 26.727 24.157 26.671 24.183L26.366 24.323C26.293 24.357 26.21 24.304 26.207 24.225C26.207 24.223 26.207 24.22 26.207 24.217L26.215 23.937C26.217 23.875 26.254 23.819 26.31 23.793L26.603 23.658L26.615 23.653C26.69 23.618 26.776 23.675 26.774 23.759Z" fill="#8595AD"/>
<path d="M27.417 23.46L27.409 23.74C27.407 23.802 27.37 23.857 27.314 23.883L27.009 24.023C26.936 24.057 26.852 24.004 26.85 23.925C26.85 23.923 26.85 23.92 26.85 23.918L26.858 23.638C26.86 23.576 26.897 23.52 26.953 23.494L27.246 23.359L27.258 23.354C27.333 23.32 27.419 23.377 27.417 23.46Z" fill="#8595AD"/>
<path d="M31.716 20.957V21.212C31.716 21.266 31.69 21.316 31.646 21.346L31.381 21.528C31.307 21.579 31.207 21.527 31.205 21.439V21.436V21.181C31.205 21.127 31.231 21.077 31.276 21.046L31.54 20.864C31.542 20.863 31.544 20.862 31.545 20.86C31.619 20.815 31.716 20.868 31.716 20.957Z" fill="#8595AD"/>
<path d="M32.301 20.55V20.805C32.301 20.858 32.275 20.909 32.23 20.939L31.966 21.121C31.892 21.172 31.792 21.12 31.79 21.032V21.029V20.774C31.79 20.721 31.816 20.67 31.861 20.64L32.125 20.458C32.127 20.457 32.129 20.456 32.13 20.454C32.205 20.409 32.301 20.462 32.301 20.55Z" fill="#8595AD"/>
<path d="M26.603 23.666L26.595 23.946C26.593 24.008 26.556 24.064 26.5 24.09L26.207 24.225C26.207 24.223 26.207 24.22 26.207 24.217L26.215 23.937C26.217 23.875 26.254 23.819 26.31 23.793L26.603 23.658C26.603 23.66 26.603 23.663 26.603 23.666Z" fill="#E0E4EA"/>
<path d="M27.246 23.367L27.238 23.647C27.236 23.709 27.199 23.764 27.143 23.79L26.85 23.925C26.85 23.923 26.85 23.92 26.85 23.918L26.858 23.638C26.86 23.576 26.897 23.52 26.953 23.494L27.246 23.359C27.246 23.362 27.246 23.365 27.246 23.367Z" fill="#E0E4EA"/>
<path d="M31.545 20.864V21.119C31.545 21.173 31.519 21.223 31.474 21.254L31.21 21.436C31.208 21.437 31.206 21.438 31.205 21.44V21.437V21.182C31.205 21.128 31.231 21.078 31.276 21.047L31.54 20.865C31.542 20.864 31.544 20.863 31.545 20.861V20.864Z" fill="#E0E4EA"/>
<path d="M32.131 20.457V20.712C32.131 20.766 32.105 20.816 32.06 20.846L31.796 21.028C31.794 21.029 31.792 21.03 31.791 21.032V21.029V20.774C31.791 20.721 31.817 20.67 31.862 20.64L32.126 20.458C32.128 20.457 32.13 20.456 32.131 20.454V20.457Z" fill="#E0E4EA"/>
<path d="M25.978 25.189L28.949 23.636C29.719 23.233 30.466 22.788 31.187 22.302L32.622 21.334L32.623 21.884L29.878 23.721L26.099 25.692L25.978 25.189Z" fill="#D7D2C8"/>
<path d="M29.762 23.298C30.698 22.762 32.622 21.439 32.622 21.439V21.334L31.187 22.302C30.467 22.788 29.719 23.234 28.949 23.636L25.978 25.189L26.099 25.691L26.054 25.241C26.054 25.241 28.827 23.834 29.762 23.298Z" fill="#F7F6F5"/>
<path d="M26.099 25.691L25.946 25.833L28.981 24.271C29.559 23.974 30.117 23.641 30.652 23.273L32.47 22.025L32.623 21.883L29.878 23.72L26.099 25.691Z" fill="#6E7275"/>
<path d="M32.425 20.815L32.343 20.858V20.287L32.452 20.179L32.425 20.815Z" fill="#AAB5C6"/>
<path d="M27.524 23.142V23.475L28.74 22.889C29.357 22.592 29.944 22.238 30.495 21.832L31.116 21.375L31.136 21.033L30.533 21.483C29.937 21.927 29.298 22.31 28.625 22.626L27.524 23.142Z" fill="#655E57"/>
<path d="M29.035 22.456L29.037 22.665L29.707 22.278L29.706 22.076L29.035 22.456Z" fill="#DCDB48"/>
<path d="M27.504 23.641V23.764L28.72 23.178C29.337 22.881 29.924 22.527 30.475 22.121L31.096 21.663L31.116 21.531L30.512 21.981C29.916 22.425 29.277 22.808 28.605 23.123L27.504 23.641Z" fill="#A5A9B2"/>
<path d="M24.196 24.922L23.986 24.801L23.978 24.667L23.943 24.061C23.924 23.903 23.833 23.667 23.752 23.486C23.741 23.462 23.73 23.438 23.72 23.416L23.592 23.145C23.424 22.791 23.161 22.487 22.881 22.325L22.297 21.988C22.257 21.964 22.215 21.944 22.172 21.925L22.17 21.924L22.009 21.843L21.267 21.473L20.593 21.137V20.69L22.008 21.503H22.009C22.009 21.503 22.619 21.856 23.243 22.47C23.882 23.1 24.095 24.272 24.095 24.272L24.196 24.922Z" fill="#84878A"/>
<path d="M30.912 15.682L30.015 16.378C29.023 17.048 27.963 17.631 26.865 18.109L25.203 18.783L25.079 18.171L25.785 17.893C27.037 17.399 28.219 16.764 29.314 15.997C29.683 15.739 30.042 15.466 30.39 15.178C30.467 15.115 30.543 15.051 30.619 14.986L30.912 15.682Z" fill="#322920"/>
<path d="M26.085 23.833L26.021 23.859L25.893 23.79C25.86 23.772 25.819 23.795 25.816 23.832C25.804 24.005 25.778 24.402 25.797 24.435C25.822 24.477 25.987 24.564 25.992 24.561C25.997 24.558 26.128 24.52 26.128 24.46C26.128 24.413 26.145 24.044 26.152 23.881C26.155 23.845 26.119 23.819 26.085 23.833Z" fill="#AAB5C6"/>
<path d="M21.331 16.033L24.974 18.114L24.758 17.728L21.495 15.844L21.331 16.033Z" fill="#F7F6F5"/>
<path d="M21.468 16.802L21.299 18.439C21.297 18.504 21.331 18.565 21.386 18.598L21.684 18.772C21.756 18.814 21.842 18.767 21.85 18.684C21.85 18.681 21.851 18.679 21.851 18.676L22.02 17.039C22.022 16.974 21.988 16.913 21.933 16.88L21.647 16.712L21.636 16.706C21.561 16.663 21.471 16.715 21.468 16.802Z" fill="#322920"/>
<path d="M21.74 18.727C21.731 18.727 21.723 18.725 21.714 18.72L21.417 18.546C21.382 18.525 21.36 18.485 21.36 18.443L21.529 16.806V16.804C21.53 16.77 21.555 16.751 21.579 16.751C21.588 16.751 21.597 16.754 21.605 16.758L21.617 16.765L21.903 16.932C21.938 16.953 21.96 16.993 21.96 17.035L21.791 18.67V18.675L21.79 18.678V18.679C21.786 18.71 21.762 18.727 21.74 18.727Z" fill="#4D5258"/>
<path d="M21.495 15.844L21.402 16.074L21.331 16.282L20.979 20.014L20.966 20.443L20.717 20.745V21.2L20.591 21.137V20.69L20.86 20.385V19.936L21.237 16.232L21.331 16.033L21.495 15.844Z" fill="#C1C9D5"/>
<path d="M11.374 0L26.215 8.849L20.27 12.26L4.94199 3.71402L20.27 12.563L26.702 8.849L11.374 0Z" fill="#F7F6F5"/>
<path d="M32.065 18.418L30.897 19.206C29.905 19.876 28.845 20.459 27.747 20.937L25.809 21.782L25.663 21.06L29.156 19.397L31.117 18.114L32.065 18.418Z" fill="#737F82"/>
<path d="M28.731 17.335L28.829 17.435L29.093 17.303L29.217 17.293L29.292 17.465L29.268 17.579L28.934 17.827L28.335 18.114L28.244 18.086L28.174 17.878L28.258 17.752L28.613 17.558L28.516 17.462L28.633 17.355L28.731 17.335Z" fill="#737F82"/>
<path d="M24.186 19.251L23.987 19.271C23.825 19.304 23.693 19.506 23.693 19.722V20.979C23.693 21.196 23.825 21.345 23.987 21.312L24.259 21.265C24.422 21.232 24.48 21.057 24.48 20.841V19.584C24.48 19.367 24.348 19.218 24.186 19.251Z" fill="#484038"/>
<path d="M24.07 21.546L25.325 21.041L25.263 20.934L24.193 21.332V19.113L24.926 18.743L24.87 18.633L24.07 19.037V21.546Z" fill="#3E362E"/>
<defs>
<linearGradient id="paint0_linear_206_4266" x1="0.0002" y1="18.5216" x2="32.1904" y2="18.5216" gradientUnits="userSpaceOnUse">
<stop offset="0.112" stop-color="#AEACBA"/>
<stop offset="0.987" stop-color="#7B738C"/>
</linearGradient>
</defs>
</svg>
