<svg width="33" height="28" viewBox="0 0 33 28" fill="none" xmlns="http://www.w3.org/2000/svg">
<path d="M0.819 14.835L1.01801 15.069C1.18101 15.277 1.314 15.621 1.314 15.838L1.168 17.063C1.169 17.28 1.03699 17.287 0.873993 17.079L0.669006 16.84C0.506006 16.632 0.446984 16.394 0.445984 16.177L0.523987 14.851C0.524987 14.634 0.656 14.627 0.819 14.835Z" fill="#484038"/>
<path d="M1.29999 17.915L0.75 17.284L0.98999 14.573L2.00998 15.373L1.95099 15.481L1.11398 14.78L0.872986 17.217L1.367 17.812L1.29999 17.915Z" fill="#3E362E"/>
<path d="M22.923 9.88L26.586 11.706L32.623 15.653L13.5 26.693L7.87799 27.163L3.23999 24.978L0.432983 22.865L22.923 9.88Z" fill="url(#paint0_linear_206_4266)" fill-opacity="0.5"/>
<path d="M15.4 18.451L10.66 21.188V22.996L15.4 20.259V18.451Z" fill="#1D1309"/>
<path d="M14.597 20.678L11.385 22.533V21.046L14.597 19.191V20.678Z" fill="#1D1309"/>
<path d="M22.854 15.818L22.003 17.315L21.872 17.546L20.938 18.951C20.938 18.951 20.439 18.659 20.049 18.433C20.009 18.411 19.971 18.388 19.935 18.368C19.933 18.367 19.931 18.366 19.929 18.365C19.72 18.22 19.591 17.941 19.591 17.556C19.591 17.452 19.6 17.346 19.617 17.238C19.675 16.881 19.824 16.509 20.033 16.178C20.262 15.813 20.563 15.498 20.893 15.308C21.214 15.123 21.508 15.087 21.736 15.176C21.773 15.199 21.818 15.227 21.868 15.258C22.225 15.471 22.854 15.818 22.854 15.818Z" fill="#151B1F"/>
<path d="M22.138 17.393L21.872 17.547L21.012 18.043L19.618 17.239C19.676 16.882 19.825 16.51 20.034 16.179L22.003 17.316L22.138 17.393Z" fill="#5B5E5D"/>
<path d="M19.723 17.636C19.723 16.811 20.306 15.804 21.026 15.389L19.723 17.636Z" fill="#242726"/>
<path d="M21.147 15.455C21.534 15.231 21.882 15.224 22.12 15.394C22.131 15.402 22.145 15.411 22.16 15.421C21.928 15.309 21.618 15.338 21.277 15.535C20.557 15.95 19.974 16.956 19.974 17.782C19.974 18.165 20.101 18.441 20.307 18.586C20.274 18.567 20.246 18.551 20.224 18.539C19.988 18.405 19.842 18.115 19.842 17.702C19.844 16.876 20.427 15.87 21.147 15.455Z" fill="#260E08"/>
<path d="M21.383 15.592C21.77 15.369 22.118 15.361 22.356 15.531C22.367 15.539 22.381 15.548 22.396 15.558C22.164 15.447 21.854 15.475 21.513 15.672C20.793 16.087 20.21 17.094 20.21 17.919C20.21 18.302 20.337 18.578 20.543 18.723C20.51 18.704 20.482 18.688 20.46 18.676C20.224 18.542 20.078 18.252 20.078 17.839C20.08 17.014 20.663 16.007 21.383 15.592Z" fill="#260E08"/>
<path d="M21.619 15.729C22.006 15.506 22.354 15.499 22.592 15.668C22.603 15.676 22.617 15.685 22.632 15.695C22.4 15.583 22.09 15.612 21.749 15.809C21.029 16.224 20.446 17.231 20.446 18.056C20.446 18.439 20.573 18.715 20.78 18.86C20.747 18.841 20.719 18.825 20.697 18.812C20.461 18.678 20.315 18.388 20.315 17.975C20.316 17.151 20.899 16.145 21.619 15.729Z" fill="#260E08"/>
<path d="M23.185 16.626C23.185 17.452 22.602 18.458 21.882 18.873C21.163 19.288 20.579 18.956 20.579 18.13C20.579 17.304 21.162 16.298 21.882 15.883C22.602 15.468 23.185 15.801 23.185 16.626Z" fill="#585B5D"/>
<path d="M23.148 16.677C23.148 17.486 22.576 18.472 21.871 18.879C21.166 19.286 20.594 18.96 20.594 18.151C20.594 17.342 21.166 16.356 21.871 15.948C22.576 15.542 23.148 15.868 23.148 16.677Z" fill="#3A3E40"/>
<path d="M21.922 18.822C21.203 19.237 20.619 18.905 20.619 18.079C20.619 17.548 20.86 16.943 21.224 16.468C20.839 16.95 20.58 17.58 20.58 18.13C20.58 18.956 21.163 19.288 21.883 18.873C22.14 18.725 22.379 18.501 22.581 18.237C22.387 18.479 22.162 18.684 21.922 18.822Z" fill="#260E08"/>
<path d="M22.929 16.774C22.929 17.438 22.46 18.246 21.882 18.58C21.304 18.914 20.835 18.647 20.835 17.983C20.835 17.32 21.304 16.511 21.882 16.177C22.461 15.843 22.929 16.11 22.929 16.774Z" fill="#575E66"/>
<path d="M22.683 16.916C22.683 17.423 22.325 18.042 21.882 18.297C21.44 18.552 21.081 18.348 21.081 17.84C21.081 17.333 21.44 16.714 21.882 16.459C22.325 16.204 22.683 16.409 22.683 16.916Z" fill="#6C7277"/>
<path d="M22.683 16.916C22.683 17.423 22.325 18.042 21.882 18.297C21.44 18.552 21.081 18.348 21.081 17.84C21.081 17.333 21.44 16.715 21.882 16.459C22.325 16.204 22.683 16.409 22.683 16.916ZM22.601 16.944C22.601 16.471 22.267 16.281 21.855 16.519C21.443 16.757 21.109 17.333 21.109 17.805C21.109 18.278 21.443 18.468 21.855 18.23C22.267 17.993 22.601 17.417 22.601 16.944Z" fill="#A5A9B2"/>
<path d="M22.459 16.971C22.459 17.389 22.164 17.897 21.8 18.107C21.464 18.301 21.186 18.172 21.146 17.821C21.143 17.793 21.141 17.763 21.141 17.732C21.141 17.45 21.275 17.127 21.474 16.882C21.569 16.764 21.681 16.664 21.799 16.596C22.164 16.385 22.459 16.554 22.459 16.971Z" fill="#2C3D4F"/>
<path d="M21.745 16.756C21.962 16.631 22.235 16.631 22.421 16.739C22.33 16.499 22.087 16.43 21.801 16.595C21.52 16.757 21.281 17.098 21.186 17.437C21.302 17.155 21.508 16.892 21.745 16.756Z" fill="#0F2237"/>
<path d="M22.118 17.062C22.118 17.379 21.894 17.766 21.617 17.926C21.401 18.05 21.217 18 21.147 17.821C21.144 17.793 21.142 17.763 21.142 17.732C21.142 17.45 21.276 17.127 21.475 16.882C21.52 16.841 21.568 16.805 21.617 16.777C21.894 16.617 22.118 16.744 22.118 17.062Z" fill="#260E08"/>
<path d="M21.237 17.507C21.237 17.517 21.237 17.527 21.238 17.537C21.241 17.597 21.254 17.648 21.276 17.688L21.277 17.689C21.344 17.817 21.491 17.848 21.662 17.75C21.897 17.614 22.087 17.286 22.087 17.017C22.087 16.872 22.031 16.773 21.943 16.735C21.939 16.733 21.936 16.731 21.932 16.73C21.874 16.708 21.802 16.711 21.723 16.744C21.703 16.752 21.682 16.762 21.661 16.774C21.482 16.877 21.33 17.092 21.267 17.307C21.254 17.351 21.245 17.396 21.24 17.44C21.239 17.462 21.237 17.485 21.237 17.507Z" fill="#3D454B"/>
<path d="M21.264 17.527C21.264 17.537 21.265 17.547 21.265 17.557C21.268 17.617 21.281 17.667 21.303 17.708L21.304 17.709C21.371 17.837 21.518 17.868 21.689 17.77C21.924 17.634 22.114 17.306 22.114 17.037C22.114 16.892 22.058 16.793 21.97 16.756C21.966 16.754 21.963 16.752 21.959 16.752C21.9 16.73 21.829 16.733 21.75 16.766C21.73 16.774 21.709 16.784 21.688 16.796C21.509 16.899 21.357 17.114 21.294 17.329C21.281 17.373 21.272 17.418 21.267 17.462C21.266 17.482 21.264 17.505 21.264 17.527Z" fill="#7E8386"/>
<path d="M21.511 17.397L21.409 17.6L21.487 17.65L21.88 16.916L21.802 16.867L21.511 17.397Z" fill="#3D454B"/>
<path d="M21.662 17.3L21.487 17.65L21.572 17.687L21.958 16.974L21.88 16.916L21.662 17.3Z" fill="#C6C9CA"/>
<path d="M21.409 17.325C21.409 17.377 21.425 17.416 21.451 17.44C21.487 17.472 21.574 17.517 21.574 17.517L21.852 17.04C21.852 17.04 21.785 17.006 21.758 16.983C21.722 16.953 21.667 16.952 21.606 16.987C21.497 17.05 21.409 17.201 21.409 17.325Z" fill="#6C7277"/>
<path d="M21.515 17.39C21.515 17.514 21.603 17.564 21.711 17.502C21.819 17.44 21.907 17.288 21.907 17.164C21.907 17.04 21.819 16.99 21.711 17.052C21.602 17.115 21.515 17.266 21.515 17.39Z" fill="#C6C9CA"/>
<path d="M21.617 17.328C21.617 17.35 21.624 17.367 21.635 17.377C21.65 17.39 21.687 17.409 21.687 17.409L21.805 17.207C21.805 17.207 21.777 17.193 21.765 17.183C21.75 17.17 21.726 17.17 21.7 17.185C21.654 17.211 21.617 17.275 21.617 17.328Z" fill="#6C7277"/>
<path d="M21.662 17.355C21.662 17.408 21.699 17.429 21.745 17.402C21.791 17.376 21.828 17.311 21.828 17.259C21.828 17.206 21.791 17.185 21.745 17.212C21.699 17.239 21.662 17.303 21.662 17.355Z" fill="#D6D8D9"/>
<path d="M11.565 23.11L10.724 22.474L8.18799 24.254L8.02499 22.282L10.13 21.07L10.939 21.06L11.763 21.668L11.565 23.11Z" fill="#1D1309"/>
<path d="M11.02 22.631L10.17 24.128L10.039 24.359L9.10498 25.764C9.10498 25.764 8.606 25.472 8.216 25.246C8.176 25.223 8.138 25.201 8.103 25.18C8.101 25.179 8.09898 25.178 8.09698 25.177C7.88798 25.032 7.759 24.753 7.759 24.368C7.759 24.264 7.768 24.158 7.785 24.05C7.843 23.693 7.99199 23.321 8.20099 22.99C8.42999 22.625 8.73 22.31 9.061 22.12C9.382 21.935 9.67599 21.899 9.90399 21.988C9.94099 22.012 9.98598 22.039 10.036 22.07C10.392 22.284 11.02 22.631 11.02 22.631Z" fill="#151B1F"/>
<path d="M10.305 24.206L10.039 24.36L9.17899 24.856L7.785 24.051C7.843 23.694 7.99199 23.322 8.20099 22.991L10.17 24.128L10.305 24.206Z" fill="#151B1F"/>
<path d="M7.88898 24.449C7.88898 23.624 8.47199 22.617 9.19199 22.202L7.88898 24.449Z" fill="#242726"/>
<path d="M9.31299 22.268C9.69999 22.044 10.048 22.038 10.286 22.207C10.297 22.215 10.311 22.224 10.326 22.234C10.094 22.123 9.78399 22.151 9.44299 22.348C8.72299 22.763 8.13998 23.77 8.13998 24.595C8.13998 24.978 8.26699 25.254 8.47299 25.399C8.43999 25.38 8.41198 25.364 8.38998 25.352C8.15398 25.218 8.008 24.928 8.008 24.515C8.01 23.689 8.59399 22.683 9.31299 22.268Z" fill="#260E08"/>
<path d="M9.54898 22.405C9.93598 22.181 10.284 22.175 10.522 22.344C10.533 22.352 10.547 22.361 10.562 22.371C10.33 22.259 10.02 22.288 9.67899 22.485C8.95899 22.9 8.37601 23.907 8.37601 24.732C8.37601 25.115 8.50298 25.391 8.70898 25.536C8.67598 25.517 8.64801 25.501 8.62601 25.489C8.39001 25.355 8.24399 25.065 8.24399 24.652C8.24599 23.826 8.82998 22.82 9.54898 22.405Z" fill="#260E08"/>
<path d="M9.785 22.542C10.172 22.319 10.52 22.312 10.758 22.481C10.769 22.489 10.783 22.498 10.798 22.508C10.566 22.396 10.256 22.425 9.91498 22.622C9.19498 23.037 8.612 24.044 8.612 24.869C8.612 25.252 8.73898 25.528 8.94498 25.673C8.91198 25.654 8.884 25.638 8.862 25.626C8.626 25.492 8.47998 25.202 8.47998 24.789C8.48298 23.963 9.066 22.957 9.785 22.542Z" fill="#260E08"/>
<path d="M11.352 23.439C11.352 24.265 10.769 25.271 10.049 25.686C9.32998 26.101 8.746 25.769 8.746 24.943C8.746 24.117 9.32898 23.111 10.049 22.696C10.769 22.281 11.352 22.613 11.352 23.439Z" fill="#585B5D"/>
<path d="M11.314 23.49C11.314 24.299 10.742 25.285 10.037 25.692C9.33199 26.099 8.75998 25.773 8.75998 24.964C8.75998 24.155 9.33199 23.169 10.037 22.762C10.743 22.355 11.314 22.681 11.314 23.49Z" fill="#3A3E40"/>
<path d="M10.089 25.635C9.36999 26.05 8.78598 25.718 8.78598 24.892C8.78598 24.361 9.02699 23.756 9.39099 23.281C9.00599 23.763 8.74698 24.393 8.74698 24.943C8.74698 25.769 9.32999 26.101 10.05 25.686C10.307 25.538 10.546 25.314 10.748 25.05C10.554 25.292 10.329 25.496 10.089 25.635Z" fill="#260E08"/>
<path d="M11.096 23.587C11.096 24.25 10.627 25.059 10.049 25.393C9.47098 25.727 9.00198 25.459 9.00198 24.796C9.00198 24.133 9.47098 23.324 10.049 22.99C10.627 22.656 11.096 22.923 11.096 23.587Z" fill="#575E66"/>
<path d="M10.85 23.729C10.85 24.236 10.492 24.854 10.049 25.11C9.60698 25.365 9.24799 25.161 9.24799 24.654C9.24799 24.147 9.60698 23.528 10.049 23.273C10.491 23.017 10.85 23.221 10.85 23.729Z" fill="#6C7277"/>
<path d="M10.85 23.729C10.85 24.236 10.492 24.854 10.049 25.11C9.60698 25.365 9.24799 25.161 9.24799 24.654C9.24799 24.147 9.60698 23.528 10.049 23.273C10.491 23.017 10.85 23.221 10.85 23.729ZM10.767 23.757C10.767 23.284 10.433 23.094 10.021 23.332C9.609 23.57 9.27499 24.146 9.27499 24.618C9.27499 25.09 9.609 25.281 10.021 25.043C10.433 24.805 10.767 24.23 10.767 23.757Z" fill="#A5A9B2"/>
<path d="M10.625 23.783C10.625 24.201 10.33 24.709 9.966 24.919C9.63 25.113 9.35199 24.984 9.31299 24.633C9.30999 24.605 9.30798 24.575 9.30798 24.544C9.30798 24.262 9.44199 23.939 9.64099 23.694C9.73599 23.576 9.848 23.476 9.966 23.408C10.33 23.198 10.625 23.366 10.625 23.783Z" fill="#2C3D4F"/>
<path d="M9.91199 23.568C10.129 23.443 10.402 23.443 10.588 23.551C10.497 23.311 10.254 23.242 9.96799 23.407C9.68699 23.569 9.448 23.91 9.353 24.249C9.468 23.968 9.67499 23.705 9.91199 23.568Z" fill="#0F2237"/>
<path d="M10.284 23.874C10.284 24.191 10.06 24.578 9.78299 24.738C9.56699 24.862 9.38299 24.812 9.31299 24.633C9.30999 24.605 9.30798 24.575 9.30798 24.544C9.30798 24.262 9.44199 23.939 9.64099 23.694C9.68599 23.653 9.73399 23.617 9.78299 23.589C10.06 23.429 10.284 23.557 10.284 23.874Z" fill="#260E08"/>
<path d="M9.40399 24.32C9.40399 24.33 9.404 24.34 9.405 24.35C9.408 24.41 9.42099 24.461 9.44299 24.501H9.444C9.511 24.629 9.65798 24.66 9.82898 24.562C10.064 24.426 10.254 24.098 10.254 23.829C10.254 23.684 10.198 23.585 10.11 23.547C10.106 23.545 10.103 23.544 10.099 23.542C10.04 23.52 9.96898 23.523 9.88998 23.556C9.86998 23.564 9.849 23.574 9.828 23.586C9.649 23.689 9.49699 23.904 9.43399 24.119C9.42099 24.163 9.41198 24.208 9.40698 24.252C9.40498 24.275 9.40399 24.297 9.40399 24.32Z" fill="#3D454B"/>
<path d="M9.42999 24.34C9.42999 24.35 9.431 24.36 9.431 24.37C9.434 24.43 9.44699 24.481 9.46899 24.521H9.47C9.537 24.649 9.68398 24.68 9.85498 24.581C10.09 24.445 10.28 24.117 10.28 23.848C10.28 23.703 10.225 23.604 10.136 23.567C10.133 23.565 10.129 23.563 10.125 23.562C10.066 23.54 9.99499 23.543 9.91599 23.576C9.89599 23.584 9.875 23.594 9.854 23.606C9.675 23.709 9.52299 23.924 9.45999 24.139C9.44699 24.183 9.43798 24.228 9.43298 24.272C9.43198 24.295 9.42999 24.318 9.42999 24.34Z" fill="#7E8386"/>
<path d="M9.677 24.209L9.57599 24.413L9.65298 24.463L10.046 23.729L9.96899 23.679L9.677 24.209Z" fill="#3D454B"/>
<path d="M9.82898 24.112L9.65298 24.463L9.73898 24.5L10.125 23.787L10.046 23.729L9.82898 24.112Z" fill="#C6C9CA"/>
<path d="M9.57599 24.138C9.57599 24.19 9.59198 24.229 9.61798 24.253C9.65398 24.285 9.741 24.33 9.741 24.33L10.019 23.853C10.019 23.853 9.95199 23.819 9.92499 23.796C9.88899 23.766 9.83398 23.765 9.77298 23.8C9.66298 23.863 9.57599 24.014 9.57599 24.138Z" fill="#6C7277"/>
<path d="M9.681 24.203C9.681 24.327 9.76898 24.377 9.87698 24.315C9.98498 24.252 10.073 24.101 10.073 23.977C10.073 23.853 9.98498 23.803 9.87698 23.865C9.76898 23.927 9.681 24.079 9.681 24.203Z" fill="#C6C9CA"/>
<path d="M9.784 24.141C9.784 24.163 9.791 24.18 9.802 24.189C9.817 24.202 9.854 24.222 9.854 24.222L9.97198 24.02C9.97198 24.02 9.94401 24.006 9.93201 23.996C9.91701 23.983 9.89398 23.983 9.86798 23.998C9.82098 24.024 9.784 24.088 9.784 24.141Z" fill="#6C7277"/>
<path d="M9.82898 24.168C9.82898 24.221 9.86599 24.242 9.91199 24.215C9.95799 24.189 9.995 24.125 9.995 24.072C9.995 24.019 9.95799 23.998 9.91199 24.025C9.86599 24.051 9.82898 24.115 9.82898 24.168Z" fill="#D6D8D9"/>
<path d="M10.072 14.738L5.33099 17.475V19.282L10.072 16.545V14.738Z" fill="#322920"/>
<path d="M17.02 11.74L8.776 16.499V16.582L17.02 11.823V11.74Z" fill="#322920"/>
<path d="M6.73599 25.541L6.63 24.696L0.197998 20.983L0.302979 21.827L6.73599 25.541Z" fill="#8595AD"/>
<path d="M0.152985 19.666L0.197998 20.982L2.32898 22.438C2.74698 22.724 3.18399 22.98 3.63699 23.205L6.63098 24.695L6.586 23.379L6.12399 23.112L0.610992 19.929L0.152985 19.666Z" fill="#6E7275"/>
<path d="M16.753 12.571C16.753 13.402 16.166 14.413 15.443 14.831C14.719 15.249 14.132 14.914 14.132 14.084C14.132 13.254 14.719 12.242 15.443 11.824C16.166 11.406 16.753 11.74 16.753 12.571Z" fill="#3A3E40"/>
<path d="M5.271 19.317L5.133 19.397L4.875 18.35C4.741 18.04 4.25799 18.064 3.89499 18.274L3.311 18.611C3.031 18.773 2.76701 19.077 2.60001 19.431L2.47198 19.702C2.46198 19.724 2.451 19.747 2.44 19.772C2.359 19.953 2.26699 20.189 2.24899 20.347L2.207 21.088L1.99698 21.209L2.099 20.56C2.099 20.56 2.31199 19.388 2.95099 18.758C3.57499 18.143 4.185 17.791 4.185 17.791C4.185 17.791 5.03199 17.632 5.09799 17.876C5.16299 18.12 5.271 19.317 5.271 19.317Z" fill="#322920"/>
<path d="M5.33099 17.128V19.283L5.133 19.397L4.875 18.35C4.775 18.118 4.47899 18.073 4.18399 18.153V17.79L5.33099 17.128Z" fill="#322920"/>
<path d="M9.26898 16.964L6.056 18.819V17.332L9.26898 15.477V16.964Z" fill="#322920"/>
<path d="M12.353 12.563L5.92099 8.849V17.131L12.353 20.845V12.563Z" fill="#D7D2C8"/>
<path d="M5.92099 11.773L12.353 15.48V20.845L5.92099 17.131V11.773Z" fill="#897998" fill-opacity="0.5"/>
<path d="M20.715 10.084L22.183 9.23602V8.867L20.715 9.71402V10.084Z" fill="#322920"/>
<path d="M21.249 9.59003L20.715 9.89801L19.518 9.65302V9.28403L21.249 8.285V9.59003Z" fill="#8595AD"/>
<path d="M22.16 14.44L13.917 19.199V20.296L22.16 15.536V14.44Z" fill="#2D241B"/>
<path d="M11.386 16.232L11.763 19.937V22.996L11.565 23.11L11.307 22.063C11.207 21.83 10.91 21.786 10.616 21.866C10.517 21.893 10.418 21.934 10.327 21.987L9.74298 22.324C9.46298 22.486 9.19898 22.79 9.03198 23.144L8.90399 23.415C8.89399 23.437 8.88298 23.46 8.87198 23.485C8.78998 23.666 8.69899 23.902 8.67999 24.06L8.638 24.8L8.42798 24.921L7.04199 25.645L6.73599 25.539L6.646 24.815L6.63098 24.695L6.586 23.379L6.526 23.238L6.758 22.105L7.64999 18.114L7.866 17.728L11.13 15.844L11.294 16.034L11.386 16.232Z" fill="#6E7275"/>
<path d="M8.871 23.485C8.789 23.666 8.69799 23.902 8.67899 24.06L8.63699 24.8L8.427 24.921L7.04099 25.645L6.73499 25.539L6.64499 24.815C6.71199 24.761 6.78198 24.705 6.85498 24.648L8.871 23.485Z" fill="#261D14"/>
<path d="M8.63699 24.801L7.04199 25.646L6.73599 25.541L6.95398 25.273L8.63699 24.302V24.801Z" fill="#84878A"/>
<path d="M8.04199 23.964L8.379 24.189L8.384 24.272L8.513 24.374L8.67899 24.061C8.69799 23.903 8.789 23.667 8.87 23.486C8.881 23.462 8.89198 23.438 8.90198 23.416L9.03 23.145C9.198 22.791 9.461 22.487 9.741 22.325L10.325 21.988C10.422 21.932 10.528 21.889 10.633 21.862C10.641 21.86 10.65 21.858 10.659 21.856C10.666 21.854 10.673 21.852 10.68 21.851C10.809 21.824 10.935 21.822 11.042 21.85L11.362 21.474L12.029 20.69L11.76 20.385L10.069 21.295C10.069 21.295 9.022 22.019 8.634 22.532C8.376 22.873 8.19098 23.423 8.09598 23.755C8.05098 23.923 8.04199 23.964 8.04199 23.964Z" fill="#D5DAE2"/>
<path d="M6.58499 23.38L7.224 22.887L11.763 19.936L11.386 16.232L11.292 16.033L11.128 15.844L7.86499 17.728L7.64899 18.114L6.75699 22.106L6.526 23.239L6.58499 23.38Z" fill="#84878A"/>
<path d="M11.221 16.074L7.785 18.207L6.991 21.931L6.83298 22.379L6.694 23.296L6.586 23.38L6.526 23.239L6.75699 22.106L6.88 21.909L7.64899 18.114L11.221 16.074Z" fill="#E0E4EA"/>
<path d="M9.97997 17.341C10.1 17.274 10.21 17.339 10.23 17.488C10.282 17.886 10.438 18.928 10.334 19.087C10.248 19.219 9.13698 20.214 8.73598 20.831C8.67198 20.929 7.70098 21.479 7.70098 21.479L7.75799 20.637C7.75799 20.637 8.13898 18.634 8.23998 18.395C8.32198 18.202 9.44197 17.644 9.97997 17.341Z" fill="#322920"/>
<path d="M7.80298 21.316C8.20798 21.083 8.60998 20.837 8.66198 20.779C8.94198 20.349 9.54098 19.758 9.93698 19.367C10.084 19.222 10.237 19.071 10.259 19.038C10.331 18.913 10.203 17.968 10.161 17.657C10.153 17.598 10.146 17.545 10.14 17.5C10.134 17.454 10.113 17.405 10.073 17.405C10.059 17.405 10.042 17.41 10.025 17.42C9.90099 17.49 9.74697 17.573 9.58297 17.661C9.16397 17.887 8.38198 18.307 8.32498 18.43C8.24598 18.619 7.956 20.09 7.849 20.649L7.80298 21.316Z" fill="#4D5258"/>
<path d="M27.681 3.71402L12.353 12.563V20.845L27.681 11.996V3.71402Z" fill="#84878A"/>
<path d="M27.25 4.52002L12.784 12.872V19.801L27.25 11.45V4.52002Z" fill="#6E7275"/>
<path d="M26.955 11.345V4.69L27.25 4.52002V11.45L12.784 19.801V19.526L26.955 11.345Z" fill="#909E9B"/>
<path d="M27.147 13.797L28.615 12.95V12.58L27.147 13.428V13.797Z" fill="#322920"/>
<path d="M27.681 13.303L27.147 13.611L25.95 13.367V12.997L27.681 11.998V13.303Z" fill="#2D241B"/>
<path d="M7.25299 24.059L8.04199 23.564L8.20898 23.149C8.20998 23.138 8.29698 21.997 10.519 20.67L10.521 20.669L10.804 20.483L10.802 20.458L10.479 16.738L10.422 16.77L8.086 18.07L7.85999 18.83L7.73898 19.271L7.24298 21.786L7.146 23.028L7.25299 24.059ZM7.974 23.507L7.32199 23.916L7.228 23.027L7.32498 21.798L7.81998 19.291L7.94 18.854L8.15601 18.128L10.406 16.876L10.715 20.441L10.475 20.599C8.27901 21.911 8.134 23.026 8.125 23.138L7.974 23.507Z" fill="#ABABAB"/>
<path d="M7.07898 24.867L6.86301 24.992L6.64499 25.189L6.52399 25.691L6.677 25.833L7.04199 25.646L7.17798 25.492L7.07898 24.867Z" fill="#84878A"/>
<path d="M8.427 24.922L8.63699 24.801L8.64499 24.667L8.67999 24.061C8.69899 23.903 8.79 23.667 8.871 23.486C8.882 23.462 8.89298 23.438 8.90298 23.416L9.03101 23.145C9.19901 22.791 9.462 22.487 9.742 22.325L10.326 21.988C10.366 21.964 10.408 21.944 10.451 21.925L10.453 21.924C10.512 21.898 10.573 21.877 10.633 21.862C10.641 21.86 10.65 21.858 10.659 21.856C10.666 21.854 10.673 21.852 10.68 21.851C10.809 21.824 10.935 21.822 11.042 21.85C11.161 21.881 11.256 21.95 11.305 22.063L11.563 23.11L11.701 23.031C11.701 23.031 11.593 21.833 11.527 21.589C11.511 21.529 11.448 21.494 11.363 21.474C11.361 21.473 11.359 21.473 11.357 21.473C11.098 21.416 10.637 21.5 10.615 21.504H10.614C10.614 21.504 10.004 21.857 9.38 22.471C8.741 23.101 8.52798 24.273 8.52798 24.273L8.427 24.922Z" fill="#261D14"/>
<path d="M10.616 21.504V21.867C10.622 21.865 10.629 21.864 10.635 21.862C10.644 21.86 10.652 21.857 10.661 21.856C10.668 21.854 10.675 21.852 10.682 21.851C10.811 21.824 10.937 21.822 11.044 21.85C11.163 21.881 11.258 21.95 11.307 22.063L11.565 23.11L12.032 22.845V20.69L10.616 21.504Z" fill="#261D14"/>
<path d="M0.609985 20.315L2.14099 21.418C2.68999 21.814 3.27399 22.158 3.88599 22.446L6.13498 23.505L6.12399 23.114L0.610992 19.931L0.609985 20.315Z" fill="#A5A9B2"/>
<path d="M0.0929871 19.525L0.152985 19.666L2.06998 21.048C2.61898 21.444 3.20298 21.788 3.81598 22.076L6.569 23.372L6.586 23.38L6.526 23.239L6.758 22.106L0.29599 18.606L0.0929871 19.525Z" fill="#D7D2C8"/>
<path d="M0.0939941 19.526L0.152985 19.667L2.06998 21.049C2.61898 21.445 3.20298 21.789 3.81598 22.077L6.569 23.373L6.526 23.24C6.526 23.24 3.81799 22.064 2.82199 21.414C1.83299 20.768 0.119994 19.545 0.0939941 19.526Z" fill="#6E7275"/>
<path d="M0.225006 21.18L2.27899 22.568C2.65699 22.823 3.05 23.055 3.457 23.262L6.577 24.847L6.81998 24.676L7.07898 24.869L6.86398 24.993L6.646 25.19L6.52499 25.692L6.67798 25.834L3.64301 24.272C3.06501 23.975 2.50698 23.642 1.97198 23.274L0.153992 22.026L0.00100708 21.884L0.00198364 21.334L0.220001 21.137L0.225006 21.18Z" fill="#EFEDE0"/>
<path d="M21.249 0L27.681 3.71402L12.353 12.563L5.92099 8.849L21.249 0Z" fill="#EFEDE0"/>
<path d="M5.44998 12.565L11.129 15.844L7.86499 17.728L7.64899 18.114L6.87198 17.808C5.09198 17.106 3.444 16.109 1.996 14.858L1.97 14.835L2.186 14.449L5.44998 12.565Z" fill="#E9E5E2"/>
<path d="M10.242 15.288L7.02399 17.028L7.00699 17.053L7.13599 17.131L10.27 15.341L10.242 15.288Z" fill="#C0C8D4"/>
<path d="M10.141 15.229L7.02399 17.028L7.108 17.078L10.242 15.288L10.141 15.229Z" fill="#F7F6F5"/>
<path d="M9.49298 14.857L6.27399 16.597L6.25699 16.623L6.38599 16.701L9.51999 14.91L9.49298 14.857Z" fill="#C0C8D4"/>
<path d="M9.39099 14.799L6.27399 16.597L6.358 16.648L9.49298 14.857L9.39099 14.799Z" fill="#F7F6F5"/>
<path d="M8.74298 14.427L5.52499 16.167L5.50699 16.192L5.63599 16.27L8.771 14.48L8.74298 14.427Z" fill="#C0C8D4"/>
<path d="M8.642 14.368L5.52499 16.167L5.608 16.217L8.74298 14.427L8.642 14.368Z" fill="#F7F6F5"/>
<path d="M7.99298 13.996L4.77499 15.736L4.75699 15.762L4.88599 15.839L8.021 14.049L7.99298 13.996Z" fill="#C0C8D4"/>
<path d="M7.892 13.937L4.77499 15.736L4.85898 15.786L7.99298 13.996L7.892 13.937Z" fill="#F7F6F5"/>
<path d="M7.24399 13.565L4.02499 15.305L4.008 15.331L4.13699 15.409L7.271 13.618L7.24399 13.565Z" fill="#C0C8D4"/>
<path d="M7.142 13.507L4.02499 15.305L4.10898 15.356L7.24399 13.565L7.142 13.507Z" fill="#F7F6F5"/>
<path d="M6.49399 13.135L3.276 14.874L3.258 14.9L3.38699 14.978L6.522 13.188L6.49399 13.135Z" fill="#C0C8D4"/>
<path d="M6.39301 13.076L3.276 14.874L3.35898 14.925L6.49399 13.135L6.39301 13.076Z" fill="#F7F6F5"/>
<path d="M5.44998 12.565L2.39301 14.44C2.39301 14.44 3.46899 15.465 4.75699 16.144C6.04499 16.823 7.827 17.578 7.827 17.578L11.129 15.844L7.86499 17.728L7.54498 17.81L4.32498 16.309L2.26898 14.738L2.186 14.45L5.44998 12.565Z" fill="#F7F6F5"/>
<path d="M2.186 14.449L2.21201 14.472C3.66001 15.723 5.30798 16.72 7.08798 17.422L7.86499 17.728L7.64899 18.114L6.87198 17.808C5.09198 17.106 3.444 16.109 1.996 14.858L1.97 14.835L2.186 14.449Z" fill="#F7F6F5"/>
<path d="M1.97 14.835L1.996 14.858C3.444 16.109 5.09198 17.106 6.87198 17.808L7.64899 18.114L6.88098 21.909L6.758 22.105L3.17398 20.649L0.29599 18.606L0.446991 18.451L1.97 14.835Z" fill="#C2CAD6"/>
<path d="M6.88 21.909L3.25198 20.188L0.444977 18.45L0.294006 18.605L1.72299 19.62C2.68599 20.304 3.72399 20.873 4.81799 21.318L6.75598 22.105L6.88 21.909Z" fill="#322920"/>
<path d="M1.97 14.835L0.445984 18.451L1.67499 19.281C2.67499 19.956 3.734 20.538 4.84 21.02L6.88 21.909L7.64798 18.114L6.871 17.808C5.091 17.106 3.443 16.109 1.995 14.858L1.97 14.835Z" fill="#322920"/>
<path d="M0.42099 18.434L1.97 14.835L2.03598 14.911L0.47699 18.471L0.332001 18.632L0.294983 18.606L0.42099 18.434Z" fill="#E0E4EA"/>
<path d="M0.557983 18.418L1.72598 19.206C2.71798 19.876 3.77801 20.459 4.87601 20.937L6.814 21.782L6.95999 21.06L7.42099 18.782L7.54498 18.17L6.83899 17.892C5.58699 17.398 4.405 16.763 3.31 15.996C2.941 15.738 2.58198 15.465 2.23398 15.177C2.15698 15.114 2.081 15.05 2.005 14.985L1.711 15.682L0.557983 18.418Z" fill="#4D5258"/>
<path d="M1.22699 17.897L1.73099 17.606L2.17499 17.095L2.70798 16.54L3.311 15.996C2.942 15.738 2.58299 15.465 2.23499 15.177L2.03799 15.372L1.293 17.089L1.255 17.345L1.22699 17.897Z" fill="#9FB8B9"/>
<path d="M6.586 23.38L6.58799 23.429L6.598 23.713L6.63199 24.697L6.80701 24.579C6.88401 24.527 6.927 24.439 6.922 24.346L6.861 23.293C6.858 23.248 6.80699 23.223 6.76999 23.25L6.586 23.38Z" fill="#322920"/>
<path d="M6.181 23.238V23.535L6.59698 23.713L6.58701 23.429L6.586 23.43L6.181 23.238Z" fill="#FFB639"/>
<path d="M6.587 23.429L6.59698 23.713L6.73397 23.627C6.77897 23.599 6.80499 23.548 6.80099 23.495L6.79498 23.412C6.79098 23.357 6.72798 23.328 6.68398 23.36L6.587 23.429Z" fill="#FF4800"/>
<path d="M0.154999 19.721L0.165985 20.053L0.557983 20.287V19.989L0.154999 19.721Z" fill="#FFB639"/>
<path d="M5.849 23.759L5.85699 24.039C5.85899 24.101 5.896 24.157 5.952 24.183L6.25699 24.323C6.32999 24.357 6.41299 24.304 6.41599 24.225C6.41599 24.223 6.41599 24.22 6.41599 24.217L6.40799 23.937C6.40599 23.875 6.36899 23.819 6.31299 23.793L6.01999 23.658L6.008 23.653C5.933 23.618 5.847 23.675 5.849 23.759Z" fill="#8595AD"/>
<path d="M5.20599 23.46L5.21399 23.74C5.21599 23.802 5.25299 23.857 5.30899 23.883L5.61398 24.023C5.68698 24.057 5.77098 24.004 5.77298 23.925C5.77298 23.923 5.77298 23.92 5.77298 23.918L5.76498 23.638C5.76298 23.576 5.72598 23.52 5.66998 23.494L5.37698 23.359L5.36499 23.354C5.28999 23.32 5.20399 23.377 5.20599 23.46Z" fill="#8595AD"/>
<path d="M0.906982 20.957V21.212C0.906982 21.266 0.93299 21.316 0.97699 21.346L1.242 21.528C1.316 21.579 1.416 21.527 1.418 21.439V21.436V21.181C1.418 21.127 1.39198 21.077 1.34698 21.046L1.08298 20.864C1.08098 20.863 1.079 20.862 1.078 20.86C1.004 20.815 0.906982 20.868 0.906982 20.957Z" fill="#8595AD"/>
<path d="M0.321991 20.55V20.805C0.321991 20.858 0.348005 20.909 0.393005 20.939L0.656982 21.121C0.730982 21.172 0.830977 21.12 0.832977 21.032V21.029V20.774C0.832977 20.721 0.806993 20.67 0.761993 20.64L0.497986 20.458C0.495986 20.457 0.493981 20.456 0.492981 20.454C0.417981 20.409 0.321991 20.462 0.321991 20.55Z" fill="#8595AD"/>
<path d="M6.01999 23.666L6.02798 23.946C6.02998 24.008 6.06699 24.064 6.12299 24.09L6.41599 24.225C6.41599 24.223 6.41599 24.22 6.41599 24.217L6.40799 23.937C6.40599 23.875 6.36899 23.819 6.31299 23.793L6.01999 23.658C6.01999 23.66 6.01999 23.663 6.01999 23.666Z" fill="#E0E4EA"/>
<path d="M5.37698 23.367L5.38498 23.647C5.38698 23.709 5.42398 23.764 5.47998 23.79L5.77298 23.925C5.77298 23.923 5.77298 23.92 5.77298 23.918L5.76498 23.638C5.76298 23.576 5.72598 23.52 5.66998 23.494L5.37698 23.359C5.37698 23.362 5.37698 23.365 5.37698 23.367Z" fill="#E0E4EA"/>
<path d="M1.078 20.864V21.119C1.078 21.173 1.10399 21.223 1.14899 21.254L1.41299 21.436C1.41499 21.437 1.417 21.438 1.418 21.44V21.437V21.182C1.418 21.128 1.39198 21.078 1.34698 21.047L1.08298 20.865C1.08098 20.864 1.079 20.863 1.078 20.861V20.864Z" fill="#E0E4EA"/>
<path d="M0.492004 20.457V20.712C0.492004 20.766 0.517988 20.816 0.562988 20.846L0.826996 21.028C0.828996 21.029 0.831001 21.03 0.832001 21.032V21.029V20.774C0.832001 20.721 0.805986 20.67 0.760986 20.64L0.496979 20.458C0.494979 20.457 0.493004 20.456 0.492004 20.454V20.457Z" fill="#E0E4EA"/>
<path d="M6.64499 25.189L3.67398 23.636C2.90398 23.233 2.157 22.788 1.436 22.302L0.00100708 21.334L0 21.884L2.745 23.721L6.52399 25.692L6.64499 25.189Z" fill="#D7D2C8"/>
<path d="M2.86099 23.298C1.92499 22.762 0.00100708 21.439 0.00100708 21.439V21.334L1.436 22.302C2.156 22.788 2.90398 23.234 3.67398 23.636L6.64499 25.189L6.52399 25.691L6.569 25.241C6.569 25.241 3.79599 23.834 2.86099 23.298Z" fill="#F7F6F5"/>
<path d="M6.52399 25.691L6.677 25.833L3.642 24.271C3.064 23.974 2.50598 23.641 1.97098 23.273L0.152985 22.025L0 21.883L2.745 23.72L6.52399 25.691Z" fill="#6E7275"/>
<path d="M0.197998 20.815L0.279999 20.858V20.287L0.17099 20.179L0.197998 20.815Z" fill="#AAB5C6"/>
<path d="M5.099 23.142V23.475L3.883 22.889C3.266 22.592 2.67899 22.238 2.12799 21.832L1.50699 21.375L1.487 21.033L2.09 21.483C2.686 21.927 3.32499 22.31 3.99799 22.626L5.099 23.142Z" fill="#655E57"/>
<path d="M3.58798 22.456L3.586 22.665L2.91599 22.278L2.91699 22.076L3.58798 22.456Z" fill="#DCDB48"/>
<path d="M5.11899 23.641V23.764L3.90298 23.178C3.28598 22.881 2.69898 22.527 2.14798 22.121L1.52698 21.663L1.50699 21.531L2.11099 21.981C2.70699 22.425 3.34601 22.808 4.01801 23.123L5.11899 23.641Z" fill="#A5A9B2"/>
<path d="M8.427 24.922L8.63699 24.801L8.64499 24.667L8.67999 24.061C8.69899 23.903 8.79 23.667 8.871 23.486C8.882 23.462 8.89298 23.438 8.90298 23.416L9.03101 23.145C9.19901 22.791 9.462 22.487 9.742 22.325L10.326 21.988C10.366 21.964 10.408 21.944 10.451 21.925L10.453 21.924L10.614 21.843L11.356 21.473L12.03 21.137V20.69L10.615 21.503H10.614C10.614 21.503 10.004 21.856 9.38 22.47C8.741 23.1 8.52798 24.272 8.52798 24.272L8.427 24.922Z" fill="#84878A"/>
<path d="M1.711 15.682L2.608 16.378C3.6 17.048 4.66 17.631 5.758 18.109L7.41998 18.783L7.54401 18.171L6.83798 17.893C5.58598 17.399 4.40399 16.764 3.30899 15.997C2.93999 15.739 2.581 15.466 2.233 15.178C2.156 15.115 2.08 15.051 2.004 14.986L1.711 15.682Z" fill="#322920"/>
<path d="M6.538 23.833L6.602 23.859L6.72999 23.79C6.76299 23.772 6.80401 23.795 6.80701 23.832C6.81901 24.005 6.845 24.402 6.826 24.435C6.801 24.477 6.63599 24.564 6.63099 24.561C6.62599 24.558 6.495 24.52 6.495 24.46C6.495 24.413 6.47798 24.044 6.47098 23.881C6.46798 23.845 6.504 23.819 6.538 23.833Z" fill="#AAB5C6"/>
<path d="M11.292 16.033L7.64899 18.114L7.86499 17.728L11.128 15.844L11.292 16.033Z" fill="#F7F6F5"/>
<path d="M11.155 16.802L11.324 18.439C11.326 18.504 11.292 18.565 11.237 18.598L10.939 18.772C10.867 18.814 10.781 18.767 10.773 18.684C10.773 18.681 10.772 18.679 10.772 18.676L10.603 17.039C10.601 16.974 10.635 16.913 10.69 16.88L10.976 16.712L10.987 16.706C11.062 16.663 11.152 16.715 11.155 16.802Z" fill="#322920"/>
<path d="M10.883 18.727C10.892 18.727 10.9 18.725 10.909 18.72L11.206 18.546C11.241 18.525 11.263 18.485 11.263 18.443L11.094 16.806V16.804C11.093 16.77 11.068 16.751 11.044 16.751C11.035 16.751 11.026 16.754 11.018 16.758L11.006 16.765L10.72 16.932C10.685 16.953 10.663 16.993 10.663 17.035L10.832 18.67V18.675L10.833 18.678V18.679C10.837 18.71 10.861 18.727 10.883 18.727Z" fill="#4D5258"/>
<path d="M11.128 15.844L11.221 16.074L11.292 16.282L11.644 20.014L11.657 20.443L11.906 20.745V21.2L12.032 21.137V20.69L11.763 20.385V19.936L11.386 16.232L11.292 16.033L11.128 15.844Z" fill="#C1C9D5"/>
<path d="M21.249 0L6.40799 8.849L12.353 12.26L27.681 3.71402L12.353 12.563L5.92099 8.849L21.249 0Z" fill="#F7F6F5"/>
<path d="M0.557983 18.418L1.72598 19.206C2.71798 19.876 3.77801 20.459 4.87601 20.937L6.814 21.782L6.95999 21.06L3.46698 19.397L1.50598 18.114L0.557983 18.418Z" fill="#737F82"/>
<path d="M3.892 17.335L3.79401 17.435L3.53 17.303L3.40601 17.293L3.33099 17.465L3.35498 17.579L3.689 17.827L4.28799 18.114L4.379 18.086L4.44901 17.878L4.36499 17.752L4.00998 17.558L4.10699 17.462L3.98999 17.355L3.892 17.335Z" fill="#737F82"/>
<path d="M8.43698 19.251L8.63599 19.271C8.79799 19.304 8.92999 19.506 8.92999 19.722V20.979C8.92999 21.196 8.79799 21.345 8.63599 21.312L8.36398 21.265C8.20098 21.232 8.14301 21.057 8.14301 20.841V19.584C8.14301 19.367 8.27498 19.218 8.43698 19.251Z" fill="#484038"/>
<path d="M8.55298 21.546L7.298 21.041L7.35999 20.934L8.42999 21.332V19.113L7.69699 18.743L7.75299 18.633L8.55298 19.037V21.546Z" fill="#3E362E"/>
<defs>
<linearGradient id="paint0_linear_206_4266" x1="32.6228" y1="18.5216" x2="0.432584" y2="18.5216" gradientUnits="userSpaceOnUse">
<stop offset="0.112" stop-color="#AEACBA"/>
<stop offset="0.987" stop-color="#7B738C"/>
</linearGradient>
</defs>
</svg>
