<svg width="1005" height="421" viewBox="0 0 1005 421" fill="none" xmlns="http://www.w3.org/2000/svg">
<g clip-path="url(#clip0_113_42)">
<path d="M757.098 180.944V102.6C757.098 94.7884 763.453 88.4336 771.264 88.4336H822.516C830.327 88.4336 836.682 94.7883 836.682 102.6V180.944C836.682 188.755 830.327 195.11 822.516 195.11H771.264C763.453 195.11 757.098 188.755 757.098 180.944Z" fill="#E1BF67"/>
<path d="M783.344 122.299H810.437V115.526H783.344V122.299Z" fill="#3F3D56"/>
<path d="M790.117 110.446H803.663V88.4337H790.117V110.446Z" fill="#3F3D56"/>
<path d="M790.117 195.11H803.663V173.097H790.117V195.11Z" fill="#3F3D56"/>
<path d="M720.692 184.11H642.348C634.537 184.11 628.182 177.755 628.182 169.944V118.692C628.182 110.881 634.537 104.526 642.348 104.526H720.692C728.504 104.526 734.859 110.881 734.859 118.692V169.944C734.859 177.755 728.504 184.11 720.692 184.11Z" fill="#E1BF67"/>
<path d="M696.76 115.532H669.667V122.305H696.76V115.532Z" fill="#3F3D56"/>
<path d="M650.195 151.091V137.545H628.182V151.091H650.195Z" fill="#3F3D56"/>
<path d="M734.859 151.091V137.545H712.846V151.091H734.859Z" fill="#3F3D56"/>
<path d="M85.182 330.61L72.1033 254.317C66.2917 220.416 91.383 189.046 125.732 187.267L312.182 177.61L356.68 104.27C362.58 94.5473 373.127 88.6099 384.499 88.6099H518.469C528.999 88.6099 537.897 96.419 539.263 106.861L542.666 165.544L876.666 166.544L918.682 305.011L879.682 303.11L881.682 345.11L830.682 347.11L813.681 299.038C810.48 289.986 796.452 279.779 781.871 271.24C749.184 252.097 707.189 258.241 682.452 286.93C676.617 293.697 672.537 300.749 671.397 307.361L663.682 352.11L289.682 346.11L240.666 277.544C226.184 261.785 157.822 255.996 151.666 277.544L114.682 332.11L85.182 330.61Z" fill="#E6E6E6"/>
<path d="M491.678 133.236L502.682 185.11L362.682 188.11L392.25 124.625C394.933 118.866 400.821 115.29 407.168 115.566L474.255 118.483C482.748 118.852 489.915 124.921 491.678 133.236Z" fill="white"/>
<path d="M343.682 184.11L371.682 112.11L364.351 104.779L318.682 174.11L327.962 188.11L343.682 184.11Z" fill="white"/>
<path d="M744.682 418.11C781.133 418.11 810.682 388.561 810.682 352.11C810.682 315.659 781.133 286.11 744.682 286.11C708.231 286.11 678.682 315.659 678.682 352.11C678.682 388.561 708.231 418.11 744.682 418.11Z" fill="#3F3D56"/>
<path d="M699.182 352.11C699.182 327.021 719.593 306.61 744.682 306.61C769.771 306.61 790.182 327.021 790.182 352.11C790.182 377.199 769.771 397.61 744.682 397.61C719.593 397.61 699.182 377.199 699.182 352.11ZM700.182 352.11C700.182 376.647 720.145 396.61 744.682 396.61C769.22 396.61 789.182 376.647 789.182 352.11C789.182 327.573 769.22 307.61 744.682 307.61C720.145 307.61 700.182 327.573 700.182 352.11Z" fill="white"/>
<path d="M705.682 352.11C705.682 373.649 723.143 391.11 744.682 391.11C766.221 391.11 783.682 373.649 783.682 352.11C783.682 330.571 766.221 313.11 744.682 313.11C723.143 313.11 705.682 330.571 705.682 352.11ZM770.033 342.771L763.123 347.274L760.469 343.201L770.033 342.771ZM759.514 365.675L761.354 361.175L767.148 368.797L759.514 365.675ZM741.82 381.11L746.682 372.862V381.11H741.82ZM741.82 333.358L746.682 325.11V333.358H741.82ZM720.216 368.797L726.01 361.175L727.851 365.675L720.216 368.797ZM717.331 342.771L726.896 343.201L724.241 347.274L717.331 342.771Z" fill="#E6E6E6"/>
<path d="M190.682 418.11C227.133 418.11 256.682 388.561 256.682 352.11C256.682 315.659 227.133 286.11 190.682 286.11C154.231 286.11 124.682 315.659 124.682 352.11C124.682 388.561 154.231 418.11 190.682 418.11Z" fill="#3F3D56"/>
<path d="M145.182 352.11C145.182 327.021 165.593 306.61 190.682 306.61C215.771 306.61 236.182 327.021 236.182 352.11C236.182 377.199 215.771 397.61 190.682 397.61C165.593 397.61 145.182 377.199 145.182 352.11ZM146.182 352.11C146.182 376.647 166.144 396.61 190.682 396.61C215.22 396.61 235.182 376.647 235.182 352.11C235.182 327.573 215.22 307.61 190.682 307.61C166.144 307.61 146.182 327.573 146.182 352.11Z" fill="white"/>
<path d="M151.682 352.11C151.682 373.649 169.143 391.11 190.682 391.11C212.221 391.11 229.682 373.649 229.682 352.11C229.682 330.571 212.221 313.11 190.682 313.11C169.143 313.11 151.682 330.571 151.682 352.11ZM216.033 342.771L209.123 347.274L206.469 343.201L216.033 342.771ZM205.514 365.675L207.354 361.175L213.148 368.797L205.514 365.675ZM187.82 381.11L192.682 372.862V381.11H187.82ZM187.82 333.358L192.682 325.11V333.358H187.82ZM166.216 368.797L172.01 361.175L173.85 365.675L166.216 368.797ZM163.331 342.771L172.896 343.201L170.241 347.274L163.331 342.771Z" fill="#E6E6E6"/>
<path d="M466.182 211.61H504.182V203.61H466.182V211.61Z" fill="#3F3D56"/>
<path d="M1001.79 368.655C1001.43 367.571 998.749 368.048 998.491 367.078C998.235 366.113 1000.81 365.303 1002.79 362.58C1003.14 362.09 1005.39 358.996 1004.53 357.695C1002.89 355.229 991.538 361.371 988.812 357.924C988.214 357.168 987.968 355.869 986.186 353.452C985.477 352.491 985.022 352.027 984.479 352.04C983.708 352.06 983.432 353.025 982.22 354.772C980.402 357.393 979.746 357.064 978.549 359.211C977.66 360.805 977.555 361.823 976.914 361.883C976.007 361.968 975.632 359.984 974.523 359.907C973.392 359.828 972.261 361.789 971.7 363.321C970.647 366.197 971.299 368.394 971.443 370.584C971.6 372.964 971.232 376.448 968.646 380.92L944.254 419.782C949.492 411.859 964.362 390.256 970.353 382.332C972.082 380.044 973.941 377.747 976.801 377.315C979.556 376.899 982.907 378.262 987.584 378.182C988.13 378.173 989.65 378.128 990.02 377.322C990.326 376.656 989.567 376.077 989.843 375.451C990.213 374.611 991.88 374.971 994.151 374.413C995.752 374.02 996.84 373.37 997.776 372.811C998.058 372.643 1002.26 370.097 1001.79 368.655Z" fill="#F2F2F2"/>
<path d="M937.902 377.728C937.268 377.589 936.727 379.044 936.177 378.891C935.629 378.738 935.975 377.24 935.209 375.485C935.07 375.169 934.2 373.174 933.313 373.222C931.632 373.311 931.37 380.657 928.891 381C928.348 381.076 927.639 380.822 925.939 380.999C925.262 381.07 924.903 381.159 924.753 381.43C924.54 381.814 924.934 382.227 925.442 383.326C926.204 384.975 925.853 385.202 926.561 386.409C927.087 387.305 927.557 387.651 927.401 387.983C927.181 388.452 926.099 388.064 925.742 388.585C925.377 389.118 926.013 390.239 926.603 390.957C927.71 392.303 928.977 392.617 930.093 393.178C931.307 393.788 932.91 394.974 934.359 397.533L946.395 420.718C944.018 415.861 937.705 402.329 935.545 397.103C934.921 395.594 934.33 394.019 934.943 392.49C935.533 391.018 937.169 389.767 938.48 387.448C938.633 387.178 939.049 386.418 938.76 386.004C938.522 385.662 938.018 385.868 937.791 385.551C937.485 385.127 938.143 384.413 938.525 383.138C938.794 382.238 938.788 381.517 938.784 380.896C938.783 380.709 938.746 377.913 937.902 377.728Z" fill="#F2F2F2"/>
<path d="M949.909 383.385L950.288 379.892L950.52 379.672C951.593 378.658 952.265 377.583 952.517 376.477C952.557 376.301 952.588 376.123 952.62 375.942C952.745 375.224 952.901 374.331 953.592 373.403C953.978 372.887 955 371.719 956.054 372.127C956.339 372.234 956.531 372.418 956.664 372.614C956.698 372.58 956.732 372.546 956.769 372.509C957.224 372.067 957.543 371.905 957.85 371.748C958.086 371.628 958.329 371.505 958.741 371.175C958.922 371.031 959.067 370.901 959.189 370.791C959.559 370.461 960.032 370.074 960.68 370.227C961.367 370.415 961.602 371.071 961.759 371.504C962.038 372.278 962.124 372.811 962.181 373.163C962.201 373.292 962.225 373.438 962.243 373.485C962.393 373.864 964.281 373.962 964.991 374.003C966.588 374.089 967.969 374.164 968.302 375.258C968.54 376.04 968.043 376.893 966.782 377.86C966.389 378.161 965.997 378.369 965.655 378.524C965.865 378.723 966.033 378.994 966.043 379.362C966.066 380.235 965.171 380.904 963.384 381.355C962.94 381.468 962.343 381.619 961.561 381.581C961.193 381.562 960.87 381.506 960.595 381.453C960.554 381.61 960.479 381.773 960.343 381.927C959.946 382.383 959.303 382.499 958.431 382.242C957.468 381.974 956.708 381.609 956.036 381.288C955.45 381.009 954.945 380.77 954.52 380.705C953.731 380.594 952.996 381.082 952.115 381.73L949.909 383.385Z" fill="#F2F2F2"/>
<path d="M956.206 363.49L952.731 364.01L952.46 363.841C951.206 363.06 949.996 362.683 948.862 362.72C948.682 362.726 948.502 362.741 948.318 362.756C947.592 362.817 946.689 362.892 945.617 362.46C945.019 362.217 943.63 361.524 943.757 360.401C943.788 360.099 943.918 359.866 944.073 359.688C944.032 359.664 943.991 359.639 943.946 359.613C943.402 359.285 943.165 359.018 942.936 358.761C942.76 358.563 942.578 358.359 942.155 358.044C941.969 357.906 941.807 357.799 941.67 357.708C941.257 357.434 940.763 357.075 940.747 356.409C940.754 355.697 941.328 355.303 941.708 355.041C942.386 354.575 942.879 354.357 943.206 354.213C943.326 354.16 943.46 354.1 943.501 354.071C943.829 353.829 943.446 351.978 943.305 351.281C942.984 349.715 942.706 348.359 943.679 347.761C944.375 347.332 945.326 347.596 946.582 348.57C946.973 348.874 947.274 349.201 947.51 349.492C947.649 349.238 947.869 349.007 948.222 348.904C949.06 348.661 949.935 349.356 950.824 350.971C951.047 351.371 951.344 351.911 951.505 352.677C951.581 353.038 951.608 353.364 951.627 353.644C951.789 353.643 951.965 353.675 952.149 353.767C952.691 354.036 952.966 354.628 952.939 355.537C952.923 356.536 952.763 357.364 952.623 358.095C952.502 358.733 952.399 359.283 952.444 359.709C952.537 360.501 953.195 361.089 954.045 361.776L956.206 363.49Z" fill="#F2F2F2"/>
<path d="M956.674 353.056L957.052 349.563L957.284 349.343C958.358 348.329 959.029 347.254 959.281 346.148C959.321 345.972 959.352 345.794 959.384 345.613C959.51 344.894 959.666 344.002 960.356 343.074C960.743 342.558 961.765 341.39 962.819 341.798C963.104 341.905 963.296 342.089 963.429 342.285C963.463 342.251 963.497 342.217 963.534 342.18C963.989 341.738 964.308 341.575 964.614 341.419C964.85 341.299 965.094 341.176 965.506 340.846C965.687 340.702 965.831 340.571 965.953 340.462C966.323 340.132 966.796 339.745 967.444 339.898C968.131 340.086 968.367 340.741 968.523 341.175C968.802 341.949 968.888 342.481 968.945 342.834C968.966 342.963 968.989 343.108 969.007 343.156C969.158 343.535 971.046 343.633 971.756 343.674C973.352 343.76 974.734 343.835 975.066 344.928C975.305 345.711 974.808 346.564 973.547 347.531C973.154 347.832 972.761 348.04 972.419 348.195C972.63 348.394 972.797 348.665 972.808 349.033C972.831 349.905 971.936 350.575 970.149 351.026C969.705 351.139 969.107 351.289 968.325 351.252C967.957 351.233 967.635 351.177 967.36 351.124C967.319 351.281 967.244 351.444 967.108 351.598C966.71 352.054 966.068 352.17 965.196 351.913C964.233 351.645 963.472 351.28 962.801 350.959C962.215 350.68 961.709 350.441 961.285 350.376C960.496 350.265 959.76 350.752 958.88 351.401L956.674 353.056Z" fill="#F2F2F2"/>
<path d="M945.407 419.981L944.793 419.374L943.939 419.283C943.943 419.203 943.937 419.015 943.931 418.722C943.898 417.115 943.796 412.225 944.477 404.711C944.953 399.466 945.747 394.142 946.839 388.884C947.932 383.617 949.067 379.699 949.978 376.55C950.666 374.174 951.361 371.921 952.038 369.727C953.847 363.863 955.555 358.325 956.612 352.007C956.849 350.597 957.341 347.661 956.334 344.197C955.75 342.187 954.751 340.295 953.362 338.576L954.706 337.491C956.239 339.391 957.344 341.485 957.992 343.717C959.108 347.558 958.573 350.757 958.315 352.294C957.239 358.723 955.514 364.315 953.688 370.234C953.013 372.421 952.321 374.664 951.637 377.03C950.733 380.15 949.609 384.034 948.53 389.233C947.45 394.428 946.666 399.687 946.196 404.866C945.524 412.286 945.625 417.103 945.658 418.686C945.675 419.531 945.679 419.708 945.407 419.981Z" fill="#F2F2F2"/>
<path d="M949.675 340.564C949.606 340.549 949.536 340.532 949.467 340.511C948.049 340.113 946.912 338.958 946.086 337.078C945.699 336.193 945.608 335.263 945.426 333.407C945.397 333.121 945.271 331.673 945.426 329.754C945.527 328.5 945.662 327.996 946.003 327.601C946.382 327.16 946.893 326.908 947.432 326.781C947.447 326.615 947.501 326.453 947.609 326.299C948.053 325.66 948.796 325.923 949.199 326.059C949.402 326.132 949.655 326.225 949.94 326.273C950.387 326.35 950.654 326.271 951.059 326.154C951.446 326.042 951.927 325.902 952.592 325.914C953.904 325.932 954.875 326.522 955.196 326.716C956.883 327.73 957.465 329.347 958.139 331.219C958.273 331.595 958.717 332.951 958.821 334.698C958.896 335.958 958.73 336.474 958.541 336.843C958.154 337.602 957.562 337.953 956.092 338.693C954.556 339.468 953.786 339.856 953.154 340.055C951.684 340.516 950.761 340.806 949.675 340.564Z" fill="#F2F2F2"/>
<path d="M0 418.481C0 419.141 0.92528 419.671 2.07751 419.671H993.848C995 419.671 995.926 419.141 995.926 418.481C995.926 417.821 995 417.291 993.848 417.291H2.07751C0.92528 417.291 0 417.821 0 418.481Z" fill="#CCCCCC"/>
<path d="M273.94 410.967L287.825 410.965L294.43 357.41L273.938 357.411L273.94 410.967Z" fill="#FFB6B6"/>
<path d="M321.511 410.652C321.943 411.38 322.171 413.73 322.171 414.576C322.171 417.179 320.061 419.289 317.459 419.289L274.46 419.289C272.684 419.289 271.245 417.85 271.245 416.074V414.284C271.245 414.284 269.118 408.903 273.497 402.272C273.497 402.272 278.94 407.464 287.073 399.331L289.472 394.986L306.833 407.683L316.456 408.868C318.561 409.127 320.428 408.828 321.511 410.652Z" fill="#0A2342"/>
<path d="M211.558 410.967L225.442 410.965L232.047 357.41L211.555 357.411L211.558 410.967Z" fill="#FFB6B6"/>
<path d="M259.128 410.652C259.561 411.38 259.789 413.73 259.789 414.576C259.789 417.179 257.679 419.289 255.076 419.289L212.077 419.289C210.302 419.289 208.862 417.85 208.862 416.074V414.284C208.862 414.284 206.735 408.903 211.114 402.272C211.114 402.272 216.557 407.464 224.691 399.331L227.089 394.986L244.45 407.683L254.073 408.868C256.179 409.127 258.045 408.828 259.128 410.652Z" fill="#0A2342"/>
<path d="M271.741 45.2756L274.377 69.8772L243.625 67.2413L248.897 44.397L271.741 45.2756Z" fill="#FFB6B6"/>
<path opacity="0.1" d="M271.741 45.2756L274.377 69.8772L243.625 67.2413L248.897 44.397L271.741 45.2756Z" fill="black"/>
<path d="M260.758 48.351C271.919 48.351 280.967 39.3033 280.967 28.1425C280.967 16.9817 271.919 7.93408 260.758 7.93408C249.598 7.93408 240.55 16.9817 240.55 28.1425C240.55 39.3033 249.598 48.351 260.758 48.351Z" fill="#FFB6B6"/>
<path d="M273.938 59.7729L307.765 79.542L296.682 133.138L304.251 205.186L298.979 381.79L266.47 378.276L262.077 228.03L236.596 383.547H205.028L210.237 215.729L226.053 144.56L216.388 67.2412L245.822 58.0156L273.938 59.7729Z" fill="#0A2342"/>
<path d="M275.256 33.8534C275.256 33.8534 277.013 27.703 280.967 28.1423C284.921 28.5816 285.799 25.0671 284.921 23.3098C284.042 21.5526 282.285 12.7663 282.285 12.7663C282.285 12.7663 283.164 6.6159 277.892 5.73728C272.62 4.85865 270.863 3.98002 269.984 2.22277C269.106 0.465513 255.926 -1.29174 251.533 1.34414C247.14 3.98002 243.625 9.03732 240.55 10.4625C237.475 11.8877 234.839 14.5236 236.596 18.9167C238.354 23.3098 240.902 31.9019 240.902 31.9019C240.902 31.9019 245.383 30.3389 246.261 32.9748C247.14 35.6106 243.625 32.0961 248.018 25.0671C252.412 18.0381 252.412 11.0091 259.441 13.6449C266.47 16.2808 274.377 15.4022 273.499 20.674C272.62 25.9457 275.256 33.8534 275.256 33.8534Z" fill="#0A2342"/>
<path d="M290.321 189.425C286.092 193.902 284.974 199.714 287.825 202.405C290.675 205.096 296.413 203.647 300.643 199.167C302.357 197.401 303.624 195.249 304.336 192.893L322.015 173.694L312.829 165.589L296.375 185.377C294.063 186.223 291.987 187.611 290.321 189.425Z" fill="#FFB6B6"/>
<path d="M307.409 79.1025L337.182 129.826L341.592 152.982L312.923 189.37L300.793 173.933L315.128 152.982L291.972 112.183L307.409 79.1025Z" fill="#0A2342"/>
<path d="M223.701 184.701V124.896C223.701 115.781 231.117 108.365 240.232 108.365H331.651C340.767 108.365 348.182 115.781 348.182 124.896V184.701C348.182 193.817 340.767 201.232 331.651 201.232H240.232C231.117 201.232 223.701 193.817 223.701 184.701Z" fill="#E1BF67"/>
<path d="M268.159 146.112H299.773V138.208H268.159V146.112Z" fill="#3F3D56"/>
<path d="M297.182 200.702V184.895H271.496V200.702H297.182Z" fill="#3F3D56"/>
<path d="M298.388 124.702V108.895H272.701V124.702H298.388Z" fill="#3F3D56"/>
<path d="M232.953 178.002C237.182 182.48 238.3 188.292 235.45 190.983C232.599 193.674 226.861 192.225 222.631 187.745C220.917 185.978 219.651 183.827 218.938 181.471L201.259 162.271L210.446 154.167L226.899 173.955C229.211 174.801 231.287 176.189 232.953 178.002Z" fill="#FFB6B6"/>
<path d="M215.865 67.6807L186.093 118.404L181.682 141.56L210.352 177.948L222.481 162.511L208.146 141.56L231.303 100.761L215.865 67.6807Z" fill="#0A2342"/>
<path d="M75.6657 309.544C90.5773 309.544 102.666 299.023 102.666 286.044C102.666 273.065 90.5773 262.544 75.6657 262.544C60.754 262.544 48.6656 273.065 48.6656 286.044C48.6656 299.023 60.754 309.544 75.6657 309.544Z" fill="#E6E6E6"/>
<path fill-rule="evenodd" clip-rule="evenodd" d="M471.62 308.428C466.906 313.776 461.221 318.249 454.843 321.572C440.494 329.046 422.42 330.066 407.33 324.299C400.35 321.63 394.015 317.652 388.629 312.667C377.053 301.95 370 285.793 370 270.055C370 237.993 395.992 212 428.056 212C460.119 212 486.112 237.993 486.112 270.055C486.112 275.072 485.474 279.942 484.277 284.584C482.221 292.565 476.982 302.347 471.62 308.428Z" fill="#92D669"/>
<path fill-rule="evenodd" clip-rule="evenodd" d="M485.798 273.521C485.677 273.524 485.566 273.101 485.541 273.006C485.527 272.954 485.483 272.78 485.472 272.44C485.459 272.065 485.503 271.995 485.489 271.771C485.466 271.416 485.331 271.181 485.266 271.033C484.974 270.372 485.374 269.837 485.403 268.819C485.436 267.655 484.96 266.695 484.888 266.708C484.852 266.715 484.897 266.975 484.923 267.618C484.937 267.963 484.931 268.062 484.923 269.128C484.911 270.758 484.929 269.877 484.923 270.93C484.918 271.569 484.912 271.81 484.991 272.183C485.106 272.722 485.219 272.679 485.317 273.126C485.404 273.52 485.341 273.66 485.197 275.237C485.164 275.605 485.147 275.791 485.146 275.889C485.136 276.663 485.317 276.84 485.232 277.331C485.145 277.834 484.943 277.719 484.871 278.223C484.811 278.644 484.94 278.806 484.871 279.51C484.86 279.62 484.85 279.691 484.871 279.699C484.941 279.724 485.253 279.043 485.509 278.447C485.778 276.59 485.958 274.706 486.047 272.798C485.968 273.211 485.9 273.519 485.798 273.521ZM483.996 259.243C483.867 259.253 483.77 259.978 483.842 260.651C483.937 261.544 484.334 262.383 484.476 262.35C484.638 262.312 484.492 261.164 484.408 260.651C484.386 260.518 484.17 259.23 483.996 259.243ZM463.472 233.657C463.246 233.753 462.904 233.685 462.785 233.485C462.596 233.166 463.164 232.818 463.094 232.25C463.009 231.554 462.058 231.286 462.168 230.911C462.219 230.736 462.469 230.643 462.648 230.637C463.214 230.617 463.722 231.45 463.849 232.147C463.938 232.633 463.917 233.468 463.472 233.657ZM452.961 238.17C452.938 238.344 452.609 238.418 452.511 238.441C452.212 238.508 452.029 238.444 451.365 238.312C450.777 238.195 450.618 238.185 450.451 238.273C450.412 238.294 450.197 238.407 450.13 238.633C449.997 239.076 450.559 239.506 450.426 239.676C450.35 239.771 450.124 239.699 450.091 239.689C449.676 239.557 449.595 238.997 449.589 238.955C449.582 238.905 449.556 238.677 449.666 238.415C449.696 238.344 449.824 238.039 450.091 237.913C450.364 237.784 450.517 237.967 451.314 238.132C451.88 238.248 452.168 238.303 452.407 238.144C452.553 238.048 452.648 237.897 452.781 237.926C452.884 237.948 452.974 238.07 452.961 238.17ZM440.425 238.621C440.379 238.624 440.259 238.63 439.962 238.544C439.666 238.458 439.518 238.415 439.511 238.338C439.504 238.25 439.679 238.152 439.82 238.119C440.021 238.071 440.189 238.144 440.399 238.235C440.55 238.299 440.786 238.402 440.773 238.492C440.758 238.594 440.44 238.619 440.425 238.621ZM440.515 240.217C440.488 240.356 440.318 240.452 440.18 240.461C439.979 240.474 439.784 240.301 439.769 240.139C439.753 239.976 439.932 239.938 439.936 239.766C439.942 239.512 439.557 239.416 439.576 239.174C439.586 239.046 439.705 238.927 439.769 238.942C439.833 238.958 439.827 239.107 439.859 239.251C439.98 239.801 440.571 239.934 440.515 240.217ZM439.112 240.217C439.05 240.256 438.952 240.261 438.881 240.217C438.749 240.135 438.807 239.948 438.752 239.47C438.715 239.15 438.672 239.089 438.726 238.968C438.83 238.737 439.134 238.635 439.176 238.685C439.223 238.739 438.922 238.929 438.945 239.213C438.961 239.412 439.118 239.427 439.189 239.702C439.23 239.858 439.251 240.129 439.112 240.217ZM437.813 247.141C437.751 247.288 437.479 247.344 436.937 247.45C436.091 247.616 435.811 247.542 435.689 247.501C435.629 247.482 435.45 247.419 435.251 247.283C434.955 247.079 434.962 246.95 434.775 246.806C434.295 246.438 433.66 246.844 433.372 246.485C433.323 246.423 433.25 246.297 433.205 246.15C433.165 246.022 433.17 245.955 433.153 245.802C433.101 245.318 432.966 245.186 433.063 245.056C433.14 244.953 433.254 244.996 433.321 244.876C433.364 244.798 433.339 244.739 433.321 244.554C433.307 244.42 433.306 244.312 433.307 244.23C433.27 244.225 433.242 244.214 433.23 244.193C433.2 244.142 433.268 244.035 433.295 244.039C433.315 244.043 433.308 244.108 433.307 244.23C433.533 244.259 434.146 244.033 434.131 243.923C434.122 243.848 433.822 243.896 433.398 243.679C433.226 243.591 433.127 243.507 433.089 243.473C432.923 243.325 432.864 243.197 432.78 243.074C432.625 242.847 432.562 242.899 432.085 242.495C431.807 242.259 431.893 242.296 431.467 241.915C431.344 241.806 431.214 241.692 431.068 241.504C430.968 241.374 430.918 241.309 430.888 241.234C430.746 240.875 430.995 240.562 430.862 240.448C430.79 240.386 430.711 240.478 430.541 240.436C430.309 240.378 430.101 240.121 430.116 239.895C430.123 239.782 430.179 239.786 430.335 239.496C430.485 239.216 430.459 239.164 430.567 239.058C430.652 238.974 430.752 238.933 430.952 238.852C431.19 238.756 431.228 238.781 431.377 238.698C431.509 238.624 431.473 238.609 431.686 238.453C431.952 238.26 432.009 238.284 432.124 238.144C432.183 238.073 432.207 238.018 432.291 237.965C432.387 237.903 432.482 237.892 432.536 237.887C433.133 237.83 433.63 237.9 433.63 237.9C433.804 237.925 433.891 237.937 433.977 237.965C434.13 238.013 434.478 238.124 434.595 238.402C434.678 238.599 434.56 238.682 434.659 238.878C434.734 239.025 434.884 239.144 435.045 239.187C435.305 239.256 435.435 239.088 435.586 239.174C435.768 239.278 435.82 239.66 435.689 239.766C435.543 239.885 435.168 239.661 434.891 239.496C434.42 239.215 434.255 238.968 434.041 239.033C433.963 239.057 433.979 239.092 433.784 239.277C433.505 239.543 433.401 239.538 433.256 239.715C433.204 239.779 433.015 240.009 433.037 240.242C433.065 240.534 433.399 240.594 434.016 241.04C434.652 241.501 435.033 241.777 435.11 242.199C435.127 242.296 435.146 242.492 435.29 242.675C435.409 242.827 435.602 242.952 435.663 242.907C435.696 242.882 435.675 242.819 435.663 242.714C435.642 242.529 435.645 242.179 435.779 242.109C435.908 242.04 436.143 242.241 436.229 242.315C436.474 242.523 436.429 242.647 436.641 242.778C436.821 242.889 436.917 242.84 437.027 242.971C437.12 243.082 437.17 243.257 437.105 243.331C437.064 243.378 436.99 243.373 436.937 243.37C436.518 243.347 436.277 243.334 436.088 243.409C436.065 243.418 435.876 243.496 435.766 243.692C435.67 243.863 435.637 244.12 435.74 244.193C435.827 244.255 435.929 244.129 436.178 244.129C436.363 244.129 436.599 244.199 436.628 244.322C436.646 244.398 436.583 244.485 436.487 244.618C436.397 244.743 436.352 244.76 436.358 244.799C436.375 244.906 436.727 244.824 436.976 244.979C437.293 245.176 437.125 245.558 437.426 246.266C437.652 246.795 437.899 246.937 437.813 247.141ZM426.13 242.684C425.89 242.889 425.049 243.267 424.809 243.095C424.569 242.924 423.848 243.37 423.762 243.301C423.676 243.232 422.75 243.25 422.698 243.01C422.647 242.769 422.012 242.889 421.995 242.666C421.977 242.443 421.034 242.718 420.965 242.341C420.896 241.963 419.3 242.306 418.648 242.787C417.996 243.267 417.035 243.25 416.641 243.112C416.246 242.975 415.027 242.066 415.216 241.946C415.405 241.826 415.216 241.311 415.491 241.225C415.765 241.139 415.868 240.847 415.817 240.659C415.765 240.47 415.817 240.401 416.074 240.264C416.332 240.127 416.074 239.921 416.177 239.697C416.28 239.474 416.503 239.783 416.641 239.629C416.778 239.474 416.76 239.543 416.949 239.457C417.138 239.371 416.949 239.165 416.949 238.856C416.949 238.547 417.031 238.3 417.344 238.496C417.756 238.754 417.739 238.308 418.116 238.17C418.494 238.033 418.391 238.17 418.58 238.376C418.768 238.582 418.837 238.617 419.283 238.599C419.729 238.582 420.725 238.565 421.102 238.359C421.48 238.153 421.394 238.188 422.08 237.981C422.767 237.776 422.75 237.879 423.316 237.69C423.882 237.501 424.294 237.724 424.071 237.827C423.848 237.93 422.99 238.29 423.179 238.496C423.367 238.702 423.196 238.565 422.956 238.754C422.715 238.942 422.544 239.234 421.428 239.217C420.313 239.2 421.051 239.097 420.193 238.822C419.335 238.547 419.369 238.891 419.352 239.303C419.335 239.715 419.523 240.281 420.244 240.058C420.965 239.835 420.776 239.972 420.982 239.595C421.188 239.217 421.6 239.698 422.269 239.543C422.938 239.389 422.372 239.783 423.419 240.161C424.466 240.538 424.02 240.555 424.792 241.173C425.564 241.791 425.513 241.328 426.13 241.74C426.748 242.151 426.371 242.478 426.13 242.684ZM418.339 295.161C418.159 294.852 417.979 294.286 417.979 294.286L417.412 293.307L417.155 292.432L416.949 291.48C416.949 291.48 417.053 291.068 416.949 290.45C416.949 290.45 417.31 290.862 417.412 291.222C417.516 291.583 417.464 292.226 417.464 292.715C417.464 293.204 417.412 293.307 418.082 293.462C418.751 293.616 418.339 293.668 418.545 294.311C418.751 294.955 418.854 294.672 418.957 295.676C419.06 296.68 418.519 295.47 418.339 295.161ZM419.678 287.147L420.364 286.563C420.364 286.563 421.102 286.58 421.377 286.752C421.377 286.752 421.634 287.233 422.218 287.215C422.801 287.198 421.737 287.473 421.617 288.193C421.497 288.914 421.445 288.331 421.205 288.588C420.965 288.845 421.154 288.828 421.257 289.051C421.359 289.275 421.257 289.292 421.12 289.532C420.982 289.772 420.896 289.635 420.244 289.601C419.636 289.569 419.714 289.79 419.728 289.82L419.73 289.824C419.73 289.824 419.729 289.823 419.728 289.82L419.266 288.828L419.112 287.936L419.678 287.147ZM422.833 298.945C422.678 299.305 422.272 298.893 422.633 299.46C422.993 300.026 423.227 299.949 423.227 300.309C423.227 300.669 423.1 301.467 422.74 300.747C422.379 300.026 422.71 300.541 422.39 299.614C422.071 298.687 422.046 299.408 422.046 298.275C422.046 297.143 422.071 297.374 421.891 296.989C421.711 296.602 421.7 296.602 421.7 296.602C422.266 296.576 422.487 296.989 422.487 296.989V297.632V298.147C422.487 298.147 422.987 298.584 422.833 298.945ZM483.422 260.222C483.422 260.222 483.241 259.261 483.275 258.677C483.31 258.094 483.756 256.858 482.898 254.765C482.04 252.671 481.533 252.07 481.43 251.247C481.328 250.423 481.045 250.835 480.144 249.264C479.242 247.694 479.603 247.694 479.706 247.111C479.809 246.527 479.5 246.871 479.191 246.596C478.882 246.322 478.848 246.356 478.848 246.493C478.848 246.631 478.642 246.802 478.539 246.734C478.436 246.665 478.127 245.944 478.127 245.944L477.75 245.532C477.372 245.12 477.2 245.223 477.406 244.88C477.612 244.537 477.441 244.674 477.406 244.331C477.372 243.988 477.2 243.644 477.2 243.336C477.2 243.027 477.578 243.816 477.784 244.091C477.99 244.365 478.058 244.605 478.402 245.155C478.494 245.303 478.299 244.159 478.299 244.159L478.573 244.262C478.848 244.365 478.813 244.914 479.088 245.326C479.363 245.738 479.397 245.944 479.671 246.15C479.946 246.356 479.843 246.184 479.843 245.978C479.843 245.772 479.843 245.498 479.569 245.017C479.294 244.537 479.225 244.468 478.745 243.301C478.264 242.134 478.676 242.203 477.372 240.041C476.068 237.879 474.008 235.03 472.636 233.725C471.263 232.421 471.366 232.627 470.645 231.907C469.924 231.186 468.551 229.985 467.659 229.058C466.767 228.131 466.835 228.269 467.282 228.406C467.728 228.543 468.757 228.715 466.664 227.273C464.57 225.832 460.542 222.662 460.426 222.468C460.31 222.275 460.052 222.455 459.731 222.198C459.409 221.94 458.74 221.696 458.199 221.593C457.659 221.49 456.771 221.001 456.745 220.962C456.719 220.924 455.986 220.847 454.441 220.937C452.897 221.027 454.776 221.143 455.239 221.284C455.702 221.426 455.355 221.606 454.917 221.619C454.48 221.632 454.093 221.374 453.72 221.271C453.347 221.168 452.266 220.988 452.266 220.988C452.266 220.988 451.159 220.628 450.683 220.486C450.207 220.345 450.207 220.448 450.014 220.499C449.821 220.551 450.117 220.679 450.014 220.718C449.911 220.756 449.64 220.692 449.332 220.679C449.023 220.666 449.408 220.499 449.332 220.473C449.254 220.448 448.212 220.46 447.452 220.422C446.693 220.383 446.809 220.267 446.423 219.997C446.037 219.727 446.088 220.151 446.243 220.357C446.397 220.564 446.346 220.628 445.625 220.641C444.904 220.654 445.341 220.576 445.445 220.499C445.547 220.422 445.625 220.345 445.715 219.984C445.805 219.624 445.496 219.56 445.406 219.521C445.316 219.483 445.174 219.405 444.724 219.354C444.273 219.302 443.746 219.263 443.231 219.263C442.716 219.263 442.008 218.89 441.442 218.865C440.876 218.839 441.287 218.98 441.287 219.019C441.287 219.058 441.262 219.122 440.373 219.457C439.485 219.791 440.026 219.418 439.602 219.457C439.177 219.495 438.456 219.714 438.456 219.714C438.456 219.714 438.688 220.087 439.048 220.319C439.408 220.551 438.855 220.409 438.366 220.409C437.877 220.409 437.954 220.422 437.349 220.608C436.744 220.794 438.07 220.769 438.765 221.233C439.46 221.696 438.289 221.348 437.607 220.988C436.924 220.628 436.834 220.911 436.834 220.911L436.358 221.091L437.22 221.503L437.272 221.773L436.551 221.541C436.551 221.541 436.229 221.387 435.676 221.117C435.122 220.847 436.075 221.606 436.075 221.606L436.577 222.198L437.117 222.494L437.761 222.546L438.855 222.88L439.602 223.627C439.602 223.627 438.714 223.331 438.392 223.15C438.07 222.97 437.954 222.893 437.788 222.906C437.622 222.919 437.555 222.983 437.568 223.15C437.581 223.318 437.761 223.472 437.787 223.704C437.813 223.935 437.426 224.026 437.426 224.026L436.744 224.038C436.744 224.038 436.461 223.781 436.564 223.627C436.667 223.472 437.079 223.382 437.079 223.382C437.079 223.382 437.117 223.253 437.015 222.829C436.912 222.404 436.899 222.726 436.203 222.262C435.509 221.799 435.496 221.696 435.496 221.696L435.113 221.194C434.731 220.692 434.749 221.091 433.977 220.743C433.205 220.396 433.616 220.782 433.552 221.156C433.488 221.529 433.218 221.541 433.501 221.876C433.784 222.211 433.552 222.07 433.694 222.185C433.836 222.301 434.312 222.404 434.865 222.584C435.419 222.764 434.891 222.854 434.775 222.893C434.659 222.932 433.449 222.52 433.449 222.52C433.449 222.52 432.664 222.236 431.957 222.121C431.249 222.005 431.776 222.082 431.094 222.031C430.412 221.979 430.785 221.966 430.283 221.902C429.781 221.838 430.373 222.134 430.708 222.224C431.043 222.314 431.544 222.391 431.544 222.391L431.609 222.674L431.158 222.945C430.708 223.215 430.862 222.945 430.695 222.558C430.528 222.172 430 222.88 430 222.88C430 222.88 429.923 222.88 429.163 222.957C428.404 223.035 428.932 222.932 428.816 222.597C428.7 222.262 428.726 222.558 428.571 222.648C428.417 222.739 428.198 222.739 427.76 222.764C427.323 222.79 427.657 222.777 426.86 223.125C426.062 223.472 426.602 223.459 426.602 223.459C426.602 223.459 426.564 223.575 426.422 223.755C426.28 223.935 426.1 223.82 425.264 223.601C424.427 223.382 425.431 223.395 425.431 223.395C425.431 223.395 425.714 223.202 425.805 222.97C425.894 222.739 424.942 222.867 424.942 222.867L424.389 223.163C424.389 223.163 424.556 223.665 424.607 223.91C424.659 224.154 424.659 224.296 423.977 223.935C423.295 223.575 423.462 224.064 423.359 224.18C423.256 224.296 422.909 224.412 422.806 224.579C422.703 224.746 423.14 225.171 423.14 225.171C423.14 225.171 422.728 225.223 422.394 225.184C422.059 225.145 422.046 224.901 421.544 224.721C421.042 224.54 421.209 224.811 421.312 224.978C421.415 225.145 421.776 225.274 421.943 225.39C422.11 225.506 421.866 225.531 421.428 225.531C420.991 225.531 421.081 225.441 420.837 225.351C420.591 225.261 420.489 225.184 420.437 225.042C420.386 224.901 420.244 224.888 420.244 224.618C420.244 224.347 420.411 224.528 420.167 224.219C419.923 223.91 419.871 224.051 419.472 223.935C419.073 223.82 419.331 223.781 419.459 223.614C419.588 223.446 420.206 224.013 420.631 224.129C421.055 224.244 421.235 224.231 421.557 224.231C421.879 224.231 422.007 224.231 422.432 224.193C422.857 224.154 422.806 224.129 423.076 223.884C423.346 223.639 423.217 223.665 423.243 223.601C423.269 223.536 422.921 223.215 422.921 223.215C422.921 223.215 422.265 222.932 421.853 222.829C421.441 222.726 421.042 222.455 420.437 222.417C419.832 222.378 419.974 222.327 419.588 222.288C419.202 222.249 419.343 222.236 419.086 222.108C418.828 221.979 419.099 221.915 418.918 221.825C418.739 221.735 418.159 221.992 418.275 221.696C418.391 221.4 418.043 221.773 417.915 221.773C417.786 221.773 417.619 221.593 417.181 221.555C416.744 221.516 416.975 221.606 416.666 221.644C416.357 221.683 416.126 221.735 415.907 221.825C415.688 221.915 415.572 221.966 415.328 221.94C415.083 221.915 415.083 222.327 414.787 222.288C414.491 222.249 414.736 222.146 414.53 222.056C414.324 221.966 414.298 222.044 414.246 222.056C414.195 222.07 414.041 222.378 413.796 222.417C413.551 222.455 413.732 222.391 413.487 222.417C413.243 222.443 413.423 222.532 413.294 222.648C413.166 222.764 413.05 222.648 412.985 222.597C412.921 222.546 412.689 222.558 412.599 222.597C412.509 222.636 412.277 222.662 412.097 222.713C411.917 222.764 411.865 222.816 411.08 223.125C410.296 223.433 411.158 223.228 411.415 223.15C411.673 223.073 411.891 223.073 411.891 223.073C411.891 223.073 412.612 222.867 412.753 222.867C412.895 222.867 412.651 223.022 412.406 223.112C412.161 223.202 412.329 223.137 412.059 223.292C411.788 223.446 412.059 223.292 411.66 223.485C411.261 223.678 411.016 223.858 410.463 224.334C409.909 224.811 409.999 224.566 409.871 224.708C409.742 224.849 409.189 224.978 408.519 225.428C407.85 225.879 408.699 225.403 409.008 225.403C409.317 225.403 408.326 225.647 408.429 225.75C408.532 225.853 408.185 225.905 408.12 225.634C408.056 225.364 407.927 225.724 407.798 225.583C407.67 225.441 407.489 225.724 407.489 225.853C407.489 225.982 407.245 225.815 407.013 225.982C406.782 226.149 406.73 226.046 406.653 226.252C406.576 226.458 406.267 226.162 406.267 226.407C406.267 226.651 405.778 226.561 405.778 226.561C405.778 226.561 405.404 226.78 405.225 226.896C405.044 227.012 405.07 227.372 405.07 227.372C405.07 227.372 404.941 227.552 404.697 227.629C404.452 227.707 404.658 227.72 404.774 227.809C404.89 227.9 404.864 227.913 404.851 228.003C404.838 228.093 404.671 228.093 404.427 228.118C404.182 228.144 404.336 228.299 404.581 228.35C404.825 228.402 404.722 228.402 404.607 228.569C404.491 228.736 404.439 228.607 404.259 228.826C404.079 229.045 404.559 229.126 404.559 229.126C404.559 229.126 404.799 229.333 405.349 229.349C405.898 229.367 405.846 229.024 406.052 228.801C406.258 228.578 406.396 228.715 406.636 228.646C406.876 228.578 406.825 228.458 406.979 228.269C407.134 228.08 407.082 228.423 407.202 228.595C407.322 228.766 407.254 228.715 407.151 228.921C407.048 229.126 407.048 229.178 407.048 229.367C407.048 229.556 407.116 229.658 407.168 229.985C407.219 230.31 407.254 230.276 407.237 230.448C407.219 230.619 407.099 230.534 406.91 230.551C406.722 230.568 406.91 230.791 406.91 231.22C406.91 231.649 407.134 231.22 407.528 231.203C407.923 231.186 407.734 231.203 407.889 231.048C408.043 230.894 407.889 230.957 407.957 230.682C408.026 230.407 408.455 230.71 408.455 230.71H409.244C409.656 230.71 409.596 230.21 409.588 230.004C409.579 229.798 409.785 229.69 409.862 229.415C409.939 229.141 409.948 229.305 410.128 229.065C410.308 228.825 410.214 229.01 410.342 228.976C410.471 228.941 410.707 228.686 410.81 228.622C410.913 228.558 410.913 228.557 411.132 228.518C411.351 228.48 411.132 228.286 411.132 228.286C411.132 228.286 411.222 228.209 411.312 228.144C411.402 228.08 411.441 228.028 411.492 227.9C411.544 227.771 411.364 227.642 411.364 227.642L411.003 227.385L411.106 226.896C411.106 226.896 411.492 226.394 411.582 226.355C411.673 226.317 411.75 226.265 412.174 225.956C412.599 225.647 412.586 225.75 412.869 225.673C413.153 225.596 413.5 225.403 413.5 225.403C413.5 225.403 413.95 225.274 414.054 225.197C414.157 225.119 414.002 224.952 413.976 224.836C413.95 224.721 414.157 224.695 414.246 224.63C414.337 224.566 414.401 224.668 414.581 224.475C414.761 224.282 414.839 224.756 414.839 224.756H415.572L415.894 224.783C415.894 224.783 415.946 224.984 415.855 225.048C415.765 225.113 414.98 225.322 414.98 225.322C414.98 225.322 414.324 225.864 413.925 225.954C413.526 226.044 413.551 226.136 413.371 226.303C413.191 226.47 413.371 226.811 413.371 226.811C413.371 226.811 413.217 227.066 413.075 227.336C412.934 227.607 413.286 227.747 413.406 227.807C413.526 227.867 414.281 227.918 414.281 227.918C414.281 227.918 414.581 227.9 415.019 227.891C415.456 227.883 415.216 227.857 415.645 227.72C416.074 227.582 416.778 227.479 416.778 227.479C416.778 227.479 417.301 227.617 417.619 227.797C417.936 227.977 417.147 228.003 417.035 228.003C416.924 228.003 416.503 228.217 416.503 228.217C416.503 228.217 416.263 228.226 416.006 228.217C415.748 228.209 415.611 228.14 415.199 228.14C414.787 228.14 414.736 228.209 414.461 228.286C414.187 228.363 414.144 228.44 413.998 228.629C413.852 228.818 414.131 229.084 414.337 229.212C414.543 229.341 414.337 229.315 414.272 229.431C414.208 229.547 414.221 229.598 413.912 229.907C413.603 230.216 413.771 229.881 413.565 229.74C413.359 229.598 413.217 229.431 412.908 229.431C412.599 229.431 412.316 230.049 412.239 230.101C412.161 230.152 412.136 230.384 412.136 230.384C412.136 230.384 411.891 230.705 411.891 230.963C411.891 231.22 411.922 231.306 411.922 231.306C411.922 231.306 411.853 231.443 411.664 231.456C411.475 231.469 411.286 231.529 411.286 231.529C411.286 231.529 411.149 231.787 411.132 231.855C411.115 231.924 411.046 231.872 410.84 231.889C410.634 231.907 410.36 231.855 410.308 231.821C410.257 231.787 410.394 231.512 409.965 231.46C409.536 231.409 409.279 231.821 408.764 231.924C408.249 232.027 407.489 232.276 407.4 232.276C407.309 232.276 407.284 232.16 407.155 231.941C407.026 231.722 406.936 231.774 406.897 231.787C406.859 231.799 406.743 231.787 406.447 231.864C406.151 231.941 406.344 231.902 405.906 232.108C405.469 232.314 405.739 232.147 405.623 232.147C405.508 232.147 405.534 232.147 405.212 231.992C404.89 231.838 405.121 231.928 405.044 231.812C404.967 231.696 404.851 231.568 404.851 231.568C404.851 231.568 404.555 231.555 404.439 231.568C404.324 231.581 404.388 231.658 404.349 231.838C404.311 232.018 404.207 232.018 403.963 232.198C403.719 232.379 403.719 232.301 403.255 232.443C402.792 232.584 402.895 232.675 402.895 232.675C402.895 232.675 402.818 232.61 402.573 232.546C402.329 232.481 402.316 232.559 402.084 232.61C401.852 232.662 401.698 232.752 401.363 232.958C401.029 233.164 401.312 233.074 401.144 233.382C400.977 233.691 400.835 233.588 400.449 233.807C400.063 234.026 399.626 234.386 399.33 234.425C399.034 234.464 399.046 234.489 398.738 234.515C398.429 234.541 398.364 235.043 398.364 235.043C398.364 235.043 398.21 235.3 398.042 235.454C397.876 235.609 397.708 235.429 397.579 235.454C397.45 235.48 397.309 235.545 397.257 235.66C397.206 235.776 397.257 235.776 397.129 236.046C397 236.317 397.052 236.034 396.897 236.008C396.743 235.982 396.55 235.995 396.511 235.892C396.473 235.789 396.55 235.789 396.562 235.66C396.575 235.532 396.434 235.635 396.202 235.725C395.97 235.815 396.112 236.046 396.048 236.307C395.983 236.568 395.928 236.574 395.464 236.591C395.001 236.609 395.241 236.54 395.241 236.403C395.241 236.265 395.121 236.317 394.984 236.317C394.846 236.317 394.469 236.471 394.315 236.506C394.16 236.54 393.92 236.918 393.92 236.918C393.92 236.918 394.263 237.106 394.503 237.106C394.744 237.106 394.726 237.381 394.761 237.449C394.795 237.518 394.795 237.81 394.795 237.81C394.795 237.81 394.709 238.102 394.778 238.273C394.846 238.445 395.138 238.582 394.949 238.737C394.761 238.891 394.915 238.908 394.915 239.2C394.915 239.492 394.778 238.942 394.624 239.097C394.469 239.251 394.606 239.269 394.538 239.646C394.469 240.024 394.469 239.938 394.417 240.333C394.366 240.728 393.628 241.295 393.628 241.295H393.191C393.088 241.295 392.804 241.135 392.367 241.084C391.929 241.032 392.367 241.011 391.466 240.882C390.565 240.753 390.256 240.878 390.256 240.878L389.638 241.3C389.638 241.3 389.201 241.885 388.969 242.091C388.737 242.297 388.789 242.627 388.66 243.091C388.532 243.554 388.428 243.552 388.274 243.938C388.119 244.324 388.145 244.272 387.424 245.044C386.704 245.816 387.45 245.713 387.038 246.125C386.626 246.537 387.27 246.82 387.811 246.845C388.351 246.871 388.145 247.18 388.223 247.643C388.3 248.107 388.583 247.823 388.892 247.617C389.201 247.411 389.124 247.489 389.278 247.489C389.432 247.489 389.587 247.617 389.896 247.694C390.205 247.772 390.333 247.694 390.41 247.437C390.488 247.18 390.745 247.386 390.745 247.386C390.745 247.386 391.183 247.334 391.234 246.999C391.285 246.665 391.363 246.819 391.415 246.742C391.466 246.665 392.135 246.562 392.135 246.562C392.135 246.562 392.392 246.356 392.392 246.047C392.392 245.738 392.547 245.867 392.882 245.661C393.216 245.455 392.856 245.018 392.882 244.76C392.907 244.503 393.01 244.709 393.216 244.631C393.422 244.554 393.294 244.578 393.294 244.578L393.319 244.603H393.911C394.452 244.603 394.117 243.858 394.117 243.858C394.117 243.858 394.117 243.665 394.169 243.485C394.22 243.305 394.503 243.35 394.58 243.299C394.658 243.247 394.761 243.231 395.069 243.231C395.378 243.231 395.481 243.005 395.481 243.005C395.481 243.005 395.661 242.711 395.739 242.608C395.816 242.505 396.151 242.397 396.151 242.397C396.151 242.397 396.254 242.137 396.331 242.009C396.408 241.879 396.357 241.801 396.408 241.492C396.459 241.183 396.434 241.311 396.588 241.208C396.743 241.106 396.743 241.131 397.052 240.899C397.36 240.668 397.052 240.899 397.335 240.873C397.618 240.848 397.798 241.079 397.798 241.079C397.798 241.079 398.056 241.156 398.519 241.285C398.982 241.414 398.828 241.414 399.008 241.234C399.188 241.053 399.433 240.951 399.561 240.796C399.69 240.642 399.664 240.757 399.947 240.577C400.231 240.397 400.037 240.539 400.179 240.359C400.321 240.178 400.256 240.255 400.681 240.217C401.106 240.178 401.08 239.998 401.222 240.178C401.363 240.359 401.466 240.423 401.724 240.474C401.981 240.526 401.762 240.706 401.762 240.912C401.762 241.118 401.788 241.221 401.93 241.594C402.071 241.967 402.2 242.019 402.522 242.16C402.843 242.302 402.702 242.328 402.972 242.804C403.242 243.28 403.32 242.971 403.783 243.01C404.246 243.049 404.028 243.473 404.323 243.55C404.62 243.628 404.542 243.666 404.542 243.859C404.542 244.052 404.542 244.181 404.915 244.142C405.289 244.104 405.302 244.805 405.302 244.876C405.302 244.947 405.411 245.301 405.186 245.436C404.961 245.571 404.941 245.59 404.858 245.758C404.774 245.925 404.722 245.854 404.69 245.97C404.658 246.086 404.78 246.137 404.903 246.111C405.025 246.086 405.115 245.931 405.34 245.848C405.565 245.764 405.604 245.571 405.604 245.571C405.604 245.571 405.692 245.429 406.052 245.275C406.413 245.121 406.241 245.086 406.241 245.086L406.087 244.589C406.087 244.589 405.932 244.366 405.795 244.194C405.658 244.022 405.984 243.816 405.984 243.816L406.619 243.868C406.619 243.868 406.773 244.057 406.945 244.211C407.116 244.366 407.185 244.417 407.288 244.417C407.391 244.417 407.546 244.228 407.546 244.228C407.546 244.228 407.546 244.108 406.945 243.473C406.344 242.838 406.67 243.284 406.396 243.13C406.121 242.975 405.778 242.787 405.778 242.787C405.778 242.787 405.743 242.632 405.778 242.392C405.812 242.152 405.4 242.409 405.4 242.409C405.4 242.409 405.16 242.392 405.023 242.323C404.885 242.255 404.697 242.049 404.697 242.049C404.697 242.049 404.542 241.877 404.302 241.688C404.062 241.499 404.302 241.551 404.302 241.431C404.302 241.311 404.319 241.276 404.319 241.036C404.319 240.796 404.199 240.83 403.924 240.676C403.65 240.522 403.478 240.264 403.59 239.972C403.702 239.681 403.873 239.715 403.59 239.389C403.307 239.063 403.856 239.234 404.456 239.269C405.057 239.303 404.491 239.595 404.68 239.852C404.868 240.11 404.851 239.663 405.194 239.492C405.537 239.32 405.366 239.389 405.417 239.663C405.469 239.938 405.503 240.024 405.555 240.436C405.606 240.847 405.795 240.796 406.327 240.899C406.859 241.002 406.636 241.105 406.91 241.397C407.185 241.688 407.357 241.603 407.562 241.808C407.768 242.014 407.734 241.946 408.146 242.203C408.558 242.46 408.318 242.443 408.472 242.581C408.627 242.718 408.455 242.787 408.318 242.975C408.18 243.164 408.369 243.164 408.009 243.353C407.648 243.542 407.854 243.868 407.94 243.748C408.026 243.628 408.283 243.662 408.146 243.834C408.009 244.005 408.249 244.022 408.438 244.28C408.627 244.537 408.455 244.417 408.644 244.657C408.832 244.898 408.764 244.863 408.815 245.035C408.867 245.206 408.884 245.206 409.09 245.515C409.296 245.824 409.416 245.687 409.519 245.704C409.622 245.721 409.742 245.704 409.999 245.652C410.257 245.601 410.497 245.755 410.497 245.755C410.497 245.755 410.892 245.773 410.995 245.858C411.098 245.944 411.389 246.476 411.389 246.476C411.389 246.476 411.647 246.579 411.647 246.356C411.647 246.133 411.595 246.15 411.664 245.995C411.733 245.841 411.904 245.893 411.887 245.721C411.87 245.55 411.698 245.327 411.698 245.327C411.698 245.327 411.458 245 411.286 244.692C411.115 244.383 410.772 244.314 410.686 243.919C410.6 243.525 411.012 243.61 410.978 243.731C410.943 243.851 411.132 244.108 411.475 244.022C411.818 243.937 411.681 243.851 411.561 243.61C411.441 243.37 411.818 243.662 411.99 243.456C412.161 243.25 412.179 243.387 412.385 243.439C412.59 243.49 412.59 243.336 412.728 243.252C412.865 243.168 413.208 243.404 413.208 243.404C413.208 243.404 413.466 243.49 413.689 243.61C413.912 243.731 413.912 243.713 414.118 243.696C414.324 243.679 414.461 243.628 414.856 243.37C415.25 243.113 414.959 243.353 415.405 243.37C415.851 243.387 415.851 243.37 416.366 243.37C416.881 243.37 416.658 243.559 416.589 243.593C416.52 243.628 416.469 243.576 416.16 243.593C415.851 243.61 416.108 244.047 416.092 244.216C416.074 244.386 415.456 244.603 415.456 244.603H414.444C413.843 244.603 414.118 244.201 413.946 244.269C413.774 244.338 413.706 244.232 413.414 244.541C413.122 244.85 413.466 244.667 413.809 244.685C414.152 244.702 414.032 244.688 414.015 244.86C413.998 245.031 413.998 245.007 414.152 245.145C414.306 245.282 414.221 245.253 414.169 245.424C414.118 245.596 413.689 245.538 413.689 245.538C413.689 245.538 413.346 245.69 413.466 245.879C413.586 246.067 413.878 245.911 414.341 246.015C414.804 246.117 414.452 246.601 414.414 246.82C414.375 247.039 414.504 247.09 414.955 247.09C415.405 247.09 415.289 247.154 415.444 247.373C415.598 247.592 415.637 247.321 415.907 247.45C416.177 247.579 415.907 247.836 416.203 247.836C416.499 247.836 416.628 247.849 417.053 247.901C417.477 247.952 417.194 247.772 417.245 247.437C417.297 247.102 417.593 247.141 418.108 247.425C418.622 247.708 418.764 247.952 418.906 247.991C419.048 248.029 419.549 247.978 419.716 247.978C419.884 247.978 420.373 247.63 420.875 247.373C421.377 247.116 421.145 247.373 421.583 247.514C422.021 247.656 421.763 247.36 422.046 247.244C422.329 247.128 422.046 247.566 422.072 247.823C422.097 248.081 422.046 248.016 421.969 248.248C421.892 248.48 421.879 248.531 422.097 248.557C422.316 248.583 421.956 248.905 422.097 249.278C422.239 249.651 422.007 249.599 421.904 249.882C421.802 250.166 421.39 250.848 421.377 251.375C421.364 251.903 421.029 252.585 420.823 252.778C420.617 252.972 420.502 252.868 419.755 252.946C419.009 253.023 419.034 252.907 418.842 252.959C418.648 253.01 418.545 252.92 418.545 252.676C418.545 252.431 418.249 252.752 417.927 252.598C417.606 252.444 417.721 252.65 417.297 252.65C416.872 252.65 417.258 252.843 417.014 252.843C416.769 252.843 416.898 252.843 416.435 253.152C415.971 253.46 416.203 253.177 415.225 253.049C414.246 252.92 414.864 253.1 413.989 252.791C413.114 252.482 413.371 252.585 412.496 252.585C411.621 252.585 412.368 252.56 412.291 252.122C412.213 251.684 412.29 252.122 411.904 251.967C411.518 251.813 411.441 251.993 410.643 251.916C409.845 251.839 410.514 251.813 410.463 251.659C410.411 251.504 410.385 251.453 410.102 251.298C409.819 251.144 409.742 251.298 409.124 251.298C408.507 251.298 408.635 251.401 408.069 251.659C407.502 251.916 407.554 252.276 407.606 252.585C407.657 252.894 407.708 253.126 407.683 253.46C407.657 253.795 406.885 254.104 406.035 253.667C405.186 253.229 405.108 252.997 404.671 252.997C404.233 252.997 403.719 252.508 403.59 252.173C403.461 251.839 403.204 251.71 403.178 251.607C403.152 251.504 401.942 251.375 401.942 251.375L400.629 251.144C400.629 251.144 400.398 251.066 400.063 250.938C399.729 250.809 399.677 250.68 399.317 250.037C398.956 249.394 399.754 249.394 399.754 249.394C399.754 249.394 399.857 249.213 400.475 248.647C401.093 248.081 400.321 248.313 400.115 247.875C399.909 247.437 400.372 247.566 400.732 247.231C401.093 246.896 400.552 246.974 400.218 247.128C399.883 247.283 400.012 247.266 399.883 246.931C399.754 246.596 399.188 247.248 399.188 247.248H398.313C398.313 247.248 397.644 247.111 396.949 247.446C396.254 247.78 396.357 247.441 396.048 247.261C395.739 247.081 395.095 247.452 393.628 247.478C392.161 247.504 391.415 248.642 390.882 248.796C390.35 248.951 390.196 248.889 390.025 248.683C389.853 248.477 389.218 248.746 389.218 248.746C389.218 248.746 388.548 248.778 388.532 248.178C388.514 247.577 387.879 248.314 387.725 249.172C387.57 250.03 386.558 250.424 385.7 250.837C384.842 251.251 384.194 253.294 384.001 254.13C383.808 254.967 382.765 256.009 382.199 256.086C381.633 256.163 381.208 256.871 381.054 257.373C380.899 257.875 380.68 257.772 380.372 258.287C380.063 258.802 379.638 259.78 379.419 260.025C379.2 260.269 379.226 260.217 379.162 260.488C379.097 260.758 378.93 261.35 378.467 262.354C378.003 263.358 378.093 263.911 378.132 264.246C378.171 264.58 378.389 265.121 378.106 265.172C377.823 265.224 378.068 265.546 378.158 266.344C378.248 267.142 378.119 268.648 378.068 268.905C378.016 269.162 377.991 269.613 377.977 269.986C377.965 270.36 377.296 270.681 377.566 271.183C377.836 271.685 378.042 272.02 377.862 272.29C377.682 272.56 377.862 273.165 377.862 273.165C377.862 273.165 377.939 273.435 378.003 273.757C378.068 274.079 378.261 274.233 378.415 274.13C378.57 274.027 378.595 274.208 378.544 274.427C378.492 274.645 378.492 274.736 378.634 274.993C378.776 275.25 378.827 275.083 378.956 275.225C379.085 275.366 378.968 275.469 379.226 275.765C379.483 276.061 379.471 276.318 379.715 276.447C379.96 276.576 379.973 276.988 380.086 277.258C380.2 277.528 380.14 277.451 380.101 277.747C380.063 278.043 380.101 277.927 380.178 278.223C380.256 278.519 380.358 278.571 380.59 278.777C380.822 278.983 380.513 279.099 380.899 279.266C381.285 279.433 381.092 279.382 381.247 279.678C381.401 279.974 381.44 279.909 381.89 280.244C382.341 280.579 382.367 280.746 382.662 281.377C382.959 282.007 383.744 282.187 384.065 282.381C384.387 282.574 384.31 282.239 384.361 282.136C384.413 282.033 384.67 281.917 384.67 281.917C384.67 281.917 384.799 281.634 385.031 281.608C385.263 281.583 385.391 281.518 385.734 281.432C386.077 281.347 386.318 281.467 386.764 281.553C387.21 281.638 387.038 281.57 387.261 281.587C387.484 281.604 387.399 281.604 387.776 281.793C388.154 281.982 387.948 281.844 388.171 281.827C388.394 281.81 388.326 281.69 388.428 281.501C388.532 281.312 388.617 281.432 388.84 281.312C389.064 281.192 389.029 281.192 389.321 280.986C389.613 280.78 389.75 280.849 389.973 280.857C390.196 280.866 390.333 280.815 390.368 280.592C390.402 280.368 390.552 280.463 390.642 280.36C390.732 280.257 390.797 280.283 391.015 280.296C391.234 280.308 391.363 280.218 391.363 280.218C391.363 280.218 391.543 280.192 391.723 280.192C391.903 280.192 392.058 280.334 392.058 280.089C392.058 279.845 392.315 279.961 392.225 280.089C392.135 280.218 392.444 280.089 392.586 280.089C392.727 280.089 392.74 280.089 393.229 280.488C393.718 280.887 393.525 280.901 393.603 281.016C393.679 281.132 393.744 281.261 393.911 281.158C394.078 281.055 393.86 281.415 393.911 281.634C393.963 281.853 393.911 281.737 394.014 281.93C394.117 282.123 394.207 282.136 394.413 282.329C394.619 282.522 394.645 282.496 394.812 282.432C394.979 282.368 395.082 282.432 395.263 282.381C395.443 282.329 395.378 282.2 395.559 282.381C395.739 282.561 395.653 282.222 395.739 282.136C395.825 282.05 395.842 282.222 396.219 282.205C396.597 282.187 396.408 282.05 396.408 281.878C396.408 281.707 396.614 282.153 396.837 282.222C397.06 282.29 397.095 282.479 397.043 282.634C396.992 282.788 397.335 282.839 397.644 282.839C397.953 282.839 397.815 283.2 398.021 283.354C398.227 283.509 398.159 283.457 398.107 283.715C398.056 283.972 398.159 284.453 398.004 284.71C397.85 284.968 398.039 284.916 397.97 285.277C397.901 285.637 398.004 285.757 398.021 286.375C398.039 286.992 397.759 287.915 397.579 288.172C397.399 288.43 397.85 288.314 398.03 288.494C398.21 288.674 398.274 288.687 398.596 289.035C398.918 289.382 398.854 289.807 399.098 289.819C399.343 289.832 399.536 289.91 399.536 290.18C399.536 290.45 399.78 290.45 400.218 290.888C400.655 291.325 400.861 291.583 401.17 292.021C401.479 292.458 401.196 292.381 401.608 292.87C402.02 293.359 402.38 294.183 402.715 294.698C403.049 295.212 403.435 295.521 403.049 295.933C402.663 296.345 403.101 296.242 403.721 296.808C404.342 297.375 404.645 298.713 404.388 299.151C404.13 299.588 403.77 299.768 403.729 300.515C403.687 301.261 403.847 302.008 403.744 302.42C403.641 302.832 404.079 303.475 404.079 303.475C404.079 303.475 404.182 303.913 404.62 304.634C405.057 305.354 406.73 306.976 407.425 307.568C408.12 308.16 407.94 308.906 408.455 309.704C408.97 310.503 409.639 311.403 410.18 312.073C410.72 312.742 410.797 312.51 411.209 312.922C411.621 313.334 413.166 315.059 413.346 315.342C413.526 315.625 413.037 315.599 413.346 315.934C413.654 316.269 413.732 316.5 414.015 316.423C414.298 316.346 414.169 316.474 414.53 316.657C414.89 316.841 414.787 316.706 415.096 316.526C415.405 316.346 415.328 316.5 415.765 316.629C416.203 316.758 415.868 316.423 416.126 316.243C416.383 316.063 416.357 316.243 416.563 316.294C416.769 316.346 416.821 316.346 416.975 316.404C417.129 316.461 417.104 316.397 417.516 316.371C417.927 316.346 417.516 316.371 417.773 316.397C418.03 316.423 417.927 316.372 417.979 316.243C418.03 316.114 418.339 316.114 418.339 316.114L419.112 315.831C419.112 315.831 419.343 315.573 419.601 315.162C419.858 314.75 419.772 314.638 420.201 314.552C420.631 314.466 420.279 314.329 420.399 314.097C420.519 313.866 420.596 313.728 420.776 313.325C420.956 312.922 420.991 312.845 421.325 312.819C421.66 312.793 421.441 312.639 421.393 312.42C421.344 312.201 421.493 312.073 421.75 311.674C422.007 311.275 421.703 311.412 421.737 310.949C421.772 310.485 421.737 310.949 421.48 310.674C421.222 310.399 421.617 310.262 421.617 310.262L422.063 309.919L423.058 309.73L423.35 309.542C423.35 309.542 423.453 309.215 423.402 309.061C423.35 308.906 423.333 308.615 423.333 308.615C423.333 308.615 423.436 308.272 423.436 308.117C423.436 307.963 423.402 307.894 423.264 307.705C423.127 307.516 423.264 307.568 423.316 307.242C423.367 306.916 422.972 306.453 422.87 306.092C422.767 305.732 422.87 305.92 423.144 305.68C423.419 305.44 423.282 305.457 423.47 305.268C423.659 305.08 423.813 304.943 424.208 304.702C424.603 304.462 423.848 304.788 424.389 304.273C424.929 303.758 424.517 304.067 425.238 303.655C425.959 303.244 426.165 303.321 426.165 303.321L426.756 302.857L427.323 302.42L427.503 301.776L427.889 301.442C427.889 301.442 427.915 301.236 427.786 300.798C427.657 300.36 427.554 300.103 427.605 298.404C427.657 296.705 427.605 297.992 427.45 297.323C427.296 296.654 427.449 297.323 426.985 296.963C426.522 296.602 427.034 296.293 426.982 295.83C426.931 295.367 426.615 294.698 426.615 294.698C426.615 294.698 426.495 294.234 426.701 293.925C426.907 293.617 425.795 293.719 425.795 293.719V292.484V291.866L426.698 291.2C426.698 291.2 427.213 290.534 427.264 290.173C427.316 289.813 427.428 289.923 427.891 289.459C428.354 288.996 427.914 289.472 428.017 289.163C428.12 288.854 428.733 288.88 428.733 288.88C428.733 288.88 429.267 288.726 429.576 287.85C429.576 287.85 430.537 286.512 431.463 285.688C432.39 284.864 433.216 284.504 435.893 281.415C438.57 278.326 438.485 275.426 438.451 274.568C438.417 273.71 437.696 274.602 437.387 274.843C437.078 275.083 436.289 274.877 435.397 275.014C434.505 275.152 433.578 275.358 433.578 275.358C433.578 275.358 432.48 275.529 431.828 275.529C431.176 275.529 430.833 275.049 430.833 273.882C430.833 272.715 428.979 271.617 428.979 271.617L426.611 270.038C426.611 270.038 426.302 269.077 426.062 268.081C425.822 267.086 425.787 267.086 424.86 266.4C423.934 265.713 423.968 265.198 424.003 264.1C424.037 263.002 423.617 262.804 423.308 262.547C422.999 262.29 422.304 261.646 422.227 261.311C422.149 260.977 422.175 261.028 422.381 260.694C422.587 260.359 421.866 259.716 421.866 259.716C421.866 259.716 421.429 259.124 421.12 258.3C420.811 257.476 420.837 257.759 420.296 256.421C419.755 255.082 419.318 255.057 419.009 254.465C418.7 253.873 420.837 256.704 420.837 256.189C420.837 255.674 421.171 255.159 421.48 254.619C421.789 254.078 421.377 255.417 421.197 256.035C421.017 256.652 421.763 256.678 421.763 256.678L423.231 258.12C423.231 258.12 423.333 259.046 424.389 260.333C425.444 261.62 425.161 261.234 425.65 262.161C426.139 263.088 425.701 262.985 426.294 263.963C426.886 264.941 427.401 264.838 427.993 265.868C428.584 266.897 428.842 267.515 429.408 268.262C429.975 269.008 429.794 269.137 429.794 269.523C429.794 269.909 429.871 270.964 430.026 271.325C430.18 271.685 430.695 273.152 431.596 273.281C432.497 273.41 432.291 272.56 433.012 272.483C433.733 272.406 433.707 272.483 434.351 272.123C434.994 271.762 434.917 271.788 435.354 271.814C435.792 271.84 435.844 271.685 436.641 270.861C437.439 270.038 437.13 270.527 438.649 270.424C440.168 270.321 439.378 269.523 439.378 269.523C439.378 269.523 439.653 268.94 440.751 268.39C441.85 267.841 441.335 268.39 441.987 267.944C442.639 267.498 442.022 267.395 442.433 267.292C442.845 267.189 443.051 267.292 443.36 266.606C443.669 265.919 443.84 266.297 444.561 266.228C445.282 266.159 444.527 265.953 444.424 265.061C444.321 264.169 444.424 264.375 445.076 264.649C445.728 264.924 445.179 264.203 445.556 263.242C445.934 262.281 445.968 261.938 445.762 261.663C445.556 261.389 444.63 261.011 444.63 261.011C444.63 261.011 443.943 260.565 443.051 260.119C442.159 259.672 442.776 259.844 442.536 259.433C442.296 259.02 442.33 259.02 442.193 258.266C442.056 257.511 441.952 258.437 441.575 258.746C441.198 259.055 441.163 259.158 440.889 259.57C440.614 259.981 440.889 259.981 440.408 260.325C439.928 260.668 439.928 260.531 439.413 260.428C438.898 260.325 438.829 260.599 438.349 260.634C437.869 260.668 437.971 260.325 437.731 259.81C437.491 259.295 436.358 258.712 436.358 258.712L436.307 257.802L435.552 257.167C434.797 256.532 435.037 256.206 435.037 256.206L434.127 255.726C434.127 255.726 433.613 255.52 432.669 254.954C431.725 254.387 432.669 254.542 432.977 254.284C433.286 254.027 433.338 254.25 434.059 254.319C434.779 254.387 434.505 254.198 434.574 253.735C434.642 253.272 434.882 254.096 435.672 253.958C436.461 253.821 435.775 254.061 436.153 254.61C436.53 255.159 437.079 256.189 438.023 256.498C438.967 256.807 438.864 257.15 438.864 257.15C438.864 257.15 439.087 257.39 439.808 257.562C440.528 257.734 440.443 257.648 441.678 257.408C442.914 257.167 442.519 257.528 443.171 258.472C443.823 259.415 443.531 258.643 445.694 259.055C446.088 259.13 446.352 259.173 446.526 259.196C446.51 259.22 446.527 259.261 446.603 259.329C447.066 259.741 447.307 259.175 447.307 259.175C447.307 259.175 447.478 259.347 447.598 259.347C447.719 259.347 448.474 258.969 449.177 258.935C449.881 258.901 450.791 258.574 451.305 258.935C451.82 259.295 451.7 259.587 452.129 259.467C452.558 259.347 452.472 259.913 452.781 260.634C453.09 261.354 453.622 260.788 453.622 260.788C453.622 260.788 453.673 261.183 453.845 261.372C454.017 261.56 454.566 261.835 455.149 261.766C455.733 261.698 455.51 261.835 455.355 261.972C455.201 262.11 454.943 262.401 454.48 262.264C454.017 262.127 454.566 262.916 455.544 263.809C456.522 264.701 456.419 264.014 457.105 263.894C457.792 263.774 457.277 263.002 457.397 262.419C457.517 261.835 457.775 263.122 457.655 263.843C457.534 264.563 457.929 264.735 458.169 265.387C458.41 266.039 458.187 266.537 459.01 268.905C459.834 271.273 461.516 276.576 462.099 277.554C462.683 278.532 462.734 278.172 463.095 277.674C463.455 277.177 463.833 277.228 463.833 277.228C463.833 277.228 463.833 276.85 463.918 276.627C464.004 276.404 464.021 276.267 464.502 275.889C464.982 275.512 464.57 275.615 464.57 275.615C464.57 275.615 464.553 275.443 464.502 274.791C464.45 274.139 464.656 274.105 464.656 274.105L464.811 273.281C464.811 273.281 464.759 272.543 464.879 271.617C464.999 270.69 464.759 270.347 464.776 269.918C464.794 269.488 464.862 269.626 465.171 269.626C465.48 269.626 465.428 269.283 465.531 269.042C465.634 268.802 465.72 269.128 465.857 269.042C465.995 268.956 466.252 268.785 466.287 268.459C466.321 268.133 466.664 267.803 466.664 267.803C466.664 267.803 466.921 267.052 467.093 266.726C467.265 266.4 467.368 266.331 467.625 266.091C467.882 265.85 468.157 265.748 468.14 265.404C468.123 265.061 468.14 265.267 468.329 265.267C468.517 265.267 468.603 265.284 468.706 265.233C468.809 265.181 469.204 264.598 469.204 264.598C469.204 264.598 469.255 264.306 469.255 263.911C469.255 263.517 469.307 263.723 469.444 263.431C469.581 263.139 469.547 263.225 469.667 262.83C469.787 262.436 470.01 263.122 470.01 263.122L470.422 263.225L470.491 263.472L470.645 263.787H471.212L471.469 263.197C471.469 263.197 471.4 262.679 471.331 262.49C471.263 262.302 471.726 261.879 471.726 261.879L472.087 262.252C472.087 262.252 472.379 262.876 472.361 263.511C472.344 264.145 472.739 263.582 472.739 263.582C472.739 263.582 472.79 263.798 472.739 264.004C472.687 264.21 473.288 264.516 473.288 264.516L473.597 264.926L473.906 265.302C473.906 265.302 473.906 265.542 473.82 266.023C473.734 266.503 473.837 266.537 474.009 266.314C474.18 266.091 474.266 265.954 474.266 266.159C474.266 266.365 474.678 267.567 474.678 267.567C474.678 267.567 474.661 268.562 474.644 269.111C474.626 269.66 474.747 269.454 474.867 269.523C474.987 269.592 475.261 269.815 475.33 269.797C475.399 269.78 475.45 269.42 475.759 268.974C476.068 268.527 476.102 268.665 476.171 268.184C476.24 267.704 476.634 268.51 476.84 269.06C477.046 269.609 477.261 270.424 477.441 271.608C477.621 272.792 477.673 273.178 477.544 274.336C477.415 275.495 477.183 276.885 477.132 277.889C477.081 278.893 477.724 279.613 477.801 279.948C477.879 280.283 477.827 280.978 477.801 281.415C477.775 281.853 477.956 282.883 477.956 282.883C477.956 282.883 477.879 283.835 477.879 284.221C477.879 284.607 478.136 284.942 478.342 285.328C478.548 285.714 478.754 285.585 478.934 285.38C479.114 285.173 479.063 285.045 478.831 284.067C478.599 283.088 478.779 283.629 479.088 282.47C479.397 281.312 479.071 280.643 478.848 280.18C478.625 279.716 478.487 279.631 478.196 279.528C477.904 279.425 478.024 278.996 478.11 278.343C478.196 277.691 477.973 277.76 478.11 277.091C478.248 276.422 478.024 276.954 477.853 277.125C477.681 277.297 477.75 277.159 477.63 276.662C477.51 276.164 477.681 275.993 477.715 275.598C477.75 275.203 477.819 275.134 478.179 273.933C478.539 272.732 478.179 273.624 478.196 273.264C478.213 272.903 478.367 272.526 478.487 272.337C478.608 272.149 478.625 272.526 478.625 272.801C478.625 273.075 478.608 273.161 478.745 273.316C478.882 273.47 479.363 273.401 479.466 273.607C479.569 273.813 479.757 274.379 479.757 274.379C479.757 274.379 479.843 274.74 479.895 275.203C479.946 275.666 480.049 275.718 480.324 275.993C480.598 276.267 480.41 276.541 480.41 276.541L480.221 277.142C480.221 277.142 480.272 277.588 480.461 277.502C480.65 277.417 480.598 277.331 481.045 276.713C481.491 276.095 481.079 276.078 481.199 275.632C481.319 275.186 481.525 275.701 481.851 275.152C482.177 274.602 482.211 273.984 482.315 273.539C482.418 273.092 482.383 272.783 482.383 272.509C482.383 272.234 482.315 271.548 482.211 270.999C482.109 270.45 482.074 270.621 481.765 269.523C481.457 268.425 480.804 267.069 480.616 266.709C480.427 266.348 480.513 265.833 480.564 265.233C480.616 264.632 480.813 264.297 480.864 263.911C480.916 263.525 480.967 263.216 481.431 263.216C481.894 263.216 481.482 263.603 481.92 264.426C482.357 265.25 482.332 263.654 482.383 262.728C482.435 261.801 482.932 261.938 483.422 261.389C483.912 260.84 483.422 260.222 483.422 260.222ZM475.415 303.644C475.305 303.756 475.192 303.868 475.072 303.981C474.112 304.892 473.096 305.574 472.601 305.903C471.105 306.9 470.692 306.9 469.787 307.688C469.01 308.364 468.883 308.739 467.865 310.09C467.666 310.354 466.301 312.157 464.913 313.523C462.709 315.692 460.776 316.435 460.864 316.611C460.932 316.751 462.198 316.409 464 315.649C468.351 312.214 472.199 308.17 475.415 303.644ZM397.644 220.795C395.339 222.593 395.406 222.542 395.301 222.623C393.045 224.369 392.707 224.387 391.44 225.531C390.623 226.269 389.334 227.555 389.484 227.745C389.667 227.977 391.721 226.239 395.481 224.528C396.154 224.222 395.888 224.368 398.647 223.189C401.459 221.988 402.116 221.673 402.895 221.233C404.694 220.217 404.349 220.112 405.392 219.688C406.614 219.192 407.663 219.102 409.073 218.17C409.906 217.618 409.883 217.423 409.871 217.372C409.734 216.795 406.817 217.045 406.318 217.088C405.519 217.157 404.521 217.249 403.281 217.655C402.856 217.794 402.469 217.949 402.107 218.109C401.077 218.624 400.064 219.17 399.07 219.744C398.548 220.092 398.114 220.428 397.644 220.795ZM450.593 219.517C450.532 219.688 451.345 220.423 452.206 220.357C452.766 220.315 452.949 219.964 453.828 219.868C454.207 219.827 454.486 219.859 454.488 219.826C454.493 219.771 453.738 219.65 453.098 219.585C452.703 219.546 452.737 219.566 451.502 219.508C450.731 219.472 450.613 219.459 450.593 219.517ZM396.906 225.197C396.835 225.459 396.661 225.52 396.683 225.609C396.722 225.772 397.373 225.806 398.056 225.694C398.594 225.606 399.451 225.454 399.943 224.785C400.012 224.692 400.266 224.347 400.149 224.15C400.053 223.987 399.746 224 399.428 224.013C399.243 224.02 398.973 224.031 398.656 224.167C398.243 224.344 398.079 224.592 397.97 224.528C397.84 224.451 398.027 224.079 397.884 223.978C397.74 223.877 397.366 224.126 397.163 224.373C397.103 224.446 396.986 224.589 396.94 224.802C396.902 224.979 396.951 225.031 396.906 225.197ZM393.405 234.155C393.314 234.101 393.354 233.855 393.405 233.709C393.503 233.429 393.771 233.141 394.109 233.057C394.255 233.02 394.347 233.038 394.383 232.971C394.457 232.833 394.144 232.643 394.194 232.439C394.225 232.315 394.421 232.24 394.812 232.095C395.139 231.975 395.23 231.975 395.464 231.855C395.551 231.811 395.643 231.75 395.825 231.632C396.348 231.29 396.451 231.178 396.58 231.22C396.701 231.26 396.803 231.423 396.786 231.563C396.752 231.832 396.311 231.777 396.065 232.181C395.951 232.369 395.99 232.472 395.807 232.748C395.779 232.79 395.697 232.91 395.568 233.039C395.497 233.109 395.287 233.307 394.795 233.52C394.341 233.716 394.329 233.63 394.023 233.794C393.651 233.994 393.502 234.212 393.405 234.155ZM394.349 235.442C394.396 235.543 394.859 235.353 396.545 234.893C397.214 234.71 397.478 234.648 397.815 234.412C398.16 234.171 398.172 234.036 398.605 233.76C399.062 233.469 399.314 233.452 399.36 233.245C399.411 233.014 399.114 232.947 398.982 232.524C398.929 232.354 398.948 232.271 399.051 231.323C399.117 230.717 399.111 230.733 399.12 230.706C399.344 229.993 400.089 229.746 400.012 229.539C399.944 229.356 399.346 229.494 399.257 229.264C399.194 229.102 399.436 228.897 399.394 228.852C399.311 228.764 398.375 229.553 398.296 229.47C398.248 229.42 398.548 229.108 398.502 229.058C398.435 228.986 397.742 229.555 397.403 229.848C396.883 230.296 396.856 230.389 396.854 230.465C396.845 230.822 397.394 230.904 397.575 231.495C397.606 231.596 397.716 231.956 397.541 232.181C397.404 232.357 397.224 232.281 396.786 232.524C396.576 232.64 396.447 232.714 396.374 232.867C396.262 233.101 396.412 233.243 396.305 233.382C396.163 233.567 395.853 233.375 395.481 233.588C395.427 233.62 395.192 233.755 395.207 233.897C395.233 234.145 395.99 234.168 395.996 234.343C396.001 234.478 395.56 234.518 395.001 234.858C394.732 235.022 394.301 235.338 394.349 235.442ZM424.002 218.075C424.088 218.36 425.257 218.251 425.667 218.212C426.514 218.133 426.468 218.011 427.005 218.023C427.672 218.039 427.865 218.231 428.584 218.195C428.95 218.177 429.472 218.1 429.476 217.989C429.481 217.877 428.948 217.744 428.516 217.698C428.026 217.645 427.848 217.722 426.886 217.801C426.205 217.856 425.865 217.884 425.667 217.852C425.031 217.75 424.738 217.478 424.363 217.646C424.161 217.737 423.962 217.943 424.002 218.075ZM439.756 218.504C439.848 218.699 440.368 218.708 440.477 218.504C440.521 218.421 440.482 218.328 440.477 218.316C440.393 218.125 440.043 218.034 439.859 218.195C439.777 218.267 439.709 218.405 439.756 218.504ZM436.461 217.475C436.317 217.569 436.183 217.75 436.221 217.886C436.269 218.064 436.608 218.11 437.285 218.195C437.921 218.275 438.291 218.264 438.778 218.247C439.211 218.231 439.271 218.205 439.275 218.178C439.285 218.112 438.948 218.03 438.366 217.852C437.116 217.471 436.771 217.27 436.461 217.475ZM426.165 222.262C426.244 222.045 426.783 221.957 426.971 222.194C427.05 222.293 427.07 222.453 427.005 222.571C426.906 222.755 426.63 222.795 426.439 222.708C426.253 222.624 426.112 222.406 426.165 222.262ZM427.263 221.353C427.241 221.242 427.293 221.184 427.64 220.649C428.188 219.807 428.15 219.814 428.241 219.74C428.685 219.382 428.963 219.754 429.871 219.465C430.418 219.291 430.61 219.063 431.193 219.036C431.448 219.024 431.796 219.049 431.81 219.139C431.828 219.244 431.381 219.403 430.867 219.585C430.337 219.774 430.229 219.774 429.803 219.946C429.293 220.151 429.097 220.291 428.962 220.409C428.764 220.582 428.526 220.788 428.55 221.044C428.573 221.294 428.836 221.469 428.945 221.541C429.216 221.723 429.462 221.725 429.46 221.782C429.457 221.837 429.218 221.889 428.945 221.902C428.343 221.931 427.35 221.783 427.263 221.353ZM482.057 264.889C481.858 264.887 481.713 265.32 481.679 265.421C481.667 265.457 481.424 266.212 481.799 266.503C481.809 266.51 481.998 266.652 482.177 266.588C482.451 266.49 482.466 265.992 482.469 265.885C482.482 265.431 482.277 264.892 482.057 264.889ZM484.082 279.562C484.055 279.56 484.024 279.585 483.756 280.368C483.437 281.297 483.459 281.326 483.344 281.466C483.141 281.712 482.911 281.819 482.88 282.101C482.866 282.235 482.91 282.281 482.88 282.41C482.823 282.664 482.586 282.79 482.452 282.891C482.17 283.101 482.232 283.276 481.714 284.59C481.464 285.222 481.346 285.445 481.25 285.431C481.11 285.41 481.134 284.897 481.01 284.881C480.873 284.864 480.666 285.468 480.53 286.031C480.305 286.956 480.455 286.997 480.255 287.953C480.122 288.587 479.97 288.983 480.049 289.515C480.081 289.731 480.151 289.958 480.203 290.132C480.318 290.509 480.378 290.699 480.495 290.75C480.711 290.845 481.053 290.581 481.25 290.356C481.714 289.826 481.451 289.42 481.851 288.554C482.157 287.89 482.363 288.017 482.503 287.49C482.661 286.898 482.467 286.491 482.795 286.065C482.949 285.865 483.025 285.911 483.189 285.74C483.708 285.198 483.182 284.494 483.447 283.063C483.501 282.767 483.602 282.224 483.91 281.604C484.043 281.337 484.095 281.294 484.168 281.089C484.425 280.357 484.223 279.569 484.082 279.562ZM476.874 293.342C476.67 293.364 476.497 293.603 476.514 293.788C476.524 293.896 476.591 293.903 476.634 294.045C476.703 294.272 476.564 294.358 476.617 294.526C476.689 294.754 477.048 294.917 477.321 294.869C477.469 294.843 477.51 294.768 477.595 294.8C477.74 294.855 477.674 295.094 477.87 295.298C477.972 295.405 478.097 295.451 478.196 295.487C478.449 295.579 478.596 295.525 478.676 295.641C478.734 295.725 478.689 295.799 478.762 295.864C478.826 295.921 478.931 295.925 479.002 295.898C479.159 295.842 479.266 295.609 479.208 295.453C479.137 295.258 478.865 295.326 478.608 295.041C478.511 294.934 478.419 294.832 478.436 294.715C478.471 294.465 478.954 294.47 479.088 294.097C479.107 294.046 479.14 293.952 479.105 293.856C479.004 293.582 478.391 293.449 478.024 293.668C477.779 293.814 477.723 294.071 477.595 294.045C477.499 294.026 477.511 293.878 477.355 293.668C477.272 293.555 477.095 293.318 476.874 293.342ZM475.639 289.807C475.533 289.825 475.53 290.609 475.639 290.631C475.695 290.641 475.795 290.447 475.811 290.27C475.832 290.03 475.7 289.796 475.639 289.807ZM474.918 283.749C474.836 283.77 474.793 283.933 474.815 284.058C474.861 284.321 475.208 284.502 475.295 284.435C475.371 284.378 475.27 284.12 475.175 283.972C475.137 283.911 475.017 283.723 474.918 283.749ZM475.536 286.855C475.434 286.855 475.312 287.009 475.347 287.13C475.39 287.28 475.658 287.311 475.724 287.232C475.8 287.144 475.675 286.855 475.536 286.855ZM475.501 287.919C475.575 287.913 475.65 288.095 475.673 288.211C475.687 288.281 475.718 288.429 475.638 288.485C475.578 288.528 475.473 288.505 475.416 288.451C475.269 288.312 475.398 287.928 475.501 287.919ZM475.192 285.448C474.99 285.555 475.032 286.129 475.227 286.203C475.357 286.252 475.586 286.091 475.656 285.894C475.67 285.855 475.694 285.786 475.673 285.705C475.622 285.505 475.332 285.374 475.192 285.448ZM476.257 281.432C476.078 281.308 475.981 281.363 475.759 281.278C475.395 281.138 475.324 280.865 475.175 280.9C475.014 280.939 474.969 281.294 474.952 281.432C474.945 281.496 474.835 282.482 475.381 282.857C475.513 282.946 475.661 282.987 475.725 283.148C475.765 283.252 475.737 283.319 475.725 283.543C475.714 283.745 475.705 283.901 475.742 284.058C475.793 284.276 475.886 284.306 476.068 284.641C476.147 284.787 476.23 284.941 476.274 285.104C476.386 285.527 476.16 285.729 476.136 286.186C476.115 286.601 476.295 286.577 476.411 287.198C476.523 287.793 476.452 288.321 476.394 288.76C476.318 289.328 476.234 289.405 476.274 289.755C476.324 290.194 476.478 290.262 476.445 290.613C476.407 291.024 476.18 291.086 476.205 291.454C476.219 291.657 476.288 291.639 476.428 292.089C476.564 292.524 476.537 292.663 476.651 292.724C476.881 292.847 477.312 292.455 477.355 292.415C477.74 292.059 477.73 291.754 478.11 290.75C478.375 290.051 478.595 289.631 478.453 289.515C478.326 289.411 478.026 289.646 477.921 289.532C477.852 289.457 477.948 289.317 478.041 288.966C478.133 288.617 478.207 288.334 478.076 288.125C477.988 287.986 477.895 288.016 477.818 287.867C477.709 287.656 477.798 287.407 477.835 287.301C477.996 286.852 478.31 286.811 478.299 286.563C478.288 286.346 478.045 286.374 477.887 286.031C477.794 285.832 477.78 285.601 477.75 285.139C477.739 284.983 477.74 284.893 477.681 284.779C477.585 284.591 477.471 284.616 477.338 284.435C477.235 284.297 477.207 284.131 477.149 283.8C477.104 283.546 477.126 283.54 477.098 283.406C476.984 282.864 476.617 282.841 476.548 282.393C476.505 282.11 476.632 281.998 476.514 281.741C476.488 281.684 476.412 281.54 476.257 281.432ZM464.948 276.971C464.885 276.975 464.84 277.071 464.622 277.983C464.483 278.565 464.413 278.859 464.416 278.995C464.426 279.507 464.61 279.542 464.622 280.162C464.624 280.288 464.619 280.39 464.69 280.454C464.852 280.599 465.275 280.435 465.531 280.214C465.933 279.866 465.959 279.342 465.96 279.304C465.973 278.915 465.79 278.819 465.428 278C465.123 277.309 465.07 276.962 464.948 276.971ZM411.274 248.402C411.301 248.369 411.423 248.422 411.647 248.518C411.789 248.579 411.87 248.624 411.917 248.647C412.177 248.772 412.363 248.68 412.728 248.685C413.147 248.692 413.578 248.823 413.577 248.917C413.577 248.998 413.262 249.056 413.178 249.072C413.023 249.1 412.854 249.11 412.483 249.072C412.062 249.027 411.851 249.005 411.698 248.917C411.409 248.751 411.23 248.455 411.274 248.402ZM409.596 245.97C409.563 245.987 409.398 246.084 409.399 246.21C409.399 246.324 409.534 246.349 409.562 246.493C409.592 246.65 409.452 246.717 409.493 246.845C409.527 246.948 409.649 246.997 409.785 247.051C409.992 247.133 410.032 247.082 410.136 247.137C410.405 247.278 410.297 247.702 410.523 247.789C410.646 247.836 410.82 247.764 410.866 247.66C410.894 247.597 410.872 247.529 410.823 247.42C410.635 246.997 410.48 246.899 410.523 246.776C410.561 246.665 410.739 246.603 410.866 246.622C411.016 246.645 411.098 246.783 411.132 246.759C411.162 246.738 411.125 246.615 411.063 246.51C410.979 246.368 410.847 246.256 410.574 246.133C410.219 245.973 409.873 245.817 409.596 245.97ZM408.858 246.33C408.831 246.38 408.843 246.459 408.901 246.493C408.959 246.527 409.03 246.496 409.064 246.45C409.095 246.408 409.104 246.343 409.073 246.304C409.026 246.245 408.899 246.255 408.858 246.33ZM408.747 245.652C408.645 245.66 408.559 245.775 408.575 245.884C408.594 246.011 408.747 246.09 408.85 246.047C408.911 246.022 408.945 245.957 408.953 245.901C408.967 245.784 408.867 245.643 408.747 245.652ZM399.754 243.13C399.618 243.283 399.846 243.506 399.72 243.799C399.66 243.938 399.599 243.91 399.394 244.159C399.218 244.374 399.115 244.498 399.102 244.674C399.085 244.915 399.24 245.209 399.445 245.24C399.576 245.26 399.685 245.168 399.823 245.052C400.11 244.809 400.233 244.514 400.269 244.417C400.388 244.105 400.276 244.118 400.406 243.679C400.465 243.481 400.526 243.351 400.458 243.232C400.401 243.134 400.287 243.099 400.218 243.078C400.202 243.074 399.886 242.982 399.754 243.13ZM400.887 241.345C400.773 241.277 400.479 241.512 400.321 241.757C400.168 241.993 400.154 242.22 400.149 242.323C400.146 242.393 400.13 242.728 400.252 242.769C400.309 242.788 400.394 242.714 400.561 242.563C400.735 242.407 400.822 242.328 400.87 242.22C400.907 242.135 400.913 242.025 400.921 241.808C400.933 241.52 400.939 241.376 400.887 241.345ZM402.47 245.918C402.376 245.945 402.275 246.02 402.239 246.124C402.161 246.347 402.415 246.606 402.573 246.768C402.762 246.961 402.939 247.054 403.204 247.193C403.481 247.337 403.622 247.409 403.77 247.373C404.004 247.314 404.125 247.062 404.143 247.025C404.248 246.808 404.138 246.747 404.246 246.536C404.329 246.375 404.422 246.353 404.529 246.124C404.58 246.017 404.613 245.942 404.581 245.892C404.521 245.801 404.28 245.86 404.092 245.905C403.722 245.995 403.715 246.076 403.487 246.098C403.233 246.124 402.991 246.048 402.908 246.021C402.695 245.954 402.607 245.879 402.47 245.918ZM435.122 299.107C434.92 299.354 435.017 299.485 434.813 299.76C434.667 299.957 434.59 299.925 434.402 300.172C434.281 300.33 434.255 300.418 434.161 300.583C434.031 300.814 433.903 300.954 433.647 301.236C433.407 301.499 433.189 301.686 432.754 302.059C432.566 302.221 432.47 302.303 432.411 302.334C432.022 302.537 431.784 302.365 431.416 302.505C431.071 302.637 430.888 302.939 430.798 303.089C430.607 303.405 430.588 303.695 430.558 304.256C430.525 304.877 430.611 304.922 430.558 305.423C430.527 305.718 430.49 306.06 430.317 306.452C430.04 307.082 429.711 307.158 429.7 307.619C429.696 307.751 429.722 307.812 429.734 308.237C429.741 308.477 429.745 308.596 429.734 308.717C429.705 309.051 429.634 309.11 429.665 309.301C429.697 309.494 429.8 309.624 429.871 309.713C430.1 310 430.4 310.106 430.558 310.159C430.778 310.233 431.36 310.43 431.793 310.159C432.028 310.012 432.007 309.86 432.411 308.992C432.695 308.383 432.712 308.444 432.96 307.894C433.296 307.15 433.236 307.103 433.475 306.624C433.679 306.216 433.734 306.227 434.333 305.32C434.842 304.548 435.097 304.158 435.122 303.947C435.204 303.261 434.768 302.87 435.054 302.368C435.138 302.221 435.303 302.03 435.431 302.059C435.562 302.089 435.577 302.331 435.672 302.334C435.798 302.338 435.905 301.915 435.912 301.888C435.992 301.566 435.982 301.309 435.946 300.858C435.878 299.997 435.864 300.305 435.775 299.451C435.735 299.076 435.724 298.88 435.603 298.833C435.454 298.775 435.231 298.976 435.122 299.107Z" fill="#66C368"/>
<path fill-rule="evenodd" clip-rule="evenodd" d="M418.86 249.46H419.001C420.564 249.46 421.842 250.738 421.842 252.301V256.315C421.909 256.852 421.943 257.4 421.943 257.956C421.943 265.273 416.011 271.205 408.694 271.205C401.376 271.205 395.444 265.273 395.444 257.956C395.444 257.4 395.479 256.852 395.545 256.315V252.301C395.545 250.738 396.824 249.46 398.386 249.46H398.527H418.86ZM459.519 249.258H459.66C461.222 249.258 462.501 250.537 462.501 252.099V256.113C462.567 256.651 462.601 257.198 462.601 257.754C462.601 265.071 456.669 271.003 449.352 271.003C442.035 271.003 436.103 265.071 436.103 257.754C436.103 257.198 436.137 256.651 436.204 256.113V252.099C436.204 250.537 437.482 249.258 439.045 249.258H439.185H459.519Z" fill="white"/>
<path fill-rule="evenodd" clip-rule="evenodd" d="M409.113 255.131C410.461 255.131 411.754 255.667 412.707 256.62C413.661 257.573 414.196 258.866 414.196 260.214C414.196 261.219 413.898 262.202 413.339 263.038C412.781 263.874 411.987 264.525 411.058 264.91C410.13 265.294 409.108 265.395 408.122 265.199C407.136 265.003 406.23 264.519 405.519 263.808C404.809 263.097 404.325 262.191 404.128 261.206C403.932 260.22 404.033 259.198 404.418 258.269C404.802 257.34 405.454 256.546 406.29 255.988C407.126 255.429 408.108 255.131 409.113 255.131Z" fill="#1B1918"/>
<path fill-rule="evenodd" clip-rule="evenodd" d="M449.368 254.98C450.716 254.98 452.009 255.515 452.962 256.469C453.915 257.422 454.451 258.715 454.451 260.063C454.451 261.068 454.153 262.05 453.594 262.886C453.036 263.722 452.242 264.374 451.313 264.758C450.385 265.143 449.363 265.244 448.377 265.048C447.391 264.851 446.485 264.367 445.774 263.657C445.063 262.946 444.579 262.04 444.383 261.054C444.187 260.068 444.288 259.046 444.672 258.118C445.057 257.189 445.709 256.395 446.544 255.837C447.38 255.278 448.363 254.98 449.368 254.98Z" fill="#1B1918"/>
<path fill-rule="evenodd" clip-rule="evenodd" d="M428.149 269.414C427.719 268.952 427.745 268.227 428.208 267.796C428.67 267.366 429.395 267.392 429.825 267.855C430.104 268.154 430.445 268.45 430.812 268.728C431.196 269.019 431.615 269.293 432.035 269.54C432.471 269.649 432.883 269.728 433.214 269.699C433.448 269.674 433.668 269.582 433.857 269.369C434.108 269.011 434.25 268.527 434.037 268.257C433.168 267.17 432.526 266.339 431.967 265.529C431.406 264.717 430.041 262.595 429.564 261.673C429.275 261.112 429.495 260.421 430.056 260.132C430.617 259.843 431.309 260.063 431.598 260.624C432.032 261.464 433.351 263.509 433.847 264.229C434.88 265.722 436.442 266.969 436.326 268.917C436.29 269.505 436.121 270.15 435.705 270.722L435.665 270.771C435.013 271.572 434.244 271.906 433.411 271.978C432.72 272.034 432.044 271.905 431.371 271.732C431.252 271.708 431.134 271.665 431.023 271.602C430.491 271.298 429.945 270.943 429.433 270.556C428.964 270.201 428.523 269.816 428.149 269.414Z" fill="#1B1918"/>
<path fill-rule="evenodd" clip-rule="evenodd" d="M424.311 275.209C429.598 277.226 434.516 277.106 439.129 275.209C440.981 274.448 442.769 276.847 442.769 278.85C442.769 280.853 441.02 281.832 439.129 282.492C434.335 284.164 429.376 283.921 424.311 282.492C422.383 281.947 420.67 280.854 420.67 278.851C420.67 276.848 422.439 274.495 424.311 275.209Z" fill="#1B1918"/>
<path fill-rule="evenodd" clip-rule="evenodd" d="M438.601 282.667C435.713 283.589 432.765 283.827 429.771 283.543C430.465 281.659 432.275 280.316 434.4 280.316C436.177 280.316 437.734 281.257 438.601 282.667Z" fill="white"/>
</g>
<defs>
<clipPath id="clip0_113_42">
<rect width="1004.72" height="420.718" fill="white"/>
</clipPath>
</defs>
</svg>
