<svg width="886" height="558" viewBox="0 0 886 558" fill="none" xmlns="http://www.w3.org/2000/svg">
<g clip-path="url(#clip0_110_2)">
<path d="M681.591 421.111C718.017 330.044 706.998 228.357 660.019 150.259L168.245 218.351L639.521 120.134C440.898 -127.551 54.3079 36.7357 91.5733 349.455L681.591 421.111Z" fill="#E6E6E6"/>
<path d="M703.279 320.444H76.7532V515.54H703.279V320.444Z" fill="#FCEDA8"/>
<path d="M251.485 296.652C257.106 301.018 259.162 302.427 260.359 302.248C318.359 319.138 267.513 338.931 239.333 305.333L251.485 296.652Z" fill="#FFB8B8"/>
<path d="M60.099 475.093V514.747L88.649 513.161L80.719 471.921L60.099 475.093Z" fill="#FFB8B8"/>
<path d="M218.713 475.093V514.747L190.162 513.161L198.093 471.921L218.713 475.093Z" fill="#FFB8B8"/>
<path d="M131.475 270.481L174.301 268.895C273.095 372.466 235.733 348.844 232.988 490.955L180.645 475.093L191.749 376.753C191.754 376.749 194.677 374.8 192.247 374.755C177.051 379.978 165.963 315.318 133.061 322.824C95.6205 321.033 89.5252 376.574 74.374 376.753L85.477 475.093L33.1343 490.955C27.2738 334.789 -1.44868 370.067 91.8216 268.895L131.475 270.481Z" fill="#2F2E41"/>
<path d="M68.0294 502.058C68.0294 502.058 61.6849 489.368 53.7542 495.713C45.8235 502.058 26.7898 521.091 26.7898 521.091C26.7898 521.091 -19.2084 541.711 9.3422 554.4C37.8927 567.089 61.6849 536.953 61.6849 536.953C88.8789 531.282 104.565 527.652 90.1431 497.989C81.9555 501.532 70.3688 505.634 68.0294 502.058Z" fill="#2F2E41"/>
<path d="M210.782 502.058C210.782 502.058 217.127 489.368 225.057 495.713C232.988 502.058 252.022 521.091 252.022 521.091C252.022 521.091 298.02 541.711 269.469 554.4C240.919 567.089 217.127 536.953 217.127 536.953C189.933 531.282 174.247 527.652 188.669 497.989C196.856 501.532 208.443 505.634 210.782 502.058Z" fill="#2F2E41"/>
<path d="M174.301 91.2472C171.942 130.733 118.053 127.256 117.2 91.2469C119.559 51.7617 173.448 55.238 174.301 91.2472Z" fill="#FFB8B8"/>
<path d="M133.061 111.867C146.937 153.805 114.177 130.972 160.026 164.21L177.473 129.314C177.473 129.314 164.784 124.556 166.37 107.108L133.061 111.867Z" fill="#FFB8B8"/>
<path d="M218.713 135.659L171.431 124.867C172.76 153.376 142.335 147.638 137.027 133.297L91.8215 159.451C110.795 230.118 105.987 233.034 80.7185 278.412C71.0752 287.218 85.497 292.265 98.0521 287.446C107.628 281.536 112.491 276.284 122.752 277.62C171.237 287.716 211.6 290.099 217.988 286.154C220.274 282.883 217.922 136.227 218.713 135.659Z" fill="#4C7FBE"/>
<path d="M206.024 138.831C207.61 138.831 215.78 134.99 215.78 134.99C239.551 134.589 255.503 294.486 256.78 299.032L240.919 310.135L215.541 245.103L206.024 138.831Z" fill="#4C7FBE"/>
<path d="M94.9939 324.41C95.8049 330.396 97.185 397.621 121.266 366.219C124.426 343.309 113.684 336.469 110.855 321.238L94.9939 324.41Z" fill="#FFB8B8"/>
<path d="M101.338 159.451L96.4785 156.757C83.4492 156.329 87.5555 190.818 82.0431 216.076C77.5397 245.5 78.8219 277.946 84.1054 321.323C84.5675 337.241 113.078 327.213 117.2 325.996C117.2 325.996 107.683 260.964 112.441 249.861C117.2 238.758 101.338 159.451 101.338 159.451Z" fill="#4C7FBE"/>
<path d="M173.053 63.5698C168.648 56.417 161.754 51.1462 153.696 48.7718L147.778 53.5063L150.079 47.984C148.144 47.6888 146.185 47.5756 144.229 47.6459L138.905 54.4923L141.108 47.8805C118.259 50.3339 104.741 76.5637 116.603 94.9213C118.433 89.2981 120.654 84.0216 122.483 78.3983C123.921 78.5943 125.379 78.6014 126.819 78.4194L129.045 73.2249L129.667 78.1997C136.567 77.5985 146.802 76.2787 153.344 75.0694L152.708 71.253L156.513 74.4244C158.517 73.963 159.707 73.5447 159.609 73.2249C164.474 81.0681 169.295 86.0777 174.16 93.9208C176.007 82.8578 179.267 73.6618 173.053 63.5698Z" fill="#2F2E41"/>
<path d="M665.779 343.979H527.412V409.615H665.779V343.979Z" fill="white"/>
<path d="M639.614 357.727H553.578V365.597H639.614V357.727Z" fill="#E6E6E6"/>
<path d="M639.614 372.862H553.578V380.732H639.614V372.862Z" fill="#E6E6E6"/>
<path d="M639.614 387.997H553.578V395.867H639.614V387.997Z" fill="#E6E6E6"/>
<path d="M406.916 359.57L402.415 351.775L397.915 343.979L393.414 351.775L388.913 359.57H393.749V382.144H402.08V359.57H406.916Z" fill="white"/>
<path d="M711.888 520.193C732.356 520.193 748.948 503.601 748.948 483.133C748.948 462.665 732.356 446.073 711.888 446.073C691.42 446.073 674.828 462.665 674.828 483.133C674.828 503.601 691.42 520.193 711.888 520.193Z" fill="#3F3D56"/>
<path d="M718.627 499.557C727.697 499.557 735.051 492.204 735.051 483.133C735.051 474.062 727.697 466.708 718.627 466.708C709.556 466.708 702.202 474.062 702.202 483.133C702.202 492.204 709.556 499.557 718.627 499.557Z" fill="#E6E6E6"/>
<path d="M688.515 509.033L769.374 542.724L766.847 550.726L720.311 545.461L641.558 510.507L685.356 515.561L688.515 509.033Z" fill="#3F3D56"/>
<path d="M759.99 541.206L860.554 211.319L885.045 167.828L885.131 167.409C885.21 167.025 887.008 157.934 882.585 151.351C881.47 149.715 880.03 148.326 878.354 147.27C876.679 146.215 874.804 145.516 872.846 145.217C859.33 142.683 829.092 141.434 827.812 141.382L827.571 141.372L827.331 141.405C826.505 141.517 807.181 144.342 802.812 161.217L781.788 199.481L781.705 199.753L686.528 512.658L691.766 514.252L786.86 201.618L807.955 163.226L808.04 162.873C811.129 150.174 825.897 147.204 827.862 146.864C830.951 146.995 859.37 148.26 871.837 150.598C873.075 150.767 874.264 151.19 875.33 151.843C876.396 152.495 877.315 153.361 878.028 154.387C880.754 158.423 880.072 164.365 879.832 165.928L855.492 209.152L855.405 209.437L754.753 539.61L759.99 541.206Z" fill="#3F3D56"/>
<path d="M774.693 231.117L773.72 236.505L846.351 249.623L847.324 244.235L774.693 231.117Z" fill="#3F3D56"/>
<path d="M761.129 275.923L760.034 281.287L832.146 296.005L833.241 290.64L761.129 275.923Z" fill="#3F3D56"/>
<path d="M736.976 356.055L735.47 361.318L805.874 381.464L807.38 376.2L736.976 356.055Z" fill="#3F3D56"/>
<path d="M784.589 511.372L786.585 506.273L718.249 479.515L714.893 443.181L778.675 467.004L799.338 496.902L803.843 493.79L782.201 462.476L708.64 435L713.108 483.382L784.589 511.372Z" fill="#3F3D56"/>
<path d="M808.329 555.569C828.796 555.569 845.389 538.977 845.389 518.509C845.389 498.041 828.796 481.449 808.329 481.449C787.861 481.449 771.269 498.041 771.269 518.509C771.269 538.977 787.861 555.569 808.329 555.569Z" fill="#3F3D56"/>
<path d="M818.015 536.618C827.086 536.618 834.439 529.264 834.439 520.193C834.439 511.123 827.086 503.769 818.015 503.769C808.944 503.769 801.591 511.123 801.591 520.193C801.591 529.264 808.944 536.618 818.015 536.618Z" fill="#E6E6E6"/>
<path fill-rule="evenodd" clip-rule="evenodd" d="M617.26 394.846C615.068 397.333 612.424 399.413 609.458 400.959C602.785 404.434 594.379 404.909 587.361 402.227C584.115 400.986 581.168 399.136 578.664 396.817C573.28 391.833 570 384.319 570 376.999C570 362.088 582.088 350 597 350C611.912 350 624 362.088 624 376.999C624 379.333 623.703 381.598 623.147 383.757C622.191 387.468 619.754 392.018 617.26 394.846Z" fill="#92D669"/>
<path fill-rule="evenodd" clip-rule="evenodd" d="M623.854 378.612C623.798 378.613 623.746 378.416 623.734 378.372C623.728 378.348 623.708 378.267 623.702 378.109C623.697 377.934 623.717 377.902 623.71 377.798C623.7 377.633 623.637 377.523 623.607 377.454C623.471 377.147 623.657 376.898 623.671 376.425C623.686 375.884 623.464 375.437 623.431 375.443C623.414 375.446 623.435 375.567 623.447 375.866C623.454 376.027 623.451 376.073 623.447 376.569C623.441 377.327 623.45 376.917 623.447 377.407C623.445 377.704 623.442 377.816 623.479 377.989C623.532 378.24 623.585 378.22 623.631 378.428C623.671 378.611 623.642 378.676 623.575 379.41C623.559 379.581 623.551 379.667 623.551 379.713C623.546 380.073 623.63 380.155 623.591 380.383C623.55 380.617 623.456 380.564 623.423 380.798C623.395 380.994 623.455 381.07 623.423 381.397C623.418 381.448 623.413 381.481 623.423 381.485C623.455 381.496 623.601 381.18 623.72 380.902C623.845 380.039 623.929 379.163 623.97 378.275C623.933 378.467 623.902 378.61 623.854 378.612ZM623.016 371.972C622.956 371.976 622.911 372.313 622.944 372.626C622.989 373.042 623.173 373.431 623.239 373.416C623.314 373.399 623.247 372.865 623.208 372.626C623.197 372.564 623.097 371.965 623.016 371.972ZM613.471 360.072C613.366 360.117 613.207 360.085 613.152 359.992C613.063 359.844 613.328 359.682 613.295 359.418C613.256 359.094 612.813 358.969 612.864 358.795C612.888 358.714 613.005 358.67 613.088 358.667C613.351 358.658 613.587 359.046 613.647 359.37C613.688 359.596 613.678 359.984 613.471 360.072ZM608.583 362.171C608.572 362.252 608.419 362.286 608.373 362.297C608.234 362.328 608.149 362.298 607.84 362.237C607.567 362.183 607.493 362.178 607.415 362.219C607.397 362.229 607.297 362.281 607.266 362.386C607.204 362.592 607.466 362.792 607.404 362.871C607.369 362.916 607.263 362.882 607.248 362.877C607.055 362.816 607.017 362.555 607.014 362.536C607.011 362.513 606.999 362.407 607.05 362.285C607.064 362.252 607.124 362.11 607.248 362.051C607.375 361.991 607.446 362.077 607.816 362.153C608.08 362.207 608.214 362.233 608.325 362.159C608.393 362.114 608.437 362.044 608.499 362.057C608.547 362.068 608.589 362.124 608.583 362.171ZM602.753 362.38C602.731 362.382 602.675 362.385 602.537 362.345C602.4 362.305 602.331 362.285 602.328 362.249C602.324 362.208 602.405 362.163 602.471 362.147C602.565 362.125 602.643 362.159 602.741 362.201C602.811 362.231 602.92 362.279 602.914 362.321C602.907 362.368 602.759 362.38 602.753 362.38ZM602.795 363.123C602.782 363.188 602.703 363.232 602.639 363.236C602.545 363.242 602.454 363.162 602.447 363.087C602.44 363.011 602.523 362.993 602.525 362.913C602.528 362.795 602.349 362.75 602.358 362.638C602.362 362.578 602.418 362.523 602.447 362.53C602.477 362.537 602.475 362.607 602.489 362.674C602.545 362.929 602.821 362.991 602.795 363.123ZM602.142 363.123C602.113 363.141 602.068 363.143 602.034 363.123C601.973 363.085 602 362.998 601.974 362.776C601.957 362.626 601.937 362.598 601.962 362.542C602.011 362.434 602.152 362.387 602.172 362.41C602.194 362.436 602.054 362.524 602.064 362.656C602.072 362.748 602.145 362.755 602.178 362.883C602.197 362.956 602.207 363.082 602.142 363.123ZM601.538 366.343C601.509 366.411 601.382 366.437 601.13 366.487C600.737 366.564 600.607 366.529 600.55 366.511C600.522 366.502 600.439 366.472 600.346 366.409C600.209 366.314 600.212 366.254 600.125 366.187C599.902 366.016 599.606 366.205 599.472 366.038C599.449 366.009 599.416 365.951 599.395 365.882C599.376 365.822 599.378 365.791 599.371 365.72C599.346 365.495 599.284 365.434 599.329 365.373C599.364 365.325 599.418 365.345 599.448 365.29C599.468 365.254 599.457 365.226 599.448 365.14C599.442 365.077 599.442 365.027 599.442 364.989C599.425 364.987 599.412 364.982 599.407 364.972C599.392 364.948 599.424 364.898 599.437 364.9C599.446 364.902 599.443 364.932 599.442 364.989C599.547 365.003 599.832 364.897 599.826 364.847C599.821 364.811 599.682 364.834 599.484 364.733C599.404 364.692 599.359 364.653 599.341 364.637C599.263 364.568 599.236 364.509 599.197 364.452C599.125 364.346 599.096 364.37 598.874 364.182C598.745 364.073 598.785 364.09 598.587 363.913C598.529 363.862 598.469 363.809 598.401 363.721C598.355 363.661 598.331 363.631 598.317 363.596C598.251 363.429 598.367 363.283 598.305 363.23C598.271 363.201 598.235 363.244 598.156 363.225C598.048 363.198 597.951 363.078 597.958 362.973C597.961 362.92 597.987 362.923 598.06 362.787C598.13 362.657 598.118 362.633 598.168 362.584C598.208 362.545 598.254 362.526 598.347 362.488C598.458 362.444 598.475 362.455 598.545 362.416C598.606 362.382 598.589 362.375 598.688 362.303C598.812 362.213 598.839 362.224 598.892 362.159C598.919 362.126 598.931 362.1 598.97 362.075C599.014 362.046 599.059 362.042 599.083 362.039C599.361 362.013 599.592 362.045 599.592 362.045C599.673 362.057 599.714 362.063 599.754 362.075C599.825 362.098 599.987 362.15 600.041 362.279C600.08 362.37 600.025 362.409 600.071 362.5C600.106 362.569 600.176 362.624 600.251 362.644C600.371 362.676 600.432 362.598 600.502 362.638C600.587 362.686 600.611 362.864 600.55 362.913C600.482 362.968 600.308 362.864 600.179 362.787C599.96 362.657 599.883 362.542 599.784 362.572C599.747 362.583 599.755 362.599 599.664 362.686C599.534 362.809 599.486 362.807 599.419 362.889C599.394 362.919 599.306 363.026 599.317 363.135C599.33 363.27 599.485 363.298 599.772 363.506C600.068 363.72 600.245 363.848 600.281 364.044C600.289 364.09 600.297 364.181 600.364 364.266C600.42 364.337 600.509 364.395 600.538 364.374C600.553 364.362 600.544 364.333 600.538 364.284C600.528 364.198 600.53 364.036 600.592 364.003C600.652 363.971 600.761 364.064 600.801 364.098C600.915 364.196 600.894 364.253 600.993 364.314C601.076 364.365 601.121 364.343 601.172 364.404C601.216 364.455 601.239 364.537 601.208 364.571C601.19 364.593 601.155 364.591 601.13 364.589C600.935 364.579 600.823 364.572 600.735 364.607C600.725 364.611 600.637 364.648 600.586 364.739C600.541 364.819 600.526 364.938 600.574 364.972C600.614 365.001 600.661 364.942 600.777 364.942C600.863 364.942 600.973 364.975 600.987 365.032C600.995 365.067 600.966 365.108 600.921 365.17C600.879 365.228 600.858 365.236 600.861 365.254C600.869 365.303 601.033 365.266 601.148 365.337C601.296 365.429 601.218 365.607 601.358 365.936C601.463 366.182 601.578 366.248 601.538 366.343ZM596.104 364.27C595.993 364.366 595.602 364.541 595.49 364.461C595.378 364.382 595.043 364.589 595.003 364.557C594.963 364.525 594.532 364.533 594.508 364.422C594.484 364.31 594.189 364.366 594.181 364.262C594.173 364.158 593.734 364.286 593.702 364.11C593.67 363.935 592.928 364.094 592.625 364.318C592.322 364.541 591.875 364.533 591.691 364.469C591.508 364.406 590.941 363.983 591.029 363.927C591.116 363.871 591.029 363.631 591.156 363.592C591.284 363.552 591.332 363.416 591.308 363.328C591.284 363.24 591.308 363.208 591.428 363.145C591.547 363.081 591.428 362.985 591.476 362.881C591.523 362.778 591.627 362.921 591.691 362.849C591.755 362.778 591.747 362.809 591.835 362.77C591.923 362.73 591.835 362.634 591.835 362.49C591.835 362.346 591.873 362.231 592.018 362.323C592.21 362.442 592.202 362.235 592.377 362.171C592.553 362.107 592.505 362.171 592.593 362.267C592.681 362.363 592.713 362.379 592.92 362.37C593.128 362.363 593.59 362.355 593.766 362.259C593.942 362.163 593.902 362.179 594.221 362.083C594.54 361.987 594.532 362.035 594.796 361.948C595.059 361.86 595.251 361.964 595.147 362.011C595.043 362.059 594.644 362.227 594.732 362.323C594.82 362.418 594.74 362.355 594.628 362.442C594.516 362.53 594.437 362.666 593.918 362.658C593.399 362.65 593.742 362.602 593.343 362.474C592.944 362.346 592.96 362.506 592.952 362.698C592.944 362.889 593.032 363.153 593.367 363.049C593.702 362.945 593.615 363.009 593.71 362.833C593.806 362.658 593.998 362.881 594.309 362.809C594.62 362.738 594.357 362.921 594.844 363.097C595.33 363.272 595.123 363.28 595.482 363.568C595.841 363.855 595.817 363.639 596.104 363.831C596.392 364.022 596.216 364.174 596.104 364.27ZM592.481 388.676C592.397 388.532 592.314 388.269 592.314 388.269L592.05 387.814L591.93 387.407L591.835 386.964C591.835 386.964 591.883 386.772 591.835 386.485C591.835 386.485 592.002 386.676 592.05 386.844C592.098 387.012 592.074 387.311 592.074 387.538C592.074 387.766 592.05 387.814 592.361 387.885C592.673 387.957 592.481 387.981 592.577 388.28C592.673 388.58 592.721 388.448 592.768 388.915C592.816 389.382 592.565 388.819 592.481 388.676ZM593.104 384.948L593.423 384.677C593.423 384.677 593.766 384.685 593.894 384.765C593.894 384.765 594.014 384.988 594.285 384.98C594.556 384.972 594.061 385.1 594.006 385.435C593.95 385.771 593.926 385.499 593.814 385.619C593.702 385.738 593.79 385.731 593.838 385.834C593.886 385.938 593.838 385.946 593.774 386.058C593.71 386.169 593.67 386.106 593.367 386.09C593.084 386.075 593.121 386.178 593.127 386.192L593.128 386.194C593.128 386.194 593.127 386.193 593.127 386.192L592.912 385.731L592.84 385.315L593.104 384.948ZM594.571 390.435C594.499 390.603 594.31 390.411 594.478 390.675C594.645 390.938 594.754 390.902 594.754 391.07C594.754 391.237 594.695 391.609 594.528 391.273C594.36 390.938 594.514 391.178 594.365 390.747C594.217 390.316 594.205 390.651 594.205 390.124C594.205 389.597 594.217 389.705 594.133 389.526C594.049 389.346 594.044 389.346 594.044 389.346C594.308 389.334 594.41 389.526 594.41 389.526V389.825V390.064C594.41 390.064 594.643 390.268 594.571 390.435ZM622.749 372.426C622.749 372.426 622.665 371.979 622.681 371.708C622.697 371.437 622.904 370.862 622.505 369.889C622.106 368.915 621.871 368.635 621.823 368.252C621.775 367.869 621.643 368.061 621.224 367.331C620.805 366.6 620.973 366.6 621.021 366.329C621.069 366.058 620.925 366.217 620.781 366.09C620.638 365.962 620.622 365.978 620.622 366.042C620.622 366.106 620.526 366.185 620.478 366.154C620.43 366.121 620.287 365.786 620.287 365.786L620.111 365.595C619.935 365.403 619.856 365.451 619.951 365.292C620.047 365.132 619.967 365.196 619.951 365.036C619.935 364.877 619.856 364.717 619.856 364.573C619.856 364.43 620.031 364.797 620.127 364.924C620.223 365.052 620.255 365.164 620.414 365.419C620.457 365.488 620.366 364.956 620.366 364.956L620.494 365.004C620.622 365.052 620.606 365.307 620.734 365.499C620.861 365.691 620.877 365.786 621.005 365.882C621.133 365.978 621.085 365.898 621.085 365.802C621.085 365.707 621.085 365.579 620.957 365.355C620.829 365.132 620.797 365.1 620.574 364.557C620.351 364.015 620.542 364.047 619.935 363.041C619.329 362.035 618.371 360.71 617.733 360.104C617.094 359.497 617.142 359.593 616.807 359.258C616.472 358.923 615.833 358.364 615.418 357.933C615.003 357.502 615.035 357.566 615.243 357.63C615.45 357.694 615.929 357.774 614.955 357.103C613.982 356.433 612.108 354.958 612.054 354.869C612.001 354.779 611.881 354.862 611.731 354.743C611.581 354.623 611.27 354.509 611.019 354.462C610.767 354.414 610.354 354.186 610.342 354.168C610.33 354.15 609.989 354.114 609.271 354.156C608.553 354.198 609.427 354.252 609.642 354.318C609.858 354.384 609.696 354.468 609.492 354.473C609.289 354.479 609.109 354.36 608.936 354.312C608.762 354.264 608.259 354.18 608.259 354.18C608.259 354.18 607.745 354.012 607.523 353.947C607.302 353.881 607.302 353.929 607.212 353.953C607.122 353.977 607.26 354.037 607.212 354.055C607.164 354.072 607.038 354.043 606.895 354.037C606.751 354.03 606.93 353.953 606.895 353.941C606.859 353.929 606.374 353.935 606.021 353.917C605.668 353.899 605.722 353.845 605.542 353.719C605.362 353.594 605.386 353.791 605.458 353.887C605.53 353.983 605.506 354.012 605.171 354.019C604.836 354.025 605.039 353.988 605.087 353.953C605.135 353.917 605.171 353.881 605.213 353.713C605.255 353.546 605.111 353.516 605.069 353.498C605.027 353.48 604.961 353.444 604.752 353.42C604.542 353.396 604.297 353.378 604.057 353.378C603.818 353.378 603.489 353.205 603.225 353.193C602.962 353.18 603.154 353.246 603.154 353.264C603.154 353.282 603.142 353.312 602.729 353.468C602.316 353.623 602.567 353.45 602.37 353.468C602.172 353.486 601.837 353.587 601.837 353.587C601.837 353.587 601.945 353.761 602.112 353.869C602.28 353.977 602.022 353.911 601.795 353.911C601.567 353.911 601.603 353.917 601.322 354.003C601.041 354.09 601.657 354.078 601.98 354.294C602.304 354.509 601.759 354.348 601.442 354.18C601.125 354.012 601.083 354.144 601.083 354.144L600.861 354.228L601.262 354.419L601.286 354.545L600.951 354.437C600.951 354.437 600.801 354.366 600.544 354.24C600.286 354.114 600.729 354.468 600.729 354.468L600.963 354.743L601.214 354.88L601.514 354.904L602.022 355.06L602.37 355.407C602.37 355.407 601.957 355.269 601.807 355.186C601.657 355.102 601.603 355.066 601.526 355.072C601.449 355.078 601.418 355.108 601.424 355.186C601.43 355.263 601.514 355.335 601.526 355.443C601.538 355.551 601.358 355.593 601.358 355.593L601.041 355.599C601.041 355.599 600.909 355.479 600.957 355.407C601.005 355.335 601.196 355.294 601.196 355.294C601.196 355.294 601.214 355.234 601.166 355.036C601.119 354.839 601.113 354.988 600.789 354.773C600.466 354.557 600.46 354.509 600.46 354.509L600.282 354.276C600.104 354.043 600.113 354.228 599.754 354.066C599.395 353.905 599.586 354.084 599.556 354.258C599.526 354.431 599.401 354.437 599.532 354.593C599.664 354.749 599.556 354.683 599.622 354.737C599.688 354.791 599.909 354.839 600.167 354.922C600.424 355.006 600.179 355.048 600.125 355.066C600.071 355.084 599.508 354.892 599.508 354.892C599.508 354.892 599.143 354.761 598.814 354.707C598.485 354.653 598.73 354.689 598.413 354.665C598.096 354.641 598.269 354.635 598.036 354.605C597.802 354.575 598.078 354.713 598.233 354.755C598.389 354.797 598.622 354.833 598.622 354.833L598.652 354.964L598.443 355.09C598.233 355.216 598.305 355.09 598.227 354.91C598.15 354.731 597.904 355.06 597.904 355.06C597.904 355.06 597.868 355.06 597.515 355.096C597.162 355.132 597.407 355.084 597.353 354.928C597.3 354.773 597.312 354.91 597.24 354.952C597.168 354.994 597.066 354.994 596.863 355.006C596.659 355.018 596.815 355.012 596.444 355.174C596.073 355.335 596.324 355.329 596.324 355.329C596.324 355.329 596.306 355.383 596.24 355.467C596.174 355.551 596.091 355.497 595.701 355.395C595.312 355.294 595.779 355.3 595.779 355.3C595.779 355.3 595.911 355.21 595.953 355.102C595.995 354.994 595.552 355.054 595.552 355.054L595.294 355.192C595.294 355.192 595.372 355.425 595.396 355.539C595.42 355.653 595.42 355.719 595.103 355.551C594.786 355.383 594.864 355.611 594.816 355.665C594.768 355.719 594.606 355.772 594.558 355.85C594.51 355.928 594.714 356.126 594.714 356.126C594.714 356.126 594.522 356.149 594.367 356.131C594.211 356.113 594.205 356 593.972 355.916C593.738 355.832 593.816 355.958 593.864 356.036C593.912 356.113 594.079 356.173 594.157 356.227C594.235 356.281 594.121 356.293 593.918 356.293C593.714 356.293 593.756 356.251 593.643 356.209C593.529 356.167 593.481 356.131 593.457 356.066C593.433 356 593.367 355.994 593.367 355.868C593.367 355.742 593.445 355.826 593.331 355.683C593.218 355.539 593.193 355.605 593.008 355.551C592.822 355.497 592.942 355.479 593.002 355.401C593.062 355.323 593.349 355.587 593.547 355.641C593.744 355.694 593.828 355.688 593.978 355.688C594.127 355.688 594.187 355.688 594.385 355.67C594.582 355.653 594.558 355.641 594.684 355.527C594.81 355.413 594.75 355.425 594.762 355.395C594.774 355.365 594.612 355.216 594.612 355.216C594.612 355.216 594.307 355.084 594.115 355.036C593.924 354.988 593.738 354.862 593.457 354.844C593.175 354.826 593.241 354.803 593.062 354.785C592.882 354.767 592.948 354.761 592.828 354.701C592.709 354.641 592.834 354.611 592.75 354.569C592.667 354.527 592.397 354.647 592.451 354.509C592.505 354.372 592.343 354.545 592.284 354.545C592.224 354.545 592.146 354.462 591.943 354.444C591.739 354.426 591.847 354.468 591.703 354.485C591.559 354.503 591.452 354.527 591.35 354.569C591.248 354.611 591.194 354.635 591.08 354.623C590.967 354.611 590.967 354.803 590.829 354.785C590.692 354.767 590.805 354.719 590.71 354.677C590.614 354.635 590.602 354.671 590.578 354.677C590.554 354.683 590.482 354.826 590.368 354.844C590.254 354.862 590.338 354.833 590.225 354.844C590.111 354.857 590.195 354.898 590.135 354.952C590.075 355.006 590.021 354.952 589.991 354.928C589.961 354.904 589.854 354.91 589.811 354.928C589.77 354.946 589.662 354.958 589.578 354.982C589.494 355.006 589.47 355.03 589.105 355.174C588.74 355.317 589.141 355.222 589.261 355.186C589.381 355.15 589.482 355.15 589.482 355.15C589.482 355.15 589.818 355.054 589.883 355.054C589.949 355.054 589.836 355.126 589.722 355.168C589.608 355.21 589.686 355.18 589.56 355.251C589.435 355.323 589.56 355.251 589.375 355.341C589.189 355.431 589.075 355.515 588.818 355.736C588.561 355.958 588.603 355.844 588.543 355.91C588.483 355.976 588.225 356.036 587.914 356.245C587.603 356.455 587.998 356.233 588.142 356.233C588.285 356.233 587.824 356.347 587.872 356.395C587.92 356.443 587.758 356.467 587.729 356.341C587.699 356.215 587.639 356.383 587.579 356.317C587.519 356.251 587.435 356.383 587.435 356.443C587.435 356.503 587.322 356.425 587.214 356.503C587.106 356.58 587.082 356.533 587.046 356.628C587.01 356.724 586.867 356.586 586.867 356.7C586.867 356.814 586.639 356.772 586.639 356.772C586.639 356.772 586.465 356.874 586.382 356.927C586.298 356.981 586.31 357.149 586.31 357.149C586.31 357.149 586.25 357.233 586.136 357.269C586.023 357.305 586.118 357.311 586.172 357.352C586.226 357.394 586.214 357.401 586.208 357.442C586.202 357.484 586.124 357.484 586.011 357.496C585.897 357.508 585.969 357.58 586.083 357.604C586.196 357.628 586.148 357.628 586.094 357.706C586.04 357.783 586.017 357.724 585.933 357.825C585.849 357.927 586.073 357.965 586.073 357.965C586.073 357.965 586.184 358.061 586.44 358.069C586.695 358.077 586.671 357.917 586.767 357.813C586.863 357.71 586.926 357.774 587.038 357.742C587.15 357.71 587.126 357.654 587.198 357.566C587.27 357.478 587.246 357.638 587.302 357.718C587.358 357.797 587.326 357.774 587.278 357.869C587.23 357.965 587.23 357.989 587.23 358.077C587.23 358.165 587.262 358.212 587.286 358.364C587.31 358.516 587.326 358.5 587.318 358.58C587.31 358.659 587.254 358.619 587.166 358.627C587.078 358.636 587.166 358.739 587.166 358.939C587.166 359.138 587.27 358.939 587.453 358.931C587.637 358.923 587.549 358.931 587.621 358.859C587.693 358.787 587.621 358.816 587.653 358.688C587.685 358.561 587.884 358.702 587.884 358.702H588.251C588.443 358.702 588.415 358.469 588.411 358.373C588.407 358.277 588.503 358.227 588.539 358.099C588.575 357.972 588.579 358.048 588.662 357.936C588.746 357.825 588.702 357.911 588.762 357.895C588.822 357.879 588.932 357.76 588.979 357.731C589.027 357.7 589.027 357.7 589.129 357.682C589.231 357.664 589.129 357.574 589.129 357.574C589.129 357.574 589.171 357.538 589.213 357.508C589.255 357.478 589.273 357.454 589.297 357.395C589.321 357.335 589.237 357.275 589.237 357.275L589.069 357.155L589.117 356.927C589.117 356.927 589.297 356.694 589.339 356.676C589.381 356.658 589.417 356.634 589.614 356.491C589.811 356.347 589.806 356.395 589.937 356.359C590.069 356.323 590.231 356.233 590.231 356.233C590.231 356.233 590.44 356.173 590.488 356.137C590.536 356.101 590.464 356.024 590.452 355.97C590.44 355.916 590.536 355.904 590.578 355.874C590.62 355.844 590.65 355.891 590.733 355.802C590.817 355.712 590.853 355.932 590.853 355.932H591.194L591.344 355.945C591.344 355.945 591.368 356.038 591.326 356.068C591.284 356.098 590.919 356.196 590.919 356.196C590.919 356.196 590.614 356.448 590.428 356.49C590.243 356.532 590.254 356.574 590.171 356.652C590.087 356.73 590.171 356.888 590.171 356.888C590.171 356.888 590.099 357.007 590.033 357.132C589.967 357.258 590.131 357.323 590.187 357.351C590.243 357.379 590.594 357.403 590.594 357.403C590.594 357.403 590.733 357.395 590.937 357.391C591.14 357.387 591.029 357.374 591.228 357.311C591.428 357.247 591.755 357.199 591.755 357.199C591.755 357.199 591.998 357.263 592.146 357.347C592.294 357.43 591.927 357.442 591.875 357.442C591.823 357.442 591.627 357.542 591.627 357.542C591.627 357.542 591.515 357.546 591.396 357.542C591.276 357.538 591.212 357.506 591.021 357.506C590.829 357.506 590.805 357.538 590.677 357.574C590.55 357.61 590.53 357.646 590.462 357.734C590.394 357.821 590.524 357.945 590.62 358.005C590.715 358.065 590.62 358.053 590.59 358.107C590.56 358.161 590.566 358.184 590.422 358.328C590.279 358.472 590.356 358.316 590.261 358.25C590.165 358.184 590.099 358.107 589.955 358.107C589.811 358.107 589.68 358.394 589.644 358.418C589.608 358.442 589.596 358.55 589.596 358.55C589.596 358.55 589.482 358.699 589.482 358.819C589.482 358.939 589.496 358.979 589.496 358.979C589.496 358.979 589.464 359.043 589.377 359.049C589.289 359.054 589.201 359.082 589.201 359.082C589.201 359.082 589.137 359.202 589.129 359.234C589.121 359.266 589.089 359.242 588.994 359.25C588.898 359.258 588.77 359.234 588.746 359.218C588.722 359.202 588.786 359.074 588.586 359.05C588.387 359.027 588.267 359.218 588.028 359.266C587.788 359.314 587.435 359.43 587.393 359.43C587.351 359.43 587.34 359.376 587.28 359.274C587.22 359.172 587.178 359.196 587.16 359.202C587.142 359.208 587.088 359.202 586.95 359.238C586.813 359.274 586.903 359.256 586.699 359.352C586.496 359.447 586.621 359.37 586.567 359.37C586.514 359.37 586.526 359.37 586.376 359.298C586.226 359.226 586.334 359.268 586.298 359.214C586.262 359.16 586.208 359.1 586.208 359.1C586.208 359.1 586.071 359.094 586.017 359.1C585.963 359.106 585.993 359.142 585.975 359.226C585.957 359.31 585.909 359.31 585.795 359.394C585.682 359.477 585.682 359.441 585.466 359.507C585.251 359.573 585.298 359.615 585.298 359.615C585.298 359.615 585.262 359.585 585.149 359.555C585.035 359.525 585.029 359.561 584.921 359.585C584.814 359.609 584.742 359.651 584.586 359.747C584.431 359.843 584.562 359.801 584.484 359.944C584.407 360.088 584.341 360.04 584.161 360.142C583.982 360.244 583.778 360.411 583.64 360.429C583.503 360.447 583.509 360.459 583.365 360.471C583.221 360.483 583.191 360.716 583.191 360.716C583.191 360.716 583.12 360.836 583.042 360.908C582.964 360.98 582.886 360.896 582.826 360.908C582.766 360.92 582.701 360.95 582.677 361.004C582.653 361.058 582.677 361.058 582.617 361.183C582.557 361.309 582.581 361.177 582.509 361.165C582.437 361.153 582.347 361.159 582.33 361.111C582.312 361.064 582.347 361.064 582.353 361.004C582.359 360.944 582.294 360.992 582.186 361.034C582.078 361.076 582.144 361.183 582.114 361.305C582.084 361.426 582.058 361.429 581.843 361.437C581.627 361.445 581.739 361.413 581.739 361.349C581.739 361.285 581.683 361.309 581.619 361.309C581.555 361.309 581.38 361.381 581.308 361.397C581.236 361.413 581.124 361.588 581.124 361.588C581.124 361.588 581.284 361.676 581.396 361.676C581.508 361.676 581.499 361.804 581.515 361.836C581.531 361.868 581.531 362.003 581.531 362.003C581.531 362.003 581.492 362.139 581.523 362.219C581.555 362.299 581.691 362.363 581.603 362.434C581.515 362.506 581.587 362.514 581.587 362.65C581.587 362.786 581.523 362.53 581.452 362.602C581.38 362.674 581.444 362.682 581.412 362.857C581.38 363.033 581.38 362.993 581.356 363.177C581.332 363.36 580.989 363.624 580.989 363.624H580.785C580.737 363.624 580.606 363.55 580.402 363.526C580.199 363.502 580.402 363.492 579.983 363.432C579.564 363.372 579.42 363.43 579.42 363.43L579.133 363.627C579.133 363.627 578.93 363.898 578.822 363.994C578.714 364.09 578.738 364.244 578.678 364.459C578.618 364.675 578.57 364.674 578.499 364.854C578.427 365.033 578.439 365.009 578.104 365.368C577.768 365.727 578.116 365.679 577.924 365.87C577.732 366.062 578.032 366.194 578.283 366.205C578.535 366.218 578.439 366.361 578.475 366.577C578.511 366.792 578.642 366.66 578.786 366.565C578.93 366.469 578.894 366.505 578.966 366.505C579.037 366.505 579.109 366.564 579.253 366.6C579.397 366.636 579.456 366.6 579.492 366.481C579.528 366.361 579.648 366.457 579.648 366.457C579.648 366.457 579.851 366.433 579.875 366.277C579.899 366.122 579.935 366.193 579.959 366.157C579.983 366.122 580.294 366.074 580.294 366.074C580.294 366.074 580.414 365.978 580.414 365.834C580.414 365.691 580.486 365.75 580.642 365.655C580.797 365.559 580.63 365.356 580.642 365.236C580.654 365.116 580.701 365.212 580.797 365.176C580.893 365.14 580.833 365.151 580.833 365.151L580.845 365.162H581.12C581.372 365.162 581.216 364.816 581.216 364.816C581.216 364.816 581.216 364.727 581.24 364.643C581.264 364.559 581.396 364.58 581.432 364.556C581.468 364.532 581.515 364.525 581.659 364.525C581.803 364.525 581.851 364.419 581.851 364.419C581.851 364.419 581.934 364.283 581.97 364.235C582.006 364.187 582.162 364.137 582.162 364.137C582.162 364.137 582.21 364.016 582.246 363.956C582.282 363.896 582.258 363.86 582.282 363.716C582.306 363.572 582.294 363.632 582.365 363.584C582.437 363.536 582.437 363.548 582.581 363.44C582.725 363.333 582.581 363.44 582.713 363.428C582.844 363.416 582.928 363.524 582.928 363.524C582.928 363.524 583.048 363.56 583.263 363.62C583.479 363.68 583.407 363.679 583.491 363.596C583.575 363.512 583.688 363.464 583.748 363.392C583.808 363.32 583.796 363.374 583.928 363.29C584.059 363.207 583.97 363.272 584.035 363.189C584.101 363.105 584.071 363.141 584.269 363.123C584.466 363.105 584.454 363.021 584.52 363.105C584.586 363.189 584.634 363.218 584.754 363.243C584.873 363.267 584.772 363.35 584.772 363.446C584.772 363.542 584.784 363.59 584.85 363.763C584.915 363.937 584.975 363.961 585.125 364.027C585.274 364.093 585.208 364.104 585.334 364.326C585.46 364.547 585.496 364.404 585.711 364.422C585.927 364.44 585.825 364.637 585.963 364.673C586.101 364.709 586.065 364.727 586.065 364.817C586.065 364.907 586.065 364.966 586.238 364.948C586.412 364.931 586.418 365.257 586.418 365.29C586.418 365.323 586.469 365.487 586.364 365.55C586.259 365.613 586.25 365.622 586.211 365.7C586.172 365.777 586.148 365.745 586.133 365.798C586.118 365.852 586.175 365.876 586.232 365.864C586.289 365.852 586.331 365.78 586.436 365.742C586.54 365.703 586.558 365.613 586.558 365.613C586.558 365.613 586.599 365.547 586.767 365.475C586.934 365.403 586.855 365.387 586.855 365.387L586.783 365.156C586.783 365.156 586.711 365.052 586.647 364.972C586.583 364.893 586.735 364.797 586.735 364.797L587.03 364.821C587.03 364.821 587.102 364.909 587.182 364.98C587.262 365.052 587.294 365.076 587.342 365.076C587.389 365.076 587.461 364.988 587.461 364.988C587.461 364.988 587.461 364.932 587.182 364.637C586.903 364.342 587.054 364.549 586.926 364.478C586.799 364.406 586.639 364.318 586.639 364.318C586.639 364.318 586.623 364.246 586.639 364.134C586.655 364.023 586.464 364.142 586.464 364.142C586.464 364.142 586.352 364.134 586.288 364.102C586.224 364.071 586.136 363.975 586.136 363.975C586.136 363.975 586.065 363.895 585.953 363.807C585.841 363.719 585.953 363.743 585.953 363.687C585.953 363.632 585.961 363.616 585.961 363.504C585.961 363.392 585.905 363.408 585.777 363.336C585.649 363.265 585.57 363.145 585.622 363.009C585.674 362.873 585.753 362.889 585.622 362.738C585.49 362.586 585.745 362.666 586.025 362.682C586.304 362.698 586.041 362.833 586.128 362.953C586.216 363.073 586.208 362.865 586.368 362.786C586.527 362.706 586.448 362.738 586.472 362.865C586.496 362.993 586.512 363.033 586.535 363.225C586.559 363.416 586.647 363.392 586.895 363.44C587.142 363.488 587.038 363.536 587.166 363.672C587.294 363.807 587.373 363.767 587.469 363.863C587.565 363.959 587.549 363.927 587.74 364.047C587.932 364.166 587.82 364.158 587.892 364.222C587.964 364.286 587.884 364.318 587.82 364.406C587.757 364.493 587.844 364.493 587.677 364.581C587.509 364.669 587.605 364.821 587.645 364.765C587.685 364.709 587.804 364.725 587.74 364.805C587.677 364.885 587.788 364.893 587.876 365.012C587.964 365.132 587.884 365.076 587.972 365.188C588.06 365.3 588.028 365.284 588.052 365.363C588.076 365.443 588.084 365.443 588.179 365.587C588.275 365.731 588.331 365.667 588.379 365.675C588.427 365.683 588.483 365.675 588.603 365.651C588.722 365.627 588.834 365.699 588.834 365.699C588.834 365.699 589.018 365.707 589.065 365.746C589.113 365.786 589.249 366.034 589.249 366.034C589.249 366.034 589.369 366.082 589.369 365.978C589.369 365.874 589.345 365.882 589.377 365.81C589.409 365.739 589.488 365.762 589.48 365.683C589.472 365.603 589.393 365.499 589.393 365.499C589.393 365.499 589.281 365.347 589.201 365.204C589.121 365.06 588.962 365.028 588.922 364.845C588.882 364.661 589.073 364.701 589.057 364.757C589.041 364.813 589.129 364.932 589.289 364.893C589.448 364.853 589.385 364.813 589.329 364.701C589.273 364.589 589.448 364.725 589.528 364.629C589.608 364.533 589.616 364.597 589.712 364.621C589.808 364.645 589.808 364.573 589.872 364.534C589.935 364.495 590.095 364.605 590.095 364.605C590.095 364.605 590.215 364.645 590.318 364.701C590.422 364.757 590.422 364.749 590.518 364.741C590.614 364.733 590.677 364.709 590.861 364.589C591.045 364.47 590.909 364.581 591.116 364.589C591.324 364.597 591.324 364.589 591.563 364.589C591.803 364.589 591.699 364.677 591.667 364.693C591.635 364.709 591.611 364.685 591.468 364.693C591.324 364.701 591.444 364.904 591.436 364.983C591.428 365.062 591.14 365.162 591.14 365.162H590.67C590.39 365.162 590.518 364.976 590.438 365.008C590.358 365.039 590.326 364.99 590.191 365.134C590.055 365.277 590.215 365.193 590.374 365.201C590.534 365.209 590.478 365.202 590.47 365.282C590.462 365.362 590.462 365.351 590.534 365.415C590.606 365.478 590.566 365.465 590.542 365.545C590.518 365.624 590.318 365.598 590.318 365.598C590.318 365.598 590.159 365.668 590.215 365.756C590.27 365.844 590.406 365.771 590.622 365.819C590.837 365.867 590.674 366.092 590.655 366.194C590.638 366.296 590.697 366.319 590.907 366.319C591.116 366.319 591.063 366.349 591.134 366.451C591.206 366.553 591.224 366.427 591.35 366.487C591.476 366.547 591.35 366.666 591.487 366.666C591.625 366.666 591.685 366.672 591.883 366.696C592.08 366.72 591.949 366.636 591.972 366.481C591.996 366.325 592.134 366.343 592.373 366.475C592.613 366.607 592.679 366.72 592.744 366.738C592.811 366.756 593.044 366.732 593.122 366.732C593.2 366.732 593.427 366.571 593.66 366.451C593.894 366.331 593.786 366.451 593.99 366.517C594.193 366.582 594.073 366.445 594.205 366.391C594.337 366.337 594.205 366.541 594.217 366.66C594.229 366.78 594.205 366.75 594.169 366.858C594.133 366.966 594.127 366.989 594.229 367.001C594.331 367.014 594.163 367.163 594.229 367.337C594.295 367.51 594.187 367.486 594.139 367.618C594.091 367.75 593.9 368.067 593.894 368.312C593.888 368.558 593.732 368.875 593.636 368.965C593.541 369.055 593.487 369.007 593.14 369.043C592.793 369.078 592.804 369.025 592.715 369.049C592.625 369.072 592.577 369.031 592.577 368.917C592.577 368.803 592.439 368.953 592.29 368.881C592.14 368.809 592.194 368.905 591.996 368.905C591.799 368.905 591.978 368.995 591.865 368.995C591.751 368.995 591.811 368.995 591.595 369.138C591.38 369.282 591.487 369.15 591.033 369.09C590.578 369.031 590.865 369.114 590.458 368.971C590.051 368.827 590.171 368.875 589.764 368.875C589.357 368.875 589.704 368.863 589.668 368.66C589.632 368.456 589.668 368.66 589.488 368.588C589.309 368.516 589.273 368.6 588.902 368.564C588.531 368.528 588.842 368.516 588.818 368.444C588.794 368.372 588.782 368.348 588.65 368.276C588.519 368.205 588.483 368.276 588.196 368.276C587.908 368.276 587.968 368.324 587.705 368.444C587.441 368.564 587.465 368.731 587.489 368.875C587.513 369.019 587.537 369.126 587.525 369.282C587.513 369.438 587.154 369.581 586.759 369.378C586.364 369.174 586.328 369.067 586.124 369.067C585.921 369.067 585.682 368.839 585.622 368.683C585.562 368.528 585.442 368.468 585.43 368.42C585.418 368.372 584.855 368.312 584.855 368.312L584.245 368.205C584.245 368.205 584.137 368.169 583.982 368.109C583.826 368.049 583.802 367.989 583.634 367.69C583.467 367.391 583.838 367.391 583.838 367.391C583.838 367.391 583.886 367.307 584.173 367.043C584.46 366.78 584.101 366.888 584.005 366.684C583.91 366.481 584.125 366.541 584.293 366.385C584.46 366.229 584.209 366.265 584.053 366.337C583.898 366.409 583.958 366.401 583.898 366.245C583.838 366.09 583.575 366.393 583.575 366.393H583.168C583.168 366.393 582.856 366.329 582.533 366.485C582.21 366.64 582.258 366.483 582.114 366.399C581.97 366.315 581.671 366.488 580.989 366.5C580.306 366.512 579.959 367.041 579.712 367.113C579.464 367.185 579.392 367.156 579.313 367.06C579.233 366.964 578.938 367.09 578.938 367.09C578.938 367.09 578.626 367.104 578.618 366.825C578.61 366.546 578.315 366.888 578.243 367.287C578.171 367.686 577.701 367.87 577.302 368.062C576.902 368.254 576.601 369.204 576.511 369.593C576.422 369.983 575.937 370.467 575.674 370.503C575.41 370.539 575.213 370.868 575.141 371.102C575.069 371.335 574.967 371.287 574.824 371.527C574.68 371.766 574.482 372.221 574.381 372.335C574.279 372.448 574.291 372.424 574.261 372.55C574.231 372.676 574.153 372.951 573.938 373.418C573.722 373.885 573.764 374.142 573.782 374.298C573.8 374.454 573.902 374.705 573.77 374.729C573.638 374.753 573.752 374.903 573.794 375.274C573.836 375.645 573.776 376.345 573.752 376.465C573.728 376.585 573.716 376.794 573.71 376.968C573.704 377.141 573.393 377.291 573.519 377.524C573.644 377.758 573.74 377.913 573.656 378.039C573.572 378.165 573.656 378.446 573.656 378.446C573.656 378.446 573.692 378.572 573.722 378.721C573.752 378.871 573.842 378.943 573.914 378.895C573.985 378.847 573.997 378.931 573.974 379.033C573.95 379.134 573.95 379.176 574.015 379.296C574.081 379.416 574.105 379.338 574.165 379.404C574.225 379.47 574.171 379.518 574.291 379.655C574.41 379.793 574.404 379.913 574.518 379.972C574.632 380.032 574.638 380.224 574.691 380.35C574.744 380.475 574.716 380.439 574.698 380.577C574.68 380.715 574.698 380.661 574.734 380.798C574.77 380.936 574.817 380.96 574.925 381.056C575.033 381.152 574.889 381.205 575.069 381.283C575.248 381.361 575.159 381.337 575.231 381.475C575.302 381.613 575.32 381.583 575.53 381.738C575.739 381.894 575.751 381.972 575.889 382.265C576.027 382.558 576.392 382.642 576.541 382.732C576.691 382.822 576.655 382.666 576.679 382.618C576.703 382.57 576.823 382.516 576.823 382.516C576.823 382.516 576.883 382.385 576.99 382.373C577.098 382.361 577.158 382.331 577.318 382.291C577.477 382.251 577.589 382.307 577.796 382.347C578.004 382.387 577.924 382.355 578.028 382.363C578.131 382.371 578.092 382.371 578.267 382.458C578.443 382.546 578.347 382.482 578.451 382.475C578.555 382.466 578.523 382.411 578.57 382.323C578.618 382.235 578.658 382.291 578.762 382.235C578.866 382.179 578.85 382.179 578.985 382.083C579.121 381.988 579.185 382.02 579.289 382.023C579.392 382.028 579.456 382.004 579.472 381.9C579.488 381.796 579.558 381.84 579.6 381.792C579.642 381.744 579.672 381.756 579.774 381.762C579.875 381.768 579.935 381.726 579.935 381.726C579.935 381.726 580.019 381.714 580.103 381.714C580.187 381.714 580.258 381.78 580.258 381.666C580.258 381.553 580.378 381.607 580.336 381.666C580.294 381.726 580.438 381.666 580.504 381.666C580.57 381.666 580.576 381.666 580.803 381.852C581.031 382.037 580.941 382.044 580.977 382.097C581.013 382.151 581.043 382.211 581.12 382.163C581.198 382.115 581.096 382.283 581.12 382.385C581.144 382.486 581.12 382.433 581.168 382.522C581.216 382.612 581.258 382.618 581.354 382.708C581.45 382.798 581.462 382.786 581.539 382.756C581.617 382.726 581.665 382.756 581.749 382.732C581.833 382.708 581.803 382.648 581.887 382.732C581.97 382.816 581.93 382.658 581.97 382.618C582.01 382.578 582.018 382.658 582.194 382.65C582.369 382.642 582.282 382.578 582.282 382.498C582.282 382.419 582.377 382.626 582.481 382.658C582.585 382.69 582.601 382.778 582.577 382.85C582.553 382.921 582.713 382.945 582.856 382.945C583 382.945 582.936 383.113 583.032 383.185C583.128 383.257 583.096 383.233 583.072 383.352C583.048 383.472 583.096 383.696 583.024 383.815C582.952 383.935 583.04 383.911 583.008 384.079C582.976 384.246 583.024 384.302 583.032 384.589C583.04 384.877 582.91 385.306 582.826 385.425C582.743 385.545 582.952 385.491 583.036 385.575C583.12 385.659 583.15 385.665 583.299 385.826C583.449 385.988 583.419 386.186 583.533 386.191C583.646 386.197 583.736 386.234 583.736 386.359C583.736 386.485 583.85 386.485 584.053 386.688C584.257 386.892 584.353 387.012 584.496 387.215C584.64 387.419 584.508 387.383 584.7 387.61C584.891 387.838 585.059 388.221 585.215 388.46C585.37 388.7 585.55 388.843 585.37 389.035C585.191 389.226 585.394 389.178 585.683 389.442C585.972 389.705 586.112 390.328 585.993 390.531C585.873 390.735 585.705 390.818 585.686 391.166C585.667 391.513 585.741 391.86 585.693 392.051C585.646 392.243 585.849 392.542 585.849 392.542C585.849 392.542 585.897 392.746 586.101 393.081C586.304 393.416 587.082 394.17 587.405 394.446C587.729 394.721 587.645 395.068 587.884 395.439C588.124 395.811 588.435 396.23 588.686 396.541C588.938 396.852 588.974 396.744 589.165 396.936C589.357 397.127 590.075 397.929 590.159 398.061C590.243 398.193 590.015 398.181 590.159 398.336C590.302 398.492 590.338 398.6 590.47 398.564C590.602 398.528 590.542 398.588 590.71 398.673C590.877 398.758 590.829 398.696 590.973 398.612C591.116 398.528 591.08 398.6 591.284 398.66C591.488 398.72 591.332 398.564 591.452 398.48C591.571 398.396 591.559 398.48 591.655 398.504C591.751 398.528 591.775 398.528 591.847 398.555C591.918 398.582 591.907 398.552 592.098 398.54C592.29 398.528 592.098 398.54 592.218 398.552C592.337 398.564 592.29 398.54 592.314 398.48C592.337 398.42 592.481 398.42 592.481 398.42L592.84 398.289C592.84 398.289 592.948 398.169 593.068 397.977C593.187 397.786 593.148 397.734 593.347 397.694C593.547 397.654 593.383 397.59 593.439 397.482C593.495 397.375 593.531 397.311 593.615 397.123C593.698 396.936 593.714 396.9 593.87 396.888C594.025 396.876 593.924 396.804 593.901 396.702C593.879 396.601 593.948 396.541 594.068 396.355C594.187 396.17 594.046 396.234 594.061 396.018C594.077 395.803 594.061 396.018 593.942 395.89C593.822 395.763 594.006 395.699 594.006 395.699L594.213 395.539L594.676 395.451L594.812 395.364C594.812 395.364 594.86 395.212 594.836 395.14C594.812 395.068 594.804 394.933 594.804 394.933C594.804 394.933 594.851 394.773 594.851 394.701C594.851 394.629 594.836 394.597 594.772 394.51C594.708 394.422 594.772 394.446 594.796 394.294C594.82 394.143 594.636 393.927 594.588 393.76C594.54 393.592 594.588 393.68 594.716 393.568C594.844 393.456 594.78 393.464 594.867 393.376C594.955 393.289 595.027 393.225 595.211 393.113C595.394 393.001 595.043 393.153 595.294 392.913C595.546 392.674 595.354 392.818 595.689 392.626C596.025 392.435 596.12 392.47 596.12 392.47L596.396 392.255L596.659 392.051L596.743 391.752L596.922 391.597C596.922 391.597 596.934 391.501 596.874 391.297C596.815 391.094 596.767 390.974 596.791 390.184C596.814 389.394 596.79 389.992 596.718 389.681C596.646 389.37 596.718 389.681 596.502 389.514C596.287 389.346 596.525 389.202 596.501 388.987C596.477 388.771 596.33 388.46 596.33 388.46C596.33 388.46 596.274 388.245 596.37 388.101C596.466 387.957 595.948 388.005 595.948 388.005V387.431V387.143L596.369 386.833C596.369 386.833 596.608 386.524 596.632 386.356C596.656 386.189 596.708 386.24 596.923 386.024C597.139 385.808 596.934 386.03 596.982 385.886C597.03 385.743 597.315 385.755 597.315 385.755C597.315 385.755 597.563 385.683 597.707 385.276C597.707 385.276 598.154 384.653 598.585 384.27C599.016 383.887 599.4 383.719 600.645 382.283C601.89 380.846 601.85 379.498 601.835 379.099C601.819 378.699 601.483 379.115 601.34 379.226C601.196 379.338 600.829 379.242 600.414 379.306C599.999 379.37 599.568 379.466 599.568 379.466C599.568 379.466 599.057 379.545 598.754 379.545C598.451 379.545 598.291 379.322 598.291 378.779C598.291 378.237 597.429 377.726 597.429 377.726L596.328 376.992C596.328 376.992 596.185 376.545 596.073 376.082C595.961 375.619 595.945 375.619 595.514 375.3C595.083 374.98 595.099 374.741 595.115 374.23C595.131 373.72 594.935 373.628 594.792 373.508C594.648 373.388 594.325 373.089 594.289 372.933C594.253 372.778 594.265 372.802 594.361 372.646C594.457 372.49 594.121 372.191 594.121 372.191C594.121 372.191 593.918 371.916 593.774 371.533C593.631 371.15 593.643 371.281 593.391 370.659C593.14 370.036 592.936 370.024 592.793 369.749C592.649 369.474 593.643 370.79 593.643 370.551C593.643 370.312 593.798 370.072 593.942 369.821C594.085 369.569 593.894 370.192 593.81 370.479C593.726 370.767 594.073 370.778 594.073 370.778L594.756 371.449C594.756 371.449 594.804 371.88 595.295 372.478C595.785 373.077 595.654 372.897 595.881 373.328C596.109 373.759 595.905 373.711 596.18 374.166C596.456 374.621 596.695 374.573 596.971 375.052C597.246 375.531 597.366 375.818 597.629 376.166C597.892 376.513 597.809 376.573 597.809 376.752C597.809 376.932 597.844 377.423 597.916 377.59C597.988 377.758 598.228 378.44 598.647 378.5C599.066 378.56 598.97 378.165 599.305 378.129C599.64 378.093 599.628 378.129 599.928 377.961C600.227 377.794 600.191 377.805 600.394 377.818C600.598 377.83 600.622 377.758 600.993 377.375C601.364 376.992 601.22 377.219 601.927 377.171C602.633 377.123 602.266 376.752 602.266 376.752C602.266 376.752 602.394 376.481 602.904 376.225C603.415 375.97 603.176 376.225 603.479 376.018C603.782 375.81 603.495 375.763 603.687 375.715C603.878 375.667 603.974 375.715 604.117 375.396C604.261 375.076 604.341 375.252 604.676 375.22C605.011 375.188 604.66 375.092 604.612 374.677C604.564 374.262 604.612 374.358 604.916 374.486C605.219 374.613 604.963 374.278 605.139 373.831C605.315 373.384 605.331 373.225 605.235 373.097C605.139 372.969 604.708 372.794 604.708 372.794C604.708 372.794 604.389 372.586 603.974 372.379C603.559 372.171 603.846 372.251 603.734 372.059C603.623 371.868 603.638 371.868 603.575 371.517C603.511 371.166 603.463 371.597 603.287 371.74C603.112 371.884 603.096 371.932 602.968 372.123C602.84 372.315 602.968 372.315 602.745 372.474C602.521 372.634 602.521 372.57 602.282 372.522C602.042 372.474 602.01 372.602 601.787 372.618C601.564 372.634 601.611 372.474 601.5 372.235C601.388 371.996 600.861 371.724 600.861 371.724L600.837 371.301L600.486 371.006C600.135 370.711 600.247 370.559 600.247 370.559L599.824 370.336C599.824 370.336 599.584 370.24 599.145 369.976C598.706 369.713 599.145 369.785 599.289 369.665C599.433 369.546 599.457 369.649 599.792 369.681C600.127 369.713 599.999 369.625 600.031 369.41C600.063 369.194 600.175 369.577 600.542 369.513C600.909 369.45 600.59 369.561 600.766 369.817C600.941 370.072 601.196 370.551 601.635 370.695C602.074 370.838 602.026 370.998 602.026 370.998C602.026 370.998 602.13 371.11 602.465 371.189C602.801 371.269 602.761 371.229 603.335 371.118C603.91 371.006 603.726 371.174 604.03 371.613C604.333 372.051 604.197 371.692 605.203 371.884C605.386 371.919 605.509 371.939 605.59 371.949C605.583 371.961 605.59 371.98 605.626 372.011C605.841 372.203 605.953 371.94 605.953 371.94C605.953 371.94 606.033 372.02 606.089 372.02C606.145 372.02 606.496 371.844 606.823 371.828C607.15 371.812 607.573 371.66 607.813 371.828C608.052 371.996 607.996 372.131 608.196 372.075C608.395 372.02 608.355 372.283 608.499 372.618C608.643 372.953 608.89 372.69 608.89 372.69C608.89 372.69 608.914 372.873 608.994 372.961C609.074 373.049 609.329 373.177 609.6 373.145C609.872 373.113 609.768 373.177 609.696 373.241C609.624 373.304 609.505 373.44 609.289 373.376C609.074 373.312 609.329 373.68 609.784 374.095C610.239 374.51 610.191 374.19 610.51 374.134C610.829 374.078 610.59 373.72 610.646 373.448C610.702 373.177 610.821 373.775 610.766 374.111C610.71 374.446 610.893 374.525 611.005 374.829C611.117 375.132 611.013 375.363 611.396 376.465C611.779 377.566 612.561 380.032 612.833 380.487C613.104 380.942 613.128 380.775 613.295 380.543C613.463 380.312 613.639 380.336 613.639 380.336C613.639 380.336 613.639 380.16 613.679 380.056C613.718 379.952 613.726 379.889 613.95 379.713C614.173 379.537 613.982 379.585 613.982 379.585C613.982 379.585 613.974 379.506 613.95 379.202C613.926 378.899 614.022 378.883 614.022 378.883L614.094 378.5C614.094 378.5 614.07 378.157 614.125 377.726C614.181 377.295 614.07 377.135 614.078 376.936C614.086 376.736 614.118 376.8 614.261 376.8C614.405 376.8 614.381 376.64 614.429 376.529C614.477 376.417 614.516 376.569 614.58 376.529C614.644 376.489 614.764 376.409 614.78 376.257C614.796 376.106 614.955 375.952 614.955 375.952C614.955 375.952 615.075 375.603 615.155 375.451C615.235 375.3 615.283 375.268 615.402 375.156C615.522 375.044 615.65 374.996 615.642 374.837C615.634 374.677 615.642 374.773 615.73 374.773C615.817 374.773 615.857 374.781 615.905 374.757C615.953 374.733 616.137 374.462 616.137 374.462C616.137 374.462 616.161 374.326 616.161 374.142C616.161 373.959 616.185 374.055 616.248 373.919C616.312 373.783 616.296 373.823 616.352 373.64C616.408 373.456 616.512 373.775 616.512 373.775L616.703 373.823L616.735 373.938L616.807 374.085H617.07L617.19 373.81C617.19 373.81 617.158 373.569 617.126 373.482C617.094 373.394 617.31 373.197 617.31 373.197L617.477 373.371C617.477 373.371 617.613 373.661 617.605 373.956C617.597 374.251 617.781 373.989 617.781 373.989C617.781 373.989 617.805 374.09 617.781 374.186C617.757 374.281 618.036 374.423 618.036 374.423L618.18 374.614L618.323 374.789C618.323 374.789 618.323 374.901 618.283 375.124C618.244 375.348 618.292 375.364 618.371 375.26C618.451 375.156 618.491 375.092 618.491 375.188C618.491 375.284 618.683 375.842 618.683 375.842C618.683 375.842 618.675 376.305 618.667 376.561C618.659 376.816 618.715 376.72 618.77 376.752C618.826 376.784 618.954 376.888 618.986 376.88C619.018 376.872 619.042 376.704 619.185 376.497C619.329 376.289 619.345 376.353 619.377 376.13C619.409 375.906 619.592 376.281 619.688 376.537C619.784 376.792 619.884 377.171 619.968 377.722C620.051 378.273 620.075 378.452 620.015 378.991C619.956 379.53 619.848 380.176 619.824 380.643C619.8 381.11 620.099 381.445 620.135 381.601C620.171 381.756 620.147 382.079 620.135 382.283C620.123 382.486 620.207 382.965 620.207 382.965C620.207 382.965 620.171 383.408 620.171 383.588C620.171 383.767 620.291 383.923 620.386 384.103C620.482 384.282 620.578 384.222 620.662 384.127C620.746 384.031 620.722 383.971 620.614 383.516C620.506 383.061 620.59 383.312 620.734 382.774C620.877 382.235 620.726 381.924 620.622 381.708C620.518 381.493 620.454 381.453 620.319 381.405C620.183 381.357 620.239 381.158 620.279 380.854C620.319 380.551 620.215 380.583 620.279 380.272C620.343 379.961 620.239 380.208 620.159 380.288C620.079 380.368 620.111 380.304 620.055 380.072C619.999 379.841 620.079 379.761 620.095 379.577C620.111 379.394 620.143 379.362 620.311 378.803C620.478 378.245 620.311 378.66 620.319 378.492C620.327 378.324 620.398 378.149 620.454 378.061C620.51 377.973 620.518 378.149 620.518 378.277C620.518 378.404 620.51 378.444 620.574 378.516C620.638 378.588 620.861 378.556 620.909 378.652C620.957 378.747 621.045 379.011 621.045 379.011C621.045 379.011 621.085 379.178 621.109 379.394C621.133 379.609 621.181 379.633 621.308 379.761C621.436 379.889 621.348 380.016 621.348 380.016L621.26 380.296C621.26 380.296 621.284 380.503 621.372 380.463C621.46 380.423 621.436 380.384 621.644 380.096C621.851 379.809 621.659 379.801 621.715 379.593C621.771 379.386 621.867 379.625 622.019 379.37C622.17 379.115 622.186 378.827 622.234 378.62C622.282 378.412 622.266 378.268 622.266 378.141C622.266 378.013 622.234 377.694 622.186 377.438C622.138 377.183 622.122 377.263 621.979 376.752C621.835 376.241 621.532 375.611 621.444 375.443C621.356 375.276 621.396 375.036 621.42 374.757C621.444 374.478 621.536 374.322 621.56 374.142C621.584 373.963 621.607 373.819 621.823 373.819C622.039 373.819 621.847 373.999 622.05 374.382C622.254 374.765 622.242 374.023 622.266 373.592C622.29 373.161 622.521 373.225 622.749 372.969C622.977 372.714 622.749 372.426 622.749 372.426ZM619.025 392.621C618.974 392.673 618.921 392.725 618.866 392.778C618.42 393.201 617.947 393.518 617.717 393.672C617.021 394.135 616.829 394.135 616.408 394.502C616.046 394.816 615.987 394.99 615.514 395.619C615.422 395.742 614.787 396.58 614.141 397.215C613.116 398.224 612.217 398.57 612.258 398.652C612.29 398.716 612.878 398.558 613.716 398.204C615.74 396.607 617.53 394.726 619.025 392.621ZM582.856 354.09C581.784 354.927 581.816 354.903 581.767 354.94C580.717 355.753 580.56 355.761 579.971 356.293C579.591 356.636 578.991 357.234 579.061 357.323C579.147 357.43 580.102 356.622 581.851 355.826C582.163 355.684 582.04 355.752 583.323 355.204C584.63 354.645 584.936 354.499 585.298 354.294C586.135 353.821 585.975 353.772 586.46 353.576C587.028 353.345 587.516 353.303 588.172 352.869C588.559 352.613 588.548 352.522 588.543 352.498C588.479 352.23 587.122 352.346 586.891 352.366C586.519 352.398 586.055 352.441 585.478 352.63C585.281 352.694 585.1 352.767 584.932 352.841C584.453 353.081 583.982 353.334 583.519 353.602C583.277 353.763 583.075 353.92 582.856 354.09ZM607.481 353.496C607.453 353.576 607.831 353.917 608.231 353.887C608.492 353.867 608.577 353.704 608.986 353.659C609.162 353.64 609.292 353.655 609.293 353.639C609.295 353.614 608.944 353.558 608.647 353.528C608.463 353.509 608.478 353.519 607.904 353.492C607.546 353.475 607.491 353.469 607.481 353.496ZM582.513 356.137C582.48 356.26 582.399 356.288 582.409 356.329C582.428 356.405 582.73 356.421 583.048 356.369C583.298 356.328 583.697 356.257 583.926 355.946C583.958 355.903 584.076 355.742 584.021 355.651C583.977 355.575 583.834 355.581 583.686 355.587C583.6 355.59 583.475 355.595 583.327 355.659C583.135 355.741 583.059 355.856 583.008 355.826C582.948 355.79 583.034 355.617 582.968 355.571C582.901 355.524 582.727 355.639 582.633 355.754C582.605 355.788 582.55 355.855 582.529 355.954C582.511 356.036 582.534 356.06 582.513 356.137ZM580.885 360.304C580.843 360.279 580.861 360.164 580.885 360.096C580.93 359.966 581.055 359.832 581.212 359.793C581.28 359.776 581.323 359.784 581.34 359.753C581.374 359.689 581.228 359.6 581.252 359.505C581.266 359.448 581.358 359.413 581.539 359.346C581.691 359.29 581.734 359.29 581.843 359.234C581.883 359.213 581.926 359.185 582.01 359.13C582.253 358.971 582.302 358.919 582.361 358.939C582.418 358.957 582.465 359.033 582.457 359.098C582.442 359.223 582.236 359.198 582.122 359.386C582.069 359.473 582.087 359.521 582.002 359.649C581.989 359.669 581.951 359.724 581.891 359.785C581.858 359.817 581.76 359.909 581.531 360.008C581.32 360.099 581.315 360.059 581.172 360.136C581 360.229 580.93 360.33 580.885 360.304ZM581.324 360.902C581.346 360.949 581.561 360.861 582.345 360.647C582.657 360.562 582.779 360.533 582.936 360.423C583.096 360.311 583.102 360.248 583.303 360.12C583.516 359.984 583.633 359.977 583.654 359.88C583.678 359.773 583.54 359.742 583.479 359.545C583.454 359.466 583.463 359.428 583.511 358.987C583.541 358.705 583.539 358.712 583.543 358.699C583.647 358.368 583.994 358.253 583.958 358.157C583.926 358.072 583.648 358.136 583.606 358.029C583.577 357.954 583.69 357.858 583.67 357.837C583.632 357.796 583.196 358.163 583.159 358.125C583.138 358.102 583.277 357.956 583.255 357.933C583.224 357.9 582.902 358.164 582.744 358.3C582.503 358.509 582.49 358.552 582.489 358.588C582.485 358.754 582.74 358.792 582.824 359.066C582.839 359.114 582.89 359.281 582.808 359.386C582.745 359.467 582.661 359.432 582.457 359.545C582.36 359.599 582.3 359.634 582.266 359.705C582.214 359.814 582.283 359.88 582.234 359.944C582.168 360.03 582.023 359.941 581.851 360.04C581.825 360.055 581.716 360.118 581.723 360.184C581.735 360.299 582.087 360.31 582.09 360.391C582.092 360.454 581.887 360.472 581.627 360.631C581.502 360.707 581.302 360.854 581.324 360.902ZM595.115 352.825C595.155 352.958 595.698 352.907 595.889 352.889C596.283 352.852 596.262 352.796 596.512 352.801C596.821 352.809 596.911 352.898 597.246 352.881C597.416 352.873 597.659 352.837 597.661 352.785C597.663 352.733 597.415 352.671 597.214 352.65C596.986 352.625 596.903 352.661 596.456 352.698C596.139 352.723 595.981 352.736 595.889 352.722C595.593 352.674 595.457 352.548 595.283 352.626C595.189 352.668 595.096 352.764 595.115 352.825ZM602.441 353.025C602.484 353.116 602.726 353.12 602.777 353.025C602.797 352.986 602.779 352.943 602.777 352.937C602.738 352.849 602.575 352.806 602.489 352.881C602.451 352.915 602.42 352.979 602.441 353.025ZM600.909 352.546C600.842 352.59 600.78 352.674 600.797 352.738C600.82 352.82 600.978 352.842 601.292 352.881C601.588 352.918 601.76 352.913 601.986 352.905C602.188 352.898 602.216 352.886 602.218 352.873C602.222 352.842 602.066 352.804 601.795 352.722C601.214 352.544 601.053 352.451 600.909 352.546ZM596.12 354.773C596.157 354.672 596.408 354.631 596.496 354.741C596.532 354.787 596.541 354.861 596.512 354.916C596.465 355.002 596.337 355.02 596.248 354.98C596.162 354.941 596.096 354.84 596.12 354.773ZM596.631 354.35C596.621 354.298 596.645 354.271 596.807 354.023C597.062 353.631 597.044 353.634 597.086 353.599C597.293 353.433 597.422 353.606 597.844 353.472C598.098 353.391 598.188 353.285 598.459 353.272C598.578 353.267 598.739 353.279 598.746 353.32C598.754 353.369 598.547 353.443 598.307 353.528C598.061 353.615 598.011 353.615 597.812 353.695C597.575 353.791 597.484 353.856 597.421 353.911C597.329 353.991 597.218 354.087 597.23 354.206C597.241 354.322 597.363 354.404 597.413 354.437C597.54 354.522 597.654 354.523 597.653 354.549C597.652 354.575 597.54 354.599 597.413 354.605C597.133 354.618 596.672 354.55 596.631 354.35ZM622.114 374.597C622.022 374.596 621.954 374.798 621.939 374.845C621.933 374.861 621.82 375.212 621.995 375.347C621.999 375.351 622.087 375.417 622.17 375.387C622.298 375.342 622.304 375.11 622.306 375.06C622.312 374.849 622.217 374.598 622.114 374.597ZM623.056 381.421C623.044 381.42 623.029 381.432 622.904 381.796C622.756 382.228 622.766 382.242 622.713 382.307C622.618 382.421 622.512 382.471 622.497 382.602C622.491 382.664 622.511 382.686 622.497 382.746C622.471 382.864 622.36 382.923 622.298 382.969C622.167 383.067 622.196 383.149 621.955 383.759C621.839 384.053 621.784 384.157 621.739 384.15C621.674 384.141 621.685 383.902 621.627 383.895C621.564 383.887 621.468 384.168 621.404 384.43C621.299 384.86 621.369 384.879 621.276 385.323C621.215 385.618 621.144 385.803 621.18 386.05C621.195 386.15 621.228 386.256 621.252 386.337C621.306 386.512 621.333 386.601 621.388 386.624C621.488 386.668 621.647 386.546 621.739 386.441C621.955 386.194 621.832 386.006 622.018 385.603C622.161 385.294 622.256 385.353 622.322 385.108C622.395 384.833 622.305 384.644 622.457 384.446C622.529 384.353 622.565 384.374 622.641 384.294C622.882 384.042 622.637 383.715 622.761 383.049C622.786 382.912 622.833 382.659 622.976 382.371C623.038 382.247 623.062 382.227 623.096 382.131C623.215 381.791 623.122 381.424 623.056 381.421ZM619.704 387.83C619.609 387.84 619.529 387.951 619.536 388.037C619.541 388.087 619.572 388.091 619.592 388.157C619.624 388.262 619.56 388.302 619.584 388.38C619.618 388.486 619.785 388.562 619.912 388.54C619.981 388.528 620 388.493 620.039 388.508C620.107 388.534 620.076 388.644 620.167 388.739C620.215 388.789 620.273 388.81 620.319 388.827C620.436 388.87 620.505 388.845 620.542 388.899C620.569 388.938 620.548 388.973 620.582 389.003C620.612 389.029 620.66 389.031 620.694 389.019C620.767 388.992 620.816 388.884 620.789 388.811C620.756 388.721 620.63 388.753 620.51 388.62C620.465 388.57 620.423 388.523 620.43 388.468C620.447 388.352 620.671 388.354 620.733 388.181C620.742 388.157 620.758 388.113 620.742 388.069C620.694 387.941 620.409 387.879 620.239 387.981C620.125 388.049 620.099 388.169 620.039 388.157C619.994 388.148 620 388.079 619.927 387.981C619.889 387.929 619.807 387.818 619.704 387.83ZM619.129 386.186C619.08 386.194 619.079 386.559 619.129 386.569C619.156 386.574 619.202 386.483 619.209 386.401C619.219 386.289 619.158 386.18 619.129 386.186ZM618.794 383.368C618.756 383.378 618.736 383.454 618.746 383.512C618.768 383.634 618.929 383.718 618.97 383.687C619.005 383.661 618.958 383.541 618.914 383.472C618.896 383.444 618.84 383.356 618.794 383.368ZM619.082 384.813C619.034 384.813 618.978 384.884 618.994 384.941C619.014 385.011 619.138 385.025 619.169 384.988C619.204 384.947 619.146 384.813 619.082 384.813ZM619.066 385.308C619.1 385.305 619.134 385.389 619.145 385.443C619.152 385.476 619.166 385.545 619.129 385.571C619.101 385.591 619.052 385.58 619.026 385.555C618.957 385.49 619.018 385.312 619.066 385.308ZM618.922 384.158C618.828 384.208 618.847 384.475 618.938 384.509C618.998 384.532 619.105 384.457 619.137 384.366C619.144 384.348 619.155 384.315 619.145 384.278C619.122 384.185 618.987 384.124 618.922 384.158ZM619.417 382.291C619.334 382.233 619.289 382.259 619.185 382.219C619.016 382.154 618.983 382.027 618.914 382.043C618.839 382.061 618.818 382.227 618.81 382.291C618.807 382.32 618.755 382.779 619.01 382.953C619.071 382.995 619.14 383.014 619.169 383.089C619.188 383.137 619.175 383.168 619.169 383.273C619.164 383.367 619.16 383.439 619.177 383.512C619.201 383.613 619.244 383.627 619.329 383.783C619.366 383.851 619.404 383.922 619.425 383.999C619.477 384.195 619.372 384.289 619.361 384.502C619.351 384.695 619.434 384.683 619.489 384.973C619.54 385.249 619.508 385.495 619.48 385.699C619.445 385.963 619.406 385.999 619.425 386.162C619.448 386.366 619.52 386.397 619.504 386.561C619.487 386.752 619.381 386.78 619.393 386.952C619.399 387.046 619.431 387.038 619.497 387.247C619.56 387.449 619.547 387.514 619.6 387.542C619.707 387.599 619.907 387.417 619.927 387.399C620.106 387.233 620.102 387.091 620.279 386.624C620.402 386.299 620.504 386.104 620.438 386.05C620.379 386.001 620.239 386.111 620.191 386.058C620.159 386.023 620.204 385.958 620.247 385.794C620.29 385.632 620.324 385.501 620.263 385.403C620.222 385.339 620.179 385.353 620.143 385.284C620.092 385.186 620.133 385.069 620.151 385.02C620.226 384.811 620.372 384.792 620.366 384.677C620.362 384.576 620.249 384.589 620.175 384.43C620.132 384.337 620.125 384.229 620.111 384.015C620.106 383.942 620.106 383.9 620.079 383.847C620.034 383.76 619.982 383.771 619.919 383.687C619.872 383.623 619.859 383.546 619.832 383.392C619.811 383.274 619.821 383.271 619.808 383.209C619.755 382.957 619.584 382.946 619.552 382.738C619.532 382.606 619.591 382.554 619.536 382.434C619.524 382.408 619.489 382.341 619.417 382.291ZM614.157 380.216C614.128 380.218 614.107 380.262 614.006 380.687C613.941 380.957 613.909 381.094 613.91 381.158C613.915 381.395 614 381.412 614.006 381.7C614.007 381.759 614.004 381.806 614.038 381.836C614.113 381.903 614.31 381.827 614.429 381.724C614.616 381.562 614.628 381.319 614.628 381.301C614.634 381.12 614.549 381.076 614.381 380.695C614.239 380.373 614.214 380.212 614.157 380.216ZM589.195 366.93C589.208 366.914 589.264 366.939 589.369 366.983C589.435 367.012 589.473 367.033 589.494 367.043C589.615 367.101 589.702 367.059 589.871 367.061C590.066 367.064 590.267 367.125 590.267 367.169C590.266 367.207 590.12 367.234 590.081 367.241C590.009 367.254 589.93 367.259 589.758 367.241C589.562 367.22 589.464 367.21 589.393 367.169C589.258 367.092 589.175 366.954 589.195 366.93ZM588.415 365.798C588.4 365.807 588.323 365.851 588.323 365.91C588.323 365.963 588.386 365.975 588.399 366.042C588.413 366.115 588.348 366.146 588.367 366.205C588.383 366.253 588.44 366.276 588.503 366.301C588.599 366.339 588.618 366.315 588.666 366.341C588.791 366.407 588.741 366.604 588.846 366.644C588.903 366.666 588.984 366.633 589.006 366.584C589.019 366.555 589.008 366.524 588.986 366.473C588.898 366.276 588.826 366.23 588.846 366.173C588.864 366.122 588.946 366.093 589.006 366.102C589.076 366.112 589.113 366.176 589.129 366.165C589.143 366.156 589.126 366.098 589.097 366.05C589.058 365.984 588.997 365.931 588.87 365.874C588.705 365.8 588.544 365.727 588.415 365.798ZM588.072 365.966C588.059 365.989 588.065 366.026 588.092 366.042C588.119 366.057 588.152 366.043 588.168 366.022C588.182 366.002 588.186 365.972 588.172 365.954C588.15 365.926 588.091 365.931 588.072 365.966ZM588.02 365.651C587.973 365.654 587.932 365.708 587.94 365.758C587.949 365.818 588.02 365.854 588.068 365.834C588.096 365.822 588.112 365.792 588.116 365.766C588.123 365.712 588.076 365.646 588.02 365.651ZM583.838 364.477C583.774 364.549 583.881 364.653 583.822 364.789C583.794 364.853 583.766 364.84 583.67 364.956C583.588 365.056 583.541 365.114 583.535 365.196C583.526 365.308 583.599 365.445 583.694 365.459C583.755 365.468 583.806 365.426 583.87 365.371C584.003 365.259 584.06 365.121 584.077 365.076C584.132 364.931 584.08 364.937 584.141 364.733C584.169 364.641 584.197 364.58 584.165 364.525C584.139 364.479 584.086 364.463 584.053 364.454C584.046 364.452 583.899 364.409 583.838 364.477ZM584.365 363.647C584.312 363.616 584.175 363.725 584.101 363.839C584.03 363.949 584.024 364.055 584.021 364.102C584.02 364.135 584.013 364.291 584.069 364.31C584.096 364.319 584.135 364.284 584.213 364.214C584.294 364.141 584.334 364.105 584.357 364.054C584.374 364.015 584.377 363.964 584.381 363.863C584.386 363.729 584.389 363.662 584.365 363.647ZM585.101 365.774C585.057 365.787 585.01 365.822 584.993 365.87C584.957 365.974 585.075 366.094 585.149 366.169C585.237 366.259 585.319 366.302 585.442 366.367C585.571 366.434 585.637 366.468 585.705 366.451C585.814 366.424 585.871 366.306 585.879 366.289C585.928 366.188 585.876 366.16 585.927 366.062C585.965 365.987 586.009 365.976 586.058 365.87C586.082 365.82 586.098 365.786 586.083 365.762C586.055 365.72 585.943 365.747 585.855 365.768C585.683 365.81 585.68 365.848 585.574 365.858C585.456 365.87 585.343 365.834 585.304 365.822C585.205 365.791 585.164 365.756 585.101 365.774ZM600.287 390.511C600.192 390.626 600.238 390.687 600.143 390.814C600.075 390.906 600.039 390.891 599.951 391.006C599.895 391.08 599.883 391.121 599.84 391.197C599.779 391.305 599.719 391.37 599.6 391.501C599.489 391.623 599.387 391.71 599.185 391.884C599.097 391.959 599.053 391.997 599.026 392.012C598.845 392.106 598.734 392.026 598.563 392.091C598.402 392.153 598.317 392.293 598.275 392.363C598.187 392.51 598.178 392.645 598.164 392.905C598.148 393.194 598.188 393.215 598.164 393.448C598.149 393.585 598.132 393.744 598.052 393.927C597.923 394.22 597.77 394.255 597.764 394.47C597.763 394.531 597.775 394.559 597.781 394.757C597.784 394.868 597.785 394.924 597.781 394.98C597.767 395.135 597.734 395.163 597.749 395.252C597.763 395.341 597.811 395.402 597.844 395.443C597.95 395.577 598.09 395.626 598.164 395.651C598.266 395.685 598.537 395.777 598.738 395.651C598.847 395.582 598.837 395.512 599.026 395.108C599.158 394.825 599.165 394.853 599.281 394.597C599.437 394.251 599.409 394.23 599.52 394.007C599.615 393.817 599.641 393.822 599.919 393.4C600.156 393.041 600.275 392.86 600.287 392.762C600.325 392.443 600.122 392.261 600.255 392.028C600.294 391.959 600.371 391.87 600.43 391.884C600.491 391.898 600.498 392.01 600.542 392.012C600.601 392.014 600.65 391.817 600.654 391.804C600.691 391.654 600.686 391.535 600.67 391.325C600.638 390.925 600.631 391.068 600.59 390.671C600.572 390.496 600.566 390.405 600.51 390.383C600.441 390.357 600.337 390.45 600.287 390.511Z" fill="#66C368"/>
<path fill-rule="evenodd" clip-rule="evenodd" d="M592.724 367.422H592.789C593.516 367.422 594.11 368.016 594.11 368.743V370.609C594.141 370.859 594.157 371.114 594.157 371.372C594.157 374.776 591.398 377.534 587.995 377.534C584.592 377.534 581.833 374.776 581.833 371.372C581.833 371.114 581.849 370.859 581.88 370.609V368.743C581.88 368.016 582.475 367.422 583.202 367.422H583.267H592.724ZM611.633 367.328H611.698C612.425 367.328 613.019 367.922 613.019 368.649V370.516C613.05 370.766 613.066 371.02 613.066 371.279C613.066 374.682 610.307 377.44 606.904 377.44C603.501 377.44 600.743 374.682 600.743 371.279C600.743 371.02 600.759 370.766 600.789 370.516V368.649C600.789 367.922 601.384 367.328 602.111 367.328H602.176H611.633Z" fill="white"/>
<path fill-rule="evenodd" clip-rule="evenodd" d="M588.19 370.059C588.817 370.059 589.419 370.308 589.862 370.751C590.305 371.195 590.554 371.796 590.554 372.423C590.554 372.89 590.416 373.347 590.156 373.736C589.896 374.125 589.527 374.428 589.095 374.607C588.663 374.786 588.188 374.832 587.729 374.741C587.271 374.65 586.85 374.425 586.519 374.094C586.188 373.764 585.963 373.343 585.872 372.884C585.781 372.425 585.828 371.95 586.007 371.518C586.186 371.086 586.488 370.717 586.877 370.457C587.266 370.198 587.723 370.059 588.19 370.059Z" fill="#1B1918"/>
<path fill-rule="evenodd" clip-rule="evenodd" d="M606.912 369.989C607.539 369.989 608.14 370.238 608.583 370.681C609.026 371.124 609.275 371.726 609.275 372.353C609.275 372.82 609.137 373.277 608.877 373.666C608.617 374.054 608.248 374.357 607.816 374.536C607.384 374.715 606.909 374.762 606.451 374.671C605.992 374.58 605.571 374.355 605.24 374.024C604.91 373.693 604.684 373.272 604.593 372.814C604.502 372.355 604.549 371.88 604.728 371.448C604.907 371.016 605.21 370.647 605.598 370.387C605.987 370.127 606.444 369.989 606.912 369.989Z" fill="#1B1918"/>
<path fill-rule="evenodd" clip-rule="evenodd" d="M597.043 376.702C596.843 376.487 596.855 376.15 597.07 375.949C597.286 375.749 597.623 375.761 597.823 375.976C597.953 376.116 598.111 376.253 598.282 376.383C598.46 376.518 598.655 376.645 598.85 376.76C599.053 376.811 599.245 376.847 599.399 376.834C599.508 376.823 599.61 376.78 599.698 376.681C599.815 376.514 599.88 376.289 599.782 376.164C599.377 375.658 599.079 375.271 598.819 374.895C598.558 374.517 597.923 373.53 597.701 373.102C597.567 372.841 597.669 372.519 597.93 372.385C598.191 372.25 598.513 372.353 598.647 372.614C598.849 373.004 599.462 373.955 599.693 374.29C600.173 374.985 600.9 375.565 600.846 376.471C600.829 376.744 600.751 377.044 600.557 377.31L600.539 377.333C600.236 377.705 599.878 377.86 599.49 377.894C599.169 377.92 598.855 377.86 598.542 377.779C598.486 377.768 598.432 377.748 598.38 377.719C598.133 377.578 597.878 377.413 597.64 377.233C597.422 377.068 597.217 376.888 597.043 376.702Z" fill="#1B1918"/>
<path fill-rule="evenodd" clip-rule="evenodd" d="M595.258 379.397C597.717 380.335 600.005 380.279 602.15 379.397C603.011 379.043 603.843 380.158 603.843 381.09C603.843 382.022 603.029 382.477 602.15 382.783C599.92 383.561 597.614 383.448 595.258 382.783C594.362 382.53 593.565 382.022 593.565 381.09C593.565 380.159 594.388 379.065 595.258 379.397Z" fill="#1B1918"/>
<path fill-rule="evenodd" clip-rule="evenodd" d="M601.904 382.865C600.561 383.294 599.19 383.405 597.798 383.272C598.12 382.396 598.962 381.772 599.95 381.772C600.777 381.772 601.501 382.209 601.904 382.865Z" fill="white"/>
</g>
<defs>
<clipPath id="clip0_110_2">
<rect width="885.558" height="557.519" fill="white"/>
</clipPath>
</defs>
</svg>
