<svg width="253" height="239" viewBox="0 0 253 239" fill="none" xmlns="http://www.w3.org/2000/svg">
<path d="M117.09 116.85V122.85L108.15 117.68V111.68L117.09 116.85Z" fill="#2A2C2B"/>
<path d="M246.183 110.066L245.498 109.668L216.037 92.6689L215.351 92.2714L126.503 41L105.149 53.3243L104.463 53.7219L31.0172 96.103L30.3315 96.5006L0 114L126.503 187L253 114L246.183 110.066ZM129.349 86.2257L135.48 89.7695V93.8822L129.349 90.3384V86.2257Z" fill="#A1A4A8"/>
<path d="M87.659 91.75V88.291L73.667 80.213L69.666 82.523V73.177L130.516 108.31V130.596L122.139 125.759V108.198L108.147 100.12L104.647 102.141V98.099L90.655 90.021L87.659 91.75Z" fill="#E6E2AF"/>
<path d="M108.147 100.12L122.139 108.198L118.124 110.516L104.133 102.438L104.647 102.141L108.147 100.12Z" fill="#50CC6C"/>
<path d="M197.5 110.5L129.17 150.76L40.06 99.31L66.19 83.41V92.22L68.35 93.47L65.92 94.87V98.5L68.4 99.94L69.65 99.21V100.09L70.68 100.69L72.61 99.57V98.38L73.67 97.77L76.35 99.33L76.47 99.26L79.38 100.94V101.07L82.61 102.8L84.98 107.4L86.64 106.44V109.9L87.67 110.5L89.6 109.38V108.19L90.66 107.58L99.6 112.75V117.38L100.63 117.98L104.13 115.96V120L105.16 120.59L107.09 119.48V118.29L108.15 117.68L117.09 122.85V127.48L118.12 128.08L122.14 125.76L130.52 130.6L131.59 129.98L142.48 136.27L191.95 107.72V107.3L197.5 110.5Z" fill="#D1DBBD"/>
<path d="M117.09 111.11V116.85L108.15 111.68V105.95L117.09 111.11Z" fill="#703030"/>
<path d="M108.15 105.95V117.68L107.09 118.29V105.34L108.15 105.95Z" fill="#00473A"/>
<path d="M107.09 119.482L105.163 120.594V104.223L107.09 105.335V118.292V119.482Z" fill="#007D6A"/>
<path d="M73.667 80.213L87.659 88.291L83.644 90.609L69.652 82.531L69.666 82.523L73.667 80.213Z" fill="#50CC6C"/>
<path d="M73.667 97.774V86.039L82.613 91.204V102.803L73.667 97.774Z" fill="#2A2C2B"/>
<path d="M73.667 86.039V97.774L72.61 98.385V85.428L73.667 86.039Z" fill="#00473A"/>
<path d="M70.683 100.687L69.652 100.092V99.213V95.578V95.277V94.462V94.161V89.193V84.506V82.531L83.644 90.609V103.398L82.613 102.803V91.204L73.667 86.039L72.61 85.428L70.683 84.316V100.687Z" fill="url(#paint0_linear_202_1300)"/>
<path d="M72.61 99.575L70.683 100.687V84.316L72.61 85.428V98.385V99.575Z" fill="#007D6A"/>
<path d="M90.655 90.021L104.647 98.099L100.632 100.417L86.64 92.339L87.659 91.75L90.655 90.021Z" fill="#50CC6C"/>
<path d="M99.601 99.822V102.417L90.655 107.582V95.847L91.686 95.252L99.601 99.822Z" fill="#374140"/>
<path d="M104.647 98.099V102.141L104.133 102.438V115.957L100.632 117.978V100.417L104.647 98.099Z" fill="#007D6A"/>
<path d="M87.659 88.291V92.333L87.145 92.63V106.149L83.644 108.17V90.609L87.659 88.291Z" fill="#007D6A"/>
<path d="M90.655 95.847V107.582L89.598 108.193V95.236L90.655 95.847Z" fill="#00473A"/>
<path d="M100.632 100.417V117.978L99.601 117.383V101.012L90.655 95.847L89.598 95.236L87.671 94.124V110.495L86.64 109.9V92.338L91.686 95.252L99.601 99.822L100.632 100.417Z" fill="url(#paint1_linear_202_1300)"/>
<path d="M83.674 90.625V108.186L82.643 107.591V91.22L73.697 86.055L72.639 85.445L70.712 84.332V100.703L69.682 100.108V82.547L74.728 85.46L82.643 90.03L83.674 90.625Z" fill="url(#paint2_linear_202_1300)"/>
<path d="M89.598 109.383L87.671 110.495V94.124L89.598 95.236V108.193V109.383Z" fill="#007D6A"/>
<path d="M131.586 129.979L130.516 130.596V108.31L131.586 107.692V129.979Z" fill="#A7A37E"/>
<path d="M131.587 98.68L70.071 63.164L69.425 63.537V70.759L130.941 106.275L131.587 105.902V98.68ZM131.586 129.979V107.693L70.735 72.561L69.666 73.178V82.524L69.653 82.532V84.507L66.191 82.508V58.005L142.485 102.054V136.273L131.586 129.979Z" fill="#E5C999"/>
<path d="M70.735 72.56L131.586 107.692L130.516 108.31L69.666 73.177L70.735 72.56Z" fill="#EFECCA"/>
<path d="M146.519 110.182L189.755 85.219V79.034L189.23 78.731L145.994 103.694V109.879L146.519 110.182ZM191.945 107.715L142.485 136.271V102.052L191.945 73.496V107.298V107.715Z" fill="#B49056"/>
<path d="M68.348 93.468L66.191 92.223V87.195L69.652 89.193V94.161L68.4 93.438L68.348 93.468Z" fill="#D9CBA0"/>
<path d="M68.4 99.936L65.92 98.505V94.87L68.4 96.301V99.936Z" fill="#778C7A"/>
<path d="M69.652 99.213L68.4 99.936V96.301L69.652 95.578V99.213Z" fill="#425955"/>
<path d="M142.485 102.053L66.191 58.004L67.643 57.165L76.15 62.077L86.564 68.089L97.494 74.4L108.102 80.524L119.763 87.257L131.124 93.816L142.485 100.375L153.119 94.236L166.984 86.23L179.737 78.867L186.114 75.186L190.493 72.658L191.945 73.496L142.485 102.053Z" fill="#8C6E49"/>
<path d="M186.114 75.186L179.737 78.867V64.412L186.114 60.73V75.186Z" fill="#4D3322"/>
<path d="M179.737 64.412V78.867L166.984 86.23V71.775L179.737 64.412Z" fill="#4D3322"/>
<path d="M186.114 60.73L179.737 64.412L166.984 71.775L153.119 79.78L142.485 85.919L131.124 79.36L119.763 72.801L108.102 66.068L97.494 59.944L86.564 53.633L76.15 47.621L65.646 41.556L89.078 28.028V30.288L69.561 41.556L71.165 42.482L142.485 83.659L156.908 75.332L158.512 74.406L188.575 57.049V54.788L192.49 57.049L186.114 60.73Z" fill="#AF9072"/>
<path d="M188.694 80.185V84.607L146.985 108.687V104.266L188.694 80.185Z" fill="#2A2C2B"/>
<path d="M69.561 41.556L89.078 30.288V32.14L71.165 42.482L69.561 41.556Z" fill="#4D3322"/>
<path d="M89.078 32.14V30.288V28.028V15.413L98.77 21.008V26.544V34.155V37.736L89.078 32.14Z" fill="#A1A4A8" fill-opacity="0.3"/>
<path d="M98.77 34.155V26.544L110.689 33.425V41.036L98.77 34.155Z" fill="#B4AB93"/>
<path d="M71.165 42.482L89.079 32.14L98.771 37.736V41.766L110.689 48.647L114.744 46.306L122.598 50.841V55.524L156.908 75.333L142.485 83.66L71.165 42.482Z" fill="#B2A89F"/>
<path d="M156.908 75.332L122.598 55.523V50.84V40.496L158.512 61.231V74.406L156.908 75.332Z" fill="#DFD3B6"/>
<path d="M122.598 50.84L114.744 46.306V30.569L122.598 35.103V40.496V50.84Z" fill="#A1A4A8" fill-opacity="0.3"/>
<path d="M114.744 46.306L110.689 48.647V41.036V33.425V27.75L114.744 25.408V30.569V46.306Z" fill="#425955"/>
<path d="M110.689 48.647L98.77 41.766V37.736V34.155L110.689 41.036V48.647Z" fill="#DFD3B6"/>
<path d="M192.485 57.05V71.5L190.495 72.66L186.115 75.19V60.73L192.485 57.05Z" fill="#4D3322"/>
<path d="M166.984 86.23L153.119 94.236V79.78L166.984 71.775V86.23Z" fill="#4D3322"/>
<path d="M142.485 85.92V100.38L119.765 87.26L108.105 80.52L97.495 74.4L86.565 68.09L76.145 62.08L67.645 57.17L65.645 56.01V41.56L76.145 47.62L86.565 53.63L97.495 59.94L108.105 66.07L119.765 72.8L142.485 85.92Z" fill="#957D60"/>
<path d="M153.119 79.78V94.236L142.485 100.375V85.919L153.119 79.78Z" fill="#4D3322"/>
<path d="M115.651 0.0709839L125.222 5.59698L98.77 20.869V21.008L89.078 15.413L115.651 0.0709839Z" fill="#B5B8BD"/>
<path d="M110.689 33.425L98.77 26.544V21.008V20.869L110.689 27.75V33.425Z" fill="#DFD3B6"/>
<path d="M158.512 61.231L122.598 40.496V35.103V34.626L158.512 55.361V61.231Z" fill="#B4AB93"/>
<path d="M188.575 38.004V43.874L158.512 61.231V55.361L188.575 38.004Z" fill="#293734"/>
<path d="M158.512 61.231L188.575 43.874V54.788V57.049L158.512 74.406V61.231Z" fill="#425955"/>
<path d="M114.744 30.569V25.408L140.752 10.393V15.553L114.744 30.569Z" fill="#425955"/>
<path d="M140.752 10.393L114.744 25.408L110.689 27.75L98.77 20.869L125.222 5.59699L128.834 3.51199L140.752 10.393Z" fill="#BFBD9F"/>
<path d="M114.744 30.569L140.752 15.553L148.192 19.849L122.598 34.626V35.103L114.744 30.569Z" fill="#B5B8BD"/>
<path d="M152.661 17.269L188.575 38.004L158.512 55.361L122.598 34.626L148.192 19.849L152.661 17.269Z" fill="#BFBD9F"/>
<path d="M166.662 92.95L171.329 94.533L188.694 84.607V80.185L166.662 92.95Z" fill="#A1A4A8" fill-opacity="0.3"/>
<path d="M129.168 150.761V159.211L127.588 158.301L126.418 157.621L54.568 116.141V109.911L40.058 101.531V99.311L126.418 149.171L127.588 149.851L129.168 150.761Z" fill="#778C7A"/>
<path d="M54.57 109.91V116.141L45.042 121.642V120L47.241 118.73V117.299L49.684 115.889V114.261L51.979 112.935V111.406L54.57 109.91Z" fill="#425955"/>
<path d="M40.058 101.531L54.57 109.91L51.979 111.406L37.467 103.027L40.058 101.531Z" fill="#D1DBBD"/>
<path d="M129.171 150.761L197.495 110.502V118.951L129.171 159.209V150.761Z" fill="#425955"/>
<path d="M45.042 121.642L30.53 113.264V111.622L45.042 120V121.642Z" fill="#778C7A"/>
<path d="M37.467 103.027L51.979 111.406V112.935L37.467 104.557V103.027Z" fill="#778C7A"/>
<path d="M51.979 112.935L49.684 114.261L35.172 105.882L37.467 104.557L51.979 112.935Z" fill="#D1DBBD"/>
<path d="M35.172 105.882L49.684 114.261V115.889L35.172 107.51V105.882Z" fill="#778C7A"/>
<path d="M49.684 115.889L47.241 117.299L32.729 108.92L35.172 107.51L49.684 115.889Z" fill="#D1DBBD"/>
<path d="M32.729 108.92L47.241 117.299V118.73L32.729 110.352V108.92Z" fill="#778C7A"/>
<path d="M47.241 118.73L45.042 120L30.53 111.622L32.729 110.352L47.241 118.73Z" fill="#D1DBBD"/>
<path d="M66.191 82.507L69.652 84.506V89.193L66.191 87.195V83.412V82.507Z" fill="#F5E9C6"/>
<path d="M68.4 93.438L69.652 94.161V94.462L68.4 93.739L66.441 94.87L67.948 95.74L68.4 96.001L68.851 95.74L69.652 95.277V95.578L68.4 96.301L65.92 94.87L68.348 93.468L68.4 93.438Z" fill="#D1DBBD"/>
<path d="M68.4 93.739L69.652 94.462V95.277L68.851 95.74L68.4 95.479V93.739Z" fill="#778C7A"/>
<path d="M66.441 94.87L68.4 93.739V95.479L67.948 95.74L66.441 94.87Z" fill="#425955"/>
<path d="M67.948 95.74L68.4 95.479L68.851 95.74L68.4 96.001L67.948 95.74Z" fill="#425955"/>
<path d="M55.687 126.545V126.045L56.252 125.719V126.219L55.687 126.545Z" fill="#A5A5A5"/>
<path d="M189.289 79.841V84.95L188.694 84.607V80.185L189.289 79.841Z" fill="#5B7D5D"/>
<path d="M146.985 108.687L188.694 84.607L189.289 84.95L146.985 109.375V108.687Z" fill="#5B7D5D"/>
<path d="M70.071 63.164L131.587 98.68L130.941 99.053L69.426 63.536L70.071 63.164Z" fill="#D4A187"/>
<path d="M69.426 63.536L130.941 99.053V106.275L69.426 70.758V63.536Z" fill="#00AB62"/>
<path d="M130.941 99.053L131.587 98.68V105.902L130.941 106.275V99.053Z" fill="#A0130A"/>
<path d="M189.289 84.95V79.841L188.694 80.185L146.985 104.266V108.688V109.375L189.289 84.95ZM189.755 85.219L146.519 110.182V103.997L189.755 79.035V85.219Z" fill="#425955"/>
<path d="M189.755 79.034L146.519 103.996L145.994 103.694L189.231 78.731L189.755 79.034Z" fill="#5B7D5D"/>
<path d="M146.519 103.996V110.182L145.994 109.879V103.694L146.519 103.996Z" fill="#5B7D5D"/>
<path d="M90.655 107.582L99.601 112.747V102.417L90.655 107.582Z" fill="#2A2C2B"/>
<path d="M72.61 85.428V90.554L82.613 96.33V91.204L72.61 85.428Z" fill="#9E763B"/>
<path d="M72.61 89.752V90.554L82.613 96.33V95.528L72.61 89.752Z" fill="#BD8D46"/>
<path d="M72.61 87.968V88.77L82.613 94.545V93.744L72.61 87.968Z" fill="#BD8D46"/>
<path d="M72.61 86.184V86.986L82.613 92.761V91.959L72.61 86.184Z" fill="#BD8D46"/>
<path d="M142.249 25.763L173.557 43.839L184.754 37.375L153.445 19.299L142.249 25.763Z" fill="#DFD3B6"/>
<path d="M173.557 43.151L183.561 37.375L153.445 19.987L143.441 25.763L173.557 43.151Z" fill="#0092B2"/>
<path d="M146.353 24.118L180.747 39.107L183.561 37.375L153.445 19.987L146.353 24.118Z" fill="#00B3DA"/>
<path d="M170.382 41.577L171.081 41.981L181.734 35.831L181.035 35.427L170.382 41.577Z" fill="#DFD3B6"/>
<path d="M166.805 39.512L167.504 39.916L178.158 33.766L177.458 33.362L166.805 39.512Z" fill="#DFD3B6"/>
<path d="M163.228 37.447L163.927 37.851L174.581 31.7L173.881 31.296L163.228 37.447Z" fill="#DFD3B6"/>
<path d="M159.65 35.382L160.35 35.786L171.003 29.635L170.304 29.231L159.65 35.382Z" fill="#DFD3B6"/>
<path d="M156.073 33.317L156.773 33.721L167.427 27.57L166.727 27.166L156.073 33.317Z" fill="#DFD3B6"/>
<path d="M152.496 31.252L153.196 31.656L163.85 25.505L163.15 25.101L152.496 31.252Z" fill="#DFD3B6"/>
<path d="M148.92 29.186L149.619 29.59L160.273 23.44L159.573 23.036L148.92 29.186Z" fill="#DFD3B6"/>
<path d="M145.343 27.121L146.042 27.525L156.696 21.375L155.996 20.97L145.343 27.121Z" fill="#DFD3B6"/>
<path d="M128.157 34.196L159.465 52.272L170.662 45.808L139.354 27.732L128.157 34.196Z" fill="#DFD3B6"/>
<path d="M159.465 51.584L169.47 45.808L139.354 28.42L129.349 34.196L159.465 51.584Z" fill="#0092B2"/>
<path d="M132.262 32.55L166.563 47.672L169.47 45.808L139.354 28.42L132.262 32.55Z" fill="#00B3DA"/>
<path d="M156.29 50.01L156.99 50.414L167.643 44.263L166.943 43.859L156.29 50.01Z" fill="#DFD3B6"/>
<path d="M152.713 47.945L153.413 48.349L164.066 42.198L163.366 41.794L152.713 47.945Z" fill="#DFD3B6"/>
<path d="M149.136 45.88L149.836 46.284L160.489 40.133L159.789 39.729L149.136 45.88Z" fill="#DFD3B6"/>
<path d="M145.559 43.814L146.259 44.218L156.912 38.068L156.212 37.664L145.559 43.814Z" fill="#DFD3B6"/>
<path d="M141.982 41.749L142.682 42.153L153.335 36.003L152.635 35.599L141.982 41.749Z" fill="#DFD3B6"/>
<path d="M138.405 39.684L139.105 40.088L149.758 33.938L149.058 33.534L138.405 39.684Z" fill="#DFD3B6"/>
<path d="M134.828 37.619L135.528 38.023L146.181 31.872L145.481 31.468L134.828 37.619Z" fill="#DFD3B6"/>
<path d="M131.251 35.554L131.951 35.958L142.604 29.807L141.904 29.403L131.251 35.554Z" fill="#DFD3B6"/>
<path d="M134.018 62.191L126.017 57.572V44.011L134.018 48.631V62.191Z" fill="#B4AB93"/>
<path d="M126.865 58.026V45.479L133.17 49.12V61.666L126.865 58.026Z" fill="#2A2C2B"/>
<path d="M126.093 72.359L135.856 66.722L152.147 76.127L142.383 81.764L126.093 72.359Z" fill="#DFD3B6"/>
<path d="M127.877 72.359L135.856 67.752L150.363 76.127L142.383 80.734L127.877 72.359Z" fill="#B2A89F"/>
<path d="M142.383 80.734L135.856 67.752L127.877 72.359L142.383 80.734Z" fill="#B2A89F"/>
<path d="M76.938 43.276L86.701 37.639L102.992 47.045L93.228 52.682L76.938 43.276Z" fill="#DFD3B6"/>
<path d="M78.722 43.276L86.701 38.67L101.208 47.045L93.228 51.652L78.722 43.276Z" fill="#B2A89F"/>
<path d="M93.228 51.652L86.701 38.67L78.722 43.276L93.228 51.652Z" fill="#B2A89F"/>
<path d="M65.646 41.556V42.462L142.485 86.825V85.919L65.646 41.556Z" fill="#7F6A52"/>
<path d="M65.646 48.431V49.337L142.485 93.7V92.794L65.646 48.431Z" fill="#7F6A52"/>
<path d="M192.485 63.92V64.83L186.115 68.51L142.485 93.7V92.79L186.115 67.6L192.485 63.92Z" fill="#66432D"/>
<path d="M65.646 55.181V56.087L142.485 100.45V99.544L65.646 55.181Z" fill="#7F6A52"/>
<path d="M88.393 79.495C88.371 79.656 88.228 79.687 88.062 79.592L87.24 79.117C87.075 79.022 86.927 78.822 86.909 78.638L86.699 76.625C86.681 76.451 86.672 76.272 86.663 76.103L86.587 76.059C86.578 76.223 86.569 76.392 86.551 76.545L86.345 78.313C86.327 78.477 86.18 78.505 86.014 78.41L85.187 77.933C85.022 77.837 84.879 77.641 84.856 77.454L84.472 74.094L85.428 74.646L85.584 76.836C85.593 77.01 85.602 77.199 85.602 77.417L85.673 77.458C85.695 77.297 85.727 77.092 85.745 76.924L85.95 75.265C85.968 75.087 86.102 75.035 86.276 75.136L86.969 75.536C87.143 75.637 87.273 75.84 87.295 76.042L87.505 77.951C87.523 78.14 87.55 78.364 87.572 78.556L87.644 78.597C87.644 78.413 87.657 78.213 87.666 78.049L87.818 76.027L88.774 76.579L88.393 79.495Z" fill="#FCC57A" fill-opacity="0.2"/>
<path d="M89.879 79.901L89.722 80.551L88.735 79.981L89.535 77.295C89.575 77.149 89.705 77.115 89.861 77.205L90.741 77.713C90.897 77.803 91.027 77.987 91.067 78.18L91.867 81.789L90.879 81.219L90.723 80.389L89.879 79.901ZM90.415 78.721C90.393 78.584 90.37 78.427 90.362 78.298L90.241 78.228C90.228 78.344 90.21 78.478 90.188 78.589L90.036 79.236L90.568 79.543L90.415 78.721Z" fill="#FCC57A" fill-opacity="0.2"/>
<path d="M93.777 82.891L93.576 81.757C93.54 81.548 93.478 81.467 93.312 81.372L93.013 81.199V82.45L92.061 81.9V78.474C92.472 78.667 92.754 78.824 93.37 79.18C94.277 79.704 94.67 80.174 94.67 80.974C94.67 81.386 94.523 81.648 94.044 81.427V81.457C94.214 81.58 94.473 81.824 94.549 82.285L94.79 83.477L93.777 82.891ZM93.348 80.633C93.625 80.793 93.697 80.765 93.697 80.482C93.697 80.199 93.625 80.088 93.348 79.928L93.013 79.735V80.44L93.348 80.633Z" fill="#FCC57A" fill-opacity="0.2"/>
<path d="M97.389 84.932C96.942 84.739 96.316 84.377 95.785 84.07C95.36 83.825 95.061 83.334 95.061 82.873V80.966C95.061 80.504 95.36 80.359 95.785 80.605C96.317 80.912 96.942 81.273 97.389 81.596L97.344 82.33L96.214 81.677C96.102 81.613 96.031 81.645 96.031 81.75V82.082L97.184 82.748V83.463L96.031 82.797V83.209C96.031 83.313 96.103 83.429 96.214 83.494L97.344 84.147L97.389 84.932Z" fill="#FCC57A" fill-opacity="0.2"/>
<path d="M100.47 86.755L99.5 86.195V84.755L98.722 84.306V85.746L97.752 85.186V81.76L98.722 82.32V83.551L99.5 84V82.769L100.47 83.329V86.755Z" fill="#FCC57A" fill-opacity="0.2"/>
<path d="M103.725 86.921C103.725 88.331 103.345 88.484 102.286 87.873C101.231 87.264 100.852 86.673 100.852 85.262C100.852 83.851 101.232 83.699 102.286 84.308C103.345 84.919 103.725 85.511 103.725 86.921ZM101.87 85.851C101.87 86.645 101.955 86.883 102.286 87.074C102.617 87.265 102.702 87.125 102.702 86.331C102.702 85.537 102.617 85.299 102.286 85.108C101.955 84.916 101.87 85.056 101.87 85.851Z" fill="#FCC57A" fill-opacity="0.2"/>
<path d="M106.809 89C106.809 90.092 106.461 90.283 105.495 89.726C104.454 89.125 104.078 88.516 104.078 87.423V85.412L105.048 85.972V87.983C105.048 88.534 105.133 88.717 105.446 88.898C105.754 89.076 105.839 88.991 105.839 88.44V86.429L106.809 86.989V89Z" fill="#FCC57A" fill-opacity="0.2"/>
<path d="M107.843 89.558C107.343 89.021 107.155 88.63 107.155 88.128C107.155 87.349 107.495 87.316 108.424 87.853C108.746 88.039 109.175 88.316 109.546 88.674L109.488 89.331C109.22 89.171 108.786 88.916 108.402 88.694C108.179 88.565 108.116 88.554 108.116 88.658C108.116 88.752 108.174 88.835 108.384 89.046L108.943 89.627C109.457 90.172 109.636 90.568 109.636 91.07C109.636 91.839 109.337 91.945 108.376 91.39C108.166 91.269 107.719 90.996 107.183 90.532L107.241 89.811C107.773 90.133 108.197 90.388 108.363 90.483C108.609 90.625 108.667 90.634 108.667 90.539C108.667 90.445 108.622 90.374 108.457 90.209L107.843 89.558Z" fill="#FCC57A" fill-opacity="0.2"/>
<path d="M112.287 93.533C111.84 93.34 111.214 92.978 110.683 92.672C110.258 92.427 109.959 91.936 109.959 91.475V89.568C109.959 89.106 110.258 88.961 110.683 89.206C111.215 89.513 111.84 89.874 112.287 90.197L112.242 90.931L111.111 90.278C110.999 90.214 110.928 90.247 110.928 90.351V90.683L112.081 91.349V92.064L110.928 91.398V91.81C110.928 91.914 111 92.03 111.111 92.095L112.242 92.748L112.287 93.533Z" fill="#FCC57A" fill-opacity="0.2"/>
<path d="M58.25 118.292L34.639 131.924L33.175 131.078L56.786 117.446L58.25 118.292Z" fill="#E6E6E6"/>
<path d="M71.917 125.958L48.305 139.59L46.841 138.745L70.452 125.113L71.917 125.958Z" fill="#E6E6E6"/>
<path d="M88.417 135.625L64.805 149.257L63.341 148.411L86.952 134.78L88.417 135.625Z" fill="#E6E6E6"/>
<path d="M107.75 146.625L84.139 160.257L82.675 159.411L106.286 145.78L107.75 146.625Z" fill="#E6E6E6"/>
<path d="M142.382 118.708L140.099 117.397V113.781L133.632 109.083L140.099 112.758V109.142L133.673 104.417L140.099 108.065V104.448L141.545 103.613L142.423 106.292L142.382 118.708Z" fill="#A1A4A8" fill-opacity="0.3"/>
<path d="M55.038 89.698L50.257 92.458L48.953 91.706L53.734 88.945L55.038 89.698Z" fill="#CD6A29"/>
<path d="M48.953 94.603V91.706L50.257 92.458V95.356L48.953 94.603Z" fill="#B35A24"/>
<path d="M55.038 92.596L50.257 95.356V92.458L55.038 89.698V92.596Z" fill="#9C4B1F"/>
<path d="M50.257 95.356L52.985 95.612L58.056 92.634L54.998 91.99L55.038 89.698L50.257 92.458V95.356Z" fill="#A1A4A8" fill-opacity="0.3"/>
<path d="M57.204 90.865L52.423 93.625L51.119 92.872L55.9 90.112L57.204 90.865Z" fill="#CD6A29"/>
<path d="M51.119 95.77V92.872L52.423 93.625V96.523L51.119 95.77Z" fill="#B35A24"/>
<path d="M57.204 93.762L52.423 96.523V93.625L57.204 90.865V93.762Z" fill="#9C4B1F"/>
<path d="M52.423 96.523L55.152 96.779L60.223 93.8L57.164 93.156L57.204 90.865L52.423 93.625V96.523Z" fill="#A1A4A8" fill-opacity="0.3"/>
<path d="M80.236 82.805L78.894 82.03C78.629 81.877 78.415 81.515 78.415 81.221V80.262C78.415 79.968 78.63 79.853 78.894 80.006L80.236 80.781C80.501 80.934 80.715 81.296 80.715 81.59V82.549C80.715 82.843 80.5 82.958 80.236 82.805Z" fill="#FC7154"/>
<path d="M97.636 93.066L96.294 92.291C96.029 92.138 95.815 91.776 95.815 91.482V90.523C95.815 90.229 96.03 90.114 96.294 90.267L97.636 91.042C97.901 91.195 98.115 91.557 98.115 91.851V92.81C98.115 93.104 97.901 93.219 97.636 93.066Z" fill="#FC7154"/>
<path d="M97.48 92.74L96.451 92.146C96.248 92.029 96.084 91.751 96.084 91.525V90.79C96.084 90.565 96.249 90.477 96.451 90.594L97.48 91.188C97.683 91.305 97.848 91.583 97.848 91.809V92.544C97.847 92.769 97.683 92.857 97.48 92.74Z" fill="#F9D153"/>
<path d="M115.761 103.566L114.419 102.791C114.154 102.638 113.94 102.276 113.94 101.982V101.023C113.94 100.729 114.155 100.614 114.419 100.767L115.761 101.542C116.026 101.695 116.24 102.057 116.24 102.351V103.31C116.24 103.604 116.026 103.719 115.761 103.566Z" fill="#FC7154"/>
<path d="M140.09 166.295L137.489 164.793L140.09 163.291L142.691 164.793L140.09 166.295Z" fill="#C9C9C9"/>
<path d="M142.691 165.394L140.09 166.896V166.295L142.691 164.793V165.394Z" fill="#707070"/>
<path d="M140.09 166.896L137.489 165.394V164.793L140.09 166.295V166.896Z" fill="#D9D9D9"/>
<path d="M140.198 165.036C140.111 165.086 139.97 165.086 139.883 165.036C139.796 164.986 139.796 164.905 139.883 164.855C139.97 164.805 140.111 164.805 140.198 164.855C140.285 164.905 140.285 164.986 140.198 165.036Z" fill="#666666"/>
<path d="M134.309 120.263C134.015 120.093 133.621 120.009 133.209 120.009C132.711 120.009 132.186 120.131 131.776 120.368C131.49 120.533 131.302 120.73 131.214 120.931C131.176 121.019 131.156 121.108 131.156 121.195C131.156 121.347 131.214 121.493 131.332 121.624C131.399 121.699 131.487 121.769 131.595 121.831L135.645 124.169L137.592 123.045L138.359 122.602L134.309 120.263Z" fill="#E6E6E6"/>
<path d="M135.644 124.168V125.055L131.594 122.717C131.3 122.547 131.156 122.32 131.156 122.082V121.195C131.156 121.347 131.214 121.493 131.332 121.624C131.399 121.699 131.487 121.769 131.595 121.831L135.644 124.168Z" fill="#F3EFE9"/>
<path d="M138.359 122.601V123.488L135.644 125.055V124.168L137.591 123.044L138.359 122.601Z" fill="#8D97AC"/>
<path d="M140.263 126.735C140.224 125.853 139.717 124.866 139.075 124.4L139.078 124.39L137.432 123.44C137.403 123.422 137.363 123.423 137.319 123.449C137.232 123.499 137.162 123.621 137.162 123.721C137.162 123.772 137.181 123.808 137.211 123.824L138.551 124.597V124.598L138.704 124.686C139.31 125.036 139.823 126.024 139.823 126.843V130.33V164.938H140.267V126.733H140.263V126.735Z" fill="#666666"/>
<path d="M127 203L0 129.935V114L127 187.065V203Z" fill="#979A9E"/>
<path d="M126 203L253 129.114V113L126 186.886V203Z" fill="#A1A4A8" fill-opacity="0.3"/>
<path d="M127 203L253 129.935V114L127 187.065V203Z" fill="#A1A4A8" fill-opacity="0.3"/>
<path d="M160.08 239.01L156.32 236.84L156.59 236.99L160.08 239.01Z" fill="#666666"/>
<path d="M160.28 238.9L156.58 236.77L156.79 236.88L160.28 238.9Z" fill="#666666"/>
<path d="M145.03 233.77L144.99 233.75L145.03 233.74V233.77Z" fill="#666666"/>
<path d="M149.06 236.42L149.26 236.31V236.54L149.06 236.42Z" fill="#666666"/>
<path d="M45.04 121.644L47.736 122.816L50.197 121.644L52.671 122.627L54.652 121.409L57.113 122.464L58.872 121.292L61.333 122.347L63.16 121.035L54.568 109.911L51.956 111.445L51.977 112.937L49.682 114.262V115.89L47.239 117.301V118.732L45.04 120.002V121.644Z" fill="#A1A4A8" fill-opacity="0.34"/>
<path d="M111.671 136.286L120.125 141.167L120.743 140.81L112.29 135.929L111.671 136.286Z" fill="#C69C6D"/>
<path d="M120.125 141.368V141.167L120.743 140.81V141.011L120.125 141.368Z" fill="#A67C52"/>
<path d="M120.125 141.368L119.966 141.276V140.547L120.125 140.639V141.368Z" fill="#B08B61"/>
<path d="M119.966 140.547L120.125 140.639L127.923 136.137L127.764 136.045L119.966 140.547Z" fill="#C69C6D"/>
<path d="M120.125 140.639V141.368L120.743 141.011L120.822 140.632L122.027 139.937L122.106 140.224L126.069 137.936L126.148 137.558L127.352 136.862L127.431 137.15L127.923 136.866V136.137L120.125 140.639Z" fill="#A67C52"/>
<path d="M111.829 136.578L111.671 136.487V135.758L111.829 135.849V136.578Z" fill="#B08B61"/>
<path d="M111.671 135.758L111.829 135.849L119.627 131.347L119.469 131.256L111.671 135.758Z" fill="#C69C6D"/>
<path d="M111.829 135.849V136.578L112.448 136.221L112.527 135.843L113.731 135.147L113.81 135.435L117.773 133.147L117.852 132.768L119.057 132.073L119.136 132.36L119.627 132.076V131.347L111.829 135.849Z" fill="#A67C52"/>
<path d="M111.829 135.849V136.578L113.019 136.511L120.442 132.496L119.627 131.347L118.427 132.04L117.878 132.357L117.108 132.802L116.559 133.119L115.788 133.564L115.24 133.88L114.469 134.326L114.238 134.464L113.92 134.642L113.149 135.087L112.832 135.261L112.6 135.404L111.829 135.849Z" fill="#A1A4A8" fill-opacity="0.3"/>
<path d="M115.92 138.934L115.761 138.843V138.114L115.92 138.205V138.934Z" fill="#B08B61"/>
<path d="M115.761 138.114L115.92 138.205L123.717 133.703L123.559 133.612L115.761 138.114Z" fill="#C69C6D"/>
<path d="M115.92 138.205V138.934L116.538 138.577L116.617 138.199L117.822 137.503L117.9 137.791L121.864 135.503L121.942 135.124L123.147 134.429L123.226 134.716L123.717 134.432V133.703L115.92 138.205Z" fill="#A67C52"/>
<path d="M111.671 135.557L120.125 140.438L120.941 139.967L112.487 135.086L111.671 135.557Z" fill="#C69C6D"/>
<path d="M120.125 140.639V140.438L120.941 139.967V140.168L120.125 140.639Z" fill="#A67C52"/>
<path d="M111.671 135.758V135.557L120.125 140.438V140.639L111.671 135.758Z" fill="#B08B61"/>
<path d="M113.067 134.751L121.521 139.631L122.337 139.16L113.883 134.279L113.067 134.751Z" fill="#C69C6D"/>
<path d="M121.521 139.832V139.631L122.337 139.16V139.361L121.521 139.832Z" fill="#A67C52"/>
<path d="M113.067 134.952V134.751L121.521 139.631V139.832L113.067 134.952Z" fill="#B08B61"/>
<path d="M114.464 133.944L122.918 138.825L123.734 138.354L115.28 133.473L114.464 133.944Z" fill="#C69C6D"/>
<path d="M122.918 139.026V138.825L123.734 138.354V138.555L122.918 139.026Z" fill="#A67C52"/>
<path d="M114.464 134.145V133.944L122.918 138.825V139.026L114.464 134.145Z" fill="#B08B61"/>
<path d="M115.86 133.138L124.314 138.019L125.13 137.548L116.676 132.667L115.86 133.138Z" fill="#C69C6D"/>
<path d="M124.314 138.22V138.019L125.13 137.548V137.749L124.314 138.22Z" fill="#A67C52"/>
<path d="M115.86 133.339V133.138L124.314 138.019V138.22L115.86 133.339Z" fill="#B08B61"/>
<path d="M117.257 132.332L125.711 137.213L126.526 136.742L118.072 131.861L117.257 132.332Z" fill="#C69C6D"/>
<path d="M125.711 137.414V137.213L126.526 136.742V136.943L125.711 137.414Z" fill="#A67C52"/>
<path d="M117.257 132.533V132.332L125.711 137.213V137.414L117.257 132.533Z" fill="#B08B61"/>
<path d="M118.653 131.526L127.107 136.406L127.923 135.936L119.469 131.055L118.653 131.526Z" fill="#C69C6D"/>
<path d="M127.107 136.607V136.406L127.923 135.936V136.137L127.107 136.607Z" fill="#A67C52"/>
<path d="M118.653 131.727V131.526L127.107 136.406V136.607L118.653 131.727Z" fill="#B08B61"/>
<path d="M111.671 136.487V136.286L120.125 141.167V141.368L111.671 136.487Z" fill="#B08B61"/>
<path d="M120.125 140.438V141.368L121.004 141.527L128.785 137.152L127.923 135.936L127.107 136.406V136.607L126.526 136.943V136.742L125.711 137.213V137.414L125.13 137.749V137.548L124.314 138.019V138.22L123.734 138.555V138.354L122.918 138.825V139.026L122.337 139.361V139.16L121.521 139.631V139.832L120.941 140.168V139.967L120.125 140.438Z" fill="#A1A4A8" fill-opacity="0.3"/>
<path d="M120.757 179.962L118.156 178.46L120.757 176.958L123.358 178.46L120.757 179.962Z" fill="#C9C9C9"/>
<path d="M123.358 179.061L120.757 180.563V179.962L123.358 178.46V179.061Z" fill="#707070"/>
<path d="M120.757 180.563L118.156 179.061V178.46L120.757 179.962V180.563Z" fill="#D9D9D9"/>
<path d="M120.864 178.703C120.777 178.753 120.636 178.753 120.55 178.703C120.463 178.653 120.463 178.572 120.55 178.522C120.637 178.472 120.778 178.472 120.864 178.522C120.951 178.571 120.951 178.653 120.864 178.703Z" fill="#666666"/>
<path d="M114.975 133.93C114.681 133.76 114.287 133.676 113.875 133.676C113.377 133.676 112.852 133.798 112.442 134.034C112.156 134.199 111.968 134.396 111.88 134.597C111.842 134.685 111.822 134.774 111.822 134.861C111.822 135.013 111.88 135.159 111.998 135.29C112.065 135.365 112.153 135.435 112.261 135.497L116.311 137.835L118.258 136.711L119.026 136.268L114.975 133.93Z" fill="#E6E6E6"/>
<path d="M116.311 137.835V138.722L112.261 136.384C111.966 136.214 111.823 135.987 111.823 135.749V134.862C111.823 135.014 111.881 135.16 111.999 135.291C112.066 135.366 112.154 135.436 112.262 135.498L116.311 137.835Z" fill="#F3EFE9"/>
<path d="M119.025 136.268V137.154L116.311 138.722V137.835L118.258 136.711L119.025 136.268Z" fill="#8D97AC"/>
<path d="M120.93 140.402C120.891 139.52 120.384 138.533 119.742 138.067L119.745 138.057L118.099 137.107C118.07 137.089 118.03 137.09 117.986 137.116C117.899 137.166 117.829 137.288 117.829 137.388C117.829 137.44 117.848 137.475 117.878 137.491L119.218 138.264L119.371 138.353C119.978 138.703 120.49 139.691 120.49 140.51V143.997V178.605H120.934V140.4H120.93V140.402Z" fill="#666666"/>
<path d="M121.339 141.79L129.793 146.671L130.412 146.314L121.958 141.433L121.339 141.79Z" fill="#C69C6D"/>
<path d="M129.793 146.872V146.671L130.412 146.314V146.515L129.793 146.872Z" fill="#A67C52"/>
<path d="M129.793 146.872L129.635 146.781V146.052L129.793 146.143V146.872Z" fill="#B08B61"/>
<path d="M129.635 146.052L129.793 146.143L137.591 141.641L137.433 141.549L129.635 146.052Z" fill="#C69C6D"/>
<path d="M129.793 146.143V146.872L130.412 146.515L130.491 146.137L131.695 145.441L131.774 145.729L135.737 143.441L135.816 143.062L137.021 142.367L137.099 142.654L137.591 142.37V141.641L129.793 146.143Z" fill="#A67C52"/>
<path d="M121.498 142.083L121.339 141.991V141.262L121.498 141.354V142.083Z" fill="#B08B61"/>
<path d="M121.339 141.262L121.498 141.354L129.296 136.852L129.137 136.76L121.339 141.262Z" fill="#C69C6D"/>
<path d="M121.498 141.354V142.083L122.116 141.726L122.195 141.347L123.4 140.652L123.479 140.939L127.442 138.651L127.521 138.273L128.725 137.577L128.804 137.865L129.296 137.581V136.852L121.498 141.354Z" fill="#A67C52"/>
<path d="M121.498 141.354V142.083L122.688 142.016L130.11 138.001L129.296 136.852L128.095 137.545L127.547 137.861L126.776 138.307L126.227 138.623L125.456 139.068L124.908 139.385L124.137 139.83L123.906 139.969L123.588 140.147L122.817 140.592L122.5 140.766L122.269 140.909L121.498 141.354Z" fill="#A1A4A8" fill-opacity="0.3"/>
<path d="M125.588 144.439L125.429 144.347V143.618L125.588 143.71V144.439Z" fill="#B08B61"/>
<path d="M125.429 143.618L125.588 143.71L133.386 139.208L133.227 139.116L125.429 143.618Z" fill="#C69C6D"/>
<path d="M125.588 143.71V144.439L126.206 144.082L126.285 143.703L127.49 143.008L127.569 143.295L131.532 141.007L131.611 140.629L132.815 139.933L132.894 140.221L133.386 139.937V139.208L125.588 143.71Z" fill="#A67C52"/>
<path d="M121.339 141.061L129.793 145.942L130.609 145.471L122.155 140.59L121.339 141.061Z" fill="#C69C6D"/>
<path d="M129.793 146.143V145.942L130.609 145.471V145.672L129.793 146.143Z" fill="#A67C52"/>
<path d="M121.339 141.262V141.061L129.793 145.942V146.143L121.339 141.262Z" fill="#B08B61"/>
<path d="M122.736 140.255L131.19 145.136L132.005 144.665L123.552 139.784L122.736 140.255Z" fill="#C69C6D"/>
<path d="M131.19 145.337V145.136L132.005 144.665V144.866L131.19 145.337Z" fill="#A67C52"/>
<path d="M122.736 140.456V140.255L131.19 145.136V145.337L122.736 140.456Z" fill="#B08B61"/>
<path d="M124.132 139.449L132.586 144.33L133.402 143.859L124.948 138.978L124.132 139.449Z" fill="#C69C6D"/>
<path d="M132.586 144.531V144.33L133.402 143.859V144.06L132.586 144.531Z" fill="#A67C52"/>
<path d="M124.132 139.65V139.449L132.586 144.33V144.531L124.132 139.65Z" fill="#B08B61"/>
<path d="M125.529 138.643L133.982 143.523L134.798 143.053L126.344 138.172L125.529 138.643Z" fill="#C69C6D"/>
<path d="M133.982 143.725V143.523L134.798 143.053V143.253L133.982 143.725Z" fill="#A67C52"/>
<path d="M125.529 138.844V138.643L133.982 143.523V143.725L125.529 138.844Z" fill="#B08B61"/>
<path d="M126.925 137.836L135.379 142.717L136.195 142.246L127.741 137.365L126.925 137.836Z" fill="#C69C6D"/>
<path d="M135.379 142.918V142.717L136.195 142.246V142.447L135.379 142.918Z" fill="#A67C52"/>
<path d="M126.925 138.037V137.836L135.379 142.717V142.918L126.925 138.037Z" fill="#B08B61"/>
<path d="M128.321 137.03L136.775 141.911L137.591 141.44L129.137 136.559L128.321 137.03Z" fill="#C69C6D"/>
<path d="M136.775 142.112V141.911L137.591 141.44V141.641L136.775 142.112Z" fill="#A67C52"/>
<path d="M128.321 137.231V137.03L136.775 141.911V142.112L128.321 137.231Z" fill="#B08B61"/>
<path d="M121.339 141.991V141.79L129.793 146.671V146.872L121.339 141.991Z" fill="#B08B61"/>
<path d="M129.793 145.942V146.872L130.672 147.031L138.453 142.656L137.591 141.44L136.775 141.911V142.112L136.195 142.447V142.246L135.379 142.717V142.918L134.798 143.253V143.053L133.982 143.523V143.725L133.402 144.06V143.859L132.586 144.33V144.531L132.005 144.866V144.665L131.19 145.136V145.337L130.609 145.672V145.471L129.793 145.942Z" fill="#A1A4A8" fill-opacity="0.3"/>
<path d="M102.339 156.79L110.793 161.671L111.412 161.314L102.958 156.433L102.339 156.79Z" fill="#C69C6D"/>
<path d="M110.793 161.872V161.671L111.412 161.314V161.515L110.793 161.872Z" fill="#A67C52"/>
<path d="M110.793 161.872L110.635 161.781V161.052L110.793 161.143V161.872Z" fill="#B08B61"/>
<path d="M110.635 161.052L110.793 161.143L118.591 156.641L118.433 156.549L110.635 161.052Z" fill="#C69C6D"/>
<path d="M110.793 161.143V161.872L111.412 161.515L111.491 161.137L112.695 160.441L112.774 160.729L116.737 158.441L116.816 158.062L118.021 157.367L118.099 157.654L118.591 157.37V156.641L110.793 161.143Z" fill="#A67C52"/>
<path d="M102.498 157.083L102.339 156.991V156.262L102.498 156.354V157.083Z" fill="#B08B61"/>
<path d="M102.339 156.262L102.498 156.354L110.296 151.852L110.137 151.76L102.339 156.262Z" fill="#C69C6D"/>
<path d="M102.498 156.354V157.083L103.116 156.726L103.195 156.347L104.4 155.652L104.479 155.939L108.442 153.651L108.521 153.273L109.725 152.577L109.804 152.865L110.296 152.581V151.852L102.498 156.354Z" fill="#A67C52"/>
<path d="M102.498 156.354V157.083L103.688 157.016L111.11 153.001L110.296 151.852L109.095 152.545L108.547 152.861L107.776 153.307L107.227 153.623L106.456 154.068L105.908 154.385L105.137 154.83L104.906 154.969L104.588 155.147L103.817 155.592L103.5 155.766L103.269 155.909L102.498 156.354Z" fill="#A1A4A8" fill-opacity="0.3"/>
<path d="M106.588 159.439L106.429 159.347V158.618L106.588 158.71V159.439Z" fill="#B08B61"/>
<path d="M106.429 158.618L106.588 158.71L114.386 154.208L114.227 154.116L106.429 158.618Z" fill="#C69C6D"/>
<path d="M106.588 158.71V159.439L107.206 159.082L107.285 158.703L108.49 158.008L108.569 158.295L112.532 156.007L112.611 155.629L113.815 154.933L113.894 155.221L114.386 154.937V154.208L106.588 158.71Z" fill="#A67C52"/>
<path d="M102.339 156.061L110.793 160.942L111.609 160.471L103.155 155.59L102.339 156.061Z" fill="#C69C6D"/>
<path d="M110.793 161.143V160.942L111.609 160.471V160.672L110.793 161.143Z" fill="#A67C52"/>
<path d="M102.339 156.262V156.061L110.793 160.942V161.143L102.339 156.262Z" fill="#B08B61"/>
<path d="M103.736 155.255L112.19 160.136L113.005 159.665L104.552 154.784L103.736 155.255Z" fill="#C69C6D"/>
<path d="M112.19 160.337V160.136L113.005 159.665V159.866L112.19 160.337Z" fill="#A67C52"/>
<path d="M103.736 155.456V155.255L112.19 160.136V160.337L103.736 155.456Z" fill="#B08B61"/>
<path d="M105.132 154.449L113.586 159.33L114.402 158.859L105.948 153.978L105.132 154.449Z" fill="#C69C6D"/>
<path d="M113.586 159.531V159.33L114.402 158.859V159.06L113.586 159.531Z" fill="#A67C52"/>
<path d="M105.132 154.65V154.449L113.586 159.33V159.531L105.132 154.65Z" fill="#B08B61"/>
<path d="M106.529 153.643L114.982 158.523L115.798 158.053L107.344 153.172L106.529 153.643Z" fill="#C69C6D"/>
<path d="M114.982 158.725V158.523L115.798 158.053V158.253L114.982 158.725Z" fill="#A67C52"/>
<path d="M106.529 153.844V153.643L114.982 158.523V158.725L106.529 153.844Z" fill="#B08B61"/>
<path d="M107.925 152.836L116.379 157.717L117.195 157.246L108.741 152.365L107.925 152.836Z" fill="#C69C6D"/>
<path d="M116.379 157.918V157.717L117.195 157.246V157.447L116.379 157.918Z" fill="#A67C52"/>
<path d="M107.925 153.037V152.836L116.379 157.717V157.918L107.925 153.037Z" fill="#B08B61"/>
<path d="M109.321 152.03L117.775 156.911L118.591 156.44L110.137 151.559L109.321 152.03Z" fill="#C69C6D"/>
<path d="M117.775 157.112V156.911L118.591 156.44V156.641L117.775 157.112Z" fill="#A67C52"/>
<path d="M109.321 152.231V152.03L117.775 156.911V157.112L109.321 152.231Z" fill="#B08B61"/>
<path d="M102.339 156.991V156.79L110.793 161.671V161.872L102.339 156.991Z" fill="#B08B61"/>
<path d="M110.793 160.942V161.872L111.672 162.031L119.453 157.656L118.591 156.44L117.775 156.911V157.112L117.195 157.447V157.246L116.379 157.717V157.918L115.798 158.253V158.053L114.982 158.523V158.725L114.402 159.06V158.859L113.586 159.33V159.531L113.005 159.866V159.665L112.19 160.136V160.337L111.609 160.672V160.471L110.793 160.942Z" fill="#A1A4A8" fill-opacity="0.3"/>
<path d="M125.588 143.71L125.59 144.231L125.778 144.34L126.778 144.387L125.588 143.71Z" fill="#A1A4A8" fill-opacity="0.3"/>
<path d="M118.274 120.532L113.667 123.192V120.834L118.274 118.173V120.532Z" fill="#879B9C"/>
<path d="M113.667 123.192L109.059 120.532V118.173L113.667 120.834V123.192Z" fill="#FAF6EB"/>
<path d="M118.274 118.173L113.667 120.833L111.535 119.603L111.096 119.349L109.059 118.173L113.667 115.513L115.703 116.689L116.143 116.943L118.274 118.173Z" fill="#F9F8F7"/>
<path d="M116.143 116.943L111.535 119.603L111.53 119.606L111.09 119.353L111.096 119.349L115.703 116.689L116.143 116.943Z" fill="#CCD8D9"/>
<path d="M111.53 119.606V120.676L111.09 120.422V119.352L111.53 119.606Z" fill="#879B9C"/>
<path d="M111.19 116.943L115.799 119.603L115.804 119.606L116.243 119.353L116.237 119.349L111.63 116.689L111.19 116.943Z" fill="#CCD8D9"/>
<path d="M115.804 119.606V120.676L116.243 120.422V119.352L115.804 119.606Z" fill="#5C696A"/>
<path d="M113.667 120.833V123.192L116.792 124.596L121.854 121.534L118.274 119.701V118.173L113.667 120.833Z" fill="#858F9E" fill-opacity="0.3"/>
<path d="M122.139 108.198V125.759L118.124 128.077V110.516L122.139 108.198Z" fill="#007D6A"/>
<path d="M118.12 110.52V128.08L117.09 127.48V111.11L108.15 105.95L107.09 105.34L105.16 104.22V120.59L104.13 120V102.44L118.12 110.52Z" fill="url(#paint3_linear_202_1300)"/>
<path d="M150.59 160.292L129.168 159.211L129.171 150.761L144.875 141.375L118.124 128.077L117.094 127.482L117.037 125.325L105.163 120.594L104.133 119.999L104.037 118.908L100.632 117.978L99.601 117.383L99.537 115.7L87.671 110.495L86.64 109.9V108.917L83.644 108.17L82.643 107.591L82.613 102.803L76.471 99.257L73.564 100.936L70.683 100.687L69.652 100.092L68.4 99.936V96.301L69.652 95.578L69.666 82.523L83.644 90.609L87.659 88.291L88.715 91.143L86.64 92.339L100.632 100.417L104.647 98.099L106.325 101.128L104.133 102.438L118.124 110.516L122.139 108.198L130.495 119.866L130.516 108.31L131.586 107.692L70.735 72.56L69.426 70.758L130.941 106.275V99.053L131.587 98.68L138.55 108.572L138.459 115.561L135.645 114.018L142.454 122.575L142.485 102.053L68.412 59.2L67.643 57.165L142.485 100.375V85.919L160.579 75.491L158.512 74.406V55.361L188.575 38.004V54.788L192.49 57.049V71.505L190.493 72.658L191.945 73.496V107.298L197.495 110.502V112.033L227.923 128.5L172.383 160.292L161.152 154.866L150.59 160.292Z" fill="#A1A4A8" fill-opacity="0.34"/>
<path d="M74.024 44.137L69.561 41.556L89.078 30.288L91.706 33.791L74.024 44.137Z" fill="#A1A4A8" fill-opacity="0.3"/>
<path d="M122.598 50.84L110.689 48.647V27.75L140.752 10.393V15.553L148.192 19.849L122.598 34.626V50.84Z" fill="#A1A4A8" fill-opacity="0.3"/>
<path d="M76.285 94.056L75.986 94.229V93.966L76.285 93.793V94.056Z" fill="#4D4D4D"/>
<path d="M75.986 94.229L74.395 93.311V93.048L75.986 93.966V94.229Z" fill="#666666"/>
<path d="M74.395 93.048L74.694 92.875L76.285 93.793L75.986 93.966L74.395 93.048Z" fill="#999999"/>
<path d="M78.792 105.536L72.872 102.118L73.855 100.653L77.809 102.936L78.792 105.536Z" fill="#E29214"/>
<path d="M74.509 103.063V103.541L77.155 105.069V104.591L74.509 103.063Z" fill="#E29214"/>
<path d="M64.584 106.904L66.22 107.849L74.509 103.063L72.872 102.118L64.584 106.904Z" fill="#FBB03B"/>
<path d="M65.851 107.117C66.113 107.269 66.539 107.269 66.801 107.117L68.226 106.294C68.488 106.143 68.488 105.897 68.226 105.745C67.964 105.593 67.538 105.593 67.276 105.745L65.851 106.568C65.588 106.72 65.588 106.966 65.851 107.117Z" fill="#504239"/>
<path d="M66.22 107.849V108.326L74.509 103.541V103.063L66.22 107.849Z" fill="#B36A4B"/>
<path d="M64.584 106.904V107.381L66.22 108.326V107.849L64.584 106.904Z" fill="#E29214"/>
<path d="M65.97 106.685L66.575 107.034C66.607 107.053 66.66 107.053 66.692 107.034C66.724 107.015 66.724 106.985 66.692 106.966L66.087 106.617C66.055 106.598 66.002 106.598 65.97 106.617C65.938 106.636 65.938 106.666 65.97 106.685Z" fill="#42372F"/>
<path d="M66.264 106.514L66.869 106.863C66.901 106.882 66.954 106.882 66.986 106.863C67.018 106.844 67.018 106.814 66.986 106.795L66.381 106.446C66.349 106.427 66.296 106.427 66.264 106.446C66.232 106.465 66.232 106.496 66.264 106.514Z" fill="#42372F"/>
<path d="M66.559 106.344L67.164 106.693C67.196 106.712 67.249 106.712 67.281 106.693C67.313 106.674 67.313 106.644 67.281 106.625L66.676 106.276C66.644 106.257 66.591 106.257 66.559 106.276C66.526 106.295 66.526 106.325 66.559 106.344Z" fill="#42372F"/>
<path d="M66.853 106.173L67.458 106.522C67.49 106.54 67.543 106.54 67.575 106.522C67.607 106.503 67.607 106.473 67.575 106.454L66.97 106.105C66.938 106.086 66.885 106.086 66.853 106.105C66.821 106.124 66.821 106.155 66.853 106.173Z" fill="#42372F"/>
<path d="M67.147 106.003L67.752 106.352C67.784 106.371 67.837 106.371 67.869 106.352C67.901 106.333 67.901 106.303 67.869 106.284L67.264 105.935C67.232 105.916 67.179 105.916 67.147 105.935C67.115 105.954 67.115 105.984 67.147 106.003Z" fill="#42372F"/>
<path d="M67.442 105.832L68.047 106.181C68.079 106.2 68.132 106.2 68.164 106.181C68.196 106.162 68.196 106.132 68.164 106.113L67.559 105.764C67.527 105.745 67.474 105.745 67.442 105.764C67.41 105.783 67.41 105.814 67.442 105.832Z" fill="#42372F"/>
<path d="M68.867 109.377L70.503 110.322L78.792 105.536L77.155 104.591L68.867 109.377Z" fill="#FBB03B"/>
<path d="M70.134 109.59C70.396 109.742 70.822 109.742 71.084 109.59L72.509 108.767C72.771 108.615 72.771 108.37 72.509 108.218C72.247 108.066 71.821 108.066 71.559 108.218L70.134 109.041C69.871 109.193 69.871 109.439 70.134 109.59Z" fill="#504239"/>
<path d="M70.503 110.322V110.799L79.378 105.673V105.195L70.503 110.322Z" fill="#B36A4B"/>
<path d="M68.867 109.377V109.854L70.503 110.799V110.322L68.867 109.377Z" fill="#E29214"/>
<path d="M70.253 109.158L70.858 109.507C70.89 109.526 70.943 109.526 70.975 109.507C71.007 109.488 71.007 109.458 70.975 109.439L70.37 109.09C70.338 109.071 70.285 109.071 70.253 109.09C70.221 109.109 70.221 109.139 70.253 109.158Z" fill="#42372F"/>
<path d="M70.547 108.987L71.152 109.336C71.184 109.355 71.237 109.355 71.269 109.336C71.301 109.317 71.301 109.287 71.269 109.268L70.664 108.919C70.632 108.9 70.579 108.9 70.547 108.919C70.515 108.938 70.515 108.968 70.547 108.987Z" fill="#42372F"/>
<path d="M70.841 108.816L71.446 109.165C71.478 109.184 71.531 109.184 71.563 109.165C71.595 109.146 71.595 109.116 71.563 109.097L70.958 108.748C70.926 108.729 70.873 108.729 70.841 108.748C70.809 108.768 70.809 108.798 70.841 108.816Z" fill="#42372F"/>
<path d="M71.136 108.646L71.741 108.995C71.773 109.014 71.826 109.014 71.858 108.995C71.89 108.976 71.89 108.946 71.858 108.927L71.253 108.578C71.221 108.559 71.168 108.559 71.136 108.578C71.104 108.597 71.104 108.627 71.136 108.646Z" fill="#42372F"/>
<path d="M71.43 108.475L72.035 108.824C72.067 108.843 72.12 108.843 72.152 108.824C72.184 108.805 72.184 108.775 72.152 108.756L71.547 108.407C71.515 108.388 71.462 108.388 71.43 108.407C71.398 108.426 71.398 108.457 71.43 108.475Z" fill="#42372F"/>
<path d="M71.725 108.305L72.33 108.654C72.362 108.673 72.415 108.673 72.447 108.654C72.479 108.635 72.479 108.605 72.447 108.586L71.842 108.237C71.81 108.218 71.757 108.218 71.725 108.237C71.692 108.256 71.692 108.286 71.725 108.305Z" fill="#42372F"/>
<path d="M79.378 105.195L78.395 102.595L77.809 102.936L78.792 105.536L79.378 105.195Z" fill="#B36A4B"/>
<path d="M74.442 100.312L73.855 100.653L77.809 102.936L78.395 102.595L74.442 100.312Z" fill="#FBB03B"/>
<path d="M76.705 93.615C76.695 93.671 76.653 93.726 76.578 93.769C76.405 93.869 76.125 93.869 75.952 93.769C75.877 93.726 75.835 93.671 75.825 93.615H75.822V101.617H75.828C75.806 101.695 75.847 101.779 75.951 101.839C76.124 101.939 76.404 101.939 76.577 101.839C76.682 101.779 76.723 101.695 76.7 101.617H76.706L76.705 93.615Z" fill="#4D4D4D"/>
<path d="M76.578 93.408C76.751 93.508 76.751 93.67 76.578 93.769C76.405 93.869 76.125 93.869 75.952 93.769C75.779 93.669 75.779 93.507 75.952 93.408C76.125 93.308 76.405 93.308 76.578 93.408Z" fill="#666666"/>
<path d="M78.278 95.201L77.979 95.374V95.111L78.278 94.938V95.201Z" fill="#4D4D4D"/>
<path d="M77.979 95.374L76.388 94.456V94.193L77.979 95.111V95.374Z" fill="#666666"/>
<path d="M76.388 94.193L76.687 94.02L78.278 94.938L77.979 95.111L76.388 94.193Z" fill="#999999"/>
<path d="M63.046 106.751L71.5 111.632L72.118 111.275L63.665 106.394L63.046 106.751Z" fill="#C69C6D"/>
<path d="M71.5 111.833V111.632L72.118 111.275V111.476L71.5 111.833Z" fill="#A67C52"/>
<path d="M71.5 111.833L71.341 111.742V111.013L71.5 111.104V111.833Z" fill="#B08B61"/>
<path d="M71.341 111.013L71.5 111.104L79.298 106.602L79.139 106.511L71.341 111.013Z" fill="#C69C6D"/>
<path d="M71.5 111.104V111.833L72.118 111.476L72.197 111.098L73.402 110.402L73.481 110.69L77.444 108.402L77.523 108.023L78.727 107.328L78.806 107.615L79.298 107.331V106.602L71.5 111.104Z" fill="#A67C52"/>
<path d="M63.204 107.044L63.046 106.952V106.223L63.204 106.315V107.044Z" fill="#B08B61"/>
<path d="M63.046 106.223L63.204 106.315L71.002 101.813L70.844 101.721L63.046 106.223Z" fill="#C69C6D"/>
<path d="M63.204 106.315V107.044L63.823 106.687L63.902 106.309L65.106 105.613L65.185 105.9L69.148 103.612L69.227 103.234L70.432 102.538L70.511 102.826L71.002 102.542V101.813L63.204 106.315Z" fill="#A67C52"/>
<path d="M63.204 106.315V107.044L64.394 106.977L71.817 102.962L71.002 101.813L69.802 102.506L69.253 102.822L68.483 103.268L67.934 103.584L67.163 104.029L66.615 104.346L65.844 104.791L65.613 104.93L65.295 105.108L64.524 105.553L64.207 105.727L63.975 105.87L63.204 106.315Z" fill="#A1A4A8" fill-opacity="0.3"/>
<path d="M67.295 109.4L67.136 109.309V108.579L67.295 108.671V109.4Z" fill="#B08B61"/>
<path d="M67.136 108.579L67.295 108.671L75.092 104.169L74.934 104.077L67.136 108.579Z" fill="#C69C6D"/>
<path d="M67.295 108.671V109.4L67.913 109.043L67.992 108.665L69.197 107.969L69.275 108.256L73.239 105.968L73.317 105.59L74.522 104.895L74.601 105.182L75.092 104.898V104.169L67.295 108.671Z" fill="#A67C52"/>
<path d="M63.046 106.022L71.5 110.903L72.316 110.432L63.862 105.551L63.046 106.022Z" fill="#C69C6D"/>
<path d="M71.5 111.104V110.903L72.316 110.432V110.633L71.5 111.104Z" fill="#A67C52"/>
<path d="M63.046 106.223V106.022L71.5 110.903V111.104L63.046 106.223Z" fill="#B08B61"/>
<path d="M64.442 105.216L72.896 110.097L73.712 109.626L65.258 104.745L64.442 105.216Z" fill="#C69C6D"/>
<path d="M72.896 110.298V110.097L73.712 109.626V109.827L72.896 110.298Z" fill="#A67C52"/>
<path d="M64.442 105.417V105.216L72.896 110.097V110.298L64.442 105.417Z" fill="#B08B61"/>
<path d="M65.839 104.41L74.293 109.291L75.109 108.82L66.655 103.939L65.839 104.41Z" fill="#C69C6D"/>
<path d="M74.293 109.492V109.291L75.109 108.82V109.021L74.293 109.492Z" fill="#A67C52"/>
<path d="M65.839 104.611V104.41L74.293 109.291V109.492L65.839 104.611Z" fill="#B08B61"/>
<path d="M67.235 103.604L75.689 108.485L76.505 108.014L68.051 103.133L67.235 103.604Z" fill="#C69C6D"/>
<path d="M75.689 108.686V108.485L76.505 108.014V108.215L75.689 108.686Z" fill="#A67C52"/>
<path d="M67.235 103.805V103.604L75.689 108.485V108.686L67.235 103.805Z" fill="#B08B61"/>
<path d="M68.632 102.798L77.086 107.678L77.901 107.207L69.447 102.327L68.632 102.798Z" fill="#C69C6D"/>
<path d="M77.086 107.879V107.678L77.901 107.207V107.408L77.086 107.879Z" fill="#A67C52"/>
<path d="M68.632 102.999V102.798L77.086 107.678V107.879L68.632 102.999Z" fill="#B08B61"/>
<path d="M70.028 101.991L78.482 106.872L79.298 106.401L70.844 101.52L70.028 101.991Z" fill="#C69C6D"/>
<path d="M78.482 107.073V106.872L79.298 106.401V106.602L78.482 107.073Z" fill="#A67C52"/>
<path d="M70.028 102.192V101.991L78.482 106.872V107.073L70.028 102.192Z" fill="#B08B61"/>
<path d="M63.046 106.952V106.751L71.5 111.632V111.833L63.046 106.952Z" fill="#B08B61"/>
<path d="M71.5 110.903V111.833L72.379 111.992L80.16 107.617L79.298 106.401L78.482 106.872V107.073L77.901 107.408V107.207L77.086 107.678V107.879L76.505 108.215V108.014L75.689 108.485V108.686L75.109 109.021V108.82L74.293 109.291V109.492L73.712 109.827V109.626L72.896 110.097V110.298L72.316 110.633V110.432L71.5 110.903Z" fill="#A1A4A8" fill-opacity="0.3"/>
<path d="M76.758 106.453L70.75 109.921V106.846L76.758 103.378V106.453Z" fill="#9A6C5F"/>
<path d="M70.75 109.921L64.742 106.453V103.378L70.75 106.846V109.921Z" fill="#F3C395"/>
<path d="M76.758 103.378L70.75 106.846L67.97 105.241L67.398 104.911L64.742 103.378L70.75 99.909L73.405 101.442L73.979 101.773L76.758 103.378Z" fill="#7C564D"/>
<path d="M73.979 101.773L67.97 105.241L67.964 105.245L67.391 104.915L67.398 104.911L73.405 101.442L73.979 101.773Z" fill="#7C564D"/>
<path d="M67.964 105.246V106.64L67.391 106.31V104.915L67.964 105.246Z" fill="#BA917B"/>
<path d="M67.521 101.773L73.53 105.241L73.536 105.245L74.109 104.915L74.102 104.911L68.095 101.442L67.521 101.773Z" fill="#7C564D"/>
<path d="M73.536 105.246V106.64L74.109 106.31V104.915L73.536 105.246Z" fill="#858F9E" fill-opacity="0.3"/>
<path d="M76.758 103.023L70.75 106.492V103.417L76.758 99.948V103.023Z" fill="#9A6C5F"/>
<path d="M70.75 106.492L64.742 103.023V99.948L70.75 103.417V106.492Z" fill="#F3C395"/>
<path d="M76.758 99.949L70.75 103.417L67.97 101.812L67.398 101.482L64.742 99.949L70.75 96.48L73.405 98.013L73.979 98.344L76.758 99.949Z" fill="#FACBA1"/>
<path d="M73.979 98.344L67.97 101.812L67.964 101.816L67.391 101.486L67.398 101.482L73.405 98.013L73.979 98.344Z" fill="#D9A284"/>
<path d="M67.964 101.817V103.211L67.391 102.881V101.486L67.964 101.817Z" fill="#BA917B"/>
<path d="M67.521 98.344L73.53 101.812L73.536 101.816L74.109 101.486L74.102 101.482L68.095 98.013L67.521 98.344Z" fill="#D9A284"/>
<path d="M73.536 101.817V103.211L74.109 102.881V101.486L73.536 101.817Z" fill="#858F9E" fill-opacity="0.3"/>
<path d="M78.375 111.906L70.75 109.921V103.417L76.758 99.949V106.453L81.667 109.5L78.375 111.906Z" fill="#A1A4A8" fill-opacity="0.3"/>
<path d="M91.577 108.653L90.136 109.485L89.441 109.886L87.882 110.786L84.187 108.653L85.748 107.752L86.443 107.351L87.882 106.52L91.577 108.653Z" fill="#FACBA1"/>
<path d="M91.577 108.653V112.758L90.136 113.59L89.441 113.992L87.882 114.892V110.786L89.441 109.886L90.136 109.485L91.577 108.653Z" fill="#9A6C5F"/>
<path d="M87.883 114.892L84.188 112.758V108.653L87.883 110.786V114.892Z" fill="#86534F"/>
<path d="M87.61 111.479L86.441 110.804V110.258L87.61 110.933V111.479Z" fill="#BA917B"/>
<path d="M90.136 109.483L89.441 109.884L85.748 107.752L86.443 107.351L90.136 109.483Z" fill="#D9A284"/>
<path d="M90.136 109.483V113.59L89.441 113.992V109.884L90.136 109.483Z" fill="#86534F"/>
<path d="M87.728 110.91L86.286 111.742L85.592 112.143L84.033 113.043L80.338 110.91L81.899 110.009L82.593 109.608L84.033 108.777L87.728 110.91Z" fill="#FACBA1"/>
<path d="M87.728 110.91V115.015L86.286 115.848L85.592 116.249L84.033 117.149V113.043L85.592 112.143L86.286 111.742L87.728 110.91Z" fill="#9A6C5F"/>
<path d="M84.033 117.149L80.338 115.016V110.91L84.033 113.043V117.149Z" fill="#F3C395"/>
<path d="M83.761 113.736L82.592 113.061V112.515L83.761 113.19V113.736Z" fill="#BA917B"/>
<path d="M86.286 111.74L85.592 112.141L81.899 110.009L82.593 109.608L86.286 111.74Z" fill="#D9A284"/>
<path d="M86.286 111.74V115.848L85.592 116.249V112.141L86.286 111.74Z" fill="#86534F"/>
<path d="M95.426 110.909L93.985 111.741L93.29 112.143L91.732 113.043L88.037 110.909L89.597 110.008L90.292 109.607L91.732 108.776L95.426 110.909Z" fill="#FACBA1"/>
<path d="M95.426 110.909V115.015L93.985 115.847L93.29 116.248L91.732 117.148V113.043L93.29 112.143L93.985 111.741L95.426 110.909Z" fill="#9A6C5F"/>
<path d="M91.732 117.148L88.037 115.015V110.909L91.732 113.043V117.148Z" fill="#86534F"/>
<path d="M91.46 113.736L90.29 113.06V112.514L91.46 113.19V113.736Z" fill="#BA917B"/>
<path d="M93.985 111.74L93.29 112.14L89.597 110.008L90.292 109.607L93.985 111.74Z" fill="#D9A284"/>
<path d="M93.985 111.74V115.847L93.29 116.248V112.14L93.985 111.74Z" fill="#86534F"/>
<path d="M91.577 104.547L90.135 105.379L89.441 105.781L87.882 106.681L84.187 104.547L85.748 103.646L86.442 103.245L87.882 102.414L91.577 104.547Z" fill="#FACBA1"/>
<path d="M91.577 104.547V108.653L90.135 109.485L89.441 109.886L87.882 110.786V106.681L89.441 105.781L90.135 105.379L91.577 104.547Z" fill="#9A6C5F"/>
<path d="M87.882 110.786L84.187 108.653V104.547L87.882 106.68V110.786Z" fill="#F3C395"/>
<path d="M87.61 107.373L86.441 106.698V106.152L87.61 106.827V107.373Z" fill="#BA917B"/>
<path d="M85.493 106.06L84.324 105.385V104.839L85.493 105.514V106.06Z" fill="#BA917B"/>
<path d="M90.135 105.377L89.441 105.778L85.748 103.646L86.442 103.245L90.135 105.377Z" fill="#D9A284"/>
<path d="M90.135 105.377V109.485L89.441 109.886V105.778L90.135 105.377Z" fill="#86534F"/>
<path d="M95.426 106.804L93.985 107.636L93.29 108.037L91.731 108.938L88.036 106.804L89.597 105.903L90.292 105.502L91.731 104.671L95.426 106.804Z" fill="#FACBA1"/>
<path d="M95.426 106.804V110.909L93.985 111.742L93.29 112.143L91.731 113.043V108.938L93.29 108.037L93.985 107.636L95.426 106.804Z" fill="#9A6C5F"/>
<path d="M91.732 113.043L88.037 110.91V106.804L91.732 108.937V113.043Z" fill="#F3C395"/>
<path d="M91.459 109.63L90.29 108.955V108.409L91.459 109.084V109.63Z" fill="#BA917B"/>
<path d="M91.459 110.382L90.29 109.706V109.161L91.459 109.836V110.382Z" fill="#BA917B"/>
<path d="M93.985 107.634L93.29 108.035L89.597 105.903L90.292 105.502L93.985 107.634Z" fill="#D9A284"/>
<path d="M93.985 107.634V111.742L93.29 112.143V108.035L93.985 107.634Z" fill="#86534F"/>
<path d="M91.577 113.166L90.136 113.999L89.441 114.4L87.882 115.3L84.187 113.166L85.748 112.266L86.443 111.864L87.882 111.033L91.577 113.166Z" fill="#FACBA1"/>
<path d="M91.577 113.166V117.272L90.136 118.104L89.441 118.505L87.882 119.405V115.3L89.441 114.4L90.136 113.999L91.577 113.166Z" fill="#9A6C5F"/>
<path d="M87.883 119.405L84.188 117.272V113.166L87.883 115.3V119.405Z" fill="#86534F"/>
<path d="M87.61 115.993L86.441 115.318V114.772L87.61 115.447V115.993Z" fill="#BA917B"/>
<path d="M90.136 113.997L89.441 114.397L85.748 112.266L86.443 111.864L90.136 113.997Z" fill="#D9A284"/>
<path d="M90.136 113.997V118.104L89.441 118.505V114.397L90.136 113.997Z" fill="#86534F"/>
<path d="M80.353 115.391L81.794 116.224L82.489 116.625L84.048 117.525L87.742 115.391L86.182 114.491L85.487 114.089L84.048 113.258L80.353 115.391Z" fill="#FACBA1"/>
<path d="M80.353 115.391V119.497L81.794 120.329L82.489 120.73L84.048 121.63V117.525L82.489 116.625L81.794 116.224L80.353 115.391Z" fill="#F3C395"/>
<path d="M84.047 121.63L87.742 119.497V115.392L84.047 117.525V121.63Z" fill="#9A6C5F"/>
<path d="M84.319 118.218L85.489 117.543V116.997L84.319 117.672V118.218Z" fill="#86534F"/>
<path d="M81.794 116.222L82.489 116.622L86.182 114.491L85.487 114.089L81.794 116.222Z" fill="#D9A284"/>
<path d="M81.794 116.222V120.329L82.489 120.73V116.622L81.794 116.222Z" fill="#BA917B"/>
<path d="M88.029 115.384L89.47 116.216L90.165 116.618L91.724 117.518L95.419 115.384L93.858 114.483L93.164 114.082L91.724 113.251L88.029 115.384Z" fill="#FACBA1"/>
<path d="M88.029 115.384V119.49L89.47 120.322L90.165 120.723L91.724 121.623V117.518L90.165 116.618L89.47 116.216L88.029 115.384Z" fill="#F3C395"/>
<path d="M91.724 121.623L95.418 119.49V115.384L91.724 117.518V121.623Z" fill="#9A6C5F"/>
<path d="M91.996 118.21L93.165 117.535V116.99L91.996 117.665V118.21Z" fill="#86534F"/>
<path d="M91.996 118.983L93.165 118.308V117.762L91.996 118.438V118.983Z" fill="#86534F"/>
<path d="M91.996 119.765L93.165 119.09V118.544L91.996 119.219V119.765Z" fill="#86534F"/>
<path d="M89.47 116.214L90.165 116.615L93.858 114.483L93.164 114.082L89.47 116.214Z" fill="#D9A284"/>
<path d="M89.47 116.214V120.322L90.165 120.723V116.615L89.47 116.214Z" fill="#BA917B"/>
<path d="M84.047 121.63L87.763 122.744L90.263 121.827L91.724 121.623L99.763 124.494L102.763 122.494L107.263 124.494L109.763 122.994L95.418 115.384L95.426 106.804L91.731 108.938L91.724 113.251L95.419 115.384L91.724 117.518V121.623L88.029 115.384L84.048 117.525L84.047 121.63Z" fill="#858F9E" fill-opacity="0.3"/>
<path d="M112.789 151.415L107.294 154.587L105.796 153.722L111.29 150.55L112.789 151.415Z" fill="#CD6A29"/>
<path d="M105.796 157.053V153.722L107.294 154.587V157.918L105.796 157.053Z" fill="#B35A24"/>
<path d="M112.789 154.745L107.294 157.918V154.587L112.789 151.415V154.745Z" fill="#9C4B1F"/>
<path d="M107.294 157.918L110.43 158.212L116.258 154.789L112.743 154.049L112.789 151.415L107.294 154.587V157.918Z" fill="#A1A4A8" fill-opacity="0.3"/>
<path d="M132.866 113.221L140.099 117.397V113.781L132.866 109.605V113.221Z" fill="#E6E6E6"/>
<path d="M132.866 109.605L140.099 113.781L141.545 112.945L134.312 108.77L132.866 109.605Z" fill="#CCCCCC"/>
<path d="M140.099 117.397L141.545 116.562V112.945L140.099 113.781V117.397Z" fill="#999999"/>
<path d="M135.551 113.326C135.348 113.592 134.943 113.62 134.478 113.351C133.807 112.964 133.263 112.106 133.263 111.435C133.263 111.043 133.45 110.801 133.739 110.745C133.648 110.863 133.597 111.027 133.597 111.232C133.597 111.904 134.141 112.762 134.812 113.149C135.091 113.31 135.347 113.365 135.551 113.326Z" fill="#CCCCCC"/>
<path d="M135.693 112.839C135.693 113.044 135.642 113.208 135.551 113.326C135.347 113.365 135.09 113.31 134.812 113.15C134.141 112.763 133.597 111.905 133.597 111.233C133.597 111.028 133.648 110.864 133.739 110.746C133.943 110.707 134.199 110.762 134.478 110.922C135.149 111.309 135.693 112.167 135.693 112.839Z" fill="#B9B9B9"/>
<path d="M134.681 112.248C134.681 112.393 134.563 112.443 134.418 112.359C134.273 112.275 134.155 112.089 134.155 111.944C134.155 111.799 134.273 111.749 134.418 111.833C134.563 111.917 134.681 112.103 134.681 112.248Z" fill="#E6E6E6"/>
<path d="M138.224 114.885C138.021 115.151 137.617 115.179 137.151 114.91C136.48 114.522 135.936 113.665 135.936 112.994C135.936 112.601 136.123 112.36 136.412 112.304C136.321 112.422 136.27 112.586 136.27 112.791C136.27 113.463 136.814 114.32 137.485 114.708C137.763 114.869 138.02 114.924 138.224 114.885Z" fill="#CCCCCC"/>
<path d="M138.366 114.398C138.366 114.603 138.315 114.767 138.224 114.885C138.02 114.924 137.764 114.869 137.485 114.709C136.814 114.321 136.27 113.464 136.27 112.792C136.27 112.587 136.321 112.423 136.412 112.305C136.616 112.266 136.873 112.321 137.151 112.481C137.821 112.868 138.366 113.726 138.366 114.398Z" fill="#B9B9B9"/>
<path d="M137.353 113.807C137.353 113.952 137.235 114.002 137.09 113.918C136.945 113.834 136.827 113.648 136.827 113.503C136.827 113.357 136.945 113.308 137.09 113.392C137.235 113.476 137.353 113.662 137.353 113.807Z" fill="#E6E6E6"/>
<path d="M139.665 116.287L138.7 115.73V113.849L139.665 114.406V116.287Z" fill="#CCCCCC"/>
<path d="M132.866 108.582L140.099 112.758V109.142L132.866 104.966V108.582Z" fill="#E6E6E6"/>
<path d="M132.866 104.966L140.099 109.142L141.545 108.307L134.312 104.131L132.866 104.966Z" fill="#CCCCCC"/>
<path d="M140.099 112.758L141.545 111.923V108.307L140.099 109.142V112.758Z" fill="#999999"/>
<path d="M135.551 108.687C135.348 108.953 134.943 108.981 134.478 108.712C133.807 108.325 133.263 107.467 133.263 106.796C133.263 106.404 133.45 106.162 133.739 106.106C133.648 106.224 133.597 106.388 133.597 106.593C133.597 107.265 134.141 108.123 134.812 108.51C135.091 108.671 135.347 108.726 135.551 108.687Z" fill="#CCCCCC"/>
<path d="M135.693 108.2C135.693 108.405 135.642 108.57 135.551 108.687C135.347 108.726 135.09 108.671 134.812 108.511C134.141 108.124 133.597 107.266 133.597 106.594C133.597 106.389 133.648 106.225 133.739 106.107C133.943 106.068 134.199 106.123 134.478 106.283C135.149 106.67 135.693 107.528 135.693 108.2Z" fill="#B9B9B9"/>
<path d="M134.681 107.609C134.681 107.754 134.563 107.804 134.418 107.72C134.273 107.636 134.155 107.45 134.155 107.305C134.155 107.16 134.273 107.11 134.418 107.194C134.563 107.278 134.681 107.464 134.681 107.609Z" fill="#E6E6E6"/>
<path d="M138.224 110.246C138.021 110.512 137.617 110.54 137.151 110.271C136.48 109.883 135.936 109.026 135.936 108.355C135.936 107.962 136.123 107.721 136.412 107.665C136.321 107.783 136.27 107.947 136.27 108.152C136.27 108.824 136.814 109.682 137.485 110.069C137.763 110.23 138.02 110.285 138.224 110.246Z" fill="#CCCCCC"/>
<path d="M138.366 109.759C138.366 109.964 138.315 110.128 138.224 110.246C138.02 110.285 137.764 110.23 137.485 110.07C136.814 109.682 136.27 108.825 136.27 108.153C136.27 107.948 136.321 107.784 136.412 107.666C136.616 107.627 136.873 107.682 137.151 107.842C137.821 108.229 138.366 109.087 138.366 109.759Z" fill="#B9B9B9"/>
<path d="M137.353 109.169C137.353 109.314 137.235 109.364 137.09 109.28C136.945 109.196 136.827 109.01 136.827 108.865C136.827 108.719 136.945 108.67 137.09 108.754C137.235 108.837 137.353 109.023 137.353 109.169Z" fill="#E6E6E6"/>
<path d="M139.665 111.648L138.7 111.091V109.211L139.665 109.768V111.648Z" fill="#CCCCCC"/>
<path d="M132.866 103.889L140.099 108.065V104.448L132.866 100.273V103.889Z" fill="#E6E6E6"/>
<path d="M132.866 100.273L140.099 104.448L141.545 103.613L134.312 99.437L132.866 100.273Z" fill="#CCCCCC"/>
<path d="M140.099 108.065L141.545 107.23V103.613L140.099 104.448V108.065Z" fill="#999999"/>
<path d="M135.551 103.994C135.348 104.26 134.943 104.288 134.478 104.019C133.807 103.632 133.263 102.774 133.263 102.103C133.263 101.711 133.45 101.469 133.739 101.413C133.648 101.531 133.597 101.695 133.597 101.9C133.597 102.572 134.141 103.43 134.812 103.817C135.091 103.978 135.347 104.032 135.551 103.994Z" fill="#CCCCCC"/>
<path d="M135.693 103.506C135.693 103.711 135.642 103.875 135.551 103.993C135.347 104.032 135.09 103.977 134.812 103.817C134.141 103.43 133.597 102.572 133.597 101.9C133.597 101.695 133.648 101.531 133.739 101.413C133.943 101.374 134.199 101.429 134.478 101.589C135.149 101.977 135.693 102.835 135.693 103.506Z" fill="#B9B9B9"/>
<path d="M134.681 102.916C134.681 103.061 134.563 103.111 134.418 103.027C134.273 102.943 134.155 102.757 134.155 102.612C134.155 102.466 134.273 102.417 134.418 102.501C134.563 102.585 134.681 102.771 134.681 102.916Z" fill="#E6E6E6"/>
<path d="M138.224 105.553C138.021 105.819 137.617 105.847 137.151 105.578C136.48 105.19 135.936 104.333 135.936 103.662C135.936 103.27 136.123 103.028 136.412 102.972C136.321 103.09 136.27 103.254 136.27 103.459C136.27 104.131 136.814 104.988 137.485 105.376C137.763 105.537 138.02 105.592 138.224 105.553Z" fill="#CCCCCC"/>
<path d="M138.366 105.066C138.366 105.271 138.315 105.435 138.224 105.553C138.02 105.592 137.764 105.537 137.485 105.377C136.814 104.989 136.27 104.132 136.27 103.46C136.27 103.255 136.321 103.091 136.412 102.973C136.616 102.934 136.873 102.989 137.151 103.149C137.821 103.536 138.366 104.394 138.366 105.066Z" fill="#B9B9B9"/>
<path d="M137.353 104.475C137.353 104.62 137.235 104.67 137.09 104.586C136.945 104.502 136.827 104.316 136.827 104.171C136.827 104.026 136.945 103.976 137.09 104.06C137.235 104.144 137.353 104.33 137.353 104.475Z" fill="#E6E6E6"/>
<path d="M139.665 106.955L138.7 106.398V104.517L139.665 105.074V106.955Z" fill="#CCCCCC"/>
<defs>
<linearGradient id="paint0_linear_202_1300" x1="60.7353" y1="82.8113" x2="111.228" y2="122.599" gradientUnits="userSpaceOnUse">
<stop stop-color="#00D111"/>
<stop offset="1" stop-color="#00AB62"/>
</linearGradient>
<linearGradient id="paint1_linear_202_1300" x1="62.4749" y1="80.6038" x2="112.968" y2="120.392" gradientUnits="userSpaceOnUse">
<stop stop-color="#00D111"/>
<stop offset="1" stop-color="#00AB62"/>
</linearGradient>
<linearGradient id="paint2_linear_202_1300" x1="45.5166" y1="70.8121" x2="96.0097" y2="110.6" gradientUnits="userSpaceOnUse">
<stop stop-color="#00D111"/>
<stop offset="1" stop-color="#00AB62"/>
</linearGradient>
<linearGradient id="paint3_linear_202_1300" x1="64.2646" y1="78.3347" x2="114.756" y2="118.121" gradientUnits="userSpaceOnUse">
<stop stop-color="#00D111"/>
<stop offset="1" stop-color="#00AB62"/>
</linearGradient>
</defs>
</svg>
