<svg width="3100" height="1994" viewBox="0 0 3100 1994" fill="none" xmlns="http://www.w3.org/2000/svg">
<mask id="mask0_192_327" style="mask-type:luminance" maskUnits="userSpaceOnUse" x="0" y="-6" width="3100" height="2000">
<path d="M3100 -6H0V1994H3100V-6Z" fill="white"/>
</mask>
<g mask="url(#mask0_192_327)">
<path d="M237.884 1599.06H268.531V1576.32H237.884V1599.06Z" fill="#3A3739"/>
<path d="M261.178 1576.32L255.638 740.937C255.638 719.091 319.927 695.697 415.908 695.697V689.41C371.878 689.41 330.472 694.486 299.306 703.704C266.969 713.268 248.973 726.485 248.973 740.937L243.433 1576.32H261.178Z" fill="#3A3739"/>
<path d="M253.207 1599.06H268.531V1576.32H253.207V1599.06Z" fill="#3A3739"/>
<path d="M252.306 739.452C252.305 739.468 252.306 739.971 252.314 740.937C252.44 775.789 254.876 1413.29 255.497 1576.32H261.179L255.639 740.937C255.639 719.091 319.928 695.697 415.909 695.697V691.776C384.586 692.892 318.741 697.245 279.3 714.125C258.485 723.332 252.791 734.416 252.306 739.452Z" fill="#3A3739"/>
<path d="M415.633 694.746C415.767 695.438 415.9 696.105 416.042 696.726C416.671 699.571 419.091 701.661 421.999 701.881C436.246 702.981 477.879 705.394 481.321 696.742C481.572 696.137 481.628 695.461 481.462 694.746C481.297 694.007 481.14 693.308 480.967 692.64C478.177 681.418 474.539 679.744 459.663 676.719C443.899 673.513 418.548 675.705 415.696 681.356C415.539 681.662 415.405 682 415.295 682.362C414.258 685.591 414.847 690.636 415.633 694.746Z" fill="#3A3739"/>
<path d="M415.632 694.747C415.764 695.439 415.902 696.101 416.04 696.723C416.671 699.57 419.093 701.659 421.999 701.882C436.243 702.978 477.878 705.392 481.323 696.743C472.048 694.558 457.761 692.138 442.851 693.249C430.946 694.136 421.895 694.555 415.632 694.747Z" fill="#3A3739"/>
<path d="M415.295 682.361C422.32 683.194 430.32 684.019 437.44 684.357C447.719 684.844 469.07 689.74 480.967 692.64C478.177 681.418 474.539 679.744 459.663 676.719C443.899 673.513 418.548 675.705 415.696 681.356C415.539 681.662 415.405 682 415.295 682.361Z" fill="#3A3739"/>
</g>
<mask id="mask1_192_327" style="mask-type:luminance" maskUnits="userSpaceOnUse" x="0" y="-6" width="3100" height="2000">
<path d="M3100 -6H0V1994H3100V-6Z" fill="white"/>
</mask>
<g mask="url(#mask1_192_327)">
<path d="M1202.27 1599.06H1232.91V1576.32H1202.27V1599.06Z" fill="#3A3739"/>
<path d="M1225.56 1576.32L1220.02 740.937C1220.02 719.091 1284.31 695.697 1380.29 695.697V689.41C1336.26 689.41 1294.86 694.486 1263.69 703.704C1231.35 713.268 1213.36 726.485 1213.36 740.937L1207.82 1576.32H1225.56Z" fill="#3A3739"/>
<path d="M1217.59 1599.06H1232.91V1576.32H1217.59V1599.06Z" fill="#3A3739"/>
<path d="M1216.69 739.452C1216.69 739.468 1216.69 739.971 1216.7 740.937C1216.82 775.789 1219.26 1413.29 1219.88 1576.32H1225.56L1220.02 740.937C1220.02 719.091 1284.31 695.697 1380.29 695.697V691.776C1348.97 692.892 1283.12 697.245 1243.68 714.125C1222.87 723.332 1217.17 734.416 1216.69 739.452Z" fill="#3A3739"/>
<path d="M1380.02 694.746C1380.15 695.438 1380.28 696.105 1380.43 696.726C1381.06 699.571 1383.48 701.661 1386.38 701.881C1400.63 702.981 1442.26 705.394 1445.7 696.742C1445.96 696.137 1446.01 695.461 1445.85 694.746C1445.68 694.007 1445.52 693.308 1445.35 692.64C1442.56 681.418 1438.92 679.744 1424.05 676.719C1408.28 673.513 1382.93 675.705 1380.08 681.356C1379.92 681.662 1379.79 682 1379.68 682.362C1378.64 685.591 1379.23 690.636 1380.02 694.746Z" fill="#3A3739"/>
<path d="M1380.02 694.747C1380.15 695.439 1380.29 696.101 1380.42 696.723C1381.05 699.57 1383.48 701.659 1386.38 701.882C1400.63 702.978 1442.26 705.392 1445.71 696.743C1436.43 694.558 1422.14 692.138 1407.23 693.249C1395.33 694.136 1386.28 694.555 1380.02 694.747Z" fill="#3A3739"/>
<path d="M1379.68 682.361C1386.7 683.194 1394.7 684.019 1401.82 684.357C1412.1 684.844 1433.45 689.74 1445.35 692.64C1442.56 681.418 1438.92 679.744 1424.05 676.719C1408.28 673.513 1382.93 675.705 1380.08 681.356C1379.92 681.662 1379.79 682 1379.68 682.361Z" fill="#3A3739"/>
</g>
<mask id="mask2_192_327" style="mask-type:luminance" maskUnits="userSpaceOnUse" x="0" y="-6" width="3100" height="2000">
<path d="M3100 -6H0V1994H3100V-6Z" fill="white"/>
</mask>
<g mask="url(#mask2_192_327)">
<path d="M2166.65 1599.06H2197.3V1576.32H2166.65V1599.06Z" fill="#3A3739"/>
<path d="M2189.95 1576.32L2184.41 740.937C2184.41 719.091 2248.69 695.697 2344.68 695.697V689.41C2300.65 689.41 2259.24 694.486 2228.07 703.704C2195.74 713.268 2177.74 726.485 2177.74 740.937L2172.2 1576.32H2189.95Z" fill="#3A3739"/>
<path d="M2181.97 1599.06H2197.3V1576.32H2181.97V1599.06Z" fill="#3A3739"/>
<path d="M2181.07 739.452C2181.07 739.468 2181.07 739.971 2181.08 740.937C2181.21 775.789 2183.64 1413.29 2184.26 1576.32H2189.95L2184.41 740.937C2184.41 719.091 2248.69 695.697 2344.68 695.697V691.776C2313.35 692.892 2247.51 697.245 2208.07 714.125C2187.25 723.332 2181.56 734.416 2181.07 739.452Z" fill="#3A3739"/>
<path d="M2344.4 694.746C2344.53 695.438 2344.67 696.105 2344.81 696.726C2345.44 699.571 2347.86 701.661 2350.77 701.881C2365.01 702.981 2406.65 705.394 2410.09 696.742C2410.34 696.137 2410.39 695.461 2410.23 694.746C2410.06 694.007 2409.91 693.308 2409.73 692.64C2406.94 681.418 2403.31 679.744 2388.43 676.719C2372.67 673.513 2347.32 675.705 2344.46 681.356C2344.31 681.662 2344.17 682 2344.06 682.362C2343.02 685.591 2343.61 690.636 2344.4 694.746Z" fill="#3A3739"/>
<path d="M2344.4 694.747C2344.53 695.439 2344.67 696.101 2344.81 696.723C2345.44 699.57 2347.86 701.659 2350.77 701.882C2365.01 702.978 2406.65 705.392 2410.09 696.743C2400.82 694.558 2386.53 692.138 2371.62 693.249C2359.71 694.136 2350.66 694.555 2344.4 694.747Z" fill="#3A3739"/>
<path d="M2344.06 682.361C2351.09 683.194 2359.09 684.019 2366.21 684.357C2376.49 684.844 2397.84 689.74 2409.74 692.64C2406.95 681.418 2403.31 679.744 2388.43 676.719C2372.67 673.513 2347.32 675.705 2344.46 681.356C2344.31 681.662 2344.17 682 2344.06 682.361Z" fill="#3A3739"/>
</g>
<mask id="mask3_192_327" style="mask-type:luminance" maskUnits="userSpaceOnUse" x="-30" y="-6" width="3160" height="2000">
<path d="M3130 -6H-30V1994H3130V-6Z" fill="white"/>
</mask>
<g mask="url(#mask3_192_327)">
<path d="M665.91 1528.32H-52.0613V1534.72H665.91V1528.32Z" fill="#5B5B5B"/>
<path d="M641.853 1492.1H-28.0065V1498.49H641.853V1492.1Z" fill="#5B5B5B"/>
<path d="M669.169 1516.39H662.651V1516.29C662.651 1507.37 662.651 1501.98 660.737 1500.31C658.656 1498.49 652.332 1498.49 641.854 1498.49V1492.1C654.692 1492.1 661.136 1492.1 665.069 1495.53C669.169 1499.11 669.169 1504.85 669.169 1516.29V1516.39Z" fill="#5B5B5B"/>
<path d="M669.168 1516.39H662.65V1589.97H669.168V1516.39Z" fill="#5B5B5B"/>
<path d="M47.2095 1495.29H40.6918V1589.97H47.2095V1495.29Z" fill="#5B5B5B"/>
<path d="M122.249 1495.29H115.732V1589.97H122.249V1495.29Z" fill="#5B5B5B"/>
<path d="M197.29 1495.29H190.772V1589.97H197.29V1495.29Z" fill="#5B5B5B"/>
<path d="M272.331 1495.29H265.813V1589.97H272.331V1495.29Z" fill="#5B5B5B"/>
<path d="M347.372 1495.29H340.854V1589.97H347.372V1495.29Z" fill="#5B5B5B"/>
<path d="M422.413 1495.29H415.895V1589.97H422.413V1495.29Z" fill="#5B5B5B"/>
<path d="M497.454 1495.29H490.936V1589.97H497.454V1495.29Z" fill="#5B5B5B"/>
<path d="M572.493 1495.29H565.976V1589.97H572.493V1495.29Z" fill="#5B5B5B"/>
<path d="M647.534 1495.29H641.016V1589.97H647.534V1495.29Z" fill="#5B5B5B"/>
<path d="M1484.71 1528.32H766.736V1534.72H1484.71V1528.32Z" fill="#5B5B5B"/>
<path d="M1460.65 1492.1H790.792V1498.49H1460.65V1492.1Z" fill="#5B5B5B"/>
<path d="M769.995 1516.39H763.478V1516.29C763.478 1504.85 763.478 1499.11 767.577 1495.53C771.511 1492.1 777.954 1492.1 790.792 1492.1V1498.49C780.314 1498.49 773.99 1498.49 771.91 1500.31C769.995 1501.98 769.995 1507.37 769.995 1516.29V1516.39Z" fill="#5B5B5B"/>
<path d="M769.995 1516.39H763.478V1589.97H769.995V1516.39Z" fill="#5B5B5B"/>
<path d="M1487.97 1516.39H1481.45V1516.29C1481.45 1507.37 1481.45 1501.98 1479.53 1500.31C1477.45 1498.49 1471.13 1498.49 1460.65 1498.49V1492.1C1473.49 1492.1 1479.93 1492.1 1483.87 1495.53C1487.97 1499.11 1487.97 1504.85 1487.97 1516.29V1516.39Z" fill="#5B5B5B"/>
<path d="M1487.97 1516.39H1481.45V1589.97H1487.97V1516.39Z" fill="#5B5B5B"/>
<path d="M790.968 1495.29H784.45V1589.97H790.968V1495.29Z" fill="#5B5B5B"/>
<path d="M866.008 1495.29H859.491V1589.97H866.008V1495.29Z" fill="#5B5B5B"/>
<path d="M941.048 1495.29H934.53V1589.97H941.048V1495.29Z" fill="#5B5B5B"/>
<path d="M1016.09 1495.29H1009.57V1589.97H1016.09V1495.29Z" fill="#5B5B5B"/>
<path d="M1091.13 1495.29H1084.61V1589.97H1091.13V1495.29Z" fill="#5B5B5B"/>
<path d="M1166.17 1495.29H1159.65V1589.97H1166.17V1495.29Z" fill="#5B5B5B"/>
<path d="M1241.21 1495.29H1234.69V1589.97H1241.21V1495.29Z" fill="#5B5B5B"/>
<path d="M1316.25 1495.29H1309.73V1589.97H1316.25V1495.29Z" fill="#5B5B5B"/>
<path d="M1391.29 1495.29H1384.77V1589.97H1391.29V1495.29Z" fill="#5B5B5B"/>
<path d="M1466.33 1495.29H1459.82V1589.97H1466.33V1495.29Z" fill="#5B5B5B"/>
<path d="M2303.51 1528.32H1585.54V1534.72H2303.51V1528.32Z" fill="#5B5B5B"/>
<path d="M2279.45 1492.1H1609.59V1498.49H2279.45V1492.1Z" fill="#5B5B5B"/>
<path d="M1588.79 1516.39H1582.28V1516.29C1582.28 1504.85 1582.28 1499.11 1586.38 1495.53C1590.31 1492.1 1596.75 1492.1 1609.59 1492.1V1498.49C1599.11 1498.49 1592.79 1498.49 1590.71 1500.31C1588.79 1501.98 1588.79 1507.37 1588.79 1516.29V1516.39Z" fill="#5B5B5B"/>
<path d="M1588.79 1516.39H1582.28V1589.97H1588.79V1516.39Z" fill="#5B5B5B"/>
<path d="M2306.77 1516.39H2300.25V1516.29C2300.25 1507.37 2300.25 1501.98 2298.33 1500.31C2296.25 1498.49 2289.93 1498.49 2279.45 1498.49V1492.1C2292.29 1492.1 2298.73 1492.1 2302.67 1495.53C2306.76 1499.11 2306.76 1504.85 2306.76 1516.29L2306.77 1516.39Z" fill="#5B5B5B"/>
<path d="M2306.77 1516.39H2300.25V1589.97H2306.77V1516.39Z" fill="#5B5B5B"/>
<path d="M1609.77 1495.29H1603.25V1589.97H1609.77V1495.29Z" fill="#5B5B5B"/>
<path d="M1684.81 1495.29H1678.29V1589.97H1684.81V1495.29Z" fill="#5B5B5B"/>
<path d="M1759.85 1495.29H1753.33V1589.97H1759.85V1495.29Z" fill="#5B5B5B"/>
<path d="M1834.89 1495.29H1828.37V1589.97H1834.89V1495.29Z" fill="#5B5B5B"/>
<path d="M1909.93 1495.29H1903.41V1589.97H1909.93V1495.29Z" fill="#5B5B5B"/>
<path d="M1984.97 1495.29H1978.45V1589.97H1984.97V1495.29Z" fill="#5B5B5B"/>
<path d="M2060.01 1495.29H2053.49V1589.97H2060.01V1495.29Z" fill="#5B5B5B"/>
<path d="M2135.05 1495.29H2128.53V1589.97H2135.05V1495.29Z" fill="#5B5B5B"/>
<path d="M2210.09 1495.29H2203.57V1589.97H2210.09V1495.29Z" fill="#5B5B5B"/>
<path d="M2285.13 1495.29H2278.61V1589.97H2285.13V1495.29Z" fill="#5B5B5B"/>
<path d="M3122.31 1528.32H2404.33V1534.72H3122.31V1528.32Z" fill="#5B5B5B"/>
<path d="M3098.25 1492.1H2428.39V1498.49H3098.25V1492.1Z" fill="#5B5B5B"/>
<path d="M2407.59 1516.39H2401.08V1516.29C2401.08 1504.85 2401.08 1499.11 2405.18 1495.53C2409.11 1492.1 2415.55 1492.1 2428.39 1492.1V1498.49C2417.91 1498.49 2411.59 1498.49 2409.51 1500.31C2407.59 1501.98 2407.59 1507.37 2407.59 1516.29V1516.39Z" fill="#5B5B5B"/>
<path d="M2407.59 1516.39H2401.08V1589.97H2407.59V1516.39Z" fill="#5B5B5B"/>
<path d="M3125.56 1516.39H3119.05V1516.29C3119.05 1507.37 3119.05 1501.98 3117.13 1500.31C3115.05 1498.49 3108.73 1498.49 3098.25 1498.49V1492.1C3111.09 1492.1 3117.53 1492.1 3121.46 1495.53C3125.56 1499.11 3125.56 1504.85 3125.56 1516.29L3125.56 1516.39Z" fill="#5B5B5B"/>
<path d="M2428.56 1495.29H2422.05V1589.97H2428.56V1495.29Z" fill="#5B5B5B"/>
<path d="M2503.61 1495.29H2497.09V1589.97H2503.61V1495.29Z" fill="#5B5B5B"/>
<path d="M2578.65 1495.29H2572.13V1589.97H2578.65V1495.29Z" fill="#5B5B5B"/>
<path d="M2653.69 1495.29H2647.17V1589.97H2653.69V1495.29Z" fill="#5B5B5B"/>
<path d="M2728.73 1495.29H2722.21V1589.97H2728.73V1495.29Z" fill="#5B5B5B"/>
<path d="M2803.77 1495.29H2797.25V1589.97H2803.77V1495.29Z" fill="#5B5B5B"/>
<path d="M2878.81 1495.29H2872.29V1589.97H2878.81V1495.29Z" fill="#5B5B5B"/>
<path d="M2953.85 1495.29H2947.33V1589.97H2953.85V1495.29Z" fill="#5B5B5B"/>
<path d="M3028.89 1495.29H3022.37V1589.97H3028.89V1495.29Z" fill="#5B5B5B"/>
<path d="M3103.93 1495.29H3097.41V1589.97H3103.93V1495.29Z" fill="#5B5B5B"/>
</g>
</svg>
